<svg width="24" height="28" viewBox="0 0 24 28" fill="none" xmlns="http://www.w3.org/2000/svg">
    <g filter="url(#filter0_d_1333_28353)">
        <path fill-rule="evenodd" clip-rule="evenodd" d="M12 3.0376C9.23858 3.0376 7 5.27617 7 8.0376C7 10.7612 9.17772 12.9762 11.8869 13.0363C11.926 13.0318 11.9658 13.0294 12.0062 13.0294C12.0454 13.0295 12.0841 13.0317 12.1222 13.0361C14.8271 12.9713 17 10.7582 17 8.0376C17 5.27617 14.7614 3.0376 12 3.0376ZM5 8.0376C5 11.5629 7.60598 14.4795 10.9966 14.9662L10.9944 18.0293H8.00034C7.44355 18.0293 6.99219 18.4807 6.99219 19.0374C6.99219 19.5942 7.44355 20.0456 8.00034 20.0456H10.9929L10.9907 23.0369C10.9903 23.5936 11.4413 24.0453 11.9981 24.0457C12.5549 24.0462 13.0066 23.5951 13.007 23.0383L13.0092 20.0456H16.0003C16.5571 20.0456 17.0085 19.5942 17.0085 19.0374C17.0085 18.4807 16.5571 18.0293 16.0003 18.0293H13.0107L13.0129 14.9648C16.3989 14.4741 19 11.5596 19 8.0376C19 4.1716 15.866 1.0376 12 1.0376C8.13401 1.0376 5 4.1716 5 8.0376Z" fill="white"/>
    </g>
    <defs>
        <filter id="filter0_d_1333_28353" x="3" y="0.0375977" width="18" height="27.0083" filterUnits="userSpaceOnUse" color-interpolation-filters="sRGB">
            <feFlood flood-opacity="0" result="BackgroundImageFix"/>
            <feColorMatrix in="SourceAlpha" type="matrix" values="0 0 0 0 0 0 0 0 0 0 0 0 0 0 0 0 0 0 127 0" result="hardAlpha"/>
            <feOffset dy="1"/>
            <feGaussianBlur stdDeviation="1"/>
            <feComposite in2="hardAlpha" operator="out"/>
            <feColorMatrix type="matrix" values="0 0 0 0 0.666667 0 0 0 0 0.0972222 0 0 0 0 0.131389 0 0 0 1 0"/>
            <feBlend mode="normal" in2="BackgroundImageFix" result="effect1_dropShadow_1333_28353"/>
            <feBlend mode="normal" in="SourceGraphic" in2="effect1_dropShadow_1333_28353" result="shape"/>
        </filter>
    </defs>
</svg>
