<svg width="100" height="100" viewBox="0 0 100 100" fill="none" xmlns="http://www.w3.org/2000/svg">
    <circle cx="50" cy="50" r="50" fill="url(#paint0_linear_1862_31279)"/>
    <g filter="url(#filter0_d_1862_31279)">
        <path fill-rule="evenodd" clip-rule="evenodd" d="M52.511 43.691C60.3741 43.3059 63.8004 41.0932 65.4454 38.7286C67.0374 36.4401 67.3965 33.5032 67.4757 30.0521C59.5229 30.3948 56.1286 32.3828 54.5195 34.5954C53.5955 35.8659 53.0656 37.456 52.7859 39.449C52.6014 40.7633 52.535 42.1696 52.511 43.691ZM47.4597 57.4397C47.3463 54.3423 46.9069 51.148 45.2594 48.5127C43.5019 45.7014 40.0304 43.056 32.5116 42.577C32.5789 46.5988 32.9177 49.8769 34.5753 52.3632C36.2205 54.8308 39.6161 57.0504 47.4597 57.4397ZM47.4976 62.4462C38.6733 62.0534 33.3365 59.5186 30.4152 55.1368C27.4907 50.7504 27.4932 45.0837 27.4952 40.3708C27.4953 40.2465 27.4953 40.1229 27.4953 40C27.4953 38.6193 28.6146 37.5 29.9953 37.5C38.5223 37.5 44.0667 39.7471 47.5164 43.3203C47.5468 41.782 47.6264 40.236 47.8344 38.7541C48.1797 36.294 48.8998 33.8216 50.4758 31.6546C53.7059 27.2132 59.7766 25 69.9976 25C71.3783 25 72.4976 26.1193 72.4976 27.5C72.4976 27.6054 72.4977 27.7117 72.4977 27.8188C72.4997 31.9616 72.5023 37.3398 69.5499 41.5839C66.6269 45.7857 61.3171 48.3048 52.4976 48.6963V70H67.4999C68.8806 70 69.9999 71.1193 69.9999 72.5C69.9999 73.8807 68.8806 75 67.4999 75H32.4999C31.1192 75 29.9999 73.8807 29.9999 72.5C29.9999 71.1193 31.1192 70 32.4999 70H47.4976V62.4462Z" fill="white"/>
    </g>
    <defs>
        <filter id="filter0_d_1862_31279" x="22.4951" y="22.5" width="55.0029" height="60" filterUnits="userSpaceOnUse" color-interpolation-filters="sRGB">
            <feFlood flood-opacity="0" result="BackgroundImageFix"/>
            <feColorMatrix in="SourceAlpha" type="matrix" values="0 0 0 0 0 0 0 0 0 0 0 0 0 0 0 0 0 0 127 0" result="hardAlpha"/>
            <feOffset dy="2.5"/>
            <feGaussianBlur stdDeviation="2.5"/>
            <feComposite in2="hardAlpha" operator="out"/>
            <feColorMatrix type="matrix" values="0 0 0 0 0.0666667 0 0 0 0 0.239216 0 0 0 0 0.372549 0 0 0 1 0"/>
            <feBlend mode="normal" in2="BackgroundImageFix" result="effect1_dropShadow_1862_31279"/>
            <feBlend mode="normal" in="SourceGraphic" in2="effect1_dropShadow_1862_31279" result="shape"/>
        </filter>
        <linearGradient id="paint0_linear_1862_31279" x1="52.5822" y1="1.14508e-07" x2="52.5822" y2="100" gradientUnits="userSpaceOnUse">
            <stop stop-color="#5DB2AC"/>
            <stop offset="1" stop-color="#336069"/>
        </linearGradient>
    </defs>
</svg>
