<svg width="24" height="25" viewBox="0 0 24 25" fill="none" xmlns="http://www.w3.org/2000/svg">
    <g filter="url(#filter0_i_6052_17000)">
        <path fill-rule="evenodd" clip-rule="evenodd" d="M15 6C15 5.17157 15.6715 4.5 16.5 4.5C17.3285 4.5 18 5.17157 18 6C18 6.82843 17.3285 7.5 16.5 7.5C15.6715 7.5 15 6.82843 15 6ZM16.5 2.5C14.567 2.5 13 4.06702 13 6C13 6.24152 13.0245 6.47733 13.071 6.70508L7.85775 9.91326C7.2357 9.34595 6.40826 9 5.5 9C3.56695 9 2 10.567 2 12.5C2 14.433 3.56695 16 5.5 16C6.41217 16 7.24283 15.6511 7.86578 15.0794L13.1072 18.1369C13.0372 18.413 13 18.7021 13 19C13 20.933 14.567 22.5 16.5 22.5C18.433 22.5 20 20.933 20 19C20 17.067 18.433 15.5 16.5 15.5C15.5878 15.5 14.7572 15.8489 14.1342 16.4206L8.89278 13.3631C8.9628 13.087 9 12.7978 9 12.5C9 12.1983 8.96184 11.9056 8.89008 11.6263L14.0198 8.46957C14.6536 9.10606 15.5308 9.5 16.5 9.5C18.433 9.5 20 7.93298 20 6C20 4.06702 18.433 2.5 16.5 2.5ZM5.5 11C4.67155 11 4 11.6716 4 12.5C4 13.3284 4.67155 14 5.5 14C6.32845 14 7 13.3284 7 12.5C7 11.6716 6.32845 11 5.5 11ZM16.5 17.5C15.6715 17.5 15 18.1716 15 19C15 19.8284 15.6715 20.5 16.5 20.5C17.3285 20.5 18 19.8284 18 19C18 18.1716 17.3285 17.5 16.5 17.5Z" fill="#387682"/>
    </g>
    <defs>
        <filter id="filter0_i_6052_17000" x="2" y="2.5" width="18" height="21" filterUnits="userSpaceOnUse" color-interpolation-filters="sRGB">
            <feFlood flood-opacity="0" result="BackgroundImageFix"/>
            <feBlend mode="normal" in="SourceGraphic" in2="BackgroundImageFix" result="shape"/>
            <feColorMatrix in="SourceAlpha" type="matrix" values="0 0 0 0 0 0 0 0 0 0 0 0 0 0 0 0 0 0 127 0" result="hardAlpha"/>
            <feOffset dy="1"/>
            <feGaussianBlur stdDeviation="0.5"/>
            <feComposite in2="hardAlpha" operator="arithmetic" k2="-1" k3="1"/>
            <feColorMatrix type="matrix" values="0 0 0 0 0.109804 0 0 0 0 0.215686 0 0 0 0 0.239216 0 0 0 0.5 0"/>
            <feBlend mode="normal" in2="shape" result="effect1_innerShadow_6052_17000"/>
        </filter>
    </defs>
</svg>
