<svg width="24" height="25" viewBox="0 0 24 25" fill="none" xmlns="http://www.w3.org/2000/svg">
    <g filter="url(#filter0_i_6052_328)">
        <path fill-rule="evenodd" clip-rule="evenodd" d="M3.11133 12.4999C3.11133 7.59088 7.09088 3.61133 11.9999 3.61133C15.4268 3.61133 18.4008 5.55065 19.8842 8.39169C19.8927 8.42315 19.9028 8.45448 19.9146 8.4856C21.4599 12.566 18.2651 17.5 12.8461 17.5C10.0087 17.5 8 15.1131 8 12.3911C8 10.3048 9.65738 8.5019 11.6749 8.5C13.3239 8.50185 14.7272 9.64543 14.7272 11.4442C14.7272 12.5609 13.9559 13.3571 12.8461 13.3571C11.9106 13.3571 11.3868 12.6535 11.3107 12.194C11.2204 11.6491 10.7056 11.2806 10.1607 11.3709C9.61585 11.4611 9.24733 11.976 9.3376 12.5209C9.5509 13.8083 10.7992 15.3571 12.8461 15.3571C15.1078 15.3571 16.7272 13.6174 16.7272 11.4442C16.7272 8.36293 14.2419 6.50228 11.6759 6.5L11.6743 6.5C8.42238 6.50231 6 9.33513 6 12.3911C6 16.0344 8.72935 19.5 12.8461 19.5C15.7676 19.5 18.2481 18.3097 19.9362 16.5069C18.4711 19.403 15.4674 21.3885 11.9999 21.3885C7.09088 21.3885 3.11133 17.4089 3.11133 12.4999ZM11.9999 1.61133C5.98631 1.61133 1.11133 6.48631 1.11133 12.4999C1.11133 18.5135 5.98631 23.3885 11.9999 23.3885C18.0135 23.3885 22.8885 18.5135 22.8885 12.4999C22.8885 6.48631 18.0135 1.61133 11.9999 1.61133Z" fill="#387682"/>
    </g>
    <defs>
        <filter id="filter0_i_6052_328" x="1.11133" y="1.61133" width="21.7773" height="22.7771" filterUnits="userSpaceOnUse" color-interpolation-filters="sRGB">
            <feFlood flood-opacity="0" result="BackgroundImageFix"/>
            <feBlend mode="normal" in="SourceGraphic" in2="BackgroundImageFix" result="shape"/>
            <feColorMatrix in="SourceAlpha" type="matrix" values="0 0 0 0 0 0 0 0 0 0 0 0 0 0 0 0 0 0 127 0" result="hardAlpha"/>
            <feOffset dy="1"/>
            <feGaussianBlur stdDeviation="0.5"/>
            <feComposite in2="hardAlpha" operator="arithmetic" k2="-1" k3="1"/>
            <feColorMatrix type="matrix" values="0 0 0 0 0.109804 0 0 0 0 0.215686 0 0 0 0 0.239216 0 0 0 0.5 0"/>
            <feBlend mode="normal" in2="shape" result="effect1_innerShadow_6052_328"/>
        </filter>
    </defs>
</svg>
