<svg width="32" height="33" viewBox="0 0 32 33" fill="none" xmlns="http://www.w3.org/2000/svg">
    <g filter="url(#filter0_d_910_14131)">
        <path fill-rule="evenodd" clip-rule="evenodd" d="M17.0632 2.0376C18.0227 2.03731 18.9414 2.42535 19.6102 3.11336C20.2736 3.7958 20.6351 4.71573 20.6141 5.66658C20.6193 5.91494 20.6887 6.15783 20.8156 6.37161L20.8183 6.37614C21.0249 6.72859 21.3633 6.98436 21.7588 7.08704C22.1542 7.18972 22.5743 7.13088 22.9263 6.92351L22.9367 6.91746C24.6353 5.94415 26.8013 6.52933 27.7786 8.22563L28.6085 9.66568C28.6301 9.70327 28.6493 9.74211 28.6658 9.78192C29.5521 11.4562 28.9663 13.5432 27.3194 14.5064L27.3115 14.511C27.0797 14.6438 26.8875 14.836 26.7547 15.0678L26.7511 15.0742C26.5449 15.428 26.4883 15.8494 26.5938 16.2451C26.6993 16.6408 26.9582 16.978 27.3132 17.1822C28.1296 17.6519 28.725 18.4276 28.9677 19.3377C29.2103 20.2477 29.0802 21.2169 28.6061 22.0307L28.5996 22.0418L27.724 23.5011C26.7395 25.1856 24.5795 25.7603 22.8878 24.787C22.6621 24.6582 22.4085 24.5863 22.1488 24.5776C21.7422 24.5786 21.3523 24.7405 21.0645 25.0282C20.7741 25.3186 20.6119 25.7129 20.6139 26.1235L20.6139 26.1332C20.6045 28.0875 19.0176 29.6669 17.0632 29.6669H15.3912C13.4323 29.6669 11.8438 28.0806 11.8405 26.1224C11.8371 25.8701 11.7676 25.6231 11.6388 25.4061L11.6307 25.3923C11.4286 25.0389 11.0937 24.781 10.7004 24.6758C10.3072 24.5705 9.88824 24.6267 9.53665 24.8319L9.52164 24.8405C8.69759 25.3024 7.72342 25.4169 6.81471 25.1587C5.90937 24.9013 5.14337 24.2952 4.68485 23.4735L3.84721 22.0289L3.84616 22.0271C2.87018 20.3357 3.44881 18.1735 5.13908 17.1957C5.61888 16.9186 5.91521 16.4063 5.91521 15.8522C5.91521 15.2982 5.61964 14.7863 5.13984 14.5093L5.13701 14.5076C3.44689 13.5245 2.86967 11.3599 3.84584 9.66573L3.85796 9.64526L4.7432 8.19008C5.7236 6.50237 7.88376 5.92188 9.57865 6.89306L9.59187 6.90076C9.80861 7.0294 10.0553 7.09892 10.3072 7.10243C11.1501 7.09975 11.8365 6.42406 11.8526 5.58161C11.8512 4.64434 12.2217 3.74458 12.883 3.08001C13.5471 2.41273 14.4498 2.03759 15.3912 2.0376H17.0632ZM13.8525 5.60268C13.8247 7.54375 12.2431 9.10263 10.3018 9.10243L10.2915 9.10243C9.68872 9.09617 9.09817 8.93159 8.57901 8.62534C7.83797 8.2045 6.89552 8.46062 6.46969 9.19968L6.45756 9.22017L5.57357 10.6733C5.15471 11.4115 5.40728 12.3503 6.14155 12.7782C7.23915 13.4127 7.91521 14.5843 7.91521 15.8522C7.91521 17.1207 7.23855 18.2928 6.14009 18.9271C5.40582 19.3523 5.15437 20.2916 5.578 21.0267L6.4195 22.478L6.42907 22.4949C6.62906 22.8558 6.96461 23.1221 7.36148 23.2348C7.75612 23.347 8.17903 23.2982 8.53764 23.0993C9.34809 22.6295 10.3123 22.5015 11.2175 22.7437C12.1234 22.9862 12.8954 23.5795 13.3628 24.3923C13.6694 24.9117 13.8341 25.5026 13.8404 26.1058L13.8404 26.1162C13.8404 26.9726 14.5347 27.6669 15.3912 27.6669H17.0632C17.9155 27.6669 18.6077 26.9792 18.6139 26.1274C18.6109 25.1851 18.9839 24.2804 19.6503 23.614C20.3181 22.9462 21.2251 22.5731 22.1694 22.5777L22.1914 22.578C22.7851 22.5939 23.3657 22.7564 23.8813 23.0512L23.8843 23.0529C24.6242 23.4792 25.5696 23.2271 25.9989 22.489L26.0058 22.4773L26.8808 21.019C27.0847 20.6662 27.1402 20.2468 27.0352 19.853C26.9297 19.4573 26.6708 19.12 26.3158 18.9158C25.4995 18.4462 24.904 17.6704 24.6614 16.7604C24.419 15.8516 24.5485 14.8838 25.021 14.0707C25.3296 13.5331 25.7754 13.0871 26.3128 12.7782C27.0441 12.3482 27.2942 11.41 26.8735 10.6728L26.8756 10.6643L26.0457 9.22416C25.6197 8.4847 24.6764 8.22864 23.9352 8.65042C23.1268 9.12439 22.1633 9.2584 21.2561 9.02285C20.3475 8.78692 19.5698 8.19957 19.0944 7.39016C18.786 6.86964 18.6202 6.27697 18.614 5.67193L18.6143 5.63284C18.6263 5.2139 18.4683 4.80794 18.1762 4.50742C17.884 4.2069 17.4827 4.03742 17.0636 4.0376L15.3912 4.0376C14.9818 4.03759 14.5894 4.2007 14.3006 4.49083C14.0119 4.78096 13.8507 5.17419 13.8526 5.58351L13.8525 5.60268Z" fill="#C9E2E7"/>
    </g>
    <g filter="url(#filter1_d_910_14131)">
        <path fill-rule="evenodd" clip-rule="evenodd" d="M16.2336 13.3374C14.8447 13.3374 13.7188 14.4633 13.7188 15.8523C13.7188 17.2412 14.8447 18.3672 16.2336 18.3672C17.6225 18.3672 18.7485 17.2412 18.7485 15.8523C18.7485 14.4633 17.6225 13.3374 16.2336 13.3374ZM11.7188 15.8523C11.7188 13.3588 13.7401 11.3374 16.2336 11.3374C18.7271 11.3374 20.7485 13.3588 20.7485 15.8523C20.7485 18.3458 18.7271 20.3672 16.2336 20.3672C13.7401 20.3672 11.7188 18.3458 11.7188 15.8523Z" fill="#C9E2E7"/>
    </g>
    <defs>
        <filter id="filter0_d_910_14131" x="1.37109" y="1.0376" width="29.7163" height="31.6294" filterUnits="userSpaceOnUse" color-interpolation-filters="sRGB">
            <feFlood flood-opacity="0" result="BackgroundImageFix"/>
            <feColorMatrix in="SourceAlpha" type="matrix" values="0 0 0 0 0 0 0 0 0 0 0 0 0 0 0 0 0 0 127 0" result="hardAlpha"/>
            <feOffset dy="1"/>
            <feGaussianBlur stdDeviation="1"/>
            <feComposite in2="hardAlpha" operator="out"/>
            <feColorMatrix type="matrix" values="0 0 0 0 0.109804 0 0 0 0 0.215686 0 0 0 0 0.239216 0 0 0 0.8 0"/>
            <feBlend mode="normal" in2="BackgroundImageFix" result="effect1_dropShadow_910_14131"/>
            <feBlend mode="normal" in="SourceGraphic" in2="effect1_dropShadow_910_14131" result="shape"/>
        </filter>
        <filter id="filter1_d_910_14131" x="9.71875" y="10.3374" width="13.0298" height="13.0298" filterUnits="userSpaceOnUse" color-interpolation-filters="sRGB">
            <feFlood flood-opacity="0" result="BackgroundImageFix"/>
            <feColorMatrix in="SourceAlpha" type="matrix" values="0 0 0 0 0 0 0 0 0 0 0 0 0 0 0 0 0 0 127 0" result="hardAlpha"/>
            <feOffset dy="1"/>
            <feGaussianBlur stdDeviation="1"/>
            <feComposite in2="hardAlpha" operator="out"/>
            <feColorMatrix type="matrix" values="0 0 0 0 0.109804 0 0 0 0 0.215686 0 0 0 0 0.239216 0 0 0 0.8 0"/>
            <feBlend mode="normal" in2="BackgroundImageFix" result="effect1_dropShadow_910_14131"/>
            <feBlend mode="normal" in="SourceGraphic" in2="effect1_dropShadow_910_14131" result="shape"/>
        </filter>
    </defs>
</svg>
