<svg width="16" height="16" viewBox="0 0 16 16" fill="none" xmlns="http://www.w3.org/2000/svg">
    <g filter="url(#filter0_d_6154_16669)">
        <path fill-rule="evenodd" clip-rule="evenodd" d="M8 0.999999C4.68629 0.999999 2 3.68629 2 7C2 10.3137 4.68629 13 8 13C11.3137 13 14 10.3137 14 7C14 3.68629 11.3137 1 8 0.999999ZM8 11C7.44772 11 7 10.5523 7 10L7 7C7 6.44771 7.44772 6 8 6C8.55229 6 9 6.44771 9 7L9 10C9 10.5523 8.55228 11 8 11ZM8 5C8.55229 5 9 4.55228 9 4C9 3.44771 8.55229 3 8 3L7.99333 3C7.44105 3 6.99333 3.44771 6.99333 4C6.99333 4.55228 7.44105 5 7.99333 5L8 5Z" fill="white"/>
    </g>
    <defs>
        <filter id="filter0_d_6154_16669" x="0" y="0" width="16" height="16" filterUnits="userSpaceOnUse" color-interpolation-filters="sRGB">
            <feFlood flood-opacity="0" result="BackgroundImageFix"/>
            <feColorMatrix in="SourceAlpha" type="matrix" values="0 0 0 0 0 0 0 0 0 0 0 0 0 0 0 0 0 0 127 0" result="hardAlpha"/>
            <feOffset dy="1"/>
            <feGaussianBlur stdDeviation="1"/>
            <feComposite in2="hardAlpha" operator="out"/>
            <feColorMatrix type="matrix" values="0 0 0 0 0 0 0 0 0 0 0 0 0 0 0 0 0 0 0.3 0"/>
            <feBlend mode="normal" in2="BackgroundImageFix" result="effect1_dropShadow_6154_16669"/>
            <feBlend mode="normal" in="SourceGraphic" in2="effect1_dropShadow_6154_16669" result="shape"/>
        </filter>
    </defs>
</svg>
