<svg width="36" height="36" viewBox="0 0 36 36" fill="none" xmlns="http://www.w3.org/2000/svg">
    <g filter="url(#filter0_d_6034_11358)">
        <path fill-rule="evenodd" clip-rule="evenodd" d="M26.7071 9.29289C27.0976 9.68342 27.0976 10.3166 26.7071 10.7071L17.7071 19.7071C17.3166 20.0976 16.6834 20.0976 16.2929 19.7071C15.9024 19.3166 15.9024 18.6834 16.2929 18.2929L25.2929 9.29289C25.6834 8.90237 26.3166 8.90237 26.7071 9.29289Z" fill="white"/>
        <path fill-rule="evenodd" clip-rule="evenodd" d="M4 25C4 24.4477 4.44772 24 5 24L11 24C11.5523 24 12 24.4477 12 25C12 25.5523 11.5523 26 11 26L5 26C4.44772 26 4 25.5523 4 25Z" fill="white"/>
        <path fill-rule="evenodd" clip-rule="evenodd" d="M4.29304 25.7071C3.90252 25.3166 3.90252 24.6834 4.29304 24.2929L10.293 18.2929C10.6836 17.9024 11.3167 17.9024 11.7073 18.2929C12.0978 18.6834 12.0978 19.3166 11.7073 19.7071L5.70726 25.7071C5.31673 26.0976 4.68357 26.0976 4.29304 25.7071Z" fill="white"/>
        <path fill-rule="evenodd" clip-rule="evenodd" d="M10 19C10 18.4477 10.4477 18 11 18L17 18C17.5523 18 18 18.4477 18 19C18 19.5523 17.5523 20 17 20L11 20C10.4477 20 10 19.5523 10 19Z" fill="white"/>
        <path fill-rule="evenodd" clip-rule="evenodd" d="M22 6C22 5.44772 22.4477 5 23 5L30 5C30.5523 5 31 5.44772 31 6C31 6.55228 30.5523 7 30 7L23 7C22.4477 7 22 6.55228 22 6Z" fill="white"/>
        <path fill-rule="evenodd" clip-rule="evenodd" d="M11 24C11.5523 24 12 24.4477 12 25V31C12 31.5523 11.5523 32 11 32C10.4477 32 10 31.5523 10 31V25C10 24.4477 10.4477 24 11 24Z" fill="white"/>
        <path fill-rule="evenodd" clip-rule="evenodd" d="M17.7074 24.2929C18.098 24.6834 18.098 25.3166 17.7074 25.7071L11.7074 31.7071C11.3169 32.0976 10.6838 32.0976 10.2932 31.7071C9.90271 31.3166 9.90271 30.6834 10.2932 30.2929L16.2932 24.2929C16.6838 23.9024 17.3169 23.9024 17.7074 24.2929Z" fill="white"/>
        <path fill-rule="evenodd" clip-rule="evenodd" d="M17 18C17.5523 18 18 18.4477 18 19V25C18 25.5523 17.5523 26 17 26C16.4477 26 16 25.5523 16 25V19C16 18.4477 16.4477 18 17 18Z" fill="white"/>
        <path fill-rule="evenodd" clip-rule="evenodd" d="M30 5C30.5523 5 31 5.44772 31 6V13C31 13.5523 30.5523 14 30 14C29.4477 14 29 13.5523 29 13V6C29 5.44772 29.4477 5 30 5Z" fill="white"/>
    </g>
    <defs>
        <filter id="filter0_d_6034_11358" x="0" y="1" width="35" height="35" filterUnits="userSpaceOnUse" color-interpolation-filters="sRGB">
            <feFlood flood-opacity="0" result="BackgroundImageFix"/>
            <feColorMatrix in="SourceAlpha" type="matrix" values="0 0 0 0 0 0 0 0 0 0 0 0 0 0 0 0 0 0 127 0" result="hardAlpha"/>
            <feOffset/>
            <feGaussianBlur stdDeviation="2"/>
            <feComposite in2="hardAlpha" operator="out"/>
            <feColorMatrix type="matrix" values="0 0 0 0 1 0 0 0 0 1 0 0 0 0 1 0 0 0 0.5 0"/>
            <feBlend mode="normal" in2="BackgroundImageFix" result="effect1_dropShadow_6034_11358"/>
            <feBlend mode="normal" in="SourceGraphic" in2="effect1_dropShadow_6034_11358" result="shape"/>
        </filter>
    </defs>
</svg>
