<svg width="36" height="36" viewBox="0 0 36 36" fill="none" xmlns="http://www.w3.org/2000/svg">
    <g filter="url(#filter0_d_6052_11438)">
        <path fill-rule="evenodd" clip-rule="evenodd" d="M18 5.95349C11.3469 5.95349 5.95349 11.3469 5.95349 18C5.95349 24.6531 11.3469 30.0465 18 30.0465C24.6531 30.0465 30.0465 24.6531 30.0465 18C30.0465 11.3469 24.6531 5.95349 18 5.95349ZM4 18C4 10.268 10.268 4 18 4C25.732 4 32 10.268 32 18C32 25.732 25.732 32 18 32C10.268 32 4 25.732 4 18ZM19.0004 11.9192C19.3909 12.3098 19.3909 12.9429 19.0004 13.3335L15.3338 17H23.6667C24.219 17 24.6667 17.4477 24.6667 18C24.6667 18.5523 24.219 19 23.6667 19H15.4144L19.0004 22.5859C19.3909 22.9764 19.3909 23.6096 19.0004 24.0001C18.6098 24.3906 17.9767 24.3906 17.5861 24.0001L12.3059 18.7199C12.2972 18.7114 12.2886 18.7028 12.2801 18.6941L12.2528 18.6668C11.8623 18.2763 11.8623 17.6431 12.2528 17.2526L17.5861 11.9192C17.9767 11.5287 18.6098 11.5287 19.0004 11.9192Z" fill="white"/>
    </g>
    <defs>
        <filter id="filter0_d_6052_11438" x="0" y="0" width="36" height="36" filterUnits="userSpaceOnUse" color-interpolation-filters="sRGB">
            <feFlood flood-opacity="0" result="BackgroundImageFix"/>
            <feColorMatrix in="SourceAlpha" type="matrix" values="0 0 0 0 0 0 0 0 0 0 0 0 0 0 0 0 0 0 127 0" result="hardAlpha"/>
            <feOffset/>
            <feGaussianBlur stdDeviation="2"/>
            <feComposite in2="hardAlpha" operator="out"/>
            <feColorMatrix type="matrix" values="0 0 0 0 1 0 0 0 0 1 0 0 0 0 1 0 0 0 0.5 0"/>
            <feBlend mode="normal" in2="BackgroundImageFix" result="effect1_dropShadow_6052_11438"/>
            <feBlend mode="normal" in="SourceGraphic" in2="effect1_dropShadow_6052_11438" result="shape"/>
        </filter>
    </defs>
</svg>
