<svg width="27" height="21" viewBox="0 0 27 21" fill="none" xmlns="http://www.w3.org/2000/svg">
    <path fill-rule="evenodd" clip-rule="evenodd" d="M8.45767 2.58579C7.67662 1.80474 6.41029 1.80474 5.62924 2.58579L3.87188 4.34314C3.07623 5.1388 2.02681 5.52929 0.98561 5.5143C0.433381 5.50635 -0.00784221 5.05224 0.000105712 4.50001C0.00805554 3.94778 0.462169 3.50656 1.0144 3.51451C1.53757 3.52204 2.05965 3.32695 2.45767 2.92893L4.21503 1.17157L4.92213 1.87868L4.21503 1.17157C5.77713 -0.390525 8.30978 -0.390524 9.87188 1.17157L11.7217 3.02144C12.5028 3.80249 13.7691 3.80249 14.5502 3.02144L16.4 1.17157C17.9621 -0.390524 20.4948 -0.390522 22.0569 1.17157L23.8143 2.92893C24.205 3.31965 24.7151 3.51472 25.2285 3.51472C25.7807 3.51472 26.2285 3.96244 26.2285 4.51472C26.2284 5.06701 25.7807 5.51472 25.2284 5.51472C24.2063 5.51471 23.1809 5.12399 22.4 4.34315L20.6427 2.58579C19.8616 1.80474 18.5953 1.80474 17.8143 2.58579L15.9644 4.43565C14.4023 5.99775 11.8696 5.99775 10.3075 4.43565L8.45767 2.58579ZM5.62931 10.1932C6.41036 9.41216 7.67669 9.41216 8.45774 10.1932L10.3076 12.0431C11.8697 13.6052 14.4024 13.6052 15.9645 12.0431L17.8143 10.1932C18.5954 9.41216 19.8617 9.41216 20.6427 10.1932L22.4001 11.9506C23.181 12.7314 24.2064 13.1221 25.2285 13.1221C25.7808 13.1221 26.2285 12.6744 26.2285 12.1221C26.2285 11.5699 25.7808 11.1221 25.2285 11.1221C24.7151 11.1221 24.205 10.9271 23.8143 10.5364L22.057 8.779C20.4949 7.2169 17.9622 7.2169 16.4001 8.779L14.5502 10.6289C13.7692 11.4099 12.5029 11.4099 11.7218 10.6289L9.87195 8.77899C8.30985 7.2169 5.77719 7.2169 4.21509 8.77899L2.45774 10.5364C2.05972 10.9344 1.53763 11.1295 1.01446 11.1219C0.462235 11.114 0.0081223 11.5552 0.000172469 12.1074C-0.00777545 12.6597 0.433448 13.1138 0.985677 13.1217C2.02688 13.1367 3.07629 12.7462 3.87195 11.9506L5.62931 10.1932ZM5.62931 17.8006C6.41036 17.0196 7.67669 17.0196 8.45774 17.8006L10.3076 19.6505C11.8697 21.2126 14.4024 21.2126 15.9645 19.6505L17.8143 17.8006C18.5954 17.0196 19.8617 17.0196 20.6427 17.8006L22.4001 19.558C23.181 20.3388 24.2064 20.7296 25.2285 20.7296C25.7808 20.7296 26.2285 20.2819 26.2285 19.7296C26.2285 19.1773 25.7808 18.7296 25.2285 18.7296C24.7151 18.7296 24.205 18.5345 23.8143 18.1438L22.057 16.3864C20.4949 14.8243 17.9622 14.8243 16.4001 16.3864L14.5502 18.2363C13.7692 19.0173 12.5029 19.0173 11.7218 18.2363L9.87195 16.3864C8.30985 14.8243 5.77719 14.8243 4.21509 16.3864L2.45774 18.1438C2.05972 18.5418 1.53763 18.7369 1.01446 18.7294C0.462235 18.7214 0.0081223 19.1626 0.000172469 19.7149C-0.00777545 20.2671 0.433448 20.7212 0.985677 20.7291C2.02688 20.7441 3.07629 20.3536 3.87195 19.558L5.62931 17.8006Z" fill="#BFCBD3"/>
</svg>
