<svg width="100" height="100" viewBox="0 0 100 100" fill="none" xmlns="http://www.w3.org/2000/svg">
    <circle cx="50" cy="50" r="50" fill="url(#paint0_linear_1862_31156)"/>
    <g filter="url(#filter0_d_1862_31156)">
        <path fill-rule="evenodd" clip-rule="evenodd" d="M41.9502 26.3497C43.2756 26.7363 44.0368 28.1242 43.6502 29.4497L36.7668 53.0497C36.3002 54.6497 37.5002 56.2497 39.1668 56.2497H55.0002V38.7497C55.0002 37.369 56.1194 36.2497 57.5002 36.2497C58.8809 36.2497 60.0002 37.369 60.0002 38.7497V56.2497H65.0002C66.3809 56.2497 67.5002 57.369 67.5002 58.7497C67.5002 60.1304 66.3809 61.2497 65.0002 61.2497H60.0002V71.2497C60.0002 72.6304 58.8809 73.7497 57.5002 73.7497C56.1194 73.7497 55.0002 72.6304 55.0002 71.2497V61.2497H39.1668C34.1668 61.2497 30.5668 56.4497 31.9668 51.6497L38.8502 28.0497C39.2368 26.7242 40.6247 25.9631 41.9502 26.3497Z" fill="white"/>
    </g>
    <defs>
        <filter id="filter0_d_1862_31156" x="26.6621" y="23.749" width="45.8379" height="57.5005" filterUnits="userSpaceOnUse" color-interpolation-filters="sRGB">
            <feFlood flood-opacity="0" result="BackgroundImageFix"/>
            <feColorMatrix in="SourceAlpha" type="matrix" values="0 0 0 0 0 0 0 0 0 0 0 0 0 0 0 0 0 0 127 0" result="hardAlpha"/>
            <feOffset dy="2.5"/>
            <feGaussianBlur stdDeviation="2.5"/>
            <feComposite in2="hardAlpha" operator="out"/>
            <feColorMatrix type="matrix" values="0 0 0 0 0.0666667 0 0 0 0 0.239216 0 0 0 0 0.372549 0 0 0 1 0"/>
            <feBlend mode="normal" in2="BackgroundImageFix" result="effect1_dropShadow_1862_31156"/>
            <feBlend mode="normal" in="SourceGraphic" in2="effect1_dropShadow_1862_31156" result="shape"/>
        </filter>
        <linearGradient id="paint0_linear_1862_31156" x1="52.5822" y1="1.14508e-07" x2="52.5822" y2="100" gradientUnits="userSpaceOnUse">
            <stop stop-color="#5DB2AC"/>
            <stop offset="1" stop-color="#336069"/>
        </linearGradient>
    </defs>
</svg>
