<svg width="28" height="29" viewBox="0 0 28 29" fill="none" xmlns="http://www.w3.org/2000/svg">
    <path fill-rule="evenodd" clip-rule="evenodd" d="M9 0C9.55229 0 10 0.447715 10 1C10 1.61605 10.4399 1.96799 10.8081 1.96799H12.2045H12.2084V1.968C14.3758 1.97657 15.991 3.86004 16 6.00497L16 6.00633C17.2504 6.01396 18.5056 6.02847 19.7655 6.04973C24.5085 6.05404 28 9.59774 28 14.3755V20.6239C28 25.4032 24.5085 28.9453 19.7657 28.9497C15.8529 29.0181 12.0119 29.0153 8.23571 28.9497C3.49316 28.9453 0 25.4034 0 20.6239V14.3755C0 9.5961 3.49305 6.05424 8.23549 6.04973C10.1454 6.01603 12.0669 5.99964 13.9999 6.00001C13.9885 4.79924 13.1122 3.97264 12.2023 3.96799H10.8081C9.17917 3.96799 8 2.55773 8 1C8 0.447715 8.44772 0 9 0ZM11.1312 14.752C11.1312 14.1997 10.6835 13.752 10.1312 13.752C9.57896 13.752 9.13124 14.1997 9.13124 14.752V16.249H7.58398C7.0317 16.249 6.58398 16.6967 6.58398 17.249C6.58398 17.8013 7.0317 18.249 7.58398 18.249H9.13124V19.7453C9.13124 20.2976 9.57896 20.7453 10.1312 20.7453C10.6835 20.7453 11.1312 20.2976 11.1312 19.7453V18.249H12.6788C13.2311 18.249 13.6788 17.8013 13.6788 17.249C13.6788 16.6967 13.2311 16.249 12.6788 16.249H11.1312V14.752ZM17.679 14.9043C17.679 14.352 18.1267 13.9043 18.679 13.9043H18.8217C19.374 13.9043 19.8217 14.352 19.8217 14.9043C19.8217 15.4566 19.374 15.9043 18.8217 15.9043H18.679C18.1267 15.9043 17.679 15.4566 17.679 14.9043ZM21.097 18.6699C20.5447 18.6699 20.097 19.1176 20.097 19.6699C20.097 20.2222 20.5447 20.6699 21.097 20.6699H21.2397C21.792 20.6699 22.2397 20.2222 22.2397 19.6699C22.2397 19.1176 21.792 18.6699 21.2397 18.6699H21.097ZM8.26224 8.04957C12.0411 7.98279 15.8675 7.98417 19.7399 8.04958L19.7568 8.04972C23.3794 8.04972 26 10.679 26 14.3755V20.6239C26 24.3217 23.3795 26.9498 19.7568 26.9498L19.7393 26.9499C15.8445 27.0181 12.021 27.0153 8.26196 26.9499L8.24457 26.9498C4.6216 26.9498 2 24.3215 2 20.6239V14.3755C2 10.678 4.6216 8.04972 8.24457 8.04972L8.26224 8.04957Z" fill="#BFCBD3"/>
</svg>