<svg width="34" height="35" viewBox="0 0 34 35" fill="none" xmlns="http://www.w3.org/2000/svg">
    <g filter="url(#filter0_d_5989_21895)">
        <path fill-rule="evenodd" clip-rule="evenodd" d="M12 3C12.5523 3 13 3.44772 13 4C13 4.61605 13.4399 4.96799 13.8081 4.96799H15.2045H15.2084V4.968C17.3758 4.97657 18.991 6.86004 19 9.00497L19 9.00633C20.2504 9.01396 21.5056 9.02847 22.7655 9.04973C27.5085 9.05404 31 12.5977 31 17.3755V23.6239C31 28.4032 27.5085 31.9453 22.7657 31.9497C18.8529 32.0181 15.0119 32.0153 11.2357 31.9497C6.49316 31.9453 3 28.4034 3 23.6239V17.3755C3 12.5961 6.49305 9.05424 11.2355 9.04973C13.1454 9.01603 15.0669 8.99964 16.9999 9.00001C16.9885 7.79924 16.1122 6.97264 15.2023 6.96799H13.8081C12.1792 6.96799 11 5.55773 11 4C11 3.44772 11.4477 3 12 3ZM14.1312 17.752C14.1312 17.1997 13.6835 16.752 13.1312 16.752C12.579 16.752 12.1312 17.1997 12.1312 17.752V19.249H10.584C10.0317 19.249 9.58398 19.6967 9.58398 20.249C9.58398 20.8013 10.0317 21.249 10.584 21.249H12.1312V22.7453C12.1312 23.2976 12.579 23.7453 13.1312 23.7453C13.6835 23.7453 14.1312 23.2976 14.1312 22.7453V21.249H15.6788C16.2311 21.249 16.6788 20.8013 16.6788 20.249C16.6788 19.6967 16.2311 19.249 15.6788 19.249H14.1312V17.752ZM20.679 17.9043C20.679 17.352 21.1267 16.9043 21.679 16.9043H21.8217C22.374 16.9043 22.8217 17.352 22.8217 17.9043C22.8217 18.4566 22.374 18.9043 21.8217 18.9043H21.679C21.1267 18.9043 20.679 18.4566 20.679 17.9043ZM24.097 21.6699C23.5447 21.6699 23.097 22.1176 23.097 22.6699C23.097 23.2222 23.5447 23.6699 24.097 23.6699H24.2397C24.792 23.6699 25.2397 23.2222 25.2397 22.6699C25.2397 22.1176 24.792 21.6699 24.2397 21.6699H24.097ZM11.2622 11.0496C15.0411 10.9828 18.8675 10.9842 22.7399 11.0496L22.7568 11.0497C26.3794 11.0497 29 13.679 29 17.3755V23.6239C29 27.3217 26.3795 29.9498 22.7568 29.9498L22.7393 29.9499C18.8445 30.0181 15.021 30.0153 11.262 29.9499L11.2446 29.9498C7.6216 29.9498 5 27.3215 5 23.6239V17.3755C5 13.678 7.6216 11.0497 11.2446 11.0497L11.2622 11.0496Z" fill="url(#paint0_linear_5989_21895)"/>
    </g>
    <defs>
        <filter id="filter0_d_5989_21895" x="0" y="0" width="34" height="35" filterUnits="userSpaceOnUse" color-interpolation-filters="sRGB">
            <feFlood flood-opacity="0" result="BackgroundImageFix"/>
            <feColorMatrix in="SourceAlpha" type="matrix" values="0 0 0 0 0 0 0 0 0 0 0 0 0 0 0 0 0 0 127 0" result="hardAlpha"/>
            <feOffset/>
            <feGaussianBlur stdDeviation="1.5"/>
            <feComposite in2="hardAlpha" operator="out"/>
            <feColorMatrix type="matrix" values="0 0 0 0 1 0 0 0 0 0.768627 0 0 0 0 0.509804 0 0 0 0.5 0"/>
            <feBlend mode="normal" in2="BackgroundImageFix" result="effect1_dropShadow_5989_21895"/>
            <feBlend mode="normal" in="SourceGraphic" in2="effect1_dropShadow_5989_21895" result="shape"/>
        </filter>
        <linearGradient id="paint0_linear_5989_21895" x1="16.9343" y1="3" x2="16.9343" y2="32" gradientUnits="userSpaceOnUse">
            <stop stop-color="#FFD866"/>
            <stop offset="1" stop-color="#CB6B39"/>
        </linearGradient>
    </defs>
</svg>
