<svg width="36" height="36" viewBox="0 0 36 36" fill="none" xmlns="http://www.w3.org/2000/svg">
    <path fill-rule="evenodd" clip-rule="evenodd" d="M14 9.998C14.0009 7.7894 15.792 6 18.0003 6C20.2094 6 22 7.79058 22 9.99969C22 12.2085 20.2097 14 18.0003 14H17.9792H17.9758C15.7732 13.9925 13.9935 12.2005 14 9.998ZM14 9.998L14 9.99969H15L14 9.9963L14 9.998ZM18.0003 8C16.8955 8 16 8.89542 16 9.99969V10.0031C15.9963 11.1018 16.8837 11.9955 17.9811 12H18.0003C19.1046 12 20 11.1045 20 9.99969C20 8.89515 19.1049 8 18.0003 8ZM6.20155 21.5789C7.03843 20.6042 8.28155 19.9894 9.84789 20.0001C14.0467 20.0289 16.4764 22.2556 18.628 24.2274L18.6879 24.2823C20.872 26.2836 22.7847 27.9998 26.159 27.9998C27.1535 27.9998 27.8334 27.6229 28.2792 27.1006C28.7432 26.557 29 25.7975 29 25C29 24.2024 28.7432 23.4429 28.2792 22.8993C27.8334 22.377 27.1535 22.0001 26.159 22.0001C25.1227 22.0001 24.5718 22.0775 24.0453 22.261C23.4759 22.4594 22.8899 22.7944 21.7728 23.4383C21.2943 23.7141 20.6829 23.5498 20.4071 23.0713C20.1313 22.5928 20.2956 21.9813 20.7741 21.7055L20.8803 21.6443L20.8803 21.6442C21.8807 21.0674 22.6261 20.6376 23.3871 20.3724C24.2177 20.0829 25.0239 20.0001 26.159 20.0001C27.7251 20.0001 28.9658 20.6232 29.8003 21.6008C30.6167 22.5572 31 23.7976 31 25C31 26.2023 30.6167 27.4427 29.8003 28.3991C28.9658 29.3768 27.7251 29.9998 26.159 29.9998C21.9667 29.9998 19.5417 27.7775 17.3877 25.8035L17.3367 25.7568C15.1522 23.7552 13.2287 22.0233 9.83421 22.0001C8.83984 21.9933 8.16243 22.3653 7.71896 22.8818C7.25685 23.42 7 24.176 7 24.9737C7 25.7711 7.25684 26.5342 7.72272 27.0831C8.17082 27.6111 8.85316 27.993 9.84789 27.9998C11.6154 28.0119 13.2454 27.2965 14.2601 26.7117C14.7385 26.4359 15.35 26.6002 15.6258 27.0787C15.9016 27.5572 15.7373 28.1687 15.2588 28.4445C14.1021 29.1112 12.1089 30.0154 9.83421 29.9998C8.26825 29.9891 7.03006 29.3579 6.19782 28.3772C5.38335 27.4175 5 26.1762 5 24.9737C5 23.7715 5.38331 22.5319 6.20155 21.5789ZM9.00005 8.00339C9.00192 7.45111 8.55573 7.00188 8.00345 7.00001C7.45117 6.99813 7.00194 7.44433 7.00006 7.99661C6.97954 14.0523 11.8728 18.9795 17.9272 19L17.9306 19H18.0011C24.0763 19 29 14.0743 29 8C29 7.44772 28.5523 7 28 7C27.4477 7 27 7.44772 27 8C27 12.9701 22.9713 17 18.0011 17H17.9324C12.9835 16.9823 8.98328 12.9542 9.00005 8.00339Z" fill="#BFCBD3"/>
</svg>
