<svg width="36" height="36" viewBox="0 0 36 36" fill="none" xmlns="http://www.w3.org/2000/svg">
    <path fill-rule="evenodd" clip-rule="evenodd" d="M18.0006 4C14.1355 4 11.001 7.13227 11 10.9977C10.9879 14.8514 14.1018 17.9869 17.955 18L17.9584 18H18.0006C21.8668 18 25 14.865 25 10.9994C25 7.13345 21.8666 4 18.0006 4ZM13 10.9994C13 8.23828 15.239 6 18.0006 6C20.762 6 23 8.23801 23 10.9994C23 13.761 20.7617 16 18.0006 16H17.9601C15.2122 15.9898 12.9907 13.7527 13 11.0028H13V10.9994ZM18.0007 21C15.2831 21 12.6502 21.197 10.6664 21.8465C9.67024 22.1726 8.76163 22.6366 8.09218 23.3151C7.39763 24.0191 7 24.9168 7 25.9857C7 27.0525 7.39408 27.9506 8.08473 28.6574C8.75096 29.3391 9.65638 29.8076 10.6515 30.138C12.633 30.7957 15.2669 31 18.0007 31C20.7183 31 23.3509 30.8027 25.3344 30.153C26.3304 29.8268 27.2388 29.3627 27.9081 28.6843C28.6024 27.9804 29 27.0829 29 26.0143C29 24.9478 28.606 24.0499 27.9155 23.3432C27.2495 22.6615 26.3442 22.193 25.3493 21.8626C23.3682 21.2046 20.7345 21 18.0007 21ZM9 25.9857C9 25.46 9.17818 25.0621 9.51592 24.7198C9.87875 24.352 10.4589 24.0189 11.2887 23.7472C12.9566 23.2012 15.3241 23 18.0007 23C20.6902 23 23.0562 23.2085 24.7189 23.7606C25.5459 24.0353 26.1236 24.3711 26.485 24.7409C26.822 25.0858 27 25.4867 27 26.0143C27 26.5397 26.8219 26.9374 26.4842 27.2797C26.1215 27.6475 25.5415 27.9806 24.7119 28.2523C23.0443 28.7985 20.6772 29 18.0007 29C15.311 29 12.9447 28.7919 11.2816 28.2398C10.4545 27.9652 9.87663 27.6295 9.51515 27.2596C9.17808 26.9146 9 26.5137 9 25.9857Z" fill="#BFCBD3"/>
</svg>
