<svg width="100" height="100" viewBox="0 0 100 100" fill="none" xmlns="http://www.w3.org/2000/svg">
    <circle cx="50" cy="50" r="50" fill="url(#paint0_linear_1862_31164)"/>
    <g filter="url(#filter0_d_1862_31164)">
        <path fill-rule="evenodd" clip-rule="evenodd" d="M50 30C44.4772 30 40 34.4772 40 40V48.8195C42.6538 46.4443 46.1582 45 50 45C58.2843 45 65 51.7157 65 60C65 68.2843 58.2843 75 50 75C41.7157 75 35 68.2843 35 60V40C35 31.7157 41.7157 25 50 25C58.2843 25 65 31.7157 65 40C65 41.3807 63.8807 42.5 62.5 42.5C61.1193 42.5 60 41.3807 60 40C60 34.4772 55.5228 30 50 30ZM40 60C40 65.5228 44.4772 70 50 70C55.5228 70 60 65.5228 60 60C60 54.4772 55.5228 50 50 50C44.4772 50 40 54.4772 40 60Z" fill="white"/>
    </g>
    <defs>
        <filter id="filter0_d_1862_31164" x="30" y="22.5" width="40" height="60" filterUnits="userSpaceOnUse" color-interpolation-filters="sRGB">
            <feFlood flood-opacity="0" result="BackgroundImageFix"/>
            <feColorMatrix in="SourceAlpha" type="matrix" values="0 0 0 0 0 0 0 0 0 0 0 0 0 0 0 0 0 0 127 0" result="hardAlpha"/>
            <feOffset dy="2.5"/>
            <feGaussianBlur stdDeviation="2.5"/>
            <feComposite in2="hardAlpha" operator="out"/>
            <feColorMatrix type="matrix" values="0 0 0 0 0.0666667 0 0 0 0 0.239216 0 0 0 0 0.372549 0 0 0 1 0"/>
            <feBlend mode="normal" in2="BackgroundImageFix" result="effect1_dropShadow_1862_31164"/>
            <feBlend mode="normal" in="SourceGraphic" in2="effect1_dropShadow_1862_31164" result="shape"/>
        </filter>
        <linearGradient id="paint0_linear_1862_31164" x1="52.5822" y1="1.14508e-07" x2="52.5822" y2="100" gradientUnits="userSpaceOnUse">
            <stop stop-color="#5DB2AC"/>
            <stop offset="1" stop-color="#336069"/>
        </linearGradient>
    </defs>
</svg>
