<svg width="24" height="25" viewBox="0 0 24 25" fill="none" xmlns="http://www.w3.org/2000/svg">
    <g filter="url(#filter0_i_6002_26026)">
        <path fill-rule="evenodd" clip-rule="evenodd" d="M11.4632 5.02718C12.4834 3.6848 14.4092 3.44655 15.7258 4.49982L17.6013 6.00027C18.8724 7.01714 19.1007 8.86214 18.1157 10.1581L9.79617 21.1049C9.60707 21.3537 9.31252 21.4998 9.00001 21.4998H5.00001C4.54114 21.4998 4.14116 21.1875 4.02987 20.7424L3.02987 16.7424C2.95629 16.4481 3.02029 16.1363 3.20385 15.8948L11.4632 5.02718ZM14.4764 6.06156C14.0375 5.71047 13.3956 5.78989 13.0555 6.23735L12.4797 6.99499L15.954 9.69716L16.5234 8.94796C16.8517 8.51596 16.7756 7.90097 16.3519 7.56201L14.4764 6.06156ZM14.7438 11.2896L11.2695 8.58742L5.08654 16.7229L5.78078 19.4998H8.50398L14.7438 11.2896ZM13 20.5C13 19.9477 13.4477 19.5 14 19.5H20C20.5523 19.5 21 19.9477 21 20.5C21 21.0523 20.5523 21.5 20 21.5H14C13.4477 21.5 13 21.0523 13 20.5Z" fill="#387682"/>
    </g>
    <defs>
        <filter id="filter0_i_6002_26026" x="3" y="3.84229" width="18" height="18.6577" filterUnits="userSpaceOnUse" color-interpolation-filters="sRGB">
            <feFlood flood-opacity="0" result="BackgroundImageFix"/>
            <feBlend mode="normal" in="SourceGraphic" in2="BackgroundImageFix" result="shape"/>
            <feColorMatrix in="SourceAlpha" type="matrix" values="0 0 0 0 0 0 0 0 0 0 0 0 0 0 0 0 0 0 127 0" result="hardAlpha"/>
            <feOffset dy="1"/>
            <feGaussianBlur stdDeviation="0.5"/>
            <feComposite in2="hardAlpha" operator="arithmetic" k2="-1" k3="1"/>
            <feColorMatrix type="matrix" values="0 0 0 0 0.109804 0 0 0 0 0.215686 0 0 0 0 0.239216 0 0 0 0.5 0"/>
            <feBlend mode="normal" in2="shape" result="effect1_innerShadow_6002_26026"/>
        </filter>
    </defs>
</svg>
