<svg width="26" height="26" viewBox="0 0 26 26" fill="none" xmlns="http://www.w3.org/2000/svg">
    <g filter="url(#filter0_d_591_10072)">
        <path fill-rule="evenodd" clip-rule="evenodd" d="M8 3C5.79086 3 4 4.79086 4 7V17C4 19.2091 5.79086 21 8 21H18C20.2091 21 22 19.2091 22 17V7C22 4.79086 20.2091 3 18 3H8ZM2 7C2 3.68629 4.68629 1 8 1H18C21.3137 1 24 3.68629 24 7V17C24 20.3137 21.3137 23 18 23H8C4.68629 23 2 20.3137 2 17V7Z" fill="#864C45"/>
    </g>
    <g filter="url(#filter1_d_591_10072)">
        <path fill-rule="evenodd" clip-rule="evenodd" d="M13.483 8.98851C12.8588 8.89595 12.2214 9.00257 11.6613 9.29319C11.1012 9.58382 10.647 10.0436 10.3633 10.6073C10.0796 11.1709 9.98083 11.8097 10.0811 12.4327C10.1813 13.0557 10.4755 13.6312 10.9217 14.0774C11.3678 14.5236 11.9434 14.8177 12.5664 14.918C13.1894 15.0182 13.8281 14.9195 14.3917 14.6358C14.9554 14.3521 15.4152 13.8979 15.7058 13.3378C15.9965 12.7777 16.1031 12.1402 16.0105 11.516C15.9161 10.8793 15.6194 10.2899 15.1643 9.83474C14.7092 9.37961 14.1197 9.08292 13.483 8.98851ZM10.7401 7.51794C11.6736 7.03357 12.7361 6.85588 13.7764 7.01014C14.8375 7.1675 15.82 7.66197 16.5785 8.42053C17.3371 9.17908 17.8315 10.1615 17.9889 11.2226C18.1432 12.263 17.9655 13.3254 17.4811 14.2589C16.9967 15.1924 16.2303 15.9494 15.2909 16.4222C14.3515 16.8951 13.287 17.0596 12.2486 16.8926C11.2103 16.7255 10.2511 16.2352 9.50744 15.4916C8.76379 14.7479 8.27356 13.7887 8.10648 12.7504C7.9394 11.7121 8.10397 10.6475 8.5768 9.70811C9.04963 8.76871 9.80662 8.00232 10.7401 7.51794Z" fill="#864C45"/>
    </g>
    <g filter="url(#filter2_d_591_10072)">
        <path fill-rule="evenodd" clip-rule="evenodd" d="M17.5 6.5C17.5 5.94772 17.9477 5.5 18.5 5.5H18.51C19.0623 5.5 19.51 5.94772 19.51 6.5C19.51 7.05228 19.0623 7.5 18.51 7.5H18.5C17.9477 7.5 17.5 7.05228 17.5 6.5Z" fill="#864C45"/>
    </g>
    <defs>
        <filter id="filter0_d_591_10072" x="0" y="0" width="26" height="26" filterUnits="userSpaceOnUse" color-interpolation-filters="sRGB">
            <feFlood flood-opacity="0" result="BackgroundImageFix"/>
            <feColorMatrix in="SourceAlpha" type="matrix" values="0 0 0 0 0 0 0 0 0 0 0 0 0 0 0 0 0 0 127 0" result="hardAlpha"/>
            <feOffset dy="1"/>
            <feGaussianBlur stdDeviation="1"/>
            <feComposite in2="hardAlpha" operator="out"/>
            <feColorMatrix type="matrix" values="0 0 0 0 1 0 0 0 0 1 0 0 0 0 1 0 0 0 1 0"/>
            <feBlend mode="normal" in2="BackgroundImageFix" result="effect1_dropShadow_591_10072"/>
            <feBlend mode="normal" in="SourceGraphic" in2="effect1_dropShadow_591_10072" result="shape"/>
        </filter>
        <filter id="filter1_d_591_10072" x="6.04297" y="5.95605" width="14" height="14" filterUnits="userSpaceOnUse" color-interpolation-filters="sRGB">
            <feFlood flood-opacity="0" result="BackgroundImageFix"/>
            <feColorMatrix in="SourceAlpha" type="matrix" values="0 0 0 0 0 0 0 0 0 0 0 0 0 0 0 0 0 0 127 0" result="hardAlpha"/>
            <feOffset dy="1"/>
            <feGaussianBlur stdDeviation="1"/>
            <feComposite in2="hardAlpha" operator="out"/>
            <feColorMatrix type="matrix" values="0 0 0 0 1 0 0 0 0 1 0 0 0 0 1 0 0 0 1 0"/>
            <feBlend mode="normal" in2="BackgroundImageFix" result="effect1_dropShadow_591_10072"/>
            <feBlend mode="normal" in="SourceGraphic" in2="effect1_dropShadow_591_10072" result="shape"/>
        </filter>
        <filter id="filter2_d_591_10072" x="15.5" y="4.5" width="6.00977" height="6" filterUnits="userSpaceOnUse" color-interpolation-filters="sRGB">
            <feFlood flood-opacity="0" result="BackgroundImageFix"/>
            <feColorMatrix in="SourceAlpha" type="matrix" values="0 0 0 0 0 0 0 0 0 0 0 0 0 0 0 0 0 0 127 0" result="hardAlpha"/>
            <feOffset dy="1"/>
            <feGaussianBlur stdDeviation="1"/>
            <feComposite in2="hardAlpha" operator="out"/>
            <feColorMatrix type="matrix" values="0 0 0 0 1 0 0 0 0 1 0 0 0 0 1 0 0 0 1 0"/>
            <feBlend mode="normal" in2="BackgroundImageFix" result="effect1_dropShadow_591_10072"/>
            <feBlend mode="normal" in="SourceGraphic" in2="effect1_dropShadow_591_10072" result="shape"/>
        </filter>
    </defs>
</svg>
