<svg width="54" height="67" viewBox="0 0 54 67" fill="none" xmlns="http://www.w3.org/2000/svg">
<g filter="url(#filter0_f_119_8565)">
<ellipse cx="27" cy="55.6926" rx="14" ry="3.76923" fill="url(#paint0_linear_119_8565)"/>
</g>
<g filter="url(#filter1_dii_119_8565)">
<path d="M16.2311 44.4311C16.2311 36.3593 21.0526 24.8464 27.0003 24.8464C32.948 24.8464 37.7695 36.3593 37.7695 44.4311C37.7695 52.503 32.948 54.0771 27.0003 54.0771C21.0526 54.0771 16.2311 52.503 16.2311 44.4311Z" fill="url(#paint1_linear_119_8565)"/>
</g>
<mask id="mask0_119_8565" style="mask-type:alpha" maskUnits="userSpaceOnUse" x="16" y="24" width="22" height="31">
<path d="M16.232 44.4318C16.232 36.36 21.0536 24.8471 27.0013 24.8471C32.949 24.8471 37.7705 36.36 37.7705 44.4318C37.7705 52.5037 32.949 54.0778 27.0013 54.0778C21.0536 54.0778 16.232 52.5037 16.232 44.4318Z" fill="url(#paint2_linear_119_8565)"/>
</mask>
<g mask="url(#mask0_119_8565)">
<g opacity="0.76" filter="url(#filter2_f_119_8565)">
<path d="M20.8113 40.5302C19.7532 40.0548 20.4018 36.8853 21.9995 33.3298C23.5972 29.7743 26.6601 28.3031 27.7182 28.7786C28.7763 29.2541 26.9079 31.2683 25.3102 34.8238C23.7125 38.3793 21.8694 41.0057 20.8113 40.5302Z" fill="#FFAB9F"/>
</g>
<g filter="url(#filter3_f_119_8565)">
<ellipse cx="27.0013" cy="26.3857" rx="7.69268" ry="3.07692" fill="#A20013"/>
</g>
<g opacity="0.5" filter="url(#filter4_f_119_8565)">
<path d="M34.4108 42.9617C35.1924 43.4129 35.0024 45.5103 33.5676 47.9954C32.1328 50.4804 29.7007 51.2841 28.919 50.8328C28.1374 50.3815 29.6876 49.0638 31.1224 46.5787C32.5571 44.0936 33.5347 42.638 34.4108 42.9617Z" fill="#FF9385"/>
</g>
</g>
<path d="M16.232 44.4311C16.232 36.3593 21.0536 24.8464 27.0013 24.8464C32.949 24.8464 37.7705 36.3593 37.7705 44.4311C37.7705 52.503 32.949 54.0771 27.0013 54.0771C21.0536 54.0771 16.232 52.503 16.232 44.4311Z" stroke="#9D0E0E"/>
<g filter="url(#filter5_dii_119_8565)">
<circle cx="27.0009" cy="18.6923" r="7.69231" fill="url(#paint3_linear_119_8565)"/>
<circle cx="27.0009" cy="18.6923" r="7.19231" stroke="#9B0F10"/>
</g>
<g opacity="0.5" filter="url(#filter6_f_119_8565)">
<path d="M23.4627 19.5097C22.4465 18.923 22.0679 17.1237 23.0347 15.449C24.0016 13.7744 26.0448 13.5354 27.0609 14.1221C28.0771 14.7088 28.1967 15.9068 27.2298 17.5815C26.2629 19.2562 24.4789 20.0964 23.4627 19.5097Z" fill="#FFC3BB"/>
</g>
<g opacity="0.32" filter="url(#filter7_f_119_8565)">
<path d="M30.9489 19.8791C31.4423 20.164 31.6261 21.0376 31.1567 21.8507C30.6872 22.6638 29.6952 22.7798 29.2019 22.495C28.7085 22.2101 28.6505 21.6284 29.1199 20.8153C29.5893 20.0023 30.4555 19.5943 30.9489 19.8791Z" fill="#FFC3BB"/>
</g>
<defs>
<filter id="filter0_f_119_8565" x="5.61539" y="44.5387" width="42.7692" height="22.3077" filterUnits="userSpaceOnUse" color-interpolation-filters="sRGB">
<feFlood flood-opacity="0" result="BackgroundImageFix"/>
<feBlend mode="normal" in="SourceGraphic" in2="BackgroundImageFix" result="shape"/>
<feGaussianBlur stdDeviation="3.69231" result="effect1_foregroundBlur_119_8565"/>
</filter>
<filter id="filter1_dii_119_8565" x="0.846343" y="0.230992" width="52.3078" height="60" filterUnits="userSpaceOnUse" color-interpolation-filters="sRGB">
<feFlood flood-opacity="0" result="BackgroundImageFix"/>
<feColorMatrix in="SourceAlpha" type="matrix" values="0 0 0 0 0 0 0 0 0 0 0 0 0 0 0 0 0 0 127 0" result="hardAlpha"/>
<feOffset dy="-9.23077"/>
<feGaussianBlur stdDeviation="7.69231"/>
<feComposite in2="hardAlpha" operator="out"/>
<feColorMatrix type="matrix" values="0 0 0 0 1 0 0 0 0 1 0 0 0 0 1 0 0 0 0.5 0"/>
<feBlend mode="normal" in2="BackgroundImageFix" result="effect1_dropShadow_119_8565"/>
<feBlend mode="normal" in="SourceGraphic" in2="effect1_dropShadow_119_8565" result="shape"/>
<feColorMatrix in="SourceAlpha" type="matrix" values="0 0 0 0 0 0 0 0 0 0 0 0 0 0 0 0 0 0 127 0" result="hardAlpha"/>
<feOffset dy="1.53846"/>
<feGaussianBlur stdDeviation="2.30769"/>
<feComposite in2="hardAlpha" operator="arithmetic" k2="-1" k3="1"/>
<feColorMatrix type="matrix" values="0 0 0 0 0.890196 0 0 0 0 0.239216 0 0 0 0 0.239216 0 0 0 1 0"/>
<feBlend mode="normal" in2="shape" result="effect2_innerShadow_119_8565"/>
<feColorMatrix in="SourceAlpha" type="matrix" values="0 0 0 0 0 0 0 0 0 0 0 0 0 0 0 0 0 0 127 0" result="hardAlpha"/>
<feOffset dy="-3.07692"/>
<feGaussianBlur stdDeviation="3.07692"/>
<feComposite in2="hardAlpha" operator="arithmetic" k2="-1" k3="1"/>
<feColorMatrix type="matrix" values="0 0 0 0 0.74902 0 0 0 0 0.101961 0 0 0 0 0.184314 0 0 0 1 0"/>
<feBlend mode="normal" in2="effect2_innerShadow_119_8565" result="effect3_innerShadow_119_8565"/>
</filter>
<filter id="filter2_f_119_8565" x="19.2939" y="27.6917" width="9.73364" height="13.8942" filterUnits="userSpaceOnUse" color-interpolation-filters="sRGB">
<feFlood flood-opacity="0" result="BackgroundImageFix"/>
<feBlend mode="normal" in="SourceGraphic" in2="BackgroundImageFix" result="shape"/>
<feGaussianBlur stdDeviation="0.5" result="effect1_foregroundBlur_119_8565"/>
</filter>
<filter id="filter3_f_119_8565" x="13.1547" y="17.1549" width="27.6929" height="18.4615" filterUnits="userSpaceOnUse" color-interpolation-filters="sRGB">
<feFlood flood-opacity="0" result="BackgroundImageFix"/>
<feBlend mode="normal" in="SourceGraphic" in2="BackgroundImageFix" result="shape"/>
<feGaussianBlur stdDeviation="3.07692" result="effect1_foregroundBlur_119_8565"/>
</filter>
<filter id="filter4_f_119_8565" x="27.7092" y="41.9169" width="8.15674" height="10.0352" filterUnits="userSpaceOnUse" color-interpolation-filters="sRGB">
<feFlood flood-opacity="0" result="BackgroundImageFix"/>
<feBlend mode="normal" in="SourceGraphic" in2="BackgroundImageFix" result="shape"/>
<feGaussianBlur stdDeviation="0.5" result="effect1_foregroundBlur_119_8565"/>
</filter>
<filter id="filter5_dii_119_8565" x="2.38552" y="6.38462" width="49.2307" height="49.2308" filterUnits="userSpaceOnUse" color-interpolation-filters="sRGB">
<feFlood flood-opacity="0" result="BackgroundImageFix"/>
<feColorMatrix in="SourceAlpha" type="matrix" values="0 0 0 0 0 0 0 0 0 0 0 0 0 0 0 0 0 0 127 0" result="hardAlpha"/>
<feMorphology radius="4.61538" operator="erode" in="SourceAlpha" result="effect1_dropShadow_119_8565"/>
<feOffset dy="12.3077"/>
<feGaussianBlur stdDeviation="10.7692"/>
<feColorMatrix type="matrix" values="0 0 0 0 0.0666667 0 0 0 0 0.298039 0 0 0 0 0.372549 0 0 0 0.5 0"/>
<feBlend mode="normal" in2="BackgroundImageFix" result="effect1_dropShadow_119_8565"/>
<feBlend mode="normal" in="SourceGraphic" in2="effect1_dropShadow_119_8565" result="shape"/>
<feColorMatrix in="SourceAlpha" type="matrix" values="0 0 0 0 0 0 0 0 0 0 0 0 0 0 0 0 0 0 127 0" result="hardAlpha"/>
<feOffset dy="-3.07692"/>
<feGaussianBlur stdDeviation="2.30769"/>
<feComposite in2="hardAlpha" operator="arithmetic" k2="-1" k3="1"/>
<feColorMatrix type="matrix" values="0 0 0 0 0.890196 0 0 0 0 0.239216 0 0 0 0 0.239216 0 0 0 1 0"/>
<feBlend mode="normal" in2="shape" result="effect2_innerShadow_119_8565"/>
<feColorMatrix in="SourceAlpha" type="matrix" values="0 0 0 0 0 0 0 0 0 0 0 0 0 0 0 0 0 0 127 0" result="hardAlpha"/>
<feOffset dy="-1.53846"/>
<feGaussianBlur stdDeviation="1.53846"/>
<feComposite in2="hardAlpha" operator="arithmetic" k2="-1" k3="1"/>
<feColorMatrix type="matrix" values="0 0 0 0 0.74902 0 0 0 0 0.101961 0 0 0 0 0.184314 0 0 0 0.6 0"/>
<feBlend mode="normal" in2="effect2_innerShadow_119_8565" result="effect3_innerShadow_119_8565"/>
</filter>
<filter id="filter6_f_119_8565" x="21.4751" y="12.8325" width="7.41772" height="7.86365" filterUnits="userSpaceOnUse" color-interpolation-filters="sRGB">
<feFlood flood-opacity="0" result="BackgroundImageFix"/>
<feBlend mode="normal" in="SourceGraphic" in2="BackgroundImageFix" result="shape"/>
<feGaussianBlur stdDeviation="0.5" result="effect1_foregroundBlur_119_8565"/>
</filter>
<filter id="filter7_f_119_8565" x="27.7979" y="18.7886" width="4.63062" height="4.84692" filterUnits="userSpaceOnUse" color-interpolation-filters="sRGB">
<feFlood flood-opacity="0" result="BackgroundImageFix"/>
<feBlend mode="normal" in="SourceGraphic" in2="BackgroundImageFix" result="shape"/>
<feGaussianBlur stdDeviation="0.5" result="effect1_foregroundBlur_119_8565"/>
</filter>
<linearGradient id="paint0_linear_119_8565" x1="26.4167" y1="59.9849" x2="26.4167" y2="51.1901" gradientUnits="userSpaceOnUse">
<stop stop-color="#1C373D"/>
<stop offset="1" stop-color="#1C373D" stop-opacity="0"/>
</linearGradient>
<linearGradient id="paint1_linear_119_8565" x1="23.1541" y1="24.8464" x2="23.1541" y2="54.0771" gradientUnits="userSpaceOnUse">
<stop stop-color="#FF896F"/>
<stop offset="1" stop-color="#E84855"/>
</linearGradient>
<linearGradient id="paint2_linear_119_8565" x1="23.1551" y1="24.8471" x2="23.1551" y2="54.0778" gradientUnits="userSpaceOnUse">
<stop stop-color="#FF896F"/>
<stop offset="1" stop-color="#E84855"/>
</linearGradient>
<linearGradient id="paint3_linear_119_8565" x1="26.9648" y1="11" x2="26.9648" y2="26.3846" gradientUnits="userSpaceOnUse">
<stop stop-color="#FF896F"/>
<stop offset="1" stop-color="#E84855"/>
</linearGradient>
</defs>
</svg>
