<svg width="24" height="26" viewBox="0 0 24 26" fill="none" xmlns="http://www.w3.org/2000/svg">
    <g filter="url(#filter0_d_6002_10739)">
        <path fill-rule="evenodd" clip-rule="evenodd" d="M15 2.43018C14.4477 2.43018 14 2.87789 14 3.43018C14 3.98246 14.4477 4.43018 15 4.43018H18.4781L13.1836 9.81739C12.0165 8.94605 10.5685 8.43018 9 8.43018C5.13401 8.43018 2 11.5642 2 15.4302C2 19.2962 5.13401 22.4302 9 22.4302C12.866 22.4302 16 19.2962 16 15.4302C16 13.854 15.4791 12.3995 14.6 11.2295L20 5.73489V9.43018C20 9.98246 20.4477 10.4302 21 10.4302C21.5523 10.4302 22 9.98246 22 9.43018V3.43018C22 2.87789 21.5523 2.43018 21 2.43018H15ZM9 10.4302C6.23858 10.4302 4 12.6688 4 15.4302C4 18.1916 6.23858 20.4302 9 20.4302C11.7614 20.4302 14 18.1916 14 15.4302C14 12.6688 11.7614 10.4302 9 10.4302Z" fill="white"/>
    </g>
    <defs>
        <filter id="filter0_d_6002_10739" x="0" y="1.43018" width="24" height="24" filterUnits="userSpaceOnUse" color-interpolation-filters="sRGB">
            <feFlood flood-opacity="0" result="BackgroundImageFix"/>
            <feColorMatrix in="SourceAlpha" type="matrix" values="0 0 0 0 0 0 0 0 0 0 0 0 0 0 0 0 0 0 127 0" result="hardAlpha"/>
            <feOffset dy="1"/>
            <feGaussianBlur stdDeviation="1"/>
            <feComposite in2="hardAlpha" operator="out"/>
            <feColorMatrix type="matrix" values="0 0 0 0 0.168627 0 0 0 0 0.227451 0 0 0 0 0.403922 0 0 0 1 0"/>
            <feBlend mode="normal" in2="BackgroundImageFix" result="effect1_dropShadow_6002_10739"/>
            <feBlend mode="normal" in="SourceGraphic" in2="effect1_dropShadow_6002_10739" result="shape"/>
        </filter>
    </defs>
</svg>
