<svg width="24" height="25" viewBox="0 0 60 63" fill="none" xmlns="http://www.w3.org/2000/svg">
    <g filter="url(#filter0_d_1862_31117)">
        <path fill-rule="evenodd" clip-rule="evenodd" d="M20.4825 11.5124C21.2556 8.41967 24.0345 6.25 27.2224 6.25H41.5278C42.9085 6.25 44.0278 7.36929 44.0278 8.75C44.0278 10.1307 42.9085 11.25 41.5278 11.25H27.2224C26.3288 11.25 25.5499 11.8582 25.3332 12.7251L22.7744 22.9603C22.3584 24.6242 23.62 26.235 25.3352 26.2297L30.5621 26.2135C38.5287 26.1888 45 32.6401 45 40.6067C45 48.5559 38.5559 55 30.6067 55H30C21.7157 55 15 48.2843 15 40V39.2647C15 37.884 16.1193 36.7647 17.5 36.7647C18.8807 36.7647 20 37.884 20 39.2647V40C20 45.5228 24.4772 50 30 50H30.6067C35.7945 50 40 45.7945 40 40.6067C40 35.4075 35.7767 31.1973 30.5776 31.2134L25.3507 31.2296C20.3763 31.245 16.7172 26.5735 17.9237 21.7476L20.4825 11.5124Z" fill="white"/>
    </g>
    <defs>
        <filter id="filter0_d_1862_31117" x="10" y="3.75" width="40" height="58.75" filterUnits="userSpaceOnUse" color-interpolation-filters="sRGB">
            <feFlood flood-opacity="0" result="BackgroundImageFix"/>
            <feColorMatrix in="SourceAlpha" type="matrix" values="0 0 0 0 0 0 0 0 0 0 0 0 0 0 0 0 0 0 127 0" result="hardAlpha"/>
            <feOffset dy="2.5"/>
            <feGaussianBlur stdDeviation="2.5"/>
            <feComposite in2="hardAlpha" operator="out"/>
            <feColorMatrix type="matrix" values="0 0 0 0 0.0666667 0 0 0 0 0.239216 0 0 0 0 0.372549 0 0 0 1 0"/>
            <feBlend mode="normal" in2="BackgroundImageFix" result="effect1_dropShadow_1862_31117"/>
            <feBlend mode="normal" in="SourceGraphic" in2="effect1_dropShadow_1862_31117" result="shape"/>
        </filter>
    </defs>
</svg>
