<svg width="24" height="25" viewBox="0 0 60 63" fill="none" xmlns="http://www.w3.org/2000/svg">
    <g filter="url(#filter0_d_1862_31120)">
        <path fill-rule="evenodd" clip-rule="evenodd" d="M29.3374 10C24.9552 10 21.3889 13.5543 21.3889 17.9167L21.3889 18.0882C21.3889 19.469 20.2696 20.5882 18.8889 20.5882C17.5082 20.5882 16.3889 19.4689 16.3889 18.0882L16.3889 17.9167C16.3889 10.773 22.2137 5 29.3374 5C36.426 5 42.2222 10.7446 42.2222 17.8531C42.2222 21.8553 40.3745 25.5055 37.4035 27.8866C41.9257 30.3181 45 35.0942 45 40.5882C45 48.5476 38.5476 55 30.5882 55H30C21.7157 55 15 48.2843 15 40V39.2647C15 37.884 16.1193 36.7647 17.5 36.7647C18.8807 36.7647 20 37.884 20 39.2647V40C20 45.5228 24.4772 50 30 50H30.5882C35.7862 50 40 45.7862 40 40.5882C40 35.3903 35.7862 31.1765 30.5882 31.1765H28.6111C27.3432 31.1765 26.2761 30.2274 26.1282 28.9682C25.9802 27.7089 26.7984 26.5384 28.0317 26.2445L31.1891 25.4923C34.7262 24.6497 37.2222 21.4891 37.2222 17.8531C37.2222 13.5259 33.6845 10 29.3374 10Z" fill="white"/>
    </g>
    <defs>
        <filter id="filter0_d_1862_31120" x="10" y="2.5" width="40" height="60" filterUnits="userSpaceOnUse" color-interpolation-filters="sRGB">
            <feFlood flood-opacity="0" result="BackgroundImageFix"/>
            <feColorMatrix in="SourceAlpha" type="matrix" values="0 0 0 0 0 0 0 0 0 0 0 0 0 0 0 0 0 0 127 0" result="hardAlpha"/>
            <feOffset dy="2.5"/>
            <feGaussianBlur stdDeviation="2.5"/>
            <feComposite in2="hardAlpha" operator="out"/>
            <feColorMatrix type="matrix" values="0 0 0 0 0.0666667 0 0 0 0 0.239216 0 0 0 0 0.372549 0 0 0 1 0"/>
            <feBlend mode="normal" in2="BackgroundImageFix" result="effect1_dropShadow_1862_31120"/>
            <feBlend mode="normal" in="SourceGraphic" in2="effect1_dropShadow_1862_31120" result="shape"/>
        </filter>
    </defs>
</svg>
