<svg width="24" height="26" viewBox="0 0 24 26" fill="none" xmlns="http://www.w3.org/2000/svg">
    <g filter="url(#filter0_d_1333_28373)">
        <path fill-rule="evenodd" clip-rule="evenodd" d="M9.4246 5.46045C10.5574 3.41324 12.7791 2.0376 15.3138 2.0376C18.9741 2.0376 21.998 4.91695 21.998 8.5376C21.998 12.1582 18.9741 15.0376 15.3138 15.0376H7.17273C4.34614 15.0376 1.99805 12.8122 1.99805 9.9982C1.99805 6.19532 6.07564 3.87536 9.4246 5.46045ZM11.1803 6.41896L13.4293 7.66246C13.9126 7.9297 14.0878 8.53815 13.8206 9.02147C13.5533 9.5048 12.9449 9.67997 12.4615 9.41274L8.76009 7.36616C6.59446 6.16877 3.99805 7.71359 3.99805 9.9982C3.99805 11.646 5.38809 13.0376 7.17273 13.0376H15.3138C17.9322 13.0376 19.998 10.9921 19.998 8.5376C19.998 6.08311 17.9322 4.0376 15.3138 4.0376C13.5123 4.0376 11.9645 5.01116 11.1803 6.41896Z" fill="white"/>
    </g>
    <g filter="url(#filter1_d_1333_28373)">
        <path fill-rule="evenodd" clip-rule="evenodd" d="M1.99805 18.0376C1.99805 17.4853 2.44576 17.0376 2.99805 17.0376H14.7529C16.3156 17.0376 17.608 18.2446 17.6832 19.8069L17.6833 19.8094C17.7594 21.482 16.3946 22.8261 14.7529 22.8261C14.2007 22.8261 13.7529 22.3783 13.7529 21.8261C13.7529 21.2738 14.2007 20.8261 14.7529 20.8261C15.3069 20.8261 15.7066 20.3824 15.6854 19.9017C15.6619 19.4261 15.2682 19.0376 14.7529 19.0376H2.99805C2.44576 19.0376 1.99805 18.5899 1.99805 18.0376Z" fill="white"/>
    </g>
    <defs>
        <filter id="filter0_d_1333_28373" x="-0.00195312" y="1.0376" width="24" height="17" filterUnits="userSpaceOnUse" color-interpolation-filters="sRGB">
            <feFlood flood-opacity="0" result="BackgroundImageFix"/>
            <feColorMatrix in="SourceAlpha" type="matrix" values="0 0 0 0 0 0 0 0 0 0 0 0 0 0 0 0 0 0 127 0" result="hardAlpha"/>
            <feOffset dy="1"/>
            <feGaussianBlur stdDeviation="1"/>
            <feComposite in2="hardAlpha" operator="out"/>
            <feColorMatrix type="matrix" values="0 0 0 0 0.351389 0 0 0 0 0.410167 0 0 0 0 0.479167 0 0 0 1 0"/>
            <feBlend mode="normal" in2="BackgroundImageFix" result="effect1_dropShadow_1333_28373"/>
            <feBlend mode="normal" in="SourceGraphic" in2="effect1_dropShadow_1333_28373" result="shape"/>
        </filter>
        <filter id="filter1_d_1333_28373" x="-0.00195312" y="16.0376" width="19.6885" height="9.78857" filterUnits="userSpaceOnUse" color-interpolation-filters="sRGB">
            <feFlood flood-opacity="0" result="BackgroundImageFix"/>
            <feColorMatrix in="SourceAlpha" type="matrix" values="0 0 0 0 0 0 0 0 0 0 0 0 0 0 0 0 0 0 127 0" result="hardAlpha"/>
            <feOffset dy="1"/>
            <feGaussianBlur stdDeviation="1"/>
            <feComposite in2="hardAlpha" operator="out"/>
            <feColorMatrix type="matrix" values="0 0 0 0 0.351389 0 0 0 0 0.410167 0 0 0 0 0.479167 0 0 0 1 0"/>
            <feBlend mode="normal" in2="BackgroundImageFix" result="effect1_dropShadow_1333_28373"/>
            <feBlend mode="normal" in="SourceGraphic" in2="effect1_dropShadow_1333_28373" result="shape"/>
        </filter>
    </defs>
</svg>
