<svg width="25" height="26" viewBox="0 0 25 26" fill="none" xmlns="http://www.w3.org/2000/svg">
    <g filter="url(#filter0_d_1333_28369)">
        <path fill-rule="evenodd" clip-rule="evenodd" d="M13.4029 9.51398C16.5481 9.35994 17.9186 8.47488 18.5766 7.52903C19.2134 6.61364 19.357 5.4389 19.3887 4.05842C16.2076 4.19553 14.8499 4.99073 14.2062 5.87577C13.8366 6.38397 13.6247 7.02001 13.5128 7.81721C13.439 8.34291 13.4124 8.90544 13.4029 9.51398ZM11.3823 15.0135C11.337 13.7745 11.1612 12.4968 10.5022 11.4427C9.79922 10.3181 8.41059 9.26001 5.40306 9.06838C5.43001 10.6771 5.56552 11.9884 6.22857 12.9829C6.88664 13.9699 8.24488 14.8578 11.3823 15.0135ZM11.3975 17.0161C7.86776 16.8589 5.73305 15.845 4.5645 14.0923C3.39472 12.3378 3.39571 10.0711 3.39653 8.18593C3.39655 8.13621 3.39657 8.08676 3.39657 8.0376C3.39657 7.48531 3.84429 7.0376 4.39657 7.0376C7.80737 7.0376 10.0251 7.93645 11.405 9.36571C11.4172 8.7504 11.449 8.13198 11.5322 7.53923C11.6703 6.55518 11.9583 5.56623 12.5888 4.69943C13.8808 2.92286 16.3091 2.0376 20.3975 2.0376C20.9498 2.0376 21.3975 2.48531 21.3975 3.0376C21.3975 3.07976 21.3975 3.12227 21.3975 3.16511C21.3983 4.82222 21.3994 6.9735 20.2184 8.67116C19.0492 10.3519 16.9253 11.3595 13.3975 11.5161V20.0376H19.3984C19.9507 20.0376 20.3984 20.4853 20.3984 21.0376C20.3984 21.5899 19.9507 22.0376 19.3984 22.0376H5.3984C4.84611 22.0376 4.3984 21.5899 4.3984 21.0376C4.3984 20.4853 4.84611 20.0376 5.3984 20.0376H11.3975V17.0161Z" fill="white"/>
    </g>
    <defs>
        <filter id="filter0_d_1333_28369" x="1.39648" y="1.0376" width="22.001" height="24" filterUnits="userSpaceOnUse" color-interpolation-filters="sRGB">
            <feFlood flood-opacity="0" result="BackgroundImageFix"/>
            <feColorMatrix in="SourceAlpha" type="matrix" values="0 0 0 0 0 0 0 0 0 0 0 0 0 0 0 0 0 0 127 0" result="hardAlpha"/>
            <feOffset dy="1"/>
            <feGaussianBlur stdDeviation="1"/>
            <feComposite in2="hardAlpha" operator="out"/>
            <feColorMatrix type="matrix" values="0 0 0 0 0.0666667 0 0 0 0 0.239216 0 0 0 0 0.372549 0 0 0 1 0"/>
            <feBlend mode="normal" in2="BackgroundImageFix" result="effect1_dropShadow_1333_28369"/>
            <feBlend mode="normal" in="SourceGraphic" in2="effect1_dropShadow_1333_28369" result="shape"/>
        </filter>
    </defs>
</svg>
