<svg width="25" height="25" viewBox="0 0 25 25" fill="none" xmlns="http://www.w3.org/2000/svg">
    <g filter="url(#filter0_d_1333_28365)">
        <path d="M12.7988 21.9941C10.6775 21.9903 8.64349 21.1493 7.13883 19.6541C5.64355 18.1494 4.80262 16.1154 4.79883 13.9941C4.80315 12.6841 5.23113 11.4107 6.01883 10.3641C6.14926 10.2042 6.32596 10.0886 6.52468 10.0331C6.72341 9.97759 6.93443 9.98492 7.12883 10.0541C7.32397 10.1223 7.49317 10.2493 7.61316 10.4176C7.73314 10.586 7.798 10.7874 7.79883 10.9941C7.80401 11.3903 7.96371 11.7688 8.2439 12.049C8.52409 12.3292 8.90261 12.4889 9.29883 12.4941C9.69504 12.4889 10.0736 12.3292 10.3538 12.049C10.634 11.7688 10.7936 11.3903 10.7988 10.9941C10.7955 10.2821 10.5834 9.58673 10.1888 8.99407L9.87883 8.49407C8.65883 6.03407 9.38883 3.68407 12.1188 1.29407C12.2522 1.17409 12.4155 1.09221 12.5914 1.05702C12.7674 1.02183 12.9495 1.03463 13.1188 1.09407C13.2849 1.15024 13.4334 1.24911 13.5492 1.38074C13.665 1.51238 13.7442 1.67217 13.7788 1.84407C14.2843 4.17367 15.5681 6.26164 17.4188 7.76407C18.4296 8.47811 19.2609 9.41689 19.8474 10.5066C20.4338 11.5963 20.7595 12.8072 20.7988 14.0441C20.7907 16.1645 19.9504 18.197 18.4588 19.7041C16.9449 21.1792 14.9126 22.0015 12.7988 21.9941ZM6.87883 13.4941C6.86917 13.6673 6.86917 13.8409 6.87883 14.0141C6.88023 15.6048 7.51329 17.1299 8.63883 18.2541C9.76297 19.3796 11.2881 20.0127 12.8788 20.0141C14.4696 20.0127 15.9947 19.3796 17.1188 18.2541C18.2444 17.1299 18.8774 15.6048 18.8788 14.0141C18.8309 13.0785 18.5689 12.1664 18.1129 11.3481C17.657 10.5298 17.0192 9.82706 16.2488 9.29407C14.5084 7.87835 13.1761 6.02491 12.3888 3.92407C11.0788 5.52407 11.3188 6.65407 11.7688 7.56407L12.0288 8.06407C12.5849 8.94747 12.8796 9.97022 12.8788 11.0141C12.8788 11.9423 12.5101 12.8326 11.8537 13.4889C11.1973 14.1453 10.3071 14.5141 9.37883 14.5141C8.91542 14.5175 8.45591 14.4291 8.02683 14.2541C7.59774 14.079 7.20757 13.8207 6.87883 13.4941Z" fill="white"/>
    </g>
    <defs>
        <filter id="filter0_d_1333_28365" x="2.79883" y="0.0375977" width="20" height="24.9565" filterUnits="userSpaceOnUse" color-interpolation-filters="sRGB">
            <feFlood flood-opacity="0" result="BackgroundImageFix"/>
            <feColorMatrix in="SourceAlpha" type="matrix" values="0 0 0 0 0 0 0 0 0 0 0 0 0 0 0 0 0 0 127 0" result="hardAlpha"/>
            <feOffset dy="1"/>
            <feGaussianBlur stdDeviation="1"/>
            <feComposite in2="hardAlpha" operator="out"/>
            <feColorMatrix type="matrix" values="0 0 0 0 0.645833 0 0 0 0 0.211134 0 0 0 0 0.115712 0 0 0 1 0"/>
            <feBlend mode="normal" in2="BackgroundImageFix" result="effect1_dropShadow_1333_28365"/>
            <feBlend mode="normal" in="SourceGraphic" in2="effect1_dropShadow_1333_28365" result="shape"/>
        </filter>
    </defs>
</svg>
