<svg width="24" height="27" viewBox="0 0 24 27" fill="none" xmlns="http://www.w3.org/2000/svg">
    <g filter="url(#filter0_d_6163_201)">
        <path fill-rule="evenodd" clip-rule="evenodd" d="M9.42656 5.92286C10.5594 3.87564 12.781 2.5 15.3158 2.5C18.9761 2.5 22 5.37935 22 9C22 12.6206 18.9761 15.5 15.3158 15.5H7.17469C4.34809 15.5 2 13.2746 2 10.4606C2 6.65773 6.0776 4.33776 9.42656 5.92286ZM11.1822 6.88136L13.4312 8.12486C13.9146 8.3921 14.0897 9.00055 13.8225 9.48387C13.5553 9.9672 12.9468 10.1424 12.4635 9.87514L8.76204 7.82857C6.59641 6.63117 4 8.176 4 10.4606C4 12.1084 5.39005 13.5 7.17469 13.5H15.3158C17.9341 13.5 20 11.4545 20 9C20 6.54552 17.9341 4.5 15.3158 4.5C13.5142 4.5 11.9665 5.47356 11.1822 6.88136Z" fill="white"/>
    </g>
    <g filter="url(#filter1_d_6163_201)">
        <path fill-rule="evenodd" clip-rule="evenodd" d="M2 18.5C2 17.9477 2.44772 17.5 3 17.5H14.7549C16.3176 17.5 17.61 18.707 17.6851 20.2693L17.6852 20.2718C17.7614 21.9444 16.3966 23.2885 14.7549 23.2885C14.2026 23.2885 13.7549 22.8407 13.7549 22.2885C13.7549 21.7362 14.2026 21.2885 14.7549 21.2885C15.3088 21.2885 15.7085 20.8448 15.6874 20.3641C15.6638 19.8885 15.2702 19.5 14.7549 19.5H3C2.44772 19.5 2 19.0523 2 18.5Z" fill="white"/>
    </g>
    <defs>
        <filter id="filter0_d_6163_201" x="0" y="1.5" width="24" height="17" filterUnits="userSpaceOnUse" color-interpolation-filters="sRGB">
            <feFlood flood-opacity="0" result="BackgroundImageFix"/>
            <feColorMatrix in="SourceAlpha" type="matrix" values="0 0 0 0 0 0 0 0 0 0 0 0 0 0 0 0 0 0 127 0" result="hardAlpha"/>
            <feOffset dy="1"/>
            <feGaussianBlur stdDeviation="1"/>
            <feComposite in2="hardAlpha" operator="out"/>
            <feColorMatrix type="matrix" values="0 0 0 0 0.351389 0 0 0 0 0.410167 0 0 0 0 0.479167 0 0 0 1 0"/>
            <feBlend mode="normal" in2="BackgroundImageFix" result="effect1_dropShadow_6163_201"/>
            <feBlend mode="normal" in="SourceGraphic" in2="effect1_dropShadow_6163_201" result="shape"/>
        </filter>
        <filter id="filter1_d_6163_201" x="0" y="16.5" width="19.6885" height="9.78857" filterUnits="userSpaceOnUse" color-interpolation-filters="sRGB">
            <feFlood flood-opacity="0" result="BackgroundImageFix"/>
            <feColorMatrix in="SourceAlpha" type="matrix" values="0 0 0 0 0 0 0 0 0 0 0 0 0 0 0 0 0 0 127 0" result="hardAlpha"/>
            <feOffset dy="1"/>
            <feGaussianBlur stdDeviation="1"/>
            <feComposite in2="hardAlpha" operator="out"/>
            <feColorMatrix type="matrix" values="0 0 0 0 0.351389 0 0 0 0 0.410167 0 0 0 0 0.479167 0 0 0 1 0"/>
            <feBlend mode="normal" in2="BackgroundImageFix" result="effect1_dropShadow_6163_201"/>
            <feBlend mode="normal" in="SourceGraphic" in2="effect1_dropShadow_6163_201" result="shape"/>
        </filter>
    </defs>
</svg>
