<svg width="24" height="26" viewBox="0 0 24 26" fill="none" xmlns="http://www.w3.org/2000/svg">
    <g filter="url(#filter0_d_6163_6639)">
        <path fill-rule="evenodd" clip-rule="evenodd" d="M13.0044 9.97639C16.1496 9.82234 17.5202 8.93729 18.1781 7.99144C18.8149 7.07604 18.9586 5.9013 18.9903 4.52082C15.8092 4.65793 14.4515 5.45313 13.8078 6.33817C13.4382 6.84637 13.2262 7.48241 13.1143 8.27961C13.0406 8.80532 13.014 9.36784 13.0044 9.97639ZM10.9839 15.4759C10.9385 14.2369 10.7627 12.9592 10.1038 11.9051C9.40078 10.7805 8.01216 9.72241 5.00463 9.53078C5.03157 11.1395 5.16708 12.4508 5.83013 13.4453C6.4882 14.4323 7.84645 15.3202 10.9839 15.4759ZM10.999 17.4785C7.46932 17.3214 5.33461 16.3074 4.16606 14.5547C2.99628 12.8002 2.99727 10.5335 2.99809 8.64833C2.99811 8.59862 2.99813 8.54917 2.99813 8.5C2.99813 7.94772 3.44585 7.5 3.99813 7.5C7.40893 7.5 9.62669 8.39885 11.0066 9.82811C11.0187 9.2128 11.0506 8.59438 11.1338 8.00164C11.2719 7.01759 11.5599 6.02863 12.1903 5.16183C13.4824 3.38526 15.9106 2.5 19.9991 2.5C20.5513 2.5 20.9991 2.94772 20.9991 3.5C20.9991 3.54216 20.9991 3.58467 20.9991 3.62751C20.9999 5.28462 21.0009 7.4359 19.82 9.13356C18.6508 10.8143 16.5269 11.8219 12.999 11.9785V20.5H19C19.5522 20.5 20 20.9477 20 21.5C20 22.0523 19.5522 22.5 19 22.5H4.99996C4.44768 22.5 3.99996 22.0523 3.99996 21.5C3.99996 20.9477 4.44768 20.5 4.99996 20.5H10.999V17.4785Z" fill="white"/>
    </g>
    <defs>
        <filter id="filter0_d_6163_6639" x="0.998047" y="1.5" width="22.001" height="24" filterUnits="userSpaceOnUse" color-interpolation-filters="sRGB">
            <feFlood flood-opacity="0" result="BackgroundImageFix"/>
            <feColorMatrix in="SourceAlpha" type="matrix" values="0 0 0 0 0 0 0 0 0 0 0 0 0 0 0 0 0 0 127 0" result="hardAlpha"/>
            <feOffset dy="1"/>
            <feGaussianBlur stdDeviation="1"/>
            <feComposite in2="hardAlpha" operator="out"/>
            <feColorMatrix type="matrix" values="0 0 0 0 0.0666667 0 0 0 0 0.239216 0 0 0 0 0.372549 0 0 0 1 0"/>
            <feBlend mode="normal" in2="BackgroundImageFix" result="effect1_dropShadow_6163_6639"/>
            <feBlend mode="normal" in="SourceGraphic" in2="effect1_dropShadow_6163_6639" result="shape"/>
        </filter>
    </defs>
</svg>
