<svg width="24" height="26" viewBox="0 0 24 26" fill="none" xmlns="http://www.w3.org/2000/svg">
    <g filter="url(#filter0_d_6163_194)">
        <path d="M12 22.4565C9.87871 22.4527 7.84466 21.6118 6.34 20.1165C4.84472 18.6118 4.00379 16.5778 4 14.4565C4.00432 13.1465 4.4323 11.8731 5.22 10.8265C5.35043 10.6666 5.52713 10.551 5.72585 10.4955C5.92458 10.44 6.13561 10.4473 6.33 10.5165C6.52514 10.5847 6.69434 10.7117 6.81433 10.88C6.93431 11.0484 6.99918 11.2498 7 11.4565C7.00518 11.8527 7.16488 12.2312 7.44507 12.5114C7.72526 12.7916 8.10379 12.9513 8.5 12.9565C8.89621 12.9513 9.27475 12.7916 9.55494 12.5114C9.83512 12.2312 9.99482 11.8527 10 11.4565C9.99664 10.7445 9.78456 10.0491 9.39 9.45647L9.08 8.95647C7.86 6.49647 8.59 4.14647 11.32 1.75647C11.4534 1.63649 11.6166 1.55461 11.7926 1.51942C11.9685 1.48423 12.1507 1.49703 12.32 1.55647C12.4861 1.61265 12.6345 1.71151 12.7504 1.84315C12.8662 1.97478 12.9454 2.13457 12.98 2.30647C13.4854 4.63607 14.7693 6.72405 16.62 8.22647C17.6307 8.94051 18.462 9.87929 19.0485 10.969C19.635 12.0587 19.9607 13.2696 20 14.5065C19.9919 16.6269 19.1516 18.6594 17.66 20.1665C16.1461 21.6416 14.1138 22.4639 12 22.4565ZM6.08 13.9565C6.07034 14.1297 6.07034 14.3033 6.08 14.4765C6.0814 16.0672 6.71446 17.5923 7.84 18.7165C8.96414 19.842 10.4892 20.4751 12.08 20.4765C13.6708 20.4751 15.1959 19.842 16.32 18.7165C17.4455 17.5923 18.0786 16.0672 18.08 14.4765C18.0321 13.5409 17.7701 12.6288 17.3141 11.8105C16.8581 10.9922 16.2204 10.2895 15.45 9.75647C13.7096 8.34076 12.3773 6.48731 11.59 4.38647C10.28 5.98647 10.52 7.11647 10.97 8.02647L11.23 8.52647C11.7861 9.40987 12.0808 10.4326 12.08 11.4765C12.08 12.4047 11.7113 13.295 11.0549 13.9513C10.3985 14.6077 9.50826 14.9765 8.58 14.9765C8.11659 14.9799 7.65709 14.8915 7.228 14.7165C6.79892 14.5414 6.40874 14.2831 6.08 13.9565Z" fill="white"/>
    </g>
    <defs>
        <filter id="filter0_d_6163_194" x="2" y="0.5" width="20" height="24.9565" filterUnits="userSpaceOnUse" color-interpolation-filters="sRGB">
            <feFlood flood-opacity="0" result="BackgroundImageFix"/>
            <feColorMatrix in="SourceAlpha" type="matrix" values="0 0 0 0 0 0 0 0 0 0 0 0 0 0 0 0 0 0 127 0" result="hardAlpha"/>
            <feOffset dy="1"/>
            <feGaussianBlur stdDeviation="1"/>
            <feComposite in2="hardAlpha" operator="out"/>
            <feColorMatrix type="matrix" values="0 0 0 0 0.645833 0 0 0 0 0.211134 0 0 0 0 0.115712 0 0 0 1 0"/>
            <feBlend mode="normal" in2="BackgroundImageFix" result="effect1_dropShadow_6163_194"/>
            <feBlend mode="normal" in="SourceGraphic" in2="effect1_dropShadow_6163_194" result="shape"/>
        </filter>
    </defs>
</svg>
