<svg width="26" height="26" viewBox="0 0 26 26" fill="none" xmlns="http://www.w3.org/2000/svg">
    <g filter="url(#filter0_d_6163_197)">
        <path fill-rule="evenodd" clip-rule="evenodd" d="M2.25671 18.831C2.62617 18.4205 3.25846 18.3873 3.66897 18.7567L4.32645 19.3484C5.46736 20.3753 7.19932 20.3753 8.34024 19.3484L8.99771 18.7567C9.37802 18.4144 9.95533 18.4144 10.3356 18.7567L10.9931 19.3484C12.134 20.3753 13.866 20.3753 15.0069 19.3484L15.6644 18.7567C16.0447 18.4144 16.622 18.4144 17.0023 18.7567L17.6598 19.3484C18.8007 20.3753 20.5327 20.3753 21.6736 19.3484L22.331 18.7567C22.7416 18.3873 23.3738 18.4205 23.7433 18.831C24.1128 19.2416 24.0795 19.8738 23.669 20.2433L23.0115 20.835C21.1138 22.543 18.235 22.5464 16.3333 20.8453C14.4355 22.543 11.5645 22.543 9.66668 20.8453C7.76503 22.5464 4.88622 22.543 2.98852 20.835L2.33104 20.2433C1.92053 19.8738 1.88726 19.2416 2.25671 18.831Z" fill="white"/>
        <path fill-rule="evenodd" clip-rule="evenodd" d="M14.0005 3.3353C13.9449 3.00415 13.7239 2.70869 13.39 2.57317C13.2618 2.52116 13.1292 2.49764 12.9991 2.49963C12.869 2.49764 12.7364 2.52116 12.6082 2.57317C12.2742 2.70869 12.0532 3.00414 11.9977 3.33529C11.5099 4.43969 10.7733 5.40828 9.98766 6.44146C9.81683 6.6661 9.64367 6.8938 9.47025 7.12661C8.51651 8.40696 7.51193 9.89996 7.49888 11.6964C7.40374 13.1766 7.85026 14.6213 8.80782 15.7096C9.78229 16.8171 11.2302 17.4915 12.9939 17.4998C14.7644 17.5081 16.2158 16.831 17.1908 15.7184C18.1474 14.6266 18.5933 13.1755 18.4983 11.6964C18.4852 9.90007 17.481 8.4071 16.5275 7.12671C16.354 6.8938 16.1808 6.666 16.01 6.44126C15.2246 5.40817 14.4882 4.43964 14.0005 3.3353ZM12.999 5.66957C12.5301 6.40952 12.0106 7.09 11.5349 7.71303C11.3752 7.92226 11.2204 8.12502 11.0742 8.32138C10.0993 9.63005 9.49875 10.6511 9.49875 11.7318C9.49875 11.755 9.49794 11.7783 9.49632 11.8015C9.42566 12.8121 9.73028 13.7303 10.3093 14.3884C10.8789 15.0357 11.7684 15.494 13.0034 15.4998C14.2316 15.5056 15.1175 15.0497 15.6865 14.4003C16.2664 13.7386 16.5715 12.8126 16.5008 11.8015C16.4992 11.7783 16.4984 11.755 16.4984 11.7318C16.4984 10.651 15.898 9.62991 14.9234 8.32128C14.7771 8.12485 14.6223 7.92201 14.4626 7.71269C13.9871 7.08974 13.4679 6.40938 12.999 5.66957Z" fill="white"/>
    </g>
    <defs>
        <filter id="filter0_d_6163_197" x="-1" y="-0.5" width="28" height="28" filterUnits="userSpaceOnUse" color-interpolation-filters="sRGB">
            <feFlood flood-opacity="0" result="BackgroundImageFix"/>
            <feColorMatrix in="SourceAlpha" type="matrix" values="0 0 0 0 0 0 0 0 0 0 0 0 0 0 0 0 0 0 127 0" result="hardAlpha"/>
            <feOffset dy="1"/>
            <feGaussianBlur stdDeviation="1"/>
            <feComposite in2="hardAlpha" operator="out"/>
            <feColorMatrix type="matrix" values="0 0 0 0 0.168627 0 0 0 0 0.227451 0 0 0 0 0.403922 0 0 0 1 0"/>
            <feBlend mode="normal" in2="BackgroundImageFix" result="effect1_dropShadow_6163_197"/>
            <feBlend mode="normal" in="SourceGraphic" in2="effect1_dropShadow_6163_197" result="shape"/>
        </filter>
    </defs>
</svg>
