<svg width="43" height="38" viewBox="0 0 43 38" fill="none" xmlns="http://www.w3.org/2000/svg">
<path d="M42.2399 17.7708C42.2061 17.7708 42.1554 17.7708 42.1216 17.7877H39.3664C39.4679 15.9601 39.2143 10.5281 39.1974 10.2235C38.758 7.90518 37.9297 6.48373 37.0846 5.58685L37.2536 1.17016C37.2536 1.00093 37.1691 0.831702 37.0001 0.764013C36.8479 0.696324 36.662 0.730183 36.5268 0.831716L34.8196 2.42238L33.89 0.425574C33.8224 0.273274 33.6533 0.188664 33.4843 0.188664C33.3153 0.205587 33.1631 0.307117 33.1124 0.476339L31.7433 4.41922C31.7433 4.43614 31.7433 4.43614 31.7433 4.45307C29.4614 5.29918 28.3459 7.44828 27.8726 8.71744C26.943 6.51756 25.5907 5.34994 24.3906 4.74074L23.799 0.37481C23.7821 0.205588 23.6638 0.0701987 23.4948 0.0194321C23.3258 -0.0313345 23.1567 0.0194352 23.0553 0.154813L21.3482 2.21932L19.8438 0.391723C19.7424 0.256345 19.5565 0.205575 19.3874 0.256342C19.2184 0.307109 19.1001 0.45941 19.1001 0.628632L18.8465 4.82533C18.3225 5.11301 17.8324 5.45146 17.4267 5.89144C16.1421 7.24522 15.6688 9.03897 15.4998 10.2574C13.2348 5.87452 11.3755 4.74073 11.2403 4.67304C10.6656 4.43613 10.1416 4.33461 9.61765 4.26692L7.3527 0.594781C7.26818 0.442481 7.09915 0.3748 6.93013 0.391723C6.7611 0.425567 6.62586 0.544027 6.59205 0.713249L6.05118 2.8962L4.46232 1.83012C4.3271 1.74551 4.14116 1.72857 4.00594 1.81318C3.87072 1.89779 3.78621 2.06701 3.80311 2.23624L4.34399 6.26373C4.34399 6.26373 4.344 6.28064 4.36091 6.28064C2.04523 9.47894 3.34674 15.994 3.75241 17.7539H0.422568C0.304249 17.7539 0.202819 17.8047 0.118306 17.8893C0.033792 17.9739 0 18.0923 0 18.2108C0 18.2954 0.321141 22.7121 2.78894 27.2811C2.80584 27.3996 2.85656 27.5011 2.95798 27.5688C5.27365 31.7147 9.36411 35.9114 16.6661 37.1129L22.1257 37.2314L26.064 37.1637C41.5638 34.6253 42.6625 18.4308 42.6794 18.2616C42.6456 17.9908 42.4766 17.7878 42.2399 17.7708ZM39.3157 26.5365L37.5748 25.2504L41.4117 20.6307C41.0736 22.2045 40.4482 24.3366 39.3157 26.5365ZM38.2002 28.4318L24.9822 18.6H27.2134L38.9101 27.298C38.6903 27.6703 38.4537 28.0595 38.2002 28.4318ZM36.8141 30.3102L23.2751 20.2415L24.0357 18.9385L37.7438 29.1256C37.4395 29.5318 37.1353 29.9379 36.8141 30.3102ZM32.9772 33.6439L20.7565 24.5566L21.5848 23.1352L34.3801 32.6454C33.9407 33.0008 33.4674 33.3223 32.9772 33.6439ZM30.6784 34.8792L19.5395 26.6042L20.3002 25.2843L32.1828 34.1177C31.7264 34.3884 31.2193 34.6423 30.6784 34.8792ZM24.154 36.3006L22.1257 36.3345L24.9146 31.647L26.3006 32.6793L24.154 36.2837C24.154 36.2837 24.1709 36.3006 24.154 36.3006ZM19.3705 36.2837L22.9708 30.2086L24.2216 31.1394L21.1453 36.3176L19.3705 36.2837ZM14.249 35.6745L19.117 27.3488L20.3509 28.2626L15.7364 36.0299C15.2294 35.9114 14.7223 35.8099 14.249 35.6745ZM13.0489 35.2515L6.06807 28.4995L6.82869 27.4165L14.0293 34.3715L13.4377 35.3869C13.3024 35.3361 13.1841 35.3022 13.0489 35.2515ZM3.66789 27.1796L9.68526 18.5662H11.9671L4.73277 28.9056C4.34401 28.3472 4.00594 27.7719 3.66789 27.1796ZM1.45364 21.646L3.61718 18.5662H5.66242L2.09595 23.6767C1.8255 22.949 1.62266 22.2721 1.45364 21.646ZM6.67657 18.5662H8.65419L3.21151 26.3504C2.92416 25.775 2.65373 25.1997 2.434 24.6412L6.67657 18.5662ZM14.4687 33.61L7.31888 26.7058L8.13021 25.555L15.1956 32.3747L14.4687 33.61ZM15.635 31.6132L8.6204 24.8443L9.31339 23.8459L16.2435 30.5471L15.635 31.6132ZM14.8068 18.5831L10.9023 24.2013L9.82048 23.1521L13.0151 18.5831H14.8068ZM13.3024 26.5196L18.6437 18.5831H20.5368L14.5025 27.6703L13.3024 26.5196ZM12.677 25.9273L11.5108 24.7935L15.821 18.6V18.5831H17.6126L12.677 25.9273ZM16.6999 29.8025L15.1279 28.2795L21.5679 18.6H23.2581L16.6999 29.8025ZM38.6734 18.6169L34.8534 23.2198L33.6533 22.3398L36.7465 18.6169H38.6734ZM32.9772 21.8322L31.8954 21.0368L33.89 18.6169H35.6309L32.9772 21.8322ZM32.7913 18.6169L31.2024 20.5292L30.2728 19.8353L31.2869 18.6169H32.7913ZM30.1883 18.6169L29.5967 19.3277L28.6332 18.6169H30.1883ZM41.699 18.9554L36.8817 24.7597L35.5126 23.7444L39.7383 18.6508H41.7159C41.7328 18.7185 41.7159 18.8369 41.699 18.9554ZM33.5519 1.71165L34.2956 3.30234C34.3463 3.4208 34.4647 3.50541 34.5999 3.53925C34.7351 3.55618 34.8703 3.52234 34.9717 3.43772L36.3578 2.15165L36.2563 4.87612C35.1408 4.11462 34.1604 4.0977 34.1097 4.08078C33.6026 4.06385 33.1463 4.09769 32.7068 4.18231L33.5519 1.71165ZM28.3966 9.8174C28.4473 9.61434 29.4953 4.67305 34.0759 4.92689C34.1604 4.92689 35.2253 4.96071 36.307 5.99297C36.324 6.00989 36.3409 6.02681 36.3578 6.04373C37.1353 6.82215 37.9128 8.10825 38.3354 10.3081C38.3354 10.3758 38.6058 16.0786 38.5044 17.7708H35.09C35.276 14.1495 32.7406 13.5741 32.6392 13.5741C32.6223 13.5741 32.6054 13.5741 32.5885 13.5741C30.7292 13.5741 29.7995 15.0802 29.36 16.3494C29.0896 14.1326 28.498 10.8158 28.4642 10.6127C28.4135 10.3758 28.3459 10.1728 28.2783 9.9697C28.329 9.90201 28.3797 9.86817 28.3966 9.8174ZM19.8607 1.72859L21.0101 3.1162C21.1791 3.31927 21.5003 3.31927 21.6524 3.1162L23.0722 1.40707L23.461 4.31769C22.5482 4.01309 21.9059 4.01308 21.889 3.99616C21.0777 4.01308 20.3509 4.16537 19.6917 4.40228L19.8607 1.72859ZM16.2097 11.6112C16.2097 11.5773 16.1421 8.41286 18.0183 6.43296C18.9818 5.41763 20.3002 4.87611 21.9228 4.84227C22.0919 4.84227 26.2668 4.90996 27.6529 10.765C27.6698 10.8158 28.5825 16.0955 28.667 17.7539H24.9484C24.6442 13.9972 21.9566 13.7772 21.9059 13.7772H21.889C19.3198 13.7772 18.7282 16.8909 18.6099 17.7539H18.4916C17.7141 15.3171 16.9365 13.3372 16.1759 11.6958C16.1928 11.6619 16.2097 11.645 16.2097 11.6112ZM6.03426 3.91154C6.15258 3.97923 6.28782 3.99615 6.42304 3.96231C6.55826 3.91154 6.64277 3.81001 6.67657 3.67463L7.13295 1.86395L8.56967 4.19922C6.74417 4.28383 5.47648 5.12994 5.40887 5.18071C5.27365 5.26532 5.17224 5.38377 5.05392 5.46838L4.73277 3.03158L6.03426 3.91154ZM5.89906 5.87453C5.98357 5.80684 8.16402 4.30076 10.8347 5.40071C10.8685 5.41763 14.3335 7.58367 17.6126 17.7539H15.8378C15.0096 15.6894 14.0293 14.3695 12.863 13.8618C12.0009 13.4895 11.3755 13.7095 11.3417 13.7264C9.29648 14.3356 8.95844 16.417 9.07676 17.737H4.58062C4.24257 16.2986 2.46781 8.09133 5.89906 5.87453ZM2.56922 18.5662L1.18319 20.5461C0.997256 19.683 0.895844 18.9723 0.845136 18.5662H2.56922ZM5.29056 29.6164L5.5779 29.2102L10.8177 34.27C8.48516 33.0177 6.67658 31.3932 5.29056 29.6164ZM16.5985 36.1991L21.027 28.7534L22.2947 29.701L18.4071 36.2499V36.2668L16.6999 36.233C16.6661 36.216 16.6323 36.216 16.5985 36.1991ZM25.9457 36.2837L25.1343 36.3006L26.9767 33.2039L29.7488 35.2515C28.5825 35.6745 27.3486 36.0468 25.9457 36.2837ZM35.0393 32.087L21.9904 22.3906L22.8187 20.986L36.2225 30.9532C35.8507 31.3424 35.4619 31.7147 35.0393 32.087Z" fill="#B6B68F"/>
<path d="M11.4431 9.37718C11.4431 8.37878 10.581 7.56653 9.53307 7.56653C8.4851 7.56653 7.62305 8.37878 7.62305 9.37718C7.62305 10.3756 8.4851 11.1879 9.53307 11.1879C10.581 11.2048 11.4431 10.3925 11.4431 9.37718Z" fill="#B6B68F"/>
<path d="M22.3289 10.6635C23.3838 10.6635 24.239 9.85278 24.239 8.85277C24.239 7.85277 23.3838 7.04211 22.3289 7.04211C21.2741 7.04211 20.4189 7.85277 20.4189 8.85277C20.4189 9.85278 21.2741 10.6635 22.3289 10.6635Z" fill="#B6B68F"/>
<path d="M33.0448 10.0038C34.0927 10.0038 34.9547 9.19152 34.9547 8.19311C34.9547 7.1947 34.0927 6.38245 33.0448 6.38245C31.9968 6.38245 31.1348 7.1947 31.1348 8.19311C31.1348 9.19152 31.9968 10.0038 33.0448 10.0038Z" fill="#B6B68F"/>
</svg>
