<svg width="39" height="43" viewBox="0 0 39 43" fill="none" xmlns="http://www.w3.org/2000/svg">
<path fill-rule="evenodd" clip-rule="evenodd" d="M5.60462 14.9976C5.55391 14.5915 5.73984 14.2023 5.94267 14.0838C6.07789 14.0162 6.24692 14.0669 6.43285 14.2531C6.51736 14.3377 6.60187 14.4392 6.66948 14.5915C6.7709 14.8115 7.02444 14.8961 7.22728 14.7946C7.43011 14.693 7.53152 14.4392 7.43011 14.2361C7.31179 13.9823 7.17657 13.7792 7.00754 13.6269C6.55117 13.2039 6.01028 13.0855 5.5539 13.3393C5.01302 13.627 4.65806 14.3884 4.75948 15.0992C4.79329 15.3191 4.96231 15.4714 5.18205 15.4714C5.19895 15.4714 5.21585 15.4714 5.23276 15.4714C5.46939 15.4376 5.63842 15.2176 5.60462 14.9976Z" fill="#B29C77"/>
<path fill-rule="evenodd" clip-rule="evenodd" d="M8.03946 16.351C8.10707 16.351 8.19158 16.3341 8.24229 16.3003L8.46202 16.1818C8.9015 15.9449 9.50999 15.6234 9.66212 14.9804C9.74663 14.625 9.5776 14.3373 9.47618 14.1342L9.20574 13.6266C9.22264 13.6266 9.22265 13.6435 9.23955 13.6435C9.25645 13.6435 9.29026 13.6435 9.30716 13.6435C9.50999 13.6435 9.69592 13.4912 9.72973 13.2881C9.76353 13.0681 9.84805 12.9497 9.98327 12.9158C10.1692 12.882 10.4904 12.9666 10.7101 13.2543C10.8622 13.4404 11.1158 13.4743 11.3017 13.322C11.4876 13.1697 11.5214 12.9158 11.3693 12.7297C10.9636 12.222 10.3213 11.9682 9.78043 12.1036C9.34096 12.222 9.03672 12.5774 8.9184 13.0681C8.85079 12.9328 8.78318 12.7805 8.69866 12.6451C8.58034 12.442 8.3268 12.3743 8.12397 12.4928C7.92114 12.6112 7.85353 12.8651 7.97184 13.0681C8.14087 13.3558 8.27609 13.6435 8.42822 13.9312L8.74937 14.5404C8.78318 14.608 8.85079 14.7096 8.85079 14.7434C8.78318 15.0142 8.39442 15.2173 8.05636 15.4034L7.81972 15.5388C7.61689 15.6572 7.54928 15.9111 7.6676 16.1141C7.75211 16.2834 7.88733 16.351 8.03946 16.351Z" fill="#B29C77"/>
<path fill-rule="evenodd" clip-rule="evenodd" d="M10.5072 16.6049C9.62823 16.791 8.71548 16.9095 7.81964 17.028C7.39707 17.0787 6.9745 17.1464 6.55193 17.1972C6.39981 17.2141 6.31529 17.3326 6.24768 17.451C6.16317 17.5695 6.12937 17.7049 6.18008 17.8402C6.39981 18.3818 6.82238 19.0925 7.46468 19.3633C7.78583 19.4986 8.14079 19.5663 8.47885 19.5663C8.90142 19.5663 9.32398 19.4479 9.71275 19.2279C10.4227 18.8048 10.879 18.0602 10.9635 17.2141C10.9635 17.1972 10.9466 17.1803 10.9466 17.1633C10.9804 17.0787 11.0143 17.011 10.9974 16.9264C10.9635 16.7064 10.7438 16.5711 10.5072 16.6049ZM9.29018 18.5171C8.8338 18.7879 8.30982 18.8048 7.80274 18.5848C7.5999 18.5002 7.39707 18.2464 7.21114 17.9587C7.44778 17.9248 7.68441 17.891 7.93795 17.8572C8.63097 17.7726 9.34088 17.6541 10.0508 17.5356C9.93248 17.9587 9.66204 18.2971 9.29018 18.5171Z" fill="#B29C77"/>
<path fill-rule="evenodd" clip-rule="evenodd" d="M3.20531 17.0618C2.42779 16.9772 1.73478 17.2141 1.2615 17.7556C1.10938 17.9248 1.12628 18.1955 1.29531 18.3478C1.37982 18.4155 1.48124 18.4494 1.58265 18.4494C1.70097 18.4494 1.81929 18.3986 1.9038 18.314C2.27566 17.891 2.76584 17.8571 3.1208 17.891C3.34054 17.9079 3.56027 17.7556 3.59407 17.5187C3.61098 17.2987 3.44195 17.0956 3.20531 17.0618Z" fill="#B29C77"/>
<path fill-rule="evenodd" clip-rule="evenodd" d="M38.8865 15.0313C38.8865 11.816 38.7682 7.99162 37.8555 4.13335C37.7879 3.84567 37.7203 3.55801 37.6695 3.27033C37.5005 2.47498 37.3315 1.64577 36.9765 0.867352C36.8751 0.664285 36.6216 0.56276 36.4187 0.664293C36.199 0.765827 36.1145 1.01966 36.2159 1.22273C36.5371 1.91654 36.6892 2.66111 36.8413 3.43954C36.9089 3.74414 36.9596 4.03181 37.0272 4.33641C37.1963 5.06407 37.3146 5.79174 37.4498 6.51939L37.1963 6.5363C36.1483 6.57015 35.1679 6.604 34.1369 6.51939C34.12 6.51939 34.1031 6.5363 34.0862 6.5363C33.9848 5.13176 33.9848 3.81182 34.0693 2.55957C34.1538 3.32107 34.2045 4.08258 34.2383 4.75947C34.2552 4.97945 34.4411 5.16561 34.6609 5.16561C34.6778 5.16561 34.6778 5.16561 34.6947 5.16561C34.9313 5.14869 35.1003 4.94563 35.0834 4.72564C35.0158 3.52416 34.9144 2.13654 34.6947 0.782761C34.6609 0.54585 34.4242 0.410461 34.2045 0.427383C33.9678 0.461228 33.8157 0.681231 33.8495 0.918142C33.8833 1.13813 33.9002 1.35812 33.934 1.57811C33.8664 1.52734 33.7988 1.47656 33.7143 1.45964C33.4777 1.4258 33.2748 1.61193 33.2579 1.84884C33.0551 3.99796 33.1227 6.3163 33.4608 8.9054L33.5453 9.5146C33.9002 12.2729 34.2383 14.8959 33.3086 17.4681C32.9706 17.1127 32.6156 16.7404 32.3283 16.3343C32.379 16.2835 32.4297 16.2158 32.4466 16.1481C32.7001 15.099 32.7509 14.0498 32.6156 13.0175C32.4466 11.7314 32.1086 10.6484 31.6184 9.8023H31.6353C31.7029 9.76846 31.7705 9.73461 31.855 9.71769C32.0747 9.63308 32.3283 9.53153 32.5142 9.36231C32.6325 9.24385 32.6832 9.05771 32.6325 8.88849C32.5649 8.70235 32.4128 8.60082 32.1593 8.60082C32.0578 8.58389 31.9564 8.56697 31.8043 8.55005L31.6015 8.53314C31.3648 8.49929 31.1113 8.48237 30.8239 8.39776H30.807C30.7901 8.29622 30.7732 8.17775 30.7563 8.05929C30.7225 7.82238 30.6887 7.56856 30.5873 7.33165C30.5535 7.21319 30.5028 7.11167 30.4352 6.99321C30.3507 6.85783 30.2831 6.70553 30.0633 6.67168C29.9281 6.67168 29.7929 6.70553 29.6915 6.80707C29.5562 6.95937 29.5224 7.17934 29.4886 7.48394C29.4717 7.61932 29.4548 7.75471 29.4379 7.89009V7.907C27.1222 6.90859 23.9952 7.58548 22.2374 8.75311C21.7472 9.07463 21.3246 9.46386 20.9359 9.85307C20.9359 9.8023 20.9359 9.76845 20.9359 9.71769C20.9359 9.66692 20.9359 9.61614 20.9359 9.56537V8.97311C20.919 6.94244 20.902 4.42102 18.9582 3.01648C18.8568 2.94879 18.7554 2.93188 18.654 2.9488C18.5864 2.7965 18.5188 2.64419 18.4343 2.50881C18.3328 2.33959 18.13 2.30575 17.9441 2.35651C17.9272 2.17037 17.9103 1.98422 17.8934 1.79808C17.8765 1.56117 17.6736 1.37503 17.437 1.40887C17.2004 1.4258 17.0313 1.62887 17.0482 1.86578C17.1496 3.21956 17.3018 4.59024 17.4539 5.94402C17.4708 6.164 17.6567 6.31631 17.8765 6.31631C17.8934 6.31631 17.9103 6.31631 17.9272 6.31631C18.1638 6.29938 18.3328 6.0794 18.299 5.84249C18.2314 5.1656 18.1638 4.48872 18.0962 3.81183C18.2314 4.2518 18.299 4.72562 18.3835 5.23329L18.4173 5.45328C18.4512 5.65635 18.6202 5.80866 18.8399 5.80866C18.8568 5.80866 18.8737 5.80866 18.9075 5.80866C19.1442 5.77482 19.2963 5.5548 19.2625 5.33482L19.2287 5.13176C19.1949 4.861 19.1442 4.59025 19.0935 4.3195C20.0738 5.52098 20.1076 7.29781 20.1245 8.92234C19.2287 8.2793 18.1976 7.77162 17.0144 7.43318C16.9975 6.82398 16.9637 6.21478 16.9299 5.60558C16.8961 4.99638 16.8623 4.37026 16.8454 3.76106V3.558C16.8285 3.05034 16.8116 2.33958 16.9975 1.95037C17.0989 1.74731 17.0144 1.49348 16.8116 1.37502C16.6088 1.27349 16.3552 1.3581 16.2369 1.56117C16.2031 1.62886 16.1862 1.69655 16.1693 1.78117C15.865 1.2735 15.5101 0.867354 15.0706 0.816587C14.9692 0.799665 14.8509 0.833514 14.7664 0.901203C14.5973 1.03658 14.5973 1.1212 14.5128 1.91655C14.4452 2.69497 14.3945 3.45646 14.3607 4.23488L14.3438 4.53949C14.1917 7.61934 14.2086 10.733 14.2255 13.7452L14.2424 15.5728C13.9212 16.1143 13.5494 16.622 13.1268 17.0958C13.1944 16.5712 13.2113 16.0128 13.1775 15.4543C13.2282 15.4374 13.262 15.4374 13.2958 15.4036C13.786 15.0143 14.0903 14.5743 14.1748 14.1174C14.2762 13.5759 14.1072 13.0006 13.7353 12.5606C13.3634 12.1376 12.8733 11.9345 12.3155 11.9176C12.1971 11.6637 12.0619 11.4099 11.9098 11.173C14.1072 7.80548 12.0619 4.43794 11.0309 3.06724C10.9125 2.91494 10.7266 2.84727 10.5407 2.84727C10.3548 2.84727 10.1857 2.9488 10.0674 3.1011C8.85041 4.6241 6.83899 5.4702 6.83899 5.4702C2.96826 7.58547 0.821615 9.81922 0.821615 9.81922C-0.834851 12.1206 0.466658 15.4374 0.821615 16.2327C0.821615 16.2327 0.804716 16.2327 0.804716 16.2497C0.297634 16.622 0.0271891 17.1973 0.0440918 17.7896C0.0948 18.7711 0.737105 19.7526 1.68366 20.2941C1.9541 20.4464 2.24145 20.531 2.52879 20.531C2.83304 20.531 3.13729 20.4464 3.40774 20.2771C3.61057 20.1587 3.76269 19.9895 3.91482 19.8033C4.20216 20.3617 4.54021 20.8017 4.92898 21.1571C3.61056 22.257 2.64711 23.3739 2.02171 24.5585C-0.141841 28.6706 0.230023 34.5426 1.49773 38.2824C2.24145 40.4992 4.05004 42.1576 6.2981 42.716C6.83899 42.8514 7.37987 42.9191 7.92076 42.9191C9.54342 42.9191 11.0985 42.2929 12.3662 41.1422C12.5521 41.1592 12.738 41.1761 12.924 41.1761C15.2227 41.1761 17.5215 40.0592 19.702 38.8239C20.4457 38.4008 21.2908 37.8424 22.0683 37.1655C22.0852 37.3517 22.119 37.5209 22.1359 37.7409C22.2543 39.0439 22.4064 40.6684 23.3191 41.5653C24.4685 42.6822 26.1419 42.8345 27.6631 42.8345C27.9336 42.8345 28.2209 42.8345 28.4745 42.8175C28.7618 42.8175 29.0323 42.8175 29.3196 42.8175C30.3507 42.8345 31.4155 42.8345 32.4804 42.5975C33.4101 42.3945 34.6947 42.0053 35.337 40.9053C35.9793 39.7885 35.9793 38.4347 35.9793 37.2332V36.9624C35.9793 36.0825 35.9286 35.1687 35.8779 34.2718C35.7933 32.7657 35.6919 31.2258 35.8779 29.7705C36.03 28.569 36.5878 27.5198 37.1625 26.3861C37.6864 25.3876 38.2104 24.3554 38.464 23.2047C38.9542 20.9033 38.9373 18.5003 38.9203 16.182L38.8865 15.0313ZM25.5841 21.4955C25.6179 21.2079 25.601 20.9033 25.5841 20.5648C25.7362 20.5479 25.8714 20.5479 26.0236 20.514C26.9194 20.3279 27.6969 19.8879 28.3223 19.2787C28.2716 19.9049 28.2885 20.7002 28.4745 21.4617L28.4069 21.5294C27.4772 21.614 26.5138 21.5463 25.5841 21.4955ZM22.3726 12.8145C22.4064 12.7129 22.3895 12.5945 22.3388 12.4929C22.119 12.0868 21.7979 11.9345 21.5782 11.8668C21.3415 11.816 21.088 11.8499 20.8344 11.9345C20.8513 11.7653 20.8682 11.596 20.8682 11.4268C21.612 11.6468 22.305 11.9683 22.9811 12.3406C22.7952 12.5099 22.5754 12.6622 22.3726 12.8145ZM20.7668 12.899H20.7837C21.0035 12.7467 21.2401 12.6791 21.3922 12.7129C21.4429 12.7298 21.5274 12.7637 21.612 12.916C21.6965 13.0514 21.8317 13.136 21.9838 13.136C21.8655 13.2375 21.7303 13.3221 21.612 13.4067C21.4936 13.4236 21.3922 13.4744 21.3246 13.576C21.3077 13.6098 21.3246 13.6436 21.3077 13.6775C21.1725 13.8298 21.1387 14.0329 21.257 14.1852C21.3415 14.3036 21.4767 14.3544 21.5951 14.3544C21.6289 14.3544 21.6458 14.3375 21.6796 14.3205C21.7979 14.4051 21.8993 14.4728 22.0176 14.5574C22.2712 14.7436 22.5247 14.9297 22.7952 15.0989C22.8628 15.1497 22.9473 15.1666 23.0149 15.1666C23.1501 15.1666 23.3022 15.0989 23.3698 14.9636C23.4882 14.7605 23.4375 14.5067 23.2346 14.3882C22.9811 14.2359 22.7444 14.0667 22.5247 13.8805C22.4909 13.8636 22.474 13.8467 22.4402 13.8129C22.5585 13.7283 22.6768 13.6436 22.7783 13.559C23.1163 13.3052 23.4544 13.0344 23.7924 12.7975C24.0967 12.9837 24.4009 13.1698 24.7052 13.3898C24.5023 13.4237 24.2995 13.4575 24.0798 13.5421C23.86 13.6267 23.7417 13.8636 23.8262 14.0836C23.8938 14.2528 24.046 14.3713 24.2319 14.3713C24.2826 14.3713 24.3333 14.3713 24.3671 14.3544C24.8573 14.1851 25.246 14.1344 25.601 14.219C25.6686 14.2359 25.7193 14.2021 25.77 14.1852C25.8715 14.2528 25.956 14.3205 26.0574 14.3882C26.3447 14.6082 26.6828 14.4559 27.3082 13.8467C27.6631 13.5083 27.9843 13.1529 28.3054 12.7806C28.5252 12.5268 28.7449 12.2729 28.9815 12.036C28.9984 12.0191 29.0323 11.9683 29.083 11.9176C29.0999 11.9683 29.1168 12.036 29.1337 12.1206C29.3196 12.8314 29.3534 13.6605 29.2182 14.642C29.1844 14.9128 29.1337 15.1836 29.0323 15.522C28.9646 15.6743 28.8463 15.8943 28.9646 16.1312C29.0323 16.2497 29.1844 16.3512 29.3196 16.385C29.5393 16.4189 29.7422 16.2835 29.9788 16.1312C30.0295 16.0974 30.0802 16.0635 30.114 16.0466C30.4352 15.8943 30.7732 15.8774 31.0437 16.0128C31.2634 16.1143 31.3817 16.2496 31.4155 16.4696C31.4832 16.9265 31.1789 17.5188 30.8409 17.8065C30.3169 18.2634 29.4717 17.908 29.0661 17.4681C28.9139 17.2988 28.6435 17.2819 28.4745 17.4511C28.3561 17.5696 28.3392 17.7388 28.39 17.8911C27.8153 18.8388 26.9363 19.4818 25.8545 19.7018C24.6714 19.9387 23.4037 19.6341 22.3726 18.8726C22.5585 18.8895 22.7275 18.9234 22.9135 18.9234C23.167 18.9234 23.4206 18.9064 23.6741 18.8557C24.6714 18.6526 25.4658 18.0772 25.8545 17.265C25.9222 17.1296 25.9053 16.8927 25.8207 16.7742C25.6348 16.5204 25.3475 16.5712 25.1108 16.622C25.0432 16.6389 24.9925 16.6389 24.9418 16.6389C24.5868 16.605 24.2319 16.5712 23.8769 16.5204C22.998 16.385 21.9838 16.0804 20.8006 15.6235C20.733 15.6066 20.6823 15.6235 20.6147 15.6235C20.5978 15.4712 20.564 15.3189 20.564 15.1666C20.564 15.0651 20.5133 14.9805 20.4457 14.8959C20.564 14.2359 20.6823 13.5759 20.7668 12.899ZM21.1725 17.4511C21.0035 17.1465 20.8682 16.825 20.7668 16.4866C21.8824 16.9096 22.8797 17.1973 23.7417 17.3327C24.046 17.3835 24.3671 17.4173 24.6883 17.4511C24.2995 17.8065 23.8262 17.9419 23.522 18.0096C22.6599 18.1619 21.7472 17.9419 21.1725 17.4511ZM19.9724 16.7742C20.04 16.9773 20.1076 17.1973 20.1921 17.3834C20.1414 17.4173 20.0907 17.4173 20.0569 17.4511C19.871 17.6711 19.702 17.908 19.5329 18.1449C19.6851 17.688 19.8372 17.2311 19.9724 16.7742ZM25.432 22.3247H25.4996C26.1081 22.3755 26.7166 22.4093 27.3251 22.4093C26.5645 23.0524 25.7869 23.6954 24.9587 24.22C24.8235 24.3046 24.7052 24.3723 24.5699 24.44C24.5868 24.3892 24.6037 24.3554 24.6206 24.3215C24.6714 24.22 24.7221 24.1354 24.7221 24.1016C25.0601 23.4585 25.2968 22.9001 25.432 22.3247ZM15.172 4.23488C15.2058 3.50723 15.2396 2.76265 15.3072 2.01808C15.4087 2.17038 15.527 2.39036 15.696 2.67804L15.7467 2.77957C15.7974 2.86418 15.865 2.89802 15.9496 2.93186C15.9496 3.13493 15.9496 3.33801 15.9496 3.52415V3.72721C15.9665 4.35333 16.0003 4.97945 16.0341 5.60558C16.051 5.87633 16.051 6.14709 16.0679 6.40092C15.7467 6.40092 15.4425 6.38401 15.1213 6.38401C15.1044 6.38401 15.1044 6.38401 15.0875 6.38401C15.1044 5.77481 15.1044 5.14869 15.1382 4.53949L15.172 4.23488ZM15.0368 13.6944C15.0199 11.5791 15.0368 9.39616 15.0875 7.23012C15.4256 7.23012 15.7805 7.23011 16.1186 7.24703C16.1186 7.41626 16.1355 7.56857 16.1355 7.73779C16.1693 9.97153 15.7805 12.053 15.0368 13.8467V13.6944ZM13.0761 13.0683C13.2789 13.3052 13.3803 13.6267 13.3127 13.9144C13.2789 14.0836 13.1775 14.2528 13.0254 14.4221C12.9747 14.1005 12.9071 13.7959 12.8226 13.4744C12.7549 13.2375 12.6873 13.0175 12.6197 12.7975C12.8056 12.8314 12.9578 12.9329 13.0761 13.0683ZM4.28667 18.5849C4.26977 18.568 4.28667 18.568 4.28667 18.5849C4.23596 18.3649 4.05003 18.1788 3.8641 18.2126C3.62747 18.2126 3.44154 18.4157 3.45844 18.6526C3.47534 19.008 3.28941 19.3464 2.96826 19.5326C2.68092 19.7018 2.37667 19.7018 2.08932 19.5495C1.39631 19.1434 0.906133 18.4157 0.872328 17.7219C0.855425 17.4004 1.00755 17.0958 1.2949 16.8927C1.59914 16.6727 1.971 16.605 2.29215 16.7404C2.51189 16.8081 2.74853 16.7066 2.83304 16.4866C2.91756 16.2666 2.79924 16.0297 2.5795 15.9451C2.54569 15.9281 2.52879 15.9281 2.49499 15.9281C2.51189 14.879 3.15419 13.576 3.15419 13.576C5.50367 10.6653 9.57722 11.1391 11.0478 11.4268C11.521 12.0699 11.7915 12.7975 12.0112 13.6775C12.6704 16.182 12.2817 18.5342 10.9971 19.9556C9.71245 21.3771 7.43058 21.7663 5.89243 20.8356C5.23323 20.4294 4.70924 19.6849 4.28667 18.5849ZM9.71245 21.8001C9.64484 22.1894 9.50961 22.4939 9.20536 22.6632C8.8166 22.8832 8.27572 22.9001 7.85315 22.6632C7.70102 22.5786 7.44749 22.4093 7.32917 22.1047C7.48129 22.1217 7.63341 22.1555 7.78553 22.1555C8.44474 22.1724 9.10395 22.0371 9.71245 21.8001ZM12.045 40.2623C10.8956 40.0931 9.66174 39.5854 8.36023 38.7393C5.41915 36.844 4.26977 32.935 3.8472 30.7689C3.7965 30.532 3.57676 30.3797 3.35702 30.4305C3.12039 30.4812 2.98516 30.7012 3.01897 30.9212C3.45844 33.2057 4.69234 37.3686 7.90386 39.4331C9.05324 40.1777 10.1519 40.6684 11.1999 40.9223C9.83076 41.9037 8.1743 42.276 6.50093 41.8699C4.52331 41.3792 2.95136 39.9238 2.29215 37.9778C1.09206 34.4072 0.720202 28.8059 2.76543 24.9307C3.37393 23.78 4.32048 22.697 5.65579 21.614C5.90934 21.7494 6.17978 21.8678 6.45022 21.9524C6.51784 22.5786 6.8897 23.1031 7.48129 23.4247C7.81935 23.5939 8.1912 23.6785 8.54616 23.6785C8.93492 23.6785 9.32369 23.577 9.64484 23.3908C10.5238 22.8663 10.6083 21.9186 10.6252 21.3432C10.9971 21.1063 11.3351 20.8525 11.6394 20.514C12.1633 19.9387 12.5521 19.228 12.8056 18.4495C12.8902 18.4326 12.9916 18.4157 13.0592 18.348C13.7691 17.6711 14.3776 16.8758 14.9016 16.0297C14.9692 15.962 15.0199 15.8943 15.0368 15.7928C16.2707 13.6775 16.9468 11.1053 16.9806 8.27929C18.1807 8.6685 19.2287 9.21002 20.0907 9.9546C20.0907 14.1852 19.0427 18.1788 16.913 21.834C16.2707 22.9508 15.6453 24 14.8509 24.9138C14.6649 23.8985 14.4283 22.9001 14.1241 21.9186C14.0564 21.6986 13.8198 21.5802 13.6001 21.6479C13.3803 21.7155 13.262 21.9525 13.3296 22.1724C14.6142 26.183 14.6142 30.6674 14.4959 34.9318C14.0395 34.9995 13.5663 35.0164 13.0761 34.9487C10.0336 34.5426 9.22227 31.8181 8.34333 28.9075C7.98837 27.7398 7.63341 26.5384 7.10943 25.5399C7.00801 25.3369 6.73757 25.2523 6.53474 25.3538C6.3319 25.4553 6.24739 25.7261 6.34881 25.9292C6.83898 26.843 7.16013 27.9598 7.51509 29.1444C8.37713 32.0381 9.35749 35.3041 12.9409 35.7779C13.2113 35.8117 13.4649 35.8287 13.7184 35.8287C14.9016 35.8287 15.9665 35.4733 16.9975 35.0333C16.9975 35.0841 16.9806 35.1349 16.9975 35.1856C17.3018 35.9302 17.5384 36.7086 17.775 37.4701C17.8934 37.8593 18.0286 38.2655 18.1638 38.6547C16.1355 39.7546 14.0395 40.55 12.045 40.2623ZM15.3072 34.7795C15.3918 31.8689 15.3918 28.8567 14.9861 25.9461C15.0199 25.9292 15.0706 25.9292 15.1044 25.8953C15.7298 25.2523 16.2369 24.5246 16.7102 23.78C17.606 25.2184 18.6033 26.6399 19.6343 28.0614C19.8034 28.2983 19.9893 28.5183 20.1752 28.7552C20.5809 29.2628 20.9866 29.7874 21.2232 30.3289C21.4091 30.7858 21.4598 31.2935 21.5105 31.8519C21.5275 32.0381 21.5444 32.2242 21.5613 32.3934C21.3415 32.4273 21.1725 32.4611 21.088 32.4781C19.9386 32.7319 18.8737 33.2396 17.8596 33.7134C17.0144 34.1534 16.1693 34.5257 15.3072 34.7795ZM19.2625 38.0793C19.1442 38.147 19.0258 38.2147 18.9075 38.2824C18.7892 37.9439 18.6878 37.6055 18.5695 37.2501C18.3328 36.4717 18.0793 35.6764 17.7581 34.9149C17.7412 34.8472 17.6736 34.8303 17.6398 34.7795C17.8427 34.6949 18.0455 34.5933 18.2314 34.5087C19.2118 34.0349 20.2259 33.5611 21.2739 33.3242C21.4767 33.2734 21.7134 33.2565 21.9331 33.2226C21.5105 33.3919 21.088 33.5611 20.6823 33.7472C20.4795 33.8318 20.2936 33.9334 20.0907 34.018C19.871 34.1195 19.7865 34.3564 19.871 34.5764C19.9386 34.7287 20.0907 34.8302 20.2597 34.8302C20.3105 34.8302 20.3781 34.8133 20.4288 34.7964C20.6316 34.7118 20.8344 34.6102 21.0373 34.5256C21.7472 34.2041 22.4064 33.8995 23.1332 33.7472C23.2684 33.7134 23.3529 33.6288 23.4037 33.5103C23.4713 33.578 23.522 33.6796 23.4882 33.9165C23.4882 33.9334 23.5051 33.9503 23.5051 33.9841C23.4713 34.018 23.4206 34.0349 23.3868 34.1026C23.3699 34.1364 23.3529 34.1703 23.336 34.2041C23.3191 34.2041 23.3022 34.1872 23.2853 34.2041C22.5923 34.4241 21.781 34.7118 20.9697 35.1348C20.7668 35.2364 20.6823 35.5071 20.8006 35.7102C20.8682 35.8456 21.0204 35.9302 21.1725 35.9302C21.2401 35.9302 21.3077 35.9133 21.3753 35.8794C21.8148 35.6425 22.2374 35.4733 22.6599 35.321C21.7472 36.4886 20.3781 37.4363 19.2625 38.0793ZM37.6019 23.0016C37.3822 24.0339 36.892 24.9815 36.3849 25.9799C35.7933 27.1137 35.1848 28.2983 35.0158 29.6521C34.813 31.192 34.9144 32.7827 35.0158 34.3226C35.0665 35.1856 35.1172 36.0994 35.1172 36.9455V37.2163C35.1172 38.367 35.1172 39.5346 34.5933 40.4654C34.12 41.2776 33.0551 41.5991 32.2945 41.7684C31.331 41.9714 30.3507 41.9714 29.3027 41.9714C29.0492 41.9714 28.7618 41.9714 28.4745 41.9714C26.8518 42.0053 25.0263 42.0391 23.9276 40.9561C23.2346 40.2792 23.0994 38.8239 22.998 37.6563C22.9642 37.3009 22.9304 36.9794 22.8966 36.6917C22.8797 36.624 22.829 36.5732 22.7952 36.5056C23.3867 35.8964 23.8938 35.2025 24.2319 34.4241C24.2488 34.3903 24.2319 34.3395 24.2319 34.2887C24.3164 34.221 24.3671 34.1364 24.384 34.018C24.4685 33.4088 24.2319 33.0365 24.0122 32.8334C23.6234 32.4781 23.0318 32.3596 22.474 32.3596C22.4571 32.1735 22.4233 31.9873 22.4064 31.7842C22.3557 31.192 22.305 30.5828 22.0514 30.0074C21.7641 29.3474 21.3077 28.7721 20.8851 28.2306C20.7161 28.0106 20.5302 27.7906 20.3781 27.5706C19.2287 25.9969 18.2145 24.5585 17.2849 23.0355C17.268 23.0185 17.2511 23.0185 17.2511 23.0016C17.4032 22.7478 17.5553 22.4939 17.6905 22.2401C18.0793 21.5632 18.4343 20.8525 18.7554 20.1587C18.6709 21.0386 18.992 21.9524 19.6682 22.6463C20.2597 23.2555 21.0204 23.577 21.7979 23.577C21.9162 23.577 22.0345 23.577 22.1528 23.56C23.336 23.4077 24.2657 22.6463 24.7728 21.5294C24.6883 22.2909 24.4347 22.917 24.0291 23.797L23.9445 23.9662C23.4544 24.9138 23.336 25.2015 23.5051 25.4723C23.5727 25.5738 23.7079 25.6753 23.8262 25.7092C23.86 25.7092 23.8938 25.7261 23.9276 25.7261C24.1136 25.7261 24.2826 25.6077 24.4516 25.5061C24.7897 25.3707 25.1446 25.1846 25.4827 24.9646C26.5983 24.2539 27.6293 23.3739 28.6266 22.5278L28.8463 22.3416C29.0999 22.8493 29.4717 23.3062 30.0126 23.6447C30.5873 24.017 31.2803 24.1862 31.9733 24.1862C32.1931 24.1862 32.4128 24.1354 32.6325 24.1016C32.6325 24.1523 32.5987 24.1862 32.6156 24.22C32.8523 25.0323 33.1227 25.8953 33.5791 26.6568C33.6636 26.7922 33.7988 26.8599 33.934 26.8599C34.0017 26.8599 34.0862 26.843 34.1538 26.7922C34.3566 26.6737 34.4242 26.4199 34.289 26.2168C33.8833 25.5569 33.6467 24.7784 33.427 23.9831C33.4101 23.9493 33.3763 23.9323 33.3594 23.8985C33.596 23.8139 33.8326 23.7293 34.0355 23.5939C35.0327 22.9339 35.506 21.8509 35.3032 20.6494C35.1341 19.5664 34.5933 18.8218 33.9848 18.1449C34.0017 18.128 34.0186 18.1111 34.0355 18.0942C35.1848 15.2174 34.7961 12.2729 34.4411 9.41308L34.3566 8.80387C34.289 8.31313 34.2552 7.85624 34.2045 7.38241C34.6778 7.41626 35.151 7.43318 35.6243 7.43318C36.1652 7.43318 36.7061 7.41625 37.2639 7.39933L37.6357 7.38241C38.0245 10.1069 38.0921 12.7467 38.0921 15.0651V16.182C38.0583 18.4326 38.0583 20.7848 37.6019 23.0016Z" fill="#B29C77"/>
<path fill-rule="evenodd" clip-rule="evenodd" d="M35.3201 4.0826C35.3539 4.28567 35.5229 4.43796 35.7426 4.43796C35.7595 4.43796 35.7764 4.43796 35.8102 4.43796C36.0469 4.40411 36.199 4.18413 36.1652 3.96414L36.0638 3.20264C35.9286 2.25499 35.7933 1.30736 35.6581 0.359707C35.6243 0.122795 35.4046 -0.0295166 35.1848 0.00432795C34.9482 0.0381725 34.7961 0.241238 34.8299 0.47815C34.9651 1.4258 35.1003 2.37345 35.2356 3.33802L35.3201 4.0826Z" fill="#B29C77"/>
</svg>
