<svg width="40" height="37" viewBox="0 0 40 37" fill="none" xmlns="http://www.w3.org/2000/svg">
<path d="M37.3719 -0.000244141H5.30746C4.3271 -0.000244141 3.51577 0.812018 3.51577 1.79351V3.28267H1.79169C0.811331 3.28267 0 4.09493 0 5.07642V26.5676C0 27.5491 0.811331 28.3614 1.79169 28.3614L12.339 28.3275C12.6601 29.9182 13.6912 31.2551 15.111 32.0166L15.1448 36.1964C15.1448 36.3656 15.2463 36.5179 15.3984 36.5856C15.5505 36.6533 15.7364 36.6194 15.8548 36.501L17.6802 34.8087L19.3367 36.5179C19.4212 36.6025 19.5226 36.6533 19.641 36.6533C19.6917 36.6533 19.7424 36.6363 19.7931 36.6194C19.9452 36.5517 20.0635 36.3994 20.0635 36.2302L20.0466 32.2535C21.6693 31.5427 22.8863 30.1044 23.2412 28.3783H33.8562C34.8365 28.3783 35.6478 27.566 35.6478 26.5846V25.0954H37.355C38.3354 25.0954 39.1467 24.2831 39.1467 23.3016V1.81044C39.1805 0.812034 38.3692 -0.000244141 37.3719 -0.000244141ZM33.8731 4.12878C34.397 4.12878 34.8196 4.55183 34.8196 5.07642V8.95162C30.7122 8.22396 30.0023 5.07642 29.884 4.12878H33.8731ZM1.79169 4.12878H3.87072C3.88763 4.12878 3.90453 4.14569 3.92143 4.14569C3.93834 4.14569 3.95524 4.12878 3.97214 4.12878H5.30746C5.15533 7.90243 1.80859 8.74854 0.828234 8.91777V5.07642C0.845136 4.55183 1.28461 4.12878 1.79169 4.12878ZM1.79169 27.5153C1.2677 27.5153 0.845136 27.0922 0.845136 26.5676V23.3186C1.8931 23.5385 4.49612 24.4016 4.90179 27.5153H1.79169ZM19.2353 35.181L18.0183 33.9288C17.8662 33.7596 17.5957 33.7596 17.4267 33.9119L16.0069 35.2318L15.9731 32.3889C16.5478 32.5919 17.1732 32.7104 17.8155 32.7104C18.3056 32.7104 18.7789 32.6258 19.2184 32.5073L19.2353 35.181ZM17.8155 31.8643C15.2125 31.8643 13.0996 29.8167 13.0996 27.2953C13.0996 24.7739 15.2125 22.7263 17.8155 22.7263C20.4185 22.7263 22.5313 24.7739 22.5313 27.2953C22.5313 29.8167 20.4185 31.8643 17.8155 31.8643ZM17.8155 21.8802C14.7561 21.8802 12.2545 24.317 12.2545 27.2953C12.2545 27.363 12.2714 27.4137 12.2714 27.4645L5.79763 27.4814C5.37507 23.6232 1.99452 22.6417 0.862039 22.4217V9.74696C1.77479 9.59466 6.01737 8.68084 6.1864 4.09493H29.0558C29.1741 5.07641 29.9516 8.98545 34.8365 9.76388V22.4217C30.3066 23.3862 29.3769 26.4492 29.2079 27.4814H23.3765C23.3765 27.4137 23.3934 27.346 23.3934 27.2614C23.3765 24.3 20.8749 21.8802 17.8155 21.8802ZM33.8731 27.5153H30.0361C30.239 26.5846 31.101 24.1985 34.8196 23.3355V26.5676C34.8196 27.0753 34.397 27.5153 33.8731 27.5153Z" fill="#A9765E"/>
<path d="M5.4089 13.6053L30.3066 13.7237C30.5432 13.7237 30.7292 13.5376 30.7292 13.3006C30.7292 13.0637 30.5432 12.8776 30.3066 12.8776L5.4089 12.7592C5.17226 12.7592 4.98633 12.9453 4.98633 13.1822C4.98633 13.4191 5.17226 13.6053 5.4089 13.6053Z" fill="#A9765E"/>
<path d="M5.22335 16.6853L30.1211 16.8037C30.3577 16.8037 30.5436 16.6176 30.5436 16.3807C30.5436 16.1437 30.3577 15.9576 30.1211 15.9576L5.22335 15.8391C4.98671 15.8391 4.80078 16.0253 4.80078 16.2622C4.80078 16.4991 4.98671 16.6683 5.22335 16.6853Z" fill="#A9765E"/>
<path d="M30.0534 20.2388C30.29 20.2388 30.4759 20.0526 30.4759 19.8157C30.4759 19.5788 30.29 19.3926 30.0534 19.3926L5.17257 19.2742C4.93593 19.2742 4.75 19.4603 4.75 19.6972C4.75 19.9342 4.93593 20.1203 5.17257 20.1203L30.0534 20.2388Z" fill="#A9765E"/>
<path d="M17.8151 23.9954C15.9558 23.9954 14.4346 25.4845 14.4346 27.2952C14.4346 29.1058 15.9558 30.595 17.8151 30.595C19.6744 30.595 21.1957 29.1058 21.1957 27.2952C21.1957 25.4845 19.6744 23.9954 17.8151 23.9954ZM17.8151 29.7489C16.4122 29.7489 15.2797 28.6489 15.2797 27.2952C15.2797 25.9414 16.4122 24.8415 17.8151 24.8415C19.218 24.8415 20.3505 25.9414 20.3505 27.2952C20.3505 28.6489 19.2011 29.7489 17.8151 29.7489Z" fill="#A9765E"/>
<path d="M13.7585 8.66372L21.5 8.68063C21.7366 8.68063 21.9225 8.49449 21.9225 8.25759C21.9225 8.02068 21.7366 7.83454 21.5 7.83454L13.7585 7.81763C13.5219 7.81763 13.3359 8.00377 13.3359 8.24067C13.3359 8.47758 13.5388 8.66372 13.7585 8.66372Z" fill="#A9765E"/>
</svg>
