<svg width="51" height="35" viewBox="0 0 51 35" fill="none" xmlns="http://www.w3.org/2000/svg">
<path d="M50.3215 20.3999L44.3549 19.8922C45.5042 19.2999 46.4677 18.7415 47.1438 18.2169C47.2452 18.1323 47.3128 18.0138 47.3128 17.8954L47.3635 14.2402L49.9497 13.191C50.1187 13.1233 50.2201 12.9541 50.2032 12.7679L49.6961 6.72672C49.6792 6.50673 49.5102 6.35444 49.2905 6.33752C37.2388 5.93138 20.9615 0.0762721 20.7925 0.0255054C20.6911 -0.00833904 20.5896 -0.00833904 20.4882 0.0255054L20.353 0.07627C20.3361 0.07627 20.3361 0.07627 20.3192 0.07627L7.67596 5.05141C7.60835 5.06833 7.55764 5.11911 7.52384 5.16988L3.38267 6.81134C3.23054 6.87902 3.11222 7.03132 3.11222 7.20054L2.9601 13.9017C2.9601 14.071 3.04461 14.2233 3.19674 14.291C3.5686 14.4771 3.99116 14.6463 4.49825 14.8155L2.50372 15.0525C2.28399 15.0694 2.13187 15.2555 2.13187 15.4755L2.11496 18.9446C2.11496 19.1138 2.21638 19.2661 2.36851 19.3338L2.92629 19.5707C2.9601 19.6215 2.99391 19.6722 3.06152 19.6892L3.21364 19.7568C3.26435 19.7738 3.33196 19.8076 3.38267 19.8245L3.31505 20.8399C3.26435 20.8399 3.21364 20.8229 3.16293 20.8568L0.23876 22.2952C0.0697326 22.3798 -0.01478 22.549 0.00212275 22.7351L0.948677 30.2317C0.96558 30.4178 1.1177 30.5701 1.32053 30.604C2.45302 30.7563 27.8409 34.1238 34.4499 34.1238C34.7541 34.1238 35.0246 34.1238 35.2443 34.1069C35.295 34.1069 35.3288 34.09 35.3795 34.073L50.4567 28.0149C50.6089 27.9472 50.7272 27.7949 50.7272 27.6257V20.8737C50.7103 20.6029 50.5413 20.4168 50.3215 20.3999ZM43.459 20.6706L43.6449 20.6876C43.4421 20.9752 43.2055 21.3983 43.2055 21.889C43.2055 22.2444 43.3407 22.5659 43.5604 22.8536L34.3316 26.2719C34.2977 26.255 34.2808 26.2211 34.2301 26.2211C33.1484 26.0688 32.0328 26.0858 30.9341 26.1027C30.5115 26.1027 30.089 26.1196 29.6833 26.1196C29.3791 26.1196 29.0748 26.0857 28.7537 26.0519C33.3174 24.495 39.0812 22.4136 43.1379 20.4845C43.2393 20.586 43.3238 20.6537 43.459 20.6706ZM13.5919 28.1672C13.5412 27.5072 13.4905 26.8303 13.4567 26.1703C16.4316 27.0841 19.2881 27.9303 20.7756 28.2856C20.877 29.5548 20.9784 30.8409 21.046 32.1101C18.612 31.8393 16.1273 31.5516 13.7778 31.2639C13.7778 31.247 13.7947 31.2301 13.7947 31.2132C13.744 30.2148 13.6595 29.1825 13.5919 28.1672ZM21.739 25.1042C24.0547 24.9858 26.3197 24.3766 28.4663 23.7335C28.686 23.6658 28.8213 23.4289 28.7537 23.209C28.686 22.989 28.4494 22.8705 28.2297 22.9213C26.0492 23.5813 23.7166 24.2243 21.3841 24.2751C21.2827 24.1397 21.1643 24.0212 20.9953 23.9705L20.877 23.9366C20.8263 23.9197 20.7249 23.9028 20.6403 23.8858C20.5896 23.3951 20.5558 22.8536 20.7249 22.4813C20.7587 22.4475 20.8432 22.3967 20.9108 22.346C20.9446 22.3629 20.9784 22.3798 21.0122 22.3798C21.0291 22.3798 21.046 22.3798 21.0629 22.3798C21.57 22.329 22.094 22.2952 22.618 22.2613C23.3448 22.2105 24.0885 22.1767 24.8153 22.0752C26.5394 21.8383 28.2973 21.3645 29.9368 20.9076C30.1566 20.8399 30.2918 20.6199 30.2242 20.3829C30.1566 20.163 29.9368 20.0276 29.7002 20.0953C28.0775 20.5522 26.3535 21.0091 24.6801 21.2291C23.9702 21.3306 23.2434 21.3644 22.5335 21.4152C22.1785 21.4321 21.8235 21.466 21.4855 21.4998C21.5024 21.2122 21.5193 20.9075 21.5193 20.6199C21.5193 20.5352 21.5193 20.4506 21.5193 20.366C23.9871 19.7907 26.4549 19.1984 28.9227 18.623C29.041 18.5892 29.1255 18.5215 29.1931 18.42C30.1397 18.5046 31.0355 18.5723 31.813 18.623C31.8807 20.4676 31.8976 22.3121 31.8976 24.0382C27.5197 25.595 23.5307 26.8642 21.9757 27.3719C21.9926 26.6273 21.9588 25.8488 21.739 25.1042ZM15.5526 16.1355L15.3329 11.4819L15.3836 11.4649C17.395 11.8203 19.6769 12.1249 22.2123 12.2941L22.5335 16.9647C20.2347 16.7108 17.8514 16.4401 15.5526 16.1355ZM30.1059 3.78224L29.9368 3.86686C29.9199 3.86686 29.9199 3.84995 29.903 3.84995C27.5028 3.37612 25.1365 2.71615 22.9729 1.88696C23.0743 1.83619 23.1758 1.80235 23.2941 1.75158C24.9843 2.31001 27.3676 3.03766 30.1059 3.78224ZM35.0753 5.05141L22.3982 11.008C22.2461 11.0757 22.1447 11.245 22.1616 11.4142C20.2178 11.2619 18.443 11.0588 16.8034 10.805L18.7134 9.92502C18.7472 9.92502 18.7641 9.92503 18.7979 9.90811L19.3388 9.63734L31.3736 4.13762C32.5737 4.44222 33.8076 4.74681 35.0753 5.05141ZM44.2196 6.74363C44.2196 6.76055 44.2196 6.77749 44.2196 6.81134C41.3293 6.64211 37.898 5.8806 36.1908 5.47447L36.4275 5.35602C38.9798 5.91446 41.6166 6.40519 44.2196 6.74363ZM37.374 19.4015H37.3909C40.5856 18.2169 43.5773 16.6939 46.4846 15.2217V15.6955C46.4677 15.6955 46.4508 15.6955 46.4339 15.6955C44.2873 16.9647 42.4956 17.9292 40.8053 18.6907C40.1123 18.9953 39.3855 19.2661 38.6924 19.5199C38.253 19.6722 37.8304 19.8414 37.3909 20.0107C37.374 19.8076 37.374 19.6045 37.374 19.4015ZM37.374 18.4877C37.374 18.42 37.374 18.3523 37.374 18.2846L43.1041 15.9493C41.2448 16.8631 39.3348 17.7431 37.374 18.4877ZM36.5289 18.64C36.4951 19.7907 36.4951 20.9752 36.5458 22.1767C36.5458 22.2275 36.5965 22.2782 36.6134 22.3121C35.3457 22.8028 34.0442 23.2767 32.7596 23.7505C32.7427 22.1259 32.7258 20.4168 32.6751 18.7077C34.3992 18.8261 35.5316 18.9107 35.7514 18.9107C35.7514 18.9107 35.7683 18.9107 35.7852 18.9107C35.8359 18.9107 35.8866 18.8938 35.9373 18.8769L36.5289 18.64ZM33.6892 6.62519C33.7738 6.77749 33.8076 6.89593 33.8076 6.98054C33.7738 7.33591 33.4019 7.75896 32.7765 8.16509C31.9314 8.72353 30.951 8.96046 30.0045 9.11276C29.4129 9.21429 28.7367 9.26504 28.0775 9.24811L33.6892 6.62519ZM26.5394 9.9927C27.0634 10.0773 27.6381 10.1281 28.2297 10.1281C28.8889 10.1281 29.565 10.0773 30.1566 9.97578C31.1876 9.78964 32.2694 9.53581 33.2498 8.89276C33.8414 8.50355 34.5513 7.87743 34.6527 7.09901C34.6865 6.87902 34.6527 6.59133 34.4837 6.26981L34.9908 6.0329C35.7176 6.21905 40.7377 7.52206 44.6591 7.67436C44.676 7.69128 44.7098 7.70821 44.7098 7.70821L35.295 10.805C34.1287 11.0419 26.5225 10.9742 24.4773 10.9573L26.5394 9.9927ZM28.2128 11.6172C27.9254 11.6172 27.655 11.6172 27.3845 11.6172H28.2128ZM10.1607 5.74523L17.8852 2.74999C18.1387 2.76691 18.443 2.80075 18.8149 2.80075C19.6431 2.80075 20.708 2.68231 21.8404 2.34387C23.9533 3.2069 26.2859 3.91762 28.686 4.44221L27.824 4.83144C27.7733 4.79759 27.7226 4.74682 27.6719 4.74682C21.1812 4.23915 19.2036 5.30526 18.8149 5.59293C18.7472 5.62678 18.6965 5.6437 18.6289 5.67755C18.6458 5.6437 18.6965 5.59293 18.6965 5.55908C18.6965 5.15295 17.8345 4.83144 16.7696 4.83144C15.7048 4.83144 14.8427 5.15295 14.8427 5.55908C14.8427 5.96521 15.7048 6.28673 16.7696 6.28673C17.057 6.28673 17.3443 6.25289 17.581 6.21905C16.7865 6.70979 16.2794 7.30207 16.0766 7.99589C15.8907 8.67278 16.0428 9.2989 16.2287 9.73887C14.1497 9.4512 11.8847 8.842 9.77189 7.99589C10.0254 7.35284 10.2452 6.57442 10.1607 5.74523ZM17.1584 9.70502C17.0063 9.46811 16.702 8.87583 16.8879 8.19895C17.0908 7.47129 17.8514 6.84517 19.1529 6.35443C19.1867 6.33751 19.2374 6.30365 19.2712 6.28673C19.2881 6.28673 20.0318 5.7283 22.6011 5.52523C21.046 5.8806 19.7783 6.3375 19.66 6.37134C18.2909 7.08207 17.6148 7.80973 17.6148 8.58815C17.6148 8.89275 17.7331 9.16352 17.8852 9.36658L17.1584 9.70502ZM9.36623 8.74047C11.3777 9.53581 13.4905 10.145 15.5019 10.4665L15.3329 10.5511C12.882 10.0942 10.8368 9.56965 9.1803 9.02814C9.23101 8.96045 9.29862 8.85892 9.36623 8.74047ZM23.3955 17.0324L23.0743 12.328C24.4942 12.4126 25.9816 12.4634 27.5705 12.4634C29.7171 12.4634 32.0159 12.3618 34.4668 12.1757C34.5006 12.5141 34.5344 12.8526 34.5682 13.1741C34.0104 13.191 33.4357 13.2079 32.8779 13.2418C31.3905 13.3095 29.8692 13.3771 28.3649 13.2756C28.1621 13.2418 27.9254 13.4279 27.9085 13.6648C27.8916 13.9017 28.0775 14.1048 28.2973 14.1048C28.872 14.1387 29.4298 14.1556 30.0045 14.1556C30.9848 14.1556 31.9652 14.1217 32.9117 14.071C33.4695 14.054 34.0442 14.0202 34.6189 14.0033C34.6358 14.0033 34.6527 13.9863 34.6696 13.9863C34.7034 14.2571 34.7203 14.5109 34.7541 14.7817C34.771 15.0017 34.8048 15.2048 34.8217 15.4247C33.9259 15.3909 33.0131 15.3232 32.2018 15.2555C31.9821 15.2217 31.7623 15.4078 31.7454 15.6447C31.7285 15.8817 31.8976 16.0847 32.1342 16.1016C32.9962 16.1862 33.9597 16.2539 34.9231 16.2878C34.9908 16.8631 35.0415 17.4385 35.1091 18.0138C33.3681 17.9123 28.7029 17.5739 23.3955 17.0324ZM37.3909 22.0075C37.374 21.6183 37.3909 21.246 37.3909 20.8737C37.4416 20.8737 37.4924 20.8568 37.5431 20.8399C38.0163 20.6537 38.4896 20.4845 38.9629 20.3153C39.6897 20.0614 40.4334 19.7907 41.1433 19.4692C42.766 18.7415 44.4732 17.8277 46.4677 16.6601L46.4508 17.6754C44.7267 18.9446 41.2448 20.5014 37.3909 22.0075ZM35.9373 17.9631C35.8021 16.8801 35.6838 15.797 35.5823 14.714C35.5485 14.4433 35.5147 14.1556 35.4978 13.8848C36.7148 13.6648 37.898 13.2756 39.0305 12.8864C39.6052 12.7003 40.1799 12.4972 40.7546 12.328C40.9743 12.2603 41.1095 12.0234 41.0419 11.8034C40.9743 11.5834 40.7377 11.448 40.5179 11.5157C39.9263 11.6849 39.3517 11.888 38.777 12.0911C37.6952 12.4634 36.5627 12.8356 35.4133 13.0387C35.3795 12.7172 35.3457 12.3957 35.3119 12.0911L48.9355 7.55589L49.1214 9.72196C49.1045 9.72196 49.1045 9.72196 49.0876 9.72196L48.6651 9.90811C47.6509 10.365 46.6029 10.8388 45.5719 11.1265C45.3521 11.1942 45.2169 11.4142 45.2845 11.6511C45.3352 11.8372 45.5042 11.9557 45.6902 11.9557C45.724 11.9557 45.7578 11.9557 45.8085 11.9388C46.9072 11.6342 47.989 11.1434 49.02 10.6865L49.189 10.6188L49.3581 12.531L35.9373 17.9631ZM3.83904 11.8542C6.99985 13.0218 10.1438 13.6818 13.0679 14.2063C13.0848 14.2063 13.1186 14.2063 13.1355 14.2063C13.3384 14.2063 13.5074 14.071 13.5581 13.851C13.5919 13.6141 13.4398 13.3941 13.22 13.3602C10.2283 12.8356 7.03365 12.1757 3.85594 10.9573L3.88975 9.60349C4.17709 9.72195 4.48134 9.84041 4.76869 9.97578C5.39409 10.2465 6.0533 10.5342 6.7294 10.7711C7.54074 11.0419 8.36897 11.2111 9.1803 11.3803C9.45074 11.4311 9.73809 11.4988 10.0085 11.5495C10.0423 11.5495 10.0761 11.5665 10.093 11.5665C10.279 11.5665 10.4649 11.4311 10.4987 11.228C10.5494 11.008 10.3973 10.7711 10.1776 10.7204C9.90712 10.6527 9.61977 10.6019 9.34933 10.5342C8.5718 10.365 7.76047 10.1958 6.99985 9.94193C6.35754 9.72194 5.73215 9.45119 5.10675 9.18044C4.71798 9.01121 4.31232 8.84199 3.90665 8.67276L3.92355 7.82665C5.12365 8.4697 8.60561 10.1112 14.4709 11.2619L14.6906 16.0001C10.0423 15.3401 5.86737 14.5448 3.78833 13.6141L3.83904 11.8542ZM26.962 18.2338C25.0182 18.6907 23.0574 19.1476 21.1136 19.6045C21.0629 19.5538 21.0122 19.503 20.9277 19.503C17.3274 19.0461 13.0848 18.4538 8.96056 17.337C7.321 16.897 5.71524 16.2878 4.14329 15.6786L6.17162 15.4417C6.25613 15.4247 6.30684 15.374 6.37445 15.3401C11.5636 16.677 20.3361 17.6416 26.962 18.2338ZM4.8363 20.366C4.88701 20.383 4.93772 20.3999 4.98843 20.3999C5.15745 20.3999 5.32648 20.2983 5.37719 20.1291C5.4617 19.9091 5.34338 19.6722 5.12364 19.5876C4.76869 19.4522 4.43064 19.3169 4.09258 19.1815C4.05878 19.1476 4.02497 19.0969 3.97427 19.08L2.9432 18.6569V18.2338C4.63347 18.9784 6.42516 19.723 8.28446 20.1122C8.31826 20.1122 8.33517 20.1122 8.36897 20.1122C8.5718 20.1122 8.74083 19.9768 8.77463 19.7737C8.82534 19.5538 8.67322 19.3169 8.45348 19.2661C6.54348 18.8769 4.68418 18.0815 2.92629 17.2862V16.1355L3.24745 16.2539C5.00533 16.9308 6.83082 17.6416 8.70703 18.1492C12.8313 19.2661 17.057 19.8753 20.6742 20.3153C20.6742 20.4168 20.6742 20.5183 20.6742 20.6199C20.6742 20.9245 20.6741 21.2121 20.6403 21.5167C20.6234 21.5337 20.5896 21.5506 20.5727 21.5675C20.2685 21.7536 20.0657 21.889 19.9811 22.0752C19.6769 22.6844 19.7107 23.3613 19.7783 23.9535C17.8176 23.6489 15.8907 23.0567 14.0314 22.4813C13.3384 22.2613 12.6454 22.0413 11.9354 21.8383C11.7157 21.7706 11.4791 21.906 11.4115 22.126C11.3438 22.3459 11.4791 22.5829 11.6988 22.6505C12.3918 22.8536 13.0848 23.0736 13.7778 23.2767C15.8907 23.9366 18.0711 24.6135 20.3361 24.8843C20.353 24.8843 20.3699 24.8843 20.3868 24.8843C20.4544 24.8843 20.522 24.8504 20.5727 24.8166C20.6234 24.935 20.708 25.0196 20.8432 25.0704C21.1305 25.7811 21.1474 26.6611 21.1305 27.4734C18.5951 26.898 10.6846 24.4273 6.45896 23.0905C6.39135 23.0059 6.28994 22.9382 6.17162 22.9213C6.0702 22.9044 5.96878 22.9044 5.88427 22.9044C5.05604 22.6505 4.41374 22.4305 4.05878 22.329L4.194 20.0784C4.41373 20.1968 4.61657 20.2814 4.8363 20.366ZM3.24745 21.7198L3.19674 22.6336C3.19674 22.6674 3.21364 22.7013 3.23054 22.7351C3.04461 22.7182 2.85869 22.7013 2.67276 22.7013C2.26709 22.6844 1.84452 22.6505 1.43886 22.6167L3.24745 21.7198ZM0.948677 23.429C1.50647 23.4628 2.06425 23.4966 2.62204 23.5305C3.65311 23.5812 4.70108 23.6659 5.73214 23.7674C7.49003 24.3258 10.0254 25.1212 12.5947 25.9165C12.5947 26.0011 12.6116 26.0857 12.6116 26.1703C11.665 26.1196 10.7184 25.9504 9.77189 25.7812L9.1803 25.6627C8.96057 25.6119 8.72393 25.7811 8.69012 26.0011C8.65631 26.238 8.80844 26.458 9.02818 26.4919L9.61977 26.5934C10.617 26.7795 11.6312 26.9657 12.6623 27.0165C12.6961 27.4226 12.713 27.8287 12.7468 28.2349C12.7637 28.4041 12.7637 28.5733 12.7806 28.7256C11.2593 28.5733 9.63668 28.3872 8.04782 28.0995C7.82809 28.0487 7.59145 28.201 7.55764 28.4379C7.52384 28.6748 7.65906 28.8948 7.8957 28.9287C9.51836 29.2333 11.1748 29.4194 12.7299 29.5717C12.7468 29.5717 12.7637 29.5717 12.7806 29.5717C12.7975 29.5717 12.8144 29.5548 12.8482 29.5548C12.882 30.0963 12.9327 30.6209 12.9496 31.1624C7.55764 30.5025 2.99391 29.9102 1.76001 29.741L0.948677 23.429ZM21.8911 32.2116C21.8235 30.9255 21.7221 29.6564 21.6207 28.3703C22.094 28.218 24.173 27.5749 26.9789 26.6442C27.0296 26.678 27.0803 26.7288 27.1648 26.7288C27.469 26.7457 27.7733 26.7796 28.0775 26.8134C28.6015 26.8811 29.1593 26.9319 29.7002 26.9319C30.1059 26.9319 30.5453 26.9318 30.9679 26.9149C31.9652 26.898 32.9962 26.898 33.9597 26.9996L34.2808 29.8256C33.6047 29.7579 32.9117 29.7071 32.2356 29.6394C30.2242 29.4702 28.1452 29.284 26.1168 29.0133C25.8971 28.9963 25.6774 29.1486 25.6436 29.3856C25.6097 29.6225 25.7788 29.8255 26.0154 29.8594C28.0606 30.1301 30.1397 30.2994 32.168 30.4855C32.9117 30.5532 33.6554 30.6209 34.3823 30.6886L34.4837 31.5178C32.692 31.3993 30.9003 31.1963 29.1424 30.9932L28.5508 30.9255C28.3311 30.9086 28.1113 31.0609 28.0775 31.2978C28.0437 31.5347 28.2128 31.7378 28.4494 31.7716L29.041 31.8393C30.8496 32.0593 32.7258 32.2793 34.5851 32.3808L34.6696 33.1931C32.4046 33.2607 27.3845 32.8039 21.8911 32.2116ZM35.4809 33.0577L34.94 28.1672C38.422 26.8303 41.6166 25.6965 44.676 24.7151C44.8957 24.6474 45.0141 24.4105 44.9465 24.1905C44.8788 23.9705 44.6422 23.852 44.4225 23.9197C41.4138 24.8843 38.2699 26.0011 34.8386 27.3042L34.8048 26.9996L49.8482 21.4152V24.072C49.8144 24.072 49.7975 24.0551 49.7806 24.072C48.3101 24.6474 46.755 25.172 45.2507 25.6796C44.6084 25.8996 43.9661 26.1196 43.3238 26.3396C43.1041 26.4073 42.9857 26.6611 43.0703 26.8811C43.1379 27.0503 43.29 27.1687 43.4759 27.1687C43.5266 27.1687 43.5604 27.1688 43.6111 27.1519C44.2534 26.9319 44.8788 26.7119 45.5211 26.5088C46.9579 26.035 48.4284 25.5273 49.8652 24.9689V27.3042L35.4809 33.0577Z" fill="#9A9274"/>
<path d="M43.4426 12.9881C41.5495 13.7327 39.4873 14.4772 36.766 15.408C36.5463 15.4756 36.4279 15.7295 36.4955 15.9494C36.5632 16.1187 36.7153 16.2371 36.9012 16.2371C36.9519 16.2371 36.9857 16.2371 37.0364 16.2202C39.7747 15.2895 41.8368 14.5449 43.7468 13.7834C43.9665 13.6988 44.068 13.445 43.9834 13.2419C43.8989 13.005 43.6623 12.9035 43.4426 12.9881Z" fill="#9A9274"/>
<path d="M47.482 26.3733L46.2819 26.8472C44.2028 27.6764 42.0562 28.5225 39.9265 29.284C39.7067 29.3686 39.5884 29.6055 39.6729 29.8255C39.7405 29.9947 39.8926 30.1132 40.0786 30.1132C40.1293 30.1132 40.18 30.1132 40.2138 30.0963C42.3604 29.3348 44.524 28.4717 46.603 27.6425L47.7862 27.1687C48.006 27.0841 48.1074 26.8303 48.0229 26.6272C47.9383 26.3903 47.6848 26.2887 47.482 26.3733Z" fill="#9A9274"/>
<path d="M36.6469 9.09561C37.8698 9.09561 38.8611 8.79257 38.8611 8.41873C38.8611 8.04489 37.8698 7.74182 36.6469 7.74182C35.424 7.74182 34.4326 8.04489 34.4326 8.41873C34.4326 8.79257 35.424 9.09561 36.6469 9.09561Z" fill="#9A9274"/>
</svg>
