<svg width="36" height="42" viewBox="0 0 36 42" fill="none" xmlns="http://www.w3.org/2000/svg">
<path d="M33.4952 10.9941C33.4445 10.9095 33.36 10.8588 33.2586 10.8249C33.0727 10.7741 31.5852 10.4018 30.6218 10.7911C30.7401 9.13268 30.7908 7.40661 30.7401 5.52825C30.7401 5.40979 30.6725 5.29133 30.5711 5.20672C27.5624 2.85453 23.8607 1.17925 19.5674 0.248526C18.5363 0.0116152 17.4715 -0.0560912 16.4066 0.045442C8.64824 0.790019 4.45637 5.34209 4.28734 5.54516C4.21973 5.61285 4.18592 5.71439 4.18592 5.81592C4.10141 7.54199 4.13522 9.14959 4.21973 10.7234C4.21973 10.7403 4.20283 10.7403 4.20283 10.7572C3.23937 10.4864 1.90406 10.808 1.73503 10.8587C1.63361 10.8757 1.5491 10.9434 1.49839 11.028C-0.158073 13.3632 -0.00594433 17.3738 0.0109584 17.543C0.0109584 17.5768 0.0109491 17.6276 0.0278518 17.6615C0.518031 19.1168 2.74919 20.2506 2.93512 20.3352L4.86203 20.8428C4.86203 20.8598 4.86203 20.8767 4.86203 20.8936C4.86203 21.1982 4.38875 21.7566 4.0676 22.0274C3.96618 22.1289 3.89858 22.2643 3.93239 22.3997C4.05071 23.3643 5.23389 23.6519 5.91 23.6689H5.92691C5.97762 23.6689 6.02832 23.6688 6.07903 23.635C6.63682 23.4319 7.02558 22.9243 7.27912 22.5012C8.29328 24.3288 9.51028 25.9364 11.0146 27.2564V29.1516C11.0146 29.2532 11.0484 29.3547 11.116 29.4224L12.2654 30.7593L12.2992 30.8269L12.3161 31.6223L12.2992 32.6545H11.1329C11.0146 32.6545 10.9132 32.7053 10.8287 32.7899L7.1608 36.5636C7.07629 36.6482 7.04248 36.7666 7.04248 36.8851L7.26223 41.0987C7.27913 41.3187 7.46506 41.5049 7.68479 41.5049L27.2919 41.2679C27.5286 41.2679 27.7145 41.0818 27.7145 40.8449L27.7314 37.0374V37.0205V37.0035C27.7314 36.902 27.6976 36.8005 27.63 36.7328L24.2495 32.7561C24.1649 32.6545 24.0466 32.6038 23.9283 32.6038H23.286L23.2015 31.4869V30.5393L23.81 29.2363C23.8438 29.1686 23.8438 29.084 23.8438 28.9993L23.8945 26.9856C25.4326 25.801 26.7003 24.2273 27.7314 22.3489C27.968 22.7889 28.3906 23.3643 28.9991 23.5842C29.0498 23.6012 29.1005 23.6181 29.1512 23.6181C29.1512 23.6181 29.1512 23.6181 29.1681 23.6181C29.8443 23.6012 31.0105 23.3135 31.1458 22.3489C31.1627 22.2135 31.112 22.0612 31.0105 21.9766C30.6894 21.7059 30.2161 21.1474 30.2161 20.8428C30.2161 20.8259 30.2161 20.809 30.2161 20.7921L32.2275 20.2506C32.329 20.1998 34.5601 19.066 35.0503 17.6107C35.0672 17.5769 35.0672 17.543 35.0672 17.4922C34.9996 17.3399 35.1517 13.3294 33.4952 10.9941ZM30.402 13.634C30.6387 13.5494 31.1627 13.6001 31.5345 13.6509C31.9402 14.294 32.1092 15.6308 32.1599 16.2231C31.7881 17.0692 30.3344 17.6615 29.4555 17.9322C29.8274 16.5954 30.1316 15.1739 30.3344 13.634C30.3682 13.634 30.3851 13.634 30.402 13.634ZM5.03105 6.01898C5.70716 5.34209 9.73001 1.55154 16.508 0.908491C17.4715 0.82388 18.4518 0.874648 19.3984 1.09464C23.4888 1.99151 27.0384 3.56526 29.895 5.78207C29.9288 7.47429 29.8781 9.03113 29.7935 10.5372C28.8301 9.11574 27.0891 8.15119 27.0215 8.11734C24.6044 6.57742 18.249 5.15596 17.9785 5.10519C17.9447 5.10519 17.9109 5.08828 17.8602 5.08828C14.8008 5.22366 9.93285 6.72972 7.60028 7.69429C6.43399 8.16811 5.57195 8.98038 4.99726 9.65727C4.96345 8.47271 4.96344 7.27122 5.03105 6.01898ZM5.35221 17.8815C4.45637 17.5938 3.17176 17.0184 2.83371 16.2231C2.88442 15.6308 3.07035 14.294 3.45911 13.6509C3.76336 13.6001 4.20283 13.5663 4.47328 13.6171C4.69301 15.1231 4.98035 16.5446 5.35221 17.8815ZM5.84239 22.8058C5.58885 22.7889 5.04797 22.6874 4.84514 22.4505C5.16629 22.1289 5.70717 21.5028 5.70717 20.8936C5.70717 20.6059 5.58885 20.3352 5.36912 20.149C5.31841 20.0983 5.2677 20.0813 5.20009 20.0475L3.23937 19.5398C2.68158 19.2691 1.21105 18.3553 0.856094 17.4415C0.839192 16.9507 0.805383 13.6171 2.10689 11.6372C2.73229 11.5018 3.72955 11.3833 4.18592 11.6541C4.21972 11.671 4.25354 11.6541 4.28734 11.671C4.32115 12.0433 4.32115 12.4156 4.35496 12.7709C3.81407 12.7371 3.22247 12.8725 3.13796 12.8894C3.03654 12.9063 2.95203 12.9571 2.90132 13.0417C2.1745 13.9724 2.02238 16.0539 2.00548 16.2908C2.00548 16.3415 2.00547 16.4092 2.02237 16.46C2.58016 17.9999 5.01416 18.7107 5.65646 18.863C5.97761 19.8275 6.34948 20.7413 6.77205 21.6043C6.63682 21.892 6.29876 22.5689 5.84239 22.8058ZM22.9479 28.644L11.809 28.7624V27.544L22.9648 27.3748L22.9479 28.644ZM8.05664 40.6587L7.88762 37.562L26.8525 37.4604L26.8356 40.4388L8.05664 40.6587ZM26.3961 36.6143L8.15807 36.7159L11.2851 33.5007L23.7086 33.4499L26.3961 36.6143ZM23.1677 26.4779C23.1508 26.4949 23.1508 26.5118 23.1508 26.5287L11.6231 26.7149C7.68478 23.2458 5.50434 17.9322 5.08177 10.9433C5.45363 10.368 6.41709 9.09884 7.92143 8.47272C10.1864 7.542 14.8853 6.08669 17.8433 5.93439C18.4687 6.06977 24.3847 7.44044 26.5989 8.84499C26.6158 8.86191 29.0667 10.1818 29.54 11.8402C29.5738 11.9248 29.6245 12.0095 29.6921 12.0602C29.016 18.8799 26.8356 23.7366 23.1677 26.4779ZM34.1544 17.4076C33.7995 18.3214 32.3289 19.2183 31.8557 19.4722L29.8104 20.0137C29.7428 20.0306 29.6921 20.0644 29.6414 20.1152C29.4217 20.3182 29.3034 20.5721 29.3034 20.8598C29.3034 21.469 29.8442 22.0951 30.1654 22.4166C29.9626 22.6704 29.4217 22.7551 29.1681 22.772C28.6949 22.5351 28.3399 21.8074 28.2385 21.5197C28.2216 21.5028 28.2047 21.4859 28.1878 21.469C28.5765 20.6567 28.9146 19.7768 29.2189 18.863C29.2189 18.863 29.2189 18.863 29.2358 18.863C29.5569 18.7953 32.4135 18.0845 33.0051 16.4262C33.022 16.3754 33.0389 16.3077 33.022 16.2569C33.0051 16.02 32.8529 13.9217 32.1261 13.0079C32.0585 12.9232 31.974 12.8725 31.8895 12.8556C31.7881 12.8386 31.0782 12.7033 30.4866 12.7709C30.5204 12.4156 30.5373 12.0264 30.5711 11.6541C30.6556 11.671 30.757 11.671 30.8415 11.6202C31.2979 11.3664 32.2951 11.4679 32.9205 11.6033C34.1882 13.5832 34.1544 16.9169 34.1544 17.4076Z" fill="#588871"/>
<path d="M21.1898 18.9646H20.0066L19.7023 9.21739C19.7023 8.99741 19.4995 8.81128 19.2798 8.81128L16.9472 8.82819C16.7613 8.82819 16.5923 8.96357 16.5415 9.14972C16.0345 11.0788 12.992 14.074 12.9751 14.1079C12.8906 14.1925 12.8399 14.311 12.8568 14.4125C12.8737 14.514 12.9075 14.6325 12.992 14.7171L14.1414 15.7663C14.2428 15.8509 14.378 15.8847 14.5132 15.8678L15.7133 15.6309L15.8147 18.9646H14.3949C14.1583 18.9646 13.9723 19.1507 13.9723 19.3876V23.0259C13.9723 23.2628 14.1583 23.4489 14.3949 23.4489H21.2067C21.4433 23.4489 21.6293 23.2628 21.6293 23.0259V19.3876C21.6124 19.1507 21.4264 18.9646 21.1898 18.9646Z" fill="#588871"/>
</svg>
