<svg width="41" height="43" viewBox="0 0 41 43" fill="none" xmlns="http://www.w3.org/2000/svg">
<path d="M1 23.9466L6.36621 13.4466L11.5 23.9466" stroke="#256571" stroke-width="0.931818" stroke-linecap="round" stroke-linejoin="round"/>
<path d="M1.00289 23.9837L11.5004 23.9835L10.1109 26.3148L2.50356 26.3709L1.00289 23.9837Z" fill="#256571" stroke="#256571" stroke-width="0.931818" stroke-linecap="round" stroke-linejoin="round"/>
<path d="M6.36621 10.9464V13.4464" stroke="#256571" stroke-width="0.931818" stroke-linecap="round" stroke-linejoin="round"/>
<path d="M18.1339 8.37638C17.3603 8.04124 16.523 7.88092 15.6812 7.9067C14.8393 7.93247 14.0133 8.14373 13.2613 8.52558C12.3151 8.87926 11.428 9.37608 10.6305 9.99893C8.9046 11.0214 6.89599 11.4532 4.90572 11.2298C4.72357 11.0064 4.62402 10.7263 4.62402 10.4372C4.62402 10.1482 4.72357 9.86804 4.90572 9.64458C6.32979 9.62084 7.73228 9.29014 9.01869 8.67478C10.7639 7.22361 12.8499 6.24754 15.077 5.83997C16.2132 5.87785 17.3457 5.98999 18.4674 6.17567" stroke="#256571" stroke-width="0.931818" stroke-linecap="round" stroke-linejoin="round"/>
<path d="M39.4451 24.0763L34.1834 13.5763L28.8662 24.2068" stroke="#256571" stroke-width="0.931818" stroke-linecap="round" stroke-linejoin="round"/>
<path d="M39.5563 24.2067L28.9219 24.244L30.2929 26.5939H38.0371L39.5563 24.2067Z" fill="#256571" stroke="#256571" stroke-width="0.931818" stroke-linecap="round" stroke-linejoin="round"/>
<path d="M34.2577 10.9464L34.2021 13.3896" stroke="#256571" stroke-width="0.931818" stroke-linecap="round" stroke-linejoin="round"/>
<path d="M22.6546 8.37638C23.4283 8.04124 24.2655 7.88092 25.1074 7.9067C25.9492 7.93247 26.7752 8.14373 27.5272 8.52558C28.4391 8.89152 29.294 9.38772 30.0654 9.99893C31.7921 11.0203 33.7983 11.4582 35.7902 11.2485C35.9706 11.0206 36.0688 10.7379 36.0688 10.4465C36.0688 10.1552 35.9706 9.87245 35.7902 9.64458C34.3682 9.62103 32.9669 9.29698 31.6772 8.69343C29.93 7.24187 27.8456 6.26011 25.6189 5.83997C24.4828 5.87785 23.3502 5.98999 22.2285 6.17567" stroke="#256571" stroke-width="0.931818" stroke-linecap="round" stroke-linejoin="round"/>
<path d="M20.4502 1.06555L20.5984 35.7174" stroke="#256571" stroke-width="1.49091" stroke-linecap="round" stroke-linejoin="round"/>
<path fill-rule="evenodd" clip-rule="evenodd" d="M20.4488 4.422C21.6716 4.422 22.672 6.00725 22.672 7.94686C22.672 9.88647 21.6716 11.4717 20.4488 11.4717C19.226 11.4717 18.2256 9.90512 18.2256 7.94686C18.2256 5.9886 19.226 4.422 20.4488 4.422Z" fill="#256571"/>
<path fill-rule="evenodd" clip-rule="evenodd" d="M19.5604 4.88841C19.1292 3.98815 18.9195 2.99666 18.949 1.99765C18.949 1.99765 19.0787 -0.0725094 20.5423 0.00209093V4.96301L19.5604 4.88841Z" fill="#256571"/>
<path fill-rule="evenodd" clip-rule="evenodd" d="M21.4322 4.88841C21.8826 3.99298 22.1114 3.00125 22.0992 1.99765C22.0992 1.99765 21.9695 -0.0725094 20.5059 0.00209093V4.96301L21.4322 4.88841Z" fill="#256571"/>
<path fill-rule="evenodd" clip-rule="evenodd" d="M19.9491 26.8398C19.9491 26.8398 16.5216 32.8451 19.0783 36.9295H20.6531V26.1124L19.9491 26.8398Z" fill="#256571"/>
<path fill-rule="evenodd" clip-rule="evenodd" d="M21.3759 26.8398C21.3759 26.8398 24.8034 32.8451 22.2467 36.9295H20.6719V26.1124L21.3759 26.8398Z" fill="#256571"/>
<path d="M13.9287 38.8062V37.5824C13.9513 37.3646 14.0524 37.1628 14.2129 37.015C14.3733 36.8672 14.582 36.7838 14.7995 36.7804H25.6192C25.8338 36.7832 26.0401 36.8641 26.2002 37.008C26.3602 37.152 26.4631 37.3493 26.4899 37.5637V38.7502" stroke="#256571" stroke-width="0.931818" stroke-linecap="round" stroke-linejoin="round"/>
<path fill-rule="evenodd" clip-rule="evenodd" d="M11.4268 39.5965V39.1676C11.4362 38.9151 11.5413 38.6759 11.7204 38.499C11.8996 38.3221 12.1392 38.221 12.3901 38.2164H28.3974C28.6497 38.2164 28.892 38.316 29.0721 38.4939C29.2523 38.6717 29.3559 38.9136 29.3608 39.1676V39.5779L11.4268 39.5965Z" fill="#256571"/>
<path d="M11.4268 39.5965V39.1676C11.4362 38.9151 11.5413 38.6759 11.7204 38.499C11.8996 38.3221 12.1392 38.221 12.3901 38.2164H28.3974C28.6497 38.2164 28.892 38.316 29.0721 38.4939C29.2523 38.6717 29.3559 38.9136 29.3608 39.1676V39.5779L11.4268 39.5965Z" stroke="#256571" stroke-width="0.310606" stroke-linecap="round" stroke-linejoin="round"/>
<path d="M7.98047 41.9464V41.0322C7.99446 40.7831 8.10155 40.5485 8.28024 40.3755C8.45893 40.2026 8.696 40.104 8.94386 40.0997H32.2692C32.5184 40.0995 32.758 40.1966 32.9377 40.3705C33.1173 40.5444 33.223 40.7815 33.2326 41.0322V41.9464H7.98047Z" stroke="#256571" stroke-width="0.931818" stroke-linecap="round" stroke-linejoin="round"/>
</svg>
