<svg width="28" height="44" viewBox="0 0 28 44" fill="none" xmlns="http://www.w3.org/2000/svg">
<path fill-rule="evenodd" clip-rule="evenodd" d="M26.0693 4.94002C25.8687 4.79599 25.6682 4.66637 25.439 4.57995C25.4247 4.2919 25.3674 4.03265 25.2671 3.78781C24.8374 2.79403 24.0353 2.17472 23.1186 2.1171C23.09 2.1171 23.0613 2.1171 23.0327 2.1171C22.8894 1.78584 22.7032 1.48339 22.4597 1.22414C21.8152 0.561622 20.9271 0.374388 19.9388 0.705648C19.9101 0.676843 19.8958 0.66244 19.8671 0.633635C19.3658 0.172751 18.7929 -0.0432883 18.2486 0.0287248C17.7902 0.0863352 17.3748 0.273569 17.0167 0.547219C16.7303 0.38879 16.4008 0.273569 16.0714 0.244764C15.1547 0.129543 14.3239 0.60483 13.8369 1.5266C13.7653 1.65622 13.708 1.78584 13.665 1.92987H13.6507C13.0921 2.00188 12.6051 2.33314 12.3043 2.85164C12.29 2.89485 12.2613 2.92365 12.247 2.96686C11.6167 2.76522 10.9722 2.86604 10.4136 3.26931C9.69738 3.78781 9.36794 4.69517 9.55415 5.57373C9.65441 6.00581 9.91224 6.40908 10.1701 6.71154C10.0555 7.30205 10.1701 7.92136 10.5138 8.39665C10.9006 8.92954 11.5165 9.2176 12.204 9.15999C12.3473 9.14558 12.4905 9.13118 12.6194 9.08797C12.7053 9.28961 12.8056 9.47684 12.9488 9.66408C13.221 10.0241 13.5504 10.2978 13.8942 10.4562C13.9372 10.5426 13.9801 10.6435 14.0374 10.7299C14.3669 11.2916 14.9398 11.666 15.6703 11.7957C16.3292 11.9109 16.9022 11.8245 17.3748 11.6084C17.3748 11.6516 17.3892 11.6948 17.4035 11.7237C17.2459 12.0693 17.1886 12.4438 17.2459 12.8327C17.2889 13.1207 17.3748 13.3656 17.4608 13.5672C17.6327 13.9849 17.6756 14.0857 17.3462 14.3161C17.1886 14.4313 17.1457 14.6618 17.2602 14.8202C17.3319 14.921 17.4465 14.9642 17.5467 14.9642C17.6183 14.9642 17.69 14.9354 17.7616 14.8922C18.535 14.3305 18.2915 13.7256 18.1197 13.2791C18.048 13.0919 17.9764 12.9047 17.9478 12.7174C17.9335 12.6166 17.9335 12.5158 17.9478 12.415C18.1197 12.5158 18.3488 12.6022 18.6353 12.6454C19.1796 12.7318 19.6093 12.5446 19.8242 12.1557C20.0534 12.3142 20.2969 12.415 20.569 12.4438C21.0846 12.5014 21.5573 12.2998 21.9441 11.8821C22.3451 12.0549 22.8178 12.0405 23.2905 11.8389C23.8634 11.594 24.3648 11.1043 24.5939 10.5714C25.1382 10.3986 25.6396 10.0529 25.9547 9.67848C26.2841 9.28961 26.4274 8.78552 26.413 8.28143C26.7998 7.86375 27.0003 7.28764 27.0146 6.63953C27.0146 6.02021 26.6709 5.3865 26.0693 4.94002ZM23.2618 2.83724C23.8348 2.93805 24.3361 3.38454 24.6226 4.06146C24.6656 4.16228 24.6942 4.26309 24.7228 4.36391C24.4364 4.33511 24.1642 4.34951 23.9207 4.42152C23.6343 4.50794 23.3764 4.62316 23.1329 4.76719C23.3191 4.13347 23.3621 3.47095 23.2618 2.83724ZM24.0926 5.12725C24.2788 5.06964 24.4793 5.06964 24.6942 5.09845C24.6512 5.30008 24.5796 5.51612 24.4793 5.73216C24.4793 5.73216 24.4793 5.74656 24.465 5.74656C24.2358 5.68895 23.9923 5.64575 23.7345 5.64575C23.5483 5.64575 23.3478 5.66015 23.1472 5.70336C23.1186 5.70336 23.09 5.71776 23.0613 5.71776C23.3335 5.44411 23.6915 5.24247 24.0926 5.12725ZM23.2905 6.40908C23.5483 6.35147 23.8061 6.35147 24.0496 6.39468C23.6915 6.82676 23.2618 7.17242 22.8178 7.31645C22.6889 7.25884 22.56 7.20123 22.4311 7.17242C22.4454 7.014 22.474 6.85557 22.5027 6.71154C22.7462 6.56751 23.0183 6.4667 23.2905 6.40908ZM22.5313 2.88044C22.6602 3.48535 22.603 4.16228 22.3595 4.75278C22.1732 5.19927 21.7722 5.55933 21.2852 5.80418C21.0274 5.11285 21.0846 4.43593 21.4571 3.81661C21.7435 3.34133 22.1159 3.02447 22.5313 2.88044ZM21.6433 6.43789C21.6289 6.45229 21.6289 6.45229 21.6146 6.4667C21.6146 6.4667 21.6146 6.4667 21.6146 6.45229C21.6146 6.45229 21.6289 6.43789 21.6433 6.43789ZM21.9584 1.71383C22.1016 1.85786 22.2162 2.03069 22.3022 2.21792C21.7292 2.40516 21.2136 2.83724 20.8555 3.44215C20.8841 3.28372 20.9128 3.11089 20.9128 2.95246C20.9414 2.43396 20.7552 1.82905 20.4258 1.31056C21.0417 1.16653 21.5573 1.31056 21.9584 1.71383ZM20.5404 8.26702C20.526 8.35344 20.526 8.42545 20.5117 8.51187C20.4974 8.51187 20.4974 8.51187 20.4831 8.51187C20.5117 8.43985 20.5117 8.36784 20.5404 8.26702C20.5404 8.28143 20.526 8.28143 20.5404 8.26702ZM19.8098 5.25688C20.0677 4.99763 20.2825 4.72398 20.4687 4.42152C20.3971 4.79599 20.3971 5.18486 20.4831 5.57373C20.2682 5.4153 20.0534 5.31449 19.8098 5.25688ZM20.4687 7.0572C20.4401 7.0428 20.4114 7.0284 20.3971 7.01399C20.3828 6.97079 20.3541 6.91318 20.3398 6.86997C20.3685 6.86997 20.3971 6.85557 20.4258 6.85557C20.4401 6.91318 20.4544 6.98519 20.4687 7.0572ZM18.8645 6.86997C18.9361 6.88437 19.0077 6.89877 19.0793 6.89877C19.2942 7.11481 19.5234 7.30205 19.7812 7.47488C19.8098 7.61891 19.8242 7.76293 19.8242 7.92136C19.5807 8.1374 19.3658 8.39665 19.1939 8.6703C19.1653 8.6847 19.1366 8.6991 19.108 8.7135C19.1653 8.07979 19.0793 7.44607 18.8645 6.86997ZM18.9361 10.557C18.8215 10.5714 18.621 10.5858 18.4634 10.6579C18.5637 10.4994 18.664 10.341 18.7499 10.1682C18.7929 10.1682 18.8502 10.1682 18.8931 10.1538C18.8931 10.2978 18.9075 10.4274 18.9361 10.557ZM19.6666 5.9626C19.8098 5.99141 19.9388 6.06342 20.0534 6.17864C19.9961 6.17864 19.9531 6.19305 19.8958 6.19305C19.8385 6.10663 19.7526 6.03462 19.6666 5.9626ZM20.1966 2.90925C20.1679 3.68699 19.7239 4.45033 19.0077 5.01203C18.9361 5.06964 18.8502 5.12725 18.7785 5.18486C18.7785 5.17046 18.7642 5.15606 18.7642 5.12725C18.4634 4.37832 18.4921 3.42774 18.8215 2.65C18.9791 2.28994 19.2656 1.84345 19.7526 1.5554C20.039 1.98748 20.2109 2.49157 20.1966 2.90925ZM18.3488 0.720051C18.6926 0.676843 19.0077 0.835271 19.2369 1.0081C18.8645 1.25295 18.5494 1.59861 18.3059 2.01629C18.1483 1.61301 17.9048 1.25295 17.6183 0.964895C17.8332 0.849674 18.0767 0.763258 18.3488 0.720051ZM18.1053 5.42971C18.0051 5.42971 17.9335 5.42971 17.8332 5.44411C17.8905 5.34329 17.9478 5.25688 18.0051 5.15606C18.0337 5.24247 18.0624 5.31449 18.091 5.4009C18.091 5.4009 18.091 5.4153 18.1053 5.42971ZM17.0884 1.46899C17.3892 1.74264 17.6183 2.1171 17.7329 2.53478C17.9621 3.32692 17.7329 4.21989 17.2746 4.98323C16.8878 4.46473 16.6443 3.84542 16.5727 3.25491C16.4868 2.6644 16.6873 1.98748 17.0884 1.46899ZM16.6873 5.67455C16.673 5.67455 16.673 5.67455 16.6587 5.68895C16.6443 5.68895 16.6157 5.68895 16.6014 5.67455C16.5297 5.66015 16.4438 5.64575 16.3722 5.61694C16.4438 5.63134 16.5154 5.63134 16.587 5.64575C16.6157 5.66015 16.6587 5.67455 16.6873 5.67455ZM14.4671 1.85786C14.8252 1.19534 15.3695 0.878479 15.9998 0.93609C16.1717 0.950492 16.3292 0.9937 16.4868 1.06571C16.0141 1.68503 15.7563 2.50598 15.8565 3.34133C15.9138 3.84542 16.0857 4.37832 16.3579 4.88241C16.1717 4.86801 15.9711 4.86801 15.7849 4.88241C15.9998 4.07586 15.9282 3.2117 15.2693 2.53478C15.0114 2.27553 14.7106 2.0883 14.3955 1.98748C14.4242 1.95868 14.4385 1.91547 14.4671 1.85786ZM15.5701 6.26506C15.3266 6.43789 15.0974 6.63953 14.8825 6.85557C14.7966 6.86997 14.7106 6.88437 14.6247 6.88437C14.8109 6.71154 14.9828 6.5099 15.1404 6.27946C15.212 6.17864 15.2836 6.06342 15.3552 5.9482C15.3695 5.9482 15.3839 5.9626 15.3982 5.9626C15.4411 6.06342 15.5128 6.16424 15.5701 6.26506ZM14.7536 3.05327C15.2549 3.55737 15.2406 4.20548 15.0831 4.73838C15.0114 4.69517 14.9541 4.66637 14.8825 4.62316C14.725 4.42152 14.5961 4.19108 14.5101 3.96064C14.4385 3.759 14.2666 3.25491 14.2666 2.70761C14.4528 2.79403 14.6104 2.89485 14.7536 3.05327ZM12.9345 3.2117C13.0921 2.93805 13.3069 2.76522 13.5648 2.67881C13.5648 3.32692 13.751 3.91743 13.8512 4.21989C13.8656 4.26309 13.8799 4.2919 13.8942 4.33511C13.8226 4.32071 13.7653 4.32071 13.6937 4.3063C13.4788 3.88863 13.2067 3.54296 12.8772 3.29812C12.8915 3.26931 12.9059 3.24051 12.9345 3.2117ZM12.6194 4.01825C12.7197 4.11907 12.8056 4.23429 12.8915 4.34951C12.777 4.36391 12.6767 4.39272 12.5764 4.42152C12.5764 4.2919 12.5908 4.14787 12.6194 4.01825ZM10.4852 5.9194C10.3706 5.74656 10.299 5.57373 10.256 5.4153C10.0984 4.69517 10.4565 4.13347 10.8289 3.85982C11.0724 3.68699 11.3303 3.60057 11.6167 3.60057C11.7313 3.60057 11.8602 3.61498 11.9748 3.64378C11.8746 3.98945 11.8316 4.34951 11.8459 4.69517C11.2873 4.96882 10.8003 5.4009 10.4852 5.9194ZM12.4475 8.38224C12.3472 8.41105 12.247 8.42545 12.1467 8.43985C11.7027 8.46866 11.3446 8.31023 11.1011 7.96457C10.9722 7.79174 10.8862 7.5757 10.8576 7.35966C11.3589 7.70532 11.9175 7.84935 12.4618 7.87815C12.4332 8.03658 12.4189 8.20941 12.4475 8.38224ZM12.7483 7.12922C12.6767 7.12922 12.6194 7.14362 12.5621 7.14362C11.9892 7.18683 11.4592 6.98519 10.9865 6.52431C11.187 6.04902 11.5451 5.68895 11.9605 5.44411C12.0321 5.67455 12.1181 5.89059 12.247 6.09223C12.4332 6.40908 12.6337 6.66833 12.8629 6.88437C12.8199 6.97079 12.777 7.0428 12.7483 7.12922ZM12.8629 5.73216C12.7626 5.55933 12.691 5.35769 12.6337 5.15606C12.8343 5.09845 13.0348 5.05524 13.2496 5.04084C13.3785 5.35769 13.4645 5.71776 13.4931 6.06342C13.4215 6.13544 13.3499 6.22185 13.2783 6.29386C13.135 6.14984 12.9918 5.9626 12.8629 5.73216ZM13.9228 8.38224C13.7939 8.74231 13.7223 9.11678 13.7223 9.46244C13.6507 9.39043 13.5791 9.31841 13.5218 9.232C13.4215 9.08797 13.3356 8.92954 13.264 8.77111C13.6507 8.49747 13.9372 8.07979 14.0947 7.54689C14.1663 7.56129 14.238 7.5757 14.3096 7.5757C14.152 7.83494 14.0231 8.10859 13.9228 8.38224ZM14.1234 5.51612C14.0947 5.3721 14.0518 5.21367 14.0088 5.06964C14.0661 5.09845 14.1234 5.11285 14.1807 5.12725C14.2666 5.15606 14.3526 5.18486 14.4385 5.21367C14.4671 5.24247 14.4815 5.27128 14.5101 5.28568C14.3812 5.35769 14.2523 5.42971 14.1234 5.51612ZM14.4671 9.88012C14.3955 9.50565 14.4385 9.07357 14.5961 8.62709C14.7393 8.23822 14.9541 7.84935 15.2406 7.51809C15.3982 7.47488 15.5701 7.41727 15.7276 7.34525C15.7849 7.31645 15.8422 7.30205 15.8995 7.27324C15.9568 7.63331 15.9425 8.00778 15.8852 8.36784C15.8136 8.7135 15.5271 9.86571 14.639 9.89452C14.5817 9.89452 14.5244 9.89452 14.4671 9.88012ZM17.4608 10.7155C17.0454 11.0467 16.5011 11.2196 15.7849 11.0899C15.3695 11.0179 15.0401 10.8451 14.8109 10.6002C15.8279 10.4706 16.3865 9.44804 16.5727 8.49747C16.673 7.96457 16.6587 7.40287 16.5297 6.85557C16.7016 6.72594 16.8592 6.58192 17.0167 6.43789C17.1313 6.43789 17.2316 6.43789 17.3319 6.42349C16.6014 7.28764 16.5154 8.26702 17.117 9.232C17.3175 9.56326 17.561 9.8081 17.8189 9.95213C17.6756 10.197 17.5467 10.4562 17.4608 10.7155ZM17.7329 8.84313C17.2746 8.10859 17.3748 7.41727 18.0337 6.74035C18.4061 7.40287 18.5207 8.26702 18.3632 9.07357C18.3488 9.17439 18.3202 9.2608 18.2915 9.36162C18.2915 9.36162 18.2915 9.37603 18.2772 9.37603C18.0767 9.30401 17.9048 9.11678 17.7329 8.84313ZM19.1939 11.8245C19.1223 11.9829 18.9075 11.9829 18.7356 11.9541C18.4634 11.9109 18.3059 11.8389 18.2199 11.7525C18.3345 11.6084 18.4778 11.4788 18.6496 11.378C18.9218 11.2052 19.0364 11.306 19.0793 11.3492C19.2083 11.45 19.2656 11.6804 19.1939 11.8245ZM20.6406 11.7525C20.3971 11.7237 20.1823 11.594 19.9961 11.3636C19.7096 10.9747 19.5807 10.3986 19.5807 9.92332C19.7382 9.82251 19.8815 9.69288 20.0104 9.53445C20.0963 9.43363 20.1679 9.31841 20.2252 9.20319C20.3255 9.20319 20.4401 9.2176 20.5404 9.232C20.569 9.46244 20.612 9.67848 20.6549 9.89452C20.7982 10.5858 21.013 11.1043 21.3425 11.4644C21.1992 11.6228 20.9557 11.7813 20.6406 11.7525ZM21.7292 10.8019C21.5717 10.557 21.4571 10.2114 21.3568 9.7793C21.3425 9.72169 21.3282 9.64967 21.3282 9.59206C21.5144 9.73609 21.6719 9.93773 21.7435 10.2402C21.7865 10.413 21.7865 10.6146 21.7292 10.8019ZM23.004 11.2052C22.8178 11.2772 22.5743 11.3492 22.3308 11.2916C22.4884 10.9027 22.5457 10.4562 22.4454 10.0818C22.3022 9.52005 21.9154 9.04476 21.3568 8.77111C21.3138 8.75671 21.2709 8.72791 21.2279 8.7135C21.2279 8.49747 21.2422 8.29583 21.3138 8.10859C21.4714 8.1374 21.6433 8.1518 21.8008 8.1662C21.9441 8.84313 22.2162 9.47684 22.603 10.0097C22.8751 10.3986 23.2475 10.6291 23.7059 10.6867C23.5197 10.8883 23.2762 11.0899 23.004 11.2052ZM23.9064 9.96653C23.6056 9.95213 23.3764 9.82251 23.1902 9.57766C22.9467 9.232 22.7462 8.82872 22.6173 8.39665C22.9467 8.59828 23.2905 8.75671 23.6343 8.88634C23.9064 9.2464 24.0353 9.63527 24.021 9.96653C23.978 9.96653 23.935 9.96653 23.9064 9.96653ZM25.4104 9.232C25.2242 9.44804 24.9807 9.63527 24.7228 9.7649C24.7085 9.53445 24.6512 9.28961 24.551 9.05917C24.9234 9.05917 25.2958 9.00156 25.6252 8.87193C25.5679 8.98715 25.4963 9.11678 25.4104 9.232ZM25.6682 8.00778C25.2528 8.31023 24.6512 8.39665 24.0496 8.25262C24.0353 8.23822 24.0353 8.22381 24.021 8.22381C23.8778 8.05098 23.7202 7.90696 23.5483 7.76293C23.9923 7.50368 24.4221 7.11481 24.7515 6.65393C24.8947 6.74035 25.0236 6.84116 25.1526 6.97079C25.4104 7.24444 25.5966 7.61891 25.6682 8.00778ZM26.1839 7.28764C26.0549 6.97079 25.8687 6.69714 25.6539 6.4667C25.482 6.29386 25.3101 6.14984 25.1096 6.03462C25.2242 5.80417 25.3101 5.55933 25.3674 5.32889C25.4533 5.3865 25.5536 5.44411 25.6396 5.50172C26.0549 5.81858 26.2841 6.23625 26.2841 6.65393C26.2841 6.88437 26.2555 7.10041 26.1839 7.28764Z" fill="#256571"/>
<path fill-rule="evenodd" clip-rule="evenodd" d="M25.1669 30.2022C25.0809 28.834 25.0093 27.4225 24.6799 26.0542C24.4364 24.9885 23.9637 23.9083 23.3048 22.7993C22.6459 21.7191 21.8581 20.7109 20.7265 20.25C20.7265 20.1204 20.6836 20.0051 20.569 19.9475C19.6236 19.3858 18.5493 18.7089 17.9048 17.7439C17.6613 17.3695 17.4321 16.9662 17.1886 16.5629C16.4724 15.3099 15.7276 14.0137 14.3382 13.3943C11.3732 12.0981 7.13343 13.3223 5.25704 16.0156C4.65545 16.8798 4.36898 18.0464 4.11115 19.1698C4.01089 19.6163 3.8963 20.0484 3.78171 20.4372C3.69577 20.6965 3.60983 20.9701 3.52389 21.2294C3.15147 22.3384 2.75041 23.4762 2.865 24.6572C2.97959 25.9102 3.48091 27.0048 3.96792 28.0562C4.4406 29.0932 4.89895 30.0726 5.01354 31.1816C5.02786 31.3112 5.11381 31.3976 5.22839 31.4552C4.91328 33.0683 4.66977 34.6382 4.45492 36.0785C4.39763 36.4529 4.34033 36.8274 4.26871 37.1875C4.21142 37.5187 4.15412 37.85 4.09683 38.1813L4.06818 38.2821C3.99656 38.5557 3.88198 38.9734 4.18277 39.1894C4.49789 39.4055 4.88463 39.4919 5.25704 39.5351C5.14245 39.7943 4.99922 39.9816 4.71274 40.14C4.54086 40.2264 4.36898 40.284 4.18277 40.356C3.99656 40.4137 3.81036 40.4857 3.63847 40.5721C3.29471 40.7449 2.89365 40.8745 2.47826 41.0186C1.80505 41.249 1.1032 41.4795 0.544575 41.8971C0.315398 42.07 -0.200252 42.8045 0.100544 43.2654C0.301074 43.5822 0.702135 43.611 0.974284 43.6398L1.2894 43.6831C1.44696 43.7119 1.60452 43.7263 1.74776 43.7407C2.03423 43.7551 2.33503 43.7551 2.6215 43.7551H2.97959C3.25174 43.7551 3.52389 43.7551 3.81036 43.7551C4.22574 43.7407 4.6268 43.7407 5.04219 43.7551H5.05651C5.09948 43.7551 5.12813 43.7263 5.1711 43.7119C5.4146 43.9279 5.82999 43.9567 6.13078 43.9855C6.34564 43.9999 6.56049 43.9999 6.77534 43.9999C7.1764 43.9999 7.59179 43.9855 7.97853 43.9567C8.2077 43.9423 8.45121 43.9279 8.68038 43.9279C9.22468 43.9135 9.76898 43.8703 10.3133 43.8415C11.1584 43.7839 12.0178 43.7263 12.8486 43.7407L13.0777 43.7551C13.8369 43.7839 14.5531 43.7839 14.9112 43.4094C15.1403 43.179 15.2406 42.7901 15.2692 42.3436C15.3552 42.3868 15.4411 42.43 15.5271 42.4732C16.2289 42.8477 16.9451 43.2222 17.6899 43.395C17.9334 43.4526 18.1913 43.4814 18.4634 43.4814C18.9504 43.4814 19.4661 43.3806 19.996 43.1934C20.569 42.9773 21.0417 42.6317 21.3997 42.358C21.7865 42.0556 22.03 41.7099 22.2878 41.321L22.3738 41.177C22.5743 40.8745 22.7748 40.5577 22.918 40.1976C22.9324 40.1976 22.9467 40.2264 22.961 40.2264C23.0326 40.2264 23.1043 40.1976 23.1759 40.1544C23.2475 40.1112 23.3191 40.068 23.3764 40.0392C23.5196 39.9672 23.6772 39.8808 23.8204 39.7367C24.6799 38.8582 24.9806 37.6916 25.1525 36.7698C25.482 34.9983 25.3674 33.1691 25.2528 31.5849C25.2241 31.1096 25.1955 30.6631 25.1669 30.2022ZM9.08144 25.4061C8.45121 25.0029 7.83529 24.614 7.20505 24.2539C6.58914 23.9083 5.54351 23.3178 4.61248 23.6778C4.66977 23.3754 4.81301 23.0729 5.05651 22.7993C5.51487 22.3096 6.15943 22.0503 6.73237 22.1367C7.01885 22.1799 7.27667 22.324 7.56314 22.468C7.70638 22.54 7.84961 22.6264 8.00717 22.684L8.30797 22.8137C8.82362 23.0441 9.32495 23.2601 9.82627 23.5194C10.0555 23.6346 10.2846 23.7642 10.5138 23.8939C11.0295 24.1819 11.5594 24.4844 12.1897 24.686C12.7196 24.8588 13.3642 25.0749 13.9801 24.9452C14.1806 24.902 14.3669 24.8156 14.5387 24.7292C14.8109 24.5996 15.0544 24.4844 15.2406 24.542C15.57 24.6428 15.8708 24.8876 16.186 25.1325C16.3292 25.2477 16.4867 25.3629 16.63 25.4781L16.7016 25.5358C16.7016 25.5502 16.6873 25.5502 16.6873 25.5646C16.6873 25.7086 16.7016 25.8526 16.7159 25.9966C16.7446 26.3423 16.7589 26.6736 16.7159 26.9904C16.7159 27.0048 16.7159 27.0048 16.7159 27.0192C15.4698 27.6097 14.1806 27.9698 12.9345 27.5233C11.6167 27.0192 10.3276 26.1983 9.08144 25.4061ZM5.74404 26.3711C5.34298 26.3279 5.04219 26.1839 4.8703 25.9534C4.72707 25.7662 4.69842 25.5213 4.75572 25.2189C4.79869 25.0173 4.8703 24.8012 4.99922 24.542C5.02786 24.47 5.02786 24.3835 5.01354 24.3115C5.54351 24.1963 6.18808 24.5132 6.86129 24.8876C7.4772 25.2333 8.07879 25.6222 8.69471 26.011C7.7207 26.2415 6.71805 26.4719 5.74404 26.3711ZM15.3695 21.9207C15.5127 21.8343 15.656 21.7479 15.7992 21.6614L15.8995 21.6038C16.2432 21.4022 16.4438 21.3014 16.7159 21.3446C17.4894 21.4886 18.3631 22.4104 18.7642 23.2169L18.8215 23.3178C18.8788 23.433 18.9504 23.5626 18.9934 23.6922C18.9791 23.6634 18.9504 23.649 18.9361 23.6346L18.6926 23.4042C18.6066 23.2745 18.3775 23.1737 18.2342 23.2169C18.091 23.2745 17.9907 23.433 17.9907 23.5914C18.0051 23.721 18.0337 23.865 18.0623 24.0091C18.0767 24.0667 18.091 24.1099 18.1053 24.1675C17.9334 23.9659 17.7186 23.7498 17.4751 23.6634C17.3318 23.6058 17.1743 23.649 17.074 23.7642C16.9594 23.8939 16.9451 24.0379 17.031 24.2107L17.074 24.4412C17.1027 24.5708 17.1313 24.7004 17.16 24.8156C17.1743 24.8732 17.1886 24.9452 17.2173 25.0173C17.2029 25.0029 17.1886 24.9885 17.1743 24.9885L17.0454 24.902C16.9021 24.8012 16.7732 24.7004 16.63 24.5852C16.2719 24.2971 15.9138 24.0091 15.4555 23.865C15.3409 23.8362 15.2406 23.8218 15.1403 23.8218C14.8109 23.8218 14.4958 23.9659 14.2379 24.0955C14.0804 24.1675 13.9371 24.2395 13.8226 24.2683C13.4072 24.3691 12.8629 24.1819 12.3759 24.0235C11.8459 23.8506 11.3732 23.577 10.8576 23.2889C10.8003 23.2601 10.7287 23.2169 10.6714 23.1881C11.7886 23.1593 12.9775 23.0297 14.0947 22.612C14.5531 22.4104 14.9684 22.1655 15.3695 21.9207ZM14.0517 14.0569C15.2263 14.5754 15.9138 15.7708 16.5727 16.923C16.8162 17.3407 17.0454 17.7583 17.3175 18.1472C17.4178 18.2912 17.5324 18.4209 17.647 18.5505C17.4751 18.4785 17.3032 18.4065 17.1313 18.3344C15.8279 17.7727 14.4958 17.1966 12.9345 17.139C12.734 17.139 12.5764 17.2831 12.5621 17.4847C12.5621 17.6863 12.7053 17.8448 12.9058 17.8592C13.7223 17.888 14.4814 18.0896 15.2263 18.3488C14.8968 18.32 14.5674 18.2912 14.2523 18.2624C13.3499 18.1904 12.4188 18.1184 11.5165 17.9312C11.3303 17.9024 11.1297 18.0176 11.1011 18.2192C11.0581 18.4209 11.187 18.6081 11.3875 18.6369C12.3329 18.8241 13.2783 18.8961 14.195 18.9682C15.1976 19.0546 16.1716 19.141 17.1027 19.3426C16.3722 19.4723 15.6417 19.6883 14.9541 19.9043C14.5674 20.0195 14.195 20.1492 13.8369 20.2356C13.6507 20.2788 13.5361 20.4804 13.5791 20.6677C13.622 20.8261 13.7653 20.9413 13.9228 20.9413C13.9515 20.9413 13.9801 20.9413 14.0088 20.9269C14.3669 20.8261 14.7679 20.7109 15.169 20.5813C16.4438 20.178 17.8618 19.7459 19.0936 20.0484C19.108 20.0484 19.108 20.0628 19.1223 20.0628C18.8358 20.1204 18.5637 20.1924 18.2915 20.2788C17.8905 20.394 17.518 20.5092 17.16 20.538C17.074 20.538 17.0024 20.5813 16.9451 20.6389C16.9021 20.6245 16.8735 20.6101 16.8305 20.6101C16.2862 20.5092 15.8852 20.7397 15.5271 20.9557L15.4984 20.9701C15.4125 20.8981 15.3265 20.8693 15.2119 20.8837L14.8825 20.9413C13.6364 21.1862 12.5621 21.3878 11.3303 20.9989C11.144 20.9413 10.9435 21.0421 10.8862 21.2294C10.8289 21.4166 10.9292 21.6182 11.1154 21.6759C11.6883 21.8631 12.247 21.9351 12.7769 21.9351C13.1637 21.9351 13.5361 21.9063 13.9085 21.8487C13.8799 21.8631 13.8655 21.8775 13.8369 21.8775C12.3472 22.4536 10.6857 22.4392 9.239 22.396C9.22468 22.396 9.21036 22.396 9.18171 22.396C8.9955 22.3528 8.79497 22.252 8.59444 22.1655L8.29365 22.0359C8.16473 21.9783 8.03582 21.9063 7.89259 21.8343C7.57747 21.6759 7.24802 21.503 6.87561 21.431C6.86129 21.2006 6.87561 20.9701 6.87561 20.7397C7.04749 20.8261 7.21938 20.9413 7.39126 21.0565C7.80664 21.3302 8.22203 21.6038 8.78065 21.6903C8.79497 21.6903 8.82362 21.6903 8.83794 21.6903C9.00983 21.6903 9.16739 21.5606 9.19603 21.3878C9.22468 21.1862 9.09577 20.9989 8.89524 20.9701C8.49418 20.8981 8.15041 20.6821 7.778 20.4372C7.50585 20.2644 7.21938 20.0916 6.88993 19.9619C6.90426 19.6163 6.91858 19.2706 6.96155 18.925C7.34829 19.0258 7.69206 19.1842 8.06447 19.3858C8.25068 19.4867 8.45121 19.6019 8.66606 19.7027C9.16739 19.9475 9.7833 20.0772 10.4708 20.0772C10.6714 20.0772 10.8289 19.9187 10.8289 19.7171C10.8289 19.5155 10.6714 19.357 10.4708 19.357C9.89789 19.357 9.39656 19.2562 8.98118 19.0546C8.78065 18.9538 8.59444 18.8529 8.42256 18.7521C8.0215 18.5217 7.59179 18.2912 7.07614 18.176C7.09046 18.032 7.10479 17.888 7.13343 17.7439C7.26235 17.7727 7.39126 17.8015 7.5345 17.8448C7.79232 17.9168 8.06447 18.0032 8.35094 18.032C8.53715 18.0608 8.72335 17.9168 8.752 17.7151C8.78065 17.5135 8.63741 17.3407 8.43688 17.3119C8.22203 17.2831 7.97853 17.2254 7.73503 17.1534C7.59179 17.1102 7.43423 17.067 7.27667 17.0382C7.31964 16.8222 7.36261 16.6061 7.40558 16.4045C7.64908 16.3757 7.92123 16.3901 8.19338 16.4045C8.55147 16.4189 8.90956 16.4333 9.26765 16.3757C9.46818 16.3469 9.59709 16.1596 9.56845 15.958C9.5398 15.7564 9.31062 15.6556 9.12442 15.6988C8.83794 15.742 8.52282 15.7276 8.19338 15.7132C7.99285 15.6988 7.778 15.6988 7.56314 15.7132C7.66341 15.3387 7.76367 14.9786 7.9642 14.705C7.99285 14.6762 7.97853 14.633 7.99285 14.6042C9.85492 13.5672 12.2613 13.2647 14.0517 14.0569ZM5.84431 16.4333C6.13078 16.0156 6.51752 15.6412 6.91858 15.3099C6.87561 15.4827 6.81831 15.6556 6.78967 15.814C6.56049 15.886 6.33131 15.9868 6.11646 16.1596C5.9589 16.2893 5.94457 16.5197 6.07349 16.6637C6.1451 16.7502 6.24537 16.7934 6.34564 16.7934C6.43158 16.7934 6.5032 16.7646 6.57481 16.7069C6.57481 16.7069 6.58914 16.7069 6.58914 16.6925C6.57481 16.7934 6.54617 16.8942 6.53184 16.9806C6.21672 16.995 5.9016 17.0814 5.60081 17.3407C5.44325 17.4703 5.32866 17.6287 5.21407 17.7727C5.37163 17.3119 5.57216 16.8222 5.84431 16.4333ZM4.59816 27.7682C4.11115 26.7168 3.6528 25.723 3.55253 24.5996C3.46659 23.577 3.82468 22.4968 4.18277 21.4742C4.28304 21.2006 4.36898 20.9269 4.45492 20.6533C4.58383 20.25 4.6841 19.8035 4.79869 19.3426C4.89895 18.925 4.99922 18.5217 5.11381 18.1184C5.12813 18.2048 5.1711 18.2912 5.24272 18.3488C5.30001 18.3921 5.38595 18.4209 5.45757 18.4209C5.57216 18.4209 5.67243 18.3777 5.74404 18.2768C5.82999 18.1472 5.94457 18.0176 6.04484 17.9312C6.1451 17.8448 6.25969 17.7871 6.37428 17.7583C6.34564 17.9456 6.33131 18.1184 6.30267 18.3056C6.30267 18.3056 6.30266 18.32 6.28834 18.32C5.78701 18.5505 5.40028 18.9538 5.05651 19.3282L4.9276 19.4723C4.78436 19.6163 4.79869 19.8467 4.94192 19.9763C5.01354 20.0484 5.09948 20.0772 5.18542 20.0772C5.28569 20.0772 5.37163 20.034 5.44325 19.9619L5.58648 19.8179C5.78702 19.6019 5.98755 19.3858 6.2024 19.213C6.17375 19.4867 6.15943 19.7459 6.15943 20.0195C6.13078 20.0195 6.10213 20.0195 6.08781 20.0195C5.52919 20.3076 4.95625 20.6389 4.49789 21.1574C4.36898 21.3014 4.36898 21.5318 4.52654 21.6614C4.59816 21.7191 4.6841 21.7623 4.77004 21.7623C4.8703 21.7623 4.97057 21.7191 5.02786 21.647C5.34298 21.287 5.75837 21.0421 6.15943 20.8117C6.15943 21.0133 6.15943 21.2294 6.15943 21.431C5.57216 21.5174 4.98489 21.8199 4.54086 22.3096C3.99656 22.9001 3.76739 23.6346 3.92495 24.3259C3.93927 24.3979 3.99656 24.4412 4.03954 24.4844C4.05386 24.4988 4.03954 24.5132 4.05386 24.5276C4.05386 24.5276 4.06818 24.5276 4.06818 24.542C4.08251 24.5564 4.09683 24.5564 4.12548 24.5708C4.15412 24.5852 4.18277 24.5996 4.22574 24.614C4.16845 24.7724 4.09683 24.9452 4.06818 25.0749C3.96792 25.5646 4.05386 26.011 4.31168 26.3711C4.59816 26.76 5.08516 27.0192 5.68675 27.0768C5.87296 27.0912 6.05916 27.1056 6.24537 27.1056C6.2024 27.2785 6.15943 27.4369 6.11646 27.6097C6.11646 27.6097 6.11646 27.6097 6.11646 27.6241C5.9016 28.4307 5.70107 29.2372 5.52919 30.0582C5.28569 29.2516 4.94192 28.5027 4.59816 27.7682ZM4.75572 38.4837C4.77004 38.4117 4.78436 38.3397 4.79869 38.3109C4.84166 38.066 4.88463 37.8068 4.9276 37.5619C5.07084 37.5907 5.21407 37.6196 5.35731 37.6484C5.58648 37.6916 5.80134 37.7492 6.03052 37.8068C6.05916 37.8212 6.08781 37.8212 6.11646 37.8212C6.27402 37.8212 6.41725 37.7204 6.46023 37.5475C6.51752 37.3603 6.40293 37.1587 6.2024 37.1011C5.97322 37.0434 5.72972 36.9858 5.48622 36.9426C5.32866 36.9138 5.18542 36.885 5.02786 36.8418C5.07083 36.6258 5.09948 36.4097 5.14245 36.1793C5.14245 36.1649 5.14245 36.1649 5.14245 36.1505C5.84431 36.3377 6.56049 36.4817 7.2337 36.6114C7.26235 36.6114 7.27667 36.6114 7.30532 36.6114C7.4772 36.6114 7.62044 36.4961 7.66341 36.3089C7.69205 36.1073 7.56314 35.92 7.37694 35.8912C6.6894 35.7616 5.9589 35.6176 5.25704 35.4304C5.30001 35.1711 5.34298 34.9119 5.37163 34.6382C5.55784 34.6814 5.74404 34.7246 5.93025 34.7822C5.9589 34.7966 5.98755 34.7966 6.01619 34.7966C6.17375 34.7966 6.31699 34.6958 6.35996 34.523C6.41725 34.3358 6.30267 34.1341 6.10213 34.0765C5.88728 34.0189 5.67243 33.9613 5.4719 33.9181C5.51487 33.702 5.55784 33.4716 5.58648 33.2412C5.58648 33.2412 5.60081 33.2412 5.60081 33.2556C6.08781 33.3276 6.54617 33.4572 7.03317 33.5868L7.49152 33.7164C7.52017 33.7308 7.54882 33.7308 7.57747 33.7308C7.73503 33.7308 7.87826 33.63 7.92123 33.4572C7.9642 33.27 7.84961 33.0683 7.66341 33.0107L7.21938 32.8955C6.73237 32.7659 6.23105 32.6218 5.70107 32.5498C5.74404 32.3194 5.77269 32.1033 5.81566 31.8873C6.01619 31.9305 6.21672 31.9593 6.41725 32.0169C6.4459 32.0313 6.47455 32.0313 6.5032 32.0313C6.66076 32.0313 6.80399 31.9305 6.84696 31.7577C6.90426 31.5704 6.78967 31.3688 6.58914 31.3112C6.37428 31.2536 6.15943 31.2104 5.94457 31.1816C6.00187 30.9223 6.05916 30.6631 6.10213 30.3894C6.38861 30.4614 6.6894 30.5191 6.97587 30.5767C7.20505 30.6199 7.43423 30.6631 7.66341 30.7207C7.69205 30.7207 7.7207 30.7351 7.74935 30.7351C7.90691 30.7351 8.06447 30.6199 8.09312 30.4614C8.13609 30.2742 8.0215 30.0726 7.82097 30.0294C7.57747 29.9718 7.34829 29.9286 7.10479 29.8853C6.81832 29.8277 6.53184 29.7701 6.24537 29.6981C6.28834 29.5397 6.31699 29.3668 6.35996 29.2084C6.47455 29.2372 6.58914 29.2804 6.70373 29.2948C6.73237 29.2948 6.7467 29.2948 6.77534 29.2948C6.94723 29.2948 7.09046 29.1796 7.11911 29.0068C7.16208 28.8051 7.03317 28.6179 6.84696 28.5747C6.7467 28.5603 6.64643 28.5171 6.54617 28.4883C6.58914 28.3299 6.61778 28.1858 6.66076 28.0274C6.86129 28.0418 7.06182 28.0706 7.24802 28.0994C7.26235 28.0994 7.29099 28.0994 7.30532 28.0994C7.4772 28.0994 7.62044 27.9698 7.66341 27.797C7.69205 27.5953 7.56314 27.4081 7.37694 27.3793C7.26235 27.3937 7.07614 27.3793 6.90426 27.3649C6.9329 27.2785 6.94723 27.1921 6.97587 27.0912C6.97587 27.0768 6.96155 27.0624 6.97587 27.048C7.63476 26.976 8.29365 26.8464 8.93821 26.7024C9.15306 26.6592 9.35359 26.6015 9.55412 26.5583C10.0125 26.8464 10.4852 27.12 10.9722 27.3793C10.9005 27.869 10.8432 28.3587 10.7716 28.8484C10.4995 30.8935 10.2273 33.0107 9.69736 34.9983L9.56845 35.4736C9.33927 36.3377 9.09577 37.2163 8.96686 38.1524C8.95253 38.2245 8.93821 38.3109 8.90956 38.3973C8.86659 38.5989 8.83794 38.815 8.82362 39.0166C8.17906 38.9014 7.4772 38.887 6.78967 38.887C6.51752 38.887 6.25969 38.887 6.00187 38.8726H5.88728C5.48622 38.8582 5.02786 38.8438 4.69842 38.6853C4.72707 38.6133 4.74139 38.5269 4.75572 38.4837ZM3.78171 43.0205C3.50956 43.0205 3.25174 43.0349 2.97959 43.0205H2.60717C2.33503 43.0205 2.04855 43.0205 1.77641 43.0061C1.64749 43.0061 1.51858 42.9773 1.38967 42.9629L1.03158 42.9197C0.95996 42.9197 0.816724 42.9053 0.730782 42.8765C0.773753 42.7469 0.888342 42.5308 0.95996 42.4732C1.21778 42.286 1.51858 42.142 1.8337 42.0124C1.87667 42.0412 1.90532 42.07 1.96261 42.0844C2.3207 42.1132 2.69312 42.1276 3.06553 42.1276C3.63847 42.1276 4.21142 42.0988 4.78436 42.07C5.02786 42.0556 5.27137 42.0556 5.50054 42.0412C5.27137 42.286 5.11381 42.5885 5.02786 42.9917C5.02786 43.0061 5.02786 43.0205 5.01354 43.0205C4.59816 43.0061 4.19709 43.0061 3.78171 43.0205ZM13.0921 43.0205L12.8486 43.0061C11.9891 42.9917 11.1011 43.0493 10.256 43.1069C9.71168 43.1358 9.18171 43.179 8.65174 43.1934C8.42256 43.2078 8.17906 43.2078 7.93556 43.2222C7.34829 43.251 6.73237 43.2798 6.10213 43.2366C5.91593 43.2366 5.78702 43.2222 5.70107 43.2078V43.1934C5.70107 43.179 5.72972 43.0925 5.72972 43.0925C5.81566 42.7037 5.97322 42.4876 6.31699 42.3004C6.33131 42.286 6.35996 42.286 6.37428 42.2716C6.37428 42.2716 6.37428 42.2716 6.38861 42.2716C6.78967 42.358 7.19073 42.3724 7.59179 42.3724C7.83529 42.3724 8.07879 42.358 8.30797 42.358C9.32495 42.3292 10.3706 42.3148 11.4162 42.286C12.4475 42.2572 13.5218 42.214 14.5674 42.2428C14.5387 42.6605 14.4671 42.8333 14.3955 42.8909C14.2236 43.0781 13.3785 43.0349 13.0921 43.0205ZM22.2878 39.852C22.1732 40.1688 21.987 40.4569 21.7865 40.7593L21.6862 40.9033C21.457 41.249 21.2565 41.5371 20.9557 41.7675C20.6263 42.0268 20.2109 42.3292 19.7382 42.502C19.0507 42.7469 18.4061 42.8189 17.8332 42.6893C17.1743 42.5452 16.5011 42.1852 15.8565 41.8395C15.656 41.7387 15.4698 41.6379 15.2692 41.5371C15.2549 41.3642 15.2549 41.1914 15.2406 41.033C15.2406 41.0186 15.2263 41.0042 15.2119 40.9898C15.2836 40.961 15.3552 40.9178 15.4125 40.8601C15.9854 40.2552 16.0141 39.0742 16.0284 38.1236C16.0284 37.8356 16.0427 37.5763 16.057 37.3747C16.2576 35.4304 16.6443 33.342 17.2745 30.8071C17.3175 30.6199 17.2029 30.4182 17.0167 30.375C16.8162 30.3174 16.63 30.447 16.587 30.6343C15.9425 33.1979 15.5414 35.3295 15.3552 37.3171C15.3265 37.5475 15.3265 37.8212 15.3265 38.1236C15.3122 38.8726 15.2979 39.8952 14.9541 40.3272C14.8395 40.3272 14.6104 40.2696 14.4958 40.2408C14.3525 40.1976 14.2236 40.1688 14.1377 40.1688C13.4215 40.0968 12.7483 39.9528 12.0321 39.7943C11.5451 39.6791 11.0438 39.5783 10.5425 39.4919L10.4135 39.4775C10.213 39.4487 9.59709 39.3623 9.5398 39.175C9.51115 39.0742 9.58277 38.7574 9.62574 38.5989C9.65439 38.4837 9.68304 38.3685 9.68304 38.2821C9.79763 37.4035 10.0268 36.5826 10.2703 35.704L10.3992 35.2287C10.9435 33.1979 11.23 31.052 11.4878 28.978C11.5451 28.5747 11.5881 28.1714 11.6454 27.7682C12.0035 27.941 12.3616 28.0994 12.7196 28.229C13.1923 28.4019 13.665 28.4739 14.1234 28.4739C15.4984 28.4739 16.8448 27.8402 18.048 27.1921C18.3202 28.013 18.6353 28.8195 18.9647 29.5973C19.0936 29.9286 19.2369 30.2454 19.3515 30.5623C19.6809 31.3832 19.9531 32.2474 20.2109 33.0827L20.3112 33.3852C20.6119 34.3214 21.013 35.5456 21.5 36.6978C21.586 36.885 21.6719 37.0867 21.7578 37.2883C22.1732 38.1236 22.5743 39.0166 22.2878 39.852Z" fill="#256571"/>
<path fill-rule="evenodd" clip-rule="evenodd" d="M8.47978 29.5541C8.63733 29.5541 8.78057 29.4389 8.82354 29.2804C8.86651 29.0932 8.75192 28.8916 8.56572 28.8483C8.4368 28.8051 8.30789 28.7907 8.16466 28.7619C8.05007 28.7475 7.9498 28.7187 7.83521 28.7043C7.63468 28.6611 7.44848 28.7763 7.4055 28.9636C7.36253 29.1508 7.47712 29.3524 7.66333 29.3956C7.79224 29.4245 7.92115 29.4533 8.05007 29.4677C8.16466 29.4821 8.27924 29.5109 8.39383 29.5397C8.42248 29.5541 8.45113 29.5541 8.47978 29.5541Z" fill="#256571"/>
<path fill-rule="evenodd" clip-rule="evenodd" d="M8.19336 32.4922C8.35092 32.4922 8.49415 32.377 8.53713 32.2186C8.5801 32.0313 8.46551 31.8297 8.2793 31.7865C8.06445 31.7289 7.84959 31.6857 7.63474 31.628L7.5488 31.6136C7.36259 31.5704 7.16206 31.6857 7.11909 31.8873C7.07612 32.0745 7.19071 32.2762 7.39124 32.3194L7.47718 32.3338C7.69203 32.377 7.89256 32.4346 8.10742 32.4778C8.13606 32.4922 8.16471 32.4922 8.19336 32.4922Z" fill="#256571"/>
<path fill-rule="evenodd" clip-rule="evenodd" d="M7.97848 35.488C8.12172 35.488 8.26495 35.3871 8.32225 35.2431C8.37954 35.0559 8.27928 34.8542 8.09307 34.7822C7.86389 34.7102 7.63471 34.6526 7.40554 34.595L7.19068 34.5374C6.99015 34.4942 6.80394 34.6094 6.76097 34.7966C6.718 34.9839 6.83259 35.1855 7.0188 35.2287L7.23365 35.2863C7.44851 35.3439 7.64904 35.3871 7.86389 35.4592C7.90686 35.488 7.94983 35.488 7.97848 35.488Z" fill="#256571"/>
<path fill-rule="evenodd" clip-rule="evenodd" d="M7.16215 37.9364L7.4343 37.9652C7.59186 37.9796 7.74942 38.0084 7.90698 38.0228C7.9213 38.0228 7.93562 38.0228 7.96427 38.0228C8.13615 38.0228 8.29371 37.8932 8.32236 37.7204C8.35101 37.5187 8.2221 37.3459 8.02157 37.3171C7.86401 37.2883 7.69212 37.2739 7.52024 37.2595L7.24809 37.2307C7.04756 37.2019 6.87568 37.3459 6.84703 37.5475C6.83271 37.7348 6.96162 37.9076 7.16215 37.9364Z" fill="#256571"/>
</svg>
