<svg width="43" height="46" viewBox="0 0 43 46" fill="none" xmlns="http://www.w3.org/2000/svg">
<path d="M42.8532 32.7677C41.8337 21.9607 34.373 17.0676 34.0655 16.8731C33.0459 16.225 30.6345 14.3294 29.3398 13.3086L29.0485 13.0818C28.207 12.4175 27.0094 10.3274 26.4268 9.16081C26.4268 9.1122 26.4429 9.0636 26.4268 9.01499C24.6304 4.07327 21.5555 1.56191 21.4098 1.44849C18.2378 -0.998069 14.3537 0.298117 13.0267 0.73558C12.0071 1.07583 11.1008 1.41608 10.7771 1.52949C8.86743 1.07583 7.36235 1.18925 6.31041 1.85355C5.32321 2.46924 5.12899 3.36036 5.11281 3.44137C4.91861 4.93199 5.20992 6.08236 5.95437 6.86007C7.1196 8.07525 8.96454 7.92943 9.01309 7.91323C9.22348 7.91323 9.45006 7.88083 9.67663 7.86462C9.85465 8.20487 10.0327 8.54512 10.2269 8.90157C10.8418 10.0357 11.4892 11.2023 11.8614 12.3851C9.12638 11.5426 6.06766 13.2276 5.90582 13.3248C1.60095 16.3709 2.45869 20.389 2.49106 20.4701C2.52343 21.5394 2.47488 21.9121 1.18018 23.7753C-0.0335965 25.5252 0.775581 27.1454 1.26109 28.1176C1.35819 28.312 1.43912 28.474 1.50385 28.6361C1.84371 29.4948 2.0541 30.0619 1.11545 31.2608C-0.0497817 32.7514 0.0149438 33.9666 0.0311275 33.9666C-0.389649 37.6446 3.59155 39.7347 3.76957 39.8319C3.78576 39.8319 3.78575 39.8319 3.80193 39.8481C5.08045 41.3549 8.02588 43.8339 13.9167 44.6764C14.111 44.6926 16.8784 45.0166 20.196 45.0166C22.7692 45.0166 25.6823 44.8222 27.9642 44.1579C28.0937 44.1255 28.1584 44.0283 28.207 43.9149C28.6763 43.9473 29.1294 43.9635 29.615 43.9635C29.8253 43.9635 30.0195 43.9635 30.2299 43.9635C31.3466 43.9473 32.9488 43.8663 34.4377 43.4288C34.4862 43.4288 34.5348 43.4126 34.5834 43.3964C34.6157 43.3802 34.6319 43.364 34.6643 43.364C34.7128 43.3478 34.7614 43.3478 34.8261 43.3154C34.8585 43.2992 34.8585 43.283 34.8908 43.2668C43.7595 39.6699 42.8532 32.8163 42.8532 32.7677ZM28.8381 13.9405C29.1942 14.216 29.5988 14.54 30.0195 14.8803C29.356 15.739 26.6857 18.0883 24.7113 19.7572L24.6627 19.6437C24.6465 19.6113 24.6627 19.5789 24.6466 19.5465L24.5333 19.3683L23.5784 17.2458C25.569 16.3871 27.6405 14.1187 28.2393 13.4382C28.3364 13.5354 28.4335 13.6489 28.5306 13.7137L28.8381 13.9405ZM16.0206 32.3788C15.1629 32.1358 14.3213 31.4553 13.8197 30.5803C13.4636 29.9646 13.2694 29.3004 13.1399 28.6199C13.3341 28.5874 13.5122 28.5388 13.7064 28.4902C13.6416 28.5064 13.5607 28.5226 13.5122 28.5712C13.3503 28.7333 13.3665 28.9925 13.5283 29.1383C13.7711 29.3814 14.0624 29.4948 14.3375 29.4948C14.4023 29.4948 14.467 29.4948 14.5156 29.4786C14.8878 29.4138 15.2114 29.1221 15.4056 28.7009C15.5028 28.4902 15.4057 28.2634 15.2115 28.1662C15.0172 28.069 14.7745 28.1662 14.6774 28.3606C14.5965 28.5388 14.4832 28.6685 14.3699 28.6847C14.2728 28.7009 14.1595 28.6199 14.0786 28.555C13.9977 28.474 13.9006 28.4578 13.8035 28.4416C15.2924 27.988 16.6032 27.032 17.3801 25.8006L18.9661 26.627C19.1117 26.7728 19.2412 26.9348 19.3545 27.113C19.84 27.9231 20.3093 29.1545 19.8562 30.4669C19.3707 31.9251 17.5743 32.8001 16.0206 32.3788ZM21.1509 16.5491L22.3646 17.1972L21.4422 19.1577L20.1798 17.586C20.4873 17.2944 20.8272 16.9379 21.1509 16.5491ZM19.5001 18.0559L21.1994 20.1622C21.2803 20.2594 21.3936 20.308 21.5069 20.308C21.5231 20.308 21.5393 20.308 21.5555 20.308C21.6687 20.2918 21.7497 20.227 21.8306 20.146L21.9439 20.3404L21.2965 26.1247C21.1994 26.0599 21.0861 25.9951 20.9567 25.9627C20.633 25.8654 20.3093 25.8817 20.018 26.0113C19.8238 25.266 19.4678 24.6179 18.9499 24.067C18.9661 24.0184 18.9984 24.0022 18.9984 23.9536C18.9661 22.0903 18.9661 20.2108 18.9661 18.3476C18.9661 18.3314 18.9499 18.3313 18.9499 18.3151C19.1441 18.2503 19.3221 18.1693 19.5001 18.0559ZM8.7056 26.1085C8.68941 26.0275 8.64087 25.9465 8.55995 25.8816C7.89642 25.3794 7.58893 23.9212 7.52419 23.4027C7.50801 23.2569 7.4109 23.1273 7.28143 23.0786C7.15196 23.03 6.99013 23.0462 6.87684 23.1272C6.60172 23.3379 6.37515 23.4027 6.19713 23.3379C5.80872 23.2083 5.53359 22.544 5.46885 22.3495C5.40412 22.0255 5.43649 21.7501 5.50123 21.5232C5.50123 21.5718 5.46886 21.6042 5.48504 21.6366C5.53359 21.8473 5.74399 21.9931 5.97056 21.9445C6.08384 21.9283 6.16476 21.9445 6.24568 21.9607C6.19713 21.9769 6.13239 21.9931 6.08384 21.9931C5.87345 22.0579 5.74398 22.2685 5.80871 22.4954C5.85726 22.6736 6.01911 22.787 6.19713 22.787C6.2295 22.787 6.26186 22.787 6.31041 22.7708C6.48843 22.7222 6.66645 22.6736 6.8121 22.6898C6.86066 22.6898 6.90921 22.6574 6.94158 22.6574C6.97394 22.7222 6.99012 22.7708 7.02249 22.8194C7.08722 22.9814 7.23288 23.0948 7.41091 23.0948C7.45946 23.0948 7.508 23.0948 7.54037 23.0786C7.75075 22.9976 7.86404 22.7708 7.78312 22.5602C7.39472 21.4746 6.65027 20.9399 5.77635 21.1506C5.69543 21.1668 5.63069 21.2316 5.58214 21.2964C5.77634 20.9075 6.06766 20.7131 6.06766 20.7131C6.99013 20.2594 7.78313 21.4908 7.8155 21.5394C7.89642 21.6852 8.07443 21.75 8.23627 21.7176C8.3981 21.6852 8.52758 21.5556 8.55995 21.4098L9.35295 17.5698C9.82227 17.7805 10.3402 17.9425 10.8742 18.0721C10.2916 18.2665 9.77372 18.5906 9.40149 18.8822C9.22347 19.0118 9.19111 19.2711 9.32058 19.4493C9.4015 19.5465 9.51478 19.6113 9.64425 19.6113C9.72517 19.6113 9.82228 19.5789 9.88701 19.5303C10.502 19.0605 11.1655 18.7688 11.7158 18.7202C11.91 18.704 12.0556 18.5258 12.0718 18.3314C13.059 18.4934 14.03 18.5582 14.8878 18.5906C15.3085 18.8822 15.6808 19.1415 15.9074 19.5627C15.9883 19.6924 16.1177 19.7734 16.2634 19.7734C16.3281 19.7734 16.3929 19.7572 16.4576 19.7248C16.6518 19.6113 16.7327 19.3683 16.6194 19.1739C16.49 18.947 16.3443 18.7688 16.1825 18.5906C16.409 18.5906 16.6033 18.5744 16.7813 18.5744C17.1697 21.3774 16.1339 23.9374 15.9883 24.2614C13.8358 27.6477 11.8938 27.2913 11.8291 27.2913C10.324 27.1454 9.35294 26.6594 8.7056 26.1085ZM18.1731 18.4772C18.1731 20.0974 18.1893 21.7176 18.2054 23.3379C18.0112 23.2083 17.8008 23.111 17.5581 23.03C17.461 22.9814 17.3801 22.9166 17.283 22.8842C17.5743 21.75 17.8008 20.1946 17.5743 18.542C17.6552 18.542 17.7199 18.4934 17.7685 18.4448C17.8979 18.4448 18.0274 18.4772 18.1731 18.4772C18.1569 18.4772 18.1569 18.4772 18.1731 18.4772ZM8.28483 27.6801L8.49521 26.9834C9.23966 27.5181 10.243 27.9394 11.6672 28.1014C11.6834 28.1014 11.8129 28.1338 12.0394 28.1338C12.088 28.1338 12.1689 28.1338 12.2336 28.1176C12.266 28.5226 12.3469 28.8953 12.444 29.2679C11.0037 29.4624 9.4986 28.9277 8.23627 27.7773C8.25245 27.7449 8.26864 27.7125 8.28483 27.6801ZM20.2122 26.8376C20.4064 26.6756 20.6006 26.708 20.7139 26.7404C20.9243 26.8052 21.1185 27.0158 21.1671 27.2913L21.1185 27.7449C21.07 27.8583 21.0052 27.9555 20.9243 28.0204C20.8596 28.069 20.7786 28.0852 20.6977 28.0528C20.6815 28.0528 20.6492 28.0528 20.633 28.0528C20.5197 27.6801 20.3741 27.3075 20.1798 26.951C20.1798 26.9024 20.2122 26.87 20.2122 26.8376ZM20.811 28.8791C20.8757 28.8791 20.9243 28.8629 20.989 28.8467L20.8434 30.1429C20.811 30.1591 20.7625 30.1753 20.7301 30.2077C20.8272 29.7702 20.8757 29.3328 20.811 28.8791ZM10.5505 7.75121C12.2822 7.45956 14.0786 6.89248 14.5156 6.74666C15.26 6.92488 16.3281 7.97804 17.1211 8.73955C18.1083 9.69549 18.6909 10.2788 19.225 10.0681C19.4839 9.95473 19.6296 9.69549 19.6296 9.30663C19.662 8.18867 19.9371 7.42716 20.4873 7.0059C21.0214 6.58464 21.7011 6.64944 21.9439 6.68185C22.4456 7.20032 22.2675 8.75575 22.0248 9.63068C21.9762 9.8251 22.0572 10.0195 22.2352 10.1005C22.397 10.1816 23.2062 10.5542 23.7564 10.5542C23.7726 10.5542 23.7888 10.5542 23.805 10.5542C24.2096 10.538 25.1644 10.0519 25.7794 9.7279C26.2002 10.5218 26.9446 11.8342 27.6891 12.8063C27.2521 13.3248 24.9379 15.9172 22.9473 16.5977L21.6364 15.901C22.1866 15.1557 22.7207 14.3294 23.2548 13.4544C23.368 13.26 23.3033 13.017 23.1253 12.9036C22.9311 12.7901 22.6883 12.8549 22.575 13.0332C20.455 16.5491 18.9661 17.9587 17.7847 17.6022C17.283 17.4564 16.7327 17.0838 16.231 16.6787C16.7165 16.0954 17.1049 15.4149 17.3639 14.5886C17.4286 14.378 17.3153 14.1511 17.1049 14.0863C16.8946 14.0215 16.668 14.1349 16.6033 14.3456C16.3767 15.0747 16.053 15.658 15.6322 16.1602C14.9687 15.5607 14.4994 14.9937 14.4832 14.9775C14.4184 14.8964 14.3052 14.8478 14.2081 14.8316L12.5411 14.7344L12.7839 12.5957C12.7839 12.5471 12.7839 12.4985 12.7677 12.4337C12.3793 11.0565 11.6672 9.74409 10.9713 8.48031C10.8095 8.25348 10.68 8.01045 10.5505 7.75121ZM4.36836 39.2C4.12561 33.999 6.71501 29.8512 7.76695 28.393C8.99691 29.4948 10.4211 30.1267 11.8452 30.1267C12.1365 30.1267 12.4117 30.1105 12.703 30.0619C12.8324 30.3697 12.9295 30.6775 13.1076 30.9854C13.7225 32.0548 14.7259 32.8649 15.7941 33.1565C16.053 33.2375 16.3281 33.2537 16.6033 33.2699C16.6033 33.3347 16.6033 33.3996 16.6033 33.4482C15.0496 33.2699 13.5445 32.7839 12.2013 32.2816C12.1527 32.2654 12.1204 32.2816 12.0718 32.2816C11.9747 32.2168 11.8776 32.2006 11.7643 32.2168C10.8257 31.8117 9.93556 31.1312 9.33676 30.3373C9.20729 30.1591 8.94835 30.1267 8.77033 30.2563C8.68941 30.3211 8.65705 30.4021 8.62468 30.4993C8.6085 30.4669 8.59232 30.4507 8.57613 30.4183C8.46285 30.2239 8.2039 30.1753 8.02588 30.2887C7.84786 30.4021 7.79931 30.6289 7.89641 30.8072C7.68602 30.8558 7.55655 31.0664 7.6051 31.277C8.15535 33.9504 10.2916 35.5059 12.2984 36.6724C13.1399 37.1585 14.1433 37.6608 15.26 38.0496C14.9687 38.2279 14.6936 38.4223 14.4184 38.6005C14.2242 38.7301 14.03 38.8597 13.852 38.9732L13.5769 39.1514C11.6348 40.399 9.80609 41.5655 7.508 41.7276C5.922 40.8364 4.93479 39.8805 4.36836 39.2ZM8.62468 31.9251C8.86744 32.2492 9.14255 32.5408 9.45004 32.7677C9.53096 32.8325 9.61188 32.8487 9.6928 32.8487C9.80609 32.8487 9.93556 32.8001 10.0165 32.6866C10.146 32.5084 10.1136 32.2492 9.95175 32.1196C9.77373 31.9899 9.61188 31.8117 9.45004 31.6173C9.93556 32.071 10.4696 32.4436 11.0522 32.7515C10.6476 33.2051 10.4049 33.7398 10.2431 34.2097C9.54716 33.5778 8.96454 32.8325 8.62468 31.9251ZM11.2141 41.4683C11.2788 42.0354 11.4245 42.7483 11.7643 43.4126C10.5991 43.121 9.5957 42.7645 8.72178 42.3595C9.61189 42.165 10.4373 41.8572 11.2141 41.4683ZM15.1467 43.9635C16.1663 43.4288 17.1373 42.8131 18.0274 42.0192C18.4482 41.6628 18.8042 41.3063 19.1279 40.9336C19.7914 41.6952 20.5197 42.4405 21.2156 43.1534C21.5393 43.4774 21.863 43.8177 22.1866 44.1417C19.3545 44.2713 16.6032 44.0931 15.1467 43.9635ZM30.2461 43.1372C29.0485 43.1534 27.9804 43.1372 26.8961 42.8941C26.6695 42.8455 26.4591 42.9751 26.4106 43.202C26.362 43.3964 26.4753 43.5584 26.6533 43.6395C25.4719 43.8825 24.1772 44.0283 22.8663 44.1093C22.9634 43.9635 22.9634 43.7691 22.834 43.6232C22.4941 43.2668 22.1543 42.9265 21.8144 42.5701C21.0861 41.841 20.3417 41.0795 19.662 40.2856C19.662 40.2856 19.6458 40.2856 19.6458 40.2694C19.7914 40.0425 19.9371 39.7995 20.0666 39.5402C20.1637 39.3458 20.0827 39.1028 19.8724 39.0056C19.6782 38.9084 19.4354 38.9894 19.3383 39.2C18.9337 40.0749 18.3187 40.7068 17.5257 41.4035C16.3767 42.4081 15.1144 43.2182 13.7711 43.7691C13.7549 43.7691 13.7549 43.7853 13.7549 43.7853C13.496 43.7367 13.2208 43.7043 12.9781 43.6395C12.266 42.9752 12.0718 41.7276 12.0233 41.0309C12.703 40.6582 13.3503 40.2369 14.03 39.7995L14.3052 39.6213C14.4994 39.4916 14.6936 39.362 14.8878 39.2324C15.5999 38.7625 16.3767 38.2441 17.1697 37.9848C16.8784 38.1954 16.6032 38.4061 16.3281 38.6167C16.1501 38.7625 16.1339 39.0056 16.2634 39.1838C16.3443 39.281 16.4576 39.3296 16.5709 39.3296C16.668 39.3296 16.7489 39.2972 16.8298 39.2324C17.6876 38.5357 18.3673 38.0496 19.2897 37.9524C19.5163 37.9362 19.6782 37.7418 19.662 37.5149C19.6458 37.2881 19.4354 37.1423 19.225 37.1423C18.9984 37.1585 18.7719 37.2233 18.5615 37.2881C18.5129 37.1261 18.3835 36.9965 18.2054 36.9965C17.461 36.9965 16.7813 37.2233 16.1339 37.5312C16.0854 37.4825 16.053 37.4339 15.9883 37.4177C14.7583 37.0613 13.6416 36.4618 12.7192 35.9271C12.1042 35.5707 11.4892 35.1656 10.9066 34.7119C10.9228 34.6795 10.9389 34.6795 10.9551 34.6471C11.1979 33.8208 11.5378 33.3023 11.9747 32.9945C13.7387 33.6426 15.7941 34.2907 17.8979 34.2907C18.0921 34.2907 18.2702 34.2907 18.4644 34.2745C18.6909 34.2583 18.8528 34.0639 18.8528 33.8532C18.8366 33.6264 18.6748 33.4482 18.432 33.4644C18.1083 33.4806 17.8008 33.4482 17.4772 33.432C17.4772 33.3509 17.4772 33.2699 17.4772 33.1889C18.9175 32.9783 20.2284 32.0386 20.6977 30.6776C20.7139 30.629 20.7139 30.5965 20.7301 30.5479C20.7463 30.6127 20.7786 30.6938 20.8272 30.7424C23.8536 33.1889 25.9898 35.5059 27.5596 38.0334C27.4301 38.1306 27.3654 38.2765 27.414 38.4385C27.4625 38.6167 27.6244 38.7301 27.8024 38.7301C27.8347 38.7301 27.8833 38.7301 27.9157 38.7139C29.0162 38.3737 30.0681 38.3089 31.0229 38.2927H31.2657C31.7674 38.2765 32.3014 38.2765 32.787 38.3575C32.8031 38.3575 32.8193 38.3413 32.8355 38.3413C33.758 39.6537 34.0331 41.8248 34.114 42.6349C32.6899 43.0562 31.2657 43.121 30.2461 43.1372ZM34.8423 42.4405C34.7452 41.4521 34.4215 39.3944 33.5152 38.0172C34.2111 37.3853 35.9104 35.6031 36.2179 32.9783C36.4768 30.7748 35.6838 28.5226 33.8551 26.3029C33.7094 26.1247 33.4667 26.1085 33.2887 26.2543C33.1106 26.4001 33.0944 26.6594 33.2401 26.8214C34.9232 28.8629 35.6515 30.9044 35.4249 32.8811C35.1012 35.7003 32.9326 37.4825 32.7546 37.6122C32.2367 37.5312 31.7026 37.5312 31.2009 37.5474H30.9582C30.1328 37.5636 29.2427 37.6122 28.3041 37.839C27.7053 36.8507 26.9932 35.9109 26.2002 34.9712C26.2487 34.8902 26.2811 34.8092 26.2649 34.7119L24.1934 20.5511L24.2096 20.5835C24.2581 20.6969 24.3714 20.7779 24.4847 20.8103C24.5171 20.8103 24.5495 20.8265 24.5818 20.8265C24.6789 20.8265 24.7598 20.7941 24.8408 20.7293C25.3586 20.2918 29.5988 16.7597 30.6831 15.3825C31.7997 16.2574 32.965 17.1324 33.6285 17.5536C33.936 17.7481 41.073 22.4306 42.0602 32.8649C42.0602 32.9297 42.8856 39.0704 34.8423 42.4405Z" fill="#195E6D"/>
<path d="M15.7622 10.0518C15.5357 9.98703 15.3253 10.1166 15.2605 10.3435C15.1634 10.7161 15.0178 10.9592 14.8074 11.0888C14.6132 11.2022 14.3057 11.2184 13.9335 11.105C13.7069 11.0402 13.4965 11.1698 13.4318 11.3804C13.3671 11.5911 13.4965 11.8179 13.7069 11.8827C13.9497 11.9475 14.1762 11.9799 14.3866 11.9799C14.6941 11.9799 14.9531 11.9151 15.1958 11.7855C15.5842 11.5587 15.8755 11.1374 16.0212 10.5541C16.1021 10.3273 15.9726 10.1166 15.7622 10.0518Z" fill="#195E6D"/>
<path d="M13.2532 10.2467C13.6255 9.8902 14.5965 9.08008 15.7779 9.37172C16.0045 9.42033 16.2149 9.29071 16.2634 9.08008C16.312 8.86945 16.1825 8.64261 15.9721 8.594C14.8554 8.31856 13.674 8.72362 12.6868 9.67956C12.525 9.84158 12.525 10.1008 12.6868 10.2467C12.7677 10.3277 12.8648 10.3601 12.9781 10.3601C13.0752 10.3601 13.1723 10.3277 13.2532 10.2467Z" fill="#195E6D"/>
<path d="M20.2117 9.25769C20.2602 9.27389 20.2926 9.27388 20.3412 9.27388C20.5192 9.27388 20.6648 9.16047 20.7296 8.99844C20.7619 8.88503 20.8105 8.78782 20.859 8.6744C21.0694 8.6906 21.2798 8.7068 21.474 8.75541C21.5064 8.75541 21.5388 8.77161 21.5711 8.77161C21.7491 8.77161 21.9272 8.64199 21.9595 8.46376C22.0081 8.25313 21.8786 8.02631 21.652 7.9777C21.5711 7.9615 21.4902 7.96149 21.4093 7.94529C21.5388 7.83188 21.6844 7.71846 21.8462 7.65365C22.0566 7.55644 22.1375 7.32961 22.0566 7.11898C21.9595 6.90835 21.7168 6.82733 21.5226 6.90835C20.8105 7.23239 20.2279 7.91289 19.9527 8.77161C19.888 8.96604 20.0013 9.19288 20.2117 9.25769Z" fill="#195E6D"/>
<path d="M12.4764 25.4766C13.0752 25.4766 13.6902 25.2336 14.1433 24.8123C14.3051 24.6665 14.3213 24.4073 14.1595 24.2452C14.0138 24.0832 13.7549 24.067 13.5931 24.229C13.2046 24.5855 12.6868 24.7475 12.2013 24.6503C11.7643 24.5693 11.4244 24.3101 11.2302 23.905C11.1331 23.7106 10.8904 23.6133 10.6962 23.7106C10.502 23.8078 10.4049 24.0508 10.502 24.2452C10.8095 24.8933 11.3597 25.3146 12.0556 25.4442C12.2012 25.4604 12.3469 25.4766 12.4764 25.4766Z" fill="#195E6D"/>
<path d="M11.4242 21.669C11.6346 21.669 11.8288 21.6204 12.023 21.5232C12.3305 21.3774 12.5247 21.1181 12.6865 20.8913C12.816 20.7131 12.7674 20.4538 12.5894 20.3242C12.4114 20.1946 12.1525 20.2432 12.023 20.4214C11.9097 20.5835 11.8126 20.7293 11.6669 20.7941C11.4727 20.8913 11.2947 20.8589 11.1976 20.8103C11.0034 20.7293 10.8578 20.551 10.7768 20.3404C10.7121 20.1298 10.4855 20.0164 10.2752 20.0812C10.0648 20.146 9.95149 20.3728 10.0162 20.5835C10.1619 21.0209 10.4855 21.3774 10.8901 21.5556C11.0682 21.6366 11.2462 21.669 11.4242 21.669Z" fill="#195E6D"/>
<path d="M15.1468 21.7985C15.2115 21.8147 15.2763 21.8147 15.341 21.8147C15.8427 21.8147 16.3444 21.5717 16.6681 21.1504C16.7975 20.9722 16.7813 20.713 16.6033 20.5833C16.4253 20.4537 16.1664 20.4699 16.0369 20.6481C15.8427 20.8912 15.519 21.037 15.2439 21.0046C15.0821 20.9884 14.8717 20.8912 14.7422 20.5995C14.6613 20.3889 14.4185 20.2917 14.2081 20.3889C13.9977 20.4699 13.9006 20.713 13.9977 20.9236C14.2243 21.4097 14.6451 21.7337 15.1468 21.7985Z" fill="#195E6D"/>
<path d="M12.6551 23.0953C12.4285 23.1277 12.2667 23.3221 12.299 23.5489C12.3152 23.7596 12.4933 23.9054 12.7036 23.9054C12.7198 23.9054 12.736 23.9054 12.7522 23.9054L12.914 23.8892C13.1244 23.873 13.351 23.8568 13.6099 23.7596C13.7394 23.7109 14.0145 23.5975 14.0631 23.3383C14.0954 23.1763 14.0631 23.0142 14.0145 22.7874C13.9983 22.5768 13.9822 22.3824 13.966 22.1717L13.9336 21.7991C13.9174 21.5722 13.707 21.4102 13.4966 21.4264C13.2701 21.4426 13.1082 21.637 13.1244 21.8639L13.1568 22.2203C13.173 22.431 13.1891 22.6578 13.2053 22.8684C13.2053 22.917 13.2215 22.9818 13.2377 23.0305C13.1244 23.0629 12.9788 23.0791 12.8331 23.0953H12.6551Z" fill="#195E6D"/>
<path d="M19.7587 37.9688C18.7877 38.2442 17.9461 38.8437 17.1855 39.3946L16.9427 39.5728C16.7647 39.7024 16.7161 39.9617 16.8456 40.1399C16.9265 40.2533 17.056 40.3019 17.1693 40.3019C17.2502 40.3019 17.3311 40.2695 17.412 40.2209L17.6548 40.0427C18.3831 39.5242 19.1275 38.9733 19.9691 38.7465C20.1794 38.6817 20.3089 38.4711 20.2442 38.2442C20.1956 38.0336 19.9691 37.904 19.7587 37.9688Z" fill="#195E6D"/>
<path d="M25.423 40.2692C25.4716 40.2692 25.504 40.2692 25.5525 40.253C27.1223 39.7507 28.7245 39.6373 30.2134 39.9451C30.4238 39.9938 30.6504 39.8479 30.6989 39.6373C30.7475 39.4105 30.6018 39.1998 30.3914 39.1512C28.7731 38.811 27.009 38.9244 25.3259 39.4753C25.1156 39.5401 25.0023 39.7669 25.067 39.9776C25.0994 40.1558 25.245 40.2692 25.423 40.2692Z" fill="#195E6D"/>
<path d="M29.9552 41.3059C30.1818 41.3545 30.3922 41.2087 30.4246 40.9818C30.4569 40.755 30.3275 40.5444 30.1009 40.512C28.5311 40.1879 26.7994 40.3338 25.1649 40.512C24.9383 40.5282 24.7764 40.7388 24.8088 40.9494C24.825 41.1601 25.003 41.3059 25.2134 41.3059C25.2296 41.3059 25.2458 41.3059 25.262 41.3059C26.848 41.1601 28.5149 41.0143 29.9552 41.3059Z" fill="#195E6D"/>
<path d="M30.9097 41.6948C30.3594 41.6948 29.8092 41.7434 29.259 41.7758C28.1423 41.8569 27.0903 41.9217 26.006 41.7434C25.7957 41.711 25.5853 41.8568 25.5367 42.0837C25.5043 42.3105 25.65 42.505 25.8766 42.5536C26.4106 42.6346 26.9447 42.667 27.4788 42.667C28.0937 42.667 28.7087 42.6346 29.3075 42.586C29.8416 42.5536 30.3756 42.5212 30.9097 42.505C31.1363 42.505 31.3143 42.3105 31.3143 42.0999C31.3143 41.8893 31.0877 41.6948 30.9097 41.6948Z" fill="#195E6D"/>
<path d="M18.383 27.1456C18.1726 27.0646 17.946 27.1618 17.8489 27.3725C17.7518 27.6155 17.5738 27.7775 17.3958 27.8099C17.2178 27.8423 17.0721 27.7127 16.975 27.5993C16.8294 27.4211 16.5704 27.4049 16.4086 27.5507C16.2306 27.6965 16.2144 27.9557 16.36 28.1178C16.6352 28.4418 16.975 28.62 17.3472 28.62C17.412 28.62 17.4605 28.62 17.5253 28.6038C17.9946 28.539 18.3992 28.1826 18.6096 27.6641C18.6905 27.4697 18.5934 27.2266 18.383 27.1456Z" fill="#195E6D"/>
<path d="M16.9759 29.3327C16.9112 29.1221 16.7008 28.9925 16.4742 29.0573L15.8269 29.2355C15.6165 29.3003 15.487 29.511 15.5356 29.7378C15.5841 29.916 15.746 30.0294 15.924 30.0294C15.9564 30.0294 15.9887 30.0294 16.0373 30.0132L16.6846 29.835C16.895 29.7702 17.0245 29.5434 16.9759 29.3327Z" fill="#195E6D"/>
<path d="M17.0568 30.6939C16.9435 30.6453 16.814 30.5967 16.7007 30.5319C16.5065 30.4185 16.2638 30.4833 16.1505 30.6777C16.0372 30.8721 16.1019 31.1152 16.2961 31.2286C16.4418 31.3096 16.5874 31.3744 16.7493 31.4392L16.9597 31.5364C17.0082 31.5688 17.0729 31.5688 17.1215 31.5688C17.2671 31.5688 17.4128 31.4878 17.4937 31.3258C17.5908 31.1314 17.4937 30.8883 17.2995 30.7911C17.2186 30.7587 17.1377 30.7263 17.0568 30.6939Z" fill="#195E6D"/>
</svg>
