<svg width="36" height="43" viewBox="0 0 36 43" fill="none" xmlns="http://www.w3.org/2000/svg">
<path d="M35.2047 17.3706C35.5428 14.02 33.8863 12.6155 33.2609 12.2094C33.244 12.0571 33.2271 11.9048 33.2102 11.7525C33.244 11.7186 33.2778 11.6848 33.2947 11.634C35.9316 3.68058 33.4131 0.313062 33.3116 0.160762C33.2102 0.0423068 33.0581 -0.0253759 32.906 0.00846854C28.7648 0.63459 27.1759 2.58065 26.6858 3.376C23.4066 2.1576 18.9612 3.12216 18.6908 3.18985C18.2682 3.35907 17.8625 3.5452 17.4907 3.73135C14.2116 0.380752 10.0873 0.702276 9.90135 0.719198C9.73233 0.73612 9.59711 0.83766 9.5464 0.98996C7.6871 6.16816 11.2029 10.6356 11.5409 11.0418C11.3888 11.9556 11.4226 12.6663 11.4564 13.0047C9.32667 15.6953 10.0197 18.5552 10.0535 18.6737C10.0535 18.6737 10.0535 18.6737 10.0535 18.6906C11.0846 22.2273 13.5354 24.2242 16.0878 25.3749C14.9891 26.441 11.8283 29.8931 11.3381 34.0729C10.1718 33.1591 8.71817 33.1083 8.65056 33.1083C2.1092 32.9052 0.0301645 40.351 0.0132618 40.4356C-0.0205437 40.5541 0.0132633 40.6895 0.0808742 40.8079C0.148485 40.9264 0.283702 40.9771 0.418924 40.9771L12.7748 41.1294C12.7748 41.1294 12.7748 41.1294 12.7917 41.1294C13.1129 41.4171 13.4847 41.6202 13.9411 41.7386L20.4825 41.8063C20.567 41.8063 20.6346 41.7555 20.7022 41.7217C20.9219 41.9586 21.1586 42.1617 21.429 42.2463C21.5304 42.2802 21.6319 42.2971 21.7164 42.2971C22.0544 42.2971 22.3249 42.094 22.5277 41.9417C22.646 41.8402 22.7812 41.7556 22.8658 41.7556C23.2376 41.7556 23.6095 41.8063 24.0151 41.874C24.5053 41.9417 25.0293 42.0094 25.6547 41.9925C26.0604 41.9925 26.652 41.9755 26.8379 41.5525C27.1421 40.8079 26.6182 39.928 26.1449 39.1495C26.0604 39.0142 25.9758 38.8788 25.9082 38.7434C26.1618 38.7265 26.3984 38.6757 26.6182 38.608C27.0576 39.708 27.5816 40.571 28.3084 41.3325C28.5789 41.6202 28.9845 42.0432 29.4747 42.0771C29.4916 42.0771 29.5085 42.0771 29.5423 42.0771C29.9311 42.0771 30.1677 41.8571 30.3199 41.7048C30.3706 41.654 30.4213 41.6032 30.4551 41.5863C30.5227 41.5525 30.7762 41.6032 30.8946 41.6202C30.9791 41.6371 31.0467 41.654 31.1143 41.654C31.8242 41.7386 32.4834 41.7217 33.2102 41.6033C33.43 41.5863 33.8863 41.5356 34.0046 41.0956C34.2413 40.2156 33.7173 39.3695 33.244 38.6249C33.0412 38.3034 32.8553 38.0157 32.7708 37.7619C32.1623 36.1881 32.0608 34.259 32.027 32.5837C32.027 32.533 31.9932 32.4991 31.9594 32.4483C32.5848 29.7915 32.382 26.7963 31.334 23.5303C34.4948 20.7382 35.1878 17.4383 35.2047 17.3706ZM31.9594 8.04652C30.9115 6.25276 29.5085 5.06822 28.6465 4.45902C29.0352 3.9852 30.0663 2.96986 31.9256 2.63142C32.1454 3.44368 32.6355 5.67741 31.9594 8.04652ZM32.7538 0.888431C33.1764 1.63301 34.3765 4.52669 32.8553 10.0772C32.7538 9.73873 32.6355 9.41722 32.5003 9.11263C32.5003 9.11263 32.5172 9.11261 32.5172 9.09569C33.8863 5.54202 32.6693 2.14066 32.6186 1.98836C32.551 1.80222 32.3651 1.70068 32.1623 1.7176C29.7114 2.03912 28.3929 3.40984 27.9366 3.9852C27.9197 3.9852 27.9028 3.96826 27.9028 3.96826C27.7675 3.88365 27.6154 3.79904 27.4633 3.73135C27.9366 3.03754 29.3564 1.48071 32.7538 0.888431ZM10.2563 1.5484C11.1691 1.53147 14.2116 1.73453 16.7132 4.1544C16.5272 4.25594 16.3413 4.35747 16.1723 4.47593C13.9918 2.42834 11.1184 2.59756 10.9831 2.59756C10.7972 2.61449 10.6451 2.73295 10.6113 2.91909C9.81685 5.94817 11.6423 8.13113 12.2677 8.75725C12.0649 9.1803 11.9297 9.58644 11.8114 9.97565C10.9155 8.65572 9.07312 5.27128 10.2563 1.5484ZM12.6734 7.9619C12.0818 7.28501 10.9155 5.64356 11.3381 3.44367C12.0649 3.4606 13.9411 3.64673 15.4455 4.96666C14.1778 5.91431 13.2819 6.94657 12.6734 7.9619ZM10.8648 18.4706C10.831 18.3352 10.2563 15.763 12.217 13.4109C12.3015 13.3093 12.3354 13.1909 12.3016 13.0555C12.2846 12.9878 11.3212 7.08196 18.9274 3.9852C18.9781 3.96828 24.4546 2.78372 27.4464 4.69593C27.4971 4.72977 32.1623 7.36962 32.3989 12.4801C32.3989 12.6324 32.5003 12.7678 32.6355 12.8355C32.72 12.8694 34.6808 13.8847 34.3427 17.2353C34.3089 17.4214 33.6497 20.4336 30.6748 22.9381C30.6748 22.9381 30.6748 22.9381 30.6579 22.9381C30.5565 22.9719 30.472 23.0565 30.4213 23.1411C28.8662 24.3934 26.7027 25.4933 23.7109 26.001C23.6433 26.0348 13.2312 26.5087 10.8648 18.4706ZM0.993623 40.1141C1.33168 39.1326 2.24443 37.0004 4.03612 35.5113C3.85019 36.0358 3.71497 36.6281 3.66426 37.2881C3.64735 37.525 3.81637 37.7281 4.05301 37.745C4.06992 37.745 4.06992 37.745 4.08682 37.745C4.30656 37.745 4.49249 37.5758 4.50939 37.3558C4.61081 36.2389 4.89815 35.3759 5.43904 34.6821C5.45594 34.6652 5.43904 34.6313 5.45594 34.6144C5.8278 34.4452 6.21657 34.2929 6.62223 34.1744C6.06444 34.9359 5.67568 35.9512 5.42214 37.2373C5.37143 37.4742 5.52355 37.6942 5.76019 37.7281C5.794 37.7281 5.8109 37.7281 5.84471 37.7281C6.04754 37.7281 6.21657 37.5927 6.26728 37.3896C6.57153 35.8666 7.0786 34.7836 7.80542 34.1236C7.85613 34.0729 7.85613 34.0221 7.88994 33.9713C8.05897 33.9544 8.22799 33.9375 8.41392 33.9375C8.49843 33.9375 8.56604 33.9375 8.65056 33.9375C8.65056 33.9375 8.78577 33.9375 8.98861 33.9713C8.38011 34.6651 7.97445 35.5282 7.61949 36.4251C7.53498 36.6451 7.63639 36.882 7.85613 36.9835C7.90683 37.0004 7.95755 37.0173 8.00826 37.0173C8.17728 37.0173 8.3294 36.9158 8.39701 36.7466C8.80268 35.7482 9.19145 34.8682 9.86755 34.2421C9.88446 34.2252 9.88446 34.2082 9.88446 34.1913C10.3577 34.3605 10.8648 34.6482 11.2536 35.1051C11.186 36.2558 11.1691 38.6419 12.0987 40.2326L0.993623 40.1141ZM32.5003 39.048C32.8553 39.6233 33.244 40.2326 33.1764 40.7233C33.1426 40.7233 33.1088 40.7233 33.0919 40.7402L32.9567 40.7571C32.3989 40.8587 31.8073 40.8756 31.1819 40.791L31.0129 40.7571C30.7086 40.7064 30.303 40.6218 29.9818 40.8418C29.8804 40.9095 29.7959 40.9941 29.6944 41.0787C29.5592 41.1971 29.5254 41.214 29.4916 41.231C29.3395 41.214 29.0183 40.8756 28.8662 40.7233C28.2239 40.0464 27.7337 39.2341 27.3281 38.185C27.8521 37.7788 28.2577 37.2373 28.6127 36.6789C28.7648 36.442 28.9 36.1881 29.0352 35.9343C29.069 36.1881 29.1367 36.442 29.3057 36.645C29.3902 36.7466 29.5254 36.8143 29.6606 36.7974C29.9818 36.7804 30.4044 36.1035 30.5565 35.8328C30.81 35.4097 31.0298 34.9528 31.2326 34.4959C31.3171 35.7143 31.5031 36.9496 31.9256 38.0496C32.0777 38.3542 32.2806 38.6926 32.5003 39.048ZM31.0636 32.533C30.81 33.5144 30.3875 34.4959 29.8466 35.3759C29.8466 35.3759 29.8297 35.3928 29.8297 35.4097C29.779 35.0713 29.6606 34.7159 29.3395 34.479C29.2212 34.3944 29.0014 34.3605 28.8831 34.4282C28.6127 34.5298 28.562 34.8005 28.5113 35.0205C28.4944 35.0713 28.4944 35.139 28.4775 35.1728C28.3084 35.5282 28.1225 35.8666 27.9197 36.2051C27.2605 37.2542 26.5843 37.8973 25.604 37.8804C25.1983 36.4251 25.08 34.7328 25.249 32.6683C25.2659 32.4314 25.0969 32.2283 24.8603 32.2114C24.6236 32.1776 24.4208 32.3637 24.4039 32.6006C24.2011 34.9697 24.3701 36.9327 24.911 38.5911C24.9955 38.8788 25.1983 39.2172 25.4181 39.5726C25.7054 40.0464 26.1111 40.7233 26.0773 41.1125C25.9928 41.1294 25.8406 41.1294 25.6378 41.1464C25.6378 41.1464 25.5364 41.1464 25.5195 41.1464C25.0293 41.1633 24.5898 41.0956 24.1166 41.0279C23.7109 40.9771 23.3052 40.9094 22.8658 40.9094H22.8489C22.477 40.9094 22.2234 41.1125 22.0037 41.2817C21.8178 41.4171 21.7164 41.4679 21.6826 41.451C21.1417 41.2648 20.6346 40.1479 20.4656 39.7757C19.4683 37.6096 19.5866 35.139 19.7049 32.7699V32.736C19.7218 32.4991 19.5359 32.313 19.2993 32.313C19.0626 32.313 18.8598 32.4991 18.8598 32.736C18.8429 33.0914 18.826 33.4468 18.8091 33.8021C17.7104 33.0406 16.4765 32.8545 15.0905 33.3452C14.8708 33.4129 14.7524 33.6667 14.8201 33.8867C14.8877 34.1067 15.1412 34.2421 15.3609 34.1575C16.6625 33.7175 17.7273 33.9037 18.7246 34.7836C18.7415 34.8005 18.7753 34.8005 18.7922 34.8005C18.7753 36.6281 18.9105 38.4388 19.7049 40.1479C19.8402 40.4356 19.9754 40.7064 20.1444 40.9771L14.5327 40.9264C14.7186 40.8587 14.8539 40.7064 14.837 40.5202C14.8201 40.2833 14.6172 40.0972 14.3806 40.131C13.958 40.1649 13.5354 40.1987 13.1129 40.2664C12.91 40.0295 12.741 39.7418 12.6058 39.4203C12.927 39.4034 13.2481 39.3695 13.5861 39.3357L13.4678 38.4896C13.0791 38.5234 12.7072 38.5572 12.3354 38.5742C12.2508 38.2019 12.1832 37.8296 12.1325 37.4404C12.1832 37.4573 12.2339 37.5081 12.3016 37.5081C12.3692 37.5081 12.4368 37.5081 12.5213 37.5081C12.7917 37.5081 13.0791 37.5081 13.3495 37.4911C13.5862 37.4911 13.7721 37.2881 13.7552 37.0512C13.7552 36.8143 13.5354 36.645 13.3157 36.645C12.9777 36.662 12.6396 36.662 12.3016 36.662C12.217 36.662 12.1494 36.7127 12.0818 36.7466C12.0649 36.4589 12.0649 36.1712 12.0649 35.9005C12.4368 35.8836 12.8086 35.8666 13.1805 35.8666C13.4171 35.8666 13.6031 35.6636 13.6031 35.4436C13.6031 35.2236 13.4171 35.0205 13.1805 35.0205C12.8255 35.0205 12.4706 35.0374 12.1156 35.0544C12.1325 34.8852 12.1494 34.699 12.1663 34.5636C12.1832 34.3605 12.217 34.1744 12.2339 33.9713C12.5382 33.9375 12.8593 33.9206 13.1636 33.9036C13.4002 33.8867 13.5862 33.7006 13.5693 33.4637C13.5524 33.2268 13.3833 33.0575 13.1298 33.0575C12.8762 33.0745 12.6396 33.0914 12.3861 33.1083C12.4537 32.8375 12.5213 32.5837 12.6058 32.3299C13.1636 32.2284 13.7214 32.1776 14.1439 32.1437C14.3806 32.1268 14.5496 31.9238 14.5327 31.6868C14.5158 31.4499 14.3637 31.2469 14.0763 31.2976C13.7552 31.3146 13.3495 31.3653 12.9269 31.4161C13.0284 31.1792 13.1298 30.9592 13.2312 30.7392C13.7383 30.7054 14.2454 30.6884 14.7017 30.7223H14.7186C14.9384 30.7223 15.1243 30.5361 15.1412 30.3161C15.1581 30.0792 14.9722 29.8931 14.7355 29.8762C14.3975 29.8592 14.0256 29.8762 13.6707 29.8931C13.789 29.6731 13.9073 29.47 14.0425 29.267C14.4482 29.25 14.9553 29.25 15.4793 29.2839C15.4962 29.2839 15.4962 29.2839 15.5131 29.2839C15.7328 29.2839 15.9187 29.1147 15.9356 28.8947C15.9525 28.6578 15.7835 28.4547 15.5469 28.4378C15.2257 28.4209 14.9215 28.4039 14.6172 28.4039C14.7524 28.2178 14.8708 28.0486 15.006 27.8793C15.0398 27.8793 15.0567 27.9132 15.0905 27.9132C15.6483 27.8963 16.1385 27.9132 16.6286 27.964C16.6455 27.964 16.6624 27.964 16.6794 27.964C16.8991 27.964 17.085 27.7947 17.1019 27.5917C17.1188 27.3548 16.9498 27.1517 16.7301 27.1179C16.392 27.084 16.0201 27.084 15.6652 27.084C15.8004 26.9317 15.9187 26.7963 16.0371 26.6609C16.4934 26.7117 16.9667 26.7625 17.4231 26.8302C17.44 26.8302 17.4569 26.8302 17.4738 26.8302C17.6766 26.8302 17.8625 26.6779 17.8963 26.4579C17.9302 26.221 17.7611 26.0179 17.5414 25.9841C17.2879 25.9502 17.0343 25.9164 16.7639 25.8995C16.8484 25.8148 16.916 25.7641 16.9498 25.7133C19.6542 26.7286 22.308 26.8471 23.3728 26.8471C23.6602 26.8471 23.8292 26.8471 23.8461 26.8302C26.7703 26.3225 28.9676 25.2733 30.5903 24.0549C31.5538 27.2025 31.7228 30.0454 31.0636 32.533Z" fill="#1E5B6A"/>
<path d="M18.6566 12.7676C18.6566 11.7184 17.896 10.8723 16.9663 10.8723C16.0367 10.8723 15.293 11.7184 15.293 12.7676C15.293 13.8168 16.0536 14.6629 16.9663 14.6629C17.9129 14.6798 18.6566 13.8168 18.6566 12.7676Z" fill="#1E5B6A"/>
<path d="M26.6522 13.9863C26.7198 13.9863 26.7705 13.9863 26.8381 13.9694C27.2945 13.9186 27.7002 13.6479 27.9706 13.2417C28.2242 12.8525 28.3256 12.3618 28.2749 11.871C28.1396 10.8388 27.2945 10.0604 26.3649 10.1957C25.4521 10.3142 24.8098 11.2449 24.9281 12.2941C25.0633 13.2756 25.8071 13.9863 26.6522 13.9863Z" fill="#1E5B6A"/>
<path d="M24.8598 22.2103C25.6711 20.8565 25.5359 19.0289 25.4176 17.5736L25.4007 17.3875C26.0092 17.2182 26.567 16.9306 27.0234 16.5413C27.2093 16.389 27.2262 16.1183 27.0741 15.9491C26.9219 15.7798 26.6515 15.746 26.4825 15.8983C25.5021 16.7275 23.9133 17.0828 22.747 16.2029C22.7977 15.7968 22.747 15.4076 22.6962 15.0353C22.6962 15.0014 22.6963 14.9845 22.6794 14.9507C22.9836 14.866 23.254 14.7307 23.4231 14.5445C23.5921 14.3584 23.6935 14.1384 23.6766 13.9184C23.6766 13.6984 23.5752 13.4784 23.3893 13.3092C23.0681 13.0046 22.5103 12.8523 21.9187 12.8523C20.9384 12.8861 20.2115 13.3769 20.2284 14.0199C20.2454 14.6291 20.9384 15.0691 21.8511 15.086C21.8511 15.1199 21.8511 15.1537 21.868 15.1876C21.9694 15.7798 22.0201 16.169 21.7666 16.5244C21.0905 17.5397 19.1636 17.049 18.2508 16.4906C18.048 16.3721 17.7945 16.4229 17.6761 16.6259C17.5578 16.829 17.6085 17.0829 17.8114 17.2013C18.3184 17.5228 19.1298 17.8105 19.9411 17.912C19.9242 17.9628 19.8904 17.9967 19.8904 18.0474V18.3182C19.9242 19.655 19.9411 21.1611 20.8031 22.3457C21.2933 23.0056 22.037 23.3948 22.8315 23.3948C22.8653 23.3948 22.8991 23.3948 22.9498 23.3948C23.7611 23.3271 24.4541 22.9041 24.8598 22.2103ZM22.9329 22.5149C22.392 22.5657 21.868 22.278 21.53 21.8042C20.8201 20.8396 20.8031 19.5366 20.7693 18.2674V17.9967C20.7693 17.9628 20.7355 17.9289 20.7355 17.8951C21.4285 17.8443 22.0539 17.5905 22.4765 16.9813C23.0512 17.3536 23.6935 17.5398 24.3358 17.5398C24.4203 17.5398 24.5048 17.5228 24.5894 17.5228V17.6074C24.6908 18.9612 24.8091 20.6365 24.133 21.7534C23.8794 22.2272 23.44 22.498 22.9329 22.5149Z" fill="#1E5B6A"/>
</svg>
