<svg width="35" height="42" viewBox="0 0 35 42" fill="none" xmlns="http://www.w3.org/2000/svg">
<path d="M11.9576 13.7407C11.7379 13.7237 11.5181 13.893 11.5012 14.113C11.4843 14.316 11.4505 14.5191 11.3829 14.6883C11.2646 14.9422 11.1125 15.0945 10.9096 15.1621C10.6223 15.2637 10.1997 15.1791 9.79404 14.9422C9.59121 14.8237 9.33767 14.8914 9.21935 15.0944C9.10104 15.2975 9.16864 15.5513 9.37147 15.6698C9.79404 15.9236 10.2335 16.0421 10.6392 16.0421C10.8251 16.0421 10.9941 16.0252 11.1632 15.9575C11.6026 15.8221 11.9407 15.4837 12.1604 15.0268C12.2787 14.7391 12.3295 14.4514 12.3464 14.1976C12.3633 13.9776 12.1942 13.7745 11.9576 13.7407Z" fill="#5D7A6D"/>
<path d="M15.3383 14.0789C15.3721 14.0789 15.4059 14.0789 15.4228 14.0789C15.8623 14.062 16.251 13.8589 16.5046 13.5374C16.7412 13.2328 16.8426 12.8097 16.8257 12.2682C16.8088 12.0313 16.6229 11.8621 16.3863 11.8621C16.1496 11.879 15.9806 12.0651 15.9806 12.3021C15.9975 12.6236 15.9468 12.8774 15.8454 13.0128C15.7101 13.1989 15.4904 13.2328 15.3721 13.2328C15.1355 13.2328 14.8819 13.1651 14.7467 12.9959C14.5777 12.8266 14.3072 12.8266 14.1551 12.9959C13.9861 13.1651 13.9861 13.4358 14.1551 13.5881C14.4593 13.8927 14.8988 14.0789 15.3383 14.0789Z" fill="#5D7A6D"/>
<path d="M14.6783 15.5344H14.6952C14.6445 15.619 14.5769 15.7375 14.5262 15.7882C14.4417 15.9067 14.3741 16.0082 14.3234 16.1098C14.2896 16.1605 14.1881 16.4651 14.2896 16.702C14.3403 16.8205 14.4417 16.9051 14.56 16.9559C14.7797 17.0235 15.0164 16.9559 15.253 16.9051C15.3037 16.8882 15.3882 16.8713 15.4558 16.8543C15.4389 16.922 15.422 16.9897 15.3882 17.1082C15.3037 17.3112 15.2023 17.4974 15.3206 17.7173C15.4728 17.9881 15.7601 17.9373 16.0136 17.9035C16.0812 17.9035 16.1658 17.8866 16.2503 17.8696C16.301 17.8527 16.3686 17.8527 16.4193 17.8358C16.3855 17.9543 16.2672 18.0896 16.115 18.2758C15.9967 18.4281 15.8615 18.5804 15.7601 18.7496C15.6418 18.9696 15.608 19.2573 15.6756 19.6296C15.7094 19.8326 15.8953 19.9849 16.0982 19.9849C16.1151 19.9849 16.1489 19.9849 16.1658 19.9849C16.4024 19.9511 16.5545 19.7311 16.5038 19.4942C16.47 19.2403 16.5038 19.1727 16.5038 19.1557C16.5545 19.0542 16.6559 18.9527 16.7574 18.8342C17.0109 18.5296 17.3659 18.1235 17.2475 17.5651C17.1968 17.3112 17.0616 17.1758 16.9602 17.1082C16.7404 16.9728 16.5038 16.9728 16.2841 17.0066C16.3179 16.7697 16.3179 16.5159 16.1658 16.2959C15.9798 15.9913 15.6587 15.9744 15.3713 16.0251C15.5235 15.7713 15.6249 15.5006 15.5573 15.2129C15.4728 14.8744 15.1178 14.7898 14.8304 14.7221C14.7628 14.7052 14.6952 14.6883 14.6952 14.7221C14.4586 14.4852 14.2219 14.1806 14.036 13.8422C13.9177 13.6391 13.6641 13.5714 13.4613 13.6899C13.2585 13.8083 13.1909 14.0622 13.3092 14.2652C13.5458 14.6714 13.8163 15.0267 14.1036 15.3144C14.2896 15.4329 14.4755 15.4836 14.6783 15.5344Z" fill="#5D7A6D"/>
<path d="M32.3082 22.1171C32.2406 22.0325 30.7701 20.1711 29.739 19.5619C30.0263 19.2065 30.2968 18.8173 30.5334 18.3435C30.5334 18.3435 30.5334 18.3266 30.5334 18.3096C30.6179 18.3266 30.6855 18.3435 30.787 18.3435C30.9391 18.3435 31.0912 18.3265 31.2602 18.2758C32.2744 17.9881 32.7815 17.1081 33.0857 16.4651C33.2717 16.0759 33.4407 15.619 33.39 15.1282C33.3393 14.6713 33.1533 14.2652 32.866 13.9268C33.3224 13.0299 33.3055 12.2853 32.866 10.5931C32.4941 9.15469 31.1588 7.76708 28.8939 6.481C28.0994 6.0241 27.8121 5.63488 27.8121 5.63488C26.0204 1.20127 23.7892 0.321313 23.6709 0.270547C20.358 -0.863242 18.262 1.92891 18.2451 1.94583C16.6394 3.95957 17.9071 6.481 18.0085 6.70099C18.5494 7.86862 19.4283 8.73164 20.4594 9.40853C20.2566 9.81466 20.0706 10.2208 19.9016 10.61C19.8002 10.83 19.6988 11.1008 19.5974 11.3715C19.5128 10.8977 19.2762 10.5085 18.8874 10.2716C18.5494 10.0685 18.1437 10.0685 17.7381 10.17C15.8957 7.4117 13.7997 6.37945 11.9911 6.12562C11.839 6.09177 11.67 6.09177 11.5179 6.07485C11.3995 6.05793 11.2643 6.05794 11.146 6.05794C11.0446 6.05794 10.9432 6.05794 10.8418 6.05794C10.0642 6.07486 9.37121 6.21023 8.81342 6.36253C8.13731 6.56559 7.52882 6.90404 6.97103 7.34402C3.23552 10.4239 3.89472 13.9098 4.70606 15.839C4.16517 16.2282 2.72844 17.4127 2.84676 19.3249C2.84676 19.3757 2.76225 20.4757 3.35385 21.3725L3.53978 21.6433C3.84403 22.0833 3.84403 22.0833 3.60739 22.4217C3.53978 22.5232 3.21863 22.7432 2.94818 22.9463C1.76499 23.8093 -0.432368 25.4 0.0747135 27.9214C0.700114 31.0859 1.91711 31.8474 4.40181 32.7443C4.45251 32.7612 4.9427 32.8627 5.60191 32.8627C6.36253 32.8627 7.34288 32.7104 8.20492 32.1181C8.1035 34.098 8.17112 36.281 8.52607 38.6163C8.6951 39.4793 9.57404 41.1715 11.67 41.3915L31.4631 41.1546C32.3251 41.1208 34.1337 40.4946 34.8098 38.3624C34.8267 38.3286 34.8267 38.2948 34.8267 38.2609C34.8774 37.8548 35.2831 27.6338 32.3082 22.1171ZM28.2515 11.5238L28.3699 15.8559C28.3699 16.042 28.5051 16.2113 28.691 16.2451C28.7248 16.262 28.7586 16.262 28.7924 16.262C28.9446 16.262 29.0798 16.1944 29.1474 16.059C30.4658 13.8929 32.0885 14.4344 32.1561 14.4514C32.173 14.4514 32.1899 14.4514 32.2068 14.4514C32.3758 14.6206 32.5279 14.8406 32.5617 15.1959C32.5617 15.2128 32.5617 15.2298 32.5617 15.2467C31.7842 14.8744 30.8546 15.0775 30.0094 15.8897C29.8404 16.059 29.8404 16.3128 29.9925 16.482C30.077 16.5666 30.1954 16.6174 30.2968 16.6174C30.3982 16.6174 30.4996 16.5836 30.5841 16.4989C30.8884 16.2113 31.649 15.5852 32.342 16.059C32.342 16.0759 32.3251 16.0759 32.3251 16.0928C31.9532 16.8881 31.5645 17.2943 31.0405 17.4466C30.6855 17.5481 30.3306 17.3958 29.908 17.2266L29.6883 17.142C29.4686 17.0574 29.2319 17.1589 29.1474 17.3789C29.0629 17.5989 29.1643 17.8358 29.384 17.9204L29.6038 18.005C29.6376 18.0219 29.6883 18.0389 29.739 18.0558C27.7952 21.7956 23.3329 21.0849 23.1469 21.051C21.2369 20.6957 20.3918 19.1726 20.0199 18.1573C20.0368 18.1742 20.0706 18.1912 20.0875 18.2081L20.172 18.2758C20.4256 18.4619 20.7467 18.6988 20.8482 18.9357C20.9158 19.105 21.0679 19.2065 21.2369 19.2065C21.2876 19.2065 21.3383 19.2065 21.389 19.1727C21.6088 19.088 21.7102 18.8511 21.6257 18.6311C21.4567 18.1742 21.051 17.8696 20.7129 17.6327C20.8313 17.5989 20.9496 17.565 21.0679 17.4973C21.1693 17.4466 21.2369 17.3451 21.2707 17.2266C21.2876 17.142 21.3214 17.0066 21.1017 16.6174C21.051 16.5497 21.0003 16.4651 20.9496 16.3974C21.2538 16.4143 21.6764 16.3805 21.9637 15.9574C22.0483 15.8221 22.1497 15.6698 22.1835 15.5005C22.268 15.0098 21.744 14.7052 21.4229 14.536C21.4736 14.4852 21.5074 14.4344 21.5412 14.4006L21.6257 14.299C22.0482 13.7914 22.437 13.2499 22.8427 12.7084L22.9779 12.5392C23.1131 12.353 23.0793 12.0822 22.8934 11.9469C22.7244 11.8284 22.5046 11.8623 22.3525 12.0146C22.2342 12.0146 22.1159 12.0484 22.0313 12.1499C21.744 12.5053 21.2707 12.7253 20.9665 12.6576C20.8989 12.6407 20.696 12.6068 20.5946 12.2515C20.5608 12.1499 20.5608 12.0146 20.5777 11.8961C20.5777 11.7776 20.5439 11.6761 20.4763 11.5915C20.5777 11.3377 20.6622 11.1177 20.7467 10.9146C20.8989 10.5423 21.0679 10.17 21.2538 9.81467C23.8399 11.2531 27.1022 11.49 28.2515 11.5238ZM19.7157 22.5063C19.2762 21.6941 18.7691 20.9664 18.1606 20.3741C18.617 19.7142 18.9381 19.0204 19.141 18.3096C19.3776 19.0034 19.834 19.9341 20.6284 20.6956C20.6284 20.6956 20.6115 20.6957 20.6115 20.7126C20.2904 21.2372 19.9354 21.8294 19.7157 22.5063ZM5.26385 19.2234C5.34836 19.3588 5.48358 19.4265 5.6188 19.4265C5.68641 19.4265 5.77094 19.4096 5.83855 19.3588C6.12589 19.1896 6.34562 19.105 6.53155 19.105C6.59916 19.105 6.64987 19.0711 6.70058 19.0373C6.90341 19.2911 7.10625 19.528 7.32598 19.748C7.29218 19.7818 7.25837 19.7988 7.22457 19.8665C6.97103 20.2218 6.61607 20.3741 6.2273 20.3064C5.65261 20.2049 5.09483 19.6803 4.94271 19.105C4.84129 18.6988 4.95961 18.3435 5.29766 18.0558C5.43288 17.9373 5.61881 17.8696 5.83855 17.8189C5.93996 17.9881 6.05828 18.1573 6.1766 18.3265C5.87235 18.3942 5.60191 18.5127 5.41598 18.6142C5.19624 18.7665 5.12863 19.0204 5.26385 19.2234ZM6.32873 17.0405C7.3936 16.1944 10.8417 13.216 11.315 10.2716C12.5151 10.8469 15.3379 11.9807 17.2817 11.1008C18.0592 12.6068 20.2904 17.7343 16.3689 21.1187C15.6421 21.3725 9.81069 23.1494 6.32873 17.0405ZM19.7833 13.8422C19.8171 13.5376 19.8847 13.2499 19.9692 12.9453C20.1721 13.2329 20.4087 13.453 20.7467 13.5206C20.8313 13.5376 20.9158 13.5376 21.0003 13.5376C21.051 13.5376 21.1017 13.5206 21.1355 13.5206C21.051 13.6391 20.9665 13.7406 20.8651 13.8591C20.6453 14.096 20.3242 14.4683 20.4256 14.8406C20.4763 15.0775 20.6791 15.1621 21.0003 15.2975C21.1186 15.3652 21.2031 15.399 21.2538 15.4498C21.2369 15.4667 21.2369 15.4836 21.22 15.5005C21.1693 15.5682 21.1355 15.5851 20.8144 15.5513C20.696 15.5344 20.6115 15.5344 20.4425 15.5344C20.189 15.5344 19.9185 15.5513 19.7664 15.7205C19.7326 15.7544 19.7157 15.8051 19.6819 15.839C19.6819 15.179 19.6988 14.5021 19.7833 13.8422ZM19.9016 16.4989L20.003 16.6174C20.0706 16.702 20.1382 16.7866 20.2059 16.8712C20.0875 16.8882 19.9861 16.922 19.8678 16.9897C19.834 17.0066 19.8002 17.0235 19.7495 17.0574C19.7326 16.7866 19.7157 16.5159 19.7157 16.262C19.7664 16.3466 19.8171 16.4313 19.9016 16.4989ZM19.0227 13.3345C19.0058 13.2499 18.972 13.1483 18.9382 13.0637C18.9889 13.0468 19.0396 13.0468 19.0734 12.9961C19.0734 13.1145 19.0396 13.233 19.0227 13.3345ZM18.4649 11.0161C18.6508 11.1177 18.7691 11.3377 18.8029 11.5746C18.8367 11.8115 18.7522 11.9976 18.6677 12.1669C18.4818 11.6761 18.3128 11.2531 18.1606 10.9315C18.262 10.9485 18.3635 10.9654 18.4649 11.0161ZM9.38811 38.4978C8.28944 31.5428 9.9628 25.8231 10.9263 23.3017C11.1122 22.8786 11.315 22.5402 11.5348 22.3033C11.5686 22.2525 11.6024 22.2017 11.6193 22.151C12.3292 22.3033 13.0222 22.371 13.6645 22.371C15.4393 22.371 16.7239 21.9141 16.7577 21.8971C16.8084 21.8802 16.8422 21.8463 16.876 21.8294C17.1634 21.5756 17.4169 21.3218 17.6535 21.0679C18.1944 21.6094 18.6677 22.2863 19.0565 23.0309C17.8733 22.9971 16.6901 22.8786 15.5407 22.7602L14.7463 22.6755C14.5265 22.6417 14.3068 22.8278 14.2899 23.0478C14.273 23.2847 14.442 23.4878 14.6618 23.5047L15.4562 23.5894C16.9098 23.7417 18.3804 23.877 19.8847 23.877C20.3749 23.877 20.8651 23.8601 21.3721 23.8263C22.5891 23.7247 23.7892 23.5047 24.9386 23.2847C25.2429 23.2171 25.564 23.1663 25.8683 23.1155C26.3077 23.7924 26.5275 24.4016 26.5613 25.0954C26.5613 25.1462 26.5951 25.1631 26.612 25.197C24.2118 26.4154 21.5412 27.0246 18.9043 27.5999C18.3635 27.7184 17.8057 27.8368 17.2648 27.9722C17.1972 27.9891 17.1634 28.023 17.1127 28.0568C16.6394 28.023 16.1661 28.0399 15.7097 28.0737L15.4055 28.0907C14.273 28.1584 13.2588 28.2429 12.2278 28.5475C12.008 28.6152 11.8728 28.8522 11.9404 29.0722C11.9404 29.0891 11.9742 29.106 11.9742 29.1398C11.9742 29.1568 11.9573 29.1568 11.9573 29.1737C11.9404 29.3091 11.9911 29.4275 12.0925 29.529C12.008 29.6983 12.008 29.9183 12.1771 30.0367C12.3461 30.1721 12.532 30.2905 12.718 30.3751C12.6672 30.5444 12.701 30.7305 12.8363 30.8321C14.2392 31.8643 15.9295 32.1012 17.0788 32.1858C17.0957 32.1858 17.0958 32.1858 17.1127 32.1858C17.2479 32.1858 17.3493 32.1012 17.4338 31.9997C17.5183 32.0166 17.6028 32.0674 17.6873 32.0843C18.0592 32.1689 18.448 32.2028 18.8198 32.2028C19.2086 32.2028 19.6143 32.1689 20.003 32.1351C20.2228 32.1182 20.4256 32.1012 20.6453 32.0843C20.9834 35.3841 21.0848 38.0409 20.9834 40.4269L13.1574 40.5285C13.1574 40.4777 13.1743 40.41 13.1405 40.3593C12.1771 38.5486 12.0587 36.2979 12.0418 34.758C12.0418 34.5211 11.8559 34.335 11.6193 34.335C11.3826 34.335 11.1967 34.5211 11.1967 34.758C11.2136 36.3318 11.3488 38.5993 12.2954 40.5285H11.7714C9.81068 40.3762 9.40502 38.5486 9.38811 38.4978ZM27.1867 23.2847C27.2712 23.4201 27.4064 23.5047 27.5585 23.5047C27.6262 23.5047 27.6938 23.4878 27.7614 23.454L27.9473 23.3524C28.2008 23.2171 28.4544 23.0817 28.7079 22.9463L28.5558 23.0478C28.353 23.1663 28.3023 23.437 28.4375 23.6401C28.522 23.7586 28.6572 23.8263 28.7924 23.8263H28.8093C28.3361 24.1816 27.8459 24.5031 27.3557 24.7908C27.2712 24.0462 27.0346 23.3863 26.5782 22.6755C27.1698 22.4217 27.7783 22.2525 28.3868 22.1679C28.0994 22.3202 27.829 22.4556 27.5416 22.6079L27.3557 22.7094C27.1529 22.8278 27.0853 23.0817 27.1867 23.2847ZM15.0167 30.0029C14.5434 30.0198 13.9518 29.969 13.4279 29.7829C13.9011 29.8167 14.3575 29.8336 14.8139 29.8675H14.9998H15.0167C15.2365 29.8675 15.4224 29.6814 15.4393 29.4614C15.4562 29.2245 15.2703 29.0383 15.0336 29.0214H14.8477C14.8308 29.0214 14.8139 29.0214 14.797 29.0214C15.0167 29.0044 15.2196 28.9875 15.4393 28.9706L15.7435 28.9537C16.0478 28.9368 16.3351 28.9198 16.6225 28.9198C16.5887 29.0721 16.5718 29.2414 16.538 29.4106L16.5211 29.5121C16.4027 30.1721 16.3351 30.8321 16.4704 31.289C15.7604 31.2044 15.135 31.052 14.5772 30.849C14.6449 30.849 14.7294 30.8659 14.7801 30.8659C14.8646 30.8659 14.9491 30.8659 15.0167 30.8659C15.2534 30.8659 15.4393 30.6628 15.4224 30.4259C15.4055 30.189 15.2196 29.9859 15.0167 30.0029ZM34.0323 38.1932C33.7111 39.1578 33.1533 39.6654 32.6294 39.97C33.4576 37.5332 33.6266 34.4365 33.1364 30.7474C33.1026 30.5105 32.9167 30.3582 32.6632 30.3921C32.4265 30.4259 32.2744 30.6459 32.3082 30.8659C32.8153 34.5888 32.6293 37.6686 31.7504 40.0377C31.7166 40.1393 31.7335 40.2239 31.7673 40.3085C31.6152 40.3424 31.5138 40.3423 31.4969 40.3423H31.0912C31.8518 38.1594 31.7504 35.4857 31.5476 33.4042C31.5307 33.1673 31.3109 32.9812 31.0912 33.015C30.8546 33.0319 30.6855 33.2519 30.7024 33.4719C30.8884 35.5026 31.0236 38.1086 30.263 40.1562C30.2461 40.2239 30.263 40.2746 30.263 40.3423L21.7947 40.4439C21.8961 38.0409 21.7947 35.3672 21.4567 32.0505C25.0062 31.8643 27.9642 31.1705 30.2123 29.9352C30.4151 29.8167 30.4996 29.5629 30.3813 29.3598C30.263 29.1568 30.0094 29.0721 29.8066 29.1906C27.5416 30.4259 24.5161 31.1197 20.7975 31.2382C20.5101 31.2551 20.2059 31.272 19.9016 31.3059C19.2086 31.3566 18.4987 31.4243 17.8564 31.272C17.4338 31.1705 17.3155 31.1028 17.2817 31.0521C17.231 30.9674 17.1803 30.6797 17.3493 29.6306L17.3831 29.4275C17.4338 29.0721 17.4845 28.9029 17.5183 28.8183C17.5352 28.8014 17.5352 28.7845 17.5521 28.7675C18.0592 28.6491 18.5663 28.5306 19.0734 28.4291C23.1638 27.5153 27.3895 26.5846 30.5841 23.3863C30.7532 23.2171 30.7532 22.9463 30.5841 22.794C30.5672 22.7771 30.5503 22.7771 30.5165 22.7771C30.601 22.7094 30.7024 22.6586 30.787 22.5909C30.9729 22.4556 31.0067 22.1848 30.8546 21.9987C30.7701 21.8971 30.6686 21.8464 30.5503 21.8464C30.5503 21.8125 30.5672 21.7787 30.5672 21.7448C30.5165 21.5925 30.3813 21.5079 30.2461 21.491C30.1785 21.3895 30.077 21.3218 29.9587 21.3048C28.5389 21.1356 27.1191 21.4233 25.8176 22.1002C25.733 22.151 25.6823 22.2187 25.6485 22.3033C25.3612 22.354 25.0569 22.4048 24.7696 22.4725C23.6371 22.6925 22.4708 22.9125 21.3045 23.014C21.0341 23.0309 20.7636 23.0309 20.4932 23.0478C20.6622 22.3879 20.9834 21.7956 21.3214 21.2372C21.7947 21.5418 22.3187 21.8125 22.9779 21.931C22.9948 21.931 23.4343 21.9987 24.1104 21.9987C25.4119 21.9987 27.5754 21.711 29.215 20.1541C29.2488 20.188 29.2488 20.2388 29.2995 20.2557C30.0263 20.6787 31.2602 22.1171 31.6321 22.574C34.3196 27.6338 34.0492 37.3471 34.0323 38.1932Z" fill="#5D7A6D"/>
<path d="M25.1752 14.9759C25.3273 14.9759 25.4794 14.959 25.6485 14.9082C26.4091 14.7052 26.8316 14.079 27.1359 13.639C27.2711 13.4529 27.2204 13.1822 27.0345 13.0468C26.8486 12.9114 26.5781 12.9622 26.4429 13.1483C26.1217 13.6221 25.8513 13.9606 25.4287 14.079C25.1752 14.1467 24.9555 14.1129 24.7864 13.9606C24.5498 13.7575 24.4315 13.3683 24.4991 13.0129C24.5329 12.776 24.3808 12.573 24.1441 12.5391C23.8906 12.5053 23.7047 12.6745 23.6708 12.8945C23.5694 13.5544 23.7892 14.2144 24.2455 14.6036C24.4822 14.8575 24.8202 14.9759 25.1752 14.9759Z" fill="#5D7A6D"/>
<path d="M10.656 31.7795C10.6729 31.5426 10.5038 31.3395 10.2672 31.3226C10.0475 31.2887 9.82774 31.4749 9.81084 31.7118C9.5573 34.4701 9.45587 37.3469 10.3855 39.8176C10.4531 39.9868 10.6053 40.0883 10.7743 40.0883C10.825 40.0883 10.8757 40.0883 10.9264 40.0545C11.1461 39.9699 11.2476 39.733 11.163 39.513C10.301 37.2115 10.4193 34.4363 10.656 31.7795Z" fill="#5D7A6D"/>
</svg>
