<svg width="37" height="34" viewBox="0 0 37 34" fill="none" xmlns="http://www.w3.org/2000/svg">
<path d="M25.3514 34.0001C20.0003 34.0001 7.92316 32.9874 2.03982 24.3943C1.96591 24.2752 -3.63657 14.7588 4.0502 9.42719C4.1389 9.38251 10.2735 5.73381 16.6447 9.44209C16.9995 7.29754 18.8916 0.00012207 27.8792 0.00012207C28.027 0.00012207 28.1749 0.00012207 28.3375 0.00012207C28.6331 0.00012207 33.8512 0.119263 36.4825 7.68475C36.5268 7.81878 37.3842 10.7973 36.7929 15.5183C36.2607 19.8521 34.3391 26.5538 28.2488 33.7767C28.1896 33.8512 28.1009 33.8959 27.9975 33.9108C27.9531 33.9108 26.9627 34.0001 25.3514 34.0001ZM10.5101 8.51874C7.051 8.51874 4.49367 10.0229 4.44933 10.0527C-2.63138 14.9673 2.43894 23.6199 2.66067 23.9922C9.68225 34.2682 26.061 33.3151 27.7757 33.181C33.6591 26.1517 35.5216 19.6734 36.0538 15.4736C36.6303 10.8867 35.7877 7.93792 35.7729 7.90814C33.3043 0.819219 28.3966 0.744756 28.3227 0.744756C18.0786 0.43201 17.3395 9.68037 17.3099 10.0676C17.2951 10.2016 17.2212 10.3208 17.1029 10.3803C16.9847 10.4399 16.8516 10.4399 16.7334 10.3654C14.5604 8.98041 12.4022 8.51874 10.5101 8.51874Z" fill="#A57B66"/>
<path d="M13.6587 26.39C12.417 26.39 11.1162 26.2261 9.80055 25.8389C9.75621 25.8389 1.0938 24.2752 2.2616 15.8013C2.2616 15.7864 2.2616 15.7715 2.27638 15.7566C2.30595 15.6374 3.08941 12.7483 6.14933 11.1398C8.83971 9.72504 12.3874 9.76972 16.6891 11.2888C17.236 9.62079 19.7638 3.21694 25.7506 3.93178C26.0167 3.902 27.1106 3.84243 28.2193 4.64663C29.4166 5.51041 30.1853 7.05925 30.5401 9.23358C30.5844 9.51654 31.7079 16.248 24.6863 22.4583C24.435 22.6817 19.6308 26.39 13.6587 26.39ZM2.98593 15.9353C1.93639 23.6646 9.63795 25.0645 9.96316 25.1241C17.2656 27.2686 24.1393 21.9668 24.2133 21.9073C30.8801 16.0098 29.8157 9.44208 29.801 9.38251C28.9879 4.27432 25.928 4.67642 25.795 4.69131C25.7654 4.69131 25.721 4.69131 25.6915 4.69131C19.409 3.91689 17.3543 11.5568 17.2656 11.8845C17.236 11.9887 17.1769 12.0632 17.0734 12.1228C16.9847 12.1674 16.8665 12.1823 16.7778 12.1377C12.5353 10.559 9.06144 10.4399 6.48933 11.7951C3.8433 13.1801 3.05984 15.697 2.98593 15.9353Z" fill="#A57B66"/>
<path fill-rule="evenodd" clip-rule="evenodd" d="M17.0291 11.3632L17.2656 13.8503L20.2072 15.6374L22.2472 22.7859L22.5428 12.9865L20.1925 11.3185L19.5568 3.6637C19.5716 3.67859 16.1569 7.5209 17.0291 11.3632Z" fill="#A57B66"/>
<path d="M6.90337 21.2222C6.63729 21.2222 6.37121 21.1924 6.10513 21.1179C4.03561 20.5967 2.82346 18.2139 3.41475 15.7863C4.00604 13.3588 6.17904 11.81 8.24855 12.3163C9.26853 12.5695 10.1111 13.2695 10.6137 14.2971C11.1163 15.2949 11.2346 16.4863 10.9389 17.6628C10.4215 19.7776 8.7068 21.2222 6.90337 21.2222ZM7.43553 12.9716C5.9573 12.9716 4.55299 14.1928 4.1243 15.9799C3.63649 18.0054 4.59734 20.001 6.28251 20.418C7.96769 20.835 9.72678 19.5244 10.2294 17.4841C10.4659 16.4863 10.3772 15.4736 9.9633 14.6396C9.53461 13.8056 8.86941 13.2397 8.07117 13.0461C7.86422 12.9865 7.64248 12.9716 7.43553 12.9716Z" fill="#A57B66"/>
<path d="M12.8753 22.6966C12.7127 22.6966 12.5353 22.6817 12.3727 22.637C11.1605 22.3391 10.4362 21.0286 10.7466 19.7329C10.8944 19.1074 11.264 18.5713 11.7814 18.2437C12.3135 17.9011 12.9196 17.782 13.5109 17.9309C14.723 18.2288 15.4474 19.5244 15.1369 20.835C14.8709 21.937 13.91 22.6966 12.8753 22.6966ZM12.9935 18.616C12.7127 18.616 12.4318 18.7053 12.1805 18.8691C11.8257 19.1074 11.5596 19.4797 11.4562 19.9116C11.2344 20.8052 11.7222 21.7136 12.5353 21.9072C13.3631 22.1009 14.1909 21.5349 14.4126 20.6414C14.6344 19.7478 14.1465 18.8543 13.3335 18.6458C13.23 18.616 13.1118 18.616 12.9935 18.616Z" fill="#A57B66"/>
<path fill-rule="evenodd" clip-rule="evenodd" d="M17.5612 31.9151C16.9108 31.7513 15.4474 31.096 16.3786 30.262C16.4969 30.1578 16.6299 30.0684 16.7778 30.0089C17.4725 29.7408 18.3151 29.8599 19.0247 30.0386C19.6455 30.1876 20.3255 30.3961 20.769 30.8875C21.1977 31.3492 20.9759 32.0194 20.3846 32.2279C19.5273 32.5257 18.4038 32.1236 17.5612 31.9151ZM21.7742 32.4066L27.3619 32.5406C27.3619 32.5406 34.073 24.0369 34.8269 18.4968L34.2356 18.3926C34.2208 18.3926 26.5341 31.0662 21.7742 32.4066ZM3.65112 25.9283C3.65112 25.9283 9.60837 29.8599 17.6056 28.1026C17.6056 28.1026 27.5393 25.9431 33.4522 12.6142C33.4522 12.6142 35.2556 7.32729 34.1469 3.99133C34.1469 3.99133 42.2476 16.665 28.1601 33.3746C28.1601 33.3895 10.1849 35.1617 3.65112 25.9283Z" fill="#A57B66"/>
</svg>
