<svg width="41" height="36" viewBox="0 0 41 36" fill="none" xmlns="http://www.w3.org/2000/svg">
<path d="M39.6538 21.7893H31.9462C31.9462 21.7724 31.963 21.7554 31.963 21.7216L32.0138 10.5699C32.0138 10.2991 31.8785 10.0453 31.6419 9.90992L15.3139 0.111953C15.0096 -0.0741908 14.6209 -0.0234118 14.3673 0.230421L6.22021 8.30231C5.91596 8.60691 5.91596 9.09765 6.22021 9.40225C6.52446 9.70685 7.01463 9.70685 7.31888 9.40225L7.60622 9.11457L7.75837 21.7893H2.07905V21.2985C2.07905 21.0616 1.89312 20.8755 1.65648 20.8755H0.422568C0.18593 20.8755 0 21.0616 0 21.2985V35.1071C0 35.344 0.18593 35.5301 0.422568 35.5301H1.65648C1.67339 35.5301 1.69029 35.5132 1.70719 35.5132C1.72409 35.5132 1.7241 35.5301 1.741 35.5301H39.6707C39.9073 35.5301 40.0932 35.344 40.0932 35.1071V22.2292C40.0763 21.9754 39.8904 21.7893 39.6538 21.7893ZM23.3765 23.38L24.7963 24.8015L24.8639 34.6671H23.461L23.3765 23.38ZM25.6583 27.7967V26.9336L36.5944 26.8321V27.6951L25.6583 27.7967ZM36.5268 25.0215C36.5268 25.0215 36.5268 25.0383 36.5437 25.0383C36.5606 25.0553 36.5775 25.0553 36.5944 25.0553V25.9691L25.6583 26.0706V25.0722L36.5268 25.0215ZM25.6583 28.6428L27.281 28.6258L27.2979 34.684H25.6922L25.6583 28.6428ZM28.143 28.6089L30.6277 28.592L30.6446 34.6671H28.1599L28.143 28.6089ZM31.4729 28.5751L34.4477 28.5412L34.4646 34.6671H31.4898L31.4729 28.5751ZM35.276 28.5412L36.5775 28.5243V34.6671H35.2929L35.276 28.5412ZM36.8817 24.1753L25.4048 24.2261L23.8159 22.6354H38.6058L36.8817 24.1753ZM30.4587 11.9237L30.4418 17.0172L26.1316 17.0341L26.1147 11.9237H30.4587ZM25.2527 11.9237L25.2696 17.0511L21.8045 17.068L21.7876 11.9406H25.2527V11.9237ZM20.9425 11.9237L20.9594 17.068L18.0183 17.0849V11.9406H20.9425V11.9237ZM18.0183 17.9141L20.9594 17.8972V20.3848H18.0014V17.9141H18.0183ZM21.8214 20.4017V17.9141L25.2865 17.8972L25.3034 20.4017H21.8214ZM26.1316 20.4017L26.1147 17.8972L30.4249 17.8803L30.408 20.4017H26.1316ZM15.0265 1.75341L30.4587 11.0099V11.0776H29.9854C29.9516 11.0437 29.9516 10.9929 29.9009 10.9591L14.7054 2.05802L15.0265 1.75341ZM8.41757 8.28538L14.0969 2.66722L28.4304 11.0776H17.5957C17.3591 11.0776 17.1732 11.2637 17.1732 11.5006V20.8078C17.1732 21.0447 17.3591 21.2309 17.5957 21.2309H30.408V21.7047C30.408 21.7216 30.4249 21.7554 30.4249 21.7724H8.58658L8.41757 8.28538ZM1.2001 34.684H0.811349V21.7216H1.2001V34.684ZM2.14665 22.6354H22.5144L22.599 34.6671H18.6268V25.8168H14.1983V34.6671H2.11284V22.6354H2.14665ZM37.4226 34.6671V24.8183L39.2143 23.2108V34.6671H37.4226Z" fill="#8A9F73"/>
<path d="M10.9189 24.3615H4.32687C4.09023 24.3615 3.9043 24.5476 3.9043 24.7845V26.629C3.9043 26.8659 4.09023 27.0521 4.32687 27.0521H10.9189C11.1556 27.0521 11.3415 26.8659 11.3415 26.629V24.7845C11.3415 24.5645 11.1387 24.3615 10.9189 24.3615ZM4.74943 25.2076H6.27067L6.28756 26.206H4.74943V25.2076ZM10.4964 26.206H7.1327L7.11581 25.2076H10.4964V26.206Z" fill="#8A9F73"/>
</svg>
