<svg width="39" height="40" viewBox="0 0 39 40" fill="none" xmlns="http://www.w3.org/2000/svg">
<path d="M38.2159 17.8719C38.2159 17.7027 38.1821 17.5504 38.1652 17.3812C38.1652 17.0596 38.1483 16.7381 38.0638 16.3997C37.506 13.1844 35.4439 10.1892 35.3425 10.0369C34.3283 8.68315 33.2803 7.58319 32.2324 6.6694C32.3338 6.65247 32.4352 6.65249 32.5197 6.63557C34.1593 6.17867 35.0889 4.33415 34.5819 2.5404C34.0748 0.746646 32.3338 -0.353302 30.6942 0.103598C29.9505 0.306664 29.3251 0.814333 28.9363 1.50814C28.4969 2.30349 28.3786 3.28497 28.6321 4.19877C28.6321 4.21569 28.649 4.2157 28.649 4.23262C25.167 2.43887 22.3612 2.52346 22.1753 2.52346C18.6257 2.60807 15.8367 3.70802 13.8253 4.9095C13.876 4.70643 13.8929 4.50336 13.8929 4.3003C13.8929 2.59115 12.3717 1.20353 10.5124 1.20353C8.65308 1.20353 7.13184 2.59115 7.13184 4.3003C7.13184 6.00944 8.65308 7.39706 10.5124 7.39706C10.58 7.39706 10.6307 7.38013 10.6814 7.38013C10.1574 7.92164 9.87008 8.29394 9.83627 8.3447C5.89794 12.8122 6.81069 18.9211 6.84449 19.158C7.16565 22.6101 9.32919 24.2854 10.6645 24.9961C10.0222 25.4023 9.02494 26.1299 8.1629 27.1622L8.146 27.1453C7.13184 26.8407 5.6275 24.4546 4.74856 22.3224C4.27528 21.1886 3.95413 19.4964 3.802 17.2796C3.7851 16.9412 3.59917 16.6366 3.32873 16.4843C2.16244 15.7735 1.01305 16.5858 0.573584 17.1104C0.556681 17.1442 0.522876 17.1781 0.505973 17.2119C-0.744828 19.8857 0.708806 23.9131 0.776416 24.0993C1.892 26.7899 6.45573 29.9036 6.64166 30.022C6.67547 30.039 6.69237 30.039 6.72618 30.0559C6.67547 30.2928 6.59095 30.5128 6.57405 30.7666C6.55715 30.902 6.16838 34.2695 8.33193 37.6201L9.46442 39.1939C9.54893 39.3123 9.66725 39.3631 9.80247 39.3631H11.5265C11.7294 39.3631 11.9153 39.2108 11.9491 38.9908L12.4055 35.6064C13.7577 35.7756 15.8536 35.9956 17.7636 35.9956C18.6933 35.9956 19.5722 35.9448 20.2991 35.8094C20.8568 37.0786 21.7865 38.8216 22.8345 39.4308C22.9021 39.4646 22.9697 39.4816 23.0373 39.4816L24.8966 39.4985C25.1332 39.4985 25.3192 39.3123 25.3192 39.0923L25.4037 35.5725L27.0432 35.5387C27.3475 36.334 28.2771 38.4493 29.7984 39.0754C29.8491 39.0924 29.8998 39.1093 29.9674 39.1093L31.7422 39.0754C31.8605 39.0754 31.9788 39.0247 32.0465 38.9231C32.1141 38.8216 32.1648 38.7201 32.1479 38.6016C32.1141 38.2801 32.0634 37.9416 32.0295 37.6032C32.0803 37.5017 32.0972 37.4001 32.0634 37.2986L31.9619 36.9602C31.5056 32.7635 31.1168 27.2129 31.5901 25.9946C32.2324 25.8084 32.638 25.6561 32.7226 25.6223C38.4526 22.9993 38.2159 17.9058 38.2159 17.8719ZM31.4042 5.60331C31.2182 5.65408 31.0492 5.63716 30.8633 5.60331C30.6097 5.43409 30.3731 5.28178 30.1364 5.11256C30.035 4.96026 29.9336 4.80795 29.8829 4.60488C29.6801 3.87723 30.035 3.14959 30.6773 2.98037C30.7787 2.94652 30.8633 2.94652 30.9647 2.94652C31.5056 2.94652 32.0295 3.35265 32.1986 3.97877C32.4014 4.6895 32.0465 5.41717 31.4042 5.60331ZM30.9309 0.932769C31.0999 0.882002 31.2858 0.865092 31.4718 0.865092C32.4859 0.865092 33.4663 1.64351 33.7874 2.79422C34.1255 4.01262 33.6184 5.24793 32.6211 5.72176C33.0268 5.19717 33.2127 4.48643 33.0099 3.75877C32.6888 2.59114 31.5394 1.89734 30.4576 2.18502C29.9843 2.3204 29.6294 2.64192 29.3758 3.03113C29.4096 2.64192 29.511 2.26963 29.6801 1.94811C29.9674 1.42352 30.4069 1.06815 30.9309 0.932769ZM9.88698 5.11256C9.88698 4.45259 10.4955 3.91109 11.2392 3.91109C11.9829 3.91109 12.5914 4.45259 12.5914 5.11256C12.5914 5.77252 11.9829 6.31404 11.2392 6.31404C10.4955 6.31404 9.88698 5.77252 9.88698 5.11256ZM7.97698 4.31721C7.97698 3.08189 9.12636 2.06655 10.5124 2.06655C11.7801 2.06655 12.8281 2.89576 13.014 3.96186C12.6083 3.42035 11.9829 3.04804 11.2392 3.04804C10.0222 3.04804 9.04185 3.96186 9.04185 5.09564C9.04185 5.58639 9.26158 6.02635 9.56583 6.38172C8.63618 6.07712 7.97698 5.26485 7.97698 4.31721ZM10.8504 27.0099C10.749 26.7561 10.6645 26.5022 10.6307 26.2315C10.6307 26.1976 10.5969 26.1638 10.5969 26.1299C10.6476 26.0961 10.6814 26.0792 10.7152 26.0453C10.7321 26.2823 10.7828 26.6207 10.8504 27.0099ZM2.46669 25.2669L4.17386 23.1347C4.29218 23.4055 4.4274 23.6932 4.57953 23.9808L3.00758 25.893C2.82165 25.673 2.63572 25.47 2.46669 25.2669ZM3.46395 20.9517L1.23279 22.6947C1.18208 22.4917 1.13137 22.2548 1.08067 22.0178L3.36253 20.5456C3.39634 20.681 3.43014 20.8164 3.46395 20.9517ZM2.88926 17.2458C2.92306 17.2627 2.95687 17.3135 2.95687 17.3812C2.97377 17.6181 3.00758 17.9734 3.04138 18.4134C2.5174 18.5996 1.46943 19.0903 0.86093 19.361C0.894736 18.7688 0.996152 18.1765 1.23279 17.6519C1.41872 17.4827 2.14554 16.7889 2.88926 17.2458ZM5.49228 28.1437L6.32051 26.7222C6.75998 27.2637 7.23326 27.6699 7.68963 27.8899C7.40228 28.3129 7.14874 28.7529 6.96281 29.2606C6.69237 29.0744 6.15148 28.6683 5.49228 28.1437ZM25.2347 34.7603C25.1839 34.608 25.0825 34.4726 24.9135 34.4557C24.8628 34.4557 24.7952 34.4557 24.7445 34.4387C24.3388 32.5773 24.6262 30.7158 25.6403 29.379C26.1136 28.7529 27.0602 28.1606 27.7194 28.1606C28.0236 28.1775 28.2433 28.3298 28.4293 28.6344C29.2068 29.9713 28.5983 31.6804 28.0067 33.3388C27.8208 33.8465 27.6686 34.3203 27.5334 34.7941C27.4827 34.7772 27.432 34.7433 27.3475 34.7264L25.2347 34.7603ZM30.0688 38.2801C29.1561 37.857 28.4969 36.6894 28.1081 35.8771C28.125 35.8602 28.1419 35.8433 28.1419 35.8094C28.1926 35.471 28.294 35.0987 28.4124 34.7264C28.4124 34.8618 28.48 34.9803 28.5814 35.0479C29.0716 35.4033 29.7139 35.5725 30.2548 35.6571C29.7984 35.9617 29.4941 36.2833 29.4772 36.3002C29.3589 36.4356 29.342 36.6217 29.4096 36.774C29.7646 37.5017 30.6604 37.7386 31.2182 37.8232C31.2351 37.9924 31.252 38.1447 31.2689 38.2801H30.0688ZM30.7787 33.305C29.7139 33.5419 28.6321 34.3372 28.5814 34.3711C28.5476 34.388 28.5307 34.4218 28.5138 34.4557C28.5983 34.1849 28.6997 33.9142 28.8011 33.6265C29.4265 31.8835 30.1364 29.9036 29.1561 28.2114C28.8349 27.6699 28.3617 27.3653 27.7701 27.3145C26.6376 27.2637 25.4375 28.2452 24.9642 28.8713C23.8317 30.3774 23.4261 32.425 23.8486 34.4726C22.919 34.5741 22.0907 34.8787 22.04 34.8956C21.9386 34.9295 21.8541 35.0141 21.8034 35.1156C21.7527 35.2172 21.7527 35.3356 21.8034 35.4371C22.0231 35.9787 22.6823 36.3002 23.3415 36.4863C23.0204 36.5709 22.7838 36.6725 22.7669 36.6725C22.6485 36.7233 22.564 36.8079 22.5302 36.9263C22.4964 37.0448 22.5133 37.1632 22.564 37.2647C23.1049 38.1785 24.0515 38.3139 24.4909 38.3139L24.474 38.6693L23.1387 38.6524C21.9893 37.874 20.8399 35.1325 20.5019 34.1172C20.4343 33.8972 20.1807 33.7788 19.961 33.8465C19.7413 33.9142 19.623 34.168 19.6906 34.388C19.7075 34.4218 19.792 34.6756 19.9272 35.0141C16.8678 35.4879 11.1378 34.591 11.0871 34.5741C10.8504 34.5403 10.6476 34.6926 10.5969 34.9295C10.5631 35.1664 10.7152 35.3695 10.9519 35.4202C10.9857 35.4202 11.2223 35.4541 11.5434 35.5048L11.1378 38.5339H10.0053L9.00804 37.1463C7.63892 35.0141 7.38538 32.865 7.36848 31.7143C7.79104 32.4081 8.45025 33.2204 9.3461 33.7111C9.41371 33.7449 9.48132 33.7619 9.54893 33.7619C9.65035 33.7619 9.75176 33.728 9.81937 33.6603C9.95459 33.5419 10.0053 33.3557 9.93769 33.1865C9.43061 31.7989 8.70379 29.4467 8.70379 28.3975C9.16017 28.8713 9.93769 29.4974 11.0871 29.9882C11.104 29.9882 11.3913 30.1067 11.7632 30.1913C12.0843 30.9528 12.5069 31.6973 13.0478 32.2896C13.1323 32.3742 13.2506 32.425 13.352 32.425C13.4197 32.425 13.4704 32.4081 13.5211 32.3912C13.6901 32.3235 13.7915 32.1373 13.7746 31.9681C13.6563 30.8682 13.4197 28.1606 13.4873 26.7053C13.6394 27.3991 14.0958 28.7867 15.3635 29.6159C15.4311 29.6667 15.5156 29.6836 15.6001 29.6836C15.6508 29.6836 15.7184 29.6667 15.7691 29.6498C15.9044 29.599 15.9889 29.4805 16.0227 29.3282L16.4114 27.0437C16.5636 27.0776 16.6988 27.0945 16.8509 27.1284C16.8002 28.0422 16.9861 31.4435 22.2429 32.9496C22.2767 32.9665 22.3274 32.9665 22.3612 32.9665C22.4795 32.9665 22.5978 32.9158 22.6823 32.8142C22.7838 32.6788 22.8176 32.5096 22.733 32.3573C22.2767 31.4435 21.178 28.8713 21.3808 27.5345C21.4146 27.5345 21.4484 27.5345 21.4653 27.5345C25.2347 27.5345 28.5983 26.8237 30.6604 26.2653C30.4407 27.7714 30.5759 30.6651 30.7787 33.305ZM32.4014 24.8608C32.2831 24.9115 20.9076 28.939 12.2196 24.7931L12.0336 24.6746C11.9491 24.6239 11.8646 24.6069 11.7801 24.6239C11.1716 24.4039 9.24468 23.507 8.26432 21.2394C9.90389 20.7148 10.9519 18.515 11.0026 18.4303C11.0533 18.3288 11.0533 18.2103 11.0195 18.0919C10.9857 17.9904 10.9011 17.9057 10.7828 17.855C9.46441 17.3135 8.23052 17.4996 7.60512 17.635C7.60512 17.5673 7.60512 17.4827 7.60512 17.415C7.68963 17.415 7.79105 17.4319 7.87556 17.4319C9.51512 17.4319 11.2054 16.2305 11.2899 16.1797C11.3913 16.112 11.4589 15.9935 11.4589 15.8582C11.4589 15.7228 11.4251 15.6043 11.3237 15.5197C10.0898 14.3859 8.65308 14.1659 7.96007 14.1321C8.04459 13.7767 8.1291 13.4214 8.24742 13.0491C8.66999 13.2014 9.14326 13.286 9.59964 13.286C10.5124 13.286 11.3575 13.0829 11.4082 13.066C11.5265 13.0321 11.628 12.9645 11.6787 12.846C11.7294 12.7276 11.7463 12.6091 11.6956 12.5076C11.0533 10.8323 10.1743 10.24 9.66725 10.0369C9.92079 9.64771 10.1912 9.27543 10.5124 8.90314C10.5462 8.8693 12.4224 6.3648 16.0903 4.74027C16.3438 5.07871 17.3073 6.24634 18.4398 6.38172C18.4567 6.38172 18.4736 6.38172 18.4905 6.38172C18.6426 6.38172 18.7947 6.29713 18.8623 6.16175C18.8792 6.11098 19.2849 5.34946 19.4708 4.41874C19.6737 4.79103 20.0455 5.24794 20.7216 5.70484C20.7892 5.75561 20.8738 5.77252 20.9583 5.77252C21.0428 5.77252 21.1442 5.73867 21.2118 5.6879C21.2625 5.65406 22.3612 4.80797 22.5302 3.38651C22.5471 3.38651 22.564 3.38651 22.5809 3.38651C22.564 3.7588 22.6147 4.96026 23.5613 5.77252C23.6458 5.84021 23.7303 5.87405 23.8317 5.87405C23.9162 5.87405 24.0008 5.85714 24.0684 5.80637C24.1191 5.77253 25.2008 5.01103 25.8262 4.01262C26.908 4.35107 28.1588 4.89257 29.4941 5.72176C29.6801 5.92482 29.8998 6.12789 30.1364 6.28019C30.3055 6.38173 30.4914 6.44941 30.6604 6.5171C31.2182 6.92323 31.776 7.41397 32.3338 7.93856C31.9957 8.36162 30.8971 9.91846 30.9816 11.4584C30.9985 11.6614 31.1506 11.8307 31.3534 11.8476C31.3872 11.8476 31.6239 11.8814 31.9957 11.8814C32.7395 11.8814 33.9565 11.763 35.0044 11.0861C35.072 11.1876 35.1396 11.323 35.2242 11.4584C34.734 11.7461 33.4663 12.5922 32.8916 14.1659C32.8578 14.2675 32.8578 14.3859 32.9085 14.4875C32.9592 14.589 33.0437 14.6736 33.1451 14.7074C33.1958 14.7244 34.1086 15.0628 35.3763 15.0628C35.8158 15.0628 36.3059 15.0121 36.813 14.9105C36.8806 15.0967 36.9313 15.2659 36.982 15.452C36.3397 15.5536 34.9875 15.892 34.0748 17.0766C33.9396 17.2458 33.9565 17.4827 34.1086 17.635C34.1762 17.7027 35.5622 19.0226 37.2525 19.1411C36.9651 20.6641 35.9341 23.2362 32.4014 24.8608Z" fill="#AD6652"/>
<path d="M17.0535 13.0662C18.0169 13.0662 18.7945 12.2877 18.7945 11.3232C18.7945 10.3586 18.0169 9.5802 17.0535 9.5802C16.09 9.5802 15.3125 10.3586 15.3125 11.3232C15.3125 12.2877 16.09 13.0662 17.0535 13.0662Z" fill="#AD6652"/>
<path d="M25.9441 8.85217C24.9806 8.85217 24.2031 9.63059 24.2031 10.5952C24.2031 11.5597 24.9806 12.3382 25.9441 12.3382C26.9076 12.3382 27.6851 11.5597 27.6851 10.5952C27.6851 9.63059 26.9076 8.85217 25.9441 8.85217Z" fill="#AD6652"/>
<path d="M22.8341 12.0674C22.5298 11.9997 22.1918 11.9659 21.8368 11.9997C21.5326 12.0336 21.2452 12.1013 20.9917 12.2028C20.9579 12.2028 20.9072 12.2197 20.8903 12.2197C17.4928 13.3027 17.7971 15.8411 17.7971 15.858V15.8749C17.983 16.9072 19.0479 17.1779 19.8254 17.1779C19.9775 17.1779 20.1296 17.161 20.248 17.1441C21.0424 17.1948 21.6678 16.9918 22.0734 16.518C22.2256 16.3318 22.3439 16.1287 22.4115 15.9257C22.4284 15.9257 22.4284 15.9426 22.4453 15.9426C23.3919 16.6872 24.8455 16.4333 24.9807 16.4164C25.6568 16.1964 26.0963 15.8241 26.2991 15.3334C26.5865 14.6734 26.316 14.0642 26.2822 13.9796C25.5047 12.5243 24.0342 12.1182 22.8341 12.0674ZM21.4311 15.9934C21.2114 16.2472 20.8396 16.3657 20.2311 16.3149C20.2141 16.3149 18.7774 16.4672 18.6422 15.7395C18.6253 15.6041 18.5915 14.4196 20.0113 13.5397C20.0789 13.895 20.3325 14.1996 20.755 14.3688C21.0255 14.4873 21.3466 14.538 21.7016 14.555C21.7185 14.6227 21.7185 14.6904 21.7354 14.7411C21.7354 15.1303 21.7185 15.6718 21.4311 15.9934ZM25.5216 15.0288C25.4033 15.2826 25.1328 15.5026 24.761 15.6211C24.7441 15.6211 23.6116 15.8072 22.9524 15.2996C22.7327 15.1303 22.5974 14.9104 22.5298 14.6227C22.5298 14.555 22.5129 14.5042 22.5129 14.4704C23.375 14.2673 23.9666 13.7427 23.9327 13.1335C24.5582 13.3366 25.1497 13.7089 25.5047 14.3858C25.5216 14.3858 25.6568 14.7073 25.5216 15.0288Z" fill="#AD6652"/>
<path d="M14.7717 14.8258C13.4701 14.8258 12.4053 15.9765 12.4053 17.398C12.4053 18.8195 13.4701 19.9702 14.7717 19.9702C16.0732 19.9702 17.138 18.8195 17.138 17.398C17.138 15.9765 16.0732 14.8258 14.7717 14.8258ZM14.7717 19.1071C13.9265 19.1071 13.2504 18.3287 13.2504 17.3811C13.2504 16.4334 13.9265 15.655 14.7717 15.655C15.6168 15.655 16.2929 16.4334 16.2929 17.3811C16.2929 18.3287 15.5999 19.1071 14.7717 19.1071Z" fill="#AD6652"/>
<path d="M29.9504 11.983C28.6489 11.983 27.584 13.1337 27.584 14.5552C27.584 15.9767 28.6489 17.1274 29.9504 17.1274C31.2519 17.1274 32.3167 15.9767 32.3167 14.5552C32.3167 13.1337 31.2519 11.983 29.9504 11.983ZM29.9504 16.2643C29.1052 16.2643 28.4291 15.4859 28.4291 14.5383C28.4291 13.5907 29.1052 12.8122 29.9504 12.8122C30.7955 12.8122 31.4716 13.5907 31.4716 14.5383C31.4716 15.4859 30.7955 16.2643 29.9504 16.2643Z" fill="#AD6652"/>
</svg>
