<svg width="33" height="45" viewBox="0 0 33 45" fill="none" xmlns="http://www.w3.org/2000/svg">
<path d="M20.0841 9.31036C20.1855 9.31036 20.2531 9.32729 20.3207 9.36113C20.4729 9.42882 20.6081 9.4965 20.7433 9.56419C21.1997 9.78418 21.6899 10.0211 22.2138 10.0211C22.6026 10.0211 23.0083 9.88572 23.4477 9.53035C23.6337 9.37805 23.6506 9.1073 23.4984 8.93808C23.3463 8.75193 23.0759 8.735 22.9069 8.8873C22.3322 9.36112 21.9265 9.19191 21.1152 8.80269C20.963 8.73501 20.8278 8.66731 20.6588 8.59962C20.456 8.51501 20.27 8.49809 20.1348 8.48117C19.9489 8.46424 19.9151 8.46425 19.7967 8.32887C19.6446 8.14273 19.3742 8.1258 19.2052 8.26118C19.0192 8.41348 19.0023 8.66731 19.1375 8.85346C19.4925 9.2596 19.8475 9.29343 20.0841 9.31036Z" fill="#B3675B"/>
<path d="M4.83692 17.8731C4.7355 18.0762 4.82002 18.33 5.02285 18.4485C5.3102 18.6008 5.59755 18.7362 5.9018 18.8885L6.34126 19.1084C6.40888 19.1423 6.47649 19.1592 6.5272 19.1592C6.67932 19.1592 6.83145 19.0746 6.89906 18.9223C7.00047 18.7192 6.91596 18.4654 6.71313 18.347L6.27365 18.127C5.9863 17.9747 5.68206 17.8224 5.39471 17.6701C5.19188 17.5685 4.93834 17.6532 4.83692 17.8731Z" fill="#B3675B"/>
<path d="M4.16153 12.9488C4.33056 13.1181 4.49959 13.2873 4.66862 13.4565C4.90526 13.6934 5.12499 13.9303 5.37853 14.1672C5.46305 14.2349 5.56448 14.2857 5.66589 14.2857C5.78421 14.2857 5.88562 14.2349 5.97013 14.1503C6.12226 13.9811 6.12226 13.7103 5.95324 13.558C5.7166 13.3381 5.49686 13.1181 5.27712 12.8812C5.10809 12.695 4.92217 12.5258 4.75314 12.3566C4.58411 12.1873 4.31366 12.2043 4.16153 12.3735C4.00941 12.5427 3.9925 12.7796 4.16153 12.9488Z" fill="#B3675B"/>
<path d="M7.94795 16.5701C8.11698 16.7563 8.2691 16.9424 8.43813 17.1286C8.52264 17.2301 8.64095 17.2639 8.75927 17.2639C8.86069 17.2639 8.96211 17.2301 9.04663 17.1624C9.21565 17.0101 9.23255 16.7393 9.08043 16.5701C8.9283 16.384 8.75928 16.2147 8.60715 16.0286C8.2691 15.6394 7.93104 15.2502 7.55918 14.8779C7.39016 14.7087 7.13662 14.7087 6.96759 14.8779C6.79856 15.0471 6.79856 15.3179 6.96759 15.4702C7.30564 15.8255 7.6268 16.1978 7.94795 16.5701Z" fill="#B3675B"/>
<path d="M12.0041 15.7919C12.0548 15.978 12.2238 16.0965 12.4097 16.0965C12.4435 16.0965 12.4942 16.0965 12.5281 16.0796C12.7478 16.0119 12.883 15.775 12.8154 15.555C12.6971 15.1488 12.5788 14.7427 12.4604 14.3366C12.2407 13.5582 12.021 12.7967 11.7505 12.0352C11.6829 11.8152 11.4294 11.6967 11.2097 11.7813C10.9899 11.866 10.8716 12.1029 10.9561 12.3229C11.2097 13.0674 11.4294 13.8289 11.6491 14.5735C11.7505 14.9796 11.8689 15.3858 12.0041 15.7919Z" fill="#B3675B"/>
<path d="M15.7061 16.824C15.8414 16.824 15.9597 16.7563 16.0442 16.6548C16.1794 16.4517 16.3315 16.2656 16.4668 16.0625C16.6696 15.7579 16.8893 15.4702 17.1091 15.1826C17.2612 14.9964 17.2274 14.7257 17.0414 14.5903C16.8555 14.4549 16.5851 14.4718 16.4499 14.658C16.2132 14.9626 15.9935 15.2672 15.7906 15.5718C15.6554 15.7579 15.5202 15.961 15.385 16.1471C15.2498 16.3333 15.2836 16.604 15.4695 16.7394C15.5371 16.7902 15.6216 16.824 15.7061 16.824Z" fill="#B3675B"/>
<path d="M18.3259 18.8886C18.4273 18.8886 18.5118 18.8548 18.5963 18.7871C18.9175 18.5163 19.2386 18.2456 19.5429 17.9748C19.7795 17.7718 20.0161 17.5518 20.2697 17.3487C20.4556 17.1964 20.4725 16.9256 20.3204 16.7564C20.1683 16.5872 19.8978 16.5534 19.7288 16.7057C19.4753 16.9087 19.2386 17.1287 19.002 17.3487C18.6977 17.6194 18.3935 17.8902 18.0723 18.144C17.8864 18.2963 17.8695 18.5671 18.0216 18.7363C18.0723 18.8378 18.1907 18.8886 18.3259 18.8886Z" fill="#B3675B"/>
<path d="M32.0001 43.0533L28.011 32.2231H29.1773C29.4139 32.2231 29.5999 32.037 29.5999 31.8001V30.9201C29.6168 30.9201 29.6168 30.937 29.6337 30.937H31.2394C31.3746 30.937 31.493 30.8863 31.5775 30.7847C31.662 30.6832 31.6958 30.5478 31.662 30.4294L29.0421 19.193C29.059 19.1423 29.0252 19.0915 29.0083 19.0238L25.577 4.30148C25.5263 4.11534 25.3742 3.97997 25.1714 3.97997L18.1398 3.89535L16.365 0.274004C16.2974 0.121704 16.1453 0.0201718 15.9594 0.037094L14.3029 0.121697C14.1677 0.121697 14.0494 0.189387 13.9818 0.307843C13.9142 0.426298 13.8803 0.544755 13.9311 0.680133L14.8945 3.84459L13.6944 3.82766L13.593 0.510914C13.593 0.290925 13.4071 0.104784 13.1873 0.104784L11.2266 0.00324235C11.1083 -0.0136799 11.0069 0.0370862 10.9224 0.121697C10.8378 0.206308 10.7871 0.307842 10.7871 0.426297L10.6857 3.81074L1.77799 3.70921C1.64277 3.70921 1.57516 3.74305 1.49065 3.81074L0.138428 5.02914C0.0370115 5.13067 -0.0136998 5.26605 0.00320294 5.40143L3.84013 30.954C3.87393 31.157 4.04296 31.3093 4.24579 31.3093L6.02058 31.377L3.688 39.8212C3.65419 39.9397 3.67109 40.0581 3.7387 40.1596C3.80631 40.2612 3.90774 40.3289 4.02606 40.3458L6.08819 40.6842C6.1051 40.6842 6.13889 40.6842 6.15579 40.6842C6.34172 40.6842 6.51076 40.5658 6.56147 40.3796L9.07997 32.2062H9.28281V37.5198L9.23209 44.1194C9.23209 44.2379 9.2828 44.3394 9.36731 44.424C9.45183 44.5086 9.55324 44.5425 9.65466 44.5425H9.67156L11.1421 44.4748L11.7168 44.4579H11.7337H11.852C12.0718 44.441 12.2577 44.2717 12.2577 44.0517L12.4436 37.6551H13.3902L26.4222 37.6721L27.2504 39.8212L28.6026 43.5949C28.6702 43.7641 28.8224 43.8825 29.0083 43.8825C29.0252 43.8825 29.0252 43.8825 29.0421 43.8825L31.5606 43.6625C31.6958 43.6456 31.8141 43.5779 31.8817 43.4764C31.8986 43.4595 31.9325 43.4595 31.9494 43.4425C32.0339 43.3072 32.0508 43.1718 32.0001 43.0533ZM25.408 35.0153L16.0608 35.1337H12.545L12.6295 32.24H24.3938C24.3938 32.2739 24.3769 32.3077 24.3769 32.3247L25.408 35.0153ZM28.7716 31.377H7.76156V30.5309H28.7716V31.377ZM29.6506 30.1078C29.6337 30.1078 29.6168 30.1248 29.5999 30.1248C29.5999 29.8879 29.4139 29.7017 29.1773 29.7017H7.33899C7.10235 29.7017 6.91642 29.8879 6.91642 30.1248V30.5817L6.24031 30.5478L4.9557 22.1713L24.2417 21.8667C24.36 22.4759 24.4615 23.1697 24.3093 23.6097C24.1572 24.0835 23.7346 24.5066 23.329 24.9297C23.143 25.1158 22.974 25.3019 22.805 25.4881C22.6529 25.6742 22.6698 25.9281 22.8557 26.0804C22.9402 26.1481 23.0247 26.1819 23.1261 26.1819C23.2444 26.1819 23.3628 26.1311 23.4473 26.0296C23.5994 25.8604 23.7515 25.6911 23.9206 25.505C24.36 25.0481 24.8671 24.5235 25.0869 23.8805C25.3235 23.1697 25.1545 22.2898 25.0192 21.4944C24.9685 21.2406 24.9347 21.0206 24.9009 20.8176C24.8164 20.073 24.715 19.3284 24.6136 18.6008C24.4276 17.2808 24.2586 15.927 24.1403 14.5733C24.2079 14.5394 24.2924 14.5056 24.3431 14.4548C24.4107 14.421 24.4953 14.3533 24.5291 14.3533C24.7488 14.3871 24.9516 14.421 25.1545 14.4717C25.7292 14.6071 26.3715 14.7086 27.0138 14.2856L27.0476 14.4379C26.9292 14.4717 26.8109 14.5225 26.7433 14.641C26.5574 14.9286 26.3545 15.2332 26.2024 15.5886C25.9658 16.147 25.7123 16.7731 25.8813 17.3485C25.9827 17.6869 26.2193 17.9069 26.4729 18.0931C26.5912 19.4469 26.7771 21.7314 27.1659 23.0513C27.3011 23.5251 27.5039 23.982 27.7068 24.4051C27.7913 24.5912 27.8758 24.7773 27.9603 24.9635C26.4898 24.7943 25.3066 25.0312 24.4276 25.725C24.2417 25.8604 24.2079 26.1311 24.3431 26.3173C24.4276 26.4188 24.546 26.4865 24.6812 26.4865C24.7657 26.4865 24.8671 26.4527 24.9347 26.4019C25.6953 25.8265 26.7095 25.6404 28.0786 25.8265C28.1462 25.8435 28.1969 25.7927 28.2646 25.7758C28.3322 25.9281 28.4674 26.0465 28.6364 26.0465C28.6702 26.0465 28.704 26.0465 28.7378 26.0296C28.9576 25.9788 29.0928 25.7419 29.0421 25.5219C28.9069 24.9973 28.6871 24.5235 28.4674 24.0666C28.2646 23.6436 28.0786 23.2543 27.9772 22.8482C27.8927 22.5605 27.8251 22.2052 27.7575 21.8498L28.7547 21.8329L30.6986 30.1586L29.6506 30.1078ZM7.01784 5.70603C7.08545 5.80756 7.20377 5.89218 7.28829 5.95987C7.32209 5.99371 7.3559 6.01064 7.3559 5.97679C7.3897 6.07832 7.40659 6.23062 7.4235 6.38292C7.4404 6.68752 7.47422 7.07673 7.77847 7.39825C7.9644 7.60132 8.21793 7.66901 8.40386 7.71978C8.47147 7.7367 8.55599 7.75361 8.55599 7.75361C8.69121 7.92284 8.75882 8.14282 8.82643 8.41358C8.91094 8.71818 8.99546 9.03971 9.21519 9.34431C9.62086 9.88582 10.0434 9.91966 10.3646 9.93658C10.5167 9.9535 10.635 9.95351 10.7702 10.0212C10.9055 10.0889 11.0407 10.1566 11.1759 10.2412C11.4463 10.4104 11.7675 10.5966 12.1732 10.6304C12.5281 10.6642 12.8324 10.5627 13.069 10.4612C13.2211 10.4104 13.3564 10.3596 13.4409 10.3596C13.5761 10.3596 13.7282 10.4273 13.9142 10.5119C14.1677 10.6304 14.4043 10.7489 14.81 10.7489C14.9452 10.7489 15.0973 10.6981 15.3171 10.6135C15.4016 10.5796 15.4692 10.5627 15.5368 10.5289C15.5706 10.5627 15.6044 10.5965 15.6382 10.6135C15.7565 10.715 15.8918 10.8335 16.0608 10.9011C16.1115 10.9181 16.1622 10.935 16.2129 10.935C16.196 10.9858 16.1791 11.0534 16.1791 11.0873C16.1453 11.1888 16.1284 11.2734 16.1115 11.3411C15.9594 12.2042 16.1622 12.9149 16.6524 13.321C17.0243 13.6256 17.3961 13.5579 17.6497 13.5072C17.7173 13.4902 17.7849 13.4733 17.8356 13.4733C17.9032 13.4733 18.0722 13.5072 18.2074 13.541C18.3765 13.5918 18.5286 13.6256 18.6807 13.6425C18.8666 13.6595 19.0019 13.6256 19.1371 13.5918C19.1878 13.5749 19.2554 13.5579 19.2385 13.5579C19.2892 13.5918 19.4075 13.6933 19.4582 13.7441L19.5935 13.8625C19.9315 14.1671 20.3203 14.5056 20.8443 14.6579C21.0471 14.7256 21.2668 14.7425 21.4697 14.7425C21.6894 14.7425 21.9091 14.7086 22.112 14.641C22.1796 14.6071 22.2641 14.5733 22.3486 14.5225C22.3993 14.5056 22.4669 14.4548 22.45 14.4548C22.5852 14.4548 22.7374 14.5056 22.9064 14.5563C23.0416 14.5902 23.1768 14.641 23.329 14.6748C23.4473 16.0286 23.6332 17.3993 23.8022 18.7192C23.9037 19.4638 24.0051 20.1914 24.0896 20.936C24.0896 20.9699 24.1065 21.0037 24.1065 21.0375L18.4441 21.1222C17.8863 19.0746 16.4327 17.5177 14.5734 17.0101C12.8155 16.5362 10.8379 16.9085 9.45183 17.9746C8.38696 18.8038 7.77846 19.9714 7.69395 21.2914L4.83738 21.3421L2.26817 4.57224L6.7474 4.62301C6.7474 4.9953 6.7812 5.38451 7.01784 5.70603ZM17.5313 21.1222L8.53908 21.2745C8.6405 19.9714 9.33351 19.1253 9.95891 18.6515C11.1421 17.7377 12.8324 17.4162 14.3367 17.8223C15.8242 18.2115 17.0243 19.4976 17.5313 21.1222ZM27.4025 18.5669C27.673 18.7192 27.9434 18.973 28.2139 19.2946L28.6026 20.9529L27.673 20.9699C27.5546 20.1237 27.4701 19.2946 27.4025 18.5669ZM27.7068 17.7546L27.5039 17.6531C27.2166 17.5177 26.8109 17.3316 26.7433 17.1116C26.6419 16.7731 26.8954 16.1978 27.0138 15.927C27.0983 15.7409 27.1997 15.5717 27.318 15.4025L27.8927 17.89C27.8251 17.8392 27.7575 17.7716 27.7068 17.7546ZM26.8447 13.4226C26.8278 13.4395 26.794 13.4395 26.7771 13.4564C26.3715 13.8795 26.0334 13.8118 25.3573 13.6595C25.1376 13.6087 24.9009 13.5579 24.6474 13.5241C24.3431 13.4902 24.1065 13.6425 23.9206 13.7441C23.836 13.7948 23.7346 13.8625 23.6839 13.8625C23.5149 13.8625 23.3459 13.8118 23.1599 13.761C22.9571 13.6933 22.7374 13.6256 22.5007 13.6087C22.281 13.5918 22.0782 13.7102 21.9429 13.7779C21.9091 13.7948 21.8753 13.8118 21.8415 13.8287C21.6218 13.8964 21.3513 13.8964 21.0809 13.8287C20.7428 13.7441 20.4724 13.4902 20.1682 13.2195L20.0667 13.1179C19.8977 12.9487 19.6611 12.7287 19.3568 12.7118C19.2216 12.6949 19.0695 12.7287 18.9512 12.7626C18.8835 12.7795 18.799 12.7964 18.7652 12.7964C18.6638 12.7964 18.5624 12.7626 18.4441 12.7287C18.2412 12.678 18.0215 12.6103 17.7849 12.6272C17.6835 12.6272 17.582 12.6441 17.4806 12.678C17.2609 12.7118 17.2271 12.7118 17.1933 12.678C16.8383 12.3903 16.9059 11.7473 16.9566 11.4934C16.9566 11.4596 16.9735 11.3919 17.0074 11.3242C17.1257 10.8842 17.2271 10.5289 16.9735 10.2919C16.8383 10.1566 16.6524 10.1397 16.4496 10.1397C16.3988 10.1397 16.365 10.1397 16.3819 10.1397C16.3312 10.1227 16.2636 10.055 16.196 10.0043C16.0777 9.90274 15.9425 9.78428 15.7565 9.7166C15.5537 9.64891 15.3509 9.7166 15.0297 9.83505C14.9283 9.8689 14.81 9.91965 14.7593 9.91965C14.6072 9.91965 14.4381 9.85197 14.2353 9.76736C13.9987 9.66583 13.7451 9.54736 13.4409 9.54736H13.424C13.1704 9.54736 12.9507 9.63198 12.7479 9.69967C12.5619 9.76736 12.3929 9.83505 12.2239 9.81813C11.9872 9.8012 11.8013 9.68274 11.5647 9.54736C11.3956 9.44583 11.2435 9.36123 11.0576 9.27662C10.804 9.17508 10.5843 9.15816 10.3984 9.14123C10.1448 9.12431 10.0265 9.1074 9.85749 8.87049C9.73917 8.70126 9.67156 8.46434 9.60395 8.22743C9.51944 7.92283 9.41802 7.56747 9.18138 7.26287C9.02926 7.0598 8.77572 6.99212 8.58979 6.94136C8.50528 6.92443 8.38696 6.89058 8.35315 6.85674C8.25174 6.75521 8.25173 6.60291 8.21793 6.36599C8.20103 6.16293 8.18412 5.94294 8.09961 5.72296C8.032 5.55373 7.89678 5.43528 7.76156 5.35066C7.72775 5.31682 7.69394 5.2999 7.67704 5.28297C7.57562 5.13067 7.55872 4.87684 7.55872 4.65685L24.8164 4.87684L26.8447 13.4226ZM14.8945 0.950895L15.7396 0.90013L17.2102 3.87843L15.7904 3.86152L14.8945 0.950895ZM0.882152 5.50296L1.47374 4.96145L5.37827 30.514L4.63456 30.4801L0.882152 5.50296Z" fill="#B3675B"/>
</svg>
