<svg width="38" height="33" viewBox="0 0 38 33" fill="none" xmlns="http://www.w3.org/2000/svg">
<path fill-rule="evenodd" clip-rule="evenodd" d="M34.6335 5.72304H26.5786V5.65115C26.5648 5.52174 26.551 5.39233 26.4957 5.27729C24.6167 0.115202 18.8691 0.000169142 18.8691 0.000169142C12.8314 -0.158001 10.7313 5.34919 10.7313 5.34919C10.6899 5.46422 10.6622 5.59363 10.6622 5.72304H2.55207C1.19808 5.72304 0.0927734 6.87337 0.0927734 8.28252V30.4407C0.0927734 31.8498 1.19808 33.0002 2.55207 33.0002H34.6335C35.9875 33.0002 37.0928 31.8498 37.0928 30.4407V8.28252C37.0928 6.87337 35.9875 5.72304 34.6335 5.72304ZM5.5502 23.208H7.74699H7.76081V24.3008H5.5502V23.208ZM7.77463 22.0433C7.76081 22.0433 7.76081 22.0577 7.76081 22.0577H5.5502V19.4551H7.74699C7.76081 19.4551 7.76081 19.4694 7.76081 19.4694V22.0433H7.77463ZM7.77463 18.3047H7.76081H5.5502V16.723H7.77463V18.3047ZM31.1241 24.5309H28.8997V23.4381H31.0965H31.1103V24.5309H31.1241ZM31.1241 22.2878L31.1103 22.3021H28.9135V19.6995H31.1103C31.1103 19.6995 31.1241 19.6995 31.1241 19.7139V22.2878ZM31.1241 18.5492H31.1103H28.9135V16.9675H31.138V18.5492H31.1241ZM18.8277 2.63154H18.8415C18.8415 2.63154 22.4475 2.6603 23.912 5.72304H13.384C14.0058 4.65899 15.6361 2.54527 18.8277 2.63154ZM2.55207 6.442H34.6335C35.6144 6.442 36.402 7.26161 36.402 8.28252V20.2028C35.9184 20.8067 35.1861 20.8498 35.1861 20.8498L32.561 20.8786V20.0446C32.561 19.4838 32.2571 19.0093 31.815 18.7505V16.5793C31.815 16.3779 31.663 16.2198 31.4695 16.2198H28.5543C28.3609 16.2198 28.2089 16.3779 28.2089 16.5793V18.693C27.7253 18.9374 27.3937 19.4407 27.3937 20.0446V20.7492L9.21152 20.6342V19.8145C9.21152 19.2538 8.90756 18.7793 8.46544 18.5204V16.3492C8.46544 16.1479 8.31346 15.9897 8.12003 15.9897H5.2048C5.01137 15.9897 4.85939 16.1479 4.85939 16.3492V18.4629C4.37582 18.7074 4.04423 19.2106 4.04423 19.8145V20.5335L2.44154 20.591C1.52967 20.5623 1.0461 20.1596 0.783587 19.757V8.28252C0.783587 7.27599 1.57112 6.442 2.55207 6.442Z" fill="#9D7060"/>
<path fill-rule="evenodd" clip-rule="evenodd" d="M2.13764 10.4969C2.33107 10.4969 2.48305 10.3387 2.48305 10.1374C2.49687 9.27466 2.53832 8.67074 3.02189 8.0812C3.14623 7.95179 3.13242 7.72172 2.99425 7.59231C2.84227 7.4629 2.62121 7.47728 2.49687 7.62107C1.86132 8.38316 1.80605 9.17401 1.79224 10.1374C1.79224 10.3387 1.94422 10.4969 2.13764 10.4969Z" fill="#9D7060"/>
<path fill-rule="evenodd" clip-rule="evenodd" d="M3.34 9.46148C3.38145 9.47586 3.4229 9.49024 3.46435 9.49024C3.60251 9.49024 3.74068 9.40396 3.78213 9.26017C3.86502 9.01573 3.98937 8.7569 4.0999 8.52684C4.19661 8.33991 4.12753 8.12422 3.96174 8.03795C3.79594 7.9373 3.5887 8.00919 3.49198 8.18174C3.36764 8.44056 3.24329 8.72815 3.14658 9.00135C3.0775 9.1739 3.17421 9.38958 3.34 9.46148Z" fill="#9D7060"/>
<path fill-rule="evenodd" clip-rule="evenodd" d="M4.83147 8.91542C4.96964 8.91542 5.1078 8.82915 5.17688 8.71412C5.27359 8.54157 5.20451 8.34026 5.03872 8.23961C4.87292 8.13896 4.65186 8.21085 4.55515 8.3834C4.55515 8.3834 4.52751 8.42654 4.52751 8.44092C4.4308 8.59909 4.5137 8.78601 4.67949 8.88667C4.72094 8.91542 4.77621 8.91542 4.83147 8.91542Z" fill="#9D7060"/>
<path fill-rule="evenodd" clip-rule="evenodd" d="M6.13046 9.05901H6.14428C6.39297 9.04463 6.62785 9.03025 6.87654 9.01587L7.31866 8.98711C7.51209 8.97273 7.65025 8.80018 7.63643 8.59888C7.62262 8.39757 7.45682 8.2394 7.26339 8.25378L6.82127 8.28254C6.5864 8.31129 6.35152 8.32567 6.11664 8.34005C5.92322 8.34005 5.77124 8.5126 5.78505 8.71391C5.79887 8.90084 5.95085 9.05901 6.13046 9.05901Z" fill="#9D7060"/>
<path fill-rule="evenodd" clip-rule="evenodd" d="M2.17939 12.553C1.98596 12.553 1.83398 12.7111 1.83398 12.9125C1.83398 14.3504 1.86162 15.8027 1.87543 17.2549C1.87543 17.4562 2.02741 17.6144 2.22084 17.6144C2.41427 17.6144 2.56625 17.4419 2.56625 17.2549C2.53861 15.817 2.5248 14.3647 2.5248 12.9268C2.5248 12.7111 2.37282 12.553 2.17939 12.553Z" fill="#9D7060"/>
<path fill-rule="evenodd" clip-rule="evenodd" d="M3.35341 15.1845C3.14616 15.1557 3.008 15.3283 2.99419 15.5296C2.96655 16.0328 2.96655 16.5217 2.96655 17.025C2.96655 17.2263 3.11853 17.3845 3.31196 17.3845C3.50539 17.3845 3.65737 17.2263 3.65737 17.025C3.65737 16.5361 3.65737 16.0472 3.685 15.5583C3.685 15.3714 3.54684 15.1989 3.35341 15.1845Z" fill="#9D7060"/>
<path fill-rule="evenodd" clip-rule="evenodd" d="M29.784 8.68517C30.0741 8.65641 30.3643 8.68517 30.6682 8.71393C30.8479 8.7283 31.0137 8.74268 31.1933 8.74268C31.1933 8.74268 31.1933 8.74268 31.2071 8.74268C31.3867 8.74268 31.5525 8.58451 31.5525 8.39759C31.5525 8.19628 31.4143 8.03811 31.2209 8.02373C31.0551 8.02373 30.8893 8.00935 30.7235 7.99497C30.4057 7.96621 30.0741 7.95183 29.7426 7.96621C29.5491 7.98059 29.411 8.15314 29.4248 8.35445C29.4386 8.55576 29.6044 8.69955 29.784 8.68517Z" fill="#9D7060"/>
<path fill-rule="evenodd" clip-rule="evenodd" d="M32.2157 8.45509C32.2709 8.5845 32.3953 8.6564 32.5196 8.6564C32.5749 8.6564 32.6163 8.64202 32.6716 8.61326C32.8374 8.52699 32.9203 8.3113 32.8374 8.13875L32.6854 7.82241C32.6025 7.64986 32.3953 7.57797 32.2157 7.66424C32.0499 7.75052 31.9808 7.9662 32.0637 8.15313L32.2157 8.45509Z" fill="#9D7060"/>
<path fill-rule="evenodd" clip-rule="evenodd" d="M33.5005 8.51258C33.5558 8.65637 33.6801 8.74264 33.8183 8.74264C33.8597 8.74264 33.9012 8.72827 33.9426 8.71389C34.1223 8.64199 34.2051 8.4263 34.1361 8.25375C34.067 8.05245 33.9841 7.8799 33.8736 7.69297C33.7768 7.52042 33.5696 7.44853 33.4038 7.54918C33.238 7.64983 33.1689 7.86552 33.2656 8.03807C33.3624 8.19624 33.4314 8.34003 33.5005 8.51258Z" fill="#9D7060"/>
<path fill-rule="evenodd" clip-rule="evenodd" d="M34.495 8.03799C35.1167 8.29681 35.1996 9.04452 35.2273 9.83537C35.2411 10.0223 35.3931 10.1805 35.5727 10.1805H35.5865C35.7799 10.1661 35.9181 10.0079 35.9181 9.80661C35.8905 9.07328 35.8352 7.8223 34.7575 7.37655C34.5779 7.30465 34.3845 7.39093 34.3016 7.57786C34.2325 7.75041 34.3154 7.95171 34.495 8.03799Z" fill="#9D7060"/>
<path fill-rule="evenodd" clip-rule="evenodd" d="M35.5036 12.3518C35.2964 12.3518 35.1444 12.4956 35.1444 12.6969C35.0892 13.6603 35.0892 14.6381 35.0753 15.5727C35.0753 16.0329 35.0753 16.5074 35.0615 16.9675C35.0615 17.1688 35.2135 17.327 35.4069 17.327C35.6004 17.327 35.7523 17.1688 35.7523 16.9675C35.7662 16.493 35.7662 16.0329 35.7662 15.5583C35.7662 14.6237 35.78 13.6603 35.8352 12.7113C35.8352 12.5244 35.6971 12.3518 35.5036 12.3518Z" fill="#9D7060"/>
<path fill-rule="evenodd" clip-rule="evenodd" d="M33.9017 14.983L33.874 16.6079C33.874 16.8092 34.026 16.9674 34.2056 16.9817C34.2056 16.9817 34.2056 16.9817 34.2194 16.9817C34.4129 16.9817 34.5648 16.8236 34.5648 16.6366L34.5925 15.0118C34.5925 14.8105 34.4405 14.6523 34.2609 14.6379C34.0398 14.6379 33.9017 14.7817 33.9017 14.983Z" fill="#9D7060"/>
<path fill-rule="evenodd" clip-rule="evenodd" d="M32.6439 15.7309C32.6301 15.9466 32.6301 16.1623 32.6439 16.3636V16.493C32.6439 16.6943 32.7959 16.8525 32.9893 16.8525C33.1827 16.8525 33.3347 16.6799 33.3347 16.493V16.3492C33.3347 16.1623 33.3209 15.9753 33.3347 15.7884C33.3485 15.5871 33.2104 15.4146 33.0169 15.4002C32.8512 15.3714 32.6577 15.5296 32.6439 15.7309Z" fill="#9D7060"/>
<path fill-rule="evenodd" clip-rule="evenodd" d="M15.1523 16.8381L22.1986 16.8668C22.5025 16.8668 22.7512 16.608 22.7512 16.2917C22.7512 15.9753 22.5025 15.7165 22.1986 15.7165L15.1523 15.6877C14.8483 15.6877 14.5996 15.9466 14.5996 16.2629C14.5996 16.5792 14.8483 16.8381 15.1523 16.8381Z" fill="#9D7060"/>
</svg>
