<svg width="33" height="33" viewBox="0 0 33 33" fill="none" xmlns="http://www.w3.org/2000/svg">
<path d="M32.261 8.34277C32.261 3.73993 28.4748 0.00012207 23.8097 0.00012207C22.187 0.00012207 20.632 0.457016 19.2797 1.30313C19.1614 1.26928 19.06 1.23544 18.9417 1.23544H18.9248C18.6036 1.23544 18.3163 1.37083 18.0966 1.59081C17.8937 1.8108 17.7923 2.08156 17.7754 2.36923C17.505 2.40308 17.2514 2.50461 17.0486 2.70767C16.8288 2.92766 16.7105 3.23226 16.7105 3.55378C16.7105 3.62147 16.7443 3.68917 16.7612 3.75685C15.8485 5.11063 15.3583 6.70131 15.3583 8.32585C15.3583 8.54583 15.3752 8.76582 15.3921 8.96888L14.5977 9.79808C14.5132 9.88269 14.4794 9.98423 14.4794 10.1027C14.4794 10.2211 14.5301 10.3227 14.6146 10.4073L14.7498 10.5427L2.1911 24.605C1.65021 25.1973 1.65021 26.0772 2.07278 26.7203C2.07278 26.7203 2.05587 26.7203 2.03897 26.7372L1.00791 27.871C0.855787 28.0402 0.855784 28.311 1.02481 28.4633L0.112062 29.4448C-0.0400622 29.614 -0.0400587 29.8847 0.128969 30.037L0.551537 30.4262C1.60352 31.5001 2.12374 31.8683 2.79959 32.4908C2.88411 32.5584 2.98553 32.6092 3.08694 32.6092C3.20526 32.6092 3.30668 32.5585 3.39119 32.4738L4.32084 31.4585C4.37155 31.4923 4.43916 31.5262 4.48987 31.5262H4.50677C4.62509 31.5262 4.72651 31.4754 4.79412 31.3908L5.82518 30.257C5.84209 30.2401 5.84208 30.2232 5.84208 30.2063C6.06182 30.2909 6.28156 30.3586 6.51819 30.3586C6.92386 30.3586 7.32953 30.2232 7.66758 29.9186L21.7813 17.4977L21.3926 17.0577L21.8659 17.5146C21.9504 17.5992 22.0518 17.6331 22.1532 17.6331C22.2715 17.6331 22.3729 17.5823 22.4575 17.4977L23.3364 16.5839C23.3702 16.5839 23.3871 16.6177 23.4209 16.6177H23.4378C23.4547 16.6177 23.4716 16.6347 23.4885 16.6347C23.5561 16.6516 23.6237 16.6685 23.759 16.6685C25.5845 16.6685 27.3254 16.1608 28.6608 15.2639C28.6777 15.247 28.6777 15.2301 28.6777 15.2301C28.6946 15.2132 28.7115 15.2301 28.7115 15.2132C28.7115 15.2132 28.7115 15.1963 28.7284 15.1793C28.9988 15.1624 29.2693 15.0609 29.4721 14.8409C29.6918 14.6209 29.7763 14.3332 29.7932 14.0625C30.0637 14.0286 30.3172 13.9271 30.5201 13.724C30.7567 13.4702 30.8581 13.1487 30.8412 12.8272C30.8581 12.8102 30.875 12.8102 30.875 12.7933C31.8047 11.4734 32.261 9.93346 32.261 8.34277ZM3.05314 31.5939L1.00791 29.7155L1.5826 29.0894L3.62783 30.9847L3.05314 31.5939ZM4.47297 30.5109L1.86995 28.1248L2.32632 27.6172L4.91243 30.0032L4.47297 30.5109ZM7.12669 29.2925C6.78864 29.5971 6.26465 29.5801 5.9435 29.2755L2.85031 26.4157C2.49535 26.0942 2.46154 25.5357 2.7827 25.1634L12.637 14.1471L18.2149 19.5284L7.12669 29.2925ZM18.8403 18.9699L13.1779 13.521L15.3076 11.1349L21.2236 16.8716L18.8403 18.9699ZM22.187 16.6347L15.4597 10.1196L15.8992 9.67963L18.3332 11.9641L22.6603 16.1608L22.187 16.6347ZM28.9143 14.2655C28.7791 14.4009 28.5762 14.4009 28.441 14.2655L17.6402 3.77377C17.5726 3.70608 17.5388 3.62147 17.5388 3.53686C17.5388 3.45225 17.5726 3.36764 17.6402 3.29995C17.7078 3.23226 17.7923 3.19842 17.8768 3.19842C17.9613 3.19842 18.0458 3.23226 18.1135 3.29995L28.9143 13.7917C29.0326 13.9271 29.0495 14.1302 28.9143 14.2655ZM29.9623 13.1487C29.8439 13.284 29.6242 13.284 29.489 13.1487L18.6882 2.65691C18.6205 2.58922 18.5867 2.50461 18.5867 2.42C18.5867 2.33539 18.6205 2.25078 18.6882 2.18309C18.7558 2.1154 18.8403 2.08155 18.9248 2.08155C19.0093 2.08155 19.0938 2.1154 19.1614 2.18309L29.9623 12.6749C30.0975 12.8102 30.0975 13.0133 29.9623 13.1487Z" fill="#506A68"/>
<path d="M18.1298 16.0256C18.2143 16.1103 18.3157 16.1441 18.434 16.1441C18.5355 16.1441 18.6538 16.1103 18.7383 16.0256C18.9073 15.8564 18.9073 15.5857 18.7383 15.4334L16.524 13.2335C16.355 13.0643 16.0846 13.0643 15.9324 13.2335C15.7634 13.4027 15.7634 13.6735 15.9324 13.8258L18.1298 16.0256Z" fill="#506A68"/>
<path d="M15.6794 15.2472L16.7781 16.3471C16.8626 16.4317 16.964 16.4656 17.0824 16.4656C17.1838 16.4656 17.3021 16.4317 17.3866 16.3471C17.5556 16.1779 17.5556 15.9071 17.3866 15.7548L16.2879 14.6549C16.1189 14.4856 15.8484 14.4856 15.6963 14.6549C15.5104 14.8072 15.5104 15.0779 15.6794 15.2472Z" fill="#506A68"/>
<path d="M12.5349 21.525L10.6925 19.7143C10.608 19.6297 10.5066 19.5958 10.3883 19.5958C10.27 19.5958 10.1685 19.6466 10.084 19.7143L7.07535 22.7772C6.99084 22.8618 6.95703 22.9633 6.95703 23.0818C6.95703 23.2002 7.00774 23.3018 7.07535 23.3864L8.91775 25.1971C9.00226 25.2817 9.10367 25.3155 9.22199 25.3155C9.32341 25.3155 9.44172 25.2817 9.52624 25.1971L12.5349 22.1342C12.6194 22.0495 12.6532 21.948 12.6532 21.8296C12.6532 21.7111 12.6025 21.6096 12.5349 21.525ZM9.22199 24.2833L7.98809 23.0649L8.93465 22.1003L10.1854 23.3018L9.22199 24.2833ZM10.777 22.7095L9.52624 21.508L10.4052 20.6281L11.6391 21.8465L10.777 22.7095Z" fill="#506A68"/>
</svg>
