<svg width="41" height="43" viewBox="0 0 41 43" fill="none" xmlns="http://www.w3.org/2000/svg">
<path d="M33.0118 2.41996C33.0118 2.38611 33.0118 2.36919 32.9949 2.33534C32.978 2.3015 32.9442 2.28459 32.9273 2.26766C32.9104 2.23382 32.8766 2.21689 32.8597 2.19997C32.7921 2.14921 32.7076 2.11536 32.623 2.11536H32.6061L28.9044 2.26766C28.8875 2.26766 28.8875 2.28458 28.8706 2.28458H28.8537C28.7354 2.28458 28.6171 2.35227 28.5495 2.43688L19.9967 13.1825L8.60429 27.4479C7.89438 27.2279 7.40419 27.1433 7.35348 27.1433C7.25207 27.1264 7.16755 27.1772 7.08303 27.2279L4.00675 25.3496C3.83772 25.248 3.61797 25.2819 3.48274 25.4173L2.57001 26.348C2.4855 26.4326 2.45168 26.551 2.45168 26.6695C2.45168 26.7879 2.51931 26.8895 2.60382 26.9741L6.32241 30.1385C6.40693 30.2062 6.49145 30.2401 6.59286 30.2401C6.64357 30.3924 6.72809 30.5278 6.8295 30.6631C5.12233 32.4569 3.14471 35.8413 2.4686 37.0767C2.23196 36.8736 1.91079 36.789 1.60654 36.8228C1.30229 36.8567 1.01497 37.009 0.812138 37.2459C0.541695 37.5843 0.507879 38.0074 0.643101 38.3797C0.490976 38.4473 0.338843 38.5489 0.237426 38.6843C-0.0668227 39.0565 -0.0668113 39.5811 0.169827 39.9704C0.0684104 40.258 -0.134432 41.0703 0.845925 41.9164C0.879731 41.9503 1.40371 42.5087 2.40097 42.5087C2.63761 42.5087 2.90806 42.4748 3.1954 42.4072C3.2123 42.4072 3.21232 42.3902 3.21232 42.3902C3.29683 42.4071 3.38134 42.441 3.46585 42.441C3.49966 42.441 3.55038 42.441 3.58418 42.441C3.87153 42.4071 4.14195 42.2718 4.32788 42.0349C4.4462 41.8826 4.51382 41.6964 4.54762 41.5103C4.56453 41.5103 4.58144 41.5272 4.61525 41.5272C4.9533 41.5272 5.29135 41.3749 5.52798 41.0872C5.73082 40.8503 5.81532 40.5457 5.78152 40.2242C5.74771 39.9365 5.61249 39.6827 5.40965 39.4965C6.39001 38.5997 9.07755 36.0105 10.8016 33.5907C10.9876 33.6584 11.2073 33.7091 11.4777 33.7091C11.5116 33.7091 11.5454 33.6922 11.5623 33.6922C11.5961 33.7599 11.613 33.8276 11.6975 33.8784L15.5344 36.3828C15.602 36.4336 15.6865 36.4505 15.771 36.4505C15.8893 36.4505 15.9908 36.3998 16.0753 36.3151L16.988 35.3675C17.0725 35.2829 17.1064 35.1644 17.1064 35.0629C17.1064 34.9445 17.0556 34.8429 16.9711 34.7583L14.0977 32.22C14.0977 32.2031 14.1146 32.2031 14.1146 32.1861C14.1315 32.1015 14.1146 32 14.0808 31.9154C14.0131 31.78 13.9286 31.6446 13.861 31.5262C13.9455 31.5092 14.0301 31.4923 14.0977 31.4077L33.671 6.85358C33.7386 6.75205 33.7724 6.63358 33.7555 6.51513L33.0963 2.45381C33.0456 2.45381 33.0287 2.43688 33.0118 2.41996ZM7.438 28.0233C8.31694 28.2094 11.5961 29.1063 13.1849 32.1354C13.1342 32.2369 12.999 32.3723 12.7623 32.4907C12.306 31.8646 10.2438 29.3263 7.30278 28.6494C7.28587 28.4632 7.28588 28.2432 7.438 28.0233ZM3.48274 26.6187L3.83771 26.2464L6.55905 27.9217C6.39002 28.3956 6.45764 28.8525 6.55905 29.1401C6.54215 29.174 6.54214 29.1909 6.52524 29.2417L3.48274 26.6187ZM0.98115 40.7318L2.04603 41.5949C1.65727 41.5103 1.43752 41.3241 1.40372 41.3072C1.15018 41.0872 1.04876 40.9011 0.98115 40.7318ZM3.66868 41.4595C3.61797 41.5103 3.55036 41.5441 3.48274 41.561C3.41513 41.561 3.34753 41.5441 3.27992 41.5103L0.91355 39.5981C0.795231 39.4965 0.778322 39.3273 0.879738 39.2088C0.930446 39.1581 0.998058 39.1242 1.06567 39.1073C1.08257 39.1073 1.08258 39.1073 1.09948 39.1073C1.16709 39.1073 1.21778 39.1242 1.26849 39.175L3.63489 41.0872C3.7363 41.1718 3.75319 41.358 3.66868 41.4595ZM4.85189 40.5288C4.73357 40.6642 4.53073 40.698 4.39551 40.5796L1.50513 38.2443C1.36991 38.1258 1.3361 37.9228 1.45442 37.7874C1.50513 37.7197 1.58965 37.6689 1.67417 37.6689C1.69107 37.6689 1.69108 37.6689 1.70798 37.6689C1.77559 37.6689 1.8601 37.6859 1.9108 37.7366L2.35027 38.092C2.35027 38.092 2.35027 38.092 2.35027 38.1089L4.36169 39.7334C4.3786 39.7504 4.36171 39.7842 4.37861 39.8011C4.41242 39.835 4.4631 39.835 4.51381 39.8519L4.78426 40.0719C4.85187 40.1226 4.90259 40.2073 4.90259 40.2919C4.9364 40.3765 4.90259 40.4611 4.85189 40.5288ZM4.73355 38.9042L3.11091 37.6012C3.71941 36.5182 5.81533 32.8799 7.5056 31.137C7.59011 31.1708 7.69153 31.2216 7.79294 31.2723C6.67736 32.5923 5.74772 34.0476 4.86878 35.486L5.57869 35.9259C6.47453 34.4706 7.42109 32.9646 8.53667 31.6785C9.04375 32 9.60153 32.4569 10.0579 33.0661C8.38453 35.469 5.6125 38.092 4.73355 38.9042ZM10.8354 32.6769C9.70296 31.0523 7.94506 30.3924 7.52249 30.2401C7.31966 30.037 7.30277 29.7324 7.35348 29.4955C9.56774 30.1047 11.258 31.9323 11.9003 32.7276C11.3763 32.9307 10.9707 32.7615 10.8354 32.6769ZM15.6696 35.4521L12.475 33.3538C12.5257 33.3368 12.5595 33.3199 12.6102 33.2861C12.6609 33.3199 12.7285 33.3538 12.7962 33.3538C12.8469 33.3538 12.8807 33.3538 12.9314 33.3368C13.2187 33.2353 13.4385 33.083 13.6075 32.9307L16.0415 35.0798L15.6696 35.4521ZM13.3877 30.8662C12.9652 30.257 12.4919 29.7493 11.9848 29.3263L28.803 8.0212L32.3695 3.55374L32.8428 6.49822L13.3877 30.8662Z" fill="#084D65"/>
<path d="M11.9684 5.80443C13.7094 6.68439 14.9095 9.93345 14.9264 9.96729C14.994 10.1365 15.1461 10.2381 15.3151 10.2381H15.332C15.518 10.2211 15.6701 10.1027 15.7208 9.91653C16.3462 7.47973 18.4928 5.46599 18.5266 5.44907C18.645 5.34754 18.6788 5.19524 18.6619 5.04294C18.645 4.89064 18.5267 4.77218 18.3745 4.73834C17.4618 4.45066 16.2279 3.48609 15.5349 0.524706C15.4842 0.304717 15.4165 0.0170443 15.0785 0.00012207C14.8588 0.00012207 14.6728 0.16935 14.6559 0.389338C14.4193 3.24919 11.9515 5.04293 11.9177 5.05985C11.7994 5.14446 11.7318 5.29677 11.7487 5.43214C11.7656 5.56752 11.8332 5.73674 11.9684 5.80443ZM15.1292 2.16616C15.687 3.70608 16.4814 4.75525 17.4956 5.29676C16.904 5.92288 15.8898 7.14129 15.2644 8.64736C14.7911 7.66588 13.9629 6.21057 12.8642 5.38138C13.5065 4.83987 14.5714 3.723 15.1292 2.16616Z" fill="#084D65"/>
<path d="M33.3492 32.5416C32.4364 32.2539 31.2025 31.2893 30.5095 28.3279C30.4588 28.1079 30.3912 27.8203 30.0531 27.8033C29.8334 27.8033 29.6474 27.9726 29.6305 28.1926C29.3939 31.0524 26.9092 32.8461 26.8923 32.8631C26.774 32.9477 26.7064 33.1 26.7233 33.2354C26.7402 33.3707 26.8247 33.523 26.9599 33.5738C28.7009 34.4538 29.901 37.7028 29.9179 37.7367C29.9855 37.9059 30.1376 38.0074 30.3067 38.0074H30.3236C30.5095 37.9905 30.6616 37.872 30.7123 37.6859C31.3377 35.2491 33.4844 33.2354 33.5182 33.2184C33.6365 33.1169 33.6703 32.9646 33.6534 32.8123C33.6365 32.66 33.5013 32.5923 33.3492 32.5416ZM30.256 36.4506C29.7827 35.4691 28.9545 34.0138 27.8558 33.1846C28.4812 32.6262 29.546 31.5262 30.1038 29.9694C30.6616 31.5093 31.456 32.5585 32.4702 33.1C31.8955 33.7261 30.8814 34.9445 30.256 36.4506Z" fill="#084D65"/>
<path d="M40.3137 16.2288C39.4855 15.9749 38.3699 15.1457 37.7614 12.5905C37.7107 12.4043 37.6431 12.1167 37.305 12.0997C37.0515 12.1336 36.8994 12.2689 36.8825 12.4889C36.6796 14.9427 34.4315 16.4995 34.4146 16.5164C34.2963 16.601 34.2118 16.7533 34.2287 16.9056C34.2456 17.0579 34.3301 17.1933 34.4654 17.261C36.0373 18.0225 37.1191 20.8316 37.136 20.8485C37.2036 21.0177 37.3557 21.1193 37.5247 21.1193H37.5417C37.7276 21.1023 37.8797 20.9839 37.9304 20.7977C38.4882 18.6994 40.4489 16.9564 40.4658 16.9395C40.5841 16.8379 40.6349 16.6856 40.601 16.5334C40.5672 16.398 40.4658 16.2795 40.3137 16.2288ZM37.491 19.5793C37.0684 18.7332 36.3416 17.5318 35.395 16.838C35.9528 16.3472 36.8655 15.4165 37.3726 14.1473C37.9473 15.6195 38.7418 16.381 39.4517 16.7872C38.9108 17.3287 38.0487 18.344 37.491 19.5793Z" fill="#084D65"/>
</svg>
