<svg width="42" height="41" viewBox="0 0 42 41" fill="none" xmlns="http://www.w3.org/2000/svg">
<path d="M3.63651 20.5001C3.22699 20.9862 3.17785 21.707 3.4727 22.5954C3.53822 22.763 3.68565 22.8804 3.86584 22.8804C3.91498 22.8804 3.94774 22.8804 3.99688 22.8636C4.20983 22.7965 4.3245 22.5451 4.25897 22.3272C4.14431 21.992 3.99688 21.3718 4.27535 21.0365C4.42278 20.8521 4.4064 20.6007 4.22621 20.4499C4.04602 20.299 3.78393 20.3158 3.63651 20.5001Z" fill="#084D65"/>
<path d="M5.4387 21.8245C5.20937 21.7742 4.99643 21.9419 4.96366 22.1598C4.9309 22.3106 4.9309 22.4615 4.94728 22.6123C4.94728 22.847 5.14385 23.0146 5.3568 23.0146C5.3568 23.0146 5.3568 23.0146 5.37318 23.0146C5.60251 23.0146 5.7827 22.8135 5.76632 22.5788C5.76632 22.4783 5.76632 22.3777 5.7827 22.2939C5.79908 22.076 5.65165 21.8581 5.4387 21.8245Z" fill="#084D65"/>
<path d="M6.76532 23.2659C6.76532 23.0312 6.58513 22.8468 6.35581 22.8468C6.12648 22.8468 5.94629 23.0312 5.94629 23.2659V23.2994C5.94629 23.534 6.12648 23.7017 6.35581 23.7017C6.58513 23.7017 6.76532 23.5005 6.76532 23.2659Z" fill="#084D65"/>
<path d="M5.70054 29.1158C5.70054 28.8811 5.52035 28.6968 5.3074 28.68C5.09445 28.7135 4.89789 28.8644 4.88151 29.0823C4.86513 29.8031 5.15998 30.4065 5.76606 30.8591C5.83158 30.9093 5.92987 30.9429 6.01177 30.9429C6.14282 30.9429 6.25748 30.8758 6.33938 30.7753C6.47043 30.5909 6.43767 30.3227 6.25748 30.1886C5.86435 29.9036 5.68416 29.5684 5.70054 29.1158Z" fill="#084D65"/>
<path d="M7.33863 28.7638C7.25673 28.5459 7.01102 28.4454 6.79807 28.5292C6.58512 28.613 6.48684 28.8644 6.58512 29.0823C6.68341 29.3002 6.78169 29.4846 6.91274 29.6522C6.99464 29.7528 7.1093 29.8031 7.22397 29.8031C7.32225 29.8031 7.42054 29.7696 7.48606 29.7025C7.66625 29.5517 7.68263 29.2835 7.5352 29.1158C7.4533 29.0153 7.38778 28.9147 7.33863 28.7638Z" fill="#084D65"/>
<path d="M8.45282 28.2106L8.8132 28.0095C8.69853 27.8083 8.45282 27.7245 8.25625 27.8418C8.05969 27.9592 7.97778 28.2106 8.09245 28.4117C8.09245 28.4117 8.14159 28.5123 8.15797 28.5123L8.82958 28.043L8.45282 28.2106Z" fill="#084D65"/>
<path d="M10.5165 32.9544C10.0906 32.9041 9.73021 32.6694 9.4845 32.2671C9.36984 32.066 9.10775 32.0157 8.92756 32.133C8.73099 32.2504 8.68185 32.5185 8.79652 32.7029C9.17327 33.3231 9.76297 33.6919 10.4346 33.7589C10.451 33.7589 10.4673 33.7589 10.4837 33.7589C10.6967 33.7589 10.8769 33.6081 10.8932 33.3902C10.9096 33.189 10.7458 32.9879 10.5165 32.9544Z" fill="#084D65"/>
<path d="M11.0898 31.0267C10.9096 30.8926 10.6475 30.9261 10.5165 31.1105C10.3854 31.2949 10.4182 31.5631 10.5984 31.6972C10.7622 31.8145 10.9096 31.9151 11.0898 31.9821C11.1389 31.9989 11.2045 32.0157 11.2536 32.0157C11.4174 32.0157 11.5648 31.9151 11.6304 31.7642C11.7123 31.5463 11.614 31.3116 11.4174 31.2111C11.2864 31.1776 11.1881 31.1105 11.0898 31.0267Z" fill="#084D65"/>
<path d="M12.3019 29.7193C12.2036 29.7025 12.1217 29.6857 12.0234 29.6857C11.7777 29.6522 11.5975 29.8198 11.5647 30.0545C11.532 30.2892 11.6958 30.4903 11.9251 30.5238L12.1708 30.5574C12.1872 30.5574 12.2199 30.5574 12.2363 30.5574C12.4329 30.5574 12.6131 30.4065 12.6458 30.2054C12.6786 29.9707 12.5312 29.7528 12.3019 29.7193Z" fill="#084D65"/>
<path d="M40.2637 26.7356C39.6739 26.3166 38.8385 26.1825 38.0686 26.1489C41.7215 23.5173 41.9836 18.5557 41.9836 18.4552C41.9181 17.5668 41.6396 16.9801 41.1318 16.6951C40.4111 16.3096 39.5757 16.7789 39.4282 16.8628L33.6786 21.7573C33.6622 21.3382 33.564 20.9024 33.3346 20.5169C33.0234 19.9973 32.532 19.6788 31.9914 19.5782C33.7933 15.6056 31.2707 13.3595 30.5335 12.8063C30.4025 10.9122 29.7473 9.43716 28.5842 8.41468C28.4204 8.28058 28.2566 8.16325 28.0928 8.04591C29.0757 7.76096 29.9275 7.44248 30.5827 7.05695C31.7621 6.36971 32.4173 5.46455 32.4173 4.49235C32.4173 3.52015 31.7621 2.615 30.5827 1.92776C28.5187 0.754415 24.5218 0.00012207 20.1646 0.00012207C15.8073 0.00012207 11.7941 0.754415 9.71373 1.96128C8.53432 2.63177 7.8791 3.55368 7.8791 4.52588C7.8791 5.49808 8.53432 6.40323 9.71373 7.09047C10.3526 7.45924 11.188 7.77772 12.1381 8.06267C11.2863 8.41468 10.6802 8.86725 10.631 8.91754C8.27223 10.8284 8.71451 13.2422 9.07488 14.3149C7.51872 14.6166 6.92902 16.0414 6.83073 16.8628C6.74883 18.1367 7.06006 19.1592 7.76443 19.8799C8.07566 20.1984 8.43604 20.3996 8.79641 20.5672C8.5507 20.7851 8.35413 21.0533 8.23947 21.4053C8.17395 21.6232 8.14119 21.8578 8.14119 22.0758L2.50624 17.265C2.40796 17.2148 1.58892 16.7287 0.868175 17.1309C0.343994 17.4159 0.0655226 18.0026 0 18.9413C0 18.9915 0.262091 23.9699 3.91498 26.5848C3.14509 26.6015 2.30967 26.7524 1.71997 27.1714C1.27769 27.4899 0.99922 27.909 0.917317 28.5124C0.917317 28.5794 0.884555 30.0377 2.04758 31.2446C2.86661 32.0995 4.07878 32.6023 5.61857 32.7364C5.24181 33.189 4.83229 33.7924 4.76677 34.4629C4.71763 34.9825 4.84867 35.4519 5.17629 35.8542C5.19267 35.8709 6.53588 37.5974 8.99298 36.6252C8.84555 37.1113 8.78003 37.6645 8.96022 38.1673C9.07488 38.5026 9.36973 38.9552 10.1724 39.1898C10.1888 39.1898 10.2215 39.1898 10.2871 39.1898C10.7785 39.1898 12.7769 39.0054 15.0866 36.5247C15.4306 36.9102 15.8892 37.2119 16.397 37.4466C16.397 37.4801 16.3807 37.5136 16.3807 37.5639C16.2824 38.1506 16.2168 38.6534 16.3807 39.0054C16.741 39.81 17.6911 40.1117 18.3791 40.3464L18.5265 40.3967C19.7223 40.799 20.9345 41.0001 22.0811 41.0001C23.0967 41.0001 24.0796 40.8325 24.9477 40.514C26.2254 40.0447 27.0117 39.5418 27.3393 38.9887C27.6833 38.402 27.5686 37.6309 27.454 36.9605C27.4376 36.8934 27.4376 36.8264 27.4212 36.7593C29.2067 38.5193 30.7301 38.7875 31.4509 38.7875C31.713 38.7875 31.8768 38.754 31.9095 38.7372C32.6139 38.5193 32.9087 38.0668 33.0234 37.7315C33.2036 37.2287 33.1381 36.6755 32.9906 36.1894C35.4477 37.1616 36.791 35.4351 36.791 35.4184C37.1186 34.9993 37.266 34.5467 37.2169 34.0271C37.1513 33.3566 36.7418 32.7532 36.3651 32.3006C37.9048 32.1665 39.1006 31.6637 39.936 30.8088C41.0991 29.6019 41.0663 28.1269 41.0663 28.0095C40.9844 27.4731 40.7223 27.0541 40.2637 26.7356ZM32.663 20.9862C32.9251 21.4053 32.9743 21.9584 32.7941 22.3775C32.6794 22.6289 32.2699 22.83 31.7785 22.8636C31.2707 22.8971 30.7956 22.763 30.5663 22.5283C30.6482 22.0255 30.6646 21.4723 30.681 20.9192C31.0741 20.5504 31.4181 20.366 31.7293 20.3996C32.2371 20.4163 32.532 20.7683 32.663 20.9862ZM24.6856 30.2054C26.3073 30.3897 27.585 31.848 27.6997 33.6583C27.7488 34.3121 27.4704 34.9825 26.9626 35.5357C26.9462 35.5525 26.9134 35.5357 26.8807 35.5692C26.8643 35.586 26.8643 35.6195 26.8479 35.653C26.291 36.1894 25.5538 36.5247 24.8331 36.5247C24.8003 36.5247 24.7676 36.5247 24.7348 36.5247C24.7348 36.5079 24.7348 36.4911 24.7348 36.4744C24.7348 36.0721 24.7348 35.653 24.7184 35.2507C24.702 35.0161 24.702 34.7814 24.702 34.5467C24.702 34.0439 24.6856 33.5075 24.6201 32.9711C24.6201 32.9376 24.6037 32.904 24.6037 32.8538C24.8658 32.904 25.1443 32.9711 25.4064 32.9711C25.4392 32.9711 25.4555 32.9711 25.4883 32.9711C25.734 32.9711 25.9633 32.904 26.1599 32.8538C26.2746 32.8202 26.3892 32.7867 26.5039 32.77C26.7332 32.7364 26.8807 32.5185 26.8479 32.3006C26.8151 32.0827 26.6022 31.8983 26.3892 31.9486C26.2418 31.9654 26.0944 32.0157 25.947 32.0492C25.7668 32.0995 25.6193 32.133 25.4555 32.133C24.9477 32.1162 24.4072 31.9654 23.8666 31.7978C23.752 31.7475 23.6537 31.7139 23.539 31.6972L23.4735 31.6804C23.4571 31.6804 23.4571 31.6804 23.4571 31.6804C23.4243 31.6804 23.3752 31.6637 23.3424 31.6637C23.3097 31.6637 23.2769 31.6469 23.2442 31.6469C23.1459 31.1943 22.9657 30.725 22.5725 30.3897C23.0967 30.3562 23.7192 30.2556 24.4072 30.0713C24.4891 30.1215 24.5874 30.1886 24.6856 30.2054ZM23.6864 32.6191C23.7028 32.6359 23.7683 32.7364 23.8011 33.0884C23.8339 33.3901 23.8339 33.6919 23.8502 33.9936C23.7847 33.9768 23.7192 33.9601 23.6537 33.9936C23.0803 34.2115 22.5398 34.2618 22.2613 34.1109C22.1466 34.0439 22.0811 33.9601 22.0484 33.8092C22.032 33.7086 21.9665 33.6416 21.8846 33.5745C21.9828 33.1555 21.9828 32.7029 21.9992 32.3174V31.9821C21.9992 31.9318 22.0156 31.848 22.0156 31.7475C22.0484 31.496 22.0484 31.2446 22.0484 31.0267C22.3924 31.3284 22.4906 31.848 22.5398 32.6526C22.5562 32.8705 22.7364 33.0549 22.9493 33.0549H22.9657C23.195 33.0381 23.3588 32.837 23.3588 32.6191C23.3588 32.6023 23.3588 32.5688 23.3588 32.552L23.5062 32.6023C23.5718 32.5856 23.6373 32.5856 23.6864 32.6191ZM19.8697 34.1612H19.7878C19.7878 34.1109 19.7878 34.0774 19.7878 34.0439C19.7878 33.8092 19.7878 33.5578 19.7387 33.3231C19.7715 33.2728 19.8042 33.2225 19.8206 33.1555C19.8697 32.552 19.9516 31.9989 20.1646 31.5798C20.1482 31.7475 20.1318 31.9151 20.1318 32.0827C20.1154 32.3174 20.2956 32.5185 20.525 32.5185H20.5413C20.7543 32.5185 20.9345 32.3509 20.9509 32.1162C20.9672 31.6134 21.0164 31.1273 21.2621 30.7753C21.2785 31.0435 21.2457 31.4625 21.2293 31.6301C21.2129 31.7642 21.2129 31.8648 21.2129 31.9318V32.2839C21.1966 33.2896 21.1474 33.9098 20.4758 34.0774C20.2465 34.1277 20.0499 34.1444 19.8697 34.1612ZM21.2457 29.5349C17.9696 29.6187 15.447 28.6632 13.7925 26.8194C11.2535 24.0034 11.5811 19.9302 11.5811 19.8967C11.5811 19.8464 11.5484 19.8129 11.5484 19.7794C12.2855 19.3268 12.9407 18.1199 13.2356 17.483C16.7902 18.187 19.0507 15.3709 19.9516 13.9294C21.3604 16.8628 25.3081 16.7454 26.6349 16.6281C26.9789 18.7569 29.1903 20.0308 29.9111 20.3996C29.8947 21.1538 29.8456 21.8914 29.7309 22.5619C29.7309 22.5786 29.7309 22.5786 29.7145 22.5954C29.3705 24.7242 28.5515 26.4004 27.2738 27.5905C24.7839 29.8701 21.3112 29.5516 21.2457 29.5349ZM23.5062 6.5038C22.0156 4.32473 19.5094 4.47559 19.3947 4.49235C17.3471 4.67674 16.0203 5.49808 15.2012 6.30266C13.7925 6.08475 12.564 5.78303 11.6139 5.39751C11.0569 5.16284 10.631 4.92817 10.369 4.6935C10.2707 4.59293 10.2215 4.54264 10.2051 4.54264C10.2051 4.50912 10.2543 4.45883 10.369 4.35826C10.631 4.12359 11.0569 3.88892 11.6139 3.65425C13.5796 2.84967 16.7738 2.38033 20.1646 2.38033C23.5554 2.38033 26.7496 2.86643 28.7153 3.65425C29.2722 3.88892 29.6981 4.12359 29.9602 4.35826C30.0749 4.45883 30.1076 4.52588 30.1404 4.50912C30.124 4.52588 30.0913 4.59293 29.9602 4.6935C29.6981 4.92817 29.2722 5.16284 28.7153 5.39751C27.4048 5.91713 25.5702 6.30266 23.5062 6.5038ZM10.7949 21.3717C10.8276 21.7908 10.8931 22.2769 10.9914 22.8133C10.9423 22.8468 10.8931 22.8636 10.8604 22.9139C10.7785 23.048 10.6802 23.115 10.5655 23.1821L10.2707 23.2826C10.0741 23.3329 9.77925 23.3832 9.59906 23.2994C9.00936 23.048 8.82917 22.2601 9.02574 21.6735C9.12403 21.3717 9.36974 20.9024 10.0413 21.0533C10.3362 21.1203 10.5819 21.2209 10.7621 21.3717C10.7621 21.3717 10.7785 21.355 10.7949 21.3717ZM10.1069 6.35294C9.20593 5.83332 8.69813 5.16284 8.69813 4.52588C8.69813 3.87216 9.22231 3.21844 10.1069 2.69881C12.0562 1.57576 15.9875 0.854987 20.1482 0.854987C24.3089 0.854987 28.2566 1.57576 30.1895 2.69881C31.0905 3.21844 31.5983 3.88892 31.5983 4.52588C31.5983 5.1796 31.0741 5.83332 30.1895 6.35294C29.4197 6.80552 28.3222 7.17428 27.0445 7.476C26.5858 7.27486 26.1271 7.14076 25.7012 7.05695C26.9626 6.83904 28.0928 6.53733 28.9938 6.16856C29.649 5.90037 30.1404 5.61541 30.4844 5.3137C30.6482 5.16284 30.9267 4.91141 30.9267 4.52588C30.9267 4.14035 30.6482 3.88892 30.468 3.73806C30.124 3.43634 29.649 3.15139 28.9774 2.8832C26.897 2.02833 23.67 1.54223 20.1318 1.54223C16.5936 1.54223 13.3666 2.02833 11.2863 2.8832C10.6474 3.15139 10.1724 3.41958 9.82839 3.7213C9.66459 3.88892 9.36973 4.14035 9.36973 4.52588C9.36973 4.91141 9.66459 5.16284 9.82839 5.3137C10.1724 5.61541 10.6474 5.90037 11.3027 6.16856C12.2036 6.53733 13.3011 6.82228 14.546 7.04019C14.3658 7.29162 14.2348 7.50953 14.1529 7.66038C14.1365 7.66038 14.1201 7.66038 14.1037 7.66038C12.4493 7.34191 11.0406 6.88933 10.1069 6.35294ZM10.3198 38.3852C10.0086 38.2847 9.81201 38.1171 9.73011 37.8824C9.50078 37.2622 9.9922 36.2732 10.1888 35.938C10.2871 35.7704 10.2707 35.5525 10.1232 35.4184C9.9922 35.2843 9.77925 35.2675 9.61545 35.3681C7.14197 36.994 5.86427 35.4184 5.81513 35.3345C5.61857 35.0999 5.55304 34.8484 5.5858 34.5635C5.66771 33.7924 6.53588 32.9543 6.86349 32.7029C6.99454 32.5856 7.06006 32.4012 6.99454 32.2336C6.92902 32.0659 6.78159 31.9486 6.6014 31.9486C4.76677 31.9486 3.48908 31.5296 2.65367 30.6747C1.75273 29.736 1.73635 28.5962 1.73635 28.5962C1.78549 28.2945 1.93292 28.0598 2.19501 27.8754C3.11232 27.2217 5.11076 27.4564 5.79875 27.6072C6.0117 27.6575 6.20827 27.5234 6.27379 27.3055C6.33931 27.0876 6.22465 26.8697 6.02808 26.8027C1.14665 24.9253 0.819033 18.9748 0.819033 18.958C0.851794 18.3881 0.99922 18.0193 1.22855 17.8852C1.50702 17.7344 1.93292 17.9188 2.01482 17.9691L8.51794 23.5173C8.53432 23.5341 8.56708 23.5341 8.58346 23.5341C8.74727 23.7352 8.94384 23.8861 9.17317 24.0034C9.02574 24.4392 8.81279 25.3444 9.17317 26.1825C9.46802 26.8697 10.0577 27.3558 10.8768 27.6072C10.8931 27.624 11.1388 27.7413 11.532 27.7413C11.9087 27.7413 12.4329 27.6072 12.9899 27.1882C13.0554 27.2552 13.1045 27.3223 13.1537 27.3893C14.202 28.5627 15.578 29.3337 17.1997 29.8198C16.3807 30.2724 15.0374 31.1943 14.5624 32.6191C14.2676 33.5075 14.1856 34.8317 14.5952 35.8039C12.2855 38.4355 10.3034 38.3685 10.3198 38.3852ZM15.447 35.653C15.0374 34.9323 15.103 33.6919 15.3814 32.8873C15.7746 31.7307 17.0195 30.8088 18.0679 30.3395C18.1661 30.2892 18.2481 30.2054 18.2808 30.1048C18.9033 30.2221 19.5585 30.2892 20.2465 30.3227C19.3619 30.792 19.1162 31.7642 19.0343 32.5688C18.9197 32.552 18.8214 32.5353 18.7231 32.5185C18.2972 32.4682 17.8877 32.5018 17.4782 32.5353C17.3144 32.552 17.1342 32.552 16.9704 32.5688C16.741 32.5688 16.5608 32.77 16.5772 33.0046C16.5772 33.2393 16.7738 33.4237 17.0031 33.4069C17.1833 33.4069 17.3635 33.3901 17.5437 33.3734C17.9204 33.3399 18.2808 33.3231 18.6739 33.3566C18.7886 33.3734 18.8705 33.3901 18.936 33.3901C18.9688 33.5578 18.9688 33.8092 18.9524 34.0103C18.9524 34.1444 18.9524 34.2785 18.9524 34.3791C18.9688 34.6138 18.9852 34.8652 19.0016 35.0999C19.0343 35.5357 19.0671 35.9547 19.0343 36.4241C19.0016 36.8934 18.9524 37.0275 19.0016 37.0275C17.8222 37.2287 16.0203 36.6755 15.447 35.653ZM26.6513 38.5696C26.5203 38.7875 26.1108 39.2066 24.6856 39.7262C22.9984 40.3296 20.869 40.2961 18.7886 39.5921L18.6248 39.5418C18.0842 39.3574 17.3307 39.106 17.1178 38.6534C17.0523 38.5026 17.1342 37.9662 17.1669 37.7315C17.6256 37.8489 18.0842 37.9327 18.5101 37.9327C18.7231 37.9327 18.936 37.9159 19.1326 37.8824C19.4602 37.8321 19.624 37.5807 19.7223 37.2957C19.8042 37.2454 19.8697 37.1616 19.9025 37.061C20.0991 36.357 20.2465 35.6363 20.3775 34.9323V34.9155C20.4594 34.8987 20.5413 34.8987 20.6232 34.882C20.9836 34.7814 21.2457 34.6138 21.4423 34.4126C21.5569 34.5803 21.688 34.7144 21.8682 34.8149C22.1139 34.949 22.3924 34.9993 22.6708 34.9993C23.1459 34.9993 23.6045 34.8652 23.8666 34.7646C23.8666 34.9323 23.8666 35.0999 23.883 35.2843C23.8994 35.6866 23.8994 36.0721 23.8994 36.5414C23.883 36.7593 23.8666 36.9605 23.9977 37.1281C24.1615 37.3292 24.4399 37.346 24.7512 37.346C24.7839 37.346 24.8331 37.346 24.8658 37.346C25.4555 37.346 26.0452 37.1448 26.6022 36.8264C26.6186 36.9102 26.6186 36.994 26.6349 37.0778C26.7496 37.631 26.8479 38.2344 26.6513 38.5696ZM39.3463 30.2389C38.5109 31.0937 37.1677 31.5128 35.3986 31.5128C35.2184 31.5128 35.071 31.6301 35.0055 31.7978C34.9399 31.9654 35.0055 32.1498 35.1365 32.2671C35.4641 32.5185 36.3159 33.3566 36.4142 34.1277C36.447 34.4126 36.3651 34.6641 36.1685 34.8987C36.1193 34.9658 34.8744 36.5582 32.3682 34.9155C32.2044 34.8149 31.9914 34.8317 31.8604 34.9658C31.7293 35.0999 31.6966 35.3178 31.7949 35.4854C31.9914 35.8206 32.4828 36.8264 32.2535 37.4298C32.1716 37.6645 31.975 37.8321 31.6966 37.9159C31.6802 37.9159 29.9602 38.2009 27.7325 35.8542C28.273 35.1669 28.5515 34.3623 28.5023 33.5745C28.3713 31.6972 27.2246 30.1551 25.6521 29.5684C26.3729 29.2499 27.1264 28.7973 27.798 28.1771C28.2239 27.7916 28.5842 27.3223 28.9282 26.8362C29.2231 27.0038 29.5671 27.1379 30.0257 27.1379C30.6318 27.1379 31.3198 26.9032 32.0078 26.1992C32.0406 26.1489 32.7285 25.1097 32.7285 23.4335C32.9251 23.3497 33.0889 23.2491 33.22 23.115C33.3019 23.115 33.3838 23.0982 33.4657 23.0312L39.9197 17.5165C40.0671 17.4327 40.493 17.2483 40.7715 17.3991C41.0008 17.5165 41.1482 17.902 41.181 18.4216C41.181 18.4887 40.8534 24.4392 35.9719 26.2998C35.7754 26.3836 35.6607 26.6015 35.7262 26.8027C35.7917 27.0038 35.9883 27.1379 36.2012 27.1044C36.8892 26.9703 38.8877 26.7356 39.805 27.3893C40.0671 27.5737 40.2145 27.8084 40.2637 28.0598C40.2637 28.1101 40.2637 29.2834 39.3463 30.2389Z" fill="#084D65"/>
<path d="M16.9868 20.1816C16.4462 19.7458 15.9548 19.7961 15.6272 19.9134C14.8081 20.2319 14.3331 21.3717 14.2184 22.059C14.1857 22.2937 14.3331 22.5116 14.546 22.5451C14.5624 22.5451 14.5952 22.5451 14.6116 22.5451C14.8081 22.5451 14.9719 22.3942 15.0211 22.1931C15.1194 21.6064 15.5125 20.8521 15.922 20.6845C16.0203 20.6342 16.2005 20.6174 16.479 20.8354C16.5772 20.9024 16.6591 21.0197 16.7574 21.1371C16.9049 21.355 16.9704 21.5896 17.0523 21.8746C17.1178 22.0925 17.3471 22.2266 17.5601 22.1596C17.773 22.0925 17.9041 21.8578 17.8385 21.6399C17.7403 21.3047 17.642 20.9694 17.429 20.651C17.2816 20.4666 17.1342 20.3157 16.9868 20.1816Z" fill="#084D65"/>
<path d="M25.5044 19.8965C25.2095 19.8295 24.4724 19.7959 23.9155 20.8017C23.7189 21.1369 23.6697 21.5057 23.637 21.8577C23.6042 22.0923 23.768 22.2935 23.9974 22.327C24.2103 22.3438 24.4233 22.1929 24.456 21.9582C24.4888 21.6901 24.5215 21.4386 24.6362 21.2207C24.8492 20.8352 25.0621 20.6676 25.3406 20.7346C25.7173 20.8184 26.1596 21.338 26.2251 21.9918C26.2415 22.2097 26.4217 22.3773 26.6346 22.3773C26.651 22.3773 26.6674 22.3773 26.6838 22.3773C26.9131 22.3605 27.0769 22.1426 27.0442 21.9247C26.9459 20.919 26.2907 20.0641 25.5044 19.8965Z" fill="#084D65"/>
<path d="M19.7226 23.8188C20.0338 24.0032 20.3614 24.1205 20.6726 24.2379L20.902 24.3217C20.9511 24.3384 21.0002 24.3552 21.0494 24.3552C21.2132 24.3552 21.377 24.2546 21.4261 24.087C21.508 23.8691 21.3934 23.6344 21.1968 23.5506L20.9511 23.45C20.6563 23.3327 20.3778 23.2321 20.1321 23.0813C20.0993 23.0645 20.0502 23.031 20.0174 23.0142C20.0665 22.7125 20.214 22.3605 20.345 22.0085C20.4433 21.7403 20.558 21.4721 20.6235 21.2207C20.689 21.0028 20.558 20.7681 20.345 20.7011C20.1157 20.634 19.9027 20.7681 19.8372 20.986C19.7717 21.2039 19.6898 21.4386 19.5915 21.69C19.4113 22.1594 19.2311 22.6287 19.1984 23.0813C19.1656 23.2657 19.2148 23.5339 19.7226 23.8188Z" fill="#084D65"/>
<path d="M23.3589 25.4449C22.0976 26.5177 19.8698 26.5847 18.4774 25.5958C18.2973 25.4617 18.0352 25.512 17.9041 25.6963C17.7731 25.8807 17.8222 26.1489 18.0024 26.283C18.8051 26.8529 19.8043 27.1379 20.8199 27.1379C21.9501 27.1379 23.064 26.7859 23.8831 26.0986C24.0632 25.9478 24.0796 25.6796 23.9322 25.512C23.8012 25.3276 23.5391 25.3108 23.3589 25.4449Z" fill="#084D65"/>
<path d="M37.8557 23.4335C38.0032 23.4335 38.1506 23.3497 38.2161 23.2156C38.7567 22.1764 38.8386 21.4556 38.9041 20.366C38.9205 20.1314 38.7403 19.9302 38.5273 19.9302C38.511 19.9302 38.5109 19.9302 38.4946 19.9302C38.2816 19.9302 38.1014 20.0979 38.0851 20.3158C38.0195 21.4053 37.954 21.9584 37.4953 22.8133C37.3971 23.0145 37.4626 23.2659 37.6592 23.3832C37.7247 23.4167 37.7902 23.4335 37.8557 23.4335Z" fill="#084D65"/>
<path d="M36.0699 23.1821C36.1027 23.1821 36.1354 23.1989 36.1518 23.1989C36.3484 23.1989 36.5122 23.0648 36.5449 22.8636C36.5941 22.6625 36.6268 22.4781 36.6596 22.2769C36.6924 22.0423 36.5449 21.8244 36.332 21.7908C36.1027 21.7406 35.8897 21.9082 35.857 22.1261C35.8242 22.3105 35.7914 22.4948 35.7423 22.6625C35.7095 22.8971 35.8406 23.1318 36.0699 23.1821Z" fill="#084D65"/>
<path d="M34.5627 24.4561C34.7265 24.4561 34.874 24.3555 34.9395 24.2047L35.0541 23.9197C35.136 23.7018 35.0541 23.4671 34.8412 23.3666C34.6282 23.2828 34.3825 23.3666 34.3006 23.5845L34.1696 23.8862C34.0877 24.1041 34.186 24.3388 34.3825 24.4393C34.4481 24.4393 34.4972 24.4561 34.5627 24.4561Z" fill="#084D65"/>
<path d="M35.7265 29.032C35.3333 29.5181 34.7928 29.7695 34.1539 29.8031C33.9246 29.8198 33.7444 30.0042 33.7608 30.2389C33.7608 30.4568 33.9574 30.6412 34.1703 30.6412H34.1867C35.0549 30.6076 35.8248 30.2221 36.3489 29.5684C36.4964 29.384 36.4636 29.1326 36.2998 28.9817C36.1196 28.8309 35.8739 28.8644 35.7265 29.032Z" fill="#084D65"/>
<path d="M32.6464 28.3114C32.4662 28.5964 32.2369 28.8311 32.0239 28.9987C31.8437 29.1328 31.811 29.401 31.942 29.5854C32.0239 29.7027 32.1386 29.753 32.2696 29.753C32.3515 29.753 32.4334 29.7195 32.5153 29.6692C32.8102 29.4513 33.105 29.1328 33.3344 28.7808C33.4654 28.5964 33.4163 28.3282 33.2197 28.1941C33.0395 28.0768 32.7774 28.1271 32.6464 28.3114Z" fill="#084D65"/>
<path d="M30.5335 29.1158C30.6317 29.1158 30.7136 29.0823 30.7956 29.0152C30.8938 28.9314 30.9921 28.8476 31.0904 28.747C31.2542 28.5962 31.2706 28.328 31.1232 28.1604C30.9757 27.9928 30.7136 27.976 30.5498 28.1268C30.4679 28.2107 30.3697 28.2945 30.2714 28.3615C30.0912 28.5124 30.0748 28.7638 30.2058 28.9482C30.2878 29.0655 30.4024 29.1158 30.5335 29.1158Z" fill="#084D65"/>
<path d="M31.0901 32.7869C30.8935 33.0048 30.5986 33.1389 30.2874 33.1724C30.0581 33.1892 29.8943 33.4071 29.927 33.625C29.9434 33.8429 30.1236 34.0105 30.3365 34.0105C30.3529 34.0105 30.3693 34.0105 30.3693 34.0105C30.8935 33.9602 31.3521 33.7256 31.6961 33.3568C31.8436 33.1892 31.8436 32.921 31.6798 32.7701C31.4996 32.6025 31.2375 32.6193 31.0901 32.7869Z" fill="#084D65"/>
<path d="M30.3858 32.0324C30.566 31.8983 30.5987 31.6302 30.4677 31.4458C30.3367 31.2614 30.0746 31.2279 29.8944 31.362L29.4849 31.6804C29.3047 31.8145 29.2719 32.0827 29.403 32.2671C29.4849 32.3844 29.5995 32.4347 29.7306 32.4347C29.8125 32.4347 29.9108 32.4012 29.9763 32.3509L30.3858 32.0324Z" fill="#084D65"/>
<path d="M29.633 30.0043C29.502 29.8032 29.2563 29.7529 29.0597 29.887L28.6666 30.1552C28.4864 30.2893 28.4373 30.5407 28.5519 30.7418C28.6338 30.8592 28.7649 30.9262 28.8959 30.9262C28.9778 30.9262 29.0597 30.9095 29.1252 30.8592L29.5184 30.591C29.6986 30.4569 29.7641 30.1887 29.633 30.0043Z" fill="#084D65"/>
</svg>
