<svg width="38" height="45" viewBox="0 0 38 45" fill="none" xmlns="http://www.w3.org/2000/svg">
<path d="M26.9194 2.2248C30.508 3.44869 32.9699 5.77834 32.4153 7.42555C31.8607 9.07276 28.4751 9.41065 24.8864 8.18675C21.2978 6.96285 18.8261 4.63141 19.3906 2.986C19.955 1.34058 23.3209 0.999103 26.9194 2.2248Z" stroke="#07465A" stroke-width="0.75" stroke-linecap="round" stroke-linejoin="round"/>
<path d="M31.5834 10.2011L31.0051 12.4234C30.4407 14.0688 27.0649 14.4085 23.4763 13.1846C19.8877 11.9607 17.416 9.62925 17.9804 7.98383L19.3868 2.89358" stroke="#07465A" stroke-width="0.75" stroke-linecap="round" stroke-linejoin="round"/>
<path d="M26.7488 3.3831C29.5522 4.34178 31.5414 5.97528 31.1669 7.02511C30.7924 8.07495 28.2343 8.16737 25.421 7.20689C22.6077 6.24641 20.6284 4.6147 21.0029 3.56487C21.3773 2.51503 23.9355 2.42262 26.7488 3.3831Z" stroke="#07465A" stroke-width="0.75" stroke-linecap="round" stroke-linejoin="round"/>
<path d="M18.832 5.21204C19.0621 5.65448 19.3243 6.07943 19.6166 6.48348" stroke="#07465A" stroke-width="0.75" stroke-linecap="round" stroke-linejoin="round"/>
<path d="M18.4883 6.48059C18.5907 6.79422 18.747 7.08759 18.9502 7.34756" stroke="#07465A" stroke-width="0.75" stroke-linecap="round" stroke-linejoin="round"/>
<path d="M19.8916 8.37317L20.3671 8.88685" stroke="#07465A" stroke-width="0.75" stroke-linecap="round" stroke-linejoin="round"/>
<path d="M18.1855 7.69641C18.3627 8.02491 18.5675 8.33772 18.7977 8.63145" stroke="#07465A" stroke-width="0.75" stroke-linecap="round" stroke-linejoin="round"/>
<path d="M19.7148 9.50989C19.8161 9.62794 19.9248 9.73944 20.0402 9.84371" stroke="#07465A" stroke-width="0.75" stroke-linecap="round" stroke-linejoin="round"/>
<path d="M30.3603 10.7203C30.7488 10.6533 31.1203 10.5104 31.4535 10.2997" stroke="#07465A" stroke-width="0.75" stroke-linecap="round" stroke-linejoin="round"/>
<path d="M28.9516 11.1443L29.2638 11.0487" stroke="#07465A" stroke-width="0.75" stroke-linecap="round" stroke-linejoin="round"/>
<path d="M29.4471 12.2717C30.0987 12.2082 30.7094 11.9254 31.1792 11.4695" stroke="#07465A" stroke-width="0.75" stroke-linecap="round" stroke-linejoin="round"/>
<path d="M32.4151 7.76109C32.2654 8.30302 32.1059 8.84316 31.974 9.39853" stroke="#07465A" stroke-width="0.75" stroke-linecap="round" stroke-linejoin="round"/>
<path d="M31.1074 12.7574C31.495 12.9521 31.9062 13.0954 32.3307 13.1839" stroke="#07465A" stroke-width="0.75" stroke-linecap="round" stroke-linejoin="round"/>
<path d="M32.4922 8.50696C33.6957 9.15344 35.2322 9.31176 36.0284 10.5752C36.8246 11.8386 36.1454 14.0018 34.4094 13.8782" stroke="#07465A" stroke-width="0.75" stroke-linecap="round" stroke-linejoin="round"/>
<path d="M32.6006 7.91663C34.1163 8.57939 36.8556 9.10961 36.7004 11.2973C36.5873 11.7933 36.4308 12.2783 36.2327 12.7469" stroke="#07465A" stroke-width="0.75" stroke-linecap="round" stroke-linejoin="round"/>
<path d="M29.8529 6.20561C29.729 6.7527 29.5664 7.29032 29.3663 7.8144" stroke="#07465A" stroke-width="0.75" stroke-linecap="round" stroke-linejoin="round"/>
<path d="M28.8645 5.54772C28.7299 6.28554 28.505 7.01705 28.2917 7.74051" stroke="#07465A" stroke-width="0.75" stroke-linecap="round" stroke-linejoin="round"/>
<path d="M27.7112 5.90661C27.5588 6.4074 27.3832 6.92427 27.2604 7.43045" stroke="#07465A" stroke-width="0.75" stroke-linecap="round" stroke-linejoin="round"/>
<path d="M26.7254 5.6861C26.5113 6.23194 26.325 6.78828 26.1672 7.35298" stroke="#07465A" stroke-width="0.75" stroke-linecap="round" stroke-linejoin="round"/>
<path d="M34.5893 12.7828C34.6345 12.6816 34.6593 12.5725 34.6623 12.4617C34.6653 12.3509 34.6464 12.2406 34.6068 12.137C34.5671 12.0335 34.5075 11.9388 34.4312 11.8584C34.355 11.7779 34.2637 11.7133 34.1624 11.6681C34.0612 11.6229 33.9521 11.5981 33.8413 11.5952C33.7305 11.5922 33.6202 11.611 33.5167 11.6507C33.4132 11.6903 33.3185 11.75 33.238 11.8262C33.1576 11.9024 33.0929 11.9938 33.0477 12.095L30.7084 17.3403C30.6172 17.5447 30.6109 17.777 30.691 17.9861C30.7711 18.1951 30.9309 18.3638 31.1353 18.455C31.3397 18.5462 31.572 18.5525 31.7811 18.4724C31.9901 18.3924 32.1588 18.2326 32.25 18.0281L34.5893 12.7828Z" stroke="#07465A" stroke-width="0.75" stroke-linecap="round" stroke-linejoin="round"/>
<path d="M29.8235 21.4681C30.0408 21.4148 30.228 21.2773 30.3439 21.0859C30.4599 20.8944 30.495 20.6648 30.4417 20.4475C30.3883 20.2302 30.2508 20.043 30.0594 19.927C29.868 19.8111 29.6383 19.7759 29.421 19.8293L23.0357 21.3989C22.9281 21.4253 22.8267 21.4726 22.7374 21.5382C22.6481 21.6038 22.5726 21.6864 22.5152 21.7811C22.4578 21.8759 22.4196 21.9811 22.4029 22.0906C22.3861 22.2001 22.3911 22.3119 22.4175 22.4195C22.4439 22.5271 22.4913 22.6284 22.5569 22.7177C22.6224 22.807 22.705 22.8825 22.7998 22.94C22.8945 22.9974 22.9997 23.0355 23.1092 23.0523C23.2187 23.0691 23.3305 23.0641 23.4381 23.0377L29.8235 21.4681Z" stroke="#07465A" stroke-width="0.75" stroke-linecap="round" stroke-linejoin="round"/>
<path d="M16.3745 20.4685C16.5916 20.4165 16.7791 20.2803 16.8958 20.09C17.0125 19.8997 17.0488 19.6708 16.9967 19.4537C16.9447 19.2366 16.8085 19.0491 16.6182 18.9324C16.4279 18.8157 16.199 18.7794 15.9819 18.8315L9.74864 20.3474C9.64104 20.3739 9.53969 20.4212 9.45039 20.4868C9.36108 20.5524 9.28557 20.6349 9.22817 20.7297C9.17076 20.8245 9.13258 20.9297 9.11581 21.0392C9.09905 21.1487 9.10401 21.2605 9.13044 21.3681C9.15686 21.4757 9.20423 21.577 9.26982 21.6663C9.33541 21.7556 9.41795 21.8311 9.51272 21.8885C9.60749 21.946 9.71264 21.9841 9.82217 22.0009C9.93169 22.0177 10.0435 22.0127 10.1511 21.9863L16.3745 20.4685Z" stroke="#07465A" stroke-width="0.75" stroke-linecap="round" stroke-linejoin="round"/>
<path d="M7.35888 24.9737C7.46847 24.7793 7.49638 24.5494 7.43646 24.3345C7.37653 24.1196 7.23368 23.9373 7.03935 23.8277C6.84501 23.7181 6.61512 23.6902 6.40021 23.7501C6.1853 23.81 6.003 23.9529 5.89341 24.1472L2.75783 29.7454C2.64824 29.9397 2.62033 30.1696 2.68026 30.3845C2.74018 30.5995 2.88303 30.7818 3.07736 30.8913C3.2717 31.0009 3.5016 31.0288 3.7165 30.9689C3.93141 30.909 4.11372 30.7661 4.22331 30.5718L7.35888 24.9737Z" stroke="#07465A" stroke-width="0.75" stroke-linecap="round" stroke-linejoin="round"/>
<path fill-rule="evenodd" clip-rule="evenodd" d="M34.4564 13.0633C34.9668 11.9367 34.2407 11.6822 34.2407 11.6822C34.0927 11.5764 33.9104 11.5297 33.7297 11.5513C33.549 11.5728 33.3829 11.6611 33.2639 11.7988L32.8387 12.5141C32.6592 12.2365 32.5931 11.9006 32.6541 11.5757C32.6858 11.4018 32.7516 11.2358 32.8478 11.0875C32.9439 10.9391 33.0685 10.8112 33.2143 10.7112C33.3601 10.6111 33.5243 10.541 33.6973 10.5047C33.8704 10.4684 34.0489 10.4667 34.2226 10.4998C34.5943 10.5829 34.9203 10.8043 35.1348 11.119C35.3492 11.4337 35.4359 11.8182 35.3772 12.1945C35.1728 12.9806 34.279 13.4782 34.4564 13.0633Z" fill="#07465A"/>
<path d="M34.4564 13.0633C34.9668 11.9367 34.2407 11.6822 34.2407 11.6822C34.0927 11.5764 33.9104 11.5297 33.7297 11.5513C33.549 11.5728 33.3829 11.6611 33.2639 11.7988L32.8387 12.5141C32.6592 12.2365 32.5931 11.9006 32.6541 11.5757C32.6858 11.4018 32.7516 11.2358 32.8478 11.0875C32.9439 10.9391 33.0685 10.8112 33.2143 10.7112C33.3601 10.6111 33.5243 10.541 33.6973 10.5047C33.8704 10.4684 34.0489 10.4667 34.2226 10.4998C34.5943 10.5829 34.9203 10.8043 35.1348 11.119C35.3492 11.4337 35.4359 11.8182 35.3772 12.1945C35.1728 12.9806 34.279 13.4782 34.4564 13.0633Z" stroke="#07465A" stroke-width="0.5" stroke-linecap="round" stroke-linejoin="round"/>
<path d="M19.6465 2.69739C20.0956 2.9578 20.5579 3.19481 21.0315 3.40748" stroke="#07465A" stroke-width="0.75" stroke-linecap="round" stroke-linejoin="round"/>
<path d="M26.2222 20.5368C26.0241 19.8399 26.7982 19.107 27.2313 18.6269C27.4103 18.4258 27.5733 18.2014 27.7344 17.9868C28.4559 17.0409 29.6215 15.2206 31.01 16.1346" stroke="#07465A" stroke-width="0.75" stroke-linecap="round" stroke-linejoin="round"/>
<path d="M28.2684 20.0156C28.3276 19.691 28.4331 19.6696 28.6309 19.421C29.0101 18.9551 29.4137 18.5096 29.8401 18.0864C30.0271 17.8968 30.1489 17.6751 30.4164 17.6019" stroke="#07465A" stroke-width="0.75" stroke-linecap="round" stroke-linejoin="round"/>
<path d="M30.4128 20.1324C30.7252 19.7015 31.3357 18.9184 31.666 18.5008" stroke="#07465A" stroke-width="0.75" stroke-linecap="round" stroke-linejoin="round"/>
<path d="M26.6306 22.6953C27.1397 23.8047 28.5701 23.598 29.4334 23.1558C30.1829 22.6532 30.8159 21.9957 31.2896 21.2276C31.9245 20.4925 32.5166 19.7215 33.0628 18.9183C33.2959 18.5785 33.4223 18.1768 33.4258 17.7647C33.3496 17.484 33.2177 17.2214 33.038 16.9926" stroke="#07465A" stroke-width="0.75" stroke-linecap="round" stroke-linejoin="round"/>
<path d="M15.0505 18.9768L15.7811 17.7581C16.1232 17.5241 16.5188 17.3802 16.9313 17.34C17.3439 17.2997 17.7599 17.3643 18.1407 17.5278L24.295 20.958" stroke="#07465A" stroke-width="0.75" stroke-linecap="round" stroke-linejoin="round"/>
<path d="M15.168 20.838C15.2371 21.0729 15.3548 21.2906 15.5134 21.4771C15.672 21.6636 15.8679 21.8148 16.0886 21.9208L22.6465 24.9773C22.6465 24.9773 24.3841 25.4265 24.9805 22.7704" stroke="#07465A" stroke-width="0.75" stroke-linecap="round" stroke-linejoin="round"/>
<path d="M4.66305 34.6265C3.97157 34.4297 3.30145 34.1645 2.66268 33.8346C2.14307 33.6395 1.69886 33.2844 1.39409 32.8205C0.685573 31.5222 1.25327 28.9117 2.98941 28.8117" stroke="#07465A" stroke-width="0.75" stroke-linecap="round" stroke-linejoin="round"/>
<path d="M4.63544 33.1067C3.52026 32.8118 1.82107 32.4307 1.59201 31.0674C1.56728 30.6844 1.60313 30.2999 1.69823 29.928" stroke="#07465A" stroke-width="0.75" stroke-linecap="round" stroke-linejoin="round"/>
<path d="M5.11756 25.2258L4.96647 25.1067C4.81738 24.9774 4.69526 24.82 4.60712 24.6435C4.51897 24.4669 4.46651 24.2747 4.45278 24.0778C4.4329 23.6833 4.56539 23.2963 4.82283 22.9967L8.23373 19.1768C8.45318 18.9346 8.75524 18.7832 9.0806 18.7522C9.40597 18.7213 9.73113 18.8131 9.99227 19.0097L11.133 19.8887" stroke="#07465A" stroke-width="0.75" stroke-linecap="round" stroke-linejoin="round"/>
<path d="M6.58671 23.5822L8.99791 20.8404" stroke="#07465A" stroke-width="0.75" stroke-linecap="round" stroke-linejoin="round"/>
<path d="M10.0673 22.0524C10.0947 22.2498 10.08 22.4508 10.024 22.6421C9.96812 22.8334 9.87228 23.0107 9.74284 23.1622" stroke="#07465A" stroke-width="0.75" stroke-linecap="round" stroke-linejoin="round"/>
<path d="M16.892 19.0788C16.892 19.0788 17.0916 18.8204 17.621 19.039L22.3976 21.4961L22.4304 21.929" stroke="#07465A" stroke-width="0.75" stroke-linecap="round" stroke-linejoin="round"/>
<path d="M16.6855 20.5455L22.1533 23.393C22.3244 23.4299 22.5023 23.4212 22.669 23.3677C22.8357 23.3143 22.9855 23.2181 23.1034 23.0886" stroke="#07465A" stroke-width="0.75" stroke-linecap="round" stroke-linejoin="round"/>
<path fill-rule="evenodd" clip-rule="evenodd" d="M16.2463 22.1729C14.1812 21.7619 12.0405 21.9746 10.0966 22.7841C8.15278 23.5935 6.49373 24.963 5.33066 26.7183C4.1676 28.4736 3.55311 30.5352 3.56542 32.6408C3.57772 34.7464 4.21628 36.8008 5.39978 38.5423C6.58329 40.2839 8.25823 41.6339 10.2114 42.4205C12.1646 43.2072 14.3077 43.3949 16.3678 42.9598C18.428 42.5246 20.3122 41.4863 21.7804 39.977C23.2486 38.4677 24.2346 36.5557 24.6127 34.4842C25.1346 31.7424 24.5465 28.9054 22.9777 26.5969C21.4089 24.2884 18.9878 22.6972 16.2463 22.1729ZM6.99661 29.0241C6.96505 29.1054 6.90584 29.1728 6.82941 29.2147C6.75297 29.2565 6.66421 29.27 6.57878 29.2529L6.51976 29.2421C6.42935 29.2036 6.35736 29.1316 6.31889 29.0412C6.28042 28.9508 6.27847 28.849 6.31344 28.7572C6.79956 27.548 7.55082 26.4633 8.51186 25.5831C9.47291 24.7029 10.6192 24.0495 11.8663 23.6712C11.961 23.641 12.0638 23.6492 12.1525 23.6939C12.2413 23.7386 12.309 23.8163 12.3411 23.9103C12.357 23.9576 12.3631 24.0077 12.359 24.0575C12.355 24.1073 12.3409 24.1557 12.3177 24.1999C12.2944 24.2441 12.2624 24.2831 12.2237 24.3147C12.185 24.3462 12.1402 24.3695 12.0922 24.3833C10.9507 24.7281 9.90066 25.3238 9.01902 26.1268C8.13737 26.9298 7.44638 27.9197 6.99661 29.0241ZM9.06591 28.2123C9.02875 28.215 8.99152 28.2082 8.9577 28.1926C8.91127 28.1679 8.87079 28.1334 8.83913 28.0915C8.80746 28.0495 8.78537 28.0011 8.7744 27.9497C8.76344 27.8983 8.76385 27.8451 8.77564 27.7939C8.78743 27.7426 8.8103 27.6946 8.84263 27.6532C9.46881 26.5708 10.4381 25.7281 11.5971 25.2586C11.6853 25.2362 11.7787 25.2463 11.8602 25.287C11.9416 25.3277 12.0058 25.3962 12.041 25.4802C12.0761 25.5642 12.08 25.658 12.0518 25.7446C12.0236 25.8312 11.9652 25.9048 11.8874 25.952C10.8791 26.3489 10.032 27.0707 9.48015 28.0033C9.44389 28.079 9.38359 28.1405 9.30865 28.1784C9.23371 28.2162 9.14836 28.2281 9.06591 28.2123ZM11.679 27.4286C11.5823 27.5126 11.4955 27.5984 11.4007 27.6726C11.3601 27.7075 11.3121 27.7326 11.2603 27.7461C11.2085 27.7596 11.1543 27.761 11.1019 27.7502C11.0123 27.7332 10.9313 27.6862 10.8721 27.6168C10.8194 27.5339 10.7999 27.4341 10.8175 27.3375C10.8351 27.2408 10.8886 27.1544 10.9672 27.0954L11.2088 26.8854C11.3806 26.7118 11.5722 26.5591 11.7798 26.4304C11.82 26.4018 11.8656 26.3815 11.9138 26.3708C11.962 26.3601 12.0119 26.3592 12.0605 26.368C12.1091 26.3769 12.1554 26.3954 12.1968 26.4224C12.2381 26.4495 12.2736 26.4846 12.3011 26.5256C12.3539 26.6085 12.3734 26.7082 12.3558 26.8049C12.3381 26.9016 12.2847 26.988 12.206 27.0469C12.0154 27.1522 11.8385 27.2803 11.679 27.4286ZM12.972 27.9186L12.7456 28.1009L12.6508 28.1751C12.6089 28.2077 12.5608 28.2314 12.5094 28.2447C12.458 28.2581 12.4045 28.2608 12.352 28.2527C12.2619 28.2374 12.1803 28.19 12.1222 28.1193C12.067 28.0371 12.0461 27.9367 12.0639 27.8393C12.0816 27.7419 12.1367 27.6553 12.2173 27.5979L12.3024 27.5219L12.5619 27.3253C12.6412 27.267 12.7405 27.2426 12.8379 27.2575C12.8861 27.2649 12.9324 27.2817 12.9741 27.307C13.0158 27.3322 13.0521 27.3655 13.081 27.4048C13.1099 27.4441 13.1307 27.4887 13.1424 27.5361C13.154 27.5834 13.1562 27.6326 13.1488 27.6808C13.1414 27.729 13.1246 27.7753 13.0994 27.817C13.0741 27.8587 13.0409 27.8951 13.0016 27.924L12.972 27.9186ZM17.5979 32.7065L17.7589 32.6037C17.8419 32.551 17.9416 32.5315 18.0383 32.5491C18.135 32.5667 18.2214 32.6202 18.2803 32.6988C18.309 32.7391 18.3292 32.7847 18.3399 32.8329C18.3507 32.8811 18.3516 32.931 18.3428 32.9796C18.3339 33.0282 18.3154 33.0745 18.2883 33.1158C18.2613 33.1572 18.2262 33.1927 18.1852 33.2202L17.9624 33.3829C17.9241 33.4088 17.8811 33.4268 17.8358 33.436C17.7905 33.4452 17.7439 33.4453 17.6985 33.4364C17.6471 33.4268 17.5981 33.407 17.5545 33.378C17.5108 33.3491 17.4735 33.3117 17.4446 33.2681C17.413 33.2225 17.3918 33.1705 17.3824 33.1158C17.373 33.0611 17.3757 33.0051 17.3903 32.9515C17.4049 32.898 17.4311 32.8483 17.4669 32.806C17.5028 32.7637 17.5475 32.7297 17.5979 32.7065ZM17.1313 35.2643C17.0651 35.2534 17.0031 35.2248 16.9519 35.1814C16.9007 35.1381 16.8623 35.0816 16.8407 35.0181C16.8106 34.9234 16.8188 34.8207 16.8634 34.732C16.9081 34.6432 16.9858 34.5755 17.0798 34.5433C17.8791 34.3143 18.6333 33.9499 19.3094 33.466C19.3887 33.4114 19.4858 33.3891 19.581 33.4034C19.6763 33.4177 19.7625 33.4677 19.8223 33.5431C19.8821 33.6186 19.9111 33.7139 19.9033 33.8099C19.8955 33.9059 19.8516 33.9953 19.7804 34.0601C19.0431 34.5858 18.228 34.9928 17.3647 35.2662C17.2918 35.288 17.214 35.2879 17.1411 35.2661L17.1313 35.2643ZM18.1028 36.458C18.0226 36.4395 17.9505 36.3953 17.8975 36.3323C17.8445 36.2693 17.8134 36.1907 17.8089 36.1085C17.8044 36.0262 17.8268 35.9448 17.8726 35.8763C17.9184 35.8079 17.9853 35.7562 18.063 35.729C18.5638 35.5914 19.0428 35.3846 19.4864 35.1145C19.5267 35.0859 19.5723 35.0656 19.6205 35.0549C19.6687 35.0442 19.7186 35.0432 19.7672 35.0521C19.8157 35.0609 19.8621 35.0794 19.9034 35.1065C19.9447 35.1336 19.9802 35.1686 20.0078 35.2096C20.063 35.2918 20.0839 35.3923 20.0661 35.4896C20.0484 35.587 19.9933 35.6736 19.9127 35.731C19.4097 36.0383 18.8702 36.2814 18.3068 36.4545C18.2428 36.4672 18.1772 36.469 18.1127 36.4598L18.1028 36.458ZM19.1648 37.4344C19.1071 37.4223 19.0529 37.3969 19.0067 37.3603C18.9604 37.3236 18.9234 37.2767 18.8984 37.2232C18.8774 37.1788 18.8654 37.1307 18.8632 37.0816C18.861 37.0325 18.8686 36.9835 18.8855 36.9374C18.9024 36.8913 18.9284 36.849 18.9618 36.813C18.9952 36.777 19.0355 36.748 19.0803 36.7278L19.372 36.5777C19.4603 36.5312 19.5633 36.5213 19.6588 36.5501C19.7544 36.579 19.8348 36.6442 19.8826 36.7318C19.9055 36.7747 19.9197 36.8217 19.9244 36.8701C19.9292 36.9185 19.9243 36.9673 19.9102 37.0138C19.896 37.0603 19.8729 37.1036 19.842 37.1411C19.8111 37.1787 19.7731 37.2098 19.7302 37.2326L19.3938 37.4051C19.3271 37.4457 19.2489 37.4636 19.1711 37.4559L19.1648 37.4344ZM19.4084 38.4954C19.3756 38.4604 19.3501 38.4192 19.3335 38.3742C19.3169 38.3292 19.3094 38.2814 19.3115 38.2335C19.3136 38.1856 19.3253 38.1386 19.3458 38.0952C19.3663 38.0519 19.3953 38.0131 19.4311 37.9811C19.5006 37.9137 19.5938 37.8763 19.6906 37.8769C19.7874 37.8774 19.8802 37.9159 19.9489 37.9841C20.0174 38.0593 20.0546 38.1578 20.053 38.2594C20.0515 38.3611 20.0113 38.4584 19.9405 38.5315C19.8922 38.5723 19.8356 38.6022 19.7746 38.6191C19.7136 38.6361 19.6497 38.6397 19.5872 38.6296C19.5176 38.5973 19.4598 38.5441 19.4218 38.4775L19.4084 38.4954ZM20.3307 39.6801C20.2841 39.7197 20.2292 39.7483 20.1701 39.7639C20.111 39.7795 20.0491 39.7817 19.989 39.7703C19.9105 39.759 19.8384 39.7207 19.7851 39.6619C19.7196 39.5912 19.6843 39.4977 19.6867 39.4013C19.6891 39.3049 19.729 39.2132 19.798 39.1459C19.8306 39.111 19.8703 39.0834 19.9143 39.0649C19.9583 39.0463 20.0058 39.0373 20.0536 39.0383C20.1013 39.0394 20.1483 39.0505 20.1915 39.0709C20.2347 39.0913 20.2731 39.1206 20.3042 39.1569C20.3615 39.219 20.397 39.298 20.4055 39.382C20.414 39.4661 20.395 39.5506 20.3513 39.6229L20.3307 39.6801Z" fill="#07465A"/>
</svg>
