<svg width="47" height="43" viewBox="0 0 47 43" fill="none" xmlns="http://www.w3.org/2000/svg">
<path d="M46.1381 23.9419C46.1057 22.936 45.2792 22.141 44.2744 22.141C43.221 22.141 41.6328 22.141 39.6557 22.1572C40.0123 21.9788 40.3364 21.7516 40.6281 21.4758C41.3736 20.7295 41.7787 19.756 41.7787 18.7014V18.2309C41.7787 18.0037 41.6004 17.8253 41.3735 17.8253H38.3593C38.3755 17.7766 38.4079 17.7442 38.4079 17.6793C37.9541 12.1791 33.303 9.81036 30.8073 8.52862C28.8302 7.50648 23.3202 7.47403 20.3546 7.44158C19.5605 7.44158 18.9446 7.42535 18.6691 7.40912C18.2478 7.37668 17.8264 7.18198 17.4051 6.98728C16.7244 6.66279 15.9304 6.35454 14.9256 6.51678C14.9256 6.50056 14.9256 6.48433 14.9094 6.48433L12.3327 3.79106C12.8999 2.86626 12.7864 2.1037 12.7864 2.08748C12.7054 1.45472 12.4461 0.967991 12.0247 0.659725C11.3441 0.156765 10.5014 0.270331 10.4204 0.286555C9.25355 0.594822 8.8808 1.53584 8.81598 2.29839C8.23257 2.11992 7.71399 2.15238 7.29264 2.39575C7.17919 2.46065 7.09817 2.52554 7.00093 2.60666C7.03334 1.90901 6.96852 1.13023 6.59578 0.611041C6.3689 0.28655 6.02857 0.0756429 5.63963 0.0269693C4.68349 -0.119051 3.87319 0.335228 3.50046 1.21135C3.48425 1.27625 3.41944 1.47095 3.35461 1.68187C3.3222 1.76299 3.30599 1.86033 3.27358 1.94145C3.14393 1.89278 2.99808 1.84411 2.81982 1.82788C1.83126 1.76298 0.632028 2.44441 0.405146 3.62881C0.307911 4.18044 0.421351 4.68341 0.745468 5.05657C1.3775 5.8029 2.57673 5.88401 3.12773 5.88401C3.22497 5.88401 3.30599 5.88402 3.45184 5.8678C3.5977 5.85157 3.95423 5.81913 3.98664 5.81913C4.18111 5.9976 4.35937 6.27341 4.53763 6.533C4.65107 6.69524 4.74832 6.85749 4.86176 7.00351L5.21829 7.4578C5.85032 8.2528 6.49854 9.08025 7.08195 9.94015C7.11436 10.005 7.17919 10.0375 7.22781 10.0699C7.01714 10.5729 6.9199 11.157 6.98472 11.7573C7.04954 12.2927 7.22781 12.7632 7.40608 13.2337C7.55193 13.6231 7.69778 13.9963 7.76261 14.3857C7.84364 14.8886 7.85984 15.3916 7.87605 15.9108C7.89225 16.5273 7.92466 17.1439 8.07051 17.8091H5.10485C4.87797 17.8091 4.6997 17.9875 4.6997 18.2147V18.6852C4.6997 19.7073 5.12105 20.7295 5.85032 21.4596C6.17443 21.7841 6.56337 22.0437 6.98472 22.2383C4.79693 22.2383 3.01429 22.2546 1.86368 22.2546C1.36129 22.2546 0.875119 22.4655 0.534796 22.8224C0.194473 23.1794 0 23.6661 0 24.1691L0.275497 35.1531C0.275497 35.3315 0.405139 35.4938 0.599609 35.5425C1.16681 35.6723 2.02573 35.5911 3.01429 35.4127L3.16014 41.9512C3.16014 42.1621 3.3384 42.3405 3.56528 42.3405L5.5424 42.373C5.75308 42.373 5.91514 42.2108 5.94755 42.0161L6.80646 34.4554C7.04954 34.3743 7.30884 34.3094 7.53573 34.2283C8.52428 33.9362 9.15631 34.2445 10.1773 34.7637C11.0038 35.1855 12.0247 35.7047 13.5643 36.0454C17.243 36.8567 19.4146 36.662 22.1696 35.2666C24.6491 34.0011 26.3669 34.2445 27.8579 34.4716L28.1496 34.5203C28.7168 34.6014 28.9923 34.9259 29.365 35.364C29.8512 35.9319 30.4508 36.6457 31.8445 36.9216C32.2335 37.0027 32.5738 37.0351 32.9141 37.0351C34.5671 37.0351 35.5881 36.1428 36.6739 35.2017L37.079 34.861C38.0676 34.0174 39.4937 33.6766 40.8388 33.9038L41.8273 41.87C41.8597 42.0809 42.0218 42.227 42.2325 42.227L44.2096 42.1945C44.4202 42.1945 44.5985 42.0161 44.6147 41.8051L44.7768 35.0233C45.5385 35.1044 46.0733 35.072 46.1219 35.072C46.3488 35.0557 46.5108 34.8773 46.5108 34.6501L46.1381 23.9419ZM17.0486 7.73362C17.5185 7.96077 18.0209 8.1879 18.5881 8.22035C18.8798 8.23658 19.5118 8.25281 20.3383 8.25281C23.0285 8.26903 28.6033 8.31769 30.4184 9.24249C32.7682 10.4431 37.16 12.6821 37.5814 17.7279C37.5814 17.7604 37.6138 17.7766 37.6138 17.8091H25.1515C25.1029 17.7442 25.0543 17.6793 24.9732 17.663C24.2278 17.4359 23.4823 16.9654 22.8503 16.3326C22.6882 16.1704 22.4451 16.1704 22.2831 16.3326C22.121 16.4949 22.121 16.7545 22.2831 16.9005C22.6396 17.2574 23.0123 17.5657 23.4175 17.8091H22.2344C22.2182 17.8091 22.2182 17.7928 22.2182 17.7766C21.4079 17.2736 20.7111 16.5111 20.0953 15.4889C19.9818 15.2943 19.7387 15.2293 19.5443 15.3429C19.3498 15.4565 19.285 15.6999 19.3984 15.8946C19.8684 16.6733 20.3708 17.2899 20.938 17.7928H19.5929C19.5929 17.7928 19.5929 17.7766 19.5767 17.7766C18.5719 16.9654 18.1181 15.6836 17.7292 14.5479C17.6482 14.337 17.4213 14.2234 17.2106 14.3046C16.9999 14.3857 16.8865 14.6128 16.9675 14.8237C17.3079 15.7648 17.7292 16.8843 18.4747 17.7928H17.4699C17.4537 17.7766 17.4699 17.7442 17.4537 17.7279C16.7082 16.8194 16.3031 15.6025 16.2545 14.0612C16.2545 13.834 16.0762 13.688 15.8331 13.6718C15.6062 13.688 15.428 13.8665 15.4442 14.0936C15.4928 15.5701 15.8817 16.8031 16.53 17.7928H15.7359C15.5738 17.225 15.1201 15.5701 15.0714 13.8178C15.0228 12.3738 14.407 11.5464 13.9532 10.9298C13.6777 10.5567 13.4509 10.2484 13.4347 9.92393L13.4184 9.69679C13.3698 8.65842 13.3212 7.76606 14.6825 7.34422C15.6549 7.08463 16.3355 7.39291 17.0486 7.73362ZM11.652 8.60974C11.1658 8.36637 10.631 8.10679 9.9504 8.13924C9.93419 8.10679 9.95039 8.07433 9.91798 8.04188L8.11914 5.738C8.8322 5.83535 9.59386 5.72177 10.1611 5.55953L12.7216 8.25281C12.6568 8.49617 12.6244 8.73954 12.6082 8.98291C12.284 8.91801 11.9599 8.77198 11.652 8.60974ZM7.68157 3.10962C8.00569 2.93115 8.45946 2.97983 9.04287 3.27188C9.17252 3.33677 9.33457 3.32054 9.46422 3.23942C9.59386 3.14207 9.64248 2.99606 9.62627 2.85003C9.61007 2.70401 9.4318 1.40605 10.5662 1.09778C10.5662 1.09778 11.1172 1.01666 11.5224 1.32492C11.7655 1.50339 11.9113 1.81167 11.9599 2.21728C11.9599 2.24973 12.041 2.85004 11.4575 3.61259C11.3441 3.77484 11.3441 4.00198 11.4899 4.13177L14.0343 6.77637C13.6129 6.97106 13.2888 7.19821 13.0781 7.47402L10.55 4.8132C10.4366 4.69963 10.2745 4.65096 10.1125 4.71586C10.08 4.73208 7.69778 5.55953 7.04955 4.19667C7.13058 3.90463 7.29263 3.32054 7.68157 3.10962ZM5.85032 6.97107L5.49378 6.51678C5.39655 6.38699 5.29931 6.24096 5.20208 6.09494C5.00761 5.78667 4.79694 5.47841 4.52144 5.23504C4.27835 5.0079 3.88941 5.02411 3.37082 5.07279C3.28979 5.07279 3.20876 5.08902 3.16014 5.08902C2.5119 5.08902 1.68541 4.95922 1.34509 4.5536C1.18303 4.35891 1.13441 4.11555 1.19923 3.79106C1.34508 3.04473 2.15538 2.63911 2.7712 2.65534C2.83602 2.65534 2.93325 2.68779 3.03049 2.73646C3.16013 2.78514 3.30599 2.85004 3.50046 2.86626C3.85699 2.88249 3.88941 2.72023 4.11629 1.94145C4.16491 1.76298 4.21352 1.60074 4.24593 1.53584C4.4566 1.01665 4.92658 0.757064 5.50999 0.854412C5.70446 0.886861 5.8341 0.967989 5.93134 1.11401C6.40131 1.77922 6.12582 3.38544 6.02858 3.92085L5.99616 4.13177C5.97996 4.24535 6.01237 4.34268 6.0772 4.44003L9.12389 8.35015C8.54048 8.57729 8.0381 8.93423 7.68157 9.38852C7.09816 8.54484 6.46614 7.73362 5.85032 6.97107ZM8.70254 15.9108C8.68633 15.3754 8.68633 14.8237 8.5891 14.2559C8.50807 13.7854 8.34601 13.3635 8.18395 12.9579C8.02189 12.5198 7.85984 12.1142 7.81122 11.6762C7.66537 10.3782 8.49187 9.2425 9.78834 8.96668C10.3393 8.85311 10.7769 9.08026 11.2793 9.33985C11.6682 9.53454 12.1058 9.76169 12.6244 9.81036L12.6406 10.005C12.673 10.5891 12.9809 11.011 13.3212 11.4653C13.6777 11.952 14.0667 12.5036 14.2125 13.3635C13.4509 12.6983 12.835 11.7573 12.2678 10.8163C12.1544 10.6216 11.8951 10.5567 11.7168 10.6703C11.5224 10.7838 11.4575 11.0272 11.571 11.2219C12.2678 12.3901 13.0295 13.5745 14.0991 14.3208C14.1639 14.3695 14.2287 14.3857 14.3098 14.3857C14.407 15.8459 14.7311 17.1438 14.9094 17.8253H13.4184C13.4184 17.7604 13.4347 17.6955 13.4184 17.6144C13.2402 17.225 13.1916 16.7707 13.143 16.3002C13.0943 15.8297 13.0457 15.3429 12.8512 14.8562C12.4623 13.8665 11.8789 12.9417 11.3279 12.0493C11.02 11.5626 10.7283 11.0759 10.4528 10.5891C10.3393 10.3944 10.0963 10.3133 9.90178 10.4269C9.70731 10.5405 9.62628 10.7838 9.73972 10.9785C10.0152 11.4815 10.3231 11.9682 10.631 12.4712C11.1658 13.3311 11.733 14.2397 12.0896 15.1482C12.2354 15.5214 12.284 15.9432 12.3327 16.3813C12.3813 16.8518 12.4461 17.3385 12.6406 17.8091H11.101C11.101 17.7766 11.1172 17.7442 11.101 17.7279C10.8903 17.2412 10.8741 16.6733 10.8417 16.073C10.8255 15.5376 10.7931 14.986 10.6472 14.4668C10.4528 13.8016 10.1125 13.2175 9.78834 12.6659C9.51284 12.1954 9.25354 11.7573 9.07528 11.2706C8.99425 11.0596 8.76737 10.9461 8.55669 11.0272C8.34601 11.1083 8.23257 11.3355 8.3136 11.5464C8.50807 12.1142 8.79978 12.601 9.09149 13.0877C9.3994 13.6231 9.7073 14.1261 9.86936 14.6939C9.99901 15.132 10.0152 15.6025 10.0314 16.1055C10.0476 16.6733 10.0962 17.2574 10.2907 17.8091H8.91322C8.73496 17.1763 8.71874 16.5598 8.70254 15.9108ZM5.52619 18.6852V18.6203H40.9684V18.6852C40.9684 19.4964 40.6443 20.3076 40.0609 20.8755C39.4775 21.4596 38.6834 21.7841 37.8731 21.7841H8.63772C7.81123 21.7841 7.03334 21.4596 6.44992 20.8755C5.85031 20.3076 5.52619 19.5126 5.52619 18.6852ZM42.4756 33.5306C40.5308 32.5896 38.1486 32.8492 36.5766 34.1958L36.1715 34.5528C34.8912 35.6723 33.9513 36.4673 32.039 36.0941C30.9208 35.867 30.467 35.3315 30.0132 34.8124C29.5919 34.3256 29.1705 33.8064 28.2954 33.6929L28.0037 33.6442C27.3879 33.5468 26.7235 33.4495 25.9618 33.4495C24.8112 33.4495 23.4661 33.6767 21.8293 34.5041C19.2364 35.8183 17.2754 35.9967 13.7588 35.218C12.3164 34.8935 11.3441 34.4067 10.55 34.0011C9.46422 33.4495 8.5891 33.0114 7.29264 33.417C6.0934 33.7902 2.65775 34.861 1.06958 34.7475L0.794084 24.1204C0.794084 23.8446 0.891319 23.5688 1.08579 23.3578C1.28026 23.1631 1.55576 23.0333 1.83126 23.0333C8.73495 23.0171 37.5166 22.936 44.242 22.9198C44.8092 22.9198 45.2792 23.3578 45.2954 23.9419L45.6519 34.1958C45.0199 34.2121 43.6424 34.0985 42.4756 33.5306Z" fill="#0E495B"/>
<path d="M2.51147 25.0775C2.51147 24.8503 2.30079 24.6556 2.10632 24.6718C1.87944 24.6718 1.70117 24.8503 1.70117 25.0775C1.71738 26.197 1.74979 27.3164 1.78221 28.4359C1.83082 29.7501 1.86324 31.0643 1.86324 32.3785C1.86324 32.6057 2.04151 32.7841 2.26839 32.7841C2.49527 32.7841 2.67353 32.6057 2.67353 32.3785C2.67353 31.0643 2.62491 29.7339 2.5925 28.4197C2.56009 27.3165 2.51147 26.197 2.51147 25.0775Z" fill="#0E495B"/>
<path d="M19.1553 33.1416C17.4537 33.5472 16.0438 33.4823 14.5852 32.882C14.099 32.6873 13.6291 32.444 13.1267 32.1844C11.8788 31.5354 10.6148 30.8702 9.12384 30.9675C8.89696 30.9838 8.73491 31.1785 8.75112 31.4056C8.76732 31.6327 8.92937 31.8112 9.18867 31.7788C10.4365 31.6976 11.5709 32.2817 12.754 32.9145C13.2401 33.1741 13.7587 33.4337 14.2773 33.6446C15.2335 34.034 16.1734 34.2287 17.162 34.2287C17.8588 34.2287 18.5719 34.1313 19.3497 33.9528C19.5604 33.9042 19.7063 33.677 19.6414 33.4661C19.5928 33.2227 19.3822 33.0767 19.1553 33.1416Z" fill="#0E495B"/>
<path d="M31.4722 32.6709C31.0347 32.3788 30.5647 32.0868 30.0785 31.8434C29.1386 31.3891 28.0366 31.2106 26.9022 31.308C26.6753 31.3242 26.5132 31.5189 26.5294 31.7461C26.5456 31.9732 26.7077 32.1355 26.967 32.1192C27.9556 32.0381 28.9279 32.2003 29.722 32.5735C30.1758 32.7844 30.5971 33.0602 31.0347 33.3523C31.4236 33.6119 31.845 33.8715 32.2663 34.0986C32.3311 34.1311 32.396 34.1473 32.4446 34.1473C32.5904 34.1473 32.7363 34.0662 32.8011 33.9202C32.8983 33.7255 32.8173 33.4821 32.6228 33.3685C32.2339 33.1738 31.8612 32.9305 31.4722 32.6709Z" fill="#0E495B"/>
<path d="M42.7672 31.113C42.1027 30.8859 41.3573 30.8859 40.6928 30.9021C40.4984 30.9021 40.2877 30.9021 40.0932 30.9021C40.0932 30.9021 40.0932 30.9021 40.077 30.9021C39.8663 30.9021 39.6719 31.0806 39.6719 31.2915C39.6719 31.5187 39.8501 31.6971 40.0608 31.7134C40.2553 31.7134 40.466 31.7134 40.6766 31.7134C41.3087 31.7134 41.9407 31.6971 42.4755 31.8918C42.5241 31.9081 42.5565 31.908 42.6051 31.908C42.7672 31.908 42.9292 31.7945 42.9941 31.6322C43.0913 31.4213 42.9779 31.1942 42.7672 31.113Z" fill="#0E495B"/>
</svg>
