<svg width="45" height="42" viewBox="0 0 45 42" fill="none" xmlns="http://www.w3.org/2000/svg">
<path d="M15.5813 34.7235C15.3971 34.6667 15.1986 34.766 15.1278 34.9505C15.0569 35.135 15.1703 35.3337 15.3546 35.4046C15.7939 35.5465 16.2191 35.6316 16.6443 35.6316C17.0979 35.6316 17.5373 35.5465 17.9767 35.3762C18.1609 35.3053 18.246 35.1066 18.1893 34.9221C18.1184 34.7377 17.9058 34.6525 17.7357 34.7093C17.0129 34.9647 16.3184 34.9789 15.5813 34.7235Z" fill="#385C65"/>
<path d="M15.4678 33.0487C15.4678 33.0629 15.4678 33.0629 15.4678 33.0487C15.482 33.0629 15.482 33.0628 15.4962 33.0628C15.5387 33.1054 15.5954 33.1622 15.6521 33.1764C15.8647 33.2189 16.0773 33.2757 16.2899 33.3325L16.6017 33.4176C16.6301 33.4176 16.6584 33.4318 16.6868 33.4318C16.8427 33.4318 16.9844 33.3183 17.027 33.1622C17.0695 32.9777 16.9561 32.7791 16.7718 32.7365L16.4742 32.6514C16.3608 32.623 16.2474 32.5946 16.134 32.5662C16.375 32.0838 16.5592 31.5729 16.7151 31.0621L16.7576 30.9202C16.8143 30.7357 16.7151 30.5371 16.5309 30.4803C16.3466 30.4235 16.1482 30.5228 16.0915 30.7073L16.049 30.8492C15.8647 31.4452 15.6663 32.0554 15.3545 32.5662C15.2694 32.7081 15.3119 32.8784 15.4253 32.9919C15.4395 33.0203 15.4537 33.0345 15.4678 33.0487Z" fill="#385C65"/>
<path d="M14.7171 28.5932C14.1502 28.7067 13.6399 29.0047 13.2289 29.2743C13.0588 29.3878 13.0163 29.6007 13.1297 29.7709C13.2006 29.8703 13.314 29.927 13.4273 29.927C13.4982 29.927 13.5549 29.9128 13.6258 29.8703C13.9801 29.629 14.4195 29.3736 14.873 29.2885C15.0715 29.2459 15.1849 29.0614 15.1565 28.877C15.0856 28.6783 14.9014 28.5648 14.7171 28.5932Z" fill="#385C65"/>
<path d="M14.2496 30.4805C13.9236 30.4805 13.6543 30.7501 13.6543 31.0906C13.6543 31.4312 13.9236 31.7008 14.2496 31.7008C14.5756 31.7008 14.8449 31.4312 14.8449 31.0906C14.8449 30.7501 14.5756 30.4805 14.2496 30.4805Z" fill="#385C65"/>
<path d="M4.83748 14.999C4.51148 14.999 4.24219 15.2686 4.24219 15.6092C4.24219 15.9497 4.51148 16.2193 4.83748 16.2193C5.16347 16.2193 5.43279 15.9497 5.43279 15.6092C5.43279 15.2686 5.16347 14.999 4.83748 14.999Z" fill="#385C65"/>
<path d="M10.5347 8.089C10.8607 8.089 11.13 7.81938 11.13 7.47882C11.13 7.13825 10.8607 6.86865 10.5347 6.86865C10.2087 6.86865 9.93945 7.13825 9.93945 7.47882C9.93945 7.81938 10.2087 8.089 10.5347 8.089Z" fill="#385C65"/>
<path d="M14.4898 7.90394C14.8158 7.90394 15.0851 7.63432 15.0851 7.29376C15.0851 6.9532 14.8158 6.68359 14.4898 6.68359C14.1639 6.68359 13.8945 6.9532 13.8945 7.29376C13.8945 7.63432 14.1639 7.90394 14.4898 7.90394Z" fill="#385C65"/>
<path d="M8.40876 16.0773C8.73476 16.0773 9.00405 15.8077 9.00405 15.4671C9.00405 15.1266 8.73476 14.8569 8.40876 14.8569C8.08277 14.8569 7.81348 15.1266 7.81348 15.4671C7.81348 15.8077 8.08277 16.0773 8.40876 16.0773Z" fill="#385C65"/>
<path d="M18.6715 31.7432C18.9974 31.7432 19.2667 31.4736 19.2667 31.133C19.2667 30.7925 18.9974 30.5229 18.6715 30.5229C18.3455 30.5229 18.0762 30.7925 18.0762 31.133C18.0762 31.4736 18.3313 31.7432 18.6715 31.7432Z" fill="#385C65"/>
<path d="M31.3707 25.3862C31.0447 25.3862 30.7754 25.6558 30.7754 25.9964C30.7754 26.337 31.0447 26.6066 31.3707 26.6066C31.6967 26.6066 31.966 26.337 31.966 25.9964C31.966 25.6558 31.6967 25.3862 31.3707 25.3862Z" fill="#385C65"/>
<path d="M33.6392 8.61388C33.9652 8.61388 34.2345 8.34426 34.2345 8.00371C34.2345 7.66315 33.9652 7.39355 33.6392 7.39355C33.3132 7.39355 33.0439 7.66315 33.0439 8.00371C33.0439 8.33007 33.3132 8.61388 33.6392 8.61388Z" fill="#385C65"/>
<path d="M35.2828 26.5924C35.6088 26.5924 35.8781 26.3228 35.8781 25.9822C35.8781 25.6417 35.6088 25.3721 35.2828 25.3721C34.9568 25.3721 34.6875 25.6417 34.6875 25.9822C34.6875 26.3228 34.9568 26.5924 35.2828 26.5924Z" fill="#385C65"/>
<path d="M32.037 23.8821C32.037 23.6834 31.8811 23.5273 31.6827 23.5273C31.1441 23.5415 30.648 23.6692 30.2086 23.9247C30.0385 24.024 29.9818 24.2369 30.081 24.4071C30.1519 24.5207 30.2653 24.5916 30.3928 24.5916C30.4495 24.5916 30.5063 24.5774 30.5629 24.549C30.9031 24.3504 31.2858 24.251 31.711 24.2368C31.8811 24.2368 32.037 24.0808 32.037 23.8821Z" fill="#385C65"/>
<path d="M33.483 28.0969L33.5964 28.1253C33.6248 28.1395 33.6673 28.1394 33.6956 28.1394C33.8515 28.1394 33.9933 28.0401 34.0358 27.884C34.0925 27.6996 33.9791 27.5009 33.7948 27.4441L33.6531 27.4016C33.5397 27.3732 33.2562 27.2881 33.1287 27.2171C33.1287 27.2171 33.1287 27.2029 33.1428 27.2029C33.1428 27.1887 33.1854 27.1036 33.1854 27.0894C33.2846 26.7488 33.3555 26.4083 33.4263 26.0535C33.4688 25.8548 33.3413 25.6704 33.1428 25.642C32.9444 25.5852 32.7602 25.7271 32.7318 25.9258C32.6751 26.2522 32.6042 26.5786 32.4909 26.9333C32.42 27.1036 32.3491 27.2739 32.42 27.4441C32.5759 27.8557 33.1145 27.9975 33.483 28.0969Z" fill="#385C65"/>
<path d="M32.363 29.1748C32.1788 29.1181 31.9803 29.2174 31.9095 29.4019C31.8528 29.5863 31.952 29.785 32.1363 29.8559C32.6465 30.0262 33.1709 30.1113 33.667 30.1113C34.3048 30.1113 34.9143 29.9695 35.467 29.6999C35.6371 29.6147 35.708 29.4019 35.623 29.2316C35.5379 29.0613 35.3253 28.9762 35.1552 29.0755C34.3473 29.4586 33.3552 29.5012 32.363 29.1748Z" fill="#385C65"/>
<path d="M6.66638 17.7374L6.79394 17.6807C7.13411 17.5104 7.65854 17.2692 7.77193 16.8009C7.81445 16.6306 7.74358 16.4745 7.65854 16.2758C7.54515 15.8927 7.43177 15.5096 7.29003 15.1406C7.21916 14.9562 7.02072 14.8568 6.83646 14.9278C6.6522 14.9987 6.55299 15.1974 6.62386 15.3819C6.75142 15.7366 6.86481 16.1056 6.9782 16.4745C6.99238 16.5029 7.00655 16.5455 7.02072 16.588C7.0349 16.6306 7.06323 16.659 7.07741 16.6306C7.04906 16.7583 6.62385 16.957 6.48211 17.0279L6.34039 17.0989C6.1703 17.184 6.09943 17.3969 6.18447 17.5813C6.24117 17.709 6.36873 17.78 6.4963 17.78C6.56717 17.78 6.62386 17.7658 6.66638 17.7374Z" fill="#385C65"/>
<path d="M7.51671 19.3274C7.51671 19.0011 7.26161 18.7314 6.93561 18.7314C6.6238 18.7314 6.35449 19.0011 6.35449 19.3274C6.35449 19.6538 6.60962 19.9234 6.93561 19.9234C7.26161 19.9234 7.51671 19.6538 7.51671 19.3274Z" fill="#385C65"/>
<path d="M19.7193 12.6436C19.8469 12.5017 19.8469 12.2746 19.691 12.1469C19.3508 11.8347 18.9397 11.6928 18.5287 11.7354C18.146 11.7922 17.82 12.0192 17.5791 12.3882C17.4799 12.5585 17.5224 12.7713 17.6925 12.8706C17.7492 12.9132 17.82 12.9274 17.8767 12.9274C17.9901 12.9274 18.1177 12.8706 18.1744 12.7571C18.2878 12.5726 18.4437 12.4591 18.6137 12.4307C18.798 12.3882 19.0106 12.4875 19.1949 12.6578C19.365 12.7997 19.5917 12.7855 19.7193 12.6436Z" fill="#385C65"/>
<path d="M21.4927 12.899C21.5919 12.899 21.7053 12.8565 21.7762 12.7571C21.9321 12.5585 22.1589 12.4449 22.414 12.4166C22.6975 12.3882 22.9951 12.4875 23.2077 12.672C23.3495 12.7997 23.5763 12.7855 23.7038 12.6436C23.8314 12.5017 23.8172 12.2746 23.6755 12.1469C23.3211 11.8348 22.825 11.6787 22.3573 11.7213C21.9037 11.7638 21.5069 11.9767 21.2376 12.3314C21.11 12.4875 21.1383 12.7146 21.2943 12.8281C21.3368 12.8706 21.4076 12.899 21.4927 12.899Z" fill="#385C65"/>
<path d="M20.6418 14.7861L20.7694 14.8429C20.8119 14.8713 20.8686 14.8713 20.9111 14.8713C21.0387 14.8713 21.1662 14.8003 21.2371 14.6584C21.3221 14.4882 21.2371 14.2753 21.067 14.1902L20.9111 14.1192C20.7977 14.0767 20.5001 13.9489 20.3583 13.8638C20.3583 13.6651 20.4575 13.3246 20.5284 13.0834C20.5993 12.8421 20.656 12.6293 20.6702 12.4732C20.6985 12.2745 20.5568 12.1043 20.3583 12.0759C20.1457 12.0475 19.9898 12.1894 19.9615 12.3881C19.9473 12.5158 19.8906 12.7002 19.8339 12.8989C19.7205 13.3246 19.593 13.7503 19.6497 14.0766C19.7347 14.3888 20.089 14.5591 20.6418 14.7861Z" fill="#385C65"/>
<path d="M22.5687 15.3112C21.6615 15.893 20.8395 15.964 19.6914 15.5525C19.5071 15.4815 19.3087 15.5808 19.2378 15.7653C19.167 15.9498 19.2662 16.1485 19.4504 16.2194C20.0174 16.4323 20.5276 16.5316 21.0237 16.5316C21.7041 16.5316 22.3277 16.3329 22.9655 15.9072C23.1356 15.7937 23.1781 15.5808 23.0647 15.4106C22.9513 15.2545 22.7387 15.2119 22.5687 15.3112Z" fill="#385C65"/>
<path d="M10.8908 10.5435C10.8482 10.728 10.9616 10.9267 11.1459 10.9693C11.6562 11.097 12.1522 11.1537 12.62 11.1537C13.3428 11.1537 14.009 11.0118 14.6326 10.728C14.8169 10.6429 14.8877 10.4442 14.8027 10.2597C14.7177 10.0753 14.5192 10.0043 14.335 10.0895C13.4279 10.501 12.4357 10.5577 11.3018 10.2881C11.1176 10.2314 10.9333 10.3591 10.8908 10.5435Z" fill="#385C65"/>
<path d="M12.8601 9.28055L12.9735 9.30892C13.016 9.32311 13.0444 9.32312 13.0728 9.32312C13.2287 9.32312 13.3704 9.22378 13.4129 9.06769C13.4696 8.88322 13.3704 8.68456 13.172 8.6278L13.0302 8.58523C12.6759 8.4859 12.4916 8.42914 12.3924 8.38657C12.4207 8.18791 12.5058 7.9183 12.5767 7.67707C12.6475 7.43584 12.7184 7.20882 12.7467 7.02435C12.7751 6.82569 12.6475 6.65539 12.4491 6.61282C12.2507 6.58444 12.0806 6.71216 12.0381 6.91082C12.0097 7.06691 11.953 7.26557 11.8821 7.46423C11.7688 7.83317 11.6412 8.23049 11.6554 8.57105C11.6979 8.93999 12.1373 9.08189 12.8601 9.28055Z" fill="#385C65"/>
<path d="M43.8435 19.4406C43.4325 18.2345 42.8939 16.858 42.0151 15.8647C41.349 15.1127 40.5411 14.616 39.634 14.1052L39.6623 10.3448C39.8324 10.4158 40.0167 10.4867 40.2009 10.5009C40.3001 10.5151 40.4135 10.5293 40.5269 10.5293C40.7112 10.5293 40.9379 10.5009 41.1506 10.4016C41.4057 10.2881 41.6325 10.1178 41.8167 9.89076C42.1427 9.49344 42.2844 9.02516 42.2136 8.55689C42.1285 8.03186 41.8167 7.59198 41.3631 7.36494C40.9379 7.15209 40.456 7.1521 40.0025 7.35076V4.47019C40.0025 4.39924 39.9883 4.32829 39.9458 4.27153C39.9033 4.21477 39.0812 2.99442 37.1536 2.37006C37.2244 2.0295 37.2386 1.57544 36.8985 1.39097C36.7851 1.33421 36.6859 1.44771 36.615 1.53285C36.4449 1.71732 36.3315 1.93017 36.1898 2.12883C36.1614 2.12883 36.1047 2.12884 35.9913 2.14303C35.9913 2.14303 35.9913 2.14302 35.9913 2.12883C35.9347 2.01531 35.8779 1.91599 35.8071 1.80247C35.637 1.54705 35.4244 1.27743 35.1268 1.1781C35.0559 1.14972 34.8574 1.10715 34.8007 1.1781C34.7157 1.27743 34.7582 1.47611 34.7724 1.58963C34.8149 1.81667 34.9 2.01532 34.9992 2.19979C33.9787 2.29912 32.5471 2.51196 31.64 2.95185C31.5266 3.00861 31.4558 3.12213 31.4416 3.23565L31.144 6.55612C31.1298 6.65545 31.1723 6.76897 31.2432 6.83992C31.2999 6.89668 31.3849 6.91086 31.4558 6.92505V7.36494C31.1156 7.23723 30.7187 7.22305 30.3219 7.39333C29.6699 7.67713 29.2589 8.2873 29.273 8.92585C29.2872 9.36574 29.5707 9.79143 30.0667 10.1178C30.3502 10.3165 30.6337 10.4016 30.903 10.4016C30.9172 10.4016 30.9313 10.4016 30.9313 10.4016C31.1156 10.4016 31.2857 10.359 31.4699 10.2881L31.4983 14.1903C30.3077 14.687 29.2589 15.4958 28.451 16.2337C27.8131 16.5459 27.4304 17 27.4304 17C26.821 17.9081 26.7359 18.8304 26.9202 19.6677C26.7926 19.6109 26.6792 19.5258 26.5659 19.469C27.0761 18.4473 26.7501 17.2128 26.7501 17.2128C27.2462 16.4323 27.0336 15.1552 26.821 14.3322C26.8919 14.2329 26.9485 14.1477 26.9911 14.0342C27.2037 13.5518 27.2037 13.0409 26.9769 12.5585C26.7218 12.0193 26.2115 11.5794 25.6021 11.3665C25.8572 8.0035 23.4335 6.37164 23.4335 6.37164C23.1784 6.14461 22.9232 5.98851 22.6823 5.83242C22.7957 5.7189 22.8382 5.54863 22.8949 5.33578C22.9091 5.29321 22.9091 5.25064 22.9232 5.22226L22.9658 5.09455C23.2067 4.4702 23.6177 3.42012 23.1358 2.83833C22.8807 2.52615 22.3279 2.37008 21.8035 2.25656C20.3153 1.90181 18.9121 2.39846 17.7357 3.67556C17.679 3.6188 17.6365 3.54783 17.5798 3.50526C17.5372 3.47688 17.4947 3.49109 17.438 3.4769C16.9561 1.90181 15.8648 0.709838 14.3482 0.227378C12.6332 -0.311842 10.5638 0.128046 9.18897 1.3342C8.08343 2.28492 7.60153 3.56203 7.75744 4.95265C7.60153 4.83913 7.70072 4.44181 7.7149 4.35667C7.74325 4.24315 7.71492 4.14381 7.64405 4.05867C6.87867 2.46939 5.00773 1.67475 3.10846 2.12883C2.499 2.27073 1.64858 2.54035 1.33676 3.22147C1.19502 3.53365 1.4218 3.87421 1.60606 4.15801C1.63441 4.20058 1.66276 4.24315 1.67693 4.27153C1.7478 4.38505 1.81867 4.51275 1.87536 4.64046C2.17301 5.20806 2.51317 5.84661 3.10846 6.25812C3.22185 6.32907 3.32107 6.38584 3.42028 6.40003C3.42028 6.4426 3.42028 6.48517 3.42028 6.52774C3.43446 6.61288 3.44865 6.88248 4.21403 7.29399C4.46915 7.43589 4.66757 7.49264 4.82348 7.49264C4.90852 7.49264 4.97938 7.47846 5.03608 7.43589C5.24868 7.30818 5.41877 7.10953 5.57468 6.91087C5.65973 6.79735 5.74478 6.698 5.82982 6.62705C6.26921 6.25811 6.76527 5.97432 7.27552 5.67633C7.31804 5.64795 7.33221 5.60538 7.36056 5.56281C7.40308 5.59119 7.43144 5.63377 7.48814 5.64796C7.53066 5.66215 7.58734 5.67633 7.62986 5.67633C7.62986 5.73309 7.62987 5.80404 7.61569 5.87499C7.16214 5.8608 6.75109 6.05946 6.45344 6.4284C6.08493 6.89667 5.97155 7.54941 6.15581 8.07444C6.38259 8.71299 7.04876 9.09612 7.95587 9.16707C8.01256 9.36573 8.06924 9.56438 8.14011 9.77723C6.907 9.49343 5.64556 9.4083 5.64556 9.4083L5.68808 8.41501C4.95105 8.84071 4.73844 9.42248 4.73844 9.42248L2.9809 9.09612L3.70377 9.89076C2.8817 10.2029 1.57773 11.2104 1.57773 11.2104C1.16669 11.7071 1.45015 13.8782 1.71945 14.6444C1.71945 14.6586 1.70528 14.6586 1.70528 14.6586C1.70528 14.687 1.70528 14.7863 1.70528 14.9282C1.37929 14.8856 1.02495 14.914 0.713133 15.1127C0.330445 15.3397 0.089485 15.6945 0.0186167 16.0776C-0.108946 16.9432 0.429658 17.752 1.30842 17.9649C1.47851 18.0074 1.6344 18.0216 1.80449 18.0216C1.86118 18.0216 1.91789 18.0074 1.97459 18.0074C2.15884 19.1142 2.48483 20.2069 3.05178 20.7745C3.0943 20.8312 3.84551 21.7962 5.56052 22.0942L5.58885 22.5908C5.54633 22.605 5.518 22.5908 5.47548 22.605C1.96042 24.8186 0.954085 29.1466 0.713133 32.3961C0.613918 33.7583 0.543043 35.3334 0.88321 36.795C0.911558 36.8943 0.968245 36.9795 1.05329 37.022C1.18085 37.093 9.74175 41.5486 22.5689 41.5486C28.1533 41.5486 34.5598 40.683 41.4199 38.2565C41.434 38.2565 41.4482 38.2565 41.4624 38.2565C41.4907 38.2565 41.5049 38.2282 41.5332 38.214C42.2136 37.9728 42.8797 37.7315 43.5601 37.4619C43.6168 37.4477 43.6309 37.391 43.6735 37.3626C43.7018 37.3626 43.716 37.3768 43.7301 37.3768C43.8577 37.3768 43.9711 37.32 44.042 37.2065C44.368 36.6389 44.4388 35.9436 44.4955 35.3476L44.5239 35.0354C44.6656 33.659 44.7365 32.2542 44.7932 30.8919C45.0625 27.2451 45.0625 22.9881 43.8435 19.4406ZM41.4907 16.333C41.5899 16.4465 41.6892 16.5884 41.7742 16.7303C41.7742 16.7303 41.76 16.7303 41.76 16.7445C41.2923 18.1777 41.0939 19.6677 40.9096 20.9731C40.4277 24.4213 40.5269 27.8269 40.6261 31.119C40.6545 32.0981 40.6545 33.063 40.6686 34.0421C39.8749 34.1273 39.0812 34.1131 38.2449 34.0847C37.5646 34.0563 36.8559 34.0421 36.1473 34.0847L36.1614 32.4386C37.0969 31.8285 38.004 30.75 38.3016 28.8344C39.1237 28.6783 39.6765 28.0398 39.6765 27.2309C39.6907 26.3937 39.1379 25.6984 38.33 25.4572L38.3158 24.9038C38.3158 23.6267 38.2166 22.3496 38.2166 22.3496C37.2103 18.2203 33.029 18.5608 33.029 18.5608C31.8668 16.7445 30.7613 16.1202 29.8542 16.035C30.3644 15.6377 30.9172 15.2971 31.5266 15.0133C31.6117 15.212 31.9944 15.9073 32.8873 15.9499C33.922 15.9925 38.1741 16.1769 38.1741 16.1769C38.1741 16.1769 39.3647 16.1202 39.6198 14.9708V14.9282C40.3568 15.3397 40.9663 15.7512 41.4907 16.333ZM40.5978 37.8876C40.2576 37.2207 39.8607 36.6814 39.4639 36.2274C39.7757 36.2274 40.0733 36.2132 40.3852 36.2274C40.5978 36.2274 40.8104 36.2416 41.0372 36.2416C41.0655 36.7666 41.108 37.2632 41.1506 37.7173C40.9663 37.7741 40.782 37.8309 40.5978 37.8876ZM29.0462 35.9861C29.4715 36.4544 30.7613 37.8592 31.555 38.2707C31.6967 38.3417 31.881 38.3133 31.9802 38.1998L33.2133 36.8375L34.3755 38.2282C34.4464 38.3133 34.5456 38.3559 34.6448 38.3559C34.7015 38.3559 34.7582 38.3417 34.8007 38.3133C34.9141 38.2565 37.3804 37.0078 38.2449 36.0287C38.8261 36.497 39.4214 37.1781 39.9174 38.1146C35.2685 39.633 30.8605 40.4276 26.7785 40.7398C26.7501 40.1864 26.7785 37.6606 29.0462 35.9861ZM34.4039 24.3362C35.1126 24.3078 35.6653 24.4355 36.0764 24.6484C36.1331 24.6767 36.1898 24.6909 36.2323 24.6909C36.3599 24.6909 36.4874 24.62 36.5441 24.4923C36.5725 24.4213 36.5725 24.3504 36.5583 24.2794C36.8843 24.3362 37.1961 24.3787 37.5221 24.4071L37.6071 25.1876L37.6638 28.0539C37.352 32.538 33.7661 32.5096 33.596 32.5096C29.8116 32.4245 29.6982 28.5932 29.6982 28.4229L29.6274 22.7469L29.6132 22.7327C30.166 22.236 31.1014 21.6826 31.1014 21.6826C32.0227 22.6759 33.0716 23.2861 34.2055 23.6976C34.1062 23.7544 34.0212 23.8537 34.0212 23.9814C34.0496 24.1801 34.2196 24.3362 34.4039 24.3362ZM38.4009 28.0539L38.3725 26.2234C38.7977 26.4505 38.9962 26.862 38.9962 27.2309C38.982 27.6141 38.7552 27.912 38.4009 28.0539ZM40.7395 35.5321C40.6261 35.5321 40.5127 35.5321 40.3993 35.5321C39.8608 35.5179 39.2938 35.5037 38.7127 35.5321C38.33 35.2199 37.9473 34.9645 37.593 34.78C37.8056 34.78 38.004 34.7942 38.2166 34.7942C38.6135 34.8084 39.0103 34.8226 39.4214 34.8226C39.8182 34.8226 40.2293 34.7942 40.6403 34.7658C40.6261 35.078 40.6403 35.3618 40.7395 35.5321ZM31.1581 34.9645C31.1723 35.007 31.1723 35.0638 31.2006 35.1064C31.229 35.1489 31.8952 35.9294 32.7314 36.2983L31.64 37.5045C31.0164 37.0788 30.1376 36.1564 29.6415 35.603C30.0809 35.3476 30.5912 35.1347 31.1581 34.9645ZM36.0622 35.1631C36.1047 35.1064 36.1189 35.0354 36.1331 34.9645C36.4732 35.0354 37.026 35.2341 37.6638 35.6172C37.0685 36.2699 35.5378 37.1355 34.7441 37.5612L33.7661 36.3835C34.3614 36.1564 35.6937 35.6456 36.0622 35.1631ZM35.4244 34.8084C35.1126 35.078 34.1771 35.4895 33.355 35.7591C32.7598 35.6456 32.1219 35.0638 31.8385 34.7516L31.9093 32.9069C32.3912 33.0914 32.944 33.2049 33.596 33.2191H33.6102C33.7519 33.2191 34.5315 33.1907 35.4386 32.8076L35.4244 34.8084ZM29.0179 28.0539C28.6069 27.9688 28.4226 27.6283 28.3801 27.2877C28.3376 26.862 28.5502 26.4079 28.9896 26.2376L29.0179 28.0539ZM29.0462 28.7634C29.1313 29.5439 29.5281 31.5163 31.2148 32.5664L31.144 34.2266C30.0384 34.5388 29.188 34.9786 28.5077 35.5179C28.3801 34.1273 28.2242 32.7508 28.0824 31.3602C27.9407 30.0689 27.8131 28.7635 27.6856 27.4438C27.7848 28.0823 28.2383 28.6783 29.0462 28.7634ZM35.1268 5.27901C35.4669 5.81823 36.1047 6.69801 36.8985 7.43589C36.7284 7.54941 36.615 7.71969 36.615 7.94673C36.615 8.28729 36.8843 8.55689 37.2103 8.55689C37.4796 8.55689 37.6922 8.37243 37.7772 8.11701C38.1741 8.37243 38.5993 8.5569 39.0245 8.65623L38.9111 11.4658C38.3158 10.7989 36.9552 10.2881 36.3032 10.0752C36.3032 10.0752 36.3032 10.0752 36.3032 10.0611C36.3599 9.87658 36.2465 9.6779 36.048 9.62114L35.1126 9.36573L35.4669 7.1521C35.4953 6.95344 35.3677 6.78315 35.1693 6.74058C34.9708 6.7122 34.8007 6.83992 34.7582 7.03858L34.3614 9.56439C34.333 9.74886 34.4464 9.91914 34.6165 9.96171H34.6307C33.6669 10.1604 32.6605 10.8415 32.3629 11.0685L32.207 10.7563L32.0086 6.92505C32.7456 6.79734 34.2055 6.41421 35.1268 5.27901ZM34.9567 11.9767C34.9567 11.9767 35.5803 12.9842 34.4748 13.1261C34.4748 13.1261 32.7031 13.4524 32.8023 11.9341L32.7881 11.9057C33.029 11.6219 33.5109 11.2814 34.007 10.9976C33.9928 11.1679 34.0779 11.3381 34.248 11.3807C34.5881 11.4658 34.9425 11.5084 35.2968 11.5084C35.722 11.5084 36.1614 11.4517 36.5583 11.3098C36.6717 11.2814 36.7284 11.1962 36.7709 11.0969C37.4512 11.6078 38.2024 12.2747 38.4292 12.4875C38.004 12.97 37.2953 13.4524 36.2323 12.9984C36.2323 12.9984 36.0055 12.7146 36.0764 11.9341L34.9567 11.9767ZM36.1614 10.6712C35.6228 10.8131 35.0559 10.8273 34.5173 10.6996C34.9 10.4867 35.1834 10.3448 35.1834 10.3448L35.1409 10.1178L35.8496 10.3165L35.8212 10.4867C35.9063 10.5151 36.0339 10.5861 36.1614 10.6712ZM40.2576 8.01769C40.5127 7.88998 40.7962 7.88997 41.0513 8.00348C41.3065 8.1312 41.4765 8.37243 41.5191 8.67042C41.5616 8.94003 41.4765 9.19546 41.2781 9.43669C41.1647 9.57859 41.023 9.67792 40.8812 9.74887C40.7253 9.81982 40.5553 9.83401 40.3001 9.79144C40.045 9.76306 39.8324 9.66372 39.7048 9.52182C39.6907 9.50763 39.6765 9.50764 39.6623 9.50764V8.6988H39.6765C39.8607 8.68461 40.0025 8.52852 40.0025 8.34405V8.21635C40.0875 8.1454 40.1726 8.07445 40.2576 8.01769ZM31.4699 9.56439C31.2999 9.67791 31.1156 9.73466 30.9313 9.73466H30.9172C30.7896 9.73466 30.6337 9.67791 30.4636 9.56439C30.2935 9.45087 29.9959 9.20965 29.9817 8.92585C29.9675 8.52853 30.2935 8.21635 30.5912 8.08864C30.7471 8.01769 31.1298 7.90415 31.4274 8.20214C31.4416 8.21633 31.4416 8.20216 31.4558 8.21635L31.4699 9.56439ZM15.5104 17.5108C15.5104 17.5108 12.6757 20.4197 13.3844 23.655C13.3418 23.6692 13.3135 23.6834 13.271 23.6976C13.2568 23.6976 13.2568 23.7118 13.2426 23.7118C12.1513 22.5482 10.2945 22.0658 8.7354 22.08V21.6259C9.40156 21.2286 10.1244 20.5616 10.5922 19.398C10.6063 19.3413 10.6914 18.7453 10.7764 17.9365C10.8898 17.9649 10.989 17.979 11.1024 17.979C11.2442 17.979 11.3859 17.9649 11.5276 17.9223C11.9386 17.8088 12.293 17.5392 12.4772 17.2128C12.7182 16.7871 12.7749 16.333 12.6899 15.9215C12.9592 15.9357 13.2426 15.9499 13.5261 15.9499C13.923 15.9499 14.334 15.9215 14.745 15.8789C14.6316 16.4182 14.7309 17.0283 15.5104 17.5108ZM18.0333 29.2459C18.6003 29.4871 19.1956 29.7567 19.6633 30.1399C19.7342 30.1966 19.805 30.225 19.8901 30.225C19.9893 30.225 20.0885 30.1824 20.1594 30.0973C20.2869 29.9412 20.2586 29.7284 20.1027 29.6006C19.72 29.2885 19.2664 29.0472 18.8129 28.8344C19.3515 29.0189 19.8901 29.1891 20.3011 29.5581C20.5421 29.7709 20.5704 29.8703 20.6129 30.1683C20.6413 30.3385 20.6838 30.5372 20.7263 30.7217C20.7121 30.7642 20.6838 30.7926 20.698 30.8352C21.3074 36.4686 17.8349 37.7883 17.6932 37.8308C16.9845 38.0721 16.0348 37.8876 16.0348 37.8876C12.7466 37.0646 12.5198 31.1899 12.5198 31.1332C12.5198 31.119 12.5056 31.1048 12.4914 31.0764C12.4773 30.9771 12.293 29.2601 12.4914 28.3945C12.8033 27.0465 14.2631 26.3228 15.6238 26.8904C16.4742 27.2451 16.9987 28.0114 17.8349 28.4513C17.9341 28.508 18.0475 28.5506 18.1609 28.5932C18.0192 28.5932 17.8774 28.6499 17.8207 28.7776C17.764 28.9621 17.8491 29.1749 18.0333 29.2459ZM21.5909 31.8569C21.761 31.9278 21.9169 31.942 22.0445 31.8994C22.1862 32.2968 22.1012 32.6373 22.0019 32.8643C21.8744 33.1481 21.6476 33.4036 21.3783 33.588C21.4634 33.0346 21.5059 32.4386 21.4917 31.7717C21.52 31.8001 21.5484 31.8427 21.5909 31.8569ZM11.726 31.7859C11.7827 31.8285 11.8253 31.8569 11.882 31.8852C11.9245 32.3535 12.0237 33.0063 12.1938 33.7158C11.8961 33.6448 11.5276 33.5029 11.3009 33.1481C11.1449 32.9069 11.1166 32.5947 11.23 32.3109C11.315 32.0697 11.4993 31.8852 11.726 31.7859ZM14.66 38.0295C15.0143 38.2707 15.4254 38.4694 15.8789 38.5829C15.9073 38.5829 16.3183 38.668 16.8286 38.668C17.1687 38.668 17.5656 38.6255 17.9341 38.512C17.9483 38.512 18.09 38.4552 18.331 38.3133V38.5687C18.3168 39.2215 18.3168 39.9026 18.3877 40.5837C18.3877 40.6405 18.4302 40.683 18.4585 40.7398C17.1829 40.6405 15.9498 40.4986 14.8017 40.3425C14.8017 39.5762 14.7309 38.7958 14.66 38.0295ZM11.2725 15.3113C11.3575 15.3255 11.4993 15.3823 11.5985 15.4532C12.0946 15.7938 12.1087 16.4324 11.8536 16.8864C11.7544 17.0567 11.556 17.1986 11.3292 17.2554C11.1449 17.3121 10.9607 17.2979 10.8189 17.227C10.8756 16.631 10.904 15.9925 10.9182 15.3823C11.0457 15.3255 11.1591 15.2972 11.2725 15.3113ZM15.5955 14.4741C15.5955 14.4741 15.3262 14.7296 15.0852 15.1127C14.1356 15.2688 13.2426 15.2546 12.4064 15.1978C12.378 15.1978 12.3639 15.212 12.3497 15.212C12.2505 15.0843 12.1371 14.9566 11.9953 14.8573C11.8961 14.7863 11.641 14.6302 11.3575 14.6018C11.2016 14.5877 11.0457 14.6018 10.9182 14.6302C10.904 14.2471 10.8615 13.9065 10.8048 13.6227C10.7906 13.5234 10.7339 13.4524 10.6489 13.3957C10.6489 13.3247 10.6489 13.2538 10.6489 13.197C11.2441 13.5943 11.9528 13.9207 12.8033 14.1052C12.8316 14.1052 12.8458 14.1194 12.8741 14.1194C12.9025 14.1194 12.945 14.1194 12.9733 14.1052C13.0017 14.091 14.0789 13.7504 15.2269 12.7997C15.2128 12.8848 15.1844 12.9558 15.1844 13.0551C15.1702 13.5802 15.3829 14.091 15.723 14.5309L15.5955 14.4741ZM17.9341 6.1446C17.9341 6.1446 17.9483 6.15879 17.9341 6.1446C18.0475 6.18717 18.1325 6.24394 18.2318 6.28651C18.1325 6.37165 18.0475 6.4426 17.9625 6.52774C17.9625 6.40003 17.9341 6.27231 17.9341 6.1446ZM16.6585 14.4458C16.2049 14.1194 15.8789 13.566 15.8931 13.0551C15.9073 12.6862 16.1057 12.4024 16.4601 12.2179C16.4742 12.9274 16.5309 13.7079 16.6585 14.4458ZM26.3533 12.9132C26.495 13.2112 26.495 13.5092 26.3533 13.8072C26.2824 13.9491 26.1832 14.091 26.0698 14.2045C25.8855 14.2755 25.7013 14.2755 25.5595 14.2471C25.6871 13.5376 25.7155 12.8423 25.6729 12.2037C25.9848 12.3882 26.2257 12.6294 26.3533 12.9132ZM24.9217 11.7496C25.106 13.0835 25.0209 14.8005 23.9721 16.404C23.391 17.2837 22.4839 17.8088 21.4208 17.8513C20.1877 17.9081 18.9263 17.3263 18.1467 16.333C17.2112 15.1411 17.1829 13.0267 17.1687 11.4375C19.1814 10.43 20.3436 8.4008 20.3436 8.4008C20.8822 10.4584 23.6178 11.4091 24.9217 11.7496ZM23.4477 17.8939L23.4335 19.994C21.9878 20.7603 20.0602 20.2211 19.4223 19.994L19.3515 18.1351C19.9468 18.4047 20.5987 18.5608 21.2507 18.5608C21.3074 18.5608 21.3783 18.5608 21.435 18.5608C22.1862 18.5325 22.8665 18.277 23.4477 17.8939ZM21.7043 3.02281C22.2287 3.15052 22.5405 3.26404 22.6256 3.36337C22.8524 3.63298 22.4697 4.5979 22.3421 4.91008L22.2996 5.03778C22.2854 5.08035 22.2712 5.15131 22.2429 5.22226C22.2287 5.25064 22.2287 5.2932 22.2146 5.32158C22.172 5.32158 22.1153 5.3074 22.0445 5.29321C21.7752 5.25064 21.52 5.1513 21.2507 5.03778C21.109 4.98102 20.9673 4.92427 20.8255 4.86751C20.6413 4.79656 20.4428 4.89588 20.372 5.08035C20.3436 5.1513 20.3578 5.22226 20.3861 5.29321C19.5499 5.36416 19.0255 5.7189 19.0255 5.7189C18.983 5.74728 18.9404 5.77567 18.8979 5.80405C18.7278 5.70472 18.5436 5.61957 18.3451 5.54862C18.4018 5.20806 18.331 4.76818 18.1751 4.35667C18.8979 3.51946 20.0743 2.63968 21.7043 3.02281ZM9.71339 1.94438C10.9181 0.894317 12.7182 0.511176 14.1923 0.979446C16.1341 1.6038 16.9136 3.42012 17.027 5.0094C16.8286 4.98102 16.6018 4.93846 16.5451 4.91008C16.5168 4.85332 16.4601 4.61208 16.4317 4.48437C16.4034 4.31409 16.3608 4.15801 16.3183 4.07287C16.1908 3.77488 16.0348 3.47688 15.8647 3.19308L15.8222 3.10794C15.6663 2.79576 15.5955 2.66805 15.4112 2.63967C15.3403 2.62548 15.2695 2.63968 15.2128 2.66806C14.9435 2.79577 14.986 2.98023 15.1135 3.54783L15.1419 3.68974C15.1986 4.01611 15.312 4.66884 15.1986 4.99521C15.0143 5.0094 14.66 5.0094 14.5324 4.99521C14.4332 4.99521 14.3623 4.99521 14.3198 4.99521L13.6678 5.0236C12.9733 5.05198 12.2646 5.09453 11.5701 5.05196H11.4426C11.3434 5.05196 11.0741 5.03778 10.9182 5.0094C10.9323 4.89588 10.9607 4.76818 10.9748 4.71142C10.989 4.64047 11.0032 4.5837 11.0032 4.56951C11.0315 4.41342 11.0599 4.22896 11.1024 4.04449C11.2158 3.44851 11.3434 2.78158 11.23 2.27074C11.2016 2.11465 11.0599 1.98693 10.904 1.97274C10.6488 1.97274 10.5355 2.19979 10.4646 2.35588C10.4079 2.4694 10.3512 2.58292 10.2945 2.69644C10.1244 3.037 9.99686 3.40594 9.8693 3.80326C9.85513 3.86002 9.82677 3.94516 9.79843 4.04449C9.74173 4.24315 9.55748 4.86751 9.42992 4.95265C9.27401 5.00941 9.01888 4.99522 8.76376 4.98103C8.67871 4.98103 8.59368 4.98103 8.50864 4.98103C8.3669 3.84583 8.77793 2.7674 9.71339 1.94438ZM5.41877 6.13042C5.30538 6.22975 5.17782 6.37165 5.06443 6.51355C4.97939 6.61288 4.89436 6.7264 4.80932 6.79735C4.65341 6.74059 4.36993 6.58449 4.22819 6.45678C4.29906 6.37164 4.42662 6.25812 4.51166 6.18717C4.5967 6.11622 4.66758 6.04527 4.72428 5.98851C4.83767 5.8608 4.85183 5.64795 4.75261 5.50605C4.56835 5.26482 4.29906 5.39253 4.07228 5.50605L3.95889 5.56281C3.88802 5.59119 3.81715 5.63377 3.76046 5.66215C3.70376 5.69053 3.64707 5.7331 3.56203 5.69053C3.10847 5.37835 2.83916 4.8675 2.55569 4.32828C2.48482 4.20057 2.41396 4.07286 2.34309 3.94515C2.31475 3.90258 2.28641 3.84582 2.24389 3.78906C2.20137 3.71811 2.10215 3.57622 2.05963 3.49108C2.31475 3.09376 3.06595 2.92348 3.32108 2.85253C4.89435 2.48359 6.42512 3.10796 7.04876 4.38506C7.00624 4.64048 6.99206 4.86751 7.04876 5.06617C7.02041 5.08036 7.00623 5.06616 6.97788 5.08035C6.43929 5.42091 5.90068 5.71891 5.41877 6.13042ZM6.87866 7.88996C6.76527 7.59197 6.83614 7.20885 7.06292 6.92505C7.16214 6.81153 7.36056 6.62705 7.67238 6.62705C7.68655 7.15208 7.72908 7.79065 7.85664 8.48596C7.53065 8.44339 7.03457 8.30147 6.87866 7.88996ZM8.39525 5.7189C8.50864 5.7189 8.62201 5.70471 8.7354 5.7189C9.04722 5.73309 9.37322 5.74729 9.64252 5.64796C9.89764 5.56282 10.0677 5.32158 10.2095 4.99521C10.1811 5.22225 10.1953 5.36416 10.3087 5.49187C10.5496 5.7331 10.9607 5.77566 11.4142 5.78985H11.5276C11.7686 5.80404 12.0095 5.80405 12.2505 5.80405C12.7324 5.80405 13.2284 5.77565 13.6962 5.76146L14.334 5.7331C14.3624 5.7331 14.419 5.7331 14.5041 5.7331C15.3262 5.76148 15.5671 5.7189 15.723 5.52024C15.7939 5.42091 15.8364 5.3074 15.8789 5.17969C15.9215 5.27902 15.964 5.34995 16.0207 5.40671C16.2474 5.61956 16.6443 5.67633 17.1404 5.74728C17.1546 5.74728 17.1687 5.74727 17.1829 5.76146C17.2254 6.38582 17.2396 6.96763 17.1829 7.50685C16.6585 8.41501 16.4742 9.39412 16.4175 10.1888C15.2836 12.4166 13.2851 13.2396 12.8316 13.3957C11.8961 13.1828 11.1591 12.7855 10.5638 12.303C10.4504 11.2956 10.2095 10.5861 10.0819 10.5861C9.79844 10.3732 9.41575 10.203 8.99054 10.0611C8.32438 8.32987 8.33855 6.47097 8.39525 5.7189ZM1.56354 17.3405C1.05329 17.227 0.741469 16.7587 0.812338 16.2621C0.840685 16.0776 0.968248 15.9073 1.16668 15.7938C1.36511 15.6661 1.60607 15.6377 1.79032 15.6945C1.8045 15.6945 1.8045 15.6945 1.81868 15.6945C1.83285 16.1485 1.87536 16.7303 1.9604 17.3547C1.83284 17.3547 1.71945 17.3689 1.56354 17.3405ZM3.67542 20.3772C2.68327 19.3697 2.49901 15.9499 2.49901 14.7295C2.49901 14.7154 2.48484 14.7154 2.48484 14.7012C2.6124 14.616 2.73996 14.5451 2.85335 14.4458C2.81083 14.5735 2.81083 14.7154 2.92422 14.8147C2.99509 14.8856 3.08013 14.914 3.16517 14.914C3.26438 14.914 3.34942 14.8715 3.42028 14.8005C3.80297 14.4032 4.34158 14.1052 4.97939 13.9349C5.16365 13.8782 5.27703 13.6937 5.23451 13.495C5.19199 13.3106 4.99356 13.197 4.79513 13.2396C4.25653 13.3815 3.80298 13.6227 3.40612 13.9207C4.31323 12.8706 4.45498 11.6361 4.45498 11.6361C4.80932 12.374 5.74478 12.8849 6.77945 13.2538C6.70859 13.3247 6.65187 13.4099 6.65187 13.5234C6.66605 13.7079 6.82196 13.864 7.00622 13.864H7.0204C7.54483 13.8214 8.12595 13.9349 8.74959 14.1478C8.79211 14.1619 8.82046 14.162 8.86298 14.162C9.00472 14.162 9.14644 14.0626 9.20314 13.9207C9.21731 13.8923 9.18896 13.8782 9.20314 13.8498C9.57165 13.9065 9.89765 13.9633 10.1386 13.9917C10.3937 15.7086 9.88348 19.2278 9.89765 19.2278C9.03306 21.3137 7.13379 21.5124 7.06292 21.5265C4.72427 21.6543 3.74629 20.4623 3.67542 20.3772ZM6.66606 22.2502C6.8078 22.2502 6.9637 22.2502 7.11961 22.236C7.16213 22.236 7.51648 22.1935 8.01255 22.009L7.99839 23.3429C7.36057 23.6409 6.70857 23.4422 6.41093 23.3003L6.36841 22.2219C6.46762 22.2219 6.56685 22.2502 6.66606 22.2502ZM5.71643 23.4422V23.5415C5.71643 23.6551 5.78729 23.7686 5.88651 23.8253C5.92903 23.8537 6.52433 24.1943 7.28971 24.1943C7.67239 24.1943 8.11176 24.1091 8.53697 23.8395C8.63619 23.7828 8.70707 23.6692 8.70707 23.5415V22.7894C10.0252 22.7611 11.6693 23.1584 12.6332 24.1091C10.337 25.7268 9.58583 28.8486 11.2016 31.2325C10.9182 31.417 10.6772 31.7008 10.5496 32.0271C10.3654 32.5238 10.4079 33.063 10.6772 33.4887C10.8898 33.8293 11.2158 34.0705 11.5985 34.2408C10.7906 36.0713 10.3937 37.7741 10.1386 39.4201C8.19681 38.9518 6.5385 38.441 5.20618 37.9728C5.22035 37.9444 5.2487 37.916 5.2487 37.8876C5.68808 33.7299 4.88018 29.4304 3.08013 26.3795C3.71794 25.2585 4.56836 24.2226 5.71643 23.4422ZM1.52102 32.5096C1.63441 30.8778 1.97459 28.9621 2.72579 27.2167C4.25654 30.0831 4.95106 33.9712 4.56837 37.7741C3.00927 37.1923 1.98875 36.7098 1.63441 36.5396C1.35094 35.2199 1.4218 33.7725 1.52102 32.5096ZM22.2287 40.9101C22.2996 40.9101 22.3563 40.9101 22.3563 40.9101C23.0083 39.4485 22.2146 34.9503 22.0303 33.9995C22.2996 33.7583 22.5122 33.4745 22.6539 33.1623C22.8807 32.6657 22.8949 32.1265 22.6965 31.6298C22.6539 31.5305 22.5831 31.4312 22.5264 31.346C22.6114 31.1474 22.6681 30.9345 22.7106 30.75C23.0508 29.2885 23.0933 27.6992 22.413 26.3228C21.3358 24.1517 18.8979 23.4848 16.6727 23.2719C15.6238 23.1726 14.575 23.1868 13.6111 23.5841C14.1214 22.7327 15.7797 20.3488 18.6995 19.3697L18.742 20.2495C18.742 20.3913 18.827 20.5049 18.9688 20.5616C19.0396 20.59 20.2586 21.0867 21.6618 21.0867C22.4272 21.0867 23.2634 20.9448 23.9863 20.4907C24.0855 20.4197 24.1563 20.3204 24.1563 20.1927V19.4406C25.1485 19.6961 26.3107 20.0792 27.2887 20.7319C27.7706 21.7536 28.5218 22.5624 28.947 22.9597L28.9754 25.4997C28.0683 25.6842 27.6431 26.5072 27.6714 27.2735C27.5864 26.4505 27.5155 25.6275 27.4446 24.8044C27.4305 24.6058 27.2604 24.4639 27.0619 24.4781C26.8635 24.4923 26.7218 24.6625 26.736 24.8612C26.9202 27.0606 27.147 29.2743 27.3879 31.4312C27.558 32.9637 27.7139 34.5104 27.8557 36.0571C27.8557 36.0713 27.8698 36.0713 27.8698 36.0855C26.0839 37.9302 26.0414 40.2715 26.0698 40.8107C24.7516 40.8817 23.476 40.9101 22.2287 40.9101ZM41.8309 37.4619C41.7884 37.0788 41.76 36.6673 41.7458 36.2274C42.2419 36.4118 42.8514 36.5112 43.6168 36.5112C43.6309 36.5112 43.6451 36.5112 43.6593 36.5112C43.6168 36.6389 43.5884 36.7666 43.5317 36.8801C43.4892 36.8801 43.4325 36.8659 43.39 36.8801C42.8797 37.0788 42.3553 37.2633 41.8309 37.4619ZM44.1837 30.9061C44.127 32.2542 44.0561 33.6448 43.9144 35.007L43.8861 35.3334C43.8719 35.4895 43.8435 35.6314 43.8294 35.7875C42.5537 35.8159 41.6608 35.5888 41.349 35.1773C41.3206 35.0638 41.349 34.6665 41.3631 34.5104C41.3631 34.4536 41.3631 34.4253 41.3773 34.3827C41.3773 34.3543 41.4057 34.3259 41.4057 34.2975C41.4057 34.2833 41.3915 34.2834 41.3915 34.2692V34.255V34.1131C41.3915 33.1056 41.3773 32.0981 41.349 31.0906C41.2498 27.8269 41.1506 24.4639 41.6183 21.0725C41.7742 19.9657 41.9585 18.7311 42.2845 17.5392C42.653 18.2203 42.9506 18.9724 43.1916 19.6819C44.3538 23.1016 44.3396 27.2735 44.1837 30.9061Z" fill="#385C65"/>
</svg>
