<svg width="46" height="39" viewBox="0 0 46 39" fill="none" xmlns="http://www.w3.org/2000/svg">
<path d="M39.334 28.8904C38.7593 28.8735 38.0663 29.0258 37.4071 29.3135C35.8859 29.9735 35.0238 31.1242 35.3957 31.9703C35.5985 32.4272 36.0887 32.681 36.7648 32.7149C36.7986 32.7149 36.8324 32.7149 36.8831 32.7149C37.4409 32.7149 38.0832 32.5626 38.7086 32.2918C40.2299 31.6318 41.075 30.4811 40.7201 29.635C40.5172 29.1781 40.0271 28.9243 39.334 28.8904ZM38.3706 31.5134C38.3199 31.5303 38.2692 31.5472 38.2185 31.5642C38.303 31.3949 38.3706 31.2088 38.4044 31.0226C38.472 30.5657 38.3368 30.1935 38.2185 29.9396C38.5734 29.8212 38.9284 29.7535 39.2326 29.7535C39.2664 29.7535 39.2833 29.7535 39.3171 29.7535C39.6383 29.7704 39.8918 29.855 39.9594 29.9904C40.0609 30.2611 39.5031 31.0226 38.3706 31.5134Z" fill="#985F50"/>
<path d="M35.0742 31.8181L35.108 28.129C35.108 28.0444 35.0911 27.9767 35.0573 27.909C34.5671 27.0798 33.1135 25.6245 31.1697 26.0645C29.9358 26.3522 28.9554 27.0291 28.4314 27.9767C28.0089 28.7382 27.9244 29.6012 28.2286 30.4474C28.2455 30.4812 28.6512 31.395 29.4963 31.6827L30.8654 32.1227L31.3894 32.7149C31.0176 32.7488 30.6288 32.8165 30.2569 32.9857C29.023 33.5272 28.3638 34.5256 28.7019 35.304C28.8878 35.7102 29.2935 35.9809 29.8682 36.0317C29.9358 36.0317 30.0203 36.0486 30.1048 36.0486C30.5274 36.0486 31.0007 35.9471 31.457 35.744C32.0317 35.4902 32.505 35.1179 32.7923 34.7118C32.8092 34.6948 32.8262 34.6948 32.8431 34.6779C32.86 34.6441 32.86 34.6102 32.8769 34.5764C32.8938 34.5425 32.9276 34.4918 32.9445 34.4579L34.3981 36.0824C34.6009 36.2855 35.0235 36.5224 35.5475 36.5224C35.8179 36.5224 36.1053 36.4547 36.4264 36.2855C36.4433 36.2686 36.4602 36.2686 36.4771 36.2517C36.7983 35.9978 37.2885 35.304 36.8321 34.4748L35.0742 31.8181ZM29.7668 30.8873C29.2935 30.7181 29.0061 30.1428 29.0061 30.1428C28.8033 29.5674 28.8709 28.9413 29.1752 28.3998C29.5808 27.6721 30.3584 27.1475 31.3556 26.9106C32.9783 26.5383 34.0093 27.8921 34.2798 28.2644L34.246 30.6504C34.1953 30.5827 34.1277 30.532 34.0431 30.515L32.4712 30.092C32.3867 29.9566 32.3022 29.8381 32.2177 29.7028C32.0655 29.4659 31.9134 29.229 31.7444 28.992C31.7106 28.9413 31.6599 28.8736 31.6092 28.8059C31.5416 28.7382 31.4401 28.6028 31.4232 28.5521C31.4063 28.3659 31.7613 28.0782 32.0824 27.9936C32.3022 27.9259 32.4374 27.689 32.3698 27.469C32.3022 27.249 32.0655 27.1137 31.8458 27.1814C31.4232 27.2998 30.8485 27.6721 30.6626 28.1967C30.2907 28.2136 29.9527 28.2644 29.6146 28.4505C29.4118 28.569 29.3442 28.8228 29.4456 29.0259C29.5301 29.1613 29.6653 29.2459 29.8175 29.2459C29.8851 29.2459 29.9527 29.2289 30.0203 29.1951C30.24 29.0766 30.4767 29.0428 30.7471 29.0259C30.8147 29.1443 30.8992 29.2459 30.9669 29.3305C31.0007 29.3812 31.0345 29.4151 31.0683 29.4659C31.2204 29.7028 31.3725 29.9228 31.5246 30.1597C31.6092 30.295 31.7106 30.4473 31.7951 30.5827L31.7613 31.835L31.4232 31.4627C31.3725 31.4119 31.3049 31.3612 31.2373 31.3442L29.7668 30.8873ZM29.9527 35.2025C29.6991 35.1856 29.5301 35.101 29.4794 34.9825C29.4118 34.8302 29.5639 34.5256 29.902 34.2379C30.2062 34.6779 30.595 34.9148 31.0176 35.0164C30.6457 35.1517 30.2569 35.2194 29.9527 35.2025ZM35.9532 35.5409C35.4292 35.8286 35.0235 35.4902 35.0066 35.4732L32.2853 32.4442C32.3191 32.4273 32.3698 32.4272 32.4036 32.4103L34.1615 31.2935C34.1953 31.2765 34.2122 31.2258 34.246 31.1919V31.9534C34.246 32.038 34.2629 32.1227 34.3136 32.1903L36.0884 34.8979C36.2574 35.2025 36.0546 35.4563 35.9532 35.5409Z" fill="#985F50"/>
<path d="M44.9455 27.2829C44.2356 27.5367 43.3904 27.8244 42.5284 28.0952C42.4439 27.7736 42.3594 27.469 42.258 27.1644C42.6298 26.9614 43.0017 26.7752 43.3566 26.5722C43.6609 26.4029 43.9482 26.2337 44.2525 26.0645C44.4553 25.946 44.5229 25.6922 44.4215 25.4892C44.3032 25.2861 44.0497 25.2184 43.8468 25.3199C43.5426 25.4891 43.2383 25.6584 42.951 25.8445C42.6298 26.0307 42.3087 26.2168 41.9875 26.386C41.8861 26.1322 41.7678 25.9122 41.6495 25.6922C41.8523 25.5399 42.0551 25.4045 42.258 25.2692C42.765 24.8969 43.2721 24.5415 43.7792 24.1861C43.9651 24.0508 44.0158 23.7969 43.8806 23.5939C43.7454 23.4077 43.4919 23.357 43.289 23.4923C42.765 23.8477 42.258 24.22 41.7509 24.5923C41.5649 24.7276 41.379 24.8461 41.21 24.9815C41.1931 24.9476 41.1593 24.8969 41.1424 24.8799C40.3818 23.7969 40.3818 22.697 40.3987 22.4601C41.9368 18.3987 40.855 13.8805 40.7874 13.6605C40.6184 13.1529 40.3987 12.6452 40.1451 12.1375C39.7902 11.1053 39.1648 9.86996 38.252 9.27768C37.9478 8.90539 37.6266 8.5331 37.2886 8.16081C37.4069 8.05928 37.5083 7.95775 37.6266 7.8393L38.1506 7.36547C38.3196 7.21317 38.3365 6.94241 38.1675 6.77319C38.0154 6.60397 37.7449 6.58706 37.5759 6.75628L37.0519 7.2301C36.9336 7.34855 36.8153 7.45008 36.6801 7.56854C36.5617 7.45008 36.4434 7.33163 36.3251 7.21317C36.5279 6.89165 36.7139 6.58705 36.9167 6.28245C37.0519 6.0963 37.0012 5.82555 36.7984 5.69017C36.6125 5.55479 36.342 5.60556 36.2068 5.80863C36.0209 6.07938 35.8518 6.36706 35.6659 6.65474C33.0629 4.37024 29.8852 2.57649 26.961 2.01806C25.8961 1.81499 24.9158 1.71346 23.9523 1.66269C23.9523 1.40886 23.9354 1.13811 23.9523 0.884274C23.9692 0.647363 23.7833 0.461215 23.5467 0.444293C23.2931 0.444293 23.1241 0.613511 23.1072 0.850422C23.0903 1.12118 23.1072 1.37501 23.1072 1.64577C22.9212 1.64577 22.7353 1.62884 22.5494 1.62884C22.5325 1.45962 22.5156 1.29041 22.4987 1.12118L22.4311 0.376603C22.4142 0.139692 22.2113 -0.0295321 21.9747 0.00431231C21.7381 0.0212345 21.569 0.24123 21.6028 0.461219L21.6704 1.18887C21.6874 1.34117 21.7043 1.51039 21.7212 1.66269C20.9774 1.69654 20.2844 1.78114 19.6421 1.88268C19.6252 1.88268 19.6252 1.86576 19.6083 1.88268C19.6083 1.88268 19.5576 1.89961 19.5238 1.91653C16.9546 2.33958 15.1291 3.11801 14.4023 3.49029C13.7769 3.81182 13.2191 4.35332 12.7289 4.99637C6.79605 4.50562 3.38171 10.0223 3.22958 10.3099C2.55347 11.7652 2.21542 13.0683 2.0802 14.2528C1.52241 14.2359 0.964618 14.202 0.389926 14.2528C0.153288 14.2697 -0.0157389 14.4728 0.00116382 14.7097C0.0180665 14.9466 0.237803 15.0989 0.457538 15.0989C0.96462 15.0651 1.4717 15.082 1.99569 15.0989C1.97878 15.4204 1.99568 15.742 2.01258 16.0466C1.69143 16.0466 1.37029 16.0466 1.03223 16.0635C0.795593 16.0804 0.62656 16.3004 0.643462 16.5204C0.660365 16.7404 0.846295 16.9096 1.06603 16.9096C1.08293 16.9096 1.09984 16.9096 1.09984 16.9096C1.43789 16.8758 1.75904 16.8757 2.0971 16.8927C2.58728 19.8541 4.39587 21.394 4.42967 21.4278C4.51419 21.4955 4.5987 21.5293 4.70012 21.5293C4.75083 21.5293 4.80154 21.5124 4.83534 21.4955C4.86915 24.863 5.8157 30.0074 10.5823 33.341C10.7175 33.4595 13.9628 36.1163 17.2926 36.1163C17.3434 36.1163 17.3941 36.1163 17.4448 36.1163C17.4617 36.1501 17.4786 36.184 17.5124 36.2009C17.8842 36.6409 18.273 36.7932 18.6618 36.7932C19.1858 36.7932 19.7097 36.4886 20.0985 36.2686C20.4027 36.0824 20.7239 35.8963 20.9943 35.8455C21.569 35.744 22.1775 35.7778 22.8198 35.8286C22.8874 35.8286 22.9551 35.8286 23.0227 35.8455C23.0227 35.8455 23.0396 35.8455 23.0396 35.8625C23.5128 35.9471 24.0199 35.964 24.527 35.964C24.7467 35.964 24.9834 35.964 25.2031 35.9471C25.6764 35.964 26.1497 35.9809 26.606 35.9978C26.6229 36.0148 26.6398 36.0655 26.6568 36.0824C26.7244 36.1163 26.792 36.1501 26.8765 36.1501C26.9779 36.1501 27.0624 36.0994 27.1469 36.0317C27.2652 36.0317 27.3836 36.0486 27.5019 36.0486C27.7554 36.2686 27.9921 36.4717 28.178 36.5901L27.6202 37.2839C27.5188 37.4193 27.5019 37.5885 27.5695 37.7408C27.6371 37.8931 27.7892 37.9608 27.9583 37.9777L36.4434 37.6224C36.4603 37.6224 38.3534 37.3347 39.469 37.5716C40.7029 37.8424 43.8975 38.0116 44.0327 38.0116H44.0496C44.2356 38.0116 44.4046 37.8931 44.4553 37.707C44.506 37.5208 44.4215 37.3178 44.2525 37.2162C42.8665 36.4209 42.3932 34.9148 42.2918 34.5087C42.9848 32.5288 42.9679 30.5996 42.6636 28.9582C43.5595 28.6705 44.4384 28.3828 45.1821 28.129C45.4019 28.0444 45.5202 27.8075 45.4357 27.5875C45.4019 27.3167 45.1652 27.1983 44.9455 27.2829ZM8.50323 11.7314L5.8495 8.4485C6.64393 7.70392 7.6919 6.92549 8.9596 6.4009L10.5147 9.1423C10.2949 9.63305 10.109 10.073 9.99067 10.3099C9.72023 10.8007 9.34837 11.0884 8.9427 11.4099C8.79058 11.4945 8.65535 11.6129 8.50323 11.7314ZM5.96782 18.2464C5.98472 18.1787 5.95092 18.128 5.93402 18.0603C6.22136 17.3665 6.54251 16.7911 6.81296 16.3512C6.82986 16.6727 6.84676 16.9604 6.86366 17.1973C6.4749 17.5865 6.18756 17.9249 5.96782 18.2464ZM4.42967 20.1079C3.92259 19.4818 3.22958 18.3818 2.94223 16.8081C3.11126 16.8081 3.28029 16.8081 3.46622 16.7911C3.70286 16.7742 3.87188 16.5711 3.85498 16.3342C3.83808 16.0973 3.63525 15.9281 3.39861 15.945C3.21268 15.962 3.02675 15.945 2.84082 15.9619C2.82392 15.6743 2.82391 15.3697 2.82391 15.0651C3.02675 15.0651 3.24649 15.082 3.44932 15.082C3.70286 15.082 3.93949 14.9128 3.93949 14.6589C3.93949 14.422 3.71976 14.2359 3.51693 14.2359C3.29719 14.2359 3.09436 14.219 2.89153 14.219C2.94224 13.8128 3.02675 13.3898 3.14507 12.9329L6.17065 15.742C5.59596 16.6388 4.78463 18.1449 4.42967 20.1079ZM5.74808 20.0063C5.79879 20.074 5.8495 20.1417 5.93402 20.1925C6.17065 20.3448 6.4411 20.3786 6.64393 20.3617C6.61013 20.5986 6.57632 20.8863 6.74535 21.1401C7.1172 21.7155 7.7088 21.5632 7.99615 21.4786C8.01305 21.5801 8.02996 21.6986 8.09757 21.817C8.3173 22.1555 8.65536 22.3078 9.02722 22.3078C9.34837 22.3078 9.68642 22.2062 9.97376 22.0201C10.9879 21.4109 12.0359 20.2263 12.543 19.0418C12.6951 18.6864 12.8303 18.3141 12.9655 17.9588C12.9824 17.9588 12.9824 17.9757 12.9994 17.9757C13.0501 17.9757 13.1008 17.9588 13.1684 17.9418C14.9094 17.2142 16.4982 16.1819 17.8842 14.8789C18.0364 14.7435 18.0364 14.5236 17.9349 14.3543C18.6449 14.3374 19.3717 14.3374 20.0816 14.3543C20.0647 14.6759 20.0478 14.9974 20.014 15.3189C19.9295 16.3681 19.8619 17.4511 19.9633 18.5341C19.9971 18.9741 20.1154 19.4141 20.1999 19.8202C20.3182 20.3279 20.4366 20.8186 20.4366 21.2924C20.4366 21.614 20.3182 21.9693 20.1999 22.3416C20.0309 22.8324 19.8788 23.34 19.9295 23.8815C19.9802 24.3554 20.2168 24.7276 20.5887 24.8969C20.7408 24.9646 20.9267 24.9984 21.1127 24.9984C21.3831 24.9984 21.6874 24.8969 21.9747 24.7446C22.2282 25.1507 22.5663 25.3199 22.7522 25.3538C22.8536 25.4045 22.9382 25.4045 23.0227 25.4045C23.4452 25.4045 23.8678 25.1845 24.2059 24.8123C24.4256 24.8969 24.6284 24.9307 24.8144 24.9307C25.1355 24.9307 25.4059 24.8292 25.5919 24.7276C26.2173 24.3723 26.6906 23.5769 26.792 22.6801C26.8427 22.2401 26.8258 21.8001 26.792 21.3601C27.3836 22.3416 27.7723 23.3908 27.8906 24.4061C24.8482 26.8091 24.7636 29.2628 24.7805 29.2966C24.696 29.6689 24.696 30.0412 24.6791 30.3797C24.172 30.3627 23.6481 30.3458 23.141 30.3627C22.6339 30.3627 22.1268 30.3627 21.6028 30.3458C20.6901 28.8228 20.0985 28.8228 19.8957 28.8228C19.8112 28.8228 19.7266 28.8567 19.6252 28.8905C19.6252 28.8905 19.6252 28.8905 19.6252 28.8736C20.3351 28.2475 21.0112 27.5875 21.6366 26.8768C21.7888 26.7075 21.7719 26.4368 21.6028 26.2845C21.4338 26.1322 21.1634 26.1491 21.0112 26.3183C20.4535 26.9445 19.8281 27.5537 19.1857 28.129C18.797 27.4521 18.4758 26.7245 18.2223 25.9799C18.6618 25.5907 19.0843 25.2015 19.49 24.8123L19.8111 24.5077C19.9802 24.3554 19.9971 24.0846 19.8281 23.9154C19.659 23.7462 19.4055 23.7462 19.2365 23.8985L18.9153 24.2031C18.5942 24.5077 18.273 24.8123 17.9518 25.1169C17.6645 24.0846 17.4448 23.0016 17.2926 21.9186C18.2223 21.4617 19.1012 20.9371 19.8957 20.3448C20.0816 20.2094 20.1154 19.9387 19.9802 19.7525C19.845 19.5664 19.5745 19.5325 19.3886 19.6679C18.6956 20.1925 17.9518 20.6325 17.1574 21.0386C17.0729 20.4125 17.0053 19.7864 16.9377 19.1941L16.8025 17.9926C16.7687 17.7557 16.5658 17.5865 16.3292 17.6203C16.0926 17.6542 15.9404 17.8572 15.9573 18.0941L16.0926 19.2787C16.1771 19.9725 16.2616 20.6832 16.363 21.4109C15.6531 21.7155 14.9263 21.9863 14.1656 22.2062C14.1149 21.9524 14.0811 21.6986 14.0473 21.4278C14.0135 21.1909 13.7938 21.0217 13.574 21.0725C13.3374 21.1063 13.1853 21.3094 13.2191 21.5463C13.2529 21.8509 13.3036 22.1216 13.3543 22.4262C11.495 22.8662 9.50049 23.0523 7.42146 22.917C7.16792 22.8831 6.98198 23.0862 6.98198 23.3062C6.96508 23.5431 7.15101 23.7462 7.37075 23.7462C7.82712 23.78 8.3004 23.78 8.75677 23.78C10.3963 23.78 12.0021 23.5939 13.5064 23.2385C13.8107 24.7784 14.1994 26.1322 14.7065 27.3506C13.7431 27.7567 12.7458 27.9767 11.6809 28.1967C11.3429 28.2644 11.0217 28.3321 10.6837 28.3998C10.4639 28.4505 10.3118 28.6705 10.3625 28.9074C10.4132 29.1105 10.5823 29.2459 10.7682 29.2459C10.802 29.2459 10.8358 29.2459 10.8527 29.229C11.1739 29.1613 11.5119 29.0936 11.8331 29.0259C12.8979 28.8059 13.9966 28.5859 15.0446 28.129C15.4333 28.9413 15.8897 29.6858 16.3799 30.3458C15.7038 30.8027 15.0108 31.2258 14.3009 31.5981C14.098 31.6996 14.0135 31.9703 14.1318 32.1734C14.1994 32.3088 14.3516 32.3934 14.5037 32.3934C14.5713 32.3934 14.6389 32.3765 14.7065 32.3426C15.4672 31.9365 16.2109 31.4796 16.9377 30.9889C16.9715 31.0396 17.0222 31.0904 17.056 31.1242C17.1067 31.175 17.1574 31.175 17.225 31.1919C17.056 31.3273 16.9039 31.5134 16.8194 31.7842C16.6672 32.2919 16.8363 32.6472 17.0898 32.9011C16.7856 33.0872 16.5827 33.358 16.4982 33.6964C16.363 34.2041 16.6334 34.7794 17.1236 35.0502C17.1912 35.084 17.2588 35.1009 17.3265 35.1179C17.3265 35.1348 17.3265 35.1517 17.3265 35.1686C14.3516 35.1179 11.2584 32.6303 11.1908 32.5965C5.90021 28.9413 5.56215 22.9508 5.74808 20.0063ZM15.2812 14.4389C15.8052 14.422 16.3292 14.422 16.8701 14.4051C16.9715 14.4051 17.0898 14.4051 17.1912 14.4051C16.0587 15.4543 14.791 16.3004 13.405 16.9434C13.7938 15.8943 14.3009 15.0143 15.2812 14.4389ZM18.8646 30.7012C18.797 30.7181 18.6956 30.735 18.5603 30.735L18.4251 30.752C18.2054 30.7689 17.9688 30.8196 17.7152 30.8873C17.7321 30.7689 17.7152 30.6335 17.6307 30.532C17.6138 30.515 17.5969 30.4981 17.58 30.4643C18.0533 30.1258 18.5265 29.7535 18.9829 29.3812C18.9998 29.4151 19.0505 29.4151 19.0843 29.432C19.0167 29.5843 18.9491 29.7705 18.9153 29.9735C18.8646 30.2104 18.8815 30.4135 18.8815 30.6166C18.8646 30.6673 18.8646 30.6843 18.8646 30.7012ZM14.284 23.0185C15.0446 22.8154 15.7714 22.5616 16.4644 22.257C16.6503 23.4246 16.8701 24.5923 17.225 25.7091C16.6503 26.183 16.0587 26.606 15.4333 26.9614C14.9432 25.7937 14.5544 24.4738 14.284 23.0185ZM17.5124 26.5552C17.7828 27.2998 18.1209 28.0106 18.5096 28.6705C18.0364 29.0767 17.5293 29.4489 17.0222 29.8212C16.5489 29.1951 16.1264 28.5013 15.7545 27.7229C16.3799 27.4014 16.9715 27.0121 17.5124 26.5552ZM20.876 34.9656C20.4535 35.0502 20.0647 35.2702 19.6928 35.4902C18.8984 35.964 18.5772 36.0824 18.1885 35.6086C18.0871 35.4902 18.0871 35.4225 18.104 35.2363C18.104 35.1009 18.1209 34.9317 18.0702 34.7287C18.0195 34.4748 17.8166 34.3225 17.4786 34.3225C17.3265 34.2379 17.225 34.0518 17.2588 33.9164C17.3264 33.6795 17.5124 33.5949 17.6307 33.5441C17.7152 33.5103 17.8166 33.4933 17.9518 33.4764C18.1378 33.4595 18.4082 33.3072 18.442 33.1211C18.4758 32.9349 18.3744 32.7318 18.2054 32.6472C17.5969 32.3596 17.5124 32.2242 17.58 32.0211C17.6645 31.7504 17.918 31.6827 18.5265 31.5981L18.6618 31.5811C19.1688 31.5304 19.659 31.4627 19.6928 31.0396C19.7097 30.9043 19.7097 30.752 19.7097 30.6166C19.7097 30.4474 19.7097 30.295 19.7266 30.1597C19.7604 30.0243 19.7942 29.9058 19.8281 29.8043C19.8788 29.6858 19.9295 29.652 19.9126 29.652C20.0309 29.652 20.4535 30.0074 21.0281 31.0396C21.1465 31.2427 21.4 31.3273 21.6028 31.2088C21.6197 31.2088 21.6197 31.1919 21.6197 31.175C21.7381 31.175 21.8564 31.175 21.9916 31.175C21.8733 31.6996 22.0423 32.4103 22.1775 32.9857C22.2113 33.138 22.2451 33.2734 22.262 33.3918C22.3635 33.8995 22.4818 34.4071 22.6001 34.9148C22.0423 34.881 21.4676 34.8471 20.876 34.9656ZM41.5142 34.3056C41.4804 34.3733 41.4804 34.4579 41.4973 34.5256C41.5142 34.5933 41.7678 35.9301 42.7988 37.047C41.7509 36.9793 40.3649 36.8609 39.6887 36.7086C38.421 36.4378 36.4434 36.7255 36.3927 36.7424L30.2232 37.0301L28.8879 37.0639L29.1584 36.7255C29.226 36.624 29.2598 36.5055 29.2429 36.387C29.226 36.2686 29.1584 36.167 29.0569 36.0994C29.04 36.0994 28.7865 35.9301 28.4146 35.6255V35.6086C28.4146 35.3717 28.2287 35.1856 28.009 35.1686C27.9752 35.1686 27.9245 35.1686 27.8906 35.1686C27.8568 35.1517 27.8399 35.1179 27.8061 35.101C27.8568 35.0163 27.9076 34.9317 27.9752 34.864C28.1273 34.6779 28.1104 34.4241 27.9245 34.2718C27.7554 34.1195 27.485 34.1364 27.3329 34.3225C27.2821 34.3733 27.2483 34.4241 27.2145 34.4748C27.1976 34.4579 27.1976 34.4579 27.1807 34.441C27.1131 34.3394 27.0286 34.221 26.961 34.1025C26.8258 33.9164 26.7075 33.7303 26.5722 33.5272V33.5103C26.9948 33.2564 27.4174 33.0026 27.8737 32.7826C28.0766 32.6811 28.1611 32.4272 28.0597 32.2073C27.9583 31.9873 27.7047 31.9196 27.485 32.0211C27.0455 32.2411 26.6229 32.4949 26.2004 32.7488C26.1666 32.6642 26.1328 32.6134 26.099 32.5288C26.0144 32.3088 25.913 32.1057 25.8116 31.8857C26.1497 31.7673 26.4877 31.6488 26.8258 31.5134L27.316 31.3273C27.5357 31.2427 27.654 31.0058 27.5695 30.7858C27.485 30.5658 27.2483 30.4643 27.0286 30.532L26.5384 30.7181C26.2173 30.8366 25.8792 30.955 25.5581 31.0735C25.4905 30.532 25.4905 29.9735 25.6088 29.3812C25.6088 29.2797 25.6764 26.8091 29.1414 24.5077C29.3443 24.3723 29.395 24.1185 29.2598 23.9154C29.1245 23.7123 28.871 23.6616 28.6682 23.7969C28.6513 23.8139 28.6344 23.8138 28.6175 23.8308C28.3639 22.4262 27.6878 20.954 26.6737 19.7525C26.6737 19.7525 26.6567 19.7525 26.6398 19.7356C26.6229 19.5664 26.606 19.3972 26.606 19.2449C26.5722 18.0434 26.606 15.0143 27.7554 12.8483C27.8568 12.6452 27.7892 12.3914 27.5864 12.2729C27.3836 12.1714 27.13 12.2391 27.0117 12.4421C25.7609 14.7774 25.7102 17.9926 25.7609 19.2618C25.7778 19.6679 25.8116 20.091 25.8623 20.5309C25.9299 21.2248 25.9975 21.9355 25.9299 22.5785C25.8623 23.1877 25.5581 23.7631 25.1693 23.9831C25.0003 24.0846 24.7975 24.0846 24.5946 24.0338C24.5777 23.9154 24.5101 23.7969 24.3918 23.7292C24.189 23.6277 23.9354 23.6954 23.8171 23.8985C23.5467 24.3892 23.1748 24.5923 22.9382 24.5415C22.7184 24.4907 22.5663 24.1861 22.5494 23.7292C22.5325 23.4923 22.3466 23.3062 22.093 23.34C21.8564 23.3569 21.6874 23.56 21.7043 23.7969C21.7043 23.8646 21.7381 23.8985 21.7381 23.9662C21.7212 23.9831 21.6874 23.9662 21.6704 23.9831C21.4169 24.1523 21.1296 24.22 20.9605 24.1354C20.8591 24.0846 20.8084 23.9662 20.7746 23.7969C20.7408 23.4416 20.8591 23.0523 21.0112 22.6293C21.1465 22.2062 21.2986 21.7832 21.2986 21.3094C21.2986 20.734 21.1634 20.1756 21.0281 19.6341C20.9267 19.2279 20.8422 18.8387 20.8084 18.4664C20.7239 17.4511 20.7915 16.4019 20.8591 15.3866C20.8929 14.9466 20.9267 14.4897 20.9436 14.0497C20.9436 14.0328 20.9267 14.0159 20.9267 14.0159C20.9267 13.999 20.9436 13.982 20.9436 13.9651C20.9605 13.7282 20.7746 13.5252 20.538 13.5252C19.3041 13.4744 18.0533 13.5082 16.8363 13.559C16.3799 13.5759 15.9235 13.5928 15.4502 13.5928C15.3319 13.5251 15.1967 13.5082 15.0615 13.559C14.977 13.6098 14.8925 13.6605 14.8248 13.7113C14.8079 13.7282 14.791 13.7282 14.791 13.7282C13.3374 14.6082 12.7965 16.0466 12.2894 17.4342C12.1373 17.8572 11.9852 18.2972 11.7993 18.7033C11.3598 19.7018 10.447 20.7679 9.5681 21.2924C9.33146 21.4278 8.9427 21.5293 8.85818 21.394C8.85818 21.377 8.84128 21.3094 8.84128 21.2586C8.80748 20.8017 8.62155 20.5648 8.28349 20.5648C8.11446 20.5817 7.94544 20.5986 7.79332 20.6494C7.7088 20.6663 7.53977 20.7171 7.47216 20.6832C7.45526 20.6325 7.48907 20.4802 7.50597 20.3786C7.55668 20.1417 7.60739 19.8541 7.45526 19.6002C7.40455 19.4987 7.26933 19.4141 7.16791 19.3802C6.96508 19.3295 6.79606 19.431 6.72845 19.4818C6.57632 19.5156 6.458 19.4987 6.4242 19.4818C6.37349 19.4479 6.35658 19.4141 6.35658 19.3802C6.33968 19.1772 6.59322 18.7033 7.23553 18.0265C7.30314 18.0434 7.35385 18.0772 7.42146 18.0772C7.65809 18.0434 7.81022 17.8234 7.77641 17.5865C7.675 16.9096 7.53978 15.2174 7.84402 14.0667L8.67225 12.7129C8.92579 12.4421 9.19624 12.2391 9.44978 12.036C9.90616 11.6806 10.3625 11.3253 10.7175 10.6822C10.8696 10.4115 11.0555 9.97149 11.2922 9.4469C11.3767 9.24384 11.4781 9.00692 11.5795 8.77001L13.3036 5.60557V5.58864C13.3881 5.45326 13.4895 5.33481 13.591 5.21635C13.4388 6.33322 13.4726 8.00851 14.9263 8.5331C15.0784 8.58387 15.2474 8.61772 15.4164 8.61772C15.7714 8.61772 16.1602 8.48233 16.5658 8.2285C18.1716 7.17932 19.7942 4.1841 20.0985 2.61033C20.4196 2.55957 20.7577 2.52572 21.0958 2.49188C20.876 3.30414 20.2506 5.92708 21.0281 7.24701C21.2648 7.63622 21.6028 7.90698 22.0254 7.99159C22.1606 8.02544 22.2958 8.04236 22.4142 8.04236C23.7157 8.04236 24.5439 6.48551 25.4059 4.82714C25.7271 4.21794 26.0482 3.59182 26.4201 2.98262C26.4708 2.91493 26.4708 2.8134 26.4539 2.74571C26.5722 2.76264 26.6906 2.77956 26.8089 2.79648C27.5019 2.93185 28.2118 3.15185 28.9386 3.4226C28.2625 4.38717 25.4398 8.6854 27.3329 11.0207C27.3836 11.0714 27.4343 11.1222 27.5188 11.156C27.5526 11.173 27.8399 11.2745 28.3132 11.2745C29.4795 11.2745 31.829 10.6991 34.7701 6.94241C34.9222 7.07779 35.0743 7.21317 35.2264 7.34855C35.1926 7.39932 35.1588 7.45008 35.125 7.50085C35.0067 7.70391 35.0743 7.95775 35.2602 8.07621C35.3278 8.11005 35.3955 8.1439 35.48 8.1439C35.6152 8.1439 35.7673 8.0762 35.8349 7.94083C35.8349 7.94083 35.8349 7.94082 35.8349 7.9239C35.9194 7.99159 35.9871 8.07621 36.0716 8.1439C35.9701 8.2962 35.9701 8.49925 36.1054 8.63463C36.1899 8.71924 36.2913 8.77001 36.4096 8.77001C36.4772 8.77001 36.5448 8.71925 36.6125 8.68541C36.7646 8.85463 36.9167 9.02384 37.0688 9.19307C36.1899 9.58228 34.1616 10.5976 33.4516 12.2391C33.1136 13.0344 33.1305 13.8805 33.5023 14.7097C33.5362 14.8112 33.6207 14.8789 33.7052 14.9128C33.7559 14.9297 34.4658 15.2512 35.7166 15.2512C36.7815 15.2512 38.2351 14.9974 39.9761 14.1851C40.1958 15.302 40.7367 18.9572 39.5197 22.1724C39.5028 22.2062 39.5028 22.2401 39.4859 22.2739C39.4859 22.3416 39.3338 23.8308 40.3818 25.3199C40.3987 25.3538 40.4325 25.4045 40.4494 25.4384C40.2972 25.5568 40.1451 25.6584 39.9761 25.7768C39.7902 25.9122 39.7395 26.166 39.8578 26.3691C39.9423 26.4876 40.0775 26.5552 40.2127 26.5552C40.2972 26.5552 40.3818 26.5383 40.4494 26.4876C40.5846 26.386 40.7198 26.3014 40.855 26.1999C40.9395 26.386 41.041 26.5722 41.1255 26.7922C40.9226 26.8937 40.7367 27.0121 40.5339 27.0968C40.331 27.1983 40.2296 27.4521 40.3311 27.6552C40.3987 27.8075 40.5508 27.8921 40.7198 27.8921C40.7874 27.8921 40.8381 27.8752 40.9057 27.8413C41.0917 27.7567 41.2438 27.6552 41.4297 27.5536C41.5142 27.7906 41.5819 28.0613 41.6495 28.3152C41.5142 28.349 41.3959 28.3998 41.2607 28.4336C41.041 28.5013 40.9057 28.7213 40.9734 28.9582C41.0241 29.1443 41.1931 29.2628 41.379 29.2628C41.4128 29.2628 41.4466 29.2628 41.4973 29.2459C41.6157 29.212 41.7171 29.1782 41.8354 29.1443C42.1565 30.6843 42.1734 32.4611 41.5142 34.3056Z" fill="#985F50"/>
</svg>
