<svg width="62" height="56" viewBox="0 0 62 56" fill="none" xmlns="http://www.w3.org/2000/svg">
<path fill-rule="evenodd" clip-rule="evenodd" d="M4.2072 31.7289C5.1818 33.6427 6.93024 35.2886 9.19519 36.4721C10.0556 36.8959 10.9557 37.1851 11.9089 37.3471L20.9217 38.8361L20.8398 39.4868C20.6189 41.1741 21.7511 42.7401 23.4343 43.0275L46.8157 47.1941C47.4645 47.3094 48.1587 47.1541 48.6856 46.7671C49.2126 46.38 49.5856 45.7686 49.6675 45.118L50.3584 40.0368L50.3451 40.0294L52.5187 21.7448C52.4668 20.3937 52.0785 19.4307 51.3612 18.8425C51.2428 18.7422 51.1231 18.676 51.0033 18.6097C50.3513 18.249 49.6895 18.283 49.4841 18.3086L28.7783 15.2743C26.2281 15.2032 25.1953 17.4156 25.0401 18.5129C25.0091 18.6002 24.9694 18.7348 24.9311 18.8355C23.7106 18.717 17.209 18.0605 14.5921 17.7958C13.2637 17.6524 11.9505 17.7958 10.6804 18.2067C7.53918 19.2353 5.62132 21.4453 4.59072 23.1197C2.96293 25.7164 2.82381 29.0149 4.2072 31.7289ZM21.4937 34.3156L11.6515 32.472C10.422 32.2442 9.30263 31.5031 8.60396 30.4728C7.89936 29.4218 7.648 28.117 7.89022 26.8939L8.13982 25.6574C8.63613 23.2525 10.8355 21.6332 13.2751 21.9041L23.8004 23.0469C22.9189 26.996 21.912 32.1459 21.4937 34.3156ZM28.6788 16.0196L49.3979 19.0612C49.4319 19.0626 49.4792 19.0714 49.5205 19.0595C49.5205 19.0595 50.2606 18.9469 50.8596 19.4349C51.3994 19.8728 51.6929 20.6616 51.7371 21.7126L49.5575 39.9765C49.5123 40.4039 49.2852 40.7828 48.9472 41.0482C48.6092 41.3136 48.1691 41.4181 47.7494 41.3599L24.4161 37.8289C24.3821 37.8275 23.9151 37.7606 23.3962 37.4735C22.824 37.1569 22.1953 36.5655 22.0654 35.4496C22.2562 34.4765 24.7644 21.3357 25.7539 18.6991C25.7523 18.5764 26.1892 15.9646 28.6788 16.0196ZM10.8749 18.9233C12.0416 18.5422 13.2588 18.4153 14.4793 18.5337C17.0016 18.7809 23.1235 19.4013 24.6691 19.5604C24.4617 20.2809 24.2383 21.2186 23.9885 22.2984L13.3819 21.1455C10.5493 20.8311 7.97799 22.7144 7.40387 25.5112L7.15427 26.7477C6.86209 28.1868 7.15949 29.6911 7.97955 30.9103C8.79961 32.1296 10.0846 32.9797 11.524 33.2366L21.3661 35.0802C21.3397 35.2221 21.3147 35.3301 21.3059 35.3774C21.3045 35.4114 21.303 35.4454 21.2942 35.4928C21.3092 35.6228 21.3521 35.7336 21.3671 35.8637L21.2858 35.8535L20.9932 38.1101L12.0143 36.6224C11.1425 36.4707 10.3029 36.1975 9.52236 35.8179C8.04392 35.0347 6.02545 33.657 4.8746 31.4022C3.6171 28.9318 3.73737 25.9186 5.19257 23.5396C6.17158 21.9586 7.94041 19.8923 10.8749 18.9233Z" fill="#639277"/>
<path fill-rule="evenodd" clip-rule="evenodd" d="M34.1918 30.2745C34.2524 30.2907 35.8027 30.6612 36.9698 29.4626L42.6715 30.8424C42.8267 30.876 42.9788 30.821 43.0732 30.6818C44.2545 28.9864 43.5593 27.2273 43.5282 27.1579C43.4911 27.0678 43.4394 27.0043 43.3595 26.9601C43.3063 26.9307 43.2457 26.9146 43.191 26.9191L37.5971 26.6952C37.2745 26.2731 36.2981 25.2109 34.4644 25.1012C33.6548 25.0882 31.9828 25.503 31.4296 27.3196C31.4134 27.3803 31.2629 29.8199 34.1918 30.2745Z" fill="#639277"/>
</svg>
