<svg width="32" height="44" viewBox="0 0 32 44" fill="none" xmlns="http://www.w3.org/2000/svg">
<path fill-rule="evenodd" clip-rule="evenodd" d="M24.0655 30.1745C23.3721 29.6973 22.9098 28.9065 22.9098 28.0066C22.9098 26.5613 24.0927 25.3887 25.5475 25.3887C27.0024 25.3887 28.1852 26.5613 28.1852 28.0066C28.1852 28.9065 27.7366 29.6973 27.0431 30.1745H27.2335C27.7502 30.4472 28.1173 30.9926 28.1173 31.6198C28.1173 32.2607 27.7366 32.8197 27.1927 33.0924H27.3695L27.3423 35.124C27.5734 35.6694 27.9813 35.9421 28.1988 36.0512C28.3348 36.1057 28.4436 36.1876 28.5388 36.2966C29.1506 37.0329 28.9738 37.9192 28.9738 37.9192C29.8984 38.4373 30.0752 39.1327 30.0752 39.1327L30.048 40.6053C30.4559 40.7553 30.6734 40.9871 30.6734 40.9871L30.5918 42.5823C30.5918 43.155 28.3348 43.6595 25.5475 43.6595C22.7602 43.6595 20.4896 43.1959 20.4896 42.6096L20.3809 40.9871C20.3809 40.9871 20.5848 40.7553 21.0063 40.6053L20.9791 39.1327C20.9791 39.1327 21.1559 38.4373 22.0804 37.9192C22.0804 37.9192 21.9173 37.0329 22.5291 36.2966C22.6243 36.1876 22.7331 36.1057 22.869 36.0512C23.0866 35.9285 23.4945 35.6694 23.7256 35.124L23.6848 33.0924H23.9567C23.4129 32.8334 23.0322 32.2743 23.0322 31.6198C23.0322 30.9926 23.3857 30.4472 23.9024 30.1745H24.0655Z" fill="#A3594C"/>
<path d="M25.5203 44C24.9628 44 20.1224 43.959 20.1224 42.6092L20.0137 41.0139C20.0137 40.9184 20.0409 40.823 20.1088 40.7548C20.136 40.7276 20.3128 40.5503 20.6391 40.3867L20.6119 39.1323C20.6119 39.105 20.6119 39.0777 20.6255 39.0368C20.6391 39.0096 20.8295 38.3005 21.6996 37.7279C21.686 37.3734 21.7404 36.678 22.2435 36.0644C22.3795 35.9144 22.529 35.8053 22.7058 35.7235C22.9913 35.5735 23.2224 35.3281 23.3584 35.0418L23.3312 33.0784C23.3312 33.0784 23.3312 33.0784 23.3312 33.0647C22.9233 32.6966 22.6786 32.1648 22.6786 31.6058C22.6786 30.9922 22.9641 30.4332 23.4264 30.065C22.8961 29.5196 22.5834 28.7833 22.5834 28.0061C22.5834 26.37 23.9159 25.0474 25.561 25.0474C27.2062 25.0474 28.5387 26.37 28.5387 28.0061C28.5387 28.7833 28.2395 29.5196 27.7093 30.065C28.1852 30.4332 28.4707 31.0058 28.4707 31.6194C28.4707 32.233 28.1852 32.792 27.7229 33.1602L27.6957 35.0554C27.886 35.4508 28.1988 35.6554 28.3755 35.7508C28.5387 35.819 28.6882 35.9281 28.8242 36.078C29.3273 36.6916 29.3817 37.387 29.3681 37.7415C30.2382 38.3142 30.4286 39.0232 30.4422 39.0505C30.4558 39.0777 30.4558 39.105 30.4558 39.1459L30.4286 40.4003C30.7549 40.5639 30.9317 40.7412 30.9588 40.7685C31.0268 40.8366 31.054 40.9321 31.054 41.0139L30.9724 42.6092C30.9181 43.9863 25.7514 44 25.5203 44ZM20.7071 41.1366L20.8023 42.5819C20.9518 42.8137 22.5426 43.3182 25.5203 43.3182C28.3483 43.3182 30.0751 42.8137 30.2382 42.541L30.3062 41.1502C30.2246 41.0957 30.0887 41.0139 29.9119 40.9457C29.776 40.8912 29.6808 40.7685 29.6808 40.6185L29.708 39.2004C29.6536 39.0777 29.4496 38.6005 28.7834 38.2324C28.661 38.1642 28.5931 38.0142 28.6202 37.8779C28.6202 37.8779 28.7426 37.1279 28.2531 36.5416C28.1988 36.4735 28.1308 36.4189 28.0356 36.3916C27.7501 36.2553 27.2606 35.9281 26.9887 35.2872C26.9751 35.2463 26.9615 35.1918 26.9615 35.1509L26.9887 33.4192C26.9071 33.3783 26.8527 33.2965 26.8255 33.2011C26.7847 33.0511 26.8663 32.8875 27.0159 32.8193C27.4645 32.6011 27.7501 32.1512 27.7501 31.6603C27.7501 31.1967 27.5189 30.7877 27.1246 30.5559H27.0159C26.8663 30.5559 26.7303 30.4604 26.6895 30.3105C26.6488 30.1605 26.7031 30.0105 26.8255 29.9287C27.451 29.506 27.8317 28.797 27.8317 28.0471C27.8317 26.7926 26.7983 25.77 25.5338 25.77C24.2694 25.77 23.236 26.7926 23.236 28.0471C23.236 28.797 23.6167 29.506 24.2422 29.9287C24.3645 30.0105 24.4189 30.1741 24.3781 30.3105C24.3374 30.4468 24.2014 30.5559 24.0518 30.5559H23.9431C23.5624 30.7877 23.3176 31.1967 23.3176 31.6603C23.3176 32.1512 23.6031 32.6011 24.0518 32.8193C24.1878 32.8875 24.2694 33.0511 24.2422 33.2011C24.215 33.3374 24.1062 33.4329 23.9838 33.4601L24.011 35.1645C24.011 35.2054 23.9974 35.2599 23.9838 35.3008C23.7935 35.7644 23.44 36.1462 22.9777 36.4053C22.8689 36.4598 22.801 36.5144 22.733 36.5825C22.2435 37.1688 22.3659 37.9051 22.3659 37.9188C22.3931 38.0551 22.3251 38.2051 22.2027 38.2733C21.5365 38.6414 21.3325 39.105 21.2781 39.2414L21.3053 40.6594C21.3053 40.8094 21.2238 40.9321 21.0878 40.9866C20.9246 41.0003 20.7887 41.0684 20.7071 41.1366Z" fill="#A3594C"/>
<path d="M25.2346 41.6956C22.4745 41.6956 20.9245 40.8366 20.8294 40.7821C20.6662 40.6866 20.6118 40.4821 20.707 40.3185C20.8022 40.1548 21.0061 40.1003 21.1693 40.1821C21.1965 40.1958 24.378 41.9274 29.7487 40.2776C29.9254 40.223 30.1158 40.3185 30.1701 40.5094C30.2245 40.6866 30.1294 40.8775 29.939 40.932C28.1171 41.5047 26.5399 41.6956 25.2346 41.6956Z" fill="#A3594C"/>
<path d="M25.4803 38.8324C23.5088 38.8324 22.0948 38.2325 22.0132 38.2052C21.8364 38.137 21.7549 37.9325 21.8364 37.7553C21.9044 37.578 22.1084 37.4962 22.2851 37.578C22.3123 37.5916 25.3987 38.887 28.7435 37.5371C28.9202 37.4689 29.1106 37.5507 29.1921 37.728C29.2601 37.9053 29.1785 38.0961 29.0018 38.1779C27.7373 38.6688 26.5272 38.8324 25.4803 38.8324Z" fill="#A3594C"/>
<path d="M16.7508 42.2003H14.5074C9.4359 42.2003 5.31616 38.0689 5.31616 32.9831V9.21735C5.31616 4.13151 9.4359 0.00012207 14.5074 0.00012207H16.7508C21.8223 0.00012207 25.942 4.13151 25.942 9.21735V32.9694C25.942 38.0689 21.8223 42.2003 16.7508 42.2003ZM14.5074 0.68187C9.8166 0.68187 5.99599 4.51329 5.99599 9.21735V32.9694C5.99599 37.6735 9.8166 41.5049 14.5074 41.5049H16.7508C21.4416 41.5049 25.2622 37.6735 25.2622 32.9694V9.21735C25.2622 4.51329 21.4416 0.68187 16.7508 0.68187H14.5074Z" fill="#A3594C"/>
<path fill-rule="evenodd" clip-rule="evenodd" d="M6.03717 36.0648C5.69725 34.865 5.72445 33.5696 5.72445 33.5696L5.61567 20.6982L2.66524 25.4977C1.65909 27.1476 1.60471 29.2065 2.52927 30.8972C3.14111 32.0289 3.72576 33.0788 3.72576 33.0788C3.72576 33.0788 1.82225 35.833 0.639358 37.5238C0.136288 38.2464 0.299445 39.2418 0.992867 39.7599C1.69988 40.2917 2.69243 40.169 3.24988 39.4872C4.3648 38.1101 6.03717 36.0648 6.03717 36.0648Z" fill="#A3594C"/>
<path d="M1.98465 40.4414C1.56316 40.4414 1.15527 40.305 0.788162 40.0323C-0.054821 39.3915 -0.245172 38.1916 0.353074 37.319L3.31711 33.0512L2.22939 31.0605C1.25044 29.2607 1.30483 27.0655 2.37895 25.3202L5.32939 20.5207C5.41097 20.3843 5.56053 20.3298 5.71009 20.3707C5.85965 20.4116 5.95483 20.548 5.95483 20.6979L6.0636 33.5693C6.0636 33.5966 6.03641 34.851 6.36272 35.9827C6.38992 36.0918 6.36272 36.2009 6.29474 36.2963L3.50746 39.7323C3.11316 40.1823 2.55571 40.4414 1.98465 40.4414ZM5.275 21.8842L2.95 25.6747C2.01185 27.2155 1.95746 29.1516 2.82764 30.7333L4.02413 32.9012C4.07851 33.0239 4.06492 33.1603 3.99693 33.2694L0.91053 37.7144C0.516232 38.287 0.6386 39.0642 1.19606 39.4869C1.75351 39.9096 2.54211 39.8142 2.9772 39.2688L5.65571 35.9691C5.35658 34.7965 5.37018 33.5966 5.37018 33.5421L5.275 21.8842Z" fill="#A3594C"/>
<path d="M16.0162 38.3827C13.0929 38.3009 11.6109 37.101 11.5429 37.0465C11.475 36.9919 11.4342 36.9101 11.4206 36.8147L11.2302 34.7967C10.496 32.9832 11.8421 31.3471 12.114 31.0471C13.6368 27.4747 13.7864 22.9752 13.8 21.8571C12.5219 21.4753 12.3315 20.48 12.3315 20.4391C12.0868 19.5937 12.4403 19.0756 12.7666 18.8438C12.8754 18.1757 13.2697 17.8075 13.528 17.6439L13.5144 16.594C13.4328 15.8577 13.1337 15.1487 13.0386 14.9442C11.978 13.9625 11.9644 12.9944 11.9644 12.9535C11.7333 11.44 12.753 10.4856 13.1745 10.172V10.0765H12.4947C12.3043 10.0765 12.1548 9.92654 12.1548 9.73565V6.91321C12.1548 6.72233 12.3043 6.57234 12.4947 6.57234H13.1745V5.31792C13.1745 5.12704 13.3241 4.97705 13.5144 4.97705H17.7021C17.8925 4.97705 18.0421 5.12704 18.0421 5.31792V6.57234H18.7355C18.9258 6.57234 19.0754 6.72233 19.0754 6.91321V9.73565C19.0754 9.92654 18.9258 10.0765 18.7355 10.0765H18.0421V10.1583C18.5451 10.5128 19.6328 11.4946 19.3881 13.0217C19.3881 13.0217 19.3745 13.9761 18.314 14.9442C18.2188 15.1487 17.9197 15.8714 17.8381 16.6349L17.8245 17.6439C18.0828 17.8075 18.4907 18.1621 18.5859 18.8438C18.9122 19.0756 19.2521 19.5937 19.0074 20.4664C19.0074 20.48 18.8171 21.4617 17.539 21.8435C17.5526 22.9616 17.7021 27.4611 19.225 31.0334C19.4969 31.3334 20.8429 32.9832 20.1087 34.7831L19.9184 36.801C19.9048 36.8965 19.864 36.9783 19.796 37.0328C19.7416 37.1146 18.4092 38.1373 16.0162 38.3827ZM12.0868 36.5965C12.4539 36.8556 13.7728 37.6328 15.989 37.7009C17.7565 37.5237 18.8986 36.8419 19.2521 36.6101L19.4289 34.7013C19.4289 34.6603 19.4425 34.6331 19.4561 34.6058C20.1223 33.0378 18.6947 31.5107 18.6811 31.497C18.6539 31.4698 18.6267 31.4289 18.6131 31.4016C16.7912 27.1611 16.8456 21.8299 16.8456 21.6117C16.8456 21.4481 16.9543 21.3117 17.1175 21.2845C18.1644 21.0663 18.3276 20.3709 18.3276 20.3436C18.5451 19.5801 18.1236 19.4028 18.1236 19.4028C18.0013 19.3483 17.9197 19.2392 17.9061 19.1029C17.8653 18.4211 17.3622 18.203 17.335 18.203C17.1991 18.1484 17.1175 18.0257 17.1175 17.8757L17.1311 16.6213C17.2535 15.5714 17.675 14.6579 17.7021 14.617C17.7157 14.5761 17.7565 14.5352 17.7837 14.5079C18.6675 13.7307 18.6947 13.008 18.6947 12.9808C18.9122 11.5355 17.6614 10.731 17.5118 10.6492C17.3894 10.5947 17.3486 10.4992 17.3486 10.3492V9.73565C17.3486 9.54476 17.4982 9.39478 17.6886 9.39478H18.382V7.25409H17.6886C17.4982 7.25409 17.3486 7.1041 17.3486 6.91321V5.6588H13.8407V6.91321C13.8407 7.1041 13.6912 7.25409 13.5008 7.25409H12.821V9.39478H13.5008C13.6912 9.39478 13.8407 9.54476 13.8407 9.73565V10.3356C13.8407 10.4583 13.7864 10.5674 13.6776 10.6219C13.6368 10.6628 12.4131 11.4537 12.6443 12.9126C12.6443 12.9944 12.6714 13.7034 13.5552 14.4806C13.5824 14.5079 13.6096 14.5488 13.6368 14.5897C13.6504 14.6306 14.0855 15.5305 14.2078 16.5531L14.2214 17.8484C14.2214 17.9984 14.1399 18.1211 14.0039 18.1757C13.9903 18.1757 13.4736 18.3938 13.4328 19.0756C13.4193 19.2119 13.3377 19.321 13.2153 19.3756C13.1473 19.4028 12.8074 19.5937 13.0114 20.2891C13.025 20.3436 13.1745 21.039 14.235 21.2572C14.3982 21.2845 14.507 21.4208 14.507 21.5844C14.507 21.8162 14.5614 27.1339 12.7394 31.3743C12.7258 31.4152 12.6986 31.4425 12.6714 31.4698C12.6578 31.4834 11.2302 33.0242 11.8964 34.5785C11.91 34.6058 11.9236 34.6467 11.9236 34.674L12.0868 36.5965Z" fill="#A3594C"/>
<path d="M12.5772 34.251C12.5636 34.251 12.55 34.251 12.5364 34.251C12.2373 34.2101 11.9518 34.1147 11.6934 34.0192L11.4623 33.9374C11.2856 33.8829 11.1904 33.692 11.2448 33.5147C11.2991 33.3375 11.5031 33.242 11.6663 33.2966L11.911 33.3784C12.1421 33.4602 12.3733 33.542 12.5908 33.5693C12.7812 33.5829 12.9171 33.7601 12.8899 33.9374C12.8899 34.1147 12.7404 34.251 12.5772 34.251Z" fill="#A3594C"/>
<path d="M12.7128 32.9967C12.6992 32.9967 12.672 32.9967 12.6448 32.9967C12.2777 32.9285 11.9786 32.7922 11.7203 32.6695C11.5571 32.5876 11.4891 32.3831 11.5707 32.2195C11.6523 32.0559 11.8562 31.9877 12.0194 32.0695C12.2777 32.1922 12.5089 32.2877 12.7808 32.3422C12.9711 32.3695 13.0935 32.5604 13.0527 32.7376C13.0119 32.8876 12.876 32.9967 12.7128 32.9967Z" fill="#A3594C"/>
<path d="M14.1948 33.1467C14.1812 33.1467 14.1676 33.1467 14.1676 33.1467C13.9773 33.1331 13.7869 33.0922 13.6102 33.0512C13.4334 33.0103 13.2839 32.8331 13.3111 32.6422C13.3519 32.4513 13.4878 32.3286 13.6782 32.3695L13.7326 32.3831C13.8957 32.4104 14.0589 32.4513 14.222 32.4649C14.4124 32.4786 14.5483 32.6558 14.5348 32.8331C14.5076 33.0103 14.358 33.1467 14.1948 33.1467Z" fill="#A3594C"/>
<path d="M14.2358 31.7967C13.6104 31.7967 12.9985 31.6331 12.5362 31.4967C12.3595 31.4422 12.2507 31.2513 12.3051 31.074C12.3595 30.8968 12.5498 30.7877 12.7266 30.8422C13.1481 30.965 13.6919 31.1149 14.2358 31.1149H14.2494C14.4397 31.1149 14.5893 31.2649 14.5893 31.4558C14.5893 31.6467 14.4397 31.7967 14.2358 31.7967Z" fill="#A3594C"/>
<path d="M13.5964 30.3924C13.5828 30.3924 13.5556 30.3924 13.542 30.3924C13.4061 30.3651 13.2701 30.3379 13.1341 30.3106L12.9574 30.2697C12.7806 30.2288 12.6582 30.0515 12.699 29.8607C12.7398 29.6834 12.9302 29.5607 13.1069 29.6016L13.2837 29.6425C13.4061 29.6698 13.5284 29.697 13.6508 29.7243C13.8411 29.7516 13.9635 29.9288 13.9227 30.1197C13.9091 30.2697 13.7596 30.3924 13.5964 30.3924Z" fill="#A3594C"/>
<path d="M14.997 30.3652C14.7795 30.3515 14.5755 30.3379 14.3716 30.3106C14.1812 30.2834 14.0589 30.1061 14.086 29.9289C14.1132 29.738 14.29 29.6152 14.4668 29.6425C14.6435 29.6698 14.8203 29.6834 15.0106 29.6834C15.201 29.6834 15.3505 29.847 15.3369 30.0379C15.3369 30.2288 15.1874 30.3652 14.997 30.3652Z" fill="#A3594C"/>
<path d="M14.8881 28.9471C14.4258 28.9471 13.95 28.8789 13.5149 28.7971C13.3245 28.7699 13.2022 28.5926 13.243 28.4017C13.2701 28.2108 13.4469 28.0881 13.6373 28.129C14.1403 28.2108 14.6706 28.2926 15.1601 28.2517C15.364 28.2245 15.5136 28.3745 15.5272 28.5653C15.5408 28.7562 15.4048 28.9198 15.2144 28.9335C15.1057 28.9471 14.9969 28.9471 14.8881 28.9471Z" fill="#A3594C"/>
<path d="M14.3578 27.6382C14.3442 27.6382 14.3306 27.6382 14.3306 27.6382L13.7459 27.57C13.5556 27.5427 13.4196 27.3791 13.4468 27.1882C13.4604 26.9973 13.61 26.861 13.8275 26.8882L14.3986 26.9564C14.5889 26.9701 14.7249 27.1473 14.6977 27.3246C14.6705 27.5155 14.5209 27.6382 14.3578 27.6382Z" fill="#A3594C"/>
<path d="M15.5408 27.6518C15.4457 27.6518 15.3505 27.6518 15.2553 27.6382C15.065 27.6246 14.929 27.4609 14.9426 27.27C14.9562 27.0792 15.1193 26.9428 15.3097 26.9564C15.4185 26.9701 15.5136 26.9701 15.6224 26.9701C15.84 26.9564 15.9623 27.1201 15.9759 27.2973C15.9759 27.4882 15.8264 27.6382 15.6496 27.6518C15.6088 27.6518 15.5816 27.6518 15.5408 27.6518Z" fill="#A3594C"/>
<path d="M15.4596 26.5883C14.9429 26.5883 14.4127 26.4793 13.9912 26.3702C13.8144 26.3293 13.692 26.1384 13.7464 25.9611C13.7872 25.7839 13.9776 25.6612 14.1543 25.7157C14.5894 25.8248 15.1469 25.9475 15.6635 25.9066C15.8811 25.8793 16.017 26.0293 16.0306 26.2202C16.0442 26.4111 15.9083 26.5747 15.7179 26.5883C15.6363 26.5883 15.5412 26.5883 15.4596 26.5883Z" fill="#A3594C"/>
<path d="M14.8206 25.211C14.807 25.211 14.807 25.211 14.7934 25.211C14.5758 25.1973 14.3311 25.1701 14.0863 25.0882C13.9096 25.0201 13.8144 24.8292 13.8824 24.6519C13.9504 24.4747 14.1543 24.3792 14.3175 24.4474C14.4806 24.5019 14.6574 24.5156 14.8477 24.5292C15.0381 24.5428 15.1741 24.7065 15.1605 24.8974C15.1469 25.0746 14.9973 25.211 14.8206 25.211Z" fill="#A3594C"/>
<path d="M15.9896 25.1021C15.8264 25.1021 15.6497 25.0884 15.4865 25.0748C15.2962 25.0612 15.1602 24.8976 15.1738 24.7067C15.1874 24.5158 15.3233 24.3931 15.5409 24.3931C15.6905 24.4067 15.84 24.4203 15.9896 24.4203C16.1799 24.4203 16.3295 24.584 16.3295 24.7612C16.3295 24.9521 16.1799 25.1021 15.9896 25.1021Z" fill="#A3594C"/>
<path d="M15.6224 23.9022C15.2009 23.9022 14.7387 23.8067 14.3036 23.7113C14.1268 23.6704 14.0044 23.4795 14.0452 23.3022C14.086 23.125 14.2764 23.0023 14.4531 23.0432C14.929 23.1523 15.4185 23.2477 15.7992 23.2068C15.9623 23.1932 16.1527 23.3295 16.1663 23.5204C16.1799 23.7113 16.0439 23.8749 15.8536 23.8885C15.7856 23.9022 15.704 23.9022 15.6224 23.9022Z" fill="#A3594C"/>
<path d="M14.7249 16.0894H14.7113C14.3714 16.0757 14.0723 15.9803 13.8412 15.8848C13.6644 15.8167 13.5828 15.6121 13.6508 15.4485C13.7188 15.2713 13.9227 15.1895 14.0995 15.2576C14.3714 15.3667 14.5618 15.4076 14.7521 15.4212C14.9425 15.4349 15.092 15.5849 15.0784 15.7758C15.0648 15.9394 14.9017 16.0894 14.7249 16.0894Z" fill="#A3594C"/>
<path d="M14.2898 14.8486C14.2762 14.8486 14.2626 14.8486 14.249 14.8486C13.814 14.8077 13.3925 14.6168 13.0118 14.4395L12.8622 14.3714C12.6854 14.2896 12.6175 14.085 12.699 13.9214C12.7806 13.7442 12.971 13.676 13.1477 13.7578L13.2973 13.826C13.6372 13.9896 13.9907 14.1396 14.317 14.1805C14.5074 14.1941 14.6433 14.3714 14.6162 14.5486C14.6026 14.7122 14.453 14.8486 14.2898 14.8486Z" fill="#A3594C"/>
<path d="M15.7172 14.9712C15.554 14.9712 15.3909 14.9576 15.2277 14.944C15.0374 14.9303 14.9014 14.7667 14.915 14.5758C14.9286 14.3849 15.0646 14.2622 15.2821 14.2622C15.4453 14.2758 15.6084 14.2895 15.7716 14.2895C15.7716 14.2895 15.7716 14.2895 15.7852 14.2895C15.9619 14.2895 16.1251 14.4395 16.1251 14.6167C16.1251 14.8076 15.9755 14.9576 15.7988 14.9712C15.7716 14.9712 15.7444 14.9712 15.7172 14.9712Z" fill="#A3594C"/>
<path d="M15.0926 13.4714C14.1136 13.4714 13.2027 13.2124 12.4005 12.9669C12.2237 12.926 12.115 12.7351 12.1693 12.5442C12.2237 12.367 12.4005 12.2579 12.5908 12.3125C13.4066 12.5442 14.2496 12.8033 15.147 12.7897C15.3373 12.7897 15.4869 12.9397 15.4869 13.1306C15.4869 13.3214 15.3373 13.4714 15.147 13.4714C15.1334 13.4714 15.1198 13.4714 15.0926 13.4714Z" fill="#A3594C"/>
<path d="M8.36172 7.36302C8.34812 7.36302 8.34812 7.36302 8.33453 7.36302C8.22576 7.34938 8.13058 7.34939 8.0354 7.33575C7.92663 7.33575 7.80426 7.32212 7.69549 7.30848C7.50514 7.29485 7.36918 7.13123 7.38277 6.94034C7.39637 6.74945 7.55953 6.6131 7.74988 6.62673C7.85865 6.64037 7.95382 6.64037 8.0626 6.654C8.17137 6.654 8.28014 6.66764 8.38891 6.68127C8.57926 6.69491 8.71523 6.85853 8.70163 7.04942C8.68804 7.22667 8.53847 7.36302 8.36172 7.36302Z" fill="#A3594C"/>
<path d="M7.89959 8.76738C7.8452 8.76738 7.80441 8.76738 7.75003 8.76738C7.55968 8.76738 7.41011 8.60376 7.42371 8.41287C7.42371 8.22198 7.60046 8.08563 7.77722 8.08563C7.88599 8.08563 7.98117 8.08563 8.08994 8.08563C8.28029 8.08563 8.42985 8.23562 8.42985 8.42651C8.42985 8.6174 8.28029 8.76738 8.08994 8.76738C8.02196 8.76738 7.96757 8.76738 7.89959 8.76738Z" fill="#A3594C"/>
<path d="M8.17107 10.608C8.15748 10.608 8.15748 10.608 8.14388 10.608C8.03511 10.5944 7.92633 10.5944 7.80397 10.5807C7.62721 10.5671 7.49125 10.3898 7.50484 10.199C7.51844 10.0081 7.668 9.87171 7.87195 9.89898C7.98072 9.91262 8.08949 9.91262 8.19827 9.92625C8.38862 9.93989 8.52458 10.1035 8.51098 10.2944C8.49739 10.4717 8.34783 10.608 8.17107 10.608Z" fill="#A3594C"/>
<path d="M7.64123 19.3345C7.46447 19.3345 7.32851 19.2118 7.30132 19.0345C7.27412 18.8436 7.41009 18.68 7.60044 18.6527C7.75 18.6391 7.91316 18.6255 8.06272 18.6118C8.29386 18.5982 8.41623 18.7482 8.42982 18.9254C8.44342 19.1163 8.30746 19.2799 8.11711 19.2936C7.96754 19.3072 7.83158 19.3208 7.68202 19.3345C7.66842 19.3345 7.65483 19.3345 7.64123 19.3345Z" fill="#A3594C"/>
<path d="M7.81769 21.0116C7.80409 21.0116 7.79049 21.0116 7.7769 21.0116L7.47777 20.9707C7.28742 20.9434 7.16506 20.7662 7.19225 20.5753C7.21944 20.3844 7.3962 20.2617 7.58655 20.2889L7.87207 20.3298C8.06242 20.3571 8.18479 20.5207 8.1712 20.7116C8.13041 20.8889 7.98084 21.0116 7.81769 21.0116Z" fill="#A3594C"/>
<path d="M7.89923 23.3431C7.88563 23.3431 7.87203 23.3431 7.87203 23.3431C7.72247 23.3295 7.55931 23.3022 7.40975 23.2613C7.233 23.2204 7.08344 23.0432 7.11063 22.8523C7.15142 22.675 7.28739 22.5387 7.47774 22.5796L7.53212 22.5932C7.66809 22.6205 7.79046 22.6477 7.92642 22.6614C8.11677 22.675 8.25274 22.8523 8.22554 23.0295C8.22554 23.2204 8.07598 23.3431 7.89923 23.3431Z" fill="#A3594C"/>
<path d="M8.3347 25.4702C8.3211 25.4702 8.3075 25.4702 8.29391 25.4702C7.954 25.4293 7.62768 25.3748 7.30136 25.293C7.12461 25.252 7.00224 25.0612 7.04303 24.8839C7.08382 24.7067 7.26058 24.5839 7.45093 24.6248C7.75005 24.693 8.06277 24.7476 8.37549 24.7885C8.56584 24.8157 8.7018 24.9793 8.67461 25.1702C8.64742 25.3475 8.49786 25.4702 8.3347 25.4702Z" fill="#A3594C"/>
<path d="M8.1716 27.6246H8.158C7.85888 27.6109 7.58695 27.5291 7.35581 27.4609C7.17905 27.4064 7.07028 27.2155 7.12467 27.0383C7.17905 26.861 7.36941 26.7519 7.54616 26.8065C7.75011 26.8746 7.96765 26.9292 8.18519 26.9428C8.37555 26.9565 8.51151 27.1064 8.51151 27.2973C8.51151 27.4882 8.36195 27.6246 8.1716 27.6246Z" fill="#A3594C"/>
<path d="M8.37517 29.4926C8.34798 29.4926 8.33438 29.4926 8.30719 29.4926C8.04886 29.438 7.76333 29.3835 7.46421 29.2608C7.28745 29.1926 7.20588 29.0017 7.27386 28.8245C7.34184 28.6336 7.53219 28.5518 7.70895 28.6199C7.94009 28.7017 8.14403 28.7563 8.42956 28.8108C8.60631 28.8517 8.72868 29.029 8.70149 29.2062C8.6743 29.3835 8.52473 29.4926 8.37517 29.4926Z" fill="#A3594C"/>
<path d="M8.0628 31.4287C8.04921 31.4287 8.02202 31.4287 8.00842 31.4287C7.84526 31.4014 7.6821 31.3605 7.51895 31.306C7.34219 31.2514 7.24702 31.0605 7.3014 30.8696C7.35579 30.6924 7.54614 30.5969 7.72289 30.6515C7.85886 30.6924 7.98123 30.7197 8.11719 30.7469C8.30754 30.7742 8.42991 30.9515 8.38912 31.1423C8.36193 31.306 8.22596 31.4287 8.0628 31.4287Z" fill="#A3594C"/>
<path d="M7.99507 33.2422C7.98147 33.2422 7.96787 33.2422 7.96787 33.2422C7.8455 33.2286 7.70954 33.2013 7.58717 33.1741C7.39682 33.1332 7.28805 32.9559 7.32884 32.765C7.36963 32.5878 7.55998 32.465 7.73673 32.5059C7.83191 32.5332 7.94068 32.5468 8.03585 32.5605C8.22621 32.5741 8.36217 32.7514 8.33498 32.9286C8.32138 33.1059 8.17182 33.2422 7.99507 33.2422Z" fill="#A3594C"/>
<path d="M8.41628 35.2874C8.40268 35.2874 8.38908 35.2874 8.38908 35.2874C8.19873 35.2738 8.00838 35.2465 7.80443 35.2056C7.61408 35.1783 7.49171 35.0011 7.5325 34.8102C7.57329 34.6193 7.73645 34.5102 7.9268 34.5375C8.10356 34.5647 8.26671 34.592 8.44347 34.6056C8.63382 34.6193 8.76978 34.7829 8.75619 34.9738C8.74259 35.151 8.59303 35.2874 8.41628 35.2874Z" fill="#A3594C"/>
<path d="M15.4998 11.0034C14.7927 11.0034 14.1401 10.9352 13.5011 10.7443C13.3243 10.6762 13.2155 10.4853 13.2699 10.308C13.3243 10.1308 13.5147 10.0217 13.6914 10.0899C14.4392 10.3217 15.2278 10.3489 16.1524 10.308H16.3155C16.737 10.2944 17.1585 10.2807 17.5256 10.1444C17.7024 10.0762 17.8927 10.1717 17.9607 10.3489C18.0287 10.5262 17.9335 10.7171 17.7568 10.7852C17.2945 10.9489 16.7914 10.9625 16.3427 10.9898H16.1796C15.9484 10.9898 15.7173 11.0034 15.4998 11.0034Z" fill="#A3594C"/>
<path d="M15.8131 12.4625C15.3508 12.4625 14.875 12.4216 14.4127 12.3398L14.2087 12.2989C13.7192 12.2171 13.2026 12.1353 12.7267 11.9171C12.55 11.8353 12.482 11.6308 12.5635 11.4535C12.6451 11.2899 12.8491 11.2081 13.0122 11.2899C13.4065 11.4672 13.8552 11.549 14.3175 11.6308L14.535 11.6717C15.9083 11.9171 17.2951 11.7672 18.5324 11.249C18.7092 11.1808 18.8995 11.2627 18.9811 11.4399C19.0491 11.6172 18.9675 11.8081 18.7907 11.8899C17.8526 12.258 16.8464 12.4625 15.8131 12.4625Z" fill="#A3594C"/>
<path d="M15.7449 17.3984C15.0378 17.3984 14.3308 17.2484 13.8006 16.962C13.6374 16.8802 13.5694 16.6621 13.6646 16.4985C13.7462 16.3348 13.9637 16.2667 14.1269 16.3621C14.9291 16.7848 16.2207 16.8393 17.1453 16.4712C17.3221 16.403 17.5124 16.4848 17.5804 16.6621C17.6484 16.8393 17.5668 17.0302 17.39 17.0984C16.9006 17.3029 16.3159 17.3984 15.7449 17.3984Z" fill="#A3594C"/>
<path d="M15.636 18.6936C15.3641 18.6936 15.0785 18.6663 14.8066 18.6118C14.5347 18.5573 14.2899 18.4482 14.0452 18.3391L13.8141 18.2437C13.6373 18.1755 13.5557 17.971 13.6237 17.8073C13.6917 17.6301 13.882 17.5483 14.0588 17.6165L14.3171 17.7255C14.5347 17.821 14.7522 17.9164 14.9426 17.9573C15.772 18.1209 16.6829 17.9437 17.2948 17.7528C17.4851 17.6983 17.6619 17.8073 17.7163 17.9846C17.7706 18.1619 17.6619 18.3527 17.4851 18.4073C16.9956 18.5436 16.3294 18.6936 15.636 18.6936Z" fill="#A3594C"/>
<path d="M15.7989 20.3571C15.323 20.3571 14.8607 20.2889 14.4256 20.1662C13.9089 20.0162 13.4603 19.7435 13.0252 19.4708C12.862 19.3754 12.794 19.1572 12.8892 18.9936C12.9844 18.83 13.1747 18.7618 13.3379 18.8709L13.3651 18.8845C13.773 19.13 14.1945 19.3754 14.616 19.5117C15.6901 19.839 17.0089 19.689 18.0423 19.1163C18.2054 19.0345 18.4094 19.0891 18.5046 19.2527C18.5997 19.4163 18.5317 19.6208 18.3686 19.7163C17.5936 20.1389 16.6826 20.3571 15.7989 20.3571Z" fill="#A3594C"/>
<path d="M15.5001 22.1433C14.9834 22.1433 14.4804 22.0614 13.9773 21.8569C13.8005 21.7887 13.719 21.5842 13.8005 21.407C13.8685 21.2297 14.0725 21.1479 14.2492 21.2297C15.1874 21.6251 16.2071 21.4615 17.2541 21.2297C17.4308 21.2024 17.6212 21.3115 17.662 21.4888C17.7027 21.666 17.5804 21.8569 17.4036 21.8978C16.751 22.0205 16.1255 22.1433 15.5001 22.1433Z" fill="#A3594C"/>
<path fill-rule="evenodd" clip-rule="evenodd" d="M11.8292 36.7192L11.6797 34.9194C11.6797 34.9194 16.2889 36.3238 19.5928 35.0831L19.4841 36.7874C19.4841 36.7738 15.4187 39.0645 11.8292 36.7192Z" fill="#A3594C"/>
<path d="M15.4723 38.1235C14.2622 38.1235 12.9298 37.8508 11.6381 37.0054C11.5565 36.9509 11.4886 36.8554 11.4886 36.7463L11.339 34.9465C11.3254 34.8374 11.3798 34.7284 11.4614 34.6602C11.5429 34.592 11.6653 34.5647 11.7741 34.6056C11.8149 34.6193 16.3153 35.9691 19.4697 34.7693C19.5785 34.7284 19.7008 34.742 19.796 34.8102C19.8912 34.8783 19.9456 34.9874 19.932 35.1101L19.8232 36.8145C19.8232 36.9236 19.7552 37.0327 19.6465 37.0872C19.5241 37.1417 17.7293 38.1235 15.4723 38.1235ZM12.1412 36.5282C15.0916 38.3553 18.382 36.9372 19.1434 36.5691L19.2114 35.5737C16.5193 36.3646 13.2561 35.6964 12.046 35.3828L12.1412 36.5282Z" fill="#A3594C"/>
</svg>
