<svg width="32" height="43" viewBox="0 0 32 43" fill="none" xmlns="http://www.w3.org/2000/svg">
<path d="M21.0899 9.65447C18.4185 9.12065 15.6725 8.91533 12.7026 9.02483C10.6282 9.10696 9.25519 9.72291 8.46422 10.9274C7.44939 12.4879 7.76279 14.8558 8.40452 16.5668C8.74777 17.4976 9.25519 18.1272 9.92676 18.4694C11.2251 19.1401 13.1056 18.8664 14.3293 18.5652C14.3144 18.6884 14.2995 18.7979 14.2846 18.9211C14.2099 19.6192 14.1353 20.331 14.1055 21.0564C14.1055 21.2481 14.2696 21.3986 14.4636 21.3986C14.5084 21.4807 14.583 21.5492 14.6875 21.5766C15.2845 21.7271 15.8963 21.7682 16.4933 21.7682C16.8664 21.7682 17.2395 21.7545 17.6126 21.7408C17.9409 21.7271 18.2842 21.7134 18.6125 21.7134C18.6871 21.7134 18.7767 21.7134 18.8662 21.7134C19.3736 21.7271 20.0452 21.7545 20.4631 21.3712C20.8212 21.0564 20.8809 20.6047 20.9556 20.1941C21.0302 19.7287 21.0899 19.4276 21.3436 19.3044C21.4182 19.3044 21.6868 19.4002 21.8062 19.4413C21.8958 19.4686 21.9704 19.496 22.0152 19.5234L22.239 19.5918C22.9106 19.8108 23.6866 20.0435 24.4478 19.6876C25.4924 19.2086 25.7611 17.8398 25.8954 17.1006C26.3133 14.979 26.567 12.7753 24.8806 11.1464C23.9105 10.2157 22.448 9.92823 21.0899 9.65447ZM25.194 17.0048C25.0746 17.6208 24.8507 18.7706 24.1344 19.0991C23.6568 19.3318 23.0897 19.1538 22.5077 18.9622L22.2689 18.8938C22.2241 18.8801 22.1793 18.8527 22.1047 18.839C21.7913 18.7158 21.3884 18.5516 21.06 18.7021C20.3884 19.0033 20.2989 19.6192 20.2243 20.112C20.1795 20.4268 20.1347 20.7279 19.9557 20.8922C19.7616 21.0564 19.2393 21.0427 18.8961 21.0427C18.7916 21.0427 18.702 21.0291 18.6125 21.0427C18.2692 21.0427 17.926 21.0564 17.5827 21.0701C16.6425 21.1112 15.7471 21.1522 14.8815 20.9332C14.8666 20.9332 14.8666 20.9332 14.8517 20.9332C14.8666 20.2899 14.9412 19.6329 15.0158 18.9896C15.0457 18.6747 15.0904 18.3599 15.1203 18.0588C15.1352 17.8672 14.986 17.7029 14.777 17.6892C14.6577 17.6755 14.5532 17.7303 14.4786 17.8124C13.5981 18.0588 11.5236 18.5242 10.27 17.8809C9.7626 17.6208 9.37458 17.1143 9.09102 16.3478C8.53884 14.8558 8.19558 12.6384 9.0761 11.2833C9.73275 10.2704 10.8819 9.77766 12.7026 9.70922C15.6128 9.59972 18.2991 9.80504 20.9854 10.3389C22.2241 10.5852 23.4926 10.8453 24.3284 11.6392C25.8208 13.0491 25.582 14.979 25.194 17.0048Z" fill="#9E4441"/>
<path d="M15.7322 11.1739C14.3592 10.3253 11.7176 11.2834 11.7176 11.2834C10.5535 12.1458 10.9714 15.0339 10.9714 15.0339C11.24 16.7586 13.613 16.6217 13.613 16.6217C15.5232 16.4437 16.15 15.0613 16.15 15.0613C16.8515 12.1594 15.7322 11.1739 15.7322 11.1739Z" fill="#9E4441"/>
<path d="M22.2096 12.0771C20.9261 11.8991 20.9411 12.7888 20.9411 12.7888C20.2844 14.5682 20.7769 16.2518 20.7769 16.2518C21.0306 17.5522 22.1201 17.0184 22.1201 17.0184C23.0155 17.0457 23.3289 16.6899 23.3289 16.6899C24.3139 15.896 24.1199 13.8428 24.1199 13.8428C23.8811 11.8991 22.2096 12.0771 22.2096 12.0771Z" fill="#9E4441"/>
<path d="M18.5379 15.5539C18.6573 15.9782 19.12 15.9235 19.314 15.595C19.5677 15.1706 19.3737 14.1988 18.7469 14.1304C18.1051 14.0619 17.4485 14.7874 17.6276 15.3623C17.7619 15.7866 18.2544 15.8824 18.5379 15.5539Z" fill="#9E4441"/>
<path d="M19.7009 17.826C19.3278 17.5933 18.895 17.6754 18.5368 17.7576C18.4174 17.785 18.298 17.8123 18.1935 17.8123C18.0443 17.8123 17.8652 17.7576 17.6712 17.6891C17.4026 17.5933 17.119 17.4975 16.7758 17.5386C16.4325 17.5796 16.1191 17.7439 15.9102 18.004C15.6714 18.2914 15.5819 18.6883 15.6565 19.0442C15.7311 19.4275 15.9699 19.7286 16.3728 20.0024C16.4176 20.0298 16.4624 20.0571 16.5071 20.0571C16.9101 20.3035 17.4026 20.4267 17.8951 20.4267C18.4473 20.4267 19.0144 20.2761 19.4322 19.9613C19.7009 19.7697 19.9695 19.4138 20.0889 19.0305C20.1038 19.0169 20.0889 19.0032 20.1038 18.9758C20.1337 18.8526 20.1486 18.7431 20.1486 18.6199C20.1486 18.2914 19.9844 18.004 19.7009 17.826ZM19.2681 18.3872C19.3278 18.4283 19.4024 18.4967 19.4173 18.6473C19.2531 18.6883 19.089 18.7157 18.9099 18.7294C18.9099 18.6062 18.9099 18.4967 18.9099 18.3735C19.0591 18.3598 19.1935 18.3325 19.2681 18.3872ZM17.716 18.4283C17.8503 18.4693 17.9995 18.483 18.1637 18.483C18.1637 18.5788 18.1637 18.6747 18.1637 18.7705C18.0145 18.7705 17.8652 18.7705 17.716 18.7568C17.716 18.661 17.716 18.5378 17.716 18.4283ZM16.8653 18.223C16.8952 18.223 16.9399 18.2366 16.9698 18.2366C16.9698 18.3872 16.9698 18.5104 16.9698 18.6473C16.8056 18.5925 16.6564 18.5378 16.4922 18.4557C16.4922 18.442 16.5071 18.4283 16.5071 18.4283C16.5668 18.3325 16.6862 18.2367 16.8653 18.223ZM16.7608 19.4275C16.6415 19.3454 16.5519 19.2632 16.4922 19.1674C16.6415 19.2222 16.7907 19.2906 16.9399 19.3317C16.9399 19.3864 16.925 19.4412 16.925 19.4959C16.9101 19.4822 16.8952 19.4822 16.8802 19.4822C16.8504 19.4549 16.8056 19.4412 16.7608 19.4275ZM17.6563 19.7149C17.6712 19.6191 17.6712 19.5233 17.6861 19.4275C17.8204 19.4412 17.9249 19.4686 18.0742 19.4686C18.104 19.4686 18.1339 19.4686 18.1637 19.4686C18.1637 19.5507 18.1637 19.6328 18.1637 19.7286C17.9846 19.7423 17.8204 19.7423 17.6563 19.7149ZM18.895 19.4822C18.895 19.4686 18.895 19.4412 18.895 19.4275C18.9397 19.4275 18.9696 19.4138 19.0144 19.4138C18.9994 19.4275 18.9994 19.4275 18.9845 19.4412C18.9547 19.4549 18.9248 19.4549 18.895 19.4822Z" fill="#9E4441"/>
<path d="M31.9694 14.3084C31.7306 12.4058 30.8948 11.5572 30.1636 11.1602C28.1041 1.68825 20.5376 0.333159 20.2391 0.278408C9.97146 -1.66526 5.44951 7.12232 4.4496 9.47662C4.41976 9.47662 4.38991 9.46294 4.36006 9.46294C2.73335 9.46294 1.40512 11.2424 1.40512 13.4324C1.40512 15.2803 2.34533 16.8133 3.62879 17.265C3.62879 17.3608 3.61386 17.4566 3.61386 17.5661C3.59894 18.2505 3.61386 18.9349 3.62879 19.6193C3.67356 21.2071 3.71833 22.8359 3.30046 24.369C2.85274 26.0115 2.28563 27.3392 1.62898 28.3111C1.49466 28.5164 1.31557 28.7354 1.15141 28.9407C0.5843 29.6525 -0.0425054 30.4601 0.00226644 31.4456C0.0768862 32.828 1.28573 32.787 2.0767 32.7733C2.7632 32.7596 3.21092 32.7596 3.40493 33.0744C3.80787 33.6904 3.49447 34.3611 3.16614 35.0729C3.10645 35.196 3.06168 35.3055 3.00198 35.4287C2.73335 36.0447 2.7035 36.7565 2.92736 37.5504C2.94228 37.6188 2.98706 37.6735 3.04675 37.7146C3.04675 37.7146 3.04675 37.7146 3.04675 37.7283C3.92727 38.9739 5.27042 38.2758 6.2554 37.783C6.9419 37.4408 7.58363 37.1123 7.92688 37.345C8.50892 37.742 8.41937 38.3579 8.21044 39.3298C8.01643 40.2742 7.79257 41.3282 8.85217 41.9578C9.27004 42.2042 9.79238 42.3137 10.3147 42.3137C11.2997 42.3137 12.3145 41.9441 12.807 41.2871C12.9115 41.1502 13.0159 40.986 13.1204 40.8081C13.4786 40.2058 13.7621 39.8225 14.2099 39.8362C14.2397 39.8773 14.2397 40.0552 14.2397 40.1373C14.2397 40.2605 14.2397 40.3837 14.2546 40.4795C14.3591 40.9723 14.6725 41.4377 15.1053 41.7114C15.4486 41.9305 15.8515 42.0126 16.2395 41.9305C17.4633 41.7114 18.0602 40.8217 18.5229 40.0142C18.6572 39.7678 19.0154 39.1381 19.3736 39.1381H19.3885C19.4332 39.1929 19.4631 39.3845 19.4929 39.4803C19.5079 39.5488 19.5228 39.6172 19.5377 39.672C19.6422 40.0826 19.9854 40.8628 20.6122 41.1913C20.8958 41.3556 21.2241 41.3966 21.5375 41.3145C22.4479 41.0955 22.9553 40.2879 23.3582 39.6309L23.4627 39.4666C24.2686 38.1937 24.7014 36.907 25.164 35.5519C25.3431 35.0455 25.5073 34.5253 25.7162 34.0052C26.358 32.3216 26.6863 30.5559 26.9997 28.8586C27.1639 27.9963 27.328 27.0929 27.537 26.2168C27.7011 25.5324 27.9399 24.8481 28.1638 24.191C28.3727 23.5888 28.5966 22.9591 28.7607 22.3158C29.1189 20.9333 29.4621 19.3866 29.6263 17.7578C32.3723 16.8133 31.9694 14.3221 31.9694 14.3084ZM19.9556 1.6335C20.0153 1.64719 24.7014 2.48215 27.3728 7.64246C26.6117 6.82119 25.6864 6.16417 24.9551 5.6851C22.0002 3.74143 18.1349 3.01597 14.389 3.70036C11.3445 4.24788 8.77755 5.65772 6.98667 7.7109C8.85217 4.64482 12.8369 0.278408 19.9556 1.6335ZM28.0444 22.1652C27.8802 22.7812 27.6713 23.3835 27.4623 23.9857C27.2235 24.6701 26.9848 25.3682 26.8057 26.08C26.5967 26.9697 26.4326 27.8731 26.2684 28.7491C25.955 30.419 25.6416 32.1573 25.0148 33.7862C24.8208 34.32 24.6417 34.8402 24.4626 35.3603C24.0149 36.6743 23.597 37.9336 22.8359 39.1381L22.7314 39.3024C22.3882 39.8499 21.9703 40.5206 21.3584 40.6712C21.239 40.6985 21.1197 40.6849 21.0003 40.6164C20.6719 40.4385 20.3735 39.9183 20.269 39.5214C20.2541 39.4803 20.2541 39.4393 20.2391 39.3845C20.1944 39.1108 20.0899 38.5359 19.5228 38.4811C18.6423 38.3716 18.105 39.3024 17.8812 39.6993C17.3887 40.548 16.926 41.1092 16.1201 41.2598C15.9261 41.2871 15.7321 41.2598 15.5381 41.1366C15.2695 40.9723 15.0605 40.6575 15.0008 40.3564C14.9859 40.2879 14.9859 40.2195 14.9859 40.1373C14.9859 39.8636 15.0008 39.2203 14.2845 39.1655C13.3144 39.0834 12.8219 39.891 12.4638 40.4795C12.3742 40.6301 12.2847 40.7807 12.1951 40.8902C11.6728 41.5883 10.0759 41.862 9.25511 41.3693C8.64323 41.0134 8.7477 40.4111 8.94171 39.453C9.13572 38.5222 9.35958 37.4682 8.35968 36.7838C8.15074 36.6196 7.91196 36.5511 7.65825 36.5511C7.09114 36.5511 6.49418 36.866 5.89723 37.1671C4.73316 37.7694 4.12128 37.9747 3.67356 37.345C3.65863 37.3313 3.64371 37.3177 3.62879 37.304C3.46462 36.6743 3.49447 36.1405 3.68848 35.6751C3.73325 35.5656 3.79295 35.4424 3.83772 35.3329C4.1959 34.5801 4.62869 33.6356 4.03173 32.7185C3.58401 32.0342 2.71843 32.0615 2.03192 32.0889C1.06187 32.1163 0.763388 32.0752 0.718616 31.4182C0.673844 30.6654 1.21111 29.9947 1.71852 29.3513C1.89761 29.1187 2.0767 28.8996 2.22593 28.6806C2.92736 27.6541 3.50939 26.2579 3.98696 24.5469C4.43468 22.9318 4.38991 21.2345 4.34514 19.6056C4.33021 18.9212 4.31529 18.2505 4.33021 17.5798C4.33021 17.5251 4.33021 17.4566 4.34514 17.4019C5.97185 17.4019 7.30008 15.6225 7.30008 13.4324C7.30008 12.1321 6.82251 10.9823 6.10616 10.2568C6.3151 9.88726 6.53896 9.504 6.77774 9.14812C8.44922 6.68431 11.1952 4.98702 14.5233 4.37107C18.0304 3.72774 21.7614 4.42582 24.5074 6.23261C25.6118 6.95807 27.1489 8.09415 27.8056 9.54506C29.7755 13.8841 28.9697 18.579 28.0444 22.1652Z" fill="#9E4441"/>
<path d="M5.55407 18.4835C5.34513 18.5109 5.21081 18.6751 5.22574 18.8667C5.31528 19.5101 5.34513 19.9891 5.31528 20.4408C5.30036 20.6325 5.46452 20.7967 5.65853 20.7967C5.67346 20.7967 5.67346 20.7967 5.68838 20.7967C5.88239 20.7967 6.04656 20.6598 6.06148 20.4682C6.09133 19.9755 6.06148 19.4553 5.97194 18.7709C5.94209 18.593 5.74808 18.4561 5.55407 18.4835Z" fill="#9E4441"/>
<path d="M5.65913 21.6039C5.46512 21.5765 5.27111 21.6997 5.24126 21.8913L5.18156 22.2335C5.13679 22.5484 5.0771 22.8632 5.0174 23.178C4.97263 23.3696 5.10694 23.5476 5.31588 23.5749C5.34573 23.5749 5.36065 23.5749 5.3905 23.5749C5.56959 23.5749 5.71883 23.4654 5.7636 23.3012C5.82329 22.9727 5.88299 22.6442 5.92776 22.3293L5.97253 21.9872C6.00238 21.8092 5.86807 21.6313 5.65913 21.6039Z" fill="#9E4441"/>
<path d="M5.13553 24.6836C4.9266 24.6425 4.74751 24.7794 4.70274 24.9574C4.26994 27.1474 3.61329 28.7489 2.73278 29.8576C2.61338 30.0082 2.64323 30.2272 2.8074 30.3367C2.86709 30.3777 2.95664 30.4051 3.03126 30.4051C3.15065 30.4051 3.25511 30.3504 3.32973 30.2682C4.28487 29.0774 4.98629 27.3801 5.43401 25.0942C5.47878 24.9026 5.34447 24.7247 5.13553 24.6836Z" fill="#9E4441"/>
<path d="M8.43514 9.33944C8.55453 9.33944 8.65899 9.29837 8.73361 9.20256C9.52458 8.23072 10.5096 7.45052 11.8378 6.73875C12.0169 6.64294 12.0766 6.43762 11.9721 6.27336C11.8676 6.10911 11.6289 6.05436 11.4647 6.15017C10.0469 6.903 8.98732 7.73796 8.13666 8.79192C8.00234 8.94249 8.04711 9.1615 8.21128 9.271C8.27097 9.31206 8.36052 9.33944 8.43514 9.33944Z" fill="#9E4441"/>
<path d="M13.7763 6.04107C13.8211 6.04107 13.8509 6.04107 13.8957 6.02738C14.6867 5.79469 15.5224 5.562 16.3134 5.47987C16.5223 5.4525 16.6715 5.28824 16.6417 5.09661C16.6268 4.90498 16.4328 4.7681 16.2238 4.79548C15.3582 4.87761 14.4777 5.12399 13.6569 5.37037C13.4629 5.42512 13.3584 5.61675 13.4181 5.79469C13.4778 5.95895 13.6121 6.04107 13.7763 6.04107Z" fill="#9E4441"/>
</svg>
