<svg width="47" height="44" viewBox="0 0 47 44" fill="none" xmlns="http://www.w3.org/2000/svg">
<path d="M10.9616 22.0527C10.9888 22.0527 11.0295 22.0527 11.0567 22.0391C11.2335 21.9848 11.3423 21.7948 11.2879 21.6183C11.2607 21.5098 11.2471 21.4147 11.2471 21.2926C11.2471 21.1025 11.0839 20.9668 10.8936 20.9668C10.7032 20.9668 10.5537 21.1297 10.5673 21.3197C10.5673 21.4962 10.5809 21.6455 10.6352 21.822C10.676 21.9441 10.812 22.0527 10.9616 22.0527Z" fill="#8F5553"/>
<path d="M14.7948 19.9075C14.6044 19.9211 14.4685 20.0976 14.4957 20.274C14.5092 20.4641 14.6996 20.5998 14.8628 20.5726C15.4474 20.5048 15.6242 20.9391 15.8281 21.9572C15.8553 22.1201 15.9913 22.2151 16.1544 22.2151C16.1816 22.2151 16.2088 22.2151 16.236 22.2015C16.4264 22.1608 16.5351 21.9708 16.4943 21.7807C16.3312 21.0477 16.0729 19.7989 14.7948 19.9075Z" fill="#8F5553"/>
<path d="M19.1601 18.0483C19.2009 17.9126 19.2553 17.7632 19.2961 17.6139C19.5 16.9488 19.7447 16.1208 20.207 15.9308C20.3838 15.8493 20.6149 15.8765 20.8869 15.9986C21.0908 16.0936 21.254 16.2022 21.3763 16.3244C21.5395 16.5009 21.6347 16.7452 21.7298 16.9895C21.7978 17.166 21.9882 17.261 22.1649 17.1931C22.3417 17.1253 22.4233 16.9352 22.3689 16.7588C22.2601 16.4737 22.1377 16.1208 21.8658 15.8493C21.6891 15.6593 21.4715 15.51 21.1724 15.3878C20.7101 15.1706 20.2886 15.1435 19.9215 15.3199C19.1873 15.6457 18.8882 16.6366 18.6434 17.4239C18.6026 17.5732 18.5618 17.7089 18.5075 17.8311C18.4531 18.0076 18.5482 18.1976 18.725 18.2655C18.7658 18.279 18.793 18.279 18.8338 18.279C18.9697 18.279 19.1057 18.1976 19.1601 18.0483Z" fill="#8F5553"/>
<path d="M24.681 24.2782C24.8169 24.2918 24.9257 24.3053 25.0209 24.3189C25.0481 24.3189 25.0617 24.3189 25.0889 24.3189C25.252 24.3189 25.388 24.2103 25.4288 24.0474C25.4696 23.871 25.3472 23.6809 25.1568 23.6538C25.0481 23.6266 24.9121 23.6131 24.7625 23.5995C24.4634 23.5724 23.8516 23.5045 23.7564 23.3416C23.7156 23.2059 23.8244 22.6765 23.8788 22.4457C23.9195 22.2693 23.9467 22.1064 23.9467 22.0249L23.9739 21.672C24.0011 21.3462 24.0147 21.034 24.0555 20.7082C24.0827 20.5182 23.9467 20.3553 23.77 20.3282C23.5796 20.3146 23.4165 20.4368 23.3893 20.6132C23.3485 20.939 23.3213 21.2784 23.2941 21.6177L23.2669 21.9706C23.2669 22.0385 23.2397 22.1607 23.1989 22.2964C23.0766 22.9072 22.995 23.3687 23.1445 23.6402C23.4165 24.1425 24.1099 24.2103 24.681 24.2782Z" fill="#8F5553"/>
<path d="M20.8731 17.2332C19.799 17.2332 18.9424 18.5092 18.9424 20.138C18.9424 21.7669 19.7854 23.0564 20.8731 23.0564C21.9608 23.0564 22.8038 21.7805 22.8038 20.138C22.7902 18.5227 21.9472 17.2332 20.8731 17.2332ZM20.8731 22.3777H20.8595C21.213 22.147 21.4577 21.6583 21.4577 21.0882C21.4577 20.2874 20.9819 19.6358 20.3972 19.6358C20.0845 19.6358 19.8262 19.8258 19.6222 20.1109C19.6358 18.9164 20.1933 17.9255 20.8595 17.9255C21.5393 17.9255 22.1104 18.9435 22.1104 20.1516C22.1104 21.3597 21.5393 22.3777 20.8731 22.3777Z" fill="#8F5553"/>
<path d="M24.3129 29.3283C24.4353 29.3283 24.5169 29.3148 24.544 29.3148C24.5576 29.3148 24.5712 29.3148 24.5712 29.3148C25.7677 29.0569 26.434 27.7266 26.4612 27.6452C26.9234 26.5185 26.366 25.9213 26.0397 25.772C24.884 25.134 23.9594 25.8941 23.905 25.9349C22.5725 27.1565 22.6269 27.8759 22.6541 27.9574C22.6677 28.3782 22.8309 28.7175 23.1164 28.9618C23.4835 29.274 24.0138 29.3283 24.3129 29.3283ZM24.3401 26.4371C24.3401 26.4371 24.6392 26.1928 25.0743 26.1928C25.2647 26.1928 25.4822 26.2335 25.7134 26.3692C25.7541 26.3828 26.0261 26.5864 25.8901 27.1429L23.6467 27.1972C23.7962 26.9936 24.0138 26.7493 24.3401 26.4371Z" fill="#8F5553"/>
<path d="M37.5161 21.8488C37.5025 21.8488 37.5025 21.8624 37.4889 21.8624C37.5025 21.8217 37.5025 21.7674 37.5297 21.7131C37.5841 21.5366 37.4889 21.3466 37.3122 21.2923C37.1354 21.238 36.9451 21.333 36.8907 21.5095C36.7139 22.066 36.8635 22.3375 37.0131 22.4732C37.0946 22.5411 37.2034 22.5954 37.3666 22.5954C37.5025 22.5954 37.6521 22.5547 37.856 22.4596C38.0192 22.3646 38.0872 22.161 37.992 21.9981C37.8832 21.8217 37.6793 21.7538 37.5161 21.8488Z" fill="#8F5553"/>
<path d="M45.8371 28.8528C45.7691 28.7442 45.7012 28.6492 45.6468 28.5406C45.2525 27.8348 44.7086 27.2511 44.2463 26.776C43.9336 26.4502 43.5393 26.1109 43.0634 26.0023C42.6691 25.9073 42.3156 25.9616 41.9757 26.0159C42.2204 25.215 41.9621 24.3734 41.799 23.9933C41.7446 23.844 41.6358 23.749 41.5542 23.6676C41.527 23.6268 41.4726 23.5861 41.459 23.5725C41.4454 23.5047 41.5134 23.3282 41.5678 23.206C41.6222 23.0567 41.6766 22.9074 41.7038 22.7581C41.8261 21.8215 41.5814 20.8713 41.0375 20.2062C40.4257 19.4732 39.2156 18.971 38.3454 19.1339L38.2367 19.1474C38.0191 19.1746 37.7336 19.2153 37.5296 19.3918C37.5024 19.4053 37.4888 19.4325 37.4752 19.4461C37.3937 19.4732 37.3393 19.5275 37.2985 19.609C37.2713 19.6768 37.2441 19.7447 37.2169 19.799C37.1625 19.799 37.0945 19.799 37.0537 19.8397C36.4827 20.2198 36.3195 20.7763 36.17 21.2785C36.1156 21.4686 36.0612 21.6722 35.9388 21.9301C35.7757 22.2559 35.5581 22.7038 35.8165 22.9753C35.9116 23.0839 36.0476 23.0975 36.1836 23.0975C36.1292 23.3418 36.102 23.6133 36.2923 23.8033C36.4011 23.9119 36.5643 23.9255 36.809 23.9526C36.8226 23.9526 36.8362 23.9526 36.8498 23.9526C36.741 23.9933 36.6187 24.0341 36.4827 24.0884C36.2787 24.1427 35.966 24.2377 35.9252 24.5363C35.7893 25.3236 35.6261 26.0837 35.1094 26.6538L35.0958 26.6674C35.1094 26.5452 35.1094 26.4095 35.123 26.2873C35.191 25.6494 35.2318 24.9571 35.259 24.1427V24.0476C35.2998 23.5047 35.2998 23.0975 35.0143 22.9346C34.9191 22.8803 34.7831 22.8667 34.6879 22.9074C34.5656 22.9617 34.5112 23.0432 34.4704 23.1246C34.4432 23.0975 34.416 23.0839 34.3888 23.0703C34.2936 23.016 34.1713 23.016 34.0625 23.0567C33.9809 23.0839 33.9401 23.1382 33.8993 23.206C33.8857 23.1653 33.8586 23.1246 33.845 23.0975C33.8178 23.0432 33.7498 23.0024 33.6954 22.9753C34.4296 22.6767 35.0279 21.9844 35.2454 21.1835C35.5581 20.0705 35.327 18.9031 34.6336 18.1294C34.1985 17.6543 33.6682 17.4643 33.1651 17.5864L33.3011 11.3017C37.2849 7.88107 34.9735 3.26593 34.9327 3.17091C32.4173 -0.371891 28.8822 -0.480483 26.4212 0.605433C25.0344 1.22983 24.0826 2.49221 23.3212 3.51026C22.8997 4.08036 22.5326 4.56902 22.2199 4.77263C21.5265 5.19343 20.126 4.93552 19.6501 4.81336C19.6094 4.79978 19.555 4.79978 19.5142 4.79978C16.7813 5.1527 15.0545 7.17522 14.633 10.5144C14.3747 12.5641 15.2313 16.3784 15.7071 18.3194C15.4896 18.1837 15.2449 18.0751 15.0001 18.0479C14.6466 18.0072 13.9804 18.0751 13.4501 18.9438C12.8926 19.8669 12.9742 21.1021 13.0558 22.093L13.083 22.5002C13.083 22.5545 13.1238 22.5952 13.151 22.6495L13.1374 22.6631C12.947 23.3418 12.9742 24.0612 12.9878 24.7535C12.9878 25.025 13.0014 25.2964 12.9878 25.5543C12.9878 25.6494 12.9878 25.7308 12.9878 25.8258C12.8383 25.5951 12.7159 25.3779 12.6343 25.1335C12.6071 25.0657 12.5935 24.9707 12.5799 24.8892C12.5391 24.6449 12.4983 24.3734 12.3216 24.1562C12.0633 23.8305 11.669 23.7354 11.3154 23.654C11.1795 23.6268 11.0435 23.5861 10.9347 23.5454C10.894 23.5318 10.8532 23.4911 10.8124 23.4775C11.0843 23.559 11.3698 23.6133 11.6418 23.6133C11.7777 23.6133 11.9137 23.5997 12.0497 23.5861C12.0769 23.5861 12.0904 23.559 12.1176 23.5454C12.1448 23.5454 12.172 23.559 12.1992 23.5454C12.376 23.464 12.444 23.2603 12.3624 23.0975L12.2944 22.9481C12.5663 23.0024 12.7567 23.016 12.879 22.8124C13.015 22.5816 12.8519 22.3645 12.6343 22.0523C12.5255 21.8894 12.4576 21.6722 12.3896 21.455C12.3216 21.2378 12.2536 21.0342 12.1448 20.8306L12.104 20.7492C11.8593 20.2876 11.5874 19.7718 11.1387 19.3918L11.4514 17.2335L10.2549 18.9438C9.9014 18.8488 9.53429 18.8352 9.18078 18.9031L8.75929 17.315L8.62332 18.9574C8.18823 19.1339 7.78034 19.3918 7.45402 19.7175C6.39349 20.817 6.54305 22.6088 7.15489 23.8983C7.26367 24.1291 7.39963 24.3463 7.5356 24.5634C7.71235 24.8349 7.86192 25.0793 7.9435 25.3507C7.61718 25.3372 7.31805 25.2693 7.04612 25.1064C6.96454 25.0521 6.88296 24.9842 6.78779 24.8892C6.47507 24.6177 6.09436 24.292 5.64568 24.4141C5.22418 24.5363 4.91146 24.8349 4.62593 25.1064C4.55795 25.1743 4.47637 25.2421 4.40839 25.31L4.12286 25.5543C3.53821 26.0702 2.95355 26.586 2.43689 27.1968C2.28732 27.4275 2.11057 27.6176 1.93381 27.8212C1.81144 27.9569 1.68907 28.0927 1.52592 28.2827C1.44434 28.3777 1.34916 28.4727 1.21319 28.6085C1.09083 28.6899 0.900473 28.8257 0.954859 29.07C0.982052 29.2057 1.11802 29.3279 1.25398 29.3415C1.48513 29.3822 1.71627 29.26 1.90662 29.1514C1.94741 29.1243 2.0018 29.0971 2.02899 29.0971C2.3961 28.9614 2.81759 28.8257 3.1711 28.8935C3.34786 28.9343 3.48382 29.1379 3.53821 29.3143C3.5518 29.3686 3.5654 29.4229 3.5654 29.4772C3.53821 29.5858 3.53821 29.7623 3.60619 29.8573C3.67417 29.9387 3.78295 29.993 3.89172 29.993H3.90531C4.16365 29.9794 4.38119 29.8573 4.59874 29.7351C4.7619 29.6401 4.92506 29.5587 5.04743 29.5451C5.19699 29.5315 5.33295 29.5587 5.52331 29.6537C5.71366 29.7758 5.80883 29.8437 5.9584 29.8166C6.31191 29.7487 6.54305 29.4093 6.70621 29.1514L6.77419 29.0428C6.86937 28.9071 6.96454 28.8121 7.05972 28.6899C6.81498 29.3686 6.55665 30.088 6.28471 30.8889C6.13515 31.3368 5.9584 31.8526 5.82243 32.382C5.75445 32.5313 5.71366 32.6942 5.64568 32.8843C5.59129 32.9793 5.46892 33.1829 5.61848 33.3729C5.70006 33.4815 5.86322 33.5358 5.99919 33.4951C6.02638 33.4951 6.05357 33.4815 6.08077 33.468C6.05357 33.5901 6.03998 33.753 6.17594 33.8752C6.27112 33.9566 6.43428 33.9838 6.55664 33.9295C6.63822 33.8887 6.7198 33.8344 6.78779 33.7802C6.84217 33.8887 6.91016 33.9702 7.01893 34.0109C7.1141 34.0516 7.26367 34.0381 7.34525 33.9838C7.522 33.8752 7.5356 33.6851 7.56279 33.5358C7.60358 33.4137 7.64437 33.2779 7.68516 33.1558L8.01148 32.1513C8.22902 31.4726 8.44657 30.7803 8.7049 30.1152C8.7185 30.2509 8.7185 30.3867 8.7185 30.5224L8.7321 30.8075C8.77289 31.649 8.7185 32.4906 8.66411 33.3186C8.65052 33.5358 8.63692 33.753 8.63692 33.9566C8.60973 33.9838 8.56894 33.9838 8.55534 34.0245C7.44042 36.0063 6.39349 37.7437 4.63953 38.9111C4.63953 38.9111 4.63953 38.9111 4.63953 38.9247C4.48997 38.9925 4.39479 39.1554 4.44918 39.3319C4.48997 39.4812 4.62593 39.5762 4.77549 39.5762C4.80269 39.5762 4.84348 39.5762 4.87067 39.5627C6.50226 39.0197 7.46762 37.9609 8.50095 36.8343C8.54174 36.78 8.59613 36.7257 8.63692 36.685C8.69131 37.2958 8.7321 37.8931 8.77289 38.5039L8.82727 39.3998C8.81368 39.5491 8.89526 39.7663 9.03122 39.8206C9.07201 39.8341 9.1128 39.8477 9.16719 39.8477C9.26236 39.8477 9.37113 39.807 9.43912 39.7255C10.3365 38.6939 10.7036 37.1058 10.9891 35.8162L11.0435 35.5855C11.0707 35.4497 11.0843 35.2869 11.0979 35.1104C11.1115 34.9339 11.1115 34.7439 11.1659 34.6489C11.2203 34.5131 11.3426 34.391 11.4922 34.2688L11.533 34.5539C11.6282 35.4497 11.7641 36.3728 11.8049 37.2822C11.8185 37.6352 11.8185 37.9745 11.8185 38.3274L11.9953 38.3546C11.9817 38.3817 11.9817 38.3953 11.9681 38.4224L11.8049 38.4496C11.7913 38.5989 11.7641 38.7754 11.8457 38.9247C11.8729 38.979 11.9273 39.0333 11.9817 39.074C7.20928 40.5264 4.44918 42.3725 4.38119 42.4268C4.23163 42.5353 4.19084 42.739 4.29962 42.9018C4.3676 42.9969 4.47637 43.0512 4.58514 43.0512C4.65313 43.0512 4.72111 43.0376 4.77549 42.9969C4.81628 42.9697 8.67771 40.3364 15.1633 38.9247C21.1458 37.6216 30.6362 37.1329 41.9213 42.1688C42.0981 42.2503 42.2884 42.1688 42.37 41.9924C42.4516 41.8159 42.37 41.6259 42.1933 41.5444C41.1327 41.0694 40.0858 40.6486 39.0388 40.2685C39.1068 40.0513 39.0796 39.807 39.0524 39.5762C39.0524 39.4948 39.0388 39.4269 39.0388 39.3726C39.0524 38.8161 39.066 38.2188 39.1612 37.6352C39.1612 37.6216 39.1476 37.5944 39.1476 37.5809C39.338 37.5944 39.5147 37.6216 39.6779 37.7166C40.0586 37.9338 40.2489 38.0016 40.3985 38.0016C40.4529 38.0016 40.4937 37.9881 40.5345 37.9745C40.6296 37.9474 40.7248 37.8523 40.752 37.7573C40.8336 37.5673 40.7384 37.3637 40.6432 37.1601C40.6296 37.1193 40.6161 37.0922 40.6025 37.065C40.4937 36.6714 40.4393 36.2506 40.3849 35.8434C40.1402 34.0381 40.0314 32.5856 40.0178 31.269C40.1402 31.6219 40.2761 31.9884 40.3849 32.3549L40.4937 32.735C40.5889 33.0336 40.6704 33.3322 40.752 33.6444C40.7928 33.8073 40.8336 33.9566 40.888 34.1331C40.9288 34.2688 41.0783 34.4588 41.2143 34.4724C41.2687 34.4724 41.3231 34.4724 41.3639 34.4453C41.3911 34.4724 41.4182 34.4996 41.4454 34.5131C41.5542 34.581 41.7038 34.5946 41.8125 34.5267C41.9757 34.4317 41.9893 34.2552 41.9893 34.1738C42.0709 34.2281 42.1661 34.2824 42.2612 34.3095C42.3972 34.3367 42.5468 34.296 42.6419 34.1874C42.7915 33.9973 42.6827 33.7937 42.6011 33.6308C42.5468 33.4951 42.506 33.3458 42.4652 33.1829C42.3156 32.6807 42.1389 32.192 41.9485 31.6626C41.5542 30.631 41.1599 29.5587 40.888 28.4999C40.9152 28.4863 40.9288 28.4863 40.956 28.4727C40.9832 28.5813 41.0103 28.7171 41.0239 28.7985C41.0375 28.9071 41.0511 29.0157 41.0783 29.0836C41.2823 29.8437 41.8261 30.5496 42.4788 30.916C42.6555 30.9975 42.9411 31.174 43.2674 31.174C43.349 31.174 43.4441 31.1604 43.5393 31.1332C43.5529 31.1332 43.5529 31.1197 43.5665 31.1061C43.7161 31.2147 43.8656 31.3097 44.0288 31.3504C44.1104 31.3776 44.2055 31.3911 44.3007 31.3911C44.5047 31.3911 44.763 31.3233 45.0077 31.0925C45.0213 31.0789 45.0213 31.0518 45.0349 31.0382C45.1437 31.0789 45.2661 31.1061 45.3748 31.1061C45.5788 31.1061 45.7691 31.0518 45.9459 30.9432C46.2042 30.7803 46.3538 30.4953 46.3538 30.1831C46.3402 29.6401 46.0819 29.2193 45.8371 28.8528ZM37.9103 19.9347C37.9511 19.9212 37.9783 19.9076 38.0055 19.8804C38.0599 19.8397 38.2502 19.8126 38.3454 19.799L38.4678 19.7854C39.1068 19.6768 40.0722 20.0705 40.5209 20.627C40.9424 21.1292 41.1327 21.9165 41.0375 22.6631C41.0239 22.731 40.9832 22.8531 40.9424 22.9617C40.8608 23.1789 40.7656 23.4232 40.8064 23.6676C40.8336 23.8847 40.9832 24.0341 41.0783 24.1427C41.1191 24.1834 41.1599 24.2377 41.1735 24.2512C41.2959 24.5363 41.6358 25.5408 41.1327 26.2195C41.0375 26.3416 40.956 26.4231 40.8472 26.4909C40.5345 26.681 40.3577 26.6267 40.2625 26.5588C39.8274 26.3009 39.5827 25.3372 39.5963 24.7806C39.5963 24.5906 39.6779 24.4006 39.7595 24.1969C39.841 23.9798 39.9362 23.7219 39.9634 23.4504C39.977 23.1382 39.7459 23.0024 39.6099 22.921C39.5283 22.8396 39.4875 22.7581 39.4603 22.6359C39.4331 22.4595 39.4603 22.1744 39.5827 21.8487C39.6779 21.6315 39.7731 21.4414 39.6779 21.2514C39.6371 21.17 39.5419 21.0749 39.4467 21.0478C39.406 21.0342 39.3788 21.0342 39.338 21.0342C39.2156 21.0342 39.1204 21.1021 39.066 21.1428C38.9029 21.1835 38.7941 21.1971 38.6581 21.1835C38.2638 21.1292 37.9647 20.9663 37.8424 20.7356C37.7064 20.4505 37.8016 20.1519 37.9103 19.9347ZM33.6954 34.3095C33.7906 34.6896 34.1713 35.0697 34.5928 35.4497C34.5656 35.4905 34.5248 35.5312 34.5112 35.5855C34.4296 36.4542 34.7967 37.513 35.1638 38.2188C35.2318 38.341 35.2998 38.4767 35.3678 38.5989C35.4222 38.6939 35.4765 38.8025 35.5309 38.8975C35.5853 38.9925 35.6397 39.074 35.6669 39.1011C35.6669 39.1147 35.6805 39.1283 35.6805 39.1283C33.4643 38.4903 31.3432 38.0424 29.3173 37.7573C29.3581 37.703 29.3989 37.6352 29.3853 37.5537C29.3309 36.5492 29.3037 35.5448 29.2765 34.5539L29.2357 33.3322C29.2357 33.3051 29.2085 33.2915 29.2085 33.2643C29.5348 33.0743 29.8612 32.8436 30.1467 32.5721C30.9625 31.7576 31.4792 30.4138 31.6967 29.4093C32.1182 27.4818 32.1182 25.5272 32.0502 23.7897C32.1182 23.7626 32.1862 23.7219 32.227 23.654C32.2678 23.5861 32.295 23.5182 32.3357 23.4504C32.3765 23.3689 32.4173 23.2875 32.4581 23.2196C32.6213 22.9889 32.7028 22.9889 32.9612 23.016C33.07 23.0296 33.1787 23.0296 33.2875 23.0296C33.2195 23.1382 33.2059 23.2875 33.2059 23.4232C33.1923 23.5047 33.1923 23.5861 33.1787 23.6811L33.0971 24.4006C33.07 24.6585 33.0428 24.9028 33.0156 25.1607C32.934 26.0973 32.8932 27.0339 32.8796 27.9298L32.866 28.1334C32.8524 28.4727 32.8252 28.9071 32.9884 29.2465C33.0292 29.3415 33.1787 29.6401 33.4779 29.708C33.777 29.7758 34.0217 29.5722 34.2257 29.4229L34.5248 29.1786C34.5928 29.1243 34.6744 29.0564 34.7423 29.0021C34.6744 29.2057 34.5928 29.4093 34.5112 29.613L34.3752 29.9794C33.9945 30.9975 33.845 32.0834 33.7362 33.0336L33.709 33.2643C33.6682 33.5765 33.6138 33.9566 33.6954 34.3095ZM35.7757 37.9202C35.5173 37.418 35.2454 36.6578 35.2046 36.0063C35.4358 36.1963 35.6805 36.3863 35.9252 36.5628C35.8301 37.0379 35.8029 37.5266 35.8029 37.9881C35.8029 37.9609 35.7893 37.9338 35.7757 37.9202ZM7.48121 27.3325C7.04612 27.604 6.62463 28.0248 6.18954 28.6356L6.09436 28.7714C6.05357 28.8392 5.9448 29.0021 5.86322 29.0836C5.79524 29.0428 5.74085 29.0021 5.72725 29.0021C5.48252 28.8935 5.22418 28.8528 4.96585 28.8664C4.68032 28.8935 4.44918 29.0293 4.23163 29.1379C4.21804 29.1514 4.19084 29.165 4.17725 29.165C4.17725 29.1514 4.16365 29.1243 4.16365 29.1107C4.05488 28.7442 3.76935 28.3099 3.27987 28.2148C3.00794 28.1605 2.73601 28.1877 2.46408 28.242C2.64083 28.0519 2.80399 27.8619 2.98075 27.6719C3.45663 27.1018 4.02768 26.586 4.59874 26.0837L4.88427 25.8394C4.96585 25.7715 5.04743 25.6901 5.12901 25.6086C5.36015 25.3915 5.59129 25.1607 5.84962 25.0793C5.9584 25.0521 6.23033 25.2964 6.3527 25.405C6.47507 25.5136 6.59743 25.6222 6.70621 25.6901C7.08691 25.9208 7.522 26.043 7.98428 26.0566C7.9435 26.233 7.90271 26.4231 7.83472 26.586C7.72595 26.8303 7.64437 27.0746 7.54919 27.319C7.522 27.3325 7.49481 27.319 7.48121 27.3325ZM7.99788 36.3728C7.88911 36.4949 7.78034 36.6035 7.67156 36.7257C7.98428 36.2642 8.29701 35.7891 8.59613 35.2869C8.59613 35.4362 8.59613 35.5719 8.60973 35.7212C8.39218 35.9384 8.18823 36.1556 7.99788 36.3728ZM10.5268 34.3638C10.4181 34.581 10.4181 34.8525 10.4045 35.0832C10.4045 35.2054 10.3909 35.3276 10.3773 35.4362L10.3093 35.6669C10.1053 36.5492 9.87421 37.5944 9.43912 38.4496C9.39833 37.7302 9.34394 37.0107 9.27596 36.2913C9.19438 35.314 9.24877 34.3231 9.31675 33.3594C9.37113 32.5178 9.42552 31.649 9.38473 30.7667L9.37113 30.4953C9.35754 30.1559 9.34394 29.8166 9.30315 29.4772L9.28956 29.3822C9.27596 29.1514 9.24877 28.8528 9.08561 28.6628C9.00403 28.5678 8.85447 28.527 8.7321 28.5542C8.51455 28.6085 8.47376 28.8121 8.47376 28.8664L8.3378 29.1514C8.22902 29.3958 8.13385 29.6401 8.03867 29.8844C7.78034 30.5631 7.56279 31.2554 7.34525 31.9477L7.07331 32.8028C7.01893 32.7757 6.95095 32.7485 6.91016 32.7621C6.93735 32.6264 6.93735 32.4635 6.78779 32.3413C6.7198 32.287 6.61103 32.2599 6.52945 32.2734C6.65182 31.8526 6.78779 31.4454 6.91016 31.0789C7.48121 29.4093 7.98429 28.0655 8.47376 26.8303C8.56894 26.5995 8.62332 26.3688 8.67771 26.138C8.69131 26.0566 8.69131 25.9887 8.69131 25.9073C8.77289 25.8394 8.82727 25.7308 8.81368 25.6222C8.80008 25.5272 8.74569 25.4593 8.69131 25.405C8.60973 24.9435 8.37859 24.5499 8.14744 24.1834C8.02507 23.9933 7.90271 23.8033 7.79393 23.5861C7.29086 22.5409 7.1277 21.0342 7.97069 20.1655C8.13385 19.989 8.35139 19.8397 8.56894 19.704L8.51455 20.2062C8.89526 20.3419 9.23517 20.2605 9.54789 19.9483L9.41192 19.4189C9.87421 19.351 10.3501 19.4325 10.7308 19.7311C10.7852 19.7718 10.826 19.8533 10.8804 19.9076C10.7172 19.8669 10.5404 19.8261 10.3773 19.7854C10.2005 19.7447 10.0102 19.8669 9.98298 20.0569C9.94219 20.2469 10.0646 20.4234 10.2549 20.4505C10.7308 20.5456 11.0843 20.6406 11.4106 20.8713C11.465 20.8985 11.5194 20.9121 11.5738 20.9256L11.6146 21.0071C11.6961 21.17 11.7505 21.3464 11.8049 21.5229C11.8729 21.7129 11.9273 21.9165 12.0225 22.1066C11.9001 22.1201 11.7641 22.1744 11.669 22.2966C11.5466 22.4595 11.5738 22.6495 11.6146 22.7853C11.0163 22.7581 10.3637 22.5138 9.94219 22.093C9.80622 21.9572 9.58868 21.9572 9.46631 22.093C9.38473 22.1744 9.37113 22.2966 9.39833 22.4052C9.38473 22.4731 9.37113 22.5409 9.41192 22.6088C9.60228 23.016 10.0238 23.749 10.7308 24.0476C10.8668 24.1019 11.0435 24.1562 11.2203 24.1969C11.4786 24.2648 11.7505 24.3191 11.8593 24.4684C11.9137 24.5499 11.9545 24.7399 11.9817 24.8892V24.9028C11.329 25.1607 10.4045 25.2557 9.8878 24.9299C9.72465 24.8349 9.5207 24.8892 9.42552 25.0385C9.33035 25.2014 9.38473 25.405 9.53429 25.5C9.8878 25.7172 10.3229 25.7987 10.7716 25.7987C11.2747 25.7987 11.7777 25.6901 12.1992 25.5272C12.3624 25.8937 12.5799 26.2195 12.8247 26.5452C12.9878 26.776 13.1238 26.9525 13.3413 27.0068C13.4637 27.0339 13.5997 26.9932 13.6812 26.8982C13.8308 26.7488 13.7628 26.5588 13.7492 26.5045C13.7492 26.4231 13.7356 26.3416 13.7356 26.2466C13.7356 25.9751 13.7356 25.7172 13.7492 25.4458C13.7628 25.1743 13.7492 24.8892 13.7492 24.6177C13.7492 24.3327 13.7356 24.0341 13.7492 23.7354C13.8444 23.8305 14.0212 23.8576 14.1435 23.8033C14.2115 23.7762 14.2659 23.7354 14.2931 23.6811C14.3339 23.7219 14.4019 23.749 14.4834 23.749C14.6058 23.7626 14.7146 23.7083 14.7826 23.6133C14.7826 23.6268 14.7826 23.6268 14.7826 23.6404C14.769 23.844 14.7418 24.0476 14.7554 24.1969C14.769 25.0793 14.8234 25.9751 14.8913 26.9525L14.9049 27.0882C14.9321 27.5633 14.9729 28.0655 14.7418 28.4184C14.6466 28.5813 14.5514 28.6085 14.0348 28.2963L13.8716 28.2013C13.7764 28.147 13.6812 28.0927 13.5861 28.0248L13.4229 28.1877H13.3821L13.4909 27.9705C13.4093 27.9026 13.2598 27.7397 13.0422 27.8212C12.9198 27.8619 12.8247 27.9841 12.8111 28.1198C12.7839 28.3234 12.8383 28.5542 12.8926 28.7714C12.9062 28.8392 12.9198 28.9071 12.9334 28.9614C13.0286 29.5451 13.1102 30.1152 13.1646 30.6853C13.2054 32.1241 13.1646 33.7123 12.9606 35.3412C12.8926 35.9248 12.7839 36.6714 12.4847 37.3637C12.4847 37.3229 12.4847 37.2822 12.4847 37.2551C12.444 36.3049 12.308 35.3683 12.1856 34.4588L12.104 33.8616C12.104 33.848 12.0904 33.848 12.0904 33.8344C12.2944 33.6851 12.5119 33.5358 12.6751 33.3458C12.7975 33.21 12.7975 32.9929 12.6479 32.8707C12.4983 32.7485 12.2944 32.7621 12.172 32.8978C12.0225 33.0607 11.8049 33.2236 11.5602 33.3865C11.1387 33.6444 10.7172 33.943 10.5268 34.3638ZM12.5119 38.9111C12.5527 38.8432 12.5799 38.7618 12.6071 38.6939C12.6207 38.6532 12.6343 38.6125 12.6479 38.5853C12.7839 38.3274 12.9198 38.0695 13.0422 37.8116C13.4365 36.9836 13.5725 36.1013 13.6541 35.4362C13.858 33.753 13.8988 32.1241 13.79 30.7124C13.7356 30.1288 13.6541 29.5315 13.5589 28.9478V28.9343L13.6405 28.975C14.0076 29.1922 14.769 29.6401 15.2584 28.8664C15.612 28.3234 15.5712 27.6855 15.5304 27.1153L15.5168 26.9796C15.4488 26.0566 15.408 25.215 15.3944 24.387C15.408 24.387 15.4216 24.4006 15.4488 24.4006C15.7751 24.3327 16.0878 24.1291 16.4006 23.8169C16.4142 23.8847 16.4278 23.9526 16.4278 24.0205C16.4549 24.2241 16.4957 24.4141 16.5093 24.6177C16.6997 26.3145 16.958 27.7262 17.3115 28.8935C17.6514 30.0202 18.2497 31.6355 19.6229 32.7757C19.8541 32.9657 20.1668 33.115 20.5067 33.2643C20.901 33.4544 21.3633 33.658 21.4993 33.9023C21.5537 33.9838 21.5401 34.296 21.5401 34.4453C21.5401 34.5674 21.5401 34.676 21.5537 34.7575C21.6488 35.6534 21.6624 36.5628 21.6624 37.4315C18.1273 37.5809 15.0409 38.1781 12.5119 38.9111ZM22.3151 37.3908C22.3151 36.5221 22.3015 35.5991 22.2063 34.6896C22.2063 34.6217 22.2063 34.5403 22.2063 34.4453C22.2063 34.1331 22.2063 33.7937 22.0703 33.5494C21.8256 33.1286 21.2953 32.8843 20.7787 32.6399C20.4931 32.5042 20.2076 32.3685 20.0444 32.2327C19.1063 31.459 18.44 30.3324 17.9506 28.6763C17.6107 27.5361 17.3523 26.1787 17.162 24.5227C17.1348 24.3055 17.1076 24.1019 17.0668 23.8983C17.0396 23.7219 17.0124 23.5318 16.9852 23.3011C16.9852 23.0432 16.9852 22.8803 16.8492 22.7445C16.7813 22.6767 16.6861 22.6495 16.5909 22.6495C16.4278 22.6631 16.3598 22.7445 15.9791 23.206C15.7887 23.4368 15.5984 23.5725 15.408 23.654C15.4488 23.2603 15.476 22.8396 15.3672 22.5138C15.3264 22.3916 15.2041 22.283 15.0817 22.2694C14.8641 22.2423 14.7282 22.4188 14.633 22.5409C14.633 22.4323 14.6194 22.2694 14.4698 22.1744C14.3747 22.1066 14.2115 22.093 14.1027 22.1473C13.9668 22.2152 13.8852 22.3237 13.8172 22.5002C13.8036 22.4866 13.79 22.4731 13.7764 22.4595C13.7764 22.4323 13.8036 22.4052 13.8036 22.378L13.7764 21.9708C13.7084 21.0206 13.6405 19.9483 14.0755 19.2153C14.3339 18.7945 14.6194 18.6181 14.9593 18.6452C15.4624 18.6995 16.047 19.2832 16.2646 19.9754C16.319 20.1519 16.5093 20.2469 16.6997 20.1926C16.8764 20.1383 16.9716 19.9483 16.9172 19.7583C16.8764 19.6225 16.7949 19.4868 16.7269 19.351V19.3375C16.6181 14.6545 18.8751 12.9849 18.8751 12.9849C19.9493 12.3333 20.2756 12.5369 21.676 13.3649C23.1717 14.2472 24.6537 14.2065 24.6537 14.2065C26.9243 14.4237 28.3791 13.3378 28.8006 12.9577C30.405 13.1749 31.0169 14.6273 31.1256 15.3875C31.1528 15.5639 31.18 15.8218 31.2208 16.1204C31.1528 16.1204 31.0713 16.134 31.0169 16.1883C30.3642 16.772 29.1677 17.0163 28.2296 16.7313C27.7809 16.5955 27.2098 16.2969 27.0195 15.5775C26.9651 15.401 26.7883 15.2924 26.598 15.3332C26.4212 15.3875 26.3125 15.5639 26.3533 15.754C26.53 16.4327 27.0059 16.9349 27.6857 17.2335C26.6796 17.3421 25.9046 18.5638 25.9046 20.1248C25.9046 21.7536 26.7476 23.0432 27.8353 23.0432C28.923 23.0432 29.766 21.7672 29.766 20.1248C29.766 18.9167 29.3037 17.9122 28.6239 17.4643C28.7734 17.4778 28.923 17.5321 29.0726 17.5321C29.902 17.5321 30.7313 17.2607 31.3296 16.7991C31.5335 18.3194 31.8055 20.3012 31.8055 20.3012C31.8191 20.4505 31.9414 20.5456 32.0774 20.5727C32.0774 20.6541 32.091 20.7492 32.091 20.8306L32.1046 21.0206C32.1182 21.1428 32.1998 21.2243 32.295 21.2785C32.3357 21.3193 32.3765 21.3736 32.4445 21.3871C32.4717 21.4007 32.4989 21.4007 32.5261 21.4007C32.6757 21.4007 32.8116 21.2921 32.8524 21.1428C33.0292 20.4234 33.3963 19.894 33.9945 19.4732C34.1441 19.3646 34.1849 19.161 34.0897 18.9981C33.9809 18.8488 33.777 18.8081 33.6138 18.9167C33.2467 19.161 32.9612 19.4461 32.73 19.7854C32.73 19.609 32.73 19.4461 32.7436 19.2832L32.9612 18.4823C33.0564 18.333 33.1923 18.2108 33.3419 18.1701C33.6002 18.0751 33.8993 18.1973 34.1713 18.5095C34.7151 19.1067 34.8919 20.0297 34.6336 20.9256C34.4568 21.55 34.0081 22.0658 33.4643 22.283C33.3147 22.3373 33.1923 22.3373 33.0292 22.3237C32.73 22.3102 32.3221 22.2694 31.9278 22.8124C31.8599 22.7581 31.7783 22.731 31.6831 22.7174C31.4928 22.731 31.3568 22.8939 31.3568 23.0703C31.4656 24.9299 31.5063 27.1289 31.0441 29.2465C30.8537 30.1423 30.3914 31.364 29.6708 32.0698C29.059 32.6807 28.1344 33.0743 27.4682 33.2915C26.8427 33.4951 26.2989 33.6308 25.7142 33.6037C24.776 33.563 24.1234 33.4137 23.5524 33.115C23.3892 33.02 23.1852 33.0879 23.0901 33.2508C22.9949 33.4137 23.0629 33.6173 23.226 33.7123C24.069 34.1738 24.98 34.2552 25.687 34.2824C25.7414 34.2824 25.7958 34.2824 25.8502 34.2824C26.4756 34.2824 27.0331 34.1466 27.6857 33.9295C27.9576 33.848 28.2568 33.7259 28.5695 33.5765L28.5967 34.5539C28.6239 35.5583 28.6511 36.5628 28.7055 37.5809C28.7055 37.6216 28.7326 37.6352 28.7462 37.6759C26.4892 37.4044 24.3274 37.3229 22.3151 37.3908ZM27.441 19.6225C27.0875 19.6225 26.7883 19.8804 26.598 20.2605C26.598 20.2198 26.598 20.1926 26.598 20.1519C26.598 18.9438 27.169 17.9258 27.8489 17.9258C28.5287 17.9258 29.0998 18.9438 29.0998 20.1519C29.0998 21.3193 28.5695 22.3102 27.9169 22.378C28.2704 22.1473 28.5151 21.6586 28.5151 21.0749C28.5015 20.2741 28.0256 19.6225 27.441 19.6225ZM36.3331 39.3319C36.3603 39.3047 36.3875 39.2776 36.4147 39.2369C36.5235 38.979 36.5235 38.6668 36.5099 38.4224V38.1102C36.5099 37.7166 36.5235 37.3365 36.5779 36.9565C36.809 37.0786 37.0673 37.1872 37.3257 37.2687C37.3529 38.1781 37.6656 39.0197 37.9647 39.712C37.9919 39.7798 38.0327 39.8206 38.0599 39.8884C37.4616 39.6848 36.8906 39.4948 36.3331 39.3319ZM38.0191 37.4587C38.1687 37.4858 38.3318 37.4994 38.5086 37.513C38.427 38.0152 38.3998 38.5039 38.3862 38.979C38.1959 38.5175 38.0599 37.9881 38.0191 37.4587ZM41.7854 33.21C41.7582 33.21 41.731 33.2236 41.7174 33.2372C41.663 33.2643 41.6222 33.3051 41.5814 33.3594C41.527 33.3322 41.459 33.3322 41.4047 33.3458C41.3367 33.0743 41.2551 32.8164 41.1735 32.5449L41.0647 32.1649C40.956 31.7712 40.82 31.3911 40.6704 30.9975C40.5753 30.726 40.4801 30.4681 40.3985 30.1966C40.3305 29.9794 40.2761 29.7623 40.2353 29.5451L40.1946 29.3415C40.1946 29.1922 40.0722 29.0021 39.9226 28.9614C39.7731 28.9207 39.6099 29.0021 39.5419 29.1379C39.2972 29.5722 39.3244 30.1559 39.3516 30.6717C39.3652 30.8075 39.3652 30.9432 39.3652 31.0654C39.3652 32.4635 39.4875 34.0109 39.7459 35.9384C39.8003 36.3049 39.841 36.685 39.9362 37.0786C39.5691 36.9157 39.2428 36.8886 38.8485 36.8886C37.4209 36.875 36.3875 36.1963 35.2726 35.1783L35.1638 35.0832C34.9327 34.8661 34.4296 34.4317 34.3616 34.1738C34.3072 33.9566 34.348 33.658 34.3888 33.3729L34.4296 33.1286C34.5384 32.2191 34.6879 31.174 35.0415 30.2374L35.1774 29.8709C35.2862 29.5858 35.395 29.3007 35.4901 29.0157C35.5309 28.88 35.5717 28.7578 35.6669 28.5813C35.7349 28.4727 35.8844 28.2556 35.7213 28.0519C35.6397 27.9434 35.4629 27.8891 35.327 27.9298C34.8375 28.0791 34.4432 28.3913 34.1033 28.6763L33.8042 28.9207C33.7634 28.9614 33.6954 29.0157 33.641 29.0428C33.6274 29.0293 33.6274 29.0021 33.6138 28.9885C33.5322 28.7985 33.5458 28.4727 33.5594 28.2013V27.9434C33.573 27.0746 33.6002 26.138 33.6954 25.2286C33.7226 24.9842 33.7498 24.7263 33.777 24.482L33.7906 24.3327C33.8314 24.3327 33.8722 24.3191 33.8993 24.292C34.0081 24.2377 34.1033 24.1562 34.1713 24.0612C34.2257 24.1155 34.3072 24.1427 34.3888 24.1427C34.416 24.1427 34.484 24.1427 34.5656 24.0884C34.5384 24.8756 34.4976 25.5679 34.4296 26.1787C34.4024 26.4502 34.3888 26.7217 34.3752 26.9796V27.2104C34.348 27.319 34.3752 27.4954 34.4568 27.5904C34.5384 27.6855 34.6608 27.7126 34.7695 27.699C35.0822 27.6447 35.327 27.3732 35.5037 27.1696L35.5989 27.1018C36.2244 26.4366 36.4283 25.5951 36.5643 24.7671C36.6187 24.7535 36.673 24.7263 36.741 24.7128C37.0945 24.5906 37.3801 24.4684 37.6792 24.2784L37.8016 24.2105C37.8695 24.1698 37.9375 24.1291 38.0327 24.0612C38.1279 24.0069 38.3182 23.9255 38.3318 23.6947C38.3318 23.5725 38.2638 23.4368 38.1551 23.3689C37.8831 23.206 37.5432 23.2332 37.2577 23.2603C37.1353 23.2739 37.013 23.2739 36.8634 23.2603C36.877 23.1925 36.8906 23.1246 36.9042 23.0839C36.9314 22.9753 36.9586 22.8803 36.9586 22.8124C36.9586 22.7174 36.9178 22.5816 36.8498 22.5138C36.7546 22.4188 36.6323 22.3916 36.4963 22.3916C36.5235 22.3373 36.5507 22.283 36.5779 22.2152L36.6187 22.1201C36.7138 21.903 36.7818 21.6722 36.8498 21.4414C36.9314 21.1564 37.013 20.9121 37.1489 20.7084C37.1761 20.817 37.2033 20.9256 37.2577 21.0206C37.4888 21.4686 37.9647 21.7536 38.5902 21.8351C38.6853 21.8487 38.7805 21.8487 38.8757 21.8487C38.8077 22.093 38.7533 22.4323 38.8077 22.7445C38.8621 23.0024 38.9573 23.206 39.1476 23.3825C39.1884 23.4232 39.2292 23.4504 39.2836 23.4911C39.2564 23.6404 39.202 23.7897 39.134 23.939C39.0388 24.1698 38.9437 24.4413 38.9301 24.7399C38.9029 25.4729 39.202 26.6946 39.9362 27.1289C39.9634 27.1425 40.0042 27.1561 40.0314 27.1696C40.0178 27.2239 39.977 27.2647 39.9906 27.3325C40.2082 28.88 40.7792 30.4002 41.3367 31.8934C41.4862 32.3277 41.6358 32.7485 41.7854 33.21ZM42.0709 29.5587C42.2204 29.5587 42.3836 29.5451 42.5332 29.5451V29.5587C42.5876 29.7623 42.7235 30.0473 42.9003 30.3459C42.8867 30.3324 42.8459 30.3188 42.8323 30.3188C42.5332 30.1559 42.2748 29.8709 42.0709 29.5587ZM44.2055 30.6989C43.8384 30.5903 43.4305 29.993 43.2674 29.5722C43.4033 29.5722 43.5257 29.5858 43.6617 29.5858C43.6753 29.613 43.6617 29.6401 43.6753 29.6672L43.7976 29.8573C43.9608 30.1152 44.1648 30.4138 44.4095 30.6446C44.3415 30.7124 44.2735 30.7124 44.2055 30.6989ZM45.5516 30.3731C45.4564 30.441 45.3069 30.441 45.1845 30.3867C44.8718 30.2509 44.627 29.8844 44.3959 29.5315C44.4775 29.5179 44.5591 29.5315 44.6406 29.5044C44.831 29.4636 44.9398 29.2872 44.9126 29.1107C44.8718 28.9207 44.695 28.7985 44.5183 28.8392C44.0424 28.9343 43.5529 28.9071 43.0362 28.88C42.6147 28.8528 42.1933 28.8528 41.7582 28.8935V28.88C41.7446 28.8257 41.731 28.7442 41.7174 28.6628C41.6766 28.3777 41.6222 28.0112 41.3639 27.8076C41.1599 27.6447 40.9424 27.699 40.7656 27.7805C40.7248 27.604 40.684 27.4275 40.6568 27.2511C40.82 27.2239 41.0103 27.1696 41.2143 27.0475C41.3639 26.9525 41.4998 26.8303 41.6222 26.681C41.663 26.6946 41.7174 26.7217 41.7582 26.7217L42.0165 26.681C42.3564 26.6267 42.6147 26.5724 42.9139 26.6403C43.213 26.7081 43.5121 26.9796 43.7569 27.2375C44.1919 27.6855 44.695 28.2284 45.0485 28.8664C45.1165 28.9885 45.1845 29.0971 45.2661 29.2193C45.4836 29.5451 45.6604 29.8301 45.6604 30.1695C45.6604 30.2645 45.6196 30.3324 45.5516 30.3731Z" fill="#8F5553"/>
<path d="M39.3916 18.9979C39.8267 19.1879 40.2345 19.2693 40.5881 19.2693C41.0775 19.2693 41.4446 19.1065 41.5806 18.7671C41.8253 18.197 41.2543 17.464 40.2345 17.0161C39.2148 16.5681 38.2902 16.6631 38.0455 17.2333C37.8008 17.8305 38.3582 18.5635 39.3916 18.9979ZM39.0245 17.4369C39.2556 17.4369 39.5819 17.4912 39.9626 17.654C40.6968 17.9662 40.996 18.4142 40.9552 18.5092C40.9144 18.6042 40.3977 18.6992 39.6499 18.3735C38.9157 18.0613 38.6166 17.6133 38.6573 17.5183C38.6845 17.4776 38.8205 17.4369 39.0245 17.4369Z" fill="#8F5553"/>
</svg>
