<svg width="47" height="47" viewBox="0 0 47 47" fill="none" xmlns="http://www.w3.org/2000/svg">
<path d="M46.273 32.4259C46.2392 32.2736 46.104 32.1551 45.9519 32.1213L44.6673 31.8674C44.6504 30.869 43.7545 30.0229 43.7038 29.9722C43.6531 29.9214 43.5855 29.8876 43.5179 29.8706C43.4672 29.7691 43.3658 29.6845 43.2474 29.6506C42.4699 29.4645 40.8135 29.5153 39.7486 30.9367L34.5594 28.7538C35.3877 27.9923 36.3511 26.3847 35.4553 24.3032C35.3877 24.2017 33.8664 22.1033 33.3594 21.4265C33.3763 21.3926 33.3932 21.3757 33.427 21.3418C33.7988 20.8003 34.6778 19.5481 33.7312 18.0082L28.4576 9.29324C28.9308 8.97171 29.252 8.5825 29.3703 8.10868C29.6577 7.07643 28.9308 6.16262 28.8294 6.04417C28.4576 5.73957 28.1026 5.72265 27.8829 5.75649C27.866 5.75649 27.8491 5.77341 27.8322 5.77341C27.9505 2.33821 26.5983 1.35672 26.5983 1.35672C23.7248 -1.4016 20.1245 0.899818 20.1245 0.899818C17.9441 2.43974 18.13 4.94423 18.2652 5.75649C18.0455 5.73957 17.7243 5.77342 17.3187 6.11186C17.2849 6.1457 16.5581 7.07643 16.8454 8.10868C16.9806 8.5825 17.3018 8.98863 17.8089 9.32707L12.5352 18.0251C11.5886 19.565 12.4676 20.8173 12.8394 21.3588C12.8563 21.3926 12.8733 21.4095 12.9071 21.4434C12.4169 22.1203 10.8787 24.2355 10.7773 24.4048C9.93217 26.4185 10.8956 28.0092 11.7239 28.7707L6.53472 30.9537C5.46985 29.5491 3.79648 29.4814 3.03586 29.6676C2.91754 29.7014 2.81613 29.7691 2.76542 29.8876C2.69781 29.9045 2.6302 29.9383 2.57949 29.9891C2.52878 30.0229 1.64984 30.869 1.61604 31.8844L0.331425 32.1382C0.179301 32.1721 0.0440876 32.2905 0.0102821 32.4428C-0.0235233 32.5951 0.0271751 32.7643 0.145494 32.8659C0.246911 32.9505 0.399035 33.0689 0.568062 33.1874L0.483556 33.2043C0.314529 33.2381 0.1793 33.3904 0.145494 33.5597C0.128591 33.7458 0.213104 33.915 0.382131 33.9996C0.737089 34.1689 1.17657 34.355 1.56533 34.4735L1.36249 34.7781C1.26108 34.9134 1.26108 35.0996 1.36249 35.235C1.44701 35.3534 1.58223 35.4211 1.71745 35.4211C1.73435 35.4211 1.76816 35.4211 1.78506 35.4211C1.88648 35.4042 4.16834 35.015 5.33463 34.7104C5.31773 35.3534 5.41914 36.3518 6.11215 37.2656C7.22773 38.7548 10.4731 40.9547 12.9747 41.5469C13.5325 41.6823 14.1748 41.8346 14.8509 41.9869C13.8367 42.4946 12.7042 43.2392 12.8056 44.0176C12.8225 44.1699 12.924 44.3053 13.0761 44.356L13.9212 44.6776C14.1579 45.2529 14.6649 46.2175 15.3411 46.2175C15.3918 46.2175 15.4256 46.2175 15.4763 46.2006C16.051 46.099 22.305 44.153 23.0149 43.933C23.0318 43.933 23.0318 43.8991 23.0487 43.8991L24.2657 44.1868C24.2826 44.1868 26.6321 44.3899 27.7477 44.8299C28.7111 45.2021 29.5901 45.2191 30.4352 45.236C30.7056 45.236 30.9761 45.2529 31.2465 45.2698C31.855 45.3037 32.8185 45.5067 33.6805 45.676C34.3228 45.8113 34.9144 45.9298 35.3201 45.9806C35.3877 45.9806 35.4553 45.9975 35.5229 45.9975C36.5033 45.9975 37.3146 45.1514 37.5681 44.4237C37.6864 44.3899 37.8048 44.3391 37.8893 44.2376C38.2104 43.8991 38.2104 43.2899 38.1935 43.1038C38.1766 42.9515 38.0921 42.8161 37.9569 42.7484C37.8893 42.7146 36.4018 42.0208 34.8806 41.53C34.7285 41.4793 34.5425 41.4454 34.3735 41.3946C36.723 40.3962 39.3598 38.3994 40.2388 37.2149C40.9318 36.3011 41.0332 35.3027 41.0163 34.6596C42.1826 34.9473 44.4644 35.3365 44.5659 35.3703C44.5828 35.3703 44.6166 35.3703 44.6335 35.3703C44.7687 35.3703 44.9039 35.3027 44.9884 35.1842C45.0729 35.0488 45.0729 34.8627 44.9884 34.7273L44.7856 34.4396C45.1744 34.3381 45.5969 34.1519 45.9688 33.9658C46.1378 33.8812 46.2223 33.712 46.2054 33.5258C46.1885 33.3397 46.0533 33.2043 45.8674 33.1705L45.7829 33.1535C45.9688 33.0182 46.1209 32.8997 46.2054 32.832C46.2561 32.7474 46.3068 32.5782 46.273 32.4259ZM42.6221 31.2583C42.7066 31.2413 42.7742 31.2075 42.8418 31.1567C42.8249 31.2413 42.808 31.3259 42.7742 31.3767C42.7573 31.4275 42.6897 31.4952 42.5713 31.5459C42.4699 31.5798 42.3685 31.5967 42.2502 31.5629C42.3516 31.4444 42.5206 31.2921 42.6221 31.2583ZM28.7618 36.8426C27.2575 37.9933 24.384 39.8209 23.7248 40.1593C23.7079 40.1763 23.7079 40.1932 23.691 40.1932C23.6234 40.1593 23.5389 40.1255 23.4713 40.0916C22.7106 39.7024 19.2963 37.6887 17.8596 36.5887C17.4708 36.3011 16.8961 35.9119 16.2369 35.5057C16.5581 35.658 16.8285 35.8103 17.0313 35.9457C17.1496 35.9965 19.9724 37.0118 22.6599 37.0118C22.7613 37.0118 22.8628 37.0118 22.9642 37.0118C23.0487 37.0118 23.0994 36.961 23.167 36.9272C23.2177 36.9441 23.2346 36.978 23.2853 36.978C23.3867 36.978 23.4882 36.978 23.5896 36.978C26.2771 36.978 29.083 35.9457 29.3027 35.8611C29.8436 35.5057 30.8578 35.0488 31.9226 34.6088C30.7225 35.438 29.4548 36.318 28.7618 36.8426ZM13.9381 31.9859L13.9719 33.5935C13.1099 33.2551 12.2817 32.9335 11.6901 32.7136C12.8902 32.3243 13.8198 32.0198 13.9381 31.9859ZM32.2776 33.5597L32.3114 31.9521C32.3114 31.9521 32.3114 31.9521 32.3283 31.9521C32.4297 31.9859 33.3594 32.2905 34.5764 32.6797C33.9679 32.8997 33.1396 33.2212 32.2776 33.5597ZM29.776 25.7416L29.3703 23.5417C29.3703 23.5079 29.3196 23.474 29.3027 23.4402C29.4548 22.3741 29.2689 21.4095 29.252 21.3249C29.2013 21.1049 28.9815 20.9526 28.7618 21.0034C28.5252 21.0542 28.39 21.2742 28.4238 21.4941C28.4238 21.528 28.9308 24.0663 27.5955 25.0309C27.5448 25.0647 26.2095 25.9616 24.3164 25.0309C24.1136 24.9293 23.86 25.014 23.7586 25.217C23.6572 25.4201 23.7417 25.6739 23.9445 25.7755C24.7221 26.1647 25.432 26.2831 26.0236 26.2831C26.6997 26.2831 27.2237 26.1139 27.5786 25.9616C27.4434 27.3661 27.173 30.226 27.2068 31.2752C27.2575 32.5105 28.1195 34.6258 28.3899 35.2688C27.4265 35.5734 25.2291 36.1826 23.2853 36.1149C23.2008 36.1149 23.1332 36.1657 23.0656 36.1995C23.0149 36.1826 22.9811 36.1488 22.9304 36.1488C22.9304 36.1488 22.9304 36.1488 22.9135 36.1488C20.902 36.1995 18.6878 35.5734 17.7919 35.3027C18.0624 34.6765 18.9413 32.5613 18.9751 31.309C19.0089 30.2598 18.7554 27.4 18.6033 25.9954C18.9582 26.1477 19.4822 26.317 20.1583 26.317C20.7499 26.317 21.4598 26.1816 22.2374 25.8093C22.4402 25.7078 22.5247 25.4539 22.4233 25.2509C22.3219 25.0478 22.0683 24.9632 21.8655 25.0647C19.9724 25.9954 18.654 25.0986 18.6033 25.0647C17.268 24.1002 17.775 21.5449 17.775 21.528C17.8257 21.2911 17.6736 21.0711 17.4539 21.0372C17.2342 20.9865 16.9975 21.1388 16.9637 21.3588C16.9468 21.4264 16.7609 22.4079 16.913 23.4571C16.8961 23.491 16.8623 23.5079 16.8454 23.5586L16.4397 25.7924C16.4059 26.1477 16.3383 26.7569 16.2369 27.4C16.0172 27.2985 15.7805 27.2138 15.5608 27.1123C15.0706 26.9092 14.5804 26.7062 14.1072 26.4693L15.696 17.9066C15.696 17.8897 15.8481 16.8744 16.744 16.4852L19.2456 15.7575C20.1583 17.1451 21.3922 17.9405 22.6937 18.1097C22.7106 18.1097 22.7275 18.1435 22.7614 18.1435C22.829 18.1435 22.8797 18.1435 22.9473 18.1435C23.0318 18.1435 23.0994 18.1774 23.1839 18.1774C23.2684 18.1774 23.3529 18.1774 23.4206 18.1774C23.522 18.1774 23.6065 18.1097 23.6741 18.0589C24.908 17.8389 26.0574 17.0436 26.9363 15.7406L29.3872 16.4513C30.3338 16.8575 30.4859 17.8559 30.5028 17.9236L32.0916 26.4523C31.6184 26.6893 31.1282 26.8923 30.638 27.1123C30.4183 27.2138 30.1985 27.2985 29.9619 27.4C29.8774 26.74 29.8098 26.1139 29.776 25.7416ZM24.4854 13.1684L24.5192 14.7253C24.5192 14.9114 24.6545 15.0637 24.8235 15.1314L26.0912 15.5037C25.5672 16.2144 24.4516 17.4159 22.8459 17.3313C22.829 17.3313 22.829 17.3482 22.8121 17.3482C21.5275 17.179 20.5978 16.1806 20.1414 15.5544L21.4091 15.1822C21.5782 15.1314 21.7134 14.9622 21.7134 14.776L21.7472 13.2023C22.119 13.2699 22.5078 13.3207 22.9304 13.3376C23.0318 13.3376 23.1332 13.3376 23.2346 13.3376C23.7079 13.3207 24.1136 13.2699 24.4854 13.1684ZM17.9103 6.70413C18.0624 6.58568 18.1469 6.6026 18.1807 6.6026C18.3497 6.63645 18.5019 6.82259 18.5526 6.87336C18.6709 7.0595 18.9413 7.12719 19.1273 7.00873C19.2456 6.94105 21.7979 5.33344 22.9642 3.47199C24.1812 5.33344 26.9701 6.92412 27.0884 7.00873C27.2744 7.12719 27.5279 7.0595 27.6462 6.87336C27.6969 6.80567 27.8491 6.61953 28.0181 6.6026C28.0519 6.6026 28.1364 6.58568 28.2378 6.63644C28.2378 6.63644 28.728 7.27949 28.559 7.88869C28.4407 8.31174 28.0181 8.65019 27.3082 8.92095C27.2237 8.95479 27.1561 9.00556 27.1054 9.07325C27.0377 9.15786 27.0208 9.25939 27.0208 9.36092C26.9532 9.69936 26.2264 12.6607 22.9811 12.4746C20.6316 12.4408 19.4315 11.4254 19.1949 9.29324C19.178 9.14094 19.0765 9.00555 18.9244 8.93786C18.2145 8.66711 17.7919 8.31174 17.6567 7.88869C17.4877 7.31333 17.9272 6.70413 17.9103 6.70413ZM3.62746 31.2921C3.71198 31.3259 3.8979 31.4782 3.96551 31.5967C3.8641 31.6305 3.76268 31.6305 3.64436 31.5798C3.52604 31.5459 3.45844 31.4613 3.44153 31.4106C3.42463 31.3429 3.40773 31.2752 3.39083 31.1906C3.47534 31.2413 3.55985 31.2752 3.62746 31.2921ZM2.61329 33.8473C2.49497 33.712 2.30904 33.6443 2.14002 33.7289C2.14002 33.7289 2.12312 33.7289 2.10622 33.7289C2.30905 33.6612 2.42736 33.4412 2.37665 33.2381C2.32595 33.0182 2.10622 32.8659 1.86958 32.9166H1.85267C1.76816 32.9336 1.63294 32.8659 1.44701 32.7643L2.12312 32.6289C2.24144 32.612 2.34285 32.5443 2.39356 32.4428C2.46117 32.3413 2.47807 32.2228 2.44427 32.1213C2.37666 31.8674 2.44427 31.6136 2.56258 31.3598C2.57949 31.4782 2.6133 31.5798 2.6471 31.6813C2.74852 31.9859 3.00206 32.2397 3.35701 32.3751C3.74578 32.5105 4.15144 32.4766 4.48949 32.2905C4.75994 32.1382 4.89516 31.8505 4.84445 31.5459C4.77684 31.0721 4.23596 30.5644 3.8472 30.4798C3.83029 30.4798 3.8303 30.4629 3.8134 30.446C4.42189 30.4629 5.36843 30.6829 5.99384 31.6982C6.09525 31.8844 6.3319 31.9521 6.51783 31.8674L12.7887 29.2276C12.8733 29.1937 12.9409 29.1261 12.9916 29.0584C13.1268 28.8384 13.6508 27.9753 13.9212 27.3154C14.3607 27.5184 14.8171 27.7215 15.2565 27.9077C15.5439 28.0261 15.8312 28.1446 16.1186 28.2799C16.0003 28.9399 15.8481 29.5322 15.6791 29.8199C15.3072 30.4798 14.0903 31.0213 13.6508 31.1906C13.5832 31.2075 6.33189 33.5597 5.33463 33.8473C4.72613 34.0166 3.45843 34.2704 2.57949 34.4227L2.61329 34.355C2.73161 34.2027 2.73161 33.9996 2.61329 33.8473ZM6.75447 36.7918C6.09526 35.9288 6.12906 34.9304 6.17977 34.4904C7.12632 34.2027 8.8504 33.6443 10.4393 33.1366C10.4731 33.1535 10.49 33.2043 10.5238 33.2212C10.5407 33.2212 10.7266 33.2889 11.0309 33.4074C11.0647 33.4581 11.0816 33.5089 11.1323 33.5427C11.1661 33.5597 13.8029 35.015 15.7467 36.2334C14.0226 37.0287 12.8732 38.704 12.7042 40.6501C10.2871 39.8886 7.5827 37.8918 6.75447 36.7918ZM15.3241 45.4052C15.1551 45.3544 14.8002 44.7791 14.5973 44.2207C14.5466 44.1022 14.4621 44.0176 14.3438 43.9837L13.7184 43.7468C14.0395 43.3915 14.9354 42.85 15.865 42.4438C15.9326 42.41 15.9664 42.3423 16.0172 42.2915C18.0455 42.7654 19.9386 43.2053 19.9386 43.2053L21.426 43.5607C18.8061 44.373 15.6284 45.3375 15.3241 45.4052ZM37.2977 43.4253C37.2977 43.5268 37.2977 43.6115 37.3146 43.6284C36.9765 43.6115 36.4188 43.4761 36.2328 43.4084C36.0131 43.3407 35.7764 43.4761 35.7088 43.6961C35.6412 43.9161 35.7764 44.153 35.9962 44.2207C36.0131 44.2207 36.3004 44.3053 36.6216 44.373C36.3849 44.7791 35.9117 45.2191 35.3708 45.1514C35.0158 45.1175 34.4242 44.9991 33.8157 44.8637C32.9368 44.6776 31.9395 44.4914 31.2803 44.4406C30.993 44.4237 30.7225 44.4237 30.4352 44.4068C29.6239 44.3899 28.8463 44.373 28.035 44.0514C26.818 43.5945 24.4516 43.3745 24.384 43.3745L20.1583 42.3423C20.1583 42.3423 16.0679 41.3946 13.5156 40.8024C13.617 38.9579 14.7495 37.3672 16.4566 36.758C16.4904 36.741 16.5073 36.7072 16.5411 36.6734C16.8623 36.8764 17.1327 37.0795 17.3525 37.2318C18.8568 38.3825 22.2881 40.4132 23.0994 40.8193C23.8431 41.1916 24.8742 41.5808 24.9925 41.6146C25.1953 41.6485 26.9025 41.9192 27.5786 41.8177L27.7139 41.8008C28.3054 41.6992 29.5393 41.5131 30.0802 41.6485C30.3507 41.7162 30.7901 41.7669 31.3648 41.8177C32.3283 41.9192 33.6298 42.0377 34.5594 42.3423C35.675 42.7315 36.8075 43.2222 37.2977 43.4253ZM31.4494 41.0054C30.9254 40.9547 30.4859 40.9039 30.2831 40.8531C29.6408 40.6839 28.5421 40.8362 27.5786 40.9885L27.4434 41.0054C27.0377 41.0731 25.8038 40.9208 25.2122 40.8362C25.2122 40.8362 24.9756 40.7516 24.6544 40.6162C25.8038 39.9393 28.0519 38.4671 29.3027 37.5195C29.7084 37.1979 30.3676 36.741 31.0775 36.2503C32.5818 36.978 34.0017 38.6363 34.644 40.3793C34.0017 40.7008 33.3763 40.9378 32.8016 41.0731C32.7678 41.09 32.7509 41.1239 32.7171 41.1408C32.2438 41.0901 31.8212 41.0393 31.4494 41.0054ZM39.495 36.758C38.8527 37.621 37.1287 38.9917 35.3539 39.9901C34.6778 38.2471 33.3087 36.6057 31.8212 35.7257C33.4439 34.6088 35.1341 33.492 35.151 33.4751C35.1848 33.4412 35.2017 33.4074 35.2187 33.3566C35.5229 33.2551 35.7088 33.1874 35.7088 33.1874C35.7426 33.1705 35.7595 33.1366 35.7934 33.1028C37.3822 33.6104 39.1063 34.1689 40.0528 34.4565C40.1204 34.8796 40.1542 35.878 39.495 36.758ZM44.3968 32.8997C44.1602 32.8489 43.9405 33.0012 43.8898 33.2212C43.8391 33.4412 43.9743 33.6612 44.194 33.712C44.1771 33.712 44.1771 33.712 44.1602 33.712C43.9912 33.6443 43.7883 33.6781 43.67 33.8304C43.5517 33.9658 43.5348 34.1858 43.6362 34.3381L43.67 34.4058C42.7911 34.2366 41.5234 33.9996 40.9149 33.8304C39.9176 33.5428 32.6663 31.1906 32.5987 31.1736C32.1593 31.0213 30.9254 30.4629 30.5704 29.8029C30.4014 29.5153 30.2662 28.923 30.1309 28.263C30.4183 28.1446 30.7056 28.0092 30.9761 27.8907C31.4324 27.7046 31.8719 27.5015 32.3283 27.2815C32.5987 27.9584 33.1227 28.8215 33.241 29.0245C33.2917 29.0922 33.3594 29.1599 33.4439 29.1937L39.7317 31.8336C39.9345 31.9182 40.1543 31.8336 40.2557 31.6644C40.8811 30.6321 41.8276 30.4291 42.453 30.4121L42.4361 30.4291C42.0305 30.5306 41.4896 31.0213 41.422 31.5121C41.3713 31.8167 41.5065 32.0874 41.7769 32.2397C42.115 32.4428 42.5206 32.4766 42.9094 32.3243C43.2475 32.189 43.5179 31.9351 43.6193 31.6305C43.6531 31.5459 43.67 31.4275 43.7038 31.309C43.8221 31.5459 43.8898 31.8167 43.8221 32.0705C43.7883 32.189 43.8052 32.3074 43.8729 32.392C43.9405 32.4936 44.025 32.5613 44.1433 32.5782L44.8194 32.7136C44.6166 32.8489 44.4644 32.8997 44.3968 32.8997Z" fill="#405C70"/>
<path d="M21.3079 7.78716C21.3079 7.78716 21.3248 7.78716 21.3417 7.78716C21.8149 7.78716 22.2713 7.5841 22.5756 7.26258C22.7277 7.09336 22.7277 6.8226 22.5587 6.6703C22.3896 6.518 22.1192 6.518 21.9671 6.68722C21.8149 6.85644 21.5952 6.94105 21.3417 6.94105C21.1726 6.9749 20.936 6.89029 20.8346 6.77183C20.6656 6.60261 20.3951 6.60261 20.243 6.77183C20.074 6.94105 20.074 7.19489 20.243 7.36411C20.4627 7.63486 20.8684 7.78716 21.3079 7.78716Z" fill="#405C70"/>
<path d="M24.8401 7.71961C24.9077 7.71961 24.9584 7.73653 25.026 7.73653C25.4317 7.73653 25.8204 7.60116 26.1247 7.34732C26.3106 7.19503 26.3275 6.92427 26.1754 6.75505C26.0233 6.56891 25.7528 6.55198 25.5838 6.70428C25.4148 6.83966 25.1781 6.90735 24.9246 6.89043C24.7217 6.8735 24.5358 6.78889 24.4513 6.67044C24.3161 6.48429 24.0456 6.45045 23.8597 6.60275C23.6738 6.73813 23.64 7.00888 23.7921 7.19502C24.0118 7.4827 24.4006 7.66885 24.8401 7.71961Z" fill="#405C70"/>
<path d="M22.3048 8.80263C22.4231 9.09031 22.6936 9.17491 22.9978 9.17491C23.1669 9.17491 23.3359 9.15799 23.488 9.12415C23.5387 9.12415 23.5894 9.10723 23.6232 9.10723C23.8599 9.10723 24.0458 8.90416 24.0458 8.66725C24.0458 8.43034 23.8599 8.26113 23.6232 8.26113C23.5387 8.26113 23.488 8.27804 23.3866 8.27804C23.3021 8.29497 23.0824 8.32881 22.9809 8.31189C22.8626 8.21036 22.7105 8.17651 22.5584 8.2442C22.3217 8.34573 22.2203 8.58264 22.3048 8.80263Z" fill="#405C70"/>
<path d="M24.1476 9.83462C23.6574 10.0885 23.0151 10.1054 22.1869 9.88539C21.9503 9.83462 21.7305 9.95308 21.6629 10.19C21.5953 10.4269 21.7305 10.6469 21.9672 10.7146C22.4235 10.833 22.8461 10.9007 23.218 10.9007C23.7081 10.9007 24.1307 10.7992 24.5195 10.613C24.7223 10.5115 24.8068 10.2577 24.7054 10.0377C24.604 9.8177 24.3504 9.73309 24.1476 9.83462Z" fill="#405C70"/>
<path d="M18.7549 8.48101C18.8225 8.48101 18.8733 8.46409 18.9409 8.44717C19.1437 8.34564 19.2451 8.0918 19.1437 7.88874C19.0085 7.61798 18.8395 7.36415 18.6028 7.14416C18.4338 6.97494 18.1633 6.99186 18.0112 7.16108C17.8422 7.3303 17.8591 7.60106 18.0281 7.75336C18.1971 7.90566 18.3155 8.07488 18.4 8.2441C18.4507 8.37948 18.6028 8.48101 18.7549 8.48101Z" fill="#405C70"/>
<path d="M27.173 8.58252C27.3251 8.58252 27.4603 8.51483 27.5448 8.37945C27.6969 8.1087 27.8829 7.88871 28.0857 7.73641C28.2716 7.58411 28.3054 7.33028 28.1533 7.14413C28.0181 6.95799 27.7476 6.92414 27.5617 7.07644C27.2744 7.29643 27.0208 7.60103 26.818 7.9564C26.6997 8.15947 26.7673 8.4133 26.9701 8.53175C27.0208 8.5656 27.0884 8.58252 27.173 8.58252Z" fill="#405C70"/>
</svg>
