<svg width="50" height="37" viewBox="0 0 50 37" fill="none" xmlns="http://www.w3.org/2000/svg">
<path d="M30.7799 16.2959C30.7968 16.2959 30.7968 16.2959 30.8137 16.2959C31.6588 16.2451 32.4871 16.2113 33.3322 16.1944C33.9238 16.1774 34.5154 16.1605 35.107 16.1267C35.3436 16.1097 35.5126 15.9236 35.5126 15.6867C35.4957 15.4498 35.3098 15.2467 35.0732 15.2806C34.4816 15.3144 33.9069 15.3313 33.3153 15.3313C32.4702 15.3482 31.6081 15.3821 30.763 15.4329C30.5263 15.4498 30.3573 15.6528 30.3742 15.8898C30.3742 16.1267 30.5602 16.2959 30.7799 16.2959Z" fill="#194A58"/>
<path d="M45.5866 18.1237L47.7671 17.9206C47.8347 17.9206 47.9192 17.8868 47.9699 17.836C48.2404 17.6329 48.4094 17.3622 48.4601 17.0407C48.5615 16.3468 48.0713 15.6361 48.0037 15.5684C47.9361 15.4669 47.8178 15.4161 47.7164 15.3992L45.519 15.1623C44.5387 14.4346 44.7246 11.6255 45.0795 9.79795L46.7867 9.42567C47.0065 9.3749 47.1586 9.15491 47.1079 8.918L46.8205 7.53038C46.7867 7.37808 46.6853 7.25962 46.5501 7.20886L25.4555 0.0169194C25.3879 -2.83996e-06 25.3372 0 25.2696 0L2.14664 2.5891C2.02832 2.60602 1.92691 2.65678 1.8593 2.7414C-1.11558 6.54889 2.23115 10.5425 2.26496 10.5764C2.29876 10.6102 2.33257 10.6441 2.38328 10.661L2.56921 10.7625C2.58611 10.7794 2.60302 10.7964 2.60302 10.7964C2.61992 10.8133 2.65372 10.8302 2.67062 10.8471L2.01142 10.881C1.9269 10.881 1.8593 10.9148 1.79168 10.9656C1.70717 11.0333 0.912738 11.6256 0.86203 12.4547C0.845127 12.7424 0.912743 13.1824 1.36912 13.6224C1.40292 13.6393 1.41983 13.6731 1.45364 13.6901L2.04523 14.0116C2.06213 14.0285 2.04522 14.0454 2.06212 14.0623C3.07628 15.5177 2.78895 17.7683 2.60302 18.7498L0.625392 18.5129C0.473268 18.496 0.338044 18.5806 0.253531 18.716C0.118309 18.7836 0.0507061 18.919 0.0507061 19.0713L0 20.5097C0 20.662 0.084509 20.8143 0.219731 20.8989L2.5185 22.1342C2.33257 22.6927 2.09593 23.8265 2.63682 24.9603C2.65372 24.9941 2.68753 25.0279 2.70443 25.0618L12.3728 35.6212C12.3897 35.6551 12.8123 36.3658 13.7419 36.3658C13.8433 36.3658 13.9447 36.3658 14.0462 36.332L45.35 33.0152C45.5528 32.9983 45.705 32.8291 45.7219 32.626L45.8064 31.4076C45.8233 31.1876 45.6711 31.0015 45.4514 30.9676L44.133 30.7476C43.9302 30.4938 43.4569 29.8 43.9809 28.9031L45.4852 28.6324C45.6373 28.5985 45.7726 28.4801 45.8233 28.3278L46.043 27.5663H46.0599C46.0937 27.5493 49.339 26.3479 49.0855 22.5065C48.8996 20.4082 47.6319 18.8852 45.5866 18.1237ZM43.1188 18.4452C43.609 18.479 44.2006 18.5806 44.8091 18.7498C44.6063 18.7498 44.4542 18.7498 44.4034 18.7498L19.7593 20.9666L2.65373 11.7102L4.07355 11.6256L4.59753 11.9132L19.4043 20.3405C19.4719 20.3743 19.5395 20.3913 19.6072 20.3913C19.6241 20.3913 19.6241 20.3913 19.641 20.3913L42.916 18.3098C42.9836 18.3944 43.0343 18.4452 43.1188 18.4452ZM17.6126 18.3944L15.3308 17.0914C15.3308 17.0407 15.3308 16.9899 15.3139 16.9391C14.9758 16.2792 14.7899 15.6869 14.7054 15.1284C14.6885 15.0269 14.6716 14.9254 14.6716 14.8238C14.6716 14.7392 14.6547 14.6377 14.6547 14.5531C14.6547 14.35 14.6547 14.13 14.6716 13.927C14.6885 13.7916 14.7054 13.6731 14.7392 13.5547C14.7561 13.5039 14.7561 13.4531 14.773 13.4024C14.8744 12.9455 15.0603 12.5394 15.2463 12.2009C15.4829 11.8286 15.7871 11.4902 16.1928 11.1856L18.6437 12.5055C17.9169 13.0639 17.4267 13.7747 17.207 14.6546C16.852 16.0084 17.2408 17.4129 17.6126 18.3944ZM21.2636 13.8931C21.4495 15.433 21.2974 16.6345 20.7396 17.9883L20.1818 18.0391C19.5733 17.0237 19.3536 16.1269 19.5395 15.3484C19.7255 14.57 20.2833 14.147 20.4523 14.0285L21.2636 13.8931ZM22.0919 13.7408L44.2006 9.89949C44.133 10.2549 44.0654 10.7287 43.9978 11.2871C42.8653 11.4056 41.7328 11.5071 40.6003 11.6086C38.217 11.8286 35.7662 12.0486 33.366 12.3363C33.1293 12.3701 32.9603 12.5732 32.9941 12.8101C33.011 13.0301 33.1969 13.1824 33.4167 13.1824C33.4336 13.1824 33.4505 13.1824 33.4674 13.1824C35.8676 12.8947 38.3185 12.6747 40.6849 12.4547C41.7666 12.3532 42.8653 12.2517 43.9471 12.1501C43.9471 12.3701 43.9302 12.5732 43.9471 12.7932C43.9302 12.7932 43.9133 12.7763 43.8964 12.7763C41.9864 12.9963 40.0256 13.1655 38.1325 13.3178C36.2901 13.4701 34.3632 13.6393 32.487 13.8593C32.2504 13.8931 32.0814 14.0962 32.1152 14.3331C32.1321 14.5531 32.318 14.7054 32.5377 14.7054C32.5546 14.7054 32.5715 14.7054 32.5884 14.7054C34.4477 14.5023 36.3578 14.3331 38.2001 14.1808C40.0933 14.0116 42.054 13.8424 43.9809 13.6393C43.9809 13.6393 43.9809 13.6393 43.9978 13.6393C44.0147 13.8424 44.0485 14.0454 44.0992 14.2316C42.578 14.2993 41.0567 14.4854 39.5693 14.6715C39.096 14.7392 38.6058 14.79 38.1325 14.8577C37.8959 14.8915 37.7269 15.0946 37.7607 15.3315C37.7776 15.5515 37.9635 15.7038 38.1832 15.7038C38.2001 15.7038 38.217 15.7038 38.2339 15.7038C38.7072 15.653 39.1974 15.5853 39.6876 15.5177C41.2426 15.3146 42.8315 15.1115 44.3866 15.0608C44.5218 15.3484 44.6908 15.5853 44.9105 15.7884L21.6524 17.9375C22.1426 16.5499 22.2778 15.2807 22.0919 13.7408ZM45.0288 8.95184C44.9781 8.95184 44.9443 8.918 44.8936 8.918L20.2325 13.1993C20.1818 13.1993 20.148 13.2162 20.0973 13.2501C20.0466 13.267 19.0325 13.8593 18.7113 15.1284C18.4409 16.1945 18.7451 17.396 19.5902 18.699C19.6748 18.8175 19.7931 18.8852 19.9452 18.8852C19.9621 18.8852 19.979 18.8852 19.979 18.8852L46.7022 16.4145C46.8543 16.3976 46.9558 16.2961 47.0234 16.1607L47.4121 16.1945C47.5135 16.3807 47.6488 16.6684 47.615 16.8884C47.598 16.956 47.5812 17.0068 47.5305 17.0576L19.6917 19.5451L18.8634 19.0713C18.6606 18.716 17.5281 16.6345 17.9845 14.8238C18.1873 14.0285 18.6775 13.3685 19.455 12.8947L46.0768 8.1565L46.1782 8.66417L45.0288 8.95184ZM25.2865 0.86303L44.8936 7.5473L19.4888 12.0655C19.455 12.0317 19.4381 11.9809 19.4043 11.964L3.29603 3.33367L25.2865 0.86303ZM45.4007 21.0005C45.9416 21.2204 46.6684 21.762 46.7698 23.048C46.7698 23.065 46.6177 24.4357 45.7895 25.231C46.0261 23.7419 45.7049 22.1173 45.4007 21.0005ZM44.471 20.8651C44.6401 21.4066 44.8598 22.2696 44.9612 23.2173L37.5578 23.928C37.3212 23.9449 37.1522 24.1649 37.186 24.3849C37.2029 24.6049 37.3888 24.7741 37.6086 24.7741C37.6255 24.7741 37.6424 24.7741 37.6424 24.7741L45.0119 24.0634C45.0119 24.6218 44.9781 25.1802 44.826 25.6879C44.826 25.7048 44.826 25.7048 44.826 25.7218L43.7273 25.874C43.7104 25.874 43.7104 25.8571 43.6935 25.8571L21.2467 28.0909C21.3143 27.8032 21.365 27.397 21.3819 26.9063L32.0983 25.4172C32.3349 25.3833 32.487 25.1633 32.4532 24.9433C32.4194 24.7064 32.2335 24.5541 31.9799 24.588L21.3481 26.0433C21.3143 25.7387 21.2636 25.4341 21.196 25.0956L33.2984 23.5896C33.535 23.5557 33.6871 23.3526 33.6702 23.1157C33.6364 22.8788 33.4505 22.7096 33.1969 22.7434L20.9425 24.2664C20.7903 23.8942 20.5875 23.5219 20.334 23.1496L44.471 20.8651ZM2.60302 19.6298C2.65373 19.6974 2.72133 19.7651 2.80585 19.7821C2.83965 19.799 2.87346 19.799 2.92416 19.799C2.95797 19.799 2.97488 19.7821 3.00868 19.7651L20.3002 28.937C20.3678 28.9708 20.4354 28.9877 20.503 28.9877C20.5199 28.9877 20.5368 28.9877 20.5368 28.9877L22.937 28.7508L20.148 29.14L2.26496 19.579L2.60302 19.6298ZM19.286 23.1665C19.3029 23.1834 19.286 23.2173 19.3029 23.2342C20.8918 25.0618 20.5368 27.3294 20.3678 28.0401L3.41434 19.0375C3.51576 18.5637 3.63408 17.7514 3.61718 16.8207L9.9388 20.3066C10.0064 20.3405 10.074 20.3574 10.1416 20.3574C10.2938 20.3574 10.429 20.2728 10.5135 20.1374C10.6318 19.9344 10.5473 19.6805 10.3445 19.5621L3.63407 15.8561C3.60027 15.8392 3.58337 15.8561 3.54957 15.8392C3.49886 15.45 3.41434 15.0438 3.27912 14.6715L19.286 23.1665ZM3.29603 22.5404L4.68205 23.285C4.63134 23.3696 4.58063 23.4542 4.51302 23.5557C4.47922 23.6065 4.44541 23.6572 4.4285 23.708C4.22567 24.0972 4.00594 24.6049 3.93832 25.1633L3.38054 24.5541C3.04249 23.7757 3.17771 22.9973 3.29603 22.5404ZM10.7501 32.203C10.7332 31.2553 11.0037 30.3584 11.4938 29.7154L12.3221 30.68C11.6967 31.5091 11.5784 32.6091 11.6798 33.5906L10.767 32.5922C10.7839 32.5245 10.8008 32.4399 10.7839 32.3722C10.7839 32.406 10.767 32.3214 10.7501 32.203ZM12.9306 30.1046L9.70216 26.2971L9.24578 25.7218L16.3787 29.5462L13.5391 29.7662C13.4884 29.7662 13.4377 29.7831 13.387 29.8C13.2179 29.8846 13.0827 30.0031 12.9306 30.1046ZM44.9443 32.2368L13.9616 35.5197C13.3869 35.6043 13.1334 35.249 13.0658 35.1305L12.7954 34.8428C12.7785 34.809 11.6967 31.6445 13.6912 30.6292L17.5619 30.3415C17.6126 30.3415 17.6464 30.2907 17.6971 30.2738L18.2042 30.5446L14.0293 30.9338C13.9278 30.9507 13.8433 30.9846 13.7757 31.0522C13.1165 31.7122 12.7954 32.406 12.8461 33.1168C12.9306 34.2844 13.9447 35.029 13.9955 35.0628C14.0631 35.1136 14.1476 35.1474 14.249 35.1474C14.2659 35.1474 14.2828 35.1474 14.2997 35.1474L43.9809 31.8645C44.1161 31.8476 44.2175 31.763 44.2851 31.6614L44.9951 31.7799L44.9443 32.2368ZM14.1138 33.9798C13.9109 33.7429 13.7081 33.4214 13.6912 33.0321C13.6574 32.6768 13.8264 32.3214 14.0969 31.966C14.0631 32.6599 14.08 33.3198 14.1138 33.9798ZM45.1134 27.8539L43.6766 28.1078C43.5583 28.1247 43.4738 28.1924 43.4062 28.277C43.1019 28.717 42.9836 29.14 42.9498 29.5462L33.9069 30.3923C33.6702 30.4092 33.5012 30.6123 33.5181 30.8492C33.535 31.0692 33.7209 31.2384 33.9407 31.2384C33.9576 31.2384 33.9745 31.2384 33.9745 31.2384L43.0174 30.3923C43.085 30.6461 43.2034 30.8661 43.3217 31.0522L14.942 34.1998C14.8913 33.3875 14.8744 32.5414 14.9251 31.6784L19.3874 31.2553C19.4212 31.2553 19.455 31.2215 19.4888 31.2045C19.5395 31.2215 19.6072 31.2553 19.6579 31.2553C19.6748 31.2553 19.6917 31.2553 19.7086 31.2553L45.1472 27.7186L45.1134 27.8539ZM45.874 26.754L19.7255 30.3754L5.5948 22.8111C5.5948 22.8111 5.59479 22.7942 5.57789 22.7942C5.56099 22.7773 5.52719 22.7773 5.49338 22.7604L0.82823 20.2559L0.845136 19.7821L19.8438 29.9354C19.9283 29.9692 20.0128 29.9861 20.0973 29.9861L45.3162 26.4663C47.2769 25.7218 47.5473 23.2173 47.5642 23.048C47.3952 20.7297 45.6543 20.019 44.7077 19.9682L19.6072 22.3711L1.8931 12.9793C1.67336 12.7593 1.69027 12.5901 1.69027 12.5224C1.69027 12.4209 1.74098 12.3194 1.79168 12.2348L19.455 21.7789C19.5226 21.8127 19.5903 21.8296 19.6579 21.8296C19.6748 21.8296 19.6748 21.8296 19.6917 21.8296L44.4373 19.5959C45.2317 19.5621 46.6684 19.6805 47.1079 20.1713C47.1417 20.222 47.2093 20.222 47.26 20.239C47.7671 20.8143 48.139 21.5589 48.2404 22.5742C48.477 25.7725 45.9078 26.7371 45.874 26.754Z" fill="#194A58"/>
<path d="M7.03162 19.7143C6.9133 19.9174 6.99781 20.1712 7.20064 20.2897L18.086 26.2125C18.1536 26.2463 18.2212 26.2632 18.2888 26.2632C18.441 26.2632 18.5762 26.1786 18.6607 26.0433C18.779 25.8402 18.6945 25.5864 18.4917 25.4679L7.60632 19.5451C7.40349 19.4436 7.14994 19.5113 7.03162 19.7143Z" fill="#194A58"/>
<path d="M16.2094 32.8458C16.2263 33.0658 16.4122 33.2181 16.632 33.2181C16.6489 33.2181 16.6658 33.2181 16.6827 33.2181L22.7846 32.5242C23.0212 32.4904 23.1902 32.2873 23.1564 32.0504C23.1395 31.8135 22.9367 31.6443 22.6831 31.6781L16.5812 32.3719C16.3446 32.4058 16.1756 32.6258 16.2094 32.8458Z" fill="#194A58"/>
</svg>
