<svg width="31" height="39" viewBox="0 0 31 39" fill="none" xmlns="http://www.w3.org/2000/svg">
<path d="M7.44542 39.0005C7.41487 39.0005 7.38431 39.0005 7.35375 39.0005C6.86484 38.9543 6.45232 38.6003 6.10092 38.3233C6.00925 38.2464 5.91758 38.1694 5.84119 38.1078C4.38973 37.0613 3.06051 35.5376 2.38825 34.7373L2.02157 34.291C1.18126 33.2906 0.218712 32.167 0.0200919 30.8588C-0.117414 29.9508 0.478446 29.5045 0.967357 29.1505C1.13542 29.0273 1.30348 28.9042 1.44099 28.7657C1.67017 28.5194 1.91462 28.2732 2.15908 28.0269C3.18273 26.965 4.16056 25.9646 4.78697 24.6872C5.04671 24.1639 5.09254 23.5636 5.13838 22.9326C5.15366 22.7325 5.16893 22.5479 5.19949 22.3478C5.32172 21.2704 5.4745 20.0238 5.74952 18.8695L5.87174 18.3462C6.02453 17.669 6.17731 16.9764 6.43705 16.3146C6.544 16.0222 6.69678 15.7452 6.83429 15.4528C6.95651 15.1757 7.09402 14.8987 7.20097 14.6217C7.30792 14.3138 7.38431 13.9906 7.47598 13.6674C7.56765 13.2827 7.65932 12.8979 7.81211 12.5131C7.93434 12.1899 8.08712 11.8667 8.2399 11.5589C8.43852 11.1741 8.62187 10.8048 8.74409 10.4046C8.97327 9.68125 9.04966 8.9271 9.11078 8.14218L9.15661 7.74202C9.21773 7.18796 9.29412 6.34147 9.85942 5.77201C10.0122 5.61811 10.1803 5.49498 10.3331 5.40264C10.8831 5.03326 11.3109 5.1256 11.5706 5.24873C12.304 5.61811 12.5637 6.74163 12.5943 7.35725C12.6401 8.06522 12.5179 8.74241 12.4109 9.38882C12.3498 9.66586 12.304 9.9275 12.2734 10.2045C12.197 10.8202 12.1206 11.4358 12.0595 12.036C11.9678 12.8671 11.8762 13.7136 11.754 14.5447L11.7081 14.7294C11.6317 15.2373 11.5401 15.7914 11.6317 16.2531C11.6623 16.3916 11.754 16.5455 11.8609 16.6994C11.9526 16.8379 12.0442 16.9918 12.1206 17.1303C12.3345 17.6075 12.4568 18.1 12.5943 18.5771L12.6707 18.8695C13.2665 21.0242 13.2512 23.3328 12.6095 25.3644C12.3498 26.1955 12.0595 26.9958 11.4025 27.6422C11.2498 27.7961 11.0053 27.7807 10.8678 27.6422C10.715 27.4883 10.7303 27.242 10.8678 27.1035C11.4025 26.5802 11.647 25.8876 11.8762 25.1489C12.4568 23.2558 12.4873 21.1165 11.922 19.1003L11.8456 18.7771C11.7234 18.3308 11.6012 17.8537 11.4178 17.4382C11.372 17.3304 11.2956 17.2227 11.2345 17.1303C11.097 16.9149 10.9289 16.684 10.8831 16.3916C10.7761 15.8067 10.8831 15.1757 10.9595 14.6063L10.99 14.437C11.1123 13.6059 11.2039 12.7748 11.2956 11.9591C11.3567 11.3434 11.4331 10.7278 11.5095 10.0968C11.5553 9.80437 11.6012 9.52734 11.647 9.25031C11.754 8.61929 11.8609 8.01905 11.8303 7.40342C11.7998 6.83397 11.5553 6.11061 11.2192 5.94131C11.1734 5.92592 11.0359 5.84897 10.7456 6.04904C10.6386 6.11061 10.5011 6.20295 10.3942 6.31069C10.058 6.66467 9.98165 7.21874 9.92054 7.81897L9.8747 8.21913C9.79831 9.00406 9.72192 9.83515 9.47746 10.6355C9.32467 11.0818 9.12606 11.4973 8.92744 11.8975C8.78993 12.1899 8.63714 12.4824 8.5302 12.7902C8.39269 13.1288 8.30102 13.4674 8.22463 13.8521C8.13296 14.1907 8.04128 14.5447 7.91906 14.8833C7.79683 15.2065 7.65932 15.4989 7.49126 15.8067C7.36903 16.0684 7.23153 16.3146 7.12458 16.5917C6.8954 17.2073 6.74262 17.8845 6.58983 18.5309L6.4676 19.0542C6.20787 20.1623 6.05508 21.3782 5.93286 22.4401C5.91758 22.6248 5.9023 22.8095 5.88702 22.9942C5.82591 23.6714 5.78007 24.3794 5.45922 25.0258C4.77169 26.4263 3.71748 27.5191 2.69382 28.5656C2.46465 28.8119 2.22019 29.0427 1.99101 29.289C1.80767 29.4737 1.60905 29.6276 1.42571 29.7661C0.967357 30.1047 0.722901 30.3048 0.784015 30.7357C0.952078 31.8284 1.82295 32.8596 2.60215 33.7831L2.98411 34.2294C3.62581 35.0143 4.9092 36.4764 6.28426 37.4768C6.37593 37.5384 6.48288 37.6307 6.58983 37.7231C6.84956 37.9385 7.17041 38.2002 7.43015 38.231C7.59821 38.2771 7.98017 37.8924 8.17879 37.7077C8.2399 37.6461 8.3163 37.5692 8.36213 37.523C9.08022 36.8612 9.93581 36.1071 10.8984 35.4299L11.3873 35.0913C12.7776 34.1217 14.2138 33.1213 15.7416 32.3363C16.093 32.1516 16.4597 31.9977 16.8264 31.8284C17.5445 31.5206 18.2167 31.2282 18.7973 30.7511C19.4543 30.2124 19.9738 29.4583 20.4627 28.7349C20.646 28.4579 20.8294 28.1809 21.028 27.9192C21.1502 27.7499 21.3947 27.7191 21.5627 27.8423C21.7308 27.9654 21.7613 28.2116 21.6391 28.3809C21.4558 28.6426 21.2724 28.9042 21.0891 29.1659C20.5543 29.9354 20.0196 30.7511 19.271 31.3513C18.614 31.89 17.8501 32.2132 17.1167 32.5364C16.7653 32.6903 16.4139 32.8442 16.0778 33.0135C14.5957 33.7831 13.1748 34.7681 11.8151 35.7069L11.3262 36.0455C10.4094 36.6919 9.56913 37.4307 8.86632 38.0617C8.82049 38.1078 8.75937 38.1694 8.69826 38.2156C8.39269 38.5696 7.94961 39.0005 7.44542 39.0005Z" fill="#204352"/>
<path d="M1.80732 30.9514C1.68509 30.9514 1.56287 30.8898 1.48647 30.7667C1.28785 30.4589 1.08923 30.1049 0.951728 29.674C0.890614 29.4739 0.997563 29.2584 1.19618 29.1815C1.3948 29.1199 1.6087 29.2276 1.68509 29.4277C1.80732 29.7817 1.97538 30.0741 2.14345 30.3512C2.2504 30.5358 2.20456 30.7667 2.02122 30.8898C1.94483 30.936 1.88371 30.9514 1.80732 30.9514Z" fill="#204352"/>
<path d="M2.44899 29.7355C2.31149 29.7355 2.18926 29.6586 2.11287 29.5354L2.00592 29.3354C1.94481 29.2122 1.86841 29.0891 1.8073 28.9506C1.71563 28.7659 1.77674 28.535 1.97536 28.4273C2.1587 28.335 2.38788 28.3965 2.49483 28.5812C2.55594 28.7043 2.61706 28.8275 2.69345 28.9506L2.8004 29.1507C2.90735 29.3354 2.83096 29.5662 2.64761 29.674C2.57122 29.7201 2.51011 29.7355 2.44899 29.7355Z" fill="#204352"/>
<path d="M3.22829 30.828C3.12134 30.828 2.99911 30.7819 2.92272 30.6741C2.80049 30.5048 2.69355 30.3355 2.5866 30.1508C2.49493 29.9661 2.55604 29.7353 2.75466 29.6276C2.938 29.5352 3.16718 29.5968 3.27413 29.7968C3.35052 29.9354 3.42691 30.0739 3.53386 30.2124C3.65609 30.3817 3.64081 30.6279 3.47275 30.7511C3.39635 30.7972 3.31996 30.828 3.22829 30.828Z" fill="#204352"/>
<path d="M3.99216 29.7814C3.88521 29.7814 3.77826 29.7352 3.70187 29.6428C3.35046 29.2119 2.99906 28.7348 2.70877 28.1499C2.6171 27.9652 2.69349 27.7344 2.87683 27.6267C3.07545 27.5343 3.30463 27.6113 3.38102 27.7959C3.64075 28.3192 3.9616 28.7502 4.28245 29.1503C4.41995 29.3196 4.3894 29.5505 4.22133 29.689C4.16022 29.7506 4.08383 29.7814 3.99216 29.7814Z" fill="#204352"/>
<path d="M4.17628 27.7806C4.05405 27.7806 3.9471 27.7344 3.87071 27.6267C3.7332 27.442 3.59569 27.2573 3.47347 27.0572C3.35124 26.8725 3.41235 26.6417 3.58042 26.5185C3.76376 26.4108 3.99293 26.457 4.11516 26.6263C4.23739 26.8109 4.35962 26.9802 4.48185 27.1495C4.60407 27.3188 4.57352 27.5651 4.40545 27.6882C4.32906 27.7498 4.25267 27.7806 4.17628 27.7806Z" fill="#204352"/>
<path d="M5.13858 28.8426C5.01635 28.8426 4.9094 28.7964 4.83301 28.6887C4.75662 28.581 4.68023 28.4886 4.58856 28.3963L4.46633 28.2578C4.32882 28.1039 4.3441 27.8576 4.49689 27.7191C4.64967 27.5806 4.89413 27.596 5.03163 27.7499L5.15386 27.8884C5.26081 27.9961 5.35248 28.1193 5.44415 28.2424C5.56638 28.4117 5.53582 28.6579 5.36776 28.7811C5.30664 28.8118 5.23025 28.8426 5.13858 28.8426Z" fill="#204352"/>
<path d="M6.13131 27.6577C6.03964 27.6577 5.96325 27.627 5.88686 27.5654C5.26044 27.0575 4.75625 26.3495 4.4354 25.857C4.31318 25.6723 4.35901 25.4415 4.54235 25.3184C4.71042 25.1952 4.95487 25.2414 5.0771 25.4261C5.36739 25.8724 5.82574 26.5188 6.37577 26.9652C6.54383 27.1037 6.55911 27.3345 6.43688 27.5038C6.36049 27.6116 6.25354 27.6577 6.13131 27.6577Z" fill="#204352"/>
<path d="M6.04019 25.1796C5.94852 25.1796 5.85685 25.1489 5.78046 25.0873C5.59712 24.918 5.44433 24.7179 5.29155 24.5332L5.19988 24.4101C5.06237 24.2408 5.09293 23.9946 5.26099 23.8714C5.42906 23.7483 5.67351 23.7637 5.79574 23.933L5.88741 24.0561C6.00964 24.21 6.13186 24.3793 6.28465 24.5178C6.43743 24.6564 6.45271 24.9026 6.31521 25.0565C6.25409 25.1335 6.14714 25.1796 6.04019 25.1796Z" fill="#204352"/>
<path d="M7.2472 26.2264C7.15553 26.2264 7.06386 26.1956 7.00274 26.1341C6.8194 25.9802 6.66662 25.7955 6.49856 25.6108C6.36105 25.4569 6.37633 25.2106 6.52911 25.0721C6.6819 24.9336 6.92635 24.949 7.06386 25.1029C7.20136 25.2568 7.33887 25.4107 7.49166 25.5492C7.64444 25.6877 7.675 25.934 7.52221 26.0879C7.4611 26.1803 7.35415 26.2264 7.2472 26.2264Z" fill="#204352"/>
<path d="M7.43041 24.3331C7.33874 24.3331 7.24707 24.3023 7.17068 24.2254C7.00261 24.0715 6.86511 23.9022 6.7276 23.7175C6.63593 23.6097 6.55954 23.502 6.46787 23.3943L6.39147 23.3173C6.05535 22.9479 5.70394 22.5786 5.50532 22.0707C5.42893 21.8706 5.5206 21.6551 5.71922 21.5628C5.90256 21.4858 6.13174 21.5782 6.22341 21.7782C6.3762 22.1476 6.66649 22.4554 6.95678 22.7786L7.03317 22.8556C7.14012 22.9787 7.24707 23.1018 7.33874 23.225C7.44569 23.3635 7.56792 23.5174 7.69014 23.6405C7.84293 23.779 7.85821 24.0253 7.7207 24.1792C7.64431 24.2869 7.53736 24.3331 7.43041 24.3331Z" fill="#204352"/>
<path d="M6.86539 21.3939C6.74317 21.3939 6.62094 21.3323 6.54455 21.2246L6.25426 20.7783C6.08619 20.532 5.93341 20.2858 5.76535 20.0395C5.64312 19.8702 5.68895 19.624 5.85702 19.5008C6.02508 19.3777 6.26953 19.4239 6.39176 19.5932C6.55982 19.8394 6.72789 20.0857 6.89595 20.3473L7.18624 20.7937C7.30847 20.963 7.26263 21.2092 7.07929 21.3323C7.01818 21.3785 6.94179 21.3939 6.86539 21.3939Z" fill="#204352"/>
<path d="M8.13275 22.6248C8.0258 22.6248 7.91885 22.5787 7.84246 22.4863C7.75078 22.3632 7.65911 22.2401 7.56744 22.1169C7.50633 22.0246 7.42994 21.9322 7.36882 21.8399C7.23132 21.6706 7.26187 21.4243 7.42994 21.3012C7.598 21.1627 7.84246 21.1935 7.96468 21.3628C8.04108 21.4551 8.11747 21.5629 8.17858 21.6552C8.25497 21.7629 8.34664 21.8861 8.43832 21.9938C8.57582 22.1631 8.54526 22.394 8.3772 22.5325C8.30081 22.594 8.22442 22.6248 8.13275 22.6248Z" fill="#204352"/>
<path d="M8.36242 20.4242C8.25547 20.4242 8.14852 20.378 8.07213 20.2857C7.50683 19.5931 6.92624 18.839 6.42206 18.0387C6.31511 17.854 6.36094 17.6231 6.54428 17.5154C6.72763 17.4076 6.9568 17.4538 7.06375 17.6385C7.53738 18.408 8.11796 19.1314 8.65271 19.8086C8.79022 19.9779 8.75966 20.2087 8.5916 20.3473C8.53048 20.3934 8.43881 20.4242 8.36242 20.4242Z" fill="#204352"/>
<path d="M7.62921 17.0533C7.50698 17.0533 7.38475 16.9917 7.30836 16.884C7.20141 16.7147 7.07918 16.5762 6.95696 16.4223L6.81945 16.253C6.69722 16.0837 6.7125 15.8374 6.88056 15.7143C7.04863 15.5758 7.29308 15.6066 7.41531 15.7759L7.53754 15.9298C7.67504 16.0991 7.81255 16.2684 7.93478 16.4531C8.057 16.6377 7.99589 16.8686 7.82783 16.9917C7.76671 17.0379 7.7056 17.0533 7.62921 17.0533Z" fill="#204352"/>
<path d="M8.97383 18.408C8.86688 18.408 8.75993 18.3619 8.68353 18.2849L8.27102 17.8232C8.13351 17.6693 8.14879 17.423 8.30157 17.2845C8.45436 17.146 8.69881 17.1614 8.83632 17.3153L9.23356 17.7616C9.37107 17.9155 9.35579 18.1618 9.203 18.3003C9.15717 18.3773 9.0655 18.408 8.97383 18.408Z" fill="#204352"/>
<path d="M9.17221 16.1762C9.06526 16.1762 8.97359 16.13 8.8972 16.0531L8.40829 15.5144C8.13328 15.2374 7.87354 14.9603 7.62909 14.6833C7.47631 14.514 7.49158 14.2678 7.65965 14.1293C7.81243 13.9907 8.05689 14.0061 8.19439 14.16C8.43885 14.4371 8.69858 14.7141 8.94304 14.9911L9.44723 15.5298C9.58473 15.6837 9.58473 15.93 9.41667 16.0685C9.35556 16.1454 9.26388 16.1762 9.17221 16.1762Z" fill="#204352"/>
<path d="M8.86601 13.4981C8.75906 13.4981 8.65211 13.452 8.57572 13.3596C8.40765 13.1442 8.23959 12.9441 8.08681 12.7132C7.97986 12.5285 8.04097 12.2823 8.22431 12.1745C8.40765 12.0668 8.63683 12.113 8.74378 12.2977C8.86601 12.5131 9.01879 12.6978 9.1563 12.8825C9.2938 13.0518 9.26325 13.2827 9.09518 13.4212C9.03407 13.4674 8.95768 13.4981 8.86601 13.4981Z" fill="#204352"/>
<path d="M9.96637 14.3754C9.85942 14.3754 9.76775 14.3292 9.69136 14.2523C9.63025 14.1907 9.55385 14.1292 9.49274 14.0522L9.41635 13.9907C9.26356 13.8367 9.26356 13.6059 9.41635 13.452C9.56913 13.2981 9.79831 13.2981 9.95109 13.452L10.0275 13.5289C10.1039 13.6059 10.1803 13.6828 10.2567 13.7598C10.3942 13.8829 10.3942 14.1292 10.2414 14.2677C10.165 14.3446 10.0733 14.3754 9.96637 14.3754Z" fill="#204352"/>
<path d="M10.2871 12.39C10.1802 12.39 10.0732 12.3439 9.99682 12.2515C9.81348 12.036 9.63014 11.836 9.4468 11.6359C9.29401 11.4512 9.12595 11.2819 8.97316 11.0972C8.83566 10.9279 8.85094 10.6817 9.00372 10.5431C9.17178 10.42 9.41624 10.4354 9.55375 10.5893C9.70653 10.774 9.85932 10.9433 10.0121 11.1126C10.2107 11.3281 10.3941 11.5435 10.5774 11.759C10.7149 11.9283 10.6996 12.1592 10.5316 12.2977C10.4705 12.3592 10.3788 12.39 10.2871 12.39Z" fill="#204352"/>
<path d="M10.1956 9.72769C10.0886 9.72769 9.98168 9.68152 9.90529 9.58918C9.81362 9.48144 9.70667 9.3891 9.615 9.28136C9.53861 9.20441 9.46221 9.12746 9.4011 9.0505C9.26359 8.8966 9.26359 8.65035 9.41638 8.51183C9.56916 8.37331 9.81362 8.37331 9.95112 8.52722L10.1497 8.74269C10.272 8.86581 10.3789 8.97355 10.4859 9.11207C10.6234 9.26597 10.6081 9.51222 10.44 9.65074C10.3789 9.7123 10.2873 9.72769 10.1956 9.72769Z" fill="#204352"/>
<path d="M10.8069 8.41925C10.7152 8.41925 10.6235 8.38847 10.5471 8.32691C10.2874 8.09605 10.0888 7.81901 9.89014 7.55737C9.81375 7.46503 9.73736 7.35729 9.67624 7.26495C9.52346 7.09565 9.55402 6.8494 9.72208 6.72628C9.89014 6.58776 10.1193 6.61854 10.2568 6.77245C10.3332 6.86479 10.4096 6.97253 10.5013 7.08026C10.6693 7.32651 10.8527 7.57276 11.0513 7.75745C11.2041 7.89597 11.2194 8.14222 11.0819 8.29613C11.0055 8.37308 10.8985 8.41925 10.8069 8.41925Z" fill="#204352"/>
<path d="M11.0969 6.88015C11.0053 6.88015 10.9136 6.84937 10.8372 6.78781C10.6233 6.58773 10.4247 6.38765 10.2413 6.15679C10.1191 5.98749 10.1497 5.74124 10.3177 5.61812C10.4858 5.4796 10.715 5.51038 10.8525 5.67968C11.0053 5.86437 11.158 6.04906 11.3414 6.20296C11.4942 6.34148 11.5095 6.58773 11.3719 6.74164C11.3108 6.83398 11.2039 6.88015 11.0969 6.88015Z" fill="#204352"/>
<path d="M26.0089 19.2853C25.7491 19.2853 25.4894 19.2545 25.2602 19.1775C24.863 19.039 24.5727 18.762 24.4199 18.3772C24.1602 17.7462 24.3435 16.992 24.5727 16.5303C24.9546 15.7762 25.688 15.2067 26.7575 14.8373C26.9561 14.7758 27.17 14.8681 27.2464 15.0682C27.3075 15.2683 27.2159 15.4838 27.0172 15.5607C26.1464 15.8685 25.5505 16.3149 25.2602 16.8843C25.0616 17.2845 25.0005 17.777 25.138 18.1002C25.2144 18.2849 25.3366 18.3926 25.5199 18.4695C25.9477 18.6235 26.6353 18.5157 27.1395 18.331C28.1326 17.9924 29.0645 16.9305 29.2173 15.9609C29.2784 15.5299 29.1104 15.0374 28.759 14.6527C28.4381 14.2987 28.0256 14.114 27.6284 14.1448C27.4145 14.1448 27.2311 14.0063 27.2159 13.7908C27.2006 13.5445 27.3534 13.3598 27.5673 13.3445C28.1784 13.2983 28.8354 13.5753 29.3243 14.0986C29.8438 14.6681 30.0882 15.3914 29.9813 16.0532C29.7826 17.2845 28.652 18.5927 27.3992 19.0236C26.9867 19.1775 26.4825 19.2853 26.0089 19.2853Z" fill="#204352"/>
<path d="M27.3225 12.4364C27.2002 12.4364 27.0627 12.3749 27.0016 12.2517C26.8947 12.0671 26.9558 11.8362 27.1238 11.7285C27.353 11.5899 27.5822 11.4514 27.8114 11.3283C28.7434 10.805 29.5531 10.3433 30.0726 9.29673C30.3018 8.81962 30.3018 8.26556 30.0573 7.89618C29.8587 7.60376 29.5378 7.46524 29.1253 7.51142C28.6975 7.5422 28.2086 7.8654 27.7808 8.15782C27.6433 8.25017 27.5211 8.32712 27.3988 8.40407C27.2155 8.51181 26.9863 8.45025 26.8794 8.26556C26.7724 8.08087 26.8335 7.85001 27.0016 7.74228C27.1086 7.68071 27.2308 7.58837 27.353 7.51142C27.8572 7.17282 28.4378 6.80344 29.0489 6.74188C29.7365 6.68032 30.3323 6.94196 30.6837 7.46524C31.081 8.06548 31.1115 8.91197 30.7601 9.63533C30.1337 10.882 29.1864 11.4206 28.1933 11.9901C27.9794 12.1132 27.7503 12.2364 27.5211 12.3749C27.46 12.421 27.3988 12.4364 27.3225 12.4364Z" fill="#204352"/>
<path d="M26.0856 22.4866C25.9023 22.4866 25.7189 22.4712 25.5356 22.4404C24.955 22.3634 24.5272 22.0556 24.3286 21.5939C24.0994 21.0552 24.2216 20.3626 24.6494 19.7624C24.955 19.3469 25.3828 19.0852 25.8412 18.839C26.0245 18.7466 26.2537 18.8082 26.3606 18.9929C26.4523 19.1776 26.3912 19.4084 26.2078 19.5162C25.8259 19.7162 25.4745 19.9317 25.2758 20.2087C25.0161 20.5781 24.9244 20.9937 25.0467 21.2861C25.1383 21.5016 25.337 21.6247 25.6578 21.6709C26.819 21.8248 27.7815 21.3784 28.6066 20.2549C29.3858 19.193 28.9427 18.7312 28.7746 18.5619C28.6218 18.408 28.6218 18.1618 28.7746 18.0233C28.9274 17.8694 29.1719 17.8694 29.3094 18.0233C29.7219 18.4388 30.2414 19.3315 29.2177 20.7166C28.3468 21.9017 27.3079 22.4866 26.0856 22.4866Z" fill="#204352"/>
<path d="M26.9408 25.0107C26.4672 25.0107 25.9936 24.9337 25.6574 24.8106C25.2602 24.6567 24.9852 24.3951 24.8782 24.0411C24.7713 23.7025 24.8477 23.3331 25.0921 22.9945C25.1991 22.8406 25.3213 22.7021 25.4741 22.5636C25.6727 22.3789 25.9019 22.2096 26.1463 22.0557C26.3297 21.9479 26.5589 22.0095 26.6658 22.1942C26.7728 22.3789 26.7116 22.6097 26.5283 22.7175C26.3144 22.8406 26.1463 22.9637 25.9936 23.1176C25.8866 23.2254 25.7949 23.3331 25.7185 23.4408C25.6116 23.5794 25.581 23.7179 25.6116 23.8256C25.6422 23.9333 25.7491 24.0257 25.9324 24.0873C26.4366 24.2719 27.3992 24.3181 27.9034 24.0719C28.4992 23.7948 29.2173 22.933 29.1562 22.4251C29.1562 22.3481 29.1256 22.1172 28.5909 21.9787C28.3923 21.9326 28.2548 21.7171 28.3159 21.517C28.3617 21.3169 28.5756 21.1784 28.7742 21.24C29.6909 21.4708 29.8896 22.0249 29.9201 22.3481C30.0118 23.3023 29.0034 24.4105 28.2242 24.7798C27.8728 24.9491 27.3992 25.0107 26.9408 25.0107Z" fill="#204352"/>
<path fill-rule="evenodd" clip-rule="evenodd" d="M26.2537 25.5185C26.1621 26.365 25.444 26.996 24.6037 26.9806L14.7338 26.8267C13.8935 26.8113 13.2059 26.1649 13.1295 25.3184V25.2876C13.5115 24.3642 13.6337 23.1022 13.6337 21.9017C13.6032 20.2857 13.374 18.7928 13.3282 18.4696L13.6032 2.83262C13.6032 2.44785 13.756 2.07847 14.0462 1.81683C14.3213 1.5398 14.6879 1.40128 15.0699 1.40128C17.7284 1.47824 22.2355 1.58597 24.894 1.66292C25.6884 1.67832 26.3148 2.34012 26.2996 3.14043L26.0246 14.5911L24.5578 15.9455C24.5425 15.9609 24.5273 15.9763 24.4967 16.007C23.6411 17.0074 23.7481 18.0386 24.0689 18.8235C24.1759 19.0698 24.2981 19.3007 24.4203 19.4853C23.8092 20.1933 23.6564 20.7782 23.687 21.2091C23.7328 21.8247 24.1148 22.2864 24.6189 22.5789C24.6648 22.6097 24.6953 22.625 24.7412 22.6558C24.4203 23.1483 24.3898 23.5793 24.4662 23.9333C24.5731 24.4719 25.0162 24.9183 25.5509 25.2107C25.7954 25.3492 26.0398 25.4415 26.2537 25.5185ZM27.7052 25.0876V25.0722C27.7357 24.7028 27.4913 24.3796 27.1399 24.318C27.1399 24.318 26.651 24.2257 26.2232 23.9948C26.1315 23.9486 26.0398 23.8871 25.9634 23.8255C25.9176 23.7793 25.8565 23.7332 25.8412 23.6716C25.8259 23.5947 25.8718 23.5177 25.9482 23.4254C26.0551 23.2715 26.2232 23.1022 26.4371 22.9175C26.651 22.7328 26.7426 22.4557 26.6663 22.1941C26.5899 21.9325 26.376 21.7324 26.1009 21.6862C26.1009 21.6862 25.6884 21.6246 25.337 21.4246C25.2301 21.363 25.1079 21.3014 25.0926 21.1629C25.0926 21.0706 25.1231 20.9782 25.1995 20.8551C25.3217 20.6396 25.5356 20.3934 25.8412 20.101C25.9787 19.9778 26.0704 19.7932 26.0704 19.5931C26.0704 19.4084 25.994 19.2237 25.8718 19.0852C25.8718 19.0852 25.5662 18.7774 25.3829 18.331C25.2301 17.9617 25.169 17.4692 25.5509 17.0074L27.201 15.4838C27.3385 15.3606 27.4302 15.1759 27.4302 14.9759C27.4302 14.9759 27.6288 7.12662 27.7205 3.21738C27.7663 1.64753 26.5287 0.339326 24.9703 0.293154C22.2813 0.200809 17.7742 0.0776839 15.1005 0.000730442C14.3518 -0.0146602 13.6184 0.262372 13.0684 0.785656C12.5337 1.32433 12.2128 2.04769 12.1975 2.80184L11.9225 18.5157C11.9225 18.5619 11.9225 18.6081 11.9378 18.6542C11.9378 18.6542 12.2128 20.2087 12.2128 21.9017C12.2128 22.9636 12.1364 24.0872 11.7698 24.8721L12.3962 25.8725L11.6934 25.2261C11.6934 25.2261 11.7086 25.3184 11.7086 25.4415C11.8461 26.996 13.1295 28.2119 14.6879 28.2273C17.3464 28.2734 21.8994 28.335 24.5578 28.3812C26.1162 28.4119 27.4455 27.2269 27.6135 25.6724C27.6746 25.3492 27.7052 25.0876 27.7052 25.0876Z" fill="#204352"/>
<path fill-rule="evenodd" clip-rule="evenodd" d="M19.9583 9.41954C20.3709 8.75774 21.2265 7.86508 22.7849 8.11133C22.8918 8.12672 22.9835 8.18829 23.0446 8.26524C23.1057 8.35758 23.121 8.46532 23.1057 8.55766C23.1057 8.55766 22.9682 9.28102 22.2348 9.86587C21.8223 10.1891 21.2265 10.4815 20.3403 10.5431C20.4014 10.8201 20.4473 11.0971 20.4625 11.3742C21.257 11.2203 22.5557 11.1587 23.396 12.1437C23.396 12.1437 25.1683 14.5908 23.0599 17.5612C23.0599 17.5612 22.571 18.6232 21.0431 18.6693C20.8903 18.6693 20.7528 18.6386 20.6153 18.5616C20.432 18.4539 20.0959 18.4539 19.5917 18.5616C19.5917 18.5616 17.5902 19.1618 16.3374 17.1303C16.3374 17.1303 13.9997 13.5135 16.811 11.4203C16.811 11.4203 18.1097 10.7431 19.6986 11.5127C19.6833 10.7585 19.4236 10.0352 19.1028 9.35798C19.0111 9.17329 19.0875 8.94243 19.2861 8.85009C19.4694 8.75774 19.6986 8.83469 19.7903 9.03477C19.8514 9.17329 19.9125 9.29642 19.9583 9.41954ZM26.7114 14.9294C26.7114 14.9294 26.91 7.08016 27.0017 3.17092C27.0323 1.98584 26.1003 1.00084 24.9238 0.970054C22.2654 0.893101 17.7582 0.785366 15.0998 0.708413C14.5345 0.693022 13.9845 0.908492 13.572 1.30865C13.1442 1.69342 12.8997 2.24748 12.8997 2.81694C12.808 7.57266 12.6247 18.5308 12.6247 18.5308C12.6247 18.5308 13.4039 23.0095 12.3955 25.1796C12.3955 25.1796 12.3955 25.2566 12.4108 25.3951C12.5177 26.5955 13.5108 27.519 14.7026 27.5498C17.361 27.5959 21.914 27.6575 24.5724 27.7037C25.7794 27.7191 26.8031 26.811 26.9253 25.6105C26.9712 25.2719 26.9864 25.0257 26.9864 25.0257C26.9864 25.0257 23.5793 24.3793 25.9628 22.3785C25.9628 22.3785 22.8307 21.9014 25.3364 19.5774C25.3364 19.5774 23.7474 17.9768 25.0002 16.4993L26.7114 14.9294Z" fill="#204352"/>
</svg>
