<svg width="43" height="45" viewBox="0 0 43 45" fill="none" xmlns="http://www.w3.org/2000/svg">
<path fill-rule="evenodd" clip-rule="evenodd" d="M31.8428 27.5287C31.9445 27.5287 32.0462 27.4842 32.1188 27.3953C32.3077 27.1731 32.5257 26.9656 32.7727 26.773C33.0197 26.8767 33.2522 26.9656 33.4993 27.0545L33.6736 27.1286C33.7172 27.1434 33.7608 27.1583 33.8044 27.1583C33.9497 27.1583 34.095 27.0693 34.1386 26.9212C34.2113 26.7285 34.1096 26.5211 33.9207 26.447L33.7318 26.3729C33.6736 26.3581 33.6155 26.3285 33.5719 26.3136C33.8771 26.1803 34.1967 26.0914 34.5019 26.121C34.6908 26.1358 34.8797 26.0025 34.9087 25.795C34.9378 25.5876 34.7925 25.4097 34.5891 25.3801C33.8771 25.2912 33.1651 25.5876 32.5693 25.9876C32.4966 26.0025 32.4385 26.0617 32.3804 26.121C32.0607 26.3581 31.7701 26.6396 31.5521 26.9064C31.4214 27.0693 31.4359 27.2916 31.5957 27.425C31.6684 27.4991 31.7556 27.5287 31.8428 27.5287Z" fill="#064258"/>
<path fill-rule="evenodd" clip-rule="evenodd" d="M16.8465 40.2421C16.6866 40.1829 16.5413 40.1088 16.396 40.0199C16.2216 39.9161 16.0037 39.9754 15.902 40.168C15.8002 40.3459 15.8729 40.5681 16.0473 40.6719C16.2216 40.7756 16.4105 40.8645 16.5994 40.9386C16.643 40.9534 16.6866 40.9682 16.7302 40.9682C16.8755 40.9682 17.0063 40.8793 17.0644 40.7311C17.1371 40.5237 17.0354 40.3162 16.8465 40.2421Z" fill="#064258"/>
<path fill-rule="evenodd" clip-rule="evenodd" d="M17.6755 37.3531C17.3413 37.2494 17.0216 37.1605 16.6874 37.0271C16.4985 36.953 16.2951 37.0419 16.2079 37.2346C16.1352 37.4272 16.2224 37.6346 16.4113 37.7235C16.7746 37.8717 17.1378 37.9903 17.472 38.0792C17.5011 38.094 17.5447 38.094 17.5738 38.094C17.7336 38.094 17.8789 37.9903 17.9225 37.8273C17.9806 37.605 17.8644 37.3975 17.6755 37.3531Z" fill="#064258"/>
<path fill-rule="evenodd" clip-rule="evenodd" d="M42.3482 26.6693C42.3337 26.6545 42.3046 26.6693 42.2756 26.6545C42.3773 26.3729 42.3918 26.0618 42.261 25.7802C42.1739 25.6024 42.0431 25.469 41.8832 25.3801C41.985 25.0541 42.0431 24.6392 41.8832 24.3281C41.767 24.1058 41.52 23.9576 41.2729 23.9873C40.8661 24.0021 40.5173 24.254 40.2558 24.4614L40.1395 24.5503C40.0378 24.6244 39.9361 24.6985 39.8489 24.7726C39.878 24.6541 39.8925 24.5355 39.8925 24.417C39.8925 24.3725 39.878 23.4242 39.413 23.0982C39.2532 22.9796 39.0497 22.95 38.8463 23.0093C38.5702 23.0982 38.454 23.3649 38.3668 23.5724C38.236 23.8687 38.1198 24.1799 38.0035 24.4911L37.9454 24.6392C37.8292 24.9356 37.6693 25.232 37.495 25.558C37.1898 26.1359 36.8411 26.7878 36.7829 27.4843C36.7248 27.4546 36.6667 27.425 36.594 27.425C36.3906 27.425 36.1727 27.5584 35.3299 28.2696C35.6931 27.8547 35.9692 27.3509 36.1436 26.8619C36.3034 26.4174 36.3616 26.0025 36.347 25.5728C36.318 24.8319 36.0273 24.254 35.5478 23.8835C36.3325 23.5724 36.9573 23.0537 37.3932 22.2832C38.7882 19.8382 37.8873 15.867 37.7129 15.1558C39.0933 10.177 37.2625 7.34675 37.1898 7.24303C35.1264 3.86454 32.3656 3.56819 31.5664 3.55337C30.0552 1.41959 27.5123 0.545334 27.3961 0.515698C23.0659 -0.862367 20.4649 0.886145 19.6803 1.53813C16.2655 -0.980911 12.6329 0.871327 12.6038 0.886145C9.36344 2.41239 9.45063 5.53897 9.625 6.75404C9.61047 6.75404 9.59594 6.75404 9.58141 6.75404C7.80866 6.75404 6.70432 7.98392 6.67526 8.01356C4.32128 10.3844 5.71623 13.5703 6.19574 14.4742C5.135 15.8226 5.46921 17.2599 5.48374 17.2896C5.78888 19.8679 7.63429 20.8607 8.40442 21.157C8.34629 21.3497 8.20099 21.5719 8.08474 21.7646C7.99756 21.8979 7.9249 22.0165 7.88131 22.1202C7.50351 22.8611 7.11118 23.7353 7.06759 24.6985C7.024 25.5431 7.1693 26.3581 7.43086 27.1138C7.18383 26.9212 6.92228 26.7582 6.6462 26.6248C6.6462 26.5952 6.66073 26.5656 6.6462 26.5359C6.23934 25.4839 5.23672 24.6244 4.21956 24.4318C3.89989 24.3725 3.2896 24.2836 2.86821 24.6837C2.83914 24.6689 2.82461 24.6689 2.79555 24.6541C2.43228 24.5652 2.06901 24.5355 1.7784 24.5207C0.964678 24.5207 0.0783035 25.069 0.00564979 25.958C-0.0379424 26.4322 0.180019 26.8916 0.339857 27.1879C0.775779 28.0029 1.63309 28.6697 2.63571 28.9809L2.73743 29.0105C2.99898 29.0846 3.27507 29.1735 3.58021 29.1735C3.59474 29.1735 3.59474 29.1735 3.60927 29.1735C3.60927 29.218 3.60927 29.2624 3.60927 29.3069C3.55115 29.4254 3.53662 29.544 3.60927 29.6477C3.63833 29.6921 3.68193 29.7366 3.71099 29.7811C3.71099 29.7811 3.71099 29.7811 3.71099 29.7959C4.13238 30.4182 4.71361 30.9813 5.30937 31.5296C6.9804 33.0854 8.91299 34.3153 10.7875 35.5156L11.2234 35.7971C11.5576 36.0046 11.8918 36.1972 12.2405 36.4047C12.7927 36.7158 13.3594 37.027 13.8389 37.4123C13.868 37.4271 13.897 37.4271 13.9116 37.4419C13.9116 37.7975 13.897 38.168 13.897 38.5236V38.9682C13.897 39.0571 13.897 39.146 13.8825 39.2497C13.8534 39.6646 13.8244 40.1684 14.0569 40.5389C14.7689 41.6206 15.6988 42.0058 16.6869 42.4059C16.9485 42.5096 17.21 42.6134 17.4716 42.7467C17.6024 42.806 17.7477 42.8801 17.8785 42.9542C18.1691 43.1023 18.4597 43.2653 18.7794 43.3543C19.0409 43.4283 19.3025 43.4728 19.564 43.5173C19.7384 43.5469 19.8982 43.5617 20.0726 43.6062C21.1188 43.8432 22.3685 44.0359 23.6326 44.0359C25.0131 44.0359 26.408 43.8136 27.5995 43.1616C28.2679 42.806 28.9218 42.1836 29.7065 41.2205C30.1133 40.7167 30.0262 39.9758 29.9535 39.3831C29.939 39.2349 29.9244 39.1015 29.9099 38.983C29.8808 38.4792 29.8663 37.9457 29.8518 37.4271C29.9244 37.5012 30.0116 37.5605 30.0988 37.5605C30.1424 37.5605 30.186 37.5456 30.2296 37.5308C32.6853 36.5084 36.0128 34.7154 37.9163 32.0186C38.3668 31.3814 38.4685 30.922 38.4104 30.5071C38.5121 30.5219 38.5993 30.5516 38.701 30.5516C39.7763 30.5516 40.9533 29.7811 41.5054 28.9068C41.52 28.892 41.5054 28.8772 41.52 28.8623C42.0285 28.6549 42.5516 28.2696 42.697 27.7806C42.8423 27.5287 42.8713 27.0842 42.3482 26.6693ZM41.6072 26.1062C41.6507 26.2099 41.6507 26.3433 41.6072 26.447C41.5636 26.5359 41.4764 26.6397 41.3747 26.7286C41.055 27.0694 40.4592 27.3954 40.1395 27.3509C40.0669 27.3361 39.9797 27.3065 39.9071 27.1583C39.8925 27.1435 39.878 27.1287 39.8635 27.1138C39.878 27.0842 39.878 27.0397 39.8925 26.9953C39.9071 26.9953 39.9071 26.9953 39.9071 26.9953C39.9797 26.9953 40.0378 26.9805 40.096 26.936C40.2413 26.8471 40.4011 26.7582 40.5755 26.6841C40.8951 26.5211 41.2584 26.3433 41.5345 26.0321C41.549 26.0618 41.5926 26.0618 41.6072 26.1062ZM40.1541 25.469C40.2849 25.3653 40.4156 25.2616 40.5609 25.1727L40.6917 25.069C40.8806 24.9208 41.1131 24.743 41.2439 24.6985C41.302 24.8171 41.1858 25.2468 41.1131 25.3801C40.9242 25.6765 40.59 25.8395 40.2267 26.0173C40.096 26.0766 39.9797 26.1507 39.8489 26.2248C39.8344 26.1507 39.8489 26.0914 39.8199 26.0173C39.7908 25.9284 39.7472 25.8395 39.7036 25.7506C39.7472 25.7358 39.7908 25.7506 39.8199 25.721L40.1541 25.469ZM31.61 28.9068L31.7553 28.9809C32.075 29.1439 32.3947 29.3069 32.8161 29.3513C33.4845 29.4402 34.0802 29.2476 34.5888 28.9216C34.3418 29.1439 34.0948 29.3513 34.0221 29.3958C32.5545 30.2997 30.9416 31.2184 29.0671 31.9297C29.6484 31.4703 30.2296 30.9369 30.7091 30.3145C30.8689 30.107 30.9997 29.8403 31.1305 29.5736C31.2613 29.3069 31.392 29.0253 31.5373 28.8623C31.5519 28.8772 31.5809 28.892 31.61 28.9068ZM8.50613 22.461C8.54972 22.3721 8.62238 22.2684 8.6805 22.1647C8.8694 21.8683 9.08736 21.4978 9.13095 21.1274C9.17455 21.0533 9.20361 20.9792 9.20361 20.8903C9.18908 20.6236 9.04377 20.3865 8.91299 20.1494C8.85487 20.0309 8.78222 19.9272 8.75315 19.8382C8.57878 19.3196 8.47707 18.7121 8.43348 17.9564C8.37535 16.7117 8.4916 15.3484 8.76768 14.1185C9.47969 10.9475 13.3449 8.81372 14.0278 8.71C13.9842 11.392 15.1031 12.8442 17.4861 13.2739C20.4068 14.1334 23.2112 12.5478 24.2865 11.8218C24.9259 13.5555 27.5123 14 28.7329 14.1185C28.5731 14.4593 28.5295 14.8298 28.5876 15.2002C28.762 16.3264 29.8518 17.2599 30.3894 17.66C30.1279 18.2379 30.0843 18.801 30.2586 19.3493C30.5929 20.3865 31.6391 21.0533 32.1331 21.32C32.104 21.5868 32.104 21.8238 32.1331 22.0461L32.1186 24.4022C32.0605 24.4614 31.9878 24.5059 31.9297 24.58C31.7989 24.743 31.828 24.9652 31.9878 25.0986C32.1476 25.232 32.3801 25.2023 32.4964 25.0393C33.034 24.3577 34.0366 24.0169 34.7777 24.2688C35.3153 24.4466 35.6205 24.906 35.6495 25.6024C35.6641 25.9284 35.606 26.2544 35.4897 26.5952C35.0974 27.7065 34.0948 28.729 32.9032 28.6104C32.6126 28.5808 32.3801 28.4474 32.0895 28.2993L31.9297 28.2104C31.7553 28.1215 31.4502 27.9585 31.2031 28.1511C30.8835 28.3882 30.68 28.8179 30.4766 29.2328C30.3604 29.4699 30.2586 29.707 30.1424 29.8403C29.4449 30.7442 28.5004 31.4703 27.6722 32.0482C26.3935 32.9521 25.0276 33.2781 23.4873 33.5893L22.9352 33.7078C22.1069 33.8856 21.3368 34.0486 20.5231 34.0782C18.4452 34.1523 16.1929 33.6189 13.8244 32.4927C10.802 31.0554 7.61976 28.2548 7.79413 24.7133C7.80866 23.9132 8.17192 23.1278 8.50613 22.461ZM22.63 34.5524C22.4556 34.8488 22.165 35.0562 21.7727 35.1451C21.3513 35.234 20.8137 35.16 20.4213 34.8488C20.4649 34.8488 20.494 34.8488 20.5376 34.8488C21.2641 34.8191 21.9471 34.6858 22.63 34.5524ZM2.92633 28.2993L2.81008 28.2696C1.98183 28.0177 1.28435 27.4843 0.950148 26.8471C0.877494 26.6989 0.80484 26.5211 0.746717 26.3285C1.50232 26.6989 2.06901 27.0694 2.51947 27.4843C2.59212 27.5436 2.67931 27.588 2.76649 27.588C2.86821 27.588 2.95539 27.5436 3.02804 27.4695C3.15882 27.3213 3.15882 27.0842 3.01351 26.9508C2.35963 26.3433 1.60403 25.9284 0.950148 25.6172C1.00827 25.558 1.06639 25.5135 1.13905 25.469C1.98183 25.8247 2.65024 26.2396 3.04257 26.6545C3.11523 26.7286 3.20241 26.773 3.30413 26.773C3.39131 26.773 3.49303 26.7434 3.55115 26.6693C3.69646 26.5211 3.69646 26.2988 3.55115 26.1507C3.31866 25.9136 3.04257 25.6913 2.69384 25.469C3.01351 25.5728 3.30413 25.7358 3.60927 25.9284C3.74005 26.0025 3.8563 26.0914 3.98707 26.1655C4.16144 26.2692 4.3794 26.2099 4.48112 26.0173C4.58283 25.8395 4.51018 25.6172 4.33581 25.5135C4.21956 25.4394 4.08879 25.3653 3.97254 25.2912C3.89989 25.2468 3.82723 25.2023 3.75458 25.1579C3.84176 25.1727 3.92895 25.1727 4.03066 25.2023C4.67002 25.3209 5.29484 25.8099 5.68717 26.4322C5.33843 26.4322 4.97516 26.5211 4.62642 26.8175C4.40846 26.9953 4.21956 27.1879 4.08879 27.3657C3.87083 27.6621 3.75458 28.0029 3.68193 28.2993C3.6674 28.3585 3.6674 28.403 3.65286 28.4623C3.4349 28.4623 3.18788 28.3734 2.92633 28.2993ZM37.3932 31.5592C35.5042 34.2412 31.9733 36.0046 30.0262 36.8196C29.968 36.8492 29.939 36.8937 29.9099 36.9381C29.9099 36.4047 29.9099 35.886 29.9535 35.3822C29.968 35.1748 29.8227 34.997 29.6193 34.9821C29.4304 34.9673 29.2415 35.1155 29.227 35.323C29.1398 36.5084 29.1834 37.7827 29.2415 38.9978C29.2415 39.1311 29.2706 39.2793 29.2851 39.4423C29.3432 39.8869 29.4013 40.4499 29.1979 40.7167C28.5004 41.5909 27.8901 42.1688 27.3234 42.48C25.231 43.621 22.3394 43.3098 20.3051 42.8504C20.1162 42.806 19.9418 42.7764 19.7529 42.7467C19.5204 42.7171 19.2879 42.6726 19.0554 42.6134C18.7939 42.5393 18.5469 42.4059 18.2853 42.2577C18.14 42.1836 17.9947 42.1096 17.8494 42.0355C17.5733 41.9021 17.2972 41.7984 17.0211 41.6798C16.1057 41.3094 15.3065 40.9686 14.7253 40.0795C14.6962 40.035 14.6817 39.961 14.6672 39.872C14.8706 40.0202 15.074 40.1684 15.3065 40.2869C15.3501 40.3166 15.4082 40.3166 15.4664 40.3166C15.5971 40.3166 15.7279 40.2425 15.8006 40.1091C15.8877 39.9313 15.8151 39.709 15.6262 39.6201C15.292 39.4571 14.9578 39.1756 14.7253 38.9682C14.7253 38.9682 14.7108 38.9682 14.6962 38.9533C14.6962 38.9385 14.6962 38.9385 14.6962 38.9237V38.4792C14.6962 38.4051 14.6962 38.331 14.6962 38.2569C14.8851 38.4051 15.0886 38.5384 15.292 38.657L15.4518 38.7607C15.9459 39.0719 16.4544 39.4127 17.0938 39.5609C17.1229 39.5609 17.1519 39.5757 17.181 39.5757C17.3408 39.5757 17.5007 39.4571 17.5297 39.2941C17.5733 39.1015 17.4571 38.8941 17.2536 38.8496C16.7451 38.7311 16.3091 38.4495 15.8442 38.1532L15.6698 38.0346C15.3501 37.8272 15.0304 37.6345 14.7979 37.3678C14.7834 37.3382 14.7398 37.353 14.7253 37.3382C14.7253 37.1456 14.7398 36.9677 14.7398 36.7751C14.9287 36.9233 15.1467 37.0863 15.3792 37.19C15.4228 37.2196 15.4809 37.2196 15.539 37.2196C15.6698 37.2196 15.8006 37.1456 15.8732 37.0122C15.9604 36.8344 15.8877 36.6121 15.6988 36.5232C15.3792 36.375 15.074 36.1083 14.8706 35.9157C14.8561 35.9008 14.827 35.9008 14.7979 35.886C14.7979 35.8119 14.7979 35.7527 14.8125 35.6786C14.8415 35.4711 14.6962 35.2933 14.4928 35.2637C14.3039 35.2192 14.115 35.3822 14.0859 35.5897C14.0569 35.9157 14.0423 36.2417 14.0278 36.5677C13.5919 36.2565 13.1269 35.9898 12.6619 35.723C12.3277 35.5304 11.9935 35.3526 11.6738 35.1451L11.2379 34.8636C9.39251 33.693 7.48898 32.4779 5.80341 30.9072C5.30937 30.4479 4.7572 29.9144 4.3794 29.381C4.35034 29.0698 4.3794 28.7734 4.46659 28.4771C4.53924 28.24 4.61189 27.9881 4.7572 27.7806C4.85892 27.6473 5.00422 27.4991 5.17859 27.3509C5.87607 26.773 6.67526 27.3657 7.66335 28.1955C7.83772 28.3437 8.01209 28.4919 8.17192 28.6104C8.17192 28.6104 8.18645 28.6104 8.20099 28.6104C9.4361 30.6257 11.5431 32.1964 13.5774 33.1595C15.6553 34.1523 17.6605 34.671 19.5495 34.7895C19.564 34.8191 19.5495 34.8488 19.564 34.8636C19.9709 35.5156 20.712 35.9008 21.4821 35.9008C21.6565 35.9008 21.8308 35.886 22.0052 35.8416C22.8044 35.6638 23.3565 35.1007 23.5454 34.3598L23.6908 34.3302C24.8532 34.0931 25.943 33.8412 26.9747 33.3522C27.0183 33.3522 27.0474 33.3818 27.1055 33.367C30.0843 32.5816 32.3947 31.2925 34.458 30.0181C34.6033 29.9292 34.8794 29.6921 35.3589 29.2772C35.7367 28.9513 36.318 28.4326 36.6086 28.2252C36.6812 28.3289 36.7975 28.5364 36.9573 28.9068L37.0154 29.0253C37.1607 29.3217 37.3206 29.5736 37.4514 29.7959C37.8146 30.5071 37.9599 30.7442 37.3932 31.5592ZM38.3813 29.7218C38.3232 29.707 38.2505 29.7218 38.1924 29.7366C38.1343 29.6329 38.0617 29.5143 37.989 29.3958C37.9018 29.2624 37.8001 29.0846 37.7129 28.9216C37.8292 28.8031 37.8582 28.6104 37.7565 28.4623C37.2334 27.7066 37.5531 26.9953 38.1198 25.9136C38.2941 25.5876 38.483 25.2468 38.6138 24.906L38.6719 24.7578C38.7737 24.4614 38.8899 24.1799 39.0352 23.8243C39.0933 23.9873 39.1369 24.2243 39.1369 24.417C39.1369 24.58 39.0933 24.7726 38.9771 25.0097C38.9044 25.1282 38.8172 25.2764 38.8172 25.4394C38.8172 25.6469 38.919 25.8247 39.0207 26.0173C39.0497 26.0766 39.1079 26.1655 39.1079 26.1951C39.2677 26.7582 39.1515 27.1287 38.6283 27.6769C38.483 27.8251 38.4976 28.0622 38.6429 28.1955C38.7882 28.3437 39.0207 28.3289 39.1515 28.1807C39.2677 28.0474 39.3839 27.914 39.4857 27.7806C39.5874 27.8695 39.7182 27.9436 39.8489 27.9881C39.8344 28.2252 39.8635 28.4474 40.0088 28.6253C40.1395 28.7883 40.3284 28.8772 40.5464 28.9364C39.9652 29.5292 39.0497 29.9441 38.3813 29.7218ZM42.0721 27.5436C41.985 27.8547 41.302 28.24 40.9242 28.2696C40.7353 28.2844 40.6336 28.2252 40.6045 28.1807C40.5755 28.1511 40.59 28.077 40.6045 28.0177C41.1131 27.8844 41.6217 27.5287 41.8978 27.2472C41.9123 27.2472 41.8978 27.262 41.9123 27.2768C42.1157 27.425 42.0867 27.5139 42.0721 27.5436Z" fill="#064258"/>
<path fill-rule="evenodd" clip-rule="evenodd" d="M14.5373 24.6393C14.4792 25.4543 14.9151 26.373 15.9759 26.5805C16.0049 26.5805 16.0195 26.5805 16.0485 26.5805C16.2229 26.5805 16.3682 26.4619 16.4118 26.2841C16.4554 26.0767 16.3246 25.884 16.1212 25.8544C15.4528 25.721 15.2348 25.1579 15.2639 24.6838C15.2929 24.1355 15.6707 23.5428 16.3827 23.4983C16.5862 23.4835 16.7315 23.3057 16.7169 23.1131C16.7024 22.9204 16.528 22.7574 16.3391 22.7574C15.1767 22.8167 14.5955 23.7799 14.5373 24.6393Z" fill="#064258"/>
<path fill-rule="evenodd" clip-rule="evenodd" d="M15.7277 28.7585C15.6115 29.04 15.6987 29.4104 15.8149 29.8105L15.8585 29.9587C15.9166 30.2106 15.9748 30.4625 16.062 30.6996C16.2363 31.2182 16.4688 31.5887 16.803 31.8702C16.8902 31.9443 16.9919 31.9591 17.0791 31.9591C17.2825 32.0777 17.515 32.1666 17.7911 32.2407C18.0236 32.2999 18.2561 32.3296 18.4886 32.3296C19.0989 32.3296 19.6656 32.1221 20.1015 31.722C20.7263 31.159 21.0024 30.2847 20.8862 29.3364C20.8426 28.9511 20.7408 28.4176 20.3631 28.0324C20.1015 27.7657 19.7673 27.8397 19.4912 27.899C19.3023 27.9287 19.0989 27.9435 18.91 27.9583C18.6194 27.9879 18.3287 28.0027 18.0527 28.062C17.8347 28.1065 17.6167 28.1213 17.3988 28.1509C17.0936 28.1806 16.7885 28.2102 16.4688 28.2843C16.2509 28.3139 15.8731 28.4176 15.7277 28.7585ZM17.0936 30.9367C17.0646 30.9663 17.05 30.996 17.021 31.0108C17.0064 30.996 17.0065 30.9811 16.9919 30.9663C17.0355 30.9663 17.0646 30.9515 17.0936 30.9367ZM17.9655 31.4998C17.8492 31.4701 17.762 31.4257 17.6603 31.396C18.198 30.7441 19.2006 30.1958 20.0724 30.3736C20.0724 30.3736 20.0724 30.3736 20.087 30.3736C19.9998 30.6848 19.8399 30.9515 19.6075 31.159C19.1861 31.5442 18.6048 31.6628 17.9655 31.4998ZM17.4424 28.8622C17.6894 28.8474 17.9364 28.8177 18.1689 28.7733C18.4305 28.7288 18.692 28.6992 18.9536 28.6844C19.157 28.6696 19.375 28.6547 19.5784 28.6251L19.6946 28.6103C19.7528 28.5955 19.8399 28.5806 19.8399 28.5658C19.869 28.5955 19.8835 28.6399 19.8981 28.6844C19.869 28.714 19.8254 28.714 19.7964 28.7436C19.2732 29.4549 17.8783 29.9587 17.1227 29.5142C16.9629 29.4253 16.8176 29.2326 16.6722 29.0252C16.6722 29.0104 16.6577 29.0104 16.6577 28.9955C16.9047 28.9066 17.1663 28.877 17.4424 28.8622Z" fill="#064258"/>
<path fill-rule="evenodd" clip-rule="evenodd" d="M10.8309 14.0293C11.0344 14.0293 11.2523 14.0145 11.4703 13.97C11.9207 13.8811 12.3421 13.7181 12.6473 13.4959C13.1704 13.1254 13.1849 12.7401 13.1559 12.5475C13.1268 12.4142 13.0396 12.2067 12.8071 12.0437C12.4439 11.777 11.7754 11.7029 11.0925 11.8214C10.0027 12.0289 9.29068 12.6364 9.40693 13.244C9.43599 13.3773 9.50864 13.5848 9.74113 13.7478C10.0027 13.9404 10.395 14.0293 10.8309 14.0293Z" fill="#064258"/>
<path fill-rule="evenodd" clip-rule="evenodd" d="M24.5046 15.378C24.8824 15.4818 25.2456 15.541 25.5798 15.541C25.6816 15.541 25.7833 15.541 25.885 15.5262C26.5679 15.4373 26.7714 15.0965 26.8295 14.9039C26.8585 14.7705 26.8731 14.563 26.7423 14.326C26.5098 13.8962 25.8705 13.4962 25.0858 13.2739C24.3011 13.0516 23.5455 13.0516 23.1241 13.3035C22.8917 13.4369 22.7899 13.6295 22.7609 13.7481C22.7318 13.8814 22.7173 14.0889 22.8481 14.326C23.0806 14.7557 23.7199 15.1558 24.5046 15.378Z" fill="#064258"/>
<path fill-rule="evenodd" clip-rule="evenodd" d="M12.2556 23.7502C13.9557 23.7502 15.3361 21.8832 15.3361 19.6012C15.3361 17.3193 13.9557 15.4522 12.2556 15.4522C10.5555 15.4522 9.17505 17.3044 9.17505 19.6012C9.17505 21.898 10.5555 23.7502 12.2556 23.7502ZM10.4102 17.5119C10.3375 17.749 10.2939 17.9861 10.2939 18.2528C10.2939 19.5123 11.1948 20.5348 12.2992 20.5348C13.4035 20.5348 14.3044 19.5123 14.3044 18.2528C14.3044 18.1343 14.2899 18.0157 14.2753 17.912C14.4788 18.4158 14.6095 18.9937 14.6095 19.616C14.6095 21.4979 13.5488 23.0242 12.2556 23.0242C10.9623 23.0242 9.90159 21.4979 9.90159 19.616C9.90159 18.8159 10.0905 18.0898 10.4102 17.5119Z" fill="#064258"/>
<path fill-rule="evenodd" clip-rule="evenodd" d="M23.9086 26.4916C26.0156 26.4916 27.7157 24.3282 27.7157 21.6758C27.7157 19.0234 26.001 16.86 23.9086 16.86C21.8162 16.86 20.1016 19.0234 20.1016 21.6758C20.1016 24.3282 21.8017 26.4916 23.9086 26.4916ZM22.3829 18.1788C21.8162 18.6826 21.4384 19.4235 21.4384 20.2829C21.4384 21.7943 22.5718 23.0094 23.9667 23.0094C25.3617 23.0094 26.4951 21.7943 26.4951 20.2829C26.4951 19.7643 26.3498 19.2753 26.1173 18.8604C26.6549 19.5865 26.9891 20.5941 26.9891 21.6906C26.9891 23.9281 25.6087 25.7655 23.9086 25.7655C22.2085 25.7655 20.8281 23.9429 20.8281 21.6906C20.8281 20.1792 21.4529 18.8752 22.3829 18.1788Z" fill="#064258"/>
</svg>
