<svg width="57" height="53" viewBox="0 0 57 53" fill="none" xmlns="http://www.w3.org/2000/svg">
<path d="M9.47532 18.064C8.82334 17.5926 8.34427 16.9201 8.1118 16.1499C7.87933 15.3796 7.90632 14.5544 8.18862 13.801C9.04245 11.6754 12.1698 10.0778 14.1973 11.5595" stroke="#10495B" stroke-width="0.8" stroke-linecap="round" stroke-linejoin="round"/>
<path d="M14.4015 11.6956C14.4126 11.0755 14.5711 10.4669 14.8639 9.92022C15.1567 9.3735 15.5754 8.90429 16.0854 8.55138C16.5954 8.19846 17.1821 7.97196 17.7969 7.89059C18.4117 7.80922 19.0371 7.87531 19.6214 8.08341C20.0234 8.20617 20.3972 8.40704 20.7214 8.6745C21.0457 8.94196 21.314 9.27078 21.5109 9.64209C22.2648 8.90125 22.3768 7.83649 23.3525 7.26962C24.5549 6.70111 25.9266 6.60349 27.1973 6.99599C28.4681 7.38849 29.5457 8.24264 30.218 9.39019" stroke="#10495B" stroke-width="0.8" stroke-linecap="round" stroke-linejoin="round"/>
<path d="M19.9351 17.144C20.1586 16.4122 20.6294 15.7809 21.267 15.3579C21.9045 14.935 22.6693 14.7468 23.4304 14.8255C23.8139 14.8395 24.1937 14.9061 24.5591 15.0235L24.977 15.2674C25.284 14.9825 25.197 13.7678 25.289 13.4218C25.564 12.5201 26.0379 11.6916 26.6757 10.9974C28.7672 8.58792 32.6054 9.37478 34.8359 11.0394C35.2723 11.3111 35.62 11.7041 35.8367 12.1702C35.8367 12.1702 36.1266 13.126 36.2206 13.128C36.6395 13.104 37.0634 12.4032 37.3833 12.1702C37.8941 11.8326 38.4802 11.6259 39.0897 11.5684C39.6993 11.5109 40.3136 11.6042 40.8786 11.8403C41.9536 12.5372 42.7666 13.5715 43.1901 14.7807C43.3134 15.1671 43.3824 15.5689 43.395 15.9744C43.325 16.1704 43.1701 16.6043 43.353 16.6223C43.536 16.6403 43.9509 16.3623 44.2428 16.3403C45.0612 16.2641 45.8864 16.365 46.6623 16.6363C47.7759 17.034 48.686 17.8579 49.1922 18.9266C49.6984 19.9953 49.7594 21.2214 49.3616 22.335C49.0327 23.1492 48.5384 23.8863 47.91 24.4996" stroke="#10495B" stroke-width="0.8" stroke-linecap="round" stroke-linejoin="round"/>
<path d="M48.9834 22.8634C51.1809 23.6482 52.0147 27.1025 51.0879 29.1231C50.7597 29.7385 50.3058 30.2782 49.7557 30.707C49.2056 31.1359 48.5715 31.4444 47.8946 31.6125" stroke="#10495B" stroke-width="0.8" stroke-linecap="round" stroke-linejoin="round"/>
<path d="M50.1656 30.5135C50.3602 31.0262 50.45 31.5727 50.4297 32.1206C50.4094 32.6686 50.2795 33.2069 50.0476 33.7038C49.8157 34.2007 49.4865 34.646 49.0795 35.0135C48.6726 35.381 48.196 35.6632 47.6781 35.8433C47.2668 35.9792 46.8238 35.9862 46.4084 35.8633C46.3244 35.8333 45.9885 35.7133 45.9215 35.7683C45.3027 36.3522 45.2867 37.546 44.6378 38.2138C43.3741 39.7195 41.0656 40.8362 39.198 39.7904C38.58 39.3568 38.0708 38.786 37.7103 38.1228" stroke="#10495B" stroke-width="0.8" stroke-linecap="round" stroke-linejoin="round"/>
<path d="M40.2088 37.3583C40.8512 37.5727 41.5476 37.5614 42.1827 37.3261C42.8177 37.0909 43.3534 36.6458 43.7011 36.0646" stroke="#10495B" stroke-width="0.8" stroke-linecap="round" stroke-linejoin="round"/>
<path d="M44.7136 34.6894C44.7635 34.5494 44.8135 34.4094 44.9335 34.2945" stroke="#10495B" stroke-width="0.8" stroke-linecap="round" stroke-linejoin="round"/>
<path d="M46.4415 33.8708C46.8193 33.8961 47.1976 33.8308 47.545 33.6804C47.8925 33.53 48.199 33.2988 48.4391 33.006" stroke="#10495B" stroke-width="0.8" stroke-linecap="round" stroke-linejoin="round"/>
<path d="M48.958 25.4113C49.336 26.1677 49.5114 27.0092 49.4671 27.8536C49.4227 28.698 49.1602 29.5165 48.705 30.2292" stroke="#10495B" stroke-width="0.8" stroke-linecap="round" stroke-linejoin="round"/>
<path d="M46.2812 26.1435C46.4212 26.1935 46.6212 26.0755 46.8001 26.0605" stroke="#10495B" stroke-width="0.8" stroke-linecap="round" stroke-linejoin="round"/>
<path d="M46.4363 27.2094L46.8083 27.1844" stroke="#10495B" stroke-width="0.8" stroke-linecap="round" stroke-linejoin="round"/>
<path d="M46.4873 28.2212L46.6972 28.2962" stroke="#10495B" stroke-width="0.8" stroke-linecap="round" stroke-linejoin="round"/>
<path d="M35.8924 33.1809C36.3903 32.98 36.8522 32.703 37.3411 32.4831" stroke="#10495B" stroke-width="0.8" stroke-linecap="round" stroke-linejoin="round"/>
<path d="M36.5644 34.3043C36.8344 34.2113 37.1053 34.0714 37.3663 33.9594" stroke="#10495B" stroke-width="0.8" stroke-linecap="round" stroke-linejoin="round"/>
<path d="M36.9411 35.5911C37.124 35.487 37.3145 35.3968 37.511 35.3212" stroke="#10495B" stroke-width="0.8" stroke-linecap="round" stroke-linejoin="round"/>
<path d="M38.631 37.0476C37.995 37.8619 37.2136 38.5514 36.3265 39.0812C35.4081 39.3527 34.441 39.4173 33.4947 39.2704C32.5484 39.1234 31.6464 38.7686 30.8537 38.2313C30.393 37.9611 29.9835 37.6118 29.644 37.1996C29.543 37.0846 29.369 36.6437 29.2201 36.5747C29.0711 36.5057 28.7612 36.7106 28.6712 36.7416C28.2082 36.9281 27.732 37.0798 27.2465 37.1955C26.4227 37.3051 25.5849 37.1717 24.8359 36.8117C24.0869 36.4517 23.4594 35.8807 23.0304 35.1689" stroke="#10495B" stroke-width="0.8" stroke-linecap="round" stroke-linejoin="round"/>
<path d="M9.63012 18.246C8.77206 18.7382 8.00861 19.3794 7.3756 20.1396C6.25884 21.5872 5.9109 24.2406 7.48754 25.4824C7.98896 25.8827 8.60958 26.1044 9.25116 26.1123C9.53809 26.1043 10.116 25.9003 10.3679 25.9903C10.3366 26.1052 10.2964 26.2175 10.2479 26.3262C10.0907 26.7981 9.96117 27.2789 9.86001 27.7659C9.74646 28.7961 9.99533 29.8337 10.5638 30.7003C11.023 31.3318 11.6199 31.8506 12.3093 32.2171C12.9988 32.5837 13.7626 32.7884 14.543 32.8158C14.8059 32.8308 15.6157 32.3309 15.7927 32.4099C16.2826 32.5849 16.3996 33.4947 16.8475 33.8756C18.5031 35.3823 20.9075 36.604 23.0041 35.2853" stroke="#10495B" stroke-width="0.8" stroke-linecap="round" stroke-linejoin="round"/>
<path d="M8.46681 23.8905C8.32356 23.6807 8.23647 23.4377 8.21387 23.1847" stroke="#10495B" stroke-width="0.8" stroke-linecap="round" stroke-linejoin="round"/>
<path d="M8.48551 21.6724C8.51896 21.5116 8.57448 21.3562 8.65047 21.2105" stroke="#10495B" stroke-width="0.8" stroke-linecap="round" stroke-linejoin="round"/>
<path d="M9.78355 19.6738C9.93563 19.5114 10.1042 19.3653 10.2864 19.2378" stroke="#10495B" stroke-width="0.8" stroke-linecap="round" stroke-linejoin="round"/>
<path d="M12.1279 22.8312C12.3766 23.0476 12.6757 23.1978 12.9977 23.2681" stroke="#10495B" stroke-width="0.8" stroke-linecap="round" stroke-linejoin="round"/>
<path d="M12.2646 24.3478C12.3853 24.4065 12.512 24.4518 12.6426 24.4827" stroke="#10495B" stroke-width="0.8" stroke-linecap="round" stroke-linejoin="round"/>
<path d="M12.2559 25.8751L12.3538 25.9101" stroke="#10495B" stroke-width="0.8" stroke-linecap="round" stroke-linejoin="round"/>
<path d="M19.0428 31.4877C19.2656 31.4942 19.488 31.4672 19.7027 31.4077" stroke="#10495B" stroke-width="0.8" stroke-linecap="round" stroke-linejoin="round"/>
<path d="M18.6316 32.856C19.4685 33.0087 20.3324 32.8852 21.093 32.5041" stroke="#10495B" stroke-width="0.8" stroke-linecap="round" stroke-linejoin="round"/>
<path d="M20.6537 34.1776C21.0907 34.0771 21.5128 33.9201 21.9094 33.7107" stroke="#10495B" stroke-width="0.8" stroke-linecap="round" stroke-linejoin="round"/>
<path d="M26.7661 35.7133C27.4492 35.7077 28.1055 35.4466 28.6057 34.9815" stroke="#10495B" stroke-width="0.8" stroke-linecap="round" stroke-linejoin="round"/>
<path d="M27.7613 33.9858L28.3662 33.6179" stroke="#10495B" stroke-width="0.8" stroke-linecap="round" stroke-linejoin="round"/>
<path d="M39.459 13.8746C40.3606 14.3468 41.0888 15.0932 41.5385 16.0062" stroke="#10495B" stroke-width="0.8" stroke-linecap="round" stroke-linejoin="round"/>
<path d="M39.0938 16.0001C39.4532 16.3759 39.7648 16.7947 40.0216 17.2469" stroke="#10495B" stroke-width="0.8" stroke-linecap="round" stroke-linejoin="round"/>
<path d="M15.9902 3.70974C15.4536 3.92465 14.9563 4.22702 14.5185 4.60454C13.1658 5.87325 11.3192 9.14353 12.5919 10.9711" stroke="#10495B" stroke-width="0.8" stroke-linecap="round" stroke-linejoin="round"/>
<path d="M47.6661 15.196C47.3728 17.7433 46.114 20.0811 44.1488 21.728C42.1836 23.375 39.6616 24.2057 37.1024 24.049" stroke="#10495B" stroke-width="0.8" stroke-linecap="round" stroke-linejoin="round"/>
<path d="M17.0088 34.5327C15.7131 35.3325 14.6333 36.1463 14.9082 37.807C15.1052 38.9347 17.1787 40.6854 15.668 41.6451C15.415 41.8037 15.1459 41.9351 14.8652 42.037" stroke="#10495B" stroke-width="0.8" stroke-linecap="round" stroke-linejoin="round"/>
<path d="M31.7998 32.2242C32.7156 33.8139 34.2053 34.9457 33.9733 37.0092C33.866 38.0153 33.4757 38.9704 32.8475 39.7636C32.3686 40.3974 30.3541 41.3982 31.8787 42.211C32.062 42.3001 32.2544 42.3688 32.4526 42.416C32.7325 42.516 33.0235 42.541 33.3134 42.613C33.8175 42.72 34.3334 42.761 34.8481 42.735" stroke="#10495B" stroke-width="0.8" stroke-linecap="round" stroke-linejoin="round"/>
<path fill-rule="evenodd" clip-rule="evenodd" d="M17.4721 1.95035C17.6602 1.99623 17.8365 2.08111 17.9897 2.19948C18.1429 2.31786 18.2695 2.46709 18.3613 2.63752C18.4532 2.80794 18.5082 2.99576 18.5228 3.1888C18.5374 3.38184 18.5113 3.57579 18.4462 3.7581C18.3811 3.94042 18.2784 4.10702 18.1448 4.24712C18.0112 4.38722 17.8497 4.49769 17.6706 4.57138C17.4916 4.64507 17.2991 4.68035 17.1056 4.6749C16.9121 4.66946 16.7219 4.62341 16.5473 4.53977C16.3592 4.49389 16.1829 4.40901 16.0297 4.29064C15.8765 4.17226 15.7499 4.02302 15.6581 3.85259C15.5662 3.68217 15.5112 3.49436 15.4966 3.30132C15.482 3.10828 15.5081 2.91432 15.5732 2.732C15.6383 2.54969 15.741 2.3831 15.8746 2.243C16.0082 2.1029 16.1697 1.99242 16.3487 1.91873C16.5278 1.84504 16.7203 1.80977 16.9138 1.81522C17.1073 1.82067 17.2975 1.8667 17.4721 1.95035V1.95035Z" stroke="#10495B" stroke-width="0.8" stroke-linecap="round" stroke-linejoin="round"/>
<path d="M17.4721 1.95035C17.6602 1.99623 17.8365 2.08111 17.9897 2.19948C18.1429 2.31786 18.2695 2.46709 18.3613 2.63752C18.4532 2.80794 18.5082 2.99576 18.5228 3.1888C18.5374 3.38184 18.5113 3.57579 18.4462 3.7581C18.3811 3.94042 18.2784 4.10702 18.1448 4.24712C18.0112 4.38722 17.8497 4.49769 17.6706 4.57138C17.4916 4.64507 17.2991 4.68035 17.1056 4.6749C16.9121 4.66946 16.7219 4.62341 16.5473 4.53977C16.3592 4.49389 16.1829 4.40901 16.0297 4.29064C15.8765 4.17226 15.7499 4.02302 15.6581 3.85259C15.5662 3.68217 15.5112 3.49436 15.4966 3.30132C15.482 3.10828 15.5081 2.91432 15.5732 2.732C15.6383 2.54969 15.741 2.3831 15.8746 2.243C16.0082 2.1029 16.1697 1.99242 16.3487 1.91873C16.5278 1.84504 16.7203 1.80977 16.9138 1.81522C17.1073 1.82067 17.2975 1.8667 17.4721 1.95035Z" fill="#10495B"/>
<path fill-rule="evenodd" clip-rule="evenodd" d="M48.3753 12.5923C48.6521 12.6912 48.8934 12.8699 49.0687 13.1059C49.2439 13.3419 49.3452 13.6246 49.3598 13.9182C49.3744 14.2118 49.3016 14.5031 49.1507 14.7554C48.9997 15.0076 48.7773 15.2094 48.5116 15.3352C48.246 15.461 47.949 15.5053 47.6582 15.4623C47.3674 15.4194 47.0958 15.2911 46.8779 15.0938C46.66 14.8966 46.5054 14.6391 46.4339 14.354C46.3623 14.0689 46.3768 13.7689 46.4757 13.4921C46.6083 13.1209 46.8829 12.8175 47.2391 12.6488C47.5954 12.48 48.0041 12.4597 48.3753 12.5923Z" stroke="#10495B" stroke-width="0.8" stroke-linecap="round" stroke-linejoin="round"/>
<path d="M48.3753 12.5923C48.6521 12.6912 48.8934 12.8699 49.0687 13.1059C49.2439 13.3419 49.3452 13.6246 49.3598 13.9182C49.3744 14.2118 49.3016 14.5031 49.1507 14.7554C48.9997 15.0076 48.7773 15.2094 48.5116 15.3352C48.246 15.461 47.949 15.5053 47.6582 15.4623C47.3674 15.4194 47.0958 15.2911 46.8779 15.0938C46.66 14.8966 46.5054 14.6391 46.4339 14.354C46.3623 14.0689 46.3768 13.7689 46.4757 13.4921C46.6083 13.1209 46.8829 12.8175 47.2391 12.6488C47.5954 12.48 48.0041 12.4597 48.3753 12.5923Z" fill="#10495B"/>
<path d="M13.1585 21.7157C15.7173 22.6295 18.7964 20.5567 20.036 17.0858C21.2757 13.6149 20.2063 10.0603 17.6476 9.14649C15.0889 8.23264 12.0097 10.3055 10.7701 13.7764C9.53047 17.2473 10.5998 20.8019 13.1585 21.7157Z" stroke="#10495B" stroke-width="0.8" stroke-linecap="round" stroke-linejoin="round"/>
<path d="M29.716 13.4888C32.2634 14.3986 33.3352 17.9378 32.0954 21.409C30.8557 24.8803 27.7793 26.9538 25.2319 26.044C22.6845 25.1342 21.5987 21.5899 22.8435 18.1047C24.0882 14.6195 27.1545 12.574 29.716 13.4888Z" stroke="#10495B" stroke-width="0.8" stroke-linecap="round" stroke-linejoin="round"/>
<path d="M14.87 19.4861C15.6275 19.7567 16.6065 18.9546 17.0565 17.6945C17.5065 16.4345 17.2572 15.1937 16.4996 14.9231C15.7421 14.6526 14.7631 15.4547 14.3131 16.7147C13.8631 17.9748 14.1124 19.2156 14.87 19.4861Z" fill="#10495B"/>
<path d="M25.8543 23.4568C26.6119 23.7274 27.5908 22.9253 28.0409 21.6652C28.4909 20.4052 28.2416 19.1644 27.484 18.8938C26.7264 18.6233 25.7475 19.4254 25.2975 20.6854C24.8474 21.9455 25.0968 23.1863 25.8543 23.4568Z" fill="#10495B"/>
<path d="M32.114 21.3994L42.0708 19.1949C42.4041 19.1863 42.7348 19.2568 43.0356 19.4007C43.3364 19.5445 43.5989 19.7576 43.8015 20.0224C44.0041 20.2873 44.1411 20.5963 44.2012 20.9243C44.2613 21.2523 44.2428 21.5899 44.1473 21.9094" stroke="#10495B" stroke-width="0.8" stroke-linecap="round" stroke-linejoin="round"/>
<path d="M19.8102 17.7148C20.2616 17.4396 20.8028 17.3521 21.3178 17.4712C21.8329 17.5902 22.2808 17.9063 22.5656 18.3517" stroke="#10495B" stroke-width="0.8" stroke-linecap="round" stroke-linejoin="round"/>
<path d="M15.1993 11.8865C15.3711 11.5471 15.5985 11.2389 15.8722 10.9747C17.4908 9.80097 18.7465 11.7645 18.7875 13.1522" stroke="#10495B" stroke-width="0.8" stroke-linecap="round" stroke-linejoin="round"/>
<path d="M26.1073 16.0819C26.3607 15.8078 26.6523 15.5718 26.9731 15.381C27.3083 15.1752 27.701 15.083 28.0928 15.1181C30.0604 15.2211 30.8082 17.4136 30.7532 19.1142" stroke="#10495B" stroke-width="0.8" stroke-linecap="round" stroke-linejoin="round"/>
<path d="M16.6639 21.9726L22.2097 23.8113C22.2097 23.8113 21.2639 28.4922 17.9246 27.6784C17.9246 27.6784 14.4914 26.6416 16.6639 21.9726Z" stroke="#10495B" stroke-width="0.8" stroke-linecap="round" stroke-linejoin="round"/>
<path fill-rule="evenodd" clip-rule="evenodd" d="M16.6506 26.608C17.3388 26.1582 18.11 25.8505 18.9189 25.703C19.7277 25.5555 20.5579 25.5712 21.3606 25.7492L22.0604 23.7897L16.8396 21.925C16.8396 21.925 14.948 24.6584 16.6506 26.608Z" fill="#10495B"/>
</svg>
