<svg width="56" height="26" viewBox="0 0 56 26" fill="none" xmlns="http://www.w3.org/2000/svg">
<path fill-rule="evenodd" clip-rule="evenodd" d="M55.816 0.714462C55.4782 0.27348 54.8507 0.312091 54.7986 0.316155C54.7986 0.316155 52.8703 0.401507 50.9523 0.482794C49.7515 0.533598 46.9851 0.360863 44.5459 0.20845C43.1783 0.123099 41.8858 0.0418119 41.0582 0.0133615C39.1235 -0.0537003 37.364 0.131228 35.6837 0.578306C35.3835 0.657561 34.9583 0.785588 34.4663 0.933936C32.8381 1.42572 30.376 2.1695 28.7062 2.29346C27.5867 2.37678 26.4401 2.26501 25.2247 2.14511C24.0947 2.03334 22.9273 1.91751 21.7536 1.97035C19.6584 2.06179 15.6537 3.55747 13.0019 4.54714C12.5516 4.71581 12.1388 4.87026 11.7781 5.00032C9.65172 5.77458 5.05072 6.10988 2.84091 6.27246C2.54279 6.29481 2.28012 6.3131 2.06539 6.33139C0.875008 6.42487 0.282945 6.63215 0.0807261 7.02233C0.034862 7.10971 0.0160994 7.1971 0.0140147 7.27838C-0.0735439 7.63198 0.243335 8.16238 1.12935 9.23943C1.80063 10.0543 2.55947 10.8774 2.7054 11.0359C3.21407 11.5825 15.3326 20.898 17.6091 22.4933C19.8982 24.0946 22.8064 24.7246 22.9335 24.753C24.1844 25.0071 25.8396 25.1046 27.6325 25.1046C33.2113 25.1046 40.143 24.1678 40.5245 24.117C40.5558 24.1129 40.5849 24.1048 40.6162 24.0946C43.7642 22.9972 46.4597 19.7905 48.0712 17.8741C48.411 17.4697 48.705 17.1202 48.9489 16.854C50.4978 15.1592 55.6471 2.43165 55.866 1.89109C56.0599 1.40743 56.0432 1.01116 55.816 0.714462ZM55.0134 1.55985C53.5415 5.20353 49.4596 14.9458 48.2651 16.2545C48.0087 16.5349 47.7105 16.8906 47.3624 17.3031C45.8197 19.1382 43.2451 22.2027 40.3535 23.233C39.5196 23.3448 27.9536 24.8547 23.1274 23.8751C23.0982 23.8691 20.2776 23.2553 18.147 21.7637C15.7412 20.079 3.83741 10.8936 3.38711 10.4323C2.15712 9.10531 1.12101 7.83114 0.94172 7.43283C1.07097 7.37796 1.39828 7.27838 2.14252 7.21945C2.35517 7.20319 2.61576 7.18287 2.91179 7.16255C5.33633 6.98575 9.85186 6.65451 12.1013 5.83554C12.4619 5.70345 12.8789 5.549 13.3313 5.38033C15.9268 4.41099 19.8481 2.94782 21.7953 2.86247C22.9023 2.8137 24.0364 2.92547 25.1329 3.0352C26.3358 3.15307 27.5783 3.27703 28.777 3.18559C30.5491 3.05146 33.0695 2.29143 34.7373 1.78745C35.2209 1.64113 35.6379 1.51514 35.9235 1.43995C37.5141 1.01726 39.1819 0.842488 41.0248 0.905486C41.8399 0.933936 43.1262 1.01522 44.4855 1.09854C46.9475 1.25299 49.739 1.42572 50.9898 1.37492C52.9078 1.29363 54.8382 1.20828 54.8528 1.20828C54.9383 1.20218 55.053 1.22454 55.0759 1.24283C55.078 1.24486 55.1072 1.32615 55.0134 1.55985Z" fill="#424C65"/>
<path fill-rule="evenodd" clip-rule="evenodd" d="M53.1952 2.06196C52.724 1.68804 51.6733 1.97661 50.8874 2.2794C50.829 2.29972 45.1043 4.3319 42.3671 5.11631C39.561 5.92309 33.9739 7.09972 31.6974 7.27448C29.2666 7.46144 19.631 7.79269 18.1112 7.57118C16.8521 7.38625 11.9509 7.33748 8.70912 7.30497C7.80434 7.29684 7.0455 7.28871 6.55559 7.28058C4.24988 7.24197 3.57234 8.26618 3.4556 8.48363C3.27006 8.78032 3.02823 9.29853 6.49096 11.6863C9.95161 14.1575 18.4344 16.5575 18.8013 16.6611C20.4899 17.1 23.2855 17.2911 26.2396 17.2911C30.3361 17.2911 34.737 16.9212 36.8947 16.3258C40.3907 15.3625 45.1689 11.729 47.4642 9.98134C47.7165 9.79031 47.9396 9.61961 48.1313 9.47533C49.4072 8.51817 50.8957 6.63435 51.4753 5.86822C52.3112 4.76272 53.3244 3.2772 53.4245 2.72241C53.4766 2.45823 53.3911 2.21844 53.1952 2.06196ZM36.6466 15.4662C33.1109 16.4396 22.8728 16.7932 19.0473 15.7995C18.9806 15.7812 13.7166 14.2916 9.82653 12.5033C10.035 11.9871 10.9314 11.4079 10.9314 11.4079C10.0642 11.2454 8.74664 10.9304 8.04409 10.2008C7.47079 9.60742 7.30401 8.55475 7.26231 8.1849C7.67301 8.18896 8.15875 8.19506 8.69869 8.20115C11.7215 8.23164 16.7791 8.28244 17.9737 8.45721C19.6602 8.70513 29.5773 8.33731 31.7683 8.16864C34.0949 7.99184 39.7778 6.79489 42.6256 5.97796C44.1307 5.5451 46.5178 4.74443 48.394 4.10023C48.4816 4.6794 48.5587 7.10785 44.1599 9.12173L46.2155 8.5832L46.2301 9.78625C43.8118 11.6132 39.6694 14.633 36.6466 15.4662Z" fill="#424C65"/>
</svg>
