<svg width="34" height="47" viewBox="0 0 34 47" fill="none" xmlns="http://www.w3.org/2000/svg">
<path d="M33.027 28.3959C32.0559 24.0888 29.249 21.2991 29.249 21.2991C27.0076 19.253 25.3972 16.7555 25.3972 16.7555C24.0572 14.4042 23.9958 10.3077 23.9958 10.3077C23.7622 6.72273 21.6642 4.34564 21.6642 4.34564C18.718 -0.344058 14.8948 1.15183 14.8948 1.15183L12.3297 0.696188C10.244 -0.5117 7.44938 0.21905 7.44938 0.21905C1.38073 1.42694 1.06112 6.99354 1.06112 6.99354C0.163727 10.4797 2.8477 15.2166 2.8477 15.2166C3.60577 16.9403 3.53611 17.2799 2.71248 19.5367C1.88885 21.7891 0.348122 27.3557 0.0571879 28.9719C-0.233747 30.5882 0.680034 30.9364 0.680034 30.9364C-0.340286 35.9313 1.41352 38.2955 2.54447 39.2583C3.16732 41.24 4.64248 43.3377 7.05191 43.4236C7.11337 43.4236 7.17074 43.4279 7.22811 43.4279C7.78949 43.4279 8.33858 43.3291 8.87127 43.2087C8.77703 44.1931 8.45741 45.1516 8.00667 46.2692C7.92061 46.4842 8.01486 46.7292 8.21974 46.8195C8.26892 46.841 8.32219 46.8539 8.37545 46.8539C8.53117 46.8539 8.67868 46.7593 8.74424 46.5959C9.15811 45.5729 9.60476 44.3736 9.68671 43.0668C9.68671 43.0453 9.68261 43.0325 9.67851 43.011C12.1986 42.3834 14.8539 41.3861 17.8001 39.959C17.9763 40.1095 18.1197 40.2298 18.2222 40.2943C18.5131 40.4834 18.9966 40.8789 19.5621 41.3388C20.693 42.263 22.1682 43.4666 23.3729 44.0555C23.4795 45.1903 23.7376 46.0973 24.172 46.8066C24.2498 46.9312 24.3769 47 24.508 47C24.5817 47 24.6555 46.9785 24.7211 46.9355C24.9055 46.8109 24.9628 46.553 24.844 46.3552C24.5285 45.8394 24.3277 45.1774 24.2129 44.3607C24.2211 44.3607 24.2334 44.365 24.2416 44.365C24.2539 44.365 24.2662 44.365 24.2826 44.365C24.4219 44.3521 27.573 43.9781 29.7202 40.8144C30.1136 40.9391 30.5602 40.9735 30.5602 40.9735C31.7404 40.5694 32.0067 39.2841 32.1255 39.0391C32.2444 38.7941 32.9041 36.8684 32.9041 36.8684C33.3057 35.7636 33.781 34.7492 33.781 34.7492C34.5555 32.4108 33.027 28.3959 33.027 28.3959ZM25.1472 37.9817C24.7252 37.8226 24.3236 37.6292 23.9343 37.4014C24.2785 37.3111 24.6268 37.2079 24.9751 37.0704C25.0161 37.0532 25.0489 37.0274 25.0776 37.0016C25.0776 37.0016 25.0776 37.0016 25.0816 37.0016C25.0939 37.0016 25.1021 37.0016 25.1144 37.0016C25.1308 37.0016 25.1513 36.9973 25.1677 36.9973C25.1718 37.3154 25.1636 37.6464 25.1472 37.9817ZM23.7622 34.0313C23.7991 34.0958 23.8523 34.2076 23.9261 34.3924C24.1679 34.9985 24.3195 35.7035 24.3769 36.3912C24.0408 36.503 23.6966 36.6018 23.336 36.6921C23.2172 36.7222 23.1025 36.7523 22.9836 36.7824C22.6026 36.5116 22.2256 36.2279 21.8445 35.9313C21.4388 35.6218 21.0209 35.308 20.5947 35.0114C21.238 34.8523 21.9387 34.6546 22.7583 34.3881C22.8935 34.3451 23.0369 34.2892 23.1803 34.2291C23.3811 34.1517 23.586 34.07 23.7622 34.0313ZM25.9504 36.0946C25.6881 36.1118 25.4218 36.1333 25.1595 36.1548C25.0857 35.4326 24.9177 34.7019 24.6637 34.0571C24.6145 33.9368 24.5653 33.8164 24.508 33.7046C24.9628 33.4295 25.434 33.1114 25.893 32.8062C26.5568 32.3592 27.2493 31.8993 27.8845 31.5554C28.0934 31.4436 28.3024 31.3361 28.5155 31.2287C28.4376 31.3232 28.3598 31.4135 28.2614 31.5081C28.1795 31.5683 27.9664 31.7273 28.0156 32.011C28.0443 32.1744 28.1754 32.3119 28.3311 32.3506C28.6015 32.4194 28.9089 32.2775 29.2859 32.0798C29.3473 32.0497 29.3965 32.0196 29.4334 32.0067C29.6137 31.9293 29.7981 31.8434 29.9825 31.7531C30.3963 31.5554 30.8184 31.3576 31.2323 31.276C31.2609 31.3061 31.2896 31.3361 31.3142 31.3662C31.5519 31.6198 31.4003 33.077 31.2814 33.9754C31.2363 34.2978 31.1339 34.6073 31.0192 34.8738C29.503 35.8238 27.7738 35.9614 25.9504 36.0946ZM27.7206 21.759C29.3186 22.421 29.8145 23.9255 29.8145 23.9255C30.1628 24.7551 30.634 29.5351 30.7323 30.5366C30.3881 30.6441 30.0562 30.7902 29.7325 30.945C29.8349 30.7558 29.9046 30.5495 29.9087 30.3346C29.9128 30.1841 29.839 30.0466 29.7202 29.9692C29.5481 29.8574 29.2121 29.9305 28.7122 30.1884C28.5524 30.2744 28.3885 30.3561 28.2287 30.4377C27.991 30.5581 27.7574 30.6785 27.5239 30.8031C27.0731 31.0438 26.606 31.3404 26.1429 31.6456C26.1429 30.8934 26.1184 30.2787 26.0569 29.6898C26.0323 29.4577 25.8356 29.2943 25.6143 29.3201C25.3931 29.3459 25.2374 29.5522 25.2619 29.7844C25.3275 30.3905 25.3521 31.018 25.3439 31.8219C25.3439 31.9336 25.3849 32.0325 25.4504 32.1099C24.885 32.4881 24.3523 32.8449 23.8401 33.1415C23.8237 33.1501 23.8114 33.1673 23.7991 33.1802C23.4918 33.2146 23.1803 33.3393 22.9017 33.4467C22.7747 33.4983 22.6476 33.5499 22.5288 33.5843C21.5372 33.9024 20.7258 34.1259 19.9801 34.2935C19.8899 34.315 19.8161 34.3709 19.7629 34.4397C17.7263 33.1028 15.6447 31.7144 13.7147 30.1669C13.1533 29.7199 12.6002 29.26 12.0429 28.8C10.1497 27.2396 8.19516 25.6234 6.03569 24.4069C5.88817 24.3209 5.69968 24.3467 5.57675 24.4671C5.45382 24.5874 5.41284 24.7766 5.4784 24.9442L5.61363 25.2709C5.20386 24.9829 4.88014 24.725 4.80639 24.6003C4.7777 24.5531 4.74082 24.5144 4.69985 24.4843C5.73246 20.478 9.06796 19.5968 9.06796 19.5968C9.06796 19.5968 11.8093 19.5324 12.9771 19.5238C12.887 20.5124 13.1656 21.4538 13.7844 22.1846C14.522 23.0615 15.6775 23.573 16.8945 23.573C16.9355 23.573 16.9765 23.573 17.0215 23.573C19.4023 23.5042 21.6683 22.0943 22.7583 20.0697L23.1435 20.2158C23.1312 20.2158 26.1225 21.1013 27.7206 21.759ZM8.09272 16.2655C8.08042 16.2698 8.07223 16.2784 8.05993 16.2784C8.04354 16.2569 8.03125 16.244 8.03125 16.244C7.85505 16.0634 7.69114 15.8657 7.53543 15.6551C7.79359 15.6895 8.08042 15.711 8.38775 15.711C8.80161 15.711 9.24826 15.668 9.7031 15.5605C9.1827 15.9044 8.60083 16.1408 8.09272 16.2655ZM6.78556 10.772V10.8063C6.76917 11.219 6.75278 11.6489 6.7159 12.0615C6.7118 12.1045 6.70361 12.1604 6.69131 12.2206C6.63804 12.5301 6.60526 12.7794 6.67902 12.9943C6.73639 13.149 6.8962 13.5961 8.26892 13.5961C8.39594 13.5961 8.53526 13.5918 8.68688 13.5832C8.90815 13.5703 9.07616 13.3726 9.06386 13.1404C9.05157 12.9083 8.85488 12.7321 8.6418 12.745C8.09681 12.7751 7.61739 12.7235 7.43299 12.6547C7.44119 12.5687 7.46167 12.4441 7.47397 12.371C7.49036 12.2807 7.50265 12.2034 7.50675 12.1432C7.54773 11.7047 7.56412 11.2663 7.58051 10.8407L7.5887 10.6473C7.83866 10.5871 8.08042 10.5097 8.30579 10.4152C8.2976 10.4925 8.3017 10.5742 8.33858 10.6516C8.6541 11.3265 9.11304 11.4468 9.39987 11.4468C9.42446 11.4468 9.45314 11.4468 9.47363 11.4425C10.1334 11.3952 10.6906 10.729 10.8791 10.1272C10.9488 9.90795 10.8341 9.67153 10.6251 9.59845C10.4161 9.52538 10.1907 9.64574 10.1211 9.86496C10.0022 10.2389 9.67442 10.5871 9.42036 10.6043C9.37119 10.6086 9.21957 10.6215 9.05977 10.2776C9.02698 10.2045 8.97371 10.1573 8.91225 10.1143C10.8218 9.01815 11.6495 6.96345 11.6495 6.96345C11.1987 12.1948 18.382 12.2764 18.382 12.2764C17.7509 16.7039 21.2708 19.2745 21.9961 19.7516C21.025 21.4753 19.0581 22.6746 16.9888 22.7348C15.9602 22.7649 14.9809 22.3522 14.3744 21.63C13.8663 21.0283 13.6614 20.2717 13.7762 19.4421C14.2515 19.2702 14.44 18.8747 14.44 18.8747C14.9973 18.3976 14.5629 17.9763 14.5629 17.9763L13.4033 16.7211C12.928 17.7872 11.3831 18.0322 11.3831 18.0322C10.2686 18.1783 9.29743 17.5164 8.68688 16.9575C9.98584 16.5406 11.0676 15.7282 11.6167 14.7309C11.7273 14.5289 11.6618 14.2753 11.4692 14.1592C11.4651 14.1549 11.4569 14.1549 11.4487 14.1506C11.3135 14.0173 11.1086 13.9916 10.9529 14.1076C9.96945 14.8212 8.55575 15.049 7.07649 14.7352C7.02732 14.7266 6.98225 14.7266 6.93308 14.7352C5.92095 12.8954 5.52348 10.729 5.52348 10.729C5.97832 10.7934 6.39628 10.802 6.78556 10.772ZM4.01963 26.0532C4.06471 25.7051 4.16305 25.4343 4.26549 25.2279C4.72853 25.7394 5.90046 26.4659 6.28155 26.6937C6.42906 26.784 6.61755 26.7625 6.74868 26.6421C6.87571 26.5218 6.91668 26.3283 6.85112 26.165L6.68722 25.7695C8.20745 26.741 9.63754 27.893 11.0307 29.0407C10.3505 29.5351 9.90798 30.3604 9.73998 31.0868C8.24843 30.945 4.76541 29.505 4.01554 29.1912L3.88441 28.1337C3.88031 28.1294 3.8967 26.9817 4.01963 26.0532ZM8.77703 36.0001C8.77703 35.9356 8.78112 35.8711 8.78112 35.8152C8.76883 34.9985 8.78932 34.3408 8.84669 33.7476C8.90815 33.1286 8.9942 32.4839 9.10074 31.8305C9.30562 31.8735 9.49822 31.9078 9.66622 31.9207C9.86701 32.0583 10.3833 32.428 10.7357 32.7633C10.8463 32.8707 11.334 33.3822 11.9527 34.0313C12.4117 34.5128 12.8747 34.9985 13.3336 35.4756C12.9034 35.6089 12.4772 35.755 12.0593 35.9098C11.3381 36.1763 10.6538 36.4299 9.94896 36.5589C9.3548 36.6663 8.92454 36.6061 8.79751 36.3998C8.76473 36.3353 8.77293 36.1075 8.77703 36.0001ZM9.46953 42.2028L9.33841 42.2372C8.56395 42.4307 7.82637 42.6112 7.08059 42.5854C4.88424 42.5037 3.59757 40.3287 3.16322 38.4889C3.15503 38.4545 3.13863 38.4287 3.12224 38.3986C3.00751 36.172 3.61396 32.7418 3.61396 32.7418L4.02373 30.1025C4.88834 30.4592 6.79375 31.2244 8.31809 31.6456C8.20335 32.3334 8.1132 33.0126 8.05174 33.6659C7.99027 34.2935 7.96979 34.9813 7.98208 35.8324C7.98208 35.8754 7.98208 35.9227 7.97798 35.9786C7.96979 36.2494 7.96159 36.589 8.1255 36.8598C8.30579 37.1521 8.67458 37.4616 9.43265 37.4616C9.62524 37.4616 9.84652 37.4401 10.0965 37.3971C10.8668 37.2552 11.6085 36.9801 12.3297 36.7136C12.8706 36.5116 13.432 36.3052 13.9852 36.1634C15.1981 37.4229 16.329 38.5792 17.1486 39.3615C14.3662 40.6769 11.8503 41.6139 9.46953 42.2028ZM24.2744 43.5182C23.1476 43.2001 21.2954 41.687 20.0579 40.6769C19.4515 40.1825 18.972 39.7914 18.6483 39.5807C17.9148 39.1079 14.2679 35.2779 12.5182 33.4381C11.8421 32.7289 11.3995 32.2603 11.2725 32.14C11.0225 31.9035 10.707 31.6585 10.4571 31.4694C10.4694 31.4393 10.4858 31.4135 10.4899 31.3791C10.6169 30.7043 11.0676 29.9133 11.7028 29.5909C12.2109 30.0079 12.719 30.4291 13.2271 30.8375C15.3292 32.5182 17.5911 34.0055 19.7752 35.4455C20.3202 35.8023 20.857 36.215 21.3733 36.6104C22.5452 37.5088 23.7581 38.4373 25.2374 38.9016C25.2742 38.9145 25.3152 38.9188 25.3521 38.9188C25.389 38.9188 25.4259 38.9102 25.4627 38.9016C25.4709 38.9016 25.475 38.9059 25.4832 38.9059C25.4955 38.9059 25.5078 38.9059 25.516 38.9059C25.7209 38.9059 25.8971 38.7382 25.9135 38.519C25.9586 37.9645 25.9749 37.4444 25.9667 36.9285C25.979 36.9285 25.9913 36.9285 25.9995 36.9242C27.5116 36.8125 29.0605 36.7007 30.4947 36.0817C30.1177 37.3197 29.417 39.5979 29.3022 39.9676C27.5321 42.8992 24.7292 43.4451 24.2744 43.5182Z" fill="#854646"/>
</svg>
