<svg width="28" height="42" viewBox="0 0 28 42" fill="none" xmlns="http://www.w3.org/2000/svg">
<path d="M25.1263 37.3509C24.8999 35.9278 23.7867 29.5241 22.0319 27.4488C22.3338 27.014 22.6168 26.5594 22.9187 26.0455C29.4093 21.381 27.8055 10.5697 27.8055 10.5697C25.9942 2.98007 19.3904 1.08266 19.3904 1.08266C18.1263 0.133956 15.8621 0.0153677 15.8621 0.0153677C5.16402 -0.47875 2.69232 11.2022 2.69232 11.2022C1.8244 19.958 5.84326 24.4248 6.89987 25.4328C6.91874 25.4921 6.95647 25.5711 6.99421 25.6304V27.4488C4.74892 29.5834 3.89987 35.2954 3.71119 36.6987C2.56025 37.1137 -0.213339 38.4182 0.0130759 41.2643C0.0130759 41.5015 0.201755 41.6991 0.447038 41.6991L26.9187 41.9956C27.1263 41.9956 27.315 41.8375 27.3716 41.6201C27.3904 41.5608 27.7301 40.0784 26.9565 38.7937C26.5602 38.1217 25.9565 37.6474 25.1263 37.3509ZM9.74893 15.669L21.598 15.7283C21.6735 15.7283 23.4282 16.005 23.4848 18.9302C23.4848 19.0488 23.2772 21.7565 20.7867 22.2309C20.7867 22.2309 19.6735 22.2507 18.2772 21.6775C17.9376 21.5391 17.598 21.4403 17.2395 21.381C16.598 21.2624 14.3527 20.9462 12.2395 21.8751C12.2018 21.8751 9.31496 22.6657 7.39043 21.0055C7.91874 18.95 8.86213 17.0921 9.74893 15.669ZM12.5602 22.8238C14.4848 21.974 16.5225 22.2507 17.1074 22.3692C17.3904 22.4088 17.6735 22.4878 17.9565 22.6064C19.2961 23.1598 20.4093 23.2191 20.7867 23.2191C20.8433 23.2191 20.881 23.2191 20.8999 23.2191C23.5414 22.7052 24.3716 20.2347 24.447 18.95C24.3716 15.0761 21.7489 14.7598 21.6735 14.7401L10.4093 14.6808C10.447 14.6412 10.4848 14.582 10.5036 14.5227L24.9376 14.4041C25.1829 15.0563 25.7112 16.7758 25.5414 18.9697L25.0697 19.1278C24.881 19.1674 24.7301 19.365 24.7301 19.5627C24.7301 19.6615 24.5602 22.0332 21.9187 23.1401C21.8999 23.1401 20.447 24.0097 17.4282 22.7052C17.3527 22.6657 15.5036 21.8158 13.4282 22.7052C13.3904 22.725 9.78666 24.3062 7.14515 22.389C7.16402 22.2902 7.16402 22.1914 7.18289 22.1123C9.44704 23.6935 12.3716 22.8831 12.5602 22.8238ZM7.27723 23.6737C10.2018 25.2351 13.6357 23.6935 13.7867 23.6144C13.9187 23.5551 14.0319 23.5354 14.1452 23.4958C14.2772 24.0295 14.7489 24.326 15.0697 24.5038L15.2395 24.6027C15.315 24.6422 15.3904 24.6817 15.4848 24.6817C15.6357 24.6817 15.8055 24.6027 15.881 24.4445C16.0131 24.2074 15.9376 23.9109 15.7301 23.7725L15.5414 23.654C15.3904 23.5749 15.164 23.4365 15.0697 23.318C16.1829 23.2389 17.0319 23.6144 17.0508 23.6144C18.4848 24.2271 19.6168 24.4248 20.4659 24.4248C21.7112 24.4248 22.3338 24.0295 22.3338 24.0295C22.598 23.9307 22.8244 23.7923 23.0508 23.6737C19.881 30.6507 15.7112 31.2634 15.7489 31.2634C9.31496 30.4925 7.59798 24.9782 7.27723 23.6737ZM18.0697 6.69584C20.8055 7.60501 23.0131 12.2893 23.5225 13.4554L11.2772 13.5344C11.6168 13.0996 11.8433 12.8624 11.8433 12.8624C14.5602 10.6883 18.0697 6.69584 18.0697 6.69584ZM26.5225 41.0074L0.937604 40.7109C1.12628 38.3984 4.33383 37.509 4.29609 37.509L7.97534 37.4892C8.05081 37.4695 10.0131 37.1928 10.1829 35.4733L10.164 29.9391C11.5225 31.0657 13.3338 31.9551 15.7489 32.2318C15.8621 32.2121 17.4093 32.0144 19.3527 30.4332V35.7302C19.4282 36.4615 19.6735 36.9754 20.0885 37.2916C20.4848 37.5881 20.881 37.6078 21.0697 37.5881L24.1074 38.0624C25.0885 38.2601 25.7867 38.6751 26.164 39.3076C26.5225 39.9005 26.5414 40.5923 26.5225 41.0074Z" fill="#4D8B7F"/>
<path d="M18.5602 26.2629C18.6545 26.1048 18.6734 25.9269 18.5979 25.749C18.5225 25.5909 18.3527 25.4921 18.1828 25.4723L12.7866 25.413C12.6168 25.413 12.447 25.5118 12.3715 25.6897C12.296 25.8478 12.3149 26.0653 12.4093 26.2036C13.3338 27.5081 14.3715 28.1801 15.4659 28.1801C15.4847 28.1801 15.5036 28.1801 15.5225 28.1801C17.2772 28.1603 18.5036 26.342 18.5602 26.2629ZM15.4847 27.1918C14.9187 27.1721 14.3715 26.9349 13.8244 26.421L17.0885 26.4606C16.6923 26.8163 16.1262 27.1721 15.4847 27.1918Z" fill="#4D8B7F"/>
<path d="M18.221 20.0368C18.2965 20.0566 18.3531 20.0763 18.4097 20.0763C18.787 20.0763 19.0512 19.6217 19.2399 19.3055C19.6927 18.5347 19.787 17.665 19.8436 16.993C19.8625 16.7163 19.655 16.4791 19.4097 16.4594C19.1266 16.4396 18.9191 16.657 18.9002 16.914C18.8436 17.7441 18.7116 18.3173 18.4285 18.7916C18.2587 18.3173 18.1266 17.4871 18.0889 16.9733C18.0889 16.6966 17.8625 16.4791 17.5983 16.4989C17.3342 16.5187 17.1455 16.7361 17.1644 17.0128C17.1644 17.1314 17.2776 19.6613 18.221 20.0368Z" fill="#4D8B7F"/>
<path d="M19.9187 16.8549C19.9753 17.5862 20.0319 18.5349 20.0319 19.5231C20.0319 19.7998 20.2395 20.0172 20.5036 20.0172C20.7678 20.0172 20.9753 19.7998 20.9753 19.5231C20.9753 19.286 20.9565 19.0488 20.9565 18.8314C21.1074 19.1278 21.3904 19.4243 21.881 19.7998C21.9565 19.8591 22.0697 19.8987 22.164 19.8987C22.315 19.8987 22.447 19.8196 22.5414 19.701C22.6923 19.4836 22.6546 19.1674 22.4282 19.0092C22.1263 18.7721 21.9565 18.614 21.881 18.5349C21.9942 18.4163 22.1074 18.278 22.1452 18.0803C22.2772 17.4874 22.1074 17.0921 21.9376 16.8747C21.5414 16.3805 20.8621 16.3015 20.3527 16.3015C20.0886 16.3015 19.881 16.5387 19.8999 16.8154C19.8999 16.8154 19.9187 16.8154 19.9187 16.8549C19.9187 16.8351 19.9187 16.8351 19.9187 16.8549ZM21.2772 17.7443C21.2395 17.7838 21.164 17.8629 21.1263 17.9024C21.0697 17.9617 20.9942 18.021 20.9565 18.1001C20.9376 17.8234 20.9187 17.5664 20.8999 17.3095C21.0508 17.349 21.164 17.4083 21.2206 17.4874C21.2584 17.5467 21.2772 17.6652 21.2772 17.7443Z" fill="#4D8B7F"/>
</svg>
