<svg width="54" height="41" viewBox="0 0 54 41" fill="none" xmlns="http://www.w3.org/2000/svg">
<path d="M47.2241 16.403C47.0588 16.403 46.8936 16.2925 46.8936 16.1815C45.4062 12.6302 40.7789 4.08445 32.5157 2.0868C29.7063 1.42092 26.2357 1.53201 22.4347 2.19789C19.7905 2.75279 17.6421 3.52933 15.4937 4.63914C12.6842 6.19286 10.701 8.52354 8.55259 10.9651C7.39575 12.2969 6.23889 13.6285 4.91679 14.9602C4.75152 15.1822 4.42105 15.0712 4.25578 14.9602C4.09052 14.7383 4.09052 14.5165 4.25578 14.4055C5.57789 13.1847 6.73468 11.8532 7.89152 10.5214C9.87468 8.07986 12.0231 5.63799 14.9978 3.97328C17.1463 2.7525 19.6252 1.86487 22.1041 1.42095C26.0705 0.644082 29.7063 0.532993 32.5157 1.30986C41.1094 3.30751 45.7367 12.1859 47.3893 15.8483C47.5546 16.0702 47.3894 16.2921 47.2241 16.403C47.3894 16.403 47.2241 16.403 47.2241 16.403Z" fill="#B34941"/>
<path d="M47.0588 21.1757C46.8936 21.1757 46.8935 21.1763 46.7283 21.0653C46.563 20.9543 37.6388 12.2977 31.8546 10.522C31.8546 10.522 24.9136 9.19007 18.1378 12.4085C18.1378 12.4085 15.4936 14.1845 13.0146 16.1821C12.3536 16.848 11.6925 17.4025 11.1967 17.8464C10.0399 18.9562 9.0483 19.8444 7.56093 20.2884C5.41252 21.0652 3.42939 20.6209 3.26413 20.6209C3.09886 20.6209 3.09886 20.5104 2.93359 20.3994C2.93359 20.2885 2.93359 20.1772 2.93359 20.0662C2.93359 19.9552 3.42936 19.2893 4.91673 18.6234C6.07357 18.1795 8.22201 16.2932 10.0399 14.1846C11.6925 12.2979 17.642 7.19277 25.4094 6.52689C25.7399 6.52689 34.003 5.97147 40.1177 10.8546C40.1177 10.9656 44.2493 15.0721 46.2325 16.6258C48.2156 18.1795 50.1988 19.844 50.1988 19.844C50.3641 19.955 50.364 20.1774 50.364 20.2884C50.364 20.5103 50.1988 20.6209 50.0336 20.6209L47.0588 21.1757ZM28.0536 9.41181C30.3672 9.41181 31.8546 9.74508 32.0199 9.74508C37.8041 11.4098 45.902 19.0676 47.2241 20.2884L48.7114 20.0662C47.8851 19.4003 46.7283 18.4016 45.4062 17.4028C43.423 15.7381 39.4567 11.7424 39.2914 11.5205C33.5072 6.85929 25.2441 7.41424 25.2441 7.41424C17.8073 7.96915 12.0231 12.9636 10.3704 14.7393C8.88307 16.515 6.4041 18.7344 4.91673 19.4003C4.58621 19.5113 4.25569 19.733 4.09043 19.844C4.75148 19.844 5.90833 19.8442 7.06517 19.4003C8.38727 18.9564 9.2136 18.1793 10.3704 17.0695C10.8662 16.6256 11.5273 16.0711 12.1883 15.4052C14.6673 13.2966 17.4767 11.5205 17.4767 11.5205C21.4431 9.85576 25.4094 9.41181 28.0536 9.41181Z" fill="#B34941"/>
<path d="M28.5491 29.2775C28.0533 29.2775 18.6334 28.8337 14.8323 26.6141C14.8323 26.6141 5.74285 21.7304 4.75127 21.1755C4.58601 21.0645 4.42078 20.8427 4.58604 20.6207C4.7513 20.3988 4.91652 20.2882 5.24704 20.3992C6.40388 20.9541 14.9976 25.7263 15.3281 25.9483C18.9639 28.0569 28.5491 28.5006 28.5491 28.5006C28.5491 28.5006 28.5491 28.5006 28.7144 28.5006C33.8375 28.5006 41.1091 24.3942 42.4312 23.5063C43.4228 22.9514 44.7449 21.9525 45.5712 21.2866C44.7449 21.5085 44.0838 21.8416 43.588 22.0635L43.0922 22.3968C39.787 24.1725 34.168 27.1689 28.5491 27.1689C28.3838 27.1689 28.2186 27.1689 28.0533 27.1689C21.4428 27.1689 15.8239 24.949 15.4934 24.838C14.006 24.2831 6.23864 20.8429 6.23864 20.8429C6.07338 20.7319 5.90808 20.5101 6.07334 20.2881C6.23861 20.0662 6.40391 19.955 6.56917 20.066C6.56917 20.066 14.3365 23.5062 15.8239 24.0611C17.807 24.838 22.9302 26.3919 28.0533 26.3919C28.2186 26.3919 28.3838 26.3919 28.5491 26.3919C34.0028 26.2809 39.4565 23.3955 42.5965 21.6199L43.0922 21.2866C43.2575 21.1756 45.5712 19.9553 46.8933 20.3992C47.0585 20.3992 47.2238 20.6208 47.2238 20.7318C47.2238 20.8428 47.2238 21.0645 47.0586 21.1755C46.8933 21.2865 44.4143 23.2844 42.7617 24.2833C40.7786 25.3931 33.8375 29.2775 28.5491 29.2775Z" fill="#B34941"/>
<path d="M26.995 26.67C20.9415 26.67 16.0986 21.8773 16.0986 16.1498C16.0986 14.6303 16.2716 13.6958 16.7905 12.41C16.9634 12.1762 17.1364 12.0591 17.3093 12.176C17.4823 12.2929 17.6553 12.5265 17.4823 12.7603C16.9635 13.9292 16.7905 14.7471 16.7905 16.1498C16.7905 21.5267 21.2874 25.8517 26.8221 25.8517C32.3568 25.8517 36.8537 21.5267 36.8537 16.1498C36.8537 14.9809 36.6807 13.8122 36.1618 12.6433C35.9889 12.4095 36.1618 12.1759 36.3348 12.059C36.5078 11.9421 36.8537 12.0592 36.8537 12.293C37.3725 13.4619 37.5455 14.7477 37.5455 16.0335C37.8914 21.8779 32.8756 26.67 26.995 26.67Z" fill="#B34941"/>
<path fill-rule="evenodd" clip-rule="evenodd" d="M32.1851 13.2965C32.8461 14.2953 33.1767 15.405 33.1767 16.6258C33.1767 20.0662 30.3672 22.7296 26.7314 22.7296C23.2609 22.7296 20.2861 19.9552 20.2861 16.6258C20.2861 13.2963 23.0956 10.522 26.7314 10.522C27.7229 10.522 28.7146 10.7439 29.5409 11.1878H29.3756C27.8883 11.1878 26.5661 12.4085 26.5661 13.8513C26.5661 15.294 27.723 16.5147 29.3756 16.5147C31.0283 16.5147 32.1851 15.294 32.1851 13.8513C32.1851 13.6293 32.1851 13.4075 32.1851 13.2965ZM26.0704 19.6225C26.5662 19.6225 27.0619 20.066 27.0619 20.6209C27.0619 21.1758 26.5662 21.62 26.0704 21.62C25.5746 21.62 25.0788 21.1758 25.0788 20.6209C25.0788 20.066 25.5746 19.6225 26.0704 19.6225ZM29.8714 17.1805C30.6977 17.1805 31.1935 17.8464 31.1935 18.5122C31.1935 19.2891 30.5325 19.844 29.8714 19.844C29.0451 19.844 28.5493 19.1781 28.5493 18.5122C28.5493 17.7354 29.2104 17.1805 29.8714 17.1805Z" fill="#B34941"/>
<path d="M17.8063 18.0675C17.641 18.0675 17.4758 17.9562 17.4758 17.7342C16.98 16.0695 17.1453 14.2944 17.8063 12.7406C18.1368 12.1857 18.3021 11.6307 18.7978 11.1868C18.9631 11.0758 19.2936 11.0758 19.4589 11.1868C19.6242 11.4087 19.6242 11.6305 19.4589 11.7415C19.1284 12.0745 18.7979 12.5182 18.6326 12.9621C17.9716 14.2939 17.8063 15.9589 18.3021 17.4016C18.1368 17.7346 18.1368 17.9565 17.8063 18.0675Z" fill="#B34941"/>
<path d="M19.2945 18.0677C19.1292 18.0677 18.9639 17.9564 18.7987 17.7344C18.1376 15.0709 19.1292 12.0746 21.1124 10.2989C21.2777 10.188 21.6081 10.1881 21.7734 10.41C21.9387 10.632 21.9387 10.8538 21.7734 10.9648C19.9555 12.5185 19.1292 15.0714 19.625 17.5129C19.7903 17.7349 19.625 17.9567 19.2945 18.0677C19.4598 18.0677 19.4598 18.0677 19.2945 18.0677Z" fill="#B34941"/>
<path d="M19.6254 21.9518C19.4601 21.9518 19.4601 21.9524 19.2949 21.8414C18.7991 21.2865 18.3033 20.6206 17.9727 19.7327C17.8075 19.5108 17.9728 19.2883 18.138 19.1773C18.3033 19.0663 18.6338 19.1775 18.6338 19.3995C18.9643 20.1763 19.2949 20.8419 19.7906 21.1749C19.9559 21.3968 19.9559 21.6193 19.7906 21.7303C19.9559 21.9523 19.7907 21.9518 19.6254 21.9518Z" fill="#B34941"/>
<path d="M34.8288 18.2902C34.6636 18.2902 34.3331 18.0678 34.3331 17.8458C34.3331 14.8494 33.0109 12.1861 30.8625 10.5214C30.6972 10.4104 30.6973 10.0776 30.6973 9.96666C30.8625 9.7447 31.0278 9.74459 31.3583 9.85557C33.8373 11.6313 35.1594 14.6274 35.1594 17.8458C35.3246 18.0678 35.1594 18.2902 34.8288 18.2902Z" fill="#B34941"/>
<path d="M36.1506 15.8479C35.9853 15.8479 35.82 15.7372 35.6547 15.5153C35.4895 14.0725 34.8284 12.7404 33.8368 11.6306C33.6716 11.4086 33.6716 11.1868 33.8368 11.0758C34.0021 10.9648 34.3326 10.9649 34.4979 11.1869C35.4895 12.4077 36.1505 13.9616 36.481 15.5153C36.481 15.6263 36.4811 15.8479 36.1506 15.8479Z" fill="#B34941"/>
<path d="M33.5072 22.507C33.342 22.507 33.3419 22.5069 33.1767 22.3959C33.0114 22.1739 33.0114 21.9521 33.1767 21.8411C33.8377 21.1753 34.4988 20.2872 34.8293 19.5103C34.9945 19.2883 35.1598 19.1771 35.3251 19.2881C35.4903 19.3991 35.6556 19.6209 35.4904 19.8429C34.9946 20.8417 34.3335 21.73 33.5072 22.3959C33.6725 22.5069 33.5072 22.507 33.5072 22.507Z" fill="#B34941"/>
<path d="M0.454481 28.3887C0.289218 28.3887 0.28921 28.3886 0.123947 28.2776C-0.0413157 28.0557 -0.0413157 27.8338 0.123947 27.7229C1.11552 26.946 2.10711 26.0585 3.09868 25.2816C3.26395 25.1706 3.59443 25.1701 3.75969 25.392C3.92495 25.614 3.92495 25.8365 3.75969 25.9475C2.76811 26.7243 1.77653 27.5009 0.784951 28.3887C0.619688 28.2777 0.619743 28.3887 0.454481 28.3887Z" fill="#B34941"/>
<path d="M2.933 30.9408C2.76773 30.9408 2.76773 30.9414 2.60246 30.8304C2.4372 30.6085 2.4372 30.386 2.60246 30.275C3.09825 29.8311 3.42881 29.3872 3.9246 28.9433C4.25512 28.4993 4.75088 28.0555 5.24667 27.6116C5.41193 27.5006 5.74247 27.5006 5.90773 27.6116C6.073 27.8335 6.073 28.0553 5.90773 28.1663C5.41194 28.4993 5.08142 28.9437 4.7509 29.3876C4.25511 29.8315 3.92455 30.2754 3.42876 30.7193C3.09824 30.9413 3.09826 30.9408 2.933 30.9408Z" fill="#B34941"/>
<path d="M6.23964 32.9389C6.07437 32.9389 6.07437 32.9388 5.9091 32.8279C5.74384 32.7169 5.74384 32.3834 5.9091 32.2724C6.23963 31.8285 6.57018 31.3846 6.9007 30.9407C7.23123 30.6078 7.39648 30.2752 7.72701 29.9422C7.89227 29.7203 8.22281 29.7202 8.38807 29.8312C8.55333 29.9421 8.55333 30.2749 8.38807 30.3859C8.05755 30.7189 7.89223 31.0521 7.56171 31.3851C7.23118 31.829 6.9007 32.2728 6.57017 32.7168C6.40491 32.9387 6.4049 32.9389 6.23964 32.9389Z" fill="#B34941"/>
<path d="M8.88346 35.8248C8.7182 35.8248 8.71819 35.8254 8.55293 35.7144C8.38767 35.6034 8.3877 35.2699 8.3877 35.159C8.71822 34.715 9.04871 34.1601 9.37923 33.7162C9.70976 33.2722 10.0403 32.7173 10.3708 32.2734C10.5361 32.0514 10.7014 32.052 11.0319 32.163C11.1972 32.2739 11.1971 32.6067 11.1971 32.7177C10.8666 33.1616 10.5361 33.6055 10.2055 34.0494C9.87501 34.6043 9.54452 35.0483 9.214 35.4922C9.04873 35.7142 9.04873 35.8248 8.88346 35.8248Z" fill="#B34941"/>
<path d="M12.1892 38.1553C12.0239 38.1553 12.0239 38.1551 11.8587 38.0442C11.6934 37.9332 11.6934 37.6004 11.6934 37.4894C12.0239 37.1565 12.1892 36.7128 12.3544 36.3799C12.685 35.9359 12.8502 35.6025 13.1807 35.1586C13.346 34.9366 13.5113 34.9365 13.8418 35.0475C14.0071 35.1584 14.0071 35.4919 14.0071 35.6029C13.6766 35.9359 13.5113 36.3795 13.346 36.7124C13.1808 37.0454 12.8503 37.489 12.5197 37.822C12.5197 38.0439 12.3545 38.1553 12.1892 38.1553Z" fill="#B34941"/>
<path d="M16.3209 40.0412H16.1556C15.9903 39.9302 15.8251 39.7083 15.9903 39.4864C16.4861 38.5985 16.8166 37.5996 17.3124 36.6008L17.6429 35.7134C17.8082 35.4915 17.9735 35.3803 18.1388 35.4913C18.304 35.6022 18.4693 35.8241 18.304 36.046L17.9735 36.823C17.6429 37.8218 17.1472 38.8208 16.6514 39.8197C16.6514 39.9306 16.4861 40.0412 16.3209 40.0412Z" fill="#B34941"/>
<path d="M21.443 37.9325C21.1125 37.9325 20.9473 37.7107 20.9473 37.4888C20.9473 37.0449 20.9473 36.7121 20.9473 36.2682V35.9349C20.9473 35.7129 21.1125 35.4912 21.443 35.4912C21.6083 35.4912 21.9388 35.7129 21.7736 35.9349V36.2682C21.7736 36.7121 21.7736 37.0449 21.7736 37.4888C21.9388 37.8217 21.7736 37.9325 21.443 37.9325Z" fill="#B34941"/>
<path d="M25.7389 39.0425C25.4084 39.0425 25.2432 38.8201 25.2432 38.5981C25.2432 37.8212 25.2432 37.0449 25.2432 36.379C25.2432 35.4912 25.2432 34.4924 25.2432 33.6045C25.2432 33.3826 25.4084 33.1602 25.7389 33.1602C25.9042 33.1602 26.2347 33.3826 26.2347 33.6045C26.2347 34.4924 26.2347 35.4912 26.2347 36.379C26.2347 37.1559 26.2347 37.9322 26.2347 38.5981C26.2347 38.8201 26.0694 39.0425 25.7389 39.0425Z" fill="#B34941"/>
<path d="M30.8634 39.4871C30.6981 39.4871 30.5329 39.3764 30.3676 39.1545C30.2024 38.2666 30.2024 37.2678 30.0371 36.38V36.0467C30.0371 35.8247 30.2024 35.603 30.3676 35.603C30.6982 35.603 30.8634 35.7138 30.8634 36.0467V36.38C30.8634 37.2678 31.0287 38.1556 31.1939 39.0434C31.3592 39.2654 31.1939 39.4871 30.8634 39.4871C31.0287 39.4871 31.0287 39.4871 30.8634 39.4871Z" fill="#B34941"/>
<path d="M35.4906 39.8209C35.3253 39.8209 35.16 39.7096 34.9947 39.4876C34.6642 37.9339 34.3337 36.4909 33.8379 35.1592C33.8379 34.9372 33.8379 34.7154 34.1684 34.6044C34.3337 34.4934 34.6643 34.6046 34.6643 34.8266C35.16 36.2693 35.4906 37.7117 35.8211 39.2654C35.8211 39.5984 35.6558 39.8209 35.4906 39.8209Z" fill="#B34941"/>
<path d="M39.6217 37.6009C39.4565 37.6009 39.2912 37.4897 39.2912 37.3787C38.9607 36.7128 38.7954 36.047 38.4649 35.3812C38.2996 34.8263 37.9691 34.3822 37.8038 33.8273C37.6385 33.6053 37.8038 33.3835 37.969 33.2725C38.1343 33.1615 38.4649 33.2727 38.4649 33.4947C38.6301 34.0496 38.9606 34.493 39.1259 35.0479C39.4564 35.7138 39.787 36.3803 39.9522 37.0461C40.1175 37.1571 39.9522 37.4899 39.6217 37.6009C39.787 37.6009 39.6217 37.6009 39.6217 37.6009Z" fill="#B34941"/>
<path d="M43.0914 35.7139C42.9261 35.7139 42.7609 35.6027 42.7609 35.4917C42.2651 34.3819 41.4388 33.2718 40.6124 32.384C40.4472 32.162 40.4472 31.9402 40.7777 31.8292C40.943 31.7182 41.2735 31.7183 41.4388 31.9403C42.0999 32.9391 42.9261 34.0487 43.5872 35.1585C43.7524 35.3804 43.5872 35.6029 43.4219 35.7139C43.2567 35.7139 43.0914 35.7139 43.0914 35.7139Z" fill="#B34941"/>
<path d="M45.736 32.717C45.5707 32.717 45.4055 32.6059 45.4055 32.6059C45.0749 32.162 44.7444 31.8292 44.5792 31.3853C44.2486 31.0524 44.0834 30.608 43.7529 30.2751C43.5876 30.0531 43.5876 29.8313 43.7529 29.7203C43.9181 29.6093 44.2487 29.6094 44.4139 29.8314C44.7444 30.1643 44.9097 30.608 45.2402 30.9409C45.5707 31.2739 45.736 31.7182 46.0665 32.0512C46.2318 32.2731 46.2318 32.4949 46.0665 32.6059C45.9013 32.7169 45.736 32.717 45.736 32.717Z" fill="#B34941"/>
<path d="M49.0429 30.3856C48.8776 30.3856 48.8776 30.3855 48.7123 30.2745C48.3818 29.9415 48.0513 29.609 47.7208 29.276C47.3902 28.9431 47.0597 28.7209 46.8945 28.388C46.7292 28.166 46.7292 27.9442 46.8945 27.8332C47.0597 27.7223 47.3903 27.7223 47.5555 27.8332C47.886 28.1662 48.2166 28.3883 48.3818 28.7213C48.7123 29.0542 49.0429 29.3869 49.5386 29.8308C49.7039 30.0528 49.7039 30.2746 49.5386 30.3856C49.2081 30.2746 49.2081 30.3856 49.0429 30.3856Z" fill="#B34941"/>
<path d="M52.0155 28.1672C52.0155 28.1672 51.8502 28.1677 51.8502 28.0568C51.1892 27.6128 50.5282 27.1689 49.8671 26.614C49.7018 26.503 49.7018 26.1695 49.8671 26.0585C50.0324 25.8366 50.3629 25.8371 50.5282 25.9481C51.1892 26.392 51.8503 26.9469 52.5113 27.2798C52.6766 27.3908 52.8419 27.7236 52.6766 27.8346C52.3461 28.0565 52.1808 28.1672 52.0155 28.1672Z" fill="#B34941"/>
<path d="M53.5048 24.6162L52.5132 24.2829C52.0174 24.061 51.5216 23.8391 51.0258 23.7282C50.8606 23.6172 50.6953 23.3954 50.6953 23.1734C50.8606 22.9514 51.0259 22.8402 51.1911 22.9512C51.6869 23.1732 52.1827 23.284 52.8437 23.506L53.67 23.8392C53.8353 23.9502 54.0006 24.172 54.0006 24.394C53.8353 24.505 53.6701 24.6162 53.5048 24.6162Z" fill="#B34941"/>
</svg>
