<svg width="43" height="35" viewBox="0 0 43 35" fill="none" xmlns="http://www.w3.org/2000/svg">
<path d="M15.0095 7.30347C15.094 7.38808 15.1954 7.42191 15.2968 7.42191C15.4151 7.42191 15.5165 7.37114 15.6011 7.28653C15.7532 7.11731 15.7532 6.84657 15.5842 6.69427C14.6038 5.76357 13.4882 4.71441 12.3726 3.73293C12.2036 3.58064 11.9332 3.59757 11.781 3.76679C11.6289 3.936 11.6458 4.20674 11.8148 4.35904C12.9135 5.34051 14.0291 6.38968 15.0095 7.30347Z" fill="#337872"/>
<path d="M19.033 5.17119C19.0837 5.35733 19.2527 5.4758 19.4386 5.4758C19.4724 5.4758 19.5232 5.47581 19.557 5.45889C19.7767 5.3912 19.9119 5.15426 19.8443 4.93428C19.5401 3.90202 19.3203 2.83592 19.1006 1.82059C18.9992 1.32984 18.8809 0.839117 18.7794 0.33145C18.7287 0.111461 18.509 -0.0408436 18.2724 0.0099231C18.0526 0.0606898 17.9005 0.297581 17.9512 0.51757C18.0695 1.00831 18.1709 1.49908 18.2724 1.98982C18.4921 3.039 18.7287 4.10508 19.033 5.17119Z" fill="#337872"/>
<path d="M23.7992 5.45901C23.8499 5.47593 23.8837 5.47592 23.9344 5.47592C24.1203 5.47592 24.2725 5.35747 24.3401 5.18825C24.6443 4.2406 24.881 3.24218 25.1176 2.29454C25.2359 1.82072 25.3543 1.32999 25.4726 0.856165C25.5233 0.636176 25.405 0.399269 25.1683 0.331581C24.9317 0.280814 24.712 0.416179 24.6443 0.636168C24.526 1.12691 24.4077 1.60074 24.2894 2.09148C24.0696 3.0222 23.833 3.98676 23.5287 4.91749C23.4611 5.1544 23.5795 5.39132 23.7992 5.45901Z" fill="#337872"/>
<path d="M27.907 7.79431C28.0253 7.79431 28.1267 7.74354 28.2112 7.65893L28.7183 7.13435C29.5296 6.28824 30.3579 5.42521 31.203 4.59602C31.372 4.4268 31.372 4.17298 31.2199 4.00376C31.0509 3.83454 30.7973 3.83452 30.6283 3.98682C29.7663 4.81601 28.9549 5.67905 28.1267 6.54209L27.6196 7.06667C27.4506 7.23589 27.4675 7.50663 27.6365 7.65893C27.6872 7.74354 27.7886 7.79431 27.907 7.79431Z" fill="#337872"/>
<path d="M2.7895 18.3029C2.07958 18.3029 1.50488 18.8951 1.50488 19.6397C1.50488 20.3674 2.07958 20.9766 2.7895 20.9766C3.49941 20.9766 4.0741 20.3843 4.0741 19.6397C4.0741 18.8951 3.49941 18.3029 2.7895 18.3029ZM2.7895 20.1135C2.55286 20.1135 2.35002 19.8936 2.35002 19.6228C2.35002 19.352 2.55286 19.132 2.7895 19.132C3.02613 19.132 3.22896 19.352 3.22896 19.6228C3.22896 19.8936 3.04304 20.1135 2.7895 20.1135Z" fill="#337872"/>
<path d="M40.1782 21.0102C40.8881 21.0102 41.4628 20.4179 41.4628 19.6734C41.4628 18.9457 40.8881 18.3365 40.1782 18.3365C39.4682 18.3365 38.8936 18.9288 38.8936 19.6734C38.8936 20.4179 39.4682 21.0102 40.1782 21.0102ZM40.1782 19.1996C40.4148 19.1996 40.6176 19.4195 40.6176 19.6903C40.6176 19.961 40.4148 20.181 40.1782 20.181C39.9415 20.181 39.7387 19.961 39.7387 19.6903C39.7387 19.4195 39.9415 19.1996 40.1782 19.1996Z" fill="#337872"/>
<path d="M38.0143 7.4726C37.9129 7.38799 37.7777 7.37107 37.6424 7.42184C36.9832 7.6249 35.1239 8.38642 34.0591 9.02947C33.1294 9.57098 33.0111 10.5017 33.0787 11.0601C32.4702 11.2124 31.5744 11.3986 30.6954 11.4155L30.1884 11.4324C29.0897 11.4832 28.9206 11.4832 27.0951 10.5186C24.8302 9.31713 23.2244 9.38481 22.0919 9.58788C21.906 9.62172 21.7032 9.70633 21.4834 9.82479C19.2861 9.33405 16.6662 10.3494 14.9252 11.0094C14.5195 11.1617 14.1477 11.314 13.8603 11.3986C12.8123 11.737 10.6826 11.314 9.66845 11.0601C9.71916 10.5355 9.46562 9.96018 9.3642 9.75711C9.31349 9.6725 9.24588 9.5879 9.14446 9.55405L5.17232 7.92951C5.0371 7.87874 4.88498 7.89566 4.76666 7.98027C-0.084418 11.5678 9.58117e-05 20.9596 9.58117e-05 21.3658C9.58117e-05 21.4504 0.0338935 21.535 0.0846017 21.6027C0.710002 22.4826 3.7863 22.9226 4.69905 23.0241C4.90188 23.058 5.12161 23.0918 5.34135 23.0918C5.71321 23.0918 6.08507 23.0072 6.3048 22.7195C6.35551 22.6519 6.35552 22.5842 6.38932 22.4995C7.25136 22.8211 9.43182 23.6672 10.277 24.2256C10.3108 24.2425 10.3446 24.2425 10.3615 24.2594C10.0065 24.6148 9.76986 25.0717 9.75296 25.5794C9.73606 26.1209 9.93889 26.6455 10.3108 27.0347L10.5305 27.2547C10.9023 27.627 11.4094 27.8469 11.9334 27.8469H11.9503C12.1024 27.8469 12.2546 27.7962 12.4236 27.7454C12.4236 27.7962 12.3898 27.8469 12.3898 27.8977C12.3729 28.4392 12.5757 28.9808 12.9645 29.37L13.4378 29.8438C13.8265 30.233 14.3167 30.4192 14.8238 30.4192C15.1111 30.4192 15.3816 30.3515 15.6351 30.2161C15.6351 30.233 15.6182 30.2499 15.6182 30.2838C15.6013 30.8253 15.8041 31.3668 16.1929 31.756L16.4971 31.4514L16.2774 31.8406C16.6493 32.2129 17.1563 32.399 17.6634 32.399C17.8325 32.399 18.0184 32.3483 18.1874 32.2975C18.1874 32.3483 18.1536 32.399 18.1367 32.4667C18.1198 33.0082 18.3395 33.5328 18.7283 33.9051C19.0833 34.2436 19.5396 34.4128 20.0129 34.4128C20.4693 34.4128 20.9257 34.2436 21.2637 33.9221L22.2948 32.9744C22.2948 32.9744 22.2948 32.9575 22.3117 32.9575C22.6159 33.0929 22.9202 33.1775 23.2244 33.1775C23.6301 33.1775 24.0189 33.059 24.3569 32.839C24.9147 32.4837 25.2189 31.8575 25.2697 31.1468C25.4556 31.1976 25.6584 31.2314 25.8274 31.2314C25.8951 31.2314 25.9627 31.2314 26.0303 31.2314C26.6557 31.1637 27.1966 30.8083 27.6022 30.1822C27.7375 29.9622 27.8389 29.7423 27.9065 29.5053C28.1431 29.59 28.3967 29.6576 28.6671 29.6576C29.0559 29.6576 29.4615 29.5392 29.8841 29.2515C30.2729 28.9977 30.5095 28.6423 30.6109 28.1685C30.6616 27.9316 30.6785 27.6947 30.6785 27.4578C30.6954 27.4578 30.7123 27.4747 30.7292 27.4747C30.9321 27.5254 31.1349 27.5593 31.3039 27.5593C31.8448 27.5593 32.2167 27.3224 32.4364 27.1024C33.1801 26.3578 33.1632 24.9533 32.9773 24.1072C33.6027 23.8026 34.5154 23.3626 35.2254 23.1426C35.6648 23.0072 36.0367 22.9057 36.3409 22.8211C36.7128 23.261 37.2199 23.4472 37.7608 23.4472C39.282 23.4472 41.1413 22.178 41.4118 21.975C42.409 21.2981 42.9161 20.7566 42.8992 20.4181C43.5753 11.534 38.2509 7.6249 38.0143 7.4726ZM4.83427 22.178C3.21161 21.975 1.3354 21.5519 0.862125 21.1796C0.879028 19.9443 1.09876 11.9739 5.0878 8.79256L8.68809 10.2648C8.80641 10.5355 8.87402 10.8401 8.85712 10.9755C8.28242 11.5001 5.20613 14.6984 5.59489 22.0596C5.59489 22.1103 5.6456 22.1273 5.6625 22.178C5.6625 22.178 5.51038 22.2965 4.83427 22.178ZM11.9503 26.9839C11.6461 26.9839 11.3587 26.8655 11.1559 26.6455L10.9362 26.4255C10.7164 26.2055 10.615 25.9009 10.615 25.5963C10.6319 25.2917 10.7671 25.004 10.9869 24.801L12.3729 23.5826C12.5926 23.3964 12.8462 23.2949 13.1166 23.2949C13.4208 23.2949 13.7082 23.4134 13.9279 23.6503L14.0632 23.7856C14.4688 24.2256 14.4688 24.9194 14.0462 25.3425L12.7447 26.6455C12.5419 26.8655 12.2208 26.967 11.9503 26.9839ZM14.0462 29.2515L13.573 28.7777C13.3532 28.5577 13.2349 28.2531 13.2518 27.9485C13.2687 27.6439 13.4039 27.3393 13.6406 27.1362L15.4492 25.5794C15.652 25.3932 15.9225 25.3086 16.176 25.3086C16.4633 25.3086 16.7676 25.4271 16.9873 25.664L17.3423 26.0363C17.7648 26.4763 17.7479 27.187 17.3085 27.6101L15.6182 29.2685C15.1787 29.6915 14.4688 29.6746 14.0462 29.2515ZM16.8859 31.2314L16.8014 31.1468C16.5817 30.9268 16.4633 30.6222 16.4633 30.3007C16.4802 29.9792 16.6155 29.6915 16.8521 29.4884L18.0691 28.4562C18.2719 28.287 18.5255 28.1854 18.7959 28.1854C19.1002 28.1854 19.3875 28.3039 19.6072 28.5408C19.8101 28.7608 19.9284 29.0315 19.9284 29.3361C19.9284 29.6238 19.7932 29.9115 19.5903 30.1315L18.4579 31.2314C18.0184 31.6714 17.3254 31.6544 16.8859 31.2314ZM20.7059 33.3128C20.3172 33.6682 19.7087 33.6682 19.3199 33.3128C19.1002 33.1098 18.9818 32.8221 18.9987 32.5175C19.0156 32.2129 19.1509 31.9422 19.3875 31.756L20.4693 30.876C20.6552 30.7407 20.8581 30.656 21.0778 30.656C21.3313 30.656 21.568 30.7407 21.7539 30.9268C21.9398 31.113 22.0581 31.3837 22.0581 31.6544C22.0581 31.9252 21.9398 32.1791 21.737 32.3652L20.7059 33.3128ZM31.8617 26.5101C31.7941 26.5778 31.5575 26.8316 30.9659 26.6624C29.8672 26.3747 28.8699 25.4101 28.0079 24.5133C27.8389 24.344 27.5853 24.3441 27.4163 24.4964C27.2473 24.6656 27.2473 24.9194 27.3994 25.0887C28.1093 25.8332 28.9206 26.6286 29.8503 27.1024C29.8503 27.1024 29.8503 27.1024 29.8503 27.1193C29.8672 27.407 29.8841 27.6947 29.8165 27.9654C29.7489 28.2192 29.6306 28.4054 29.4277 28.5408C28.4474 29.2007 27.5853 28.4731 26.4529 27.3901C26.2669 27.2039 26.081 27.0347 25.912 26.8824C25.7429 26.7301 25.4725 26.747 25.3204 26.9162C25.1682 27.0855 25.1851 27.3562 25.3542 27.5085C25.5232 27.6439 25.6922 27.8132 25.8612 27.9993C26.2331 28.3547 26.6726 28.7777 27.1628 29.0992C27.1121 29.3023 27.0444 29.5053 26.9092 29.7084C26.6388 30.1315 26.3176 30.3514 25.9627 30.3853C25.3204 30.436 24.4245 29.9453 23.4611 28.9469C23.292 28.7777 23.0385 28.7777 22.8695 28.9469C22.7004 29.1162 22.7004 29.3699 22.8695 29.5392C23.4273 30.1145 23.9682 30.5376 24.4583 30.8253C24.509 31.4006 24.3231 31.8744 23.9174 32.1283C23.5963 32.3483 23.1737 32.3652 22.785 32.2467C22.8526 32.0606 22.9202 31.8575 22.9202 31.6544C22.9202 31.1637 22.7342 30.673 22.3624 30.3176C21.906 29.8777 21.2806 29.7253 20.689 29.8607C20.7397 29.6915 20.7904 29.5392 20.7904 29.37C20.7904 28.8454 20.6045 28.3377 20.2327 27.9654C19.7425 27.4578 19.0325 27.2885 18.3733 27.4408C18.61 26.7639 18.4748 25.9855 17.9508 25.444L17.5958 25.0717C16.9535 24.4118 15.9901 24.3102 15.2125 24.7502C15.2632 24.2087 15.1111 23.6503 14.7055 23.2103L14.5871 23.0749C13.8603 22.2965 12.6602 22.2288 11.8489 22.9395L10.9362 23.7518C10.9024 23.6672 10.8685 23.5657 10.784 23.5149C9.71915 22.8042 6.96401 21.7888 6.44003 21.5858C6.23719 15.5953 8.46836 12.617 9.24588 11.8047C9.51633 11.8724 11.3249 12.3631 12.8631 12.3631C13.3363 12.3631 13.7927 12.3124 14.1646 12.1939C14.4688 12.0924 14.8576 11.9401 15.2802 11.7878C16.6831 11.2463 18.7114 10.4679 20.4862 10.5355C19.9791 10.9248 19.4213 11.3986 18.7621 11.9909C18.086 12.5831 17.4606 13.1416 16.9873 13.4631C16.4126 13.8692 15.9055 14.0554 15.4323 14.2246C14.8745 14.4276 14.3336 14.6307 13.8434 15.1553C13.4377 15.5784 13.4209 15.9845 13.4547 16.2383C13.5561 16.8644 14.1815 17.2029 14.3336 17.2706C14.435 17.3044 16.8859 17.9644 20.6214 16.4922C22.7004 18.0828 30.8138 24.2425 32.0646 24.4964C32.0984 24.4964 32.1153 24.4964 32.1491 24.4964C32.1829 24.4964 32.1998 24.4794 32.2336 24.4794C32.335 25.224 32.2674 26.1209 31.8617 26.5101ZM34.9887 22.3473C33.9576 22.6857 32.5547 23.3964 32.0984 23.6333C30.8645 23.1257 24.695 18.5567 20.9426 15.6799C20.875 15.6291 20.7735 15.5953 20.689 15.5953C20.6383 15.5953 20.5876 15.6122 20.52 15.6291C17.0211 17.0675 14.6885 16.5091 14.6378 16.5091C14.5364 16.4583 14.3167 16.2722 14.2829 16.1029C14.266 16.0014 14.3167 15.883 14.4519 15.7307C14.8069 15.3584 15.1787 15.2061 15.7027 15.0199C16.2098 14.8338 16.7676 14.6307 17.4437 14.1569C17.9508 13.8015 18.5931 13.2262 19.2861 12.6339C20.3003 11.737 21.7032 10.5186 22.2441 10.4171C23.2582 10.2479 24.6781 10.1802 26.7064 11.2632C28.684 12.3124 28.9714 12.3293 30.2391 12.2785L30.7292 12.2616C32.0646 12.2108 33.4168 11.8555 33.9239 11.7032C36.9494 14.14 36.8142 20.4181 36.7297 21.8903C36.3916 21.9411 35.7662 22.0934 34.9887 22.3473ZM42.1048 20.2827C42.1048 20.2997 41.9695 20.6043 40.9554 21.2811C40.2793 21.7719 38.4031 22.838 37.4058 22.5165C37.4903 22.4488 37.541 22.3642 37.5579 22.2457C37.5917 21.9073 38.2678 13.7846 34.2619 10.874C34.1605 10.8063 34.0422 10.7894 33.9239 10.8063C33.9069 10.5355 33.9576 10.0448 34.4985 9.7402C35.4113 9.19869 36.9663 8.53872 37.6931 8.28489C38.5721 9.01254 42.6287 12.82 42.1048 20.2827Z" fill="#337872"/>
</svg>
