<svg width="23" height="43" viewBox="0 0 23 43" fill="none" xmlns="http://www.w3.org/2000/svg">
<path d="M7.20487 10.3252C6.78596 10.3252 6.4668 10.9442 6.4668 11.7179C6.4668 12.4917 6.80591 13.1107 7.20487 13.1107C7.62378 13.1107 7.94295 12.4917 7.94295 11.7179C7.94295 10.9442 7.62378 10.3252 7.20487 10.3252Z" fill="#27696F"/>
<path d="M6.48638 8.17833C5.74831 8.46848 5.24961 8.93272 5.3693 9.22286C5.48898 9.49367 6.18716 9.49367 6.92524 9.20352C7.66331 8.91337 8.16201 8.44914 8.04232 8.15899C7.92264 7.86884 7.22446 7.88818 6.48638 8.17833Z" fill="#27696F"/>
<path d="M14.2465 8.85511C15.0244 8.99052 15.7226 8.87446 15.7825 8.58431C15.8423 8.29416 15.2439 7.9073 14.4659 7.77189C13.6879 7.61715 12.9898 7.75255 12.9299 8.0427C12.8701 8.35219 13.4685 8.70037 14.2465 8.85511Z" fill="#27696F"/>
<path d="M14.6053 10.2672C14.1864 10.2672 13.8672 10.8862 13.8672 11.6599C13.8672 12.4337 14.2063 13.0526 14.6053 13.0526C15.0042 13.0526 15.3433 12.4337 15.3433 11.6599C15.3433 10.8862 15.0242 10.2672 14.6053 10.2672Z" fill="#27696F"/>
<path d="M10.3568 14.5034C10.4765 14.542 10.5962 14.5807 10.7358 14.6194C10.9552 14.6774 11.1747 14.7355 11.3542 14.8128C11.434 14.8515 11.4938 14.8709 11.5736 14.8709C11.7532 14.8709 11.9327 14.7742 12.0125 14.6194C12.1322 14.3873 12.0524 14.0971 11.7931 13.9617C11.5138 13.8263 11.2545 13.749 10.9951 13.6716C10.8954 13.6523 10.7957 13.6136 10.676 13.5749C10.6959 13.4201 10.7358 13.246 10.7957 13.072C10.8355 12.8785 10.8954 12.7044 10.9153 12.5303L11.0749 11.6599C11.1148 11.3891 10.9353 11.1376 10.676 11.0989C10.4166 11.0603 10.1374 11.2344 10.0975 11.4858L9.93789 12.3949C9.898 12.5497 9.8581 12.7044 9.8182 12.8592C9.73841 13.1687 9.65862 13.4975 9.63867 13.8263C9.63867 14.2906 10.1374 14.426 10.3568 14.5034Z" fill="#27696F"/>
<path d="M13.8672 16.8827C14.0866 16.7086 14.1066 16.4185 13.947 16.2057C13.7675 15.9929 13.4483 15.9542 13.2488 16.1283C12.2714 16.8827 10.6955 17.1922 9.59835 16.3411C9.37892 16.167 9.05976 16.2057 8.90017 16.3991C8.72064 16.6119 8.76054 16.9214 8.97996 17.0761C9.6183 17.5984 10.3963 17.8112 11.1543 17.8112C12.1517 17.8112 13.1491 17.4437 13.8672 16.8827Z" fill="#27696F"/>
<path d="M23.0037 35.2006C22.1858 31.3706 20.969 28.063 19.2934 25.0648C19.2335 24.968 19.1538 24.8907 19.0341 24.852L15.9621 23.7107L15.7028 20.8479C15.7028 20.7706 15.6429 20.7319 15.603 20.6738C16.76 19.8034 17.5579 18.6235 17.9569 17.9078C18.4356 17.0567 18.5753 16.1669 18.5952 15.2771C18.8545 15.3738 19.0939 15.4318 19.3532 15.4318C19.5926 15.4318 19.812 15.3931 20.0514 15.3158C20.4304 15.1804 20.7895 14.9482 21.1486 14.6194C21.4478 14.3099 21.6473 13.9424 21.727 13.5362C21.7869 13.2267 21.8866 12.1435 21.1884 11.5245C20.7695 11.157 20.1911 11.0216 19.5727 11.1376C19.5328 11.1376 19.5128 11.157 19.4729 11.1763C19.812 9.66754 19.7921 7.24964 19.7921 6.9208C19.6525 4.94779 18.0965 3.80654 17.5978 3.49705C14.9248 -2.01577 7.64378 0.634254 7.56399 0.653598C5.62904 1.46601 4.71143 3.03281 4.43216 3.63245C2.51716 4.21275 2.25783 5.99233 2.27778 5.99233C1.5796 7.92665 2.39747 10.654 2.71664 11.5825C2.65679 11.5632 2.59695 11.5438 2.5371 11.5245C1.95861 11.3891 1.40007 11.4858 0.961215 11.8146C0.482464 12.1628 0.203193 12.7238 0.163297 13.3234C0.123401 14.5614 0.841528 15.5866 1.95861 15.9154C2.21794 15.9928 2.47726 16.0315 2.69669 16.0315C2.97596 16.0315 3.21534 15.9734 3.43476 15.8574C3.43476 15.8961 3.43476 15.9154 3.43476 15.9541L3.47466 16.2442C3.55445 17.0373 3.65419 17.9271 4.13294 18.6621C4.95081 19.9388 6.22748 20.7899 7.80337 21.3122V23.2852L3.09565 25.2195C2.97596 25.2775 2.87622 25.3742 2.81638 25.4903C2.69669 25.8191 -0.115975 33.363 0.00371319 36.3805C0.00371319 36.5353 0.103453 36.69 0.223141 36.7674C0.342829 36.8448 2.21794 38.0247 4.01325 39.0112L4.15289 41.6419C4.17284 41.8353 4.29252 42.0094 4.492 42.0675C4.67154 42.1255 7.42436 42.9959 10.8754 42.9959C13.1494 42.9959 15.7427 42.6091 18.0965 41.3517C18.2561 41.2744 18.3558 41.1196 18.3558 40.9455L18.3957 38.8371C20.6299 37.4831 22.6845 35.7809 22.8042 35.6842C22.9638 35.5488 23.0237 35.3747 23.0037 35.2006ZM11.9525 22.2213C10.5761 22.318 9.77822 21.9892 9.31941 21.6797C9.85801 21.7571 10.3966 21.8344 10.995 21.8538C11.0748 21.8538 11.1546 21.8538 11.2145 21.8538C12.0523 21.8538 12.7704 21.7764 13.3888 21.6603C12.6707 22.1246 11.9525 22.2213 11.9525 22.2213ZM8.80077 23.5173V22.4921C9.08004 22.6855 9.45905 22.879 9.9378 23.0144C9.9378 23.3239 9.95775 23.6334 9.99764 23.9235C9.9777 24.0589 9.9777 24.1943 9.99764 24.3297C9.37926 24.0589 8.9803 23.7107 8.80077 23.5173ZM11.015 24.6199C11.015 24.3684 10.995 24.0976 10.9551 23.8461C10.9352 23.6334 10.9152 23.4012 10.9152 23.1885C11.0948 23.1885 11.2743 23.2078 11.4538 23.2078C11.6334 23.2078 11.8329 23.2078 12.0323 23.1885C12.0523 23.1885 12.3116 23.1498 12.6906 23.0531V23.2465C12.6906 23.672 12.7106 24.1169 12.7505 24.5231C12.7505 24.5425 12.7704 24.5425 12.7704 24.5425C12.1121 24.6972 11.5137 24.6972 11.015 24.6199ZM13.7479 24.2523C13.708 23.9235 13.708 23.5753 13.688 23.2271L13.6681 22.7436C13.6681 22.7049 13.6282 22.6855 13.6282 22.6662C14.0072 22.4534 14.4061 22.1633 14.7652 21.7571L14.9447 23.7301C14.9248 23.7301 14.9048 23.7301 14.8849 23.7301C14.4859 23.9428 14.1069 24.1169 13.7479 24.2523ZM19.7522 12.0854C19.9716 12.0468 20.2708 12.0274 20.4903 12.2402C20.7496 12.4917 20.7895 13.0139 20.7296 13.4008C20.6898 13.5942 20.59 13.7877 20.4304 13.9424C20.1911 14.1552 19.9517 14.3293 19.6924 14.4066C19.453 14.5034 19.2136 14.484 18.9742 14.3873C19.1338 14.0004 19.4729 13.6716 19.8918 13.5362C20.1512 13.4588 20.2908 13.188 20.211 12.9365C20.1312 12.6851 19.8519 12.5497 19.5926 12.6271C19.2535 12.7238 18.9543 12.9365 18.695 13.1687C18.7149 13.0333 18.7348 12.9172 18.7747 12.8011C18.9144 12.453 19.3333 12.1628 19.7522 12.0854ZM2.23788 14.9869C1.55965 14.7935 1.14075 14.1552 1.18064 13.3814C1.20059 13.0526 1.34023 12.7625 1.5796 12.6077C1.69929 12.4917 1.93867 12.3756 2.27778 12.453C2.55705 12.5303 2.65679 12.6077 2.91612 12.9172C2.99591 13.0139 3.09565 13.0526 3.19539 13.072C3.21534 13.2074 3.21534 13.3621 3.23528 13.4975C2.91612 13.2654 2.55705 13.072 2.21794 12.9172C1.97856 12.8011 1.67934 12.9172 1.55965 13.1687C1.43997 13.4201 1.55965 13.6909 1.81898 13.807C2.45731 14.0778 2.85627 14.3679 3.1156 14.8515C2.95601 15.045 2.73658 15.1223 2.23788 14.9869ZM4.95081 18.1592C4.61169 17.5983 4.5319 16.8632 4.45211 16.1475L4.43216 15.838C4.25263 14.1745 4.13294 12.4917 4.0332 10.8475C4.0332 10.7701 3.97336 10.6927 3.93346 10.6347C4.15289 9.82229 4.59174 8.75841 4.9907 7.98468C5.23008 7.07555 5.66893 6.63066 5.88836 6.45657C6.74612 6.57263 7.72357 6.16642 7.82331 6.12773C9.04014 5.66349 13.1694 5.74087 14.6256 5.7989L15.8424 5.95364L16.8198 6.88212L17.4981 11.3504C17.4582 12.0274 17.4981 12.7238 17.5579 13.4008C17.6577 14.8515 17.7574 16.2442 17.0792 17.4435C16.3012 18.8362 15.224 19.9195 14.1069 20.4224C13.3888 20.7512 12.3715 20.8866 11.015 20.8866C8.14248 20.8479 6.10779 19.9195 4.95081 18.1592ZM17.3784 40.6361C12.5709 43.054 6.58654 41.6226 5.15029 41.2357L5.05055 39.5335C5.56919 39.785 6.04795 40.0171 6.42696 40.1331C6.4868 40.1525 6.5267 40.1525 6.58654 40.1525C6.74612 40.1525 6.88576 40.0751 6.96555 39.959C6.9855 39.959 6.9855 39.9977 7.00545 39.9977L7.30467 40.1138C7.4443 40.1718 7.56399 40.2105 7.70363 40.2685C7.72357 40.2879 7.72357 40.3266 7.74352 40.3459C7.96295 40.7134 8.38186 40.9069 8.86061 40.9842C8.88056 41.0809 8.92045 41.197 9.00025 41.2744C9.53884 41.7193 10.0774 41.874 10.616 41.874C11.0748 41.874 11.5336 41.758 11.9525 41.6226L12.2717 41.5258C12.531 41.4485 12.8103 41.3711 13.0696 41.255C13.329 41.139 13.5683 41.0229 13.8077 40.8875C14.2266 40.6747 14.6256 40.4813 15.0445 40.3459C15.0644 40.3459 15.0644 40.3072 15.0844 40.3072C15.1243 40.3072 15.1442 40.3266 15.1841 40.3266C15.224 40.3266 15.2839 40.3266 15.3237 40.3072C15.9621 40.1331 16.7002 39.785 17.4183 39.3981L17.3784 40.6361ZM11.394 39.5915L10.9352 39.7463C10.3966 39.9397 9.91785 40.0944 9.35931 40.1138C9.33936 40.1138 9.31941 40.1138 9.29946 40.1138C9.83806 40.0558 10.4165 39.901 10.9152 39.6495C11.1347 39.5528 11.4538 39.4174 11.5536 39.1079C11.6334 38.9145 11.6334 38.7017 11.6334 38.5663C11.6134 38.2375 11.5336 37.986 11.3342 37.8313C11.0549 37.5992 10.7158 37.6185 10.4764 37.6379C10.3368 37.6572 10.1971 37.6572 10.1173 37.6185C10.0575 37.5992 10.0176 37.5798 9.99764 37.5605C10.1173 37.4638 10.257 37.3864 10.3966 37.3477C10.8155 37.1736 11.1945 37.2703 11.7531 37.4638C12.0722 37.5605 12.4313 37.6959 12.8303 37.7346C13.1494 37.7539 13.4686 37.6765 13.7479 37.5992L14.5258 39.5141C14.1069 39.6689 13.7279 39.843 13.3688 40.0364C13.1494 40.1525 12.91 40.2685 12.6707 40.3652C12.4113 40.462 12.1919 40.5393 11.9725 40.5974L11.6334 40.6941C11.1546 40.8488 10.7756 40.9069 10.4564 40.8875C10.7357 40.8101 10.995 40.7328 11.2544 40.6361L11.6932 40.4813C11.9525 40.4039 12.0922 40.1331 12.0124 39.8623C11.9326 39.6302 11.6533 39.4948 11.394 39.5915ZM13.708 36.5933L13.5683 36.632C13.3489 36.69 13.0896 36.7868 12.91 36.7674C12.6308 36.7481 12.3715 36.6513 12.0722 36.5546C11.4738 36.3612 10.7956 36.1291 9.99764 36.4773C9.75827 36.574 9.53884 36.7094 9.33936 36.8641C9.31941 36.8835 9.31941 36.8835 9.29946 36.9028C9.19972 36.8448 9.08004 36.8254 8.96035 36.8448C8.84066 36.8641 8.72097 36.9028 8.60128 36.9415C8.58134 36.9415 8.58134 36.9415 8.56139 36.9415C8.54144 36.8061 8.46165 36.69 8.34196 36.632L7.22488 35.9743L11.4538 33.5951L13.8476 36.6127C13.7878 36.6127 13.7479 36.5933 13.708 36.5933ZM8.12253 37.9667C8.14248 37.9667 8.16243 37.986 8.20233 37.986C8.22227 37.986 8.24222 37.986 8.28212 37.986C8.4816 37.9667 8.68108 37.9087 8.88056 37.8506C8.9404 37.8313 8.9803 37.8313 9.04014 37.8119C9.15983 38.1214 9.41915 38.4116 9.81811 38.547C10.0974 38.6437 10.3767 38.6244 10.5761 38.605C10.5961 38.605 10.6559 38.5663 10.6559 38.605C10.6559 38.6437 10.6559 38.663 10.6559 38.7017C10.5961 38.7211 10.5163 38.7598 10.4365 38.7984C9.97769 39.0306 9.37926 39.166 8.90051 39.166H8.78082C8.52149 39.1466 8.18238 39.1466 7.92305 39.3014C7.86321 39.282 7.78342 39.2433 7.72357 39.224L7.46425 39.1273L8.12253 37.9667ZM15.4634 39.2433L14.6854 37.309L18.695 34.7751C18.8545 34.6783 18.9343 34.4849 18.9144 34.3108L18.0566 28.0436C18.0167 27.7728 17.7574 27.5987 17.4981 27.6181C17.2188 27.6567 17.0393 27.8889 17.0592 28.1597L17.8771 34.1174L14.7054 36.1097L11.9725 32.6666C11.8129 32.4732 11.5536 32.4152 11.3342 32.5506L6.30727 35.3747C6.28732 35.3747 6.28732 35.394 6.28732 35.4134L5.21013 34.7751C5.25003 33.6918 5.23008 32.5699 5.19018 31.5061C5.17024 30.3841 5.13034 29.2429 5.19018 28.1016C5.21013 27.8308 4.9907 27.6181 4.71143 27.5987C4.43216 27.5794 4.21273 27.7921 4.19278 28.063C4.15289 29.2235 4.17284 30.3841 4.19278 31.5254C4.21273 32.6086 4.25263 33.7305 4.21273 34.8137C4.21273 34.9105 4.25263 35.0072 4.31247 35.0845C4.31247 35.2393 4.37232 35.4134 4.51195 35.4908L7.42436 37.193L6.36711 39.0693C4.75133 38.4116 1.83893 36.6127 1.00111 36.0904C1.04101 33.363 3.25523 27.1925 3.67414 26.0126L8.08264 24.1943C8.52149 24.6392 9.75827 25.6257 11.6932 25.6257C12.7305 25.6257 13.9473 25.3549 15.3636 24.5618C15.3636 24.5618 15.3636 24.5425 15.3836 24.5425L18.4755 25.6837C20.0315 28.4885 21.1685 31.5641 21.9465 35.1232C21.0887 35.8196 17.8172 38.3922 15.4634 39.2433Z" fill="#27696F"/>
</svg>
