<svg width="43" height="34" viewBox="0 0 43 34" fill="none" xmlns="http://www.w3.org/2000/svg">
<path d="M37.9043 6.06435C36.2985 4.7275 34.2702 4.79519 34.1688 4.81211C32.6645 4.89673 31.1432 5.16748 29.6389 5.52284C29.622 5.42131 29.5713 5.30286 29.4868 5.23517C23.4356 0.344652 13.6151 -0.0614746 9.67677 0.00621422C7.47942 0.073903 5.26515 0.632329 3.30444 1.66458C1.69868 2.51069 1.46206 3.23834 1.44515 3.57679C-0.769102 8.95805 0.211244 10.9718 0.24505 11.0733C2.05364 14.5085 5.01161 17.1484 8.24003 19.1452C6.00887 22.0558 6.02578 24.0527 6.02578 24.1711C6.33003 28.3171 8.0541 30.7539 9.45703 32.0907C10.3529 32.903 11.5361 33.343 12.7362 33.343C12.8545 33.343 12.9728 33.343 13.0911 33.326C24.9737 32.463 32.1743 27.7586 36.0957 23.9511C40.3721 19.8221 41.8088 15.93 41.8934 15.6931C42.8906 9.34727 37.9043 6.06435 37.9043 6.06435ZM1.00567 10.701C1.00567 10.6841 0.177443 8.8396 2.25648 3.83062C2.29028 3.74601 2.30719 3.71218 2.29029 3.62757C2.29029 3.62757 2.341 3.13682 3.69322 2.42609C5.53562 1.46152 7.61464 0.920004 9.67677 0.869237C13.4461 0.801549 22.8947 1.19076 28.743 5.75975C28.2867 5.87821 27.8472 6.03052 27.3908 6.1659C27.3908 6.04744 27.3401 5.92898 27.2387 5.84437C24.8385 4.01677 22.0496 2.88298 18.9564 2.51069C18.7197 2.47685 18.5169 2.64607 18.4831 2.88298C18.4493 3.1199 18.6183 3.32296 18.8549 3.3568C21.7453 3.71217 24.3314 4.76135 26.5964 6.43665C24.7371 7.07969 22.9454 7.87504 21.2889 8.6873C20.748 8.48423 17.5027 7.35045 13.4123 6.65664C13.6658 6.14898 13.9194 5.62438 14.2236 5.15055C14.3419 4.94749 14.2743 4.69366 14.0884 4.5752C13.8855 4.45675 13.632 4.52444 13.5137 4.71059C13.1756 5.26902 12.8883 5.84436 12.6009 6.41972L12.9052 6.57203C12.6348 6.52126 12.3474 6.48742 12.0601 6.45357C12.3981 5.72592 12.7193 5.13364 13.108 4.59213C13.2432 4.40599 13.1925 4.13522 13.0066 3.99984C12.8207 3.86447 12.5502 3.91524 12.415 4.10139C11.9924 4.71058 11.6206 5.37055 11.2487 6.1659C11.2149 6.23359 11.2487 6.28435 11.2487 6.35204C10.9614 6.3182 10.674 6.28435 10.3698 6.26743C10.6571 5.67515 10.9614 5.09979 11.367 4.49059C11.5023 4.28752 11.4346 4.03369 11.2487 3.89831C11.0628 3.77986 10.7924 3.83062 10.6571 4.01677C10.1839 4.74442 9.81199 5.42131 9.49084 6.13204C9.47394 6.14897 9.49084 6.18281 9.49084 6.19974C9.2373 6.18281 8.98376 6.16589 8.73022 6.14897C9.01757 5.47208 9.38944 4.81211 9.84581 4.08446C9.96413 3.88139 9.91342 3.62757 9.71058 3.50911C9.52465 3.39065 9.25419 3.44141 9.13587 3.64448C8.61189 4.49059 8.18932 5.21825 7.86817 6.04744C7.85126 6.08129 7.86817 6.11513 7.86817 6.14897C7.68224 6.14897 7.49631 6.14897 7.29348 6.14897C7.54702 5.53977 7.85128 4.96441 8.17243 4.4229C8.29075 4.21983 8.22314 3.966 8.02031 3.84755C7.81748 3.72909 7.56392 3.79678 7.4456 3.99984C7.09064 4.60904 6.73571 5.26901 6.46526 5.96283C6.43146 6.03051 6.44836 6.11512 6.46526 6.18281C6.29624 6.19973 6.11029 6.19974 5.94126 6.19974C6.1779 5.55669 6.49906 4.89673 6.80331 4.2706L6.82021 4.23677C6.92162 4.0337 6.82022 3.77986 6.61738 3.67833C6.41455 3.5768 6.14411 3.67832 6.0427 3.88139C5.68774 4.62597 5.31586 5.38748 5.04542 6.1659C5.02851 6.19974 5.06232 6.23358 5.04542 6.26743C4.87639 6.28435 4.70738 6.30127 4.53836 6.31819C4.77499 4.84596 5.89057 3.98293 5.95818 3.93217C6.14411 3.79679 6.17792 3.52602 6.0427 3.33988C5.90747 3.15373 5.63702 3.10297 5.45109 3.25527C5.41729 3.2722 2.88186 5.20132 3.87912 8.29809C3.89603 8.33193 3.91295 8.36578 3.92986 8.39963C4.08198 8.63654 7.63153 14.0516 18.0098 17.7914C18.0098 17.7914 18.0436 17.8084 18.0605 17.8084C18.145 17.8761 18.2295 17.9438 18.331 17.9438C18.3648 17.9438 18.3817 17.9268 18.4155 17.9099C19.548 18.2653 22.9623 19.2298 26.6302 19.2298C28.4895 19.2298 30.4164 18.976 32.1236 18.2822C33.273 17.673 35.2675 15.8454 34.5914 13.4086C34.5238 13.1886 34.304 13.0532 34.0674 13.1209C33.8476 13.1886 33.7124 13.4086 33.78 13.6455C34.4392 16.0485 31.8362 17.4869 31.7686 17.5207C31.5827 17.6053 31.3799 17.6561 31.177 17.7238C31.5151 16.0146 30.8052 14.3224 29.098 12.6979C30.8052 12.1733 32.5969 11.801 34.3716 11.7164C34.8618 12.7825 35.3689 14.1532 35.183 15.5577C35.183 15.6085 35.2168 15.6423 35.2168 15.6931C34.9632 16.0315 34.6759 16.37 34.3548 16.7254C34.304 16.793 30.7207 20.939 24.8554 24.0019C25.5991 23.1389 26.3766 22.1912 27.019 21.1251C27.1373 20.9221 27.0697 20.6682 26.8837 20.5498C26.6809 20.4313 26.4274 20.499 26.309 20.6851C25.5822 21.8697 24.6526 22.9696 23.8243 23.9173C23.8074 23.9511 23.8075 23.985 23.7906 24.0188C23.4863 23.9511 23.0975 23.8834 22.675 23.7819C23.0637 23.325 23.4187 22.8512 23.7567 22.3774L24.1117 21.8866C24.2469 21.7005 24.2131 21.4297 24.0272 21.2943C23.8413 21.159 23.5708 21.1928 23.4356 21.379L23.0806 21.8866C22.675 22.462 22.2862 23.0035 21.8298 23.5112C21.8129 23.5281 21.8129 23.5619 21.8129 23.5788C21.5425 23.5112 21.2382 23.4435 20.934 23.3589C21.4749 22.7666 21.9482 22.2081 22.2862 21.6836C22.4214 21.4805 22.3538 21.2267 22.1679 21.0913C21.965 20.9728 21.7115 21.0236 21.5763 21.2097C21.1875 21.802 20.6804 22.4281 20.0043 23.105C19.7846 23.0373 19.5649 22.9866 19.3451 22.9189C19.6156 22.5973 19.8691 22.2758 20.1226 21.9205C20.2579 21.7343 20.2072 21.4636 20.0212 21.3282C19.8353 21.1928 19.5649 21.2436 19.4296 21.4297C19.1423 21.8359 18.838 22.2251 18.5169 22.6143C18.5 22.6312 18.5169 22.6481 18.5 22.6481C12.7024 20.9051 4.48763 17.3176 1.00567 10.701ZM4.63977 8.01041C4.55525 7.72273 4.50453 7.43506 4.48762 7.1643C4.52143 7.1643 4.53835 7.18123 4.55525 7.18123C10.6064 6.30127 17.8408 8.41654 20.2579 9.21189C16.066 11.3949 12.939 13.6794 12.1784 14.2547C7.05684 11.3441 4.91021 8.39962 4.63977 8.01041ZM28.1684 13.0194C29.9938 14.627 30.7038 16.2515 30.2812 17.8422C30.2643 17.893 30.2981 17.9438 30.2981 17.9945C26.2921 18.976 21.4918 17.9268 19.362 17.3515C20.8495 16.3869 24.23 14.3562 28.1684 13.0194ZM37.3465 11.9025C37.1268 12.6302 36.7211 13.5271 36.0281 14.5593C35.9605 13.5101 35.6224 12.5625 35.2844 11.7333C35.9605 11.7333 36.6704 11.7841 37.3465 11.9025ZM37.5324 11.0733C37.1099 11.0056 36.6873 10.9549 36.2647 10.921C36.569 10.2103 36.7042 9.4488 36.8225 8.72114C36.907 8.77191 37.0085 8.78883 37.093 8.85652C37.093 8.85652 37.7522 9.53341 37.5324 11.0733ZM35.9943 8.46732L35.9774 8.58577C35.8422 9.38112 35.7239 10.1426 35.3689 10.8195C35.352 10.8364 35.3689 10.8703 35.3689 10.8872C35.0985 10.8872 34.828 10.8703 34.5576 10.8872C34.8449 10.1426 35.0816 9.34727 35.3013 8.34886C35.3182 8.2981 35.2844 8.24732 35.2675 8.19656C35.5379 8.2304 35.7915 8.28116 36.045 8.36578C36.045 8.39962 36.0112 8.41655 35.9943 8.46732ZM11.2318 26.811C11.1135 26.591 11.1642 26.2695 11.3502 25.8803C11.3671 25.8633 12.6517 23.4604 14.2743 22.1743C14.2743 22.1743 14.2743 22.1574 14.2912 22.1574C18.0267 23.6465 21.4411 24.4588 23.2497 24.8142C20.1227 26.2187 16.4717 27.251 12.415 27.251C12.2291 27.251 12.0431 27.251 11.8572 27.251C11.8234 27.234 11.3839 27.1325 11.2318 26.811ZM41.082 15.49C41.0651 15.5239 39.6453 19.3821 35.4872 23.3927C32.2081 26.5402 26.5964 30.3477 17.7901 31.9046C17.4689 31.2954 17.0971 30.5846 16.8266 29.857C16.7421 29.637 16.5055 29.5355 16.2857 29.6201C16.066 29.7047 15.9646 29.9416 16.0491 30.1616C16.3026 30.8385 16.6238 31.4815 16.928 32.0569C16.59 32.1076 16.235 32.1584 15.8801 32.2092V32.1922C15.4237 31.4815 15.0349 30.6862 14.68 29.7724C14.5955 29.5524 14.3588 29.4508 14.1391 29.5355C13.9194 29.6201 13.8179 29.857 13.9025 30.077C14.2236 30.9231 14.5955 31.6507 15.0011 32.3276C14.6462 32.3615 14.2743 32.3953 13.9193 32.4292C13.9024 32.3784 13.9194 32.3107 13.8856 32.2599C13.2602 31.3631 12.77 30.4493 12.4319 29.5693C12.3474 29.3493 12.0939 29.2478 11.891 29.3324C11.6713 29.417 11.5699 29.6708 11.6544 29.8739C11.9924 30.7369 12.4657 31.6169 13.0573 32.4968C12.7024 32.5307 12.3474 32.4799 12.0094 32.4122C12.0094 32.3445 12.0094 32.2599 11.9586 32.1922C11.3332 31.3123 10.8769 30.3646 10.5219 29.5693C10.4205 29.3493 10.1669 29.2647 9.96411 29.3493C9.74438 29.4508 9.65987 29.6878 9.76129 29.9077C10.0486 30.5508 10.4205 31.2615 10.86 31.9892C10.5895 31.8369 10.336 31.6677 10.0993 31.4646C8.81473 30.2462 7.20898 27.9786 6.93854 24.1373C6.93854 24.1203 6.95542 22.2928 9.03446 19.5852C10.4881 20.4313 11.9925 21.1759 13.463 21.7851C13.0066 22.2081 12.5671 22.665 12.1953 23.1389C12.1953 23.105 12.1953 23.0712 12.1784 23.0543C12.1108 22.5297 12.0432 22.0051 11.9755 21.4805C11.9417 21.2436 11.7389 21.1082 11.4853 21.1251C11.2487 21.159 11.0966 21.379 11.1304 21.6159C11.2149 22.1235 11.2825 22.6481 11.3332 23.1558C11.367 23.4604 11.4009 23.7481 11.4516 24.0527C11.4516 24.0696 11.4684 24.0865 11.4853 24.1204C11.2994 24.408 11.1304 24.6619 10.9952 24.8649C10.9952 24.848 10.9952 24.8311 10.9783 24.8142C10.8431 24.205 10.7078 23.5958 10.6064 22.9696C10.5726 22.7327 10.3529 22.5804 10.1162 22.6312C9.87959 22.665 9.72748 22.885 9.77818 23.1219C9.8796 23.7481 10.0148 24.3742 10.15 25.0003C10.2346 25.3895 10.3191 25.7618 10.3867 26.151C10.3867 26.151 10.3867 26.1679 10.4036 26.1679C10.3867 26.2526 10.3698 26.3202 10.3698 26.4049C9.72749 25.8126 9.2542 25.068 9.03446 24.188C8.98375 23.968 8.74711 23.8327 8.52737 23.8834C8.30764 23.9342 8.17243 24.1711 8.22314 24.3911C8.595 25.8295 9.45704 26.9802 10.7417 27.7248C10.8093 27.7586 10.8769 27.7755 10.9614 27.7755C10.9783 27.7755 11.0121 27.7586 11.029 27.7586C11.3501 27.9786 11.6713 28.0632 11.7727 28.0801C11.9756 28.0801 12.1784 28.0801 12.3812 28.0801C17.0971 28.0801 21.2889 26.7433 24.754 25.0172C24.8216 25.0003 24.8892 24.9834 24.9399 24.9326C31.177 21.7682 34.9801 17.3684 35.0308 17.3007C40.5749 10.9718 37.8367 8.33193 37.6677 8.17963C34.8111 6.26742 30.6023 7.90888 30.4333 7.97657C30.2136 8.06118 30.1122 8.31502 30.1967 8.51808C30.2812 8.73807 30.5178 8.8396 30.7376 8.75499C30.7714 8.73807 32.6138 8.04425 34.5745 8.11194C34.5745 8.12886 34.5576 8.12887 34.5407 8.14579C34.3209 9.12728 34.0843 9.92263 33.797 10.6334C33.7632 10.7349 33.7801 10.8195 33.797 10.921C33.442 10.9549 33.087 10.9718 32.7321 11.0226C33.0532 10.1765 33.273 9.33035 33.4589 8.45039L33.0701 8.26425H32.6307C32.394 9.2965 32.1743 10.2611 31.7686 11.1918C31.4813 11.2425 31.177 11.2933 30.8897 11.361C31.0249 10.8533 31.1601 10.3288 31.2446 9.78725C31.2784 9.55034 31.1263 9.34727 30.8897 9.31343C30.6361 9.27958 30.4502 9.43188 30.4164 9.66879C30.3488 10.1934 30.2136 10.6841 30.0614 11.2595C30.0276 11.3779 30.0614 11.4795 30.1122 11.581C27.4077 12.2748 24.8723 13.3748 22.8271 14.4239C22.8102 14.0009 22.8102 13.5609 22.8102 13.1378L22.7933 12.224C22.7933 11.9871 22.6073 11.801 22.3707 11.801C22.1341 11.801 21.9481 12.004 21.9481 12.224L21.9651 13.1378C21.9651 13.6963 21.9819 14.2378 21.9988 14.7962C21.9988 14.8131 22.0158 14.8301 22.0327 14.8639C21.8129 14.9824 21.5932 15.1008 21.3903 15.2193C21.3734 14.7962 21.3397 14.3562 21.3059 13.9332C21.272 13.4255 21.2382 12.9009 21.2044 12.3933C21.1875 12.1733 21.0016 11.9871 20.7818 11.9871H20.765C20.5283 12.004 20.3424 12.1902 20.3593 12.4271C20.3762 12.9517 20.4269 13.4763 20.4607 13.9839C20.4945 14.5255 20.5452 15.067 20.5621 15.5916C20.5621 15.6254 20.579 15.6423 20.5959 15.6593C20.241 15.8623 19.9367 16.0485 19.6494 16.2346C19.6156 15.287 19.5818 14.3393 19.548 13.3917C19.548 13.1548 19.3789 12.9855 19.1085 12.9855C18.8719 12.9855 18.6859 13.1886 18.7028 13.4255C18.7197 14.5085 18.7535 15.5916 18.8042 16.6746C18.8042 16.7084 18.838 16.7254 18.838 16.7423C18.6521 16.8607 18.4831 16.9792 18.3817 17.0469C18.3648 17.0469 18.331 17.03 18.331 17.03C18.2464 16.9961 18.1788 16.9792 18.1112 16.9453C18.1112 16.9284 18.1281 16.9284 18.1281 16.9115L18.1112 13.8317C18.1112 13.5947 17.9253 13.4086 17.6887 13.4086C17.452 13.4086 17.2661 13.5947 17.2661 13.8317L17.283 16.6238C17.0971 16.5561 16.9111 16.4884 16.7421 16.4207C16.759 16.37 16.7928 16.3361 16.7928 16.2854C16.759 15.6423 16.7252 14.9147 16.759 14.2039C16.759 14.1024 16.7252 14.0178 16.6745 13.9501C17.7394 13.1717 18.9564 12.4271 20.3255 11.7164C20.5283 11.6148 20.6128 11.361 20.5114 11.141C20.41 10.938 20.1564 10.8533 19.9367 10.9549C17.7056 12.0887 15.8294 13.3578 14.3926 14.6947C14.2236 14.847 14.2067 15.1177 14.3757 15.287C14.4602 15.3716 14.5786 15.4223 14.68 15.4223C14.7814 15.4223 14.8828 15.3885 14.9673 15.3039C15.2716 15.0331 15.5927 14.7624 15.9139 14.4916C15.897 15.0331 15.9139 15.5577 15.9308 16.0485C14.8997 15.6085 13.9532 15.1516 13.0911 14.6947C15.3561 13.0532 25.3794 6.13204 34.304 5.6413C34.3209 5.6413 36.1126 5.57361 37.4987 6.74125C37.448 6.77509 41.961 9.77032 41.082 15.49Z" fill="#3F7175"/>
</svg>
