<svg width="51" height="39" viewBox="0 0 51 39" fill="none" xmlns="http://www.w3.org/2000/svg">
<path d="M1.89359 31.933L2.28235 26.8902C2.28235 26.8563 2.24854 26.8394 2.24854 26.8056C2.24854 26.7548 2.28235 26.721 2.29925 26.6702L2.31615 26.501C2.31615 26.4333 2.34996 26.3656 2.38377 26.2979L5.24033 22.0843C5.44316 21.6951 5.66289 21.2889 5.84882 20.8828C5.78121 20.849 5.7136 20.832 5.66289 20.7813C5.22342 20.2228 5.03749 19.5967 5.03749 18.9029C4.93607 18.7506 4.90227 18.5645 5.02059 18.4122C5.05439 18.3783 5.0882 18.3445 5.12201 18.3106C5.22342 17.7184 5.42625 17.0922 5.81502 16.3984C6.64325 14.9093 7.77573 13.8432 9.04344 13.014L9.12795 7.29428C9.02653 7.26043 8.94202 7.20967 8.87441 7.12506L7.74193 5.34822C7.67432 5.24669 7.65741 5.12823 7.69122 5.02669C7.72502 4.90824 7.79264 4.82363 7.89405 4.75595C13.286 1.62534 18.323 0.203868 24.7799 0.0177241C33.5355 -0.219187 38.3528 1.94686 43.694 5.82204C43.7954 5.88973 43.863 6.00818 43.863 6.12664C43.8799 6.2451 43.8292 6.38048 43.7278 6.46509L42.308 7.85271L42.2742 13.7586C42.4263 13.877 42.5784 14.0124 42.7306 14.1308C42.9165 14.2831 43.1024 14.4185 43.2883 14.5539C44.049 15.1123 44.8265 15.7046 45.435 16.5846C46.0266 17.4645 46.2632 18.4629 46.0604 19.309C45.9083 19.969 45.4857 20.5105 44.8772 20.8828L44.8603 21.1705L49.0353 25.5026C49.1198 25.5872 49.1536 25.6887 49.1536 25.8072C49.1536 25.841 49.086 29.4962 49.2381 30.85C49.3902 32.1868 50.0494 35.4528 50.472 36.8235C50.5396 37.0604 50.7593 37.7542 50.3199 38.1435C50.1678 38.2788 49.9818 38.3296 49.8128 38.3296C49.5762 38.3296 49.3733 38.245 49.2719 38.2111C48.8155 38.0927 43.9137 36.7728 42.4094 36.3497C41.3107 36.0451 40.3811 36.2651 39.5528 36.4682C39.2824 36.5358 39.012 36.6035 38.7584 36.6374C38.2851 36.722 37.3724 37.0097 36.4766 37.2804C35.4624 37.6019 34.4989 37.9065 34.0257 37.9573C33.1298 38.0588 28.0421 37.7712 27.2308 37.7035C26.8758 37.6696 25.5405 37.5512 23.9685 37.4158C21.5515 37.1958 18.5935 36.9251 17.8836 36.8743C16.7004 36.7897 12.8296 36.5697 10.7337 36.5697C9.19556 36.5697 8.62087 36.5528 8.40113 36.5528C5.22342 37.9065 0.592079 37.6696 0.389248 37.6527C0.254025 37.6527 0.1357 37.5681 0.0680885 37.4666C0.000480652 37.3481 -0.0164223 37.2127 0.0173836 37.0943L1.89359 31.933ZM6.55873 16.7707C12.4916 11.2541 22.1092 11.1018 26.2335 11.3387C28.0421 11.4402 29.614 11.5756 31.0677 11.7787C33.2481 12.0663 35.3948 12.4894 37.4569 13.0309C39.1641 13.4878 40.8206 14.1478 42.5277 15.0446C42.4263 14.96 42.3249 14.8923 42.2066 14.8077C41.9699 14.6216 41.7502 14.4524 41.5305 14.2662C40.567 13.4878 39.6712 12.7601 38.5218 12.3202C35.8342 11.2879 32.927 10.9833 30.1211 10.6787L29.5802 10.628C24.5601 10.0864 18.7287 9.69723 13.2353 11.8971C10.683 12.9124 8.06308 14.1308 6.55873 16.7707ZM31.1691 3.62216C30.6789 3.57139 30.1549 3.53755 29.614 3.53755C29.5633 3.53755 29.5126 3.53755 29.4619 3.53755C29.445 3.53755 28.228 3.72369 26.8589 4.14675C25.794 4.55288 24.6108 5.09438 23.8502 5.63589C23.6136 5.83896 23.4107 6.04204 23.2755 6.27895L23.1065 9.35879C25.3884 9.35879 27.6195 9.54493 29.6986 9.78184L30.2394 9.83261C32.8087 10.1034 35.4624 10.4249 37.9809 11.2372L38.0823 6.16049C37.7274 5.88974 36.8146 5.26361 35.4117 4.67133C34.1778 4.2652 32.758 3.89292 31.1691 3.62216ZM22.2445 9.37571L22.3966 6.61739C22.0585 6.60046 21.3824 6.60047 20.5035 6.63431C18.323 6.87122 15.0608 7.39581 12.7113 8.66497C12.1873 8.98649 11.6972 9.34186 11.2746 9.76492L11.3422 11.7787C11.8662 11.5418 12.4071 11.3048 12.948 11.1018C16.0243 9.88337 19.1851 9.4434 22.2445 9.37571ZM24.7968 0.88076C18.6442 1.0669 13.81 2.38683 8.68848 5.28053L9.36459 6.32971C14.6044 3.08065 24.4418 2.48837 24.8644 2.45453C27.5857 2.31915 29.9859 2.52221 32.048 2.91142C33.2143 3.09756 34.2623 3.36832 35.1412 3.70676C38.7922 4.89132 40.9896 6.54969 41.7671 7.20966L42.7813 6.22818C37.7443 2.64068 33.0791 0.626927 24.7968 0.88076ZM45.2491 19.1398C45.3843 18.5306 45.2153 17.786 44.7758 17.1261C44.6575 17.1599 44.5222 17.1768 44.4208 17.1092C41.9192 15.5185 39.6374 14.4862 37.2541 13.8601C35.2258 13.3186 33.1129 12.9124 30.9663 12.6248C29.5295 12.4386 27.9745 12.3033 26.1828 12.2017C21.8726 11.9648 11.3422 12.134 5.88263 18.7337C5.84882 19.2414 5.98404 19.6982 6.23759 20.1044C6.64325 19.2583 6.9306 18.5814 6.9475 18.3614C7.01511 17.5999 8.78989 16.3476 9.83786 15.6708C9.87167 15.6538 9.92237 15.6369 9.95618 15.62C10.9534 15.3662 14.2495 14.5201 14.9425 14.6385C15.5848 14.74 19.7429 14.1985 21.3148 13.9955C23.9347 13.657 30.2733 13.7924 30.6451 13.8093C32.0649 14.1985 34.9553 14.96 35.7497 15.0277C36.0033 15.0446 36.2568 15.0277 36.5442 15.0108C37.5076 14.96 38.826 14.8754 40.736 15.8908C42.832 17.0076 44.2518 19.2244 44.7082 19.969C44.9617 19.7321 45.1645 19.4613 45.2491 19.1398ZM33.9411 37.1112C34.3299 37.0774 35.3441 36.7558 36.223 36.4682C37.1865 36.1636 38.0992 35.8759 38.6232 35.7913C38.8598 35.7574 39.0965 35.6897 39.35 35.639C40.229 35.419 41.3276 35.1482 42.6291 35.5205C44.2011 35.9605 49.5085 37.3989 49.5085 37.3989C49.5255 37.3989 49.5593 37.4158 49.5762 37.4327C49.6269 37.4496 49.6776 37.4666 49.7283 37.4835C49.7283 37.4158 49.7114 37.2973 49.6438 37.0943C49.2043 35.6559 48.5451 32.373 48.3761 30.9684C48.2239 29.7162 48.2577 26.7548 48.2746 25.9933L44.0997 21.6443C44.0152 21.5597 43.9645 21.4412 43.9814 21.3059L44.049 20.5105C43.7447 19.9859 42.3418 17.6845 40.3304 16.6015C38.6401 15.6877 37.5076 15.7554 36.5949 15.8061C36.2568 15.8231 35.9526 15.84 35.6821 15.8231C34.6003 15.7215 30.5944 14.6216 30.5268 14.5877C30.4592 14.5877 23.9854 14.4524 21.4162 14.7739C17.2075 15.3323 15.3482 15.5015 14.8073 15.4169C14.4354 15.3662 12.2211 15.8569 10.2435 16.3646C8.99273 17.1768 7.87715 18.1076 7.79264 18.3783C7.72503 19.106 6.27139 21.8981 5.96714 22.4904L3.36412 26.3318L8.77299 26.2979C9.00963 26.2979 9.19556 26.4841 9.19556 26.721C9.19556 26.9579 9.00963 27.144 8.77299 27.144L3.11058 27.1779L2.73872 32.0007C2.73872 32.0176 2.73872 32.0345 2.72182 32.0515C3.78669 32.2376 4.81776 32.1868 5.89953 32.1191C6.40661 32.0853 6.91369 32.0515 7.43768 32.0515C8.92512 32.0345 10.4295 32.0853 11.9169 32.1699C11.0718 30.8161 10.4802 29.4285 10.2435 28.0409C10.2097 27.804 10.3618 27.584 10.5816 27.5502C10.8182 27.5163 11.038 27.6686 11.0718 27.8886C11.3253 29.3439 11.9676 30.8161 12.948 32.2207C13.3029 32.2376 13.6579 32.2545 14.0128 32.2715C13.9959 32.1361 14.0297 32.0176 14.1481 31.9161C14.3171 31.7638 14.5875 31.7976 14.7397 31.9669C14.858 32.1022 14.9932 32.2207 15.1115 32.3561C16.413 32.4745 17.7145 32.6437 18.9653 32.8468C19.2527 32.8976 19.54 32.9314 19.8274 32.9822C19.8612 32.8976 19.9119 32.813 20.0133 32.7622C21.1965 32.1361 22.1938 31.29 23.2417 30.3931C23.5122 30.1562 23.7995 29.9193 24.07 29.6824C24.2559 29.5301 24.5094 29.5639 24.6616 29.7331C24.8137 29.9193 24.7799 30.1731 24.6108 30.3254C24.3404 30.5623 24.0531 30.7823 23.7826 31.0192C22.9037 31.7638 21.974 32.5084 20.9599 33.1345C22.2614 33.3037 23.5629 33.4391 24.8644 33.4391C25.98 33.4391 27.1293 33.3037 28.2449 33.1683C29.0563 33.0668 29.9014 32.9653 30.7296 32.9145C31.4395 32.8806 32.1326 32.8637 32.8594 32.8637C33.6369 32.8637 34.4313 32.8299 35.2088 32.7791C35.3948 32.5422 35.5976 32.3053 35.7666 32.0515C35.9019 31.8653 36.1554 31.8145 36.3582 31.933C36.5442 32.0684 36.5949 32.3222 36.4766 32.5253C36.4427 32.576 36.4089 32.6099 36.3751 32.6607C37.0343 32.5422 37.7105 32.3561 38.3697 32.1699C38.4204 32.153 38.4542 32.153 38.5049 32.1361C39.0627 31.1038 39.4176 29.97 39.7219 28.8532C39.7895 28.6332 40.0092 28.4978 40.2459 28.5486C40.4656 28.6162 40.6008 28.8362 40.5501 29.0732C40.3135 30.0039 40.0261 30.9346 39.6374 31.8484C40.043 31.7469 40.4318 31.6792 40.8544 31.6284C41.7502 31.5269 42.5953 31.6284 43.4067 31.7469C43.863 31.8145 44.3025 31.8653 44.7758 31.8992C45.5195 31.933 46.2463 31.7976 47.0577 31.6115C47.2774 31.5607 47.514 31.713 47.5647 31.933C47.6154 32.153 47.4633 32.3899 47.2436 32.4407C46.4154 32.6268 45.5871 32.796 44.742 32.7453C44.2518 32.7283 43.7785 32.6607 43.3053 32.593C42.5108 32.4914 41.7502 32.3899 40.9727 32.4745C40.3473 32.5591 39.7388 32.7114 39.1134 32.8807C38.7922 33.4391 38.4204 33.9806 37.9302 34.4713C37.8457 34.5559 37.7443 34.5898 37.6259 34.5898C37.5076 34.5898 37.4062 34.5559 37.3217 34.4713C37.1527 34.3021 37.1527 34.0314 37.3217 33.8791C37.5245 33.676 37.6766 33.456 37.8457 33.236C37.4231 33.3545 36.9836 33.456 36.5273 33.5237C36.2568 33.5745 35.9695 33.5745 35.699 33.6083C34.5327 35.0129 33.1298 36.1974 31.5917 37.0266C32.6396 37.1281 33.62 37.145 33.9411 37.1112ZM24.0361 36.5528C25.5912 36.6881 26.9434 36.8066 27.2984 36.8404C27.7547 36.8743 29.2253 36.9589 30.662 37.0266C30.5775 36.8235 30.6451 36.5866 30.8479 36.4851C32.1495 35.8251 33.3665 34.8605 34.4313 33.7437C33.9073 33.7606 33.3665 33.7606 32.8425 33.7775C32.1495 33.7775 31.4564 33.7775 30.7634 33.8283C29.9521 33.8791 29.1408 33.9806 28.3294 34.0821C27.197 34.2175 26.0138 34.3698 24.8475 34.3698C22.8192 34.3698 20.7908 34.0652 18.8132 33.7606C17.8836 33.6252 16.937 33.4898 15.9736 33.3714C17.106 34.4375 18.323 35.3174 19.5231 36.1636C20.8077 36.2651 22.5318 36.4174 24.0361 36.5528ZM8.14759 35.7236C8.2152 35.6897 8.28281 35.6897 8.35043 35.6897C8.36733 35.6897 8.70538 35.7067 10.7337 35.7067C12.8465 35.7067 16.7173 35.9097 17.9343 36.0113C16.8187 35.199 15.7369 34.3021 14.7227 33.2191C14.5875 33.2022 14.4523 33.1853 14.3171 33.1853C14.0973 33.1683 13.8776 33.1683 13.6579 33.1514C13.8607 33.4052 14.0466 33.6591 14.2833 33.9129C14.4354 34.0821 14.4354 34.3529 14.2664 34.5052C14.1819 34.5729 14.0804 34.6236 13.979 34.6236C13.8607 34.6236 13.7593 34.5729 13.6748 34.4883C13.2522 34.0314 12.8804 33.5745 12.5254 33.1006C10.852 33.016 9.16175 32.9314 7.47149 32.9483C6.9644 32.9483 6.47422 32.9822 5.98404 33.016C4.85156 33.0837 3.70218 33.1514 2.50208 32.9314C2.48518 32.9314 2.48518 32.9145 2.48518 32.9145L1.06535 36.8235C2.36686 36.8404 5.78121 36.7558 8.14759 35.7236Z" fill="#5F8772"/>
<path d="M37.6937 8.91857C37.6768 9.13856 37.4909 9.30779 37.2712 9.30779C37.2543 9.30779 37.2543 9.30779 37.2374 9.30779C37.0007 9.29086 36.8317 9.08779 36.8486 8.85088C36.8993 8.07246 36.8824 7.27712 36.8655 6.4987V6.48177C36.8655 6.24486 37.0514 6.05872 37.2712 6.05872C37.4909 6.09256 37.6937 6.24486 37.7106 6.48177C37.7275 7.27711 37.7444 8.1063 37.6937 8.91857Z" fill="#5F8772"/>
<path d="M42.8828 22.1011C42.7813 22.1011 42.663 22.0672 42.5785 21.9826C41.0235 20.4427 39.2318 19.715 36.7471 19.6304C36.5104 19.6135 36.3245 19.4273 36.3414 19.1904C36.3583 18.9535 36.4935 18.7843 36.7809 18.7843C39.4515 18.8858 41.4798 19.715 43.1701 21.3903C43.3391 21.5596 43.3391 21.8303 43.1701 21.9826C43.1025 22.0503 42.9842 22.1011 42.8828 22.1011Z" fill="#5F8772"/>
<path d="M13.2183 20.1719L12.9141 20.155C11.6802 20.1042 10.5139 20.0534 9.33072 20.2565C9.31381 20.2565 9.28001 20.2565 9.2631 20.2565C9.06027 20.2565 8.87434 20.1042 8.84054 19.9012C8.80673 19.6642 8.95886 19.4612 9.19549 19.4104C10.4801 19.2073 11.6802 19.2412 12.9648 19.3089L13.269 19.3258C13.5057 19.3427 13.6916 19.5289 13.6747 19.7658C13.6578 20.0027 13.455 20.1719 13.2183 20.1719Z" fill="#5F8772"/>
<path d="M46.3478 26.2808L39.029 26.1285C38.7923 26.1285 38.6064 25.9254 38.6233 25.6885C38.6233 25.4516 38.7923 25.2823 39.0628 25.2823L46.3648 25.4347C46.6014 25.4347 46.7873 25.6377 46.7704 25.8746C46.7704 26.0946 46.5845 26.2808 46.3478 26.2808Z" fill="#5F8772"/>
<path d="M33.1975 26.2978L30.4086 26.3824C29.124 28.6838 27.7887 30.3252 26.0477 31.6452C25.9801 31.6959 25.8787 31.7298 25.7942 31.7298C25.6589 31.7298 25.5406 31.679 25.4561 31.5606C25.3209 31.3744 25.3547 31.1037 25.5406 30.9683C27.0788 29.8006 28.2789 28.3623 29.4282 26.3993L14.8243 26.8054C14.8243 26.8054 14.8243 26.8054 14.8074 26.8054C14.5877 26.8054 14.3848 26.6193 14.3848 26.3993C14.3848 26.1624 14.5538 25.9762 14.7905 25.9593L29.9015 25.5363C30.0029 25.3501 30.0874 25.2147 30.1889 25.0286C30.2903 24.8255 30.5438 24.7409 30.7636 24.8425C30.9664 24.944 31.0509 25.1978 30.9495 25.4178C30.9326 25.4517 30.9157 25.4855 30.8988 25.5193L33.1806 25.4517C33.4004 25.4347 33.6032 25.6209 33.6201 25.8578C33.6201 26.0947 33.4342 26.2978 33.1975 26.2978Z" fill="#5F8772"/>
<path d="M12.3227 10.1035C12.1875 10.1035 12.0523 10.0358 11.9678 9.91734C11.8326 9.73119 11.8833 9.46042 12.0861 9.32505C13.1003 8.64815 14.5201 8.10664 15.8723 7.88665C16.109 7.85281 16.3118 8.00511 16.3625 8.24202C16.3963 8.47893 16.2442 8.682 16.0075 8.73277C14.7567 8.93584 13.4721 9.42658 12.5594 10.0527C12.4918 10.0865 12.4073 10.1035 12.3227 10.1035Z" fill="#5F8772"/>
</svg>
