<svg width="26" height="44" viewBox="0 0 26 44" fill="none" xmlns="http://www.w3.org/2000/svg">
<path d="M8.76814 12.4681C7.97314 13.5211 7.02198 14.1045 5.84367 14.2752C5.64492 14.2894 5.51715 14.4744 5.53135 14.6736C5.55974 14.8586 5.7017 14.9867 5.88626 14.9867C5.90046 14.9867 5.91465 14.9867 5.92885 14.9867C7.30591 14.8017 8.41323 14.1187 9.336 12.9092C9.44957 12.7527 9.42118 12.525 9.26502 12.4112C9.10886 12.2832 8.89591 12.3116 8.76814 12.4681Z" fill="#85926E"/>
<path d="M18.9761 14.1472C19.0187 14.1472 19.0755 14.1472 19.1181 14.1472C19.3168 14.1329 19.4588 13.9622 19.4446 13.763C19.4304 13.5638 19.2885 13.4215 19.0755 13.4215C18.1385 13.4642 17.1448 12.8096 16.7615 11.899C16.6905 11.714 16.4776 11.6286 16.293 11.6998C16.1084 11.7709 16.0233 11.9844 16.0942 12.1693C16.5911 13.3219 17.7978 14.1472 18.9761 14.1472Z" fill="#85926E"/>
<path d="M12.9569 19.5113L13.0988 18.8141C12.2896 18.6291 12.1761 18.4868 12.1619 18.5153C12.1761 18.4726 12.2328 18.3303 12.2612 18.2734C12.2896 18.2022 12.318 18.1311 12.3606 18.0315C12.5168 17.5762 12.6587 17.1635 12.7013 16.6513C12.7155 16.4521 12.5736 16.2813 12.3748 16.2671C12.1761 16.2529 12.0057 16.3952 11.9915 16.5944C11.9631 17.007 11.8353 17.377 11.665 17.875C11.6508 17.9034 11.6366 17.9319 11.6224 17.9746C11.5088 18.2307 11.4236 18.4157 11.4662 18.6006C11.6082 19.2125 12.4884 19.4117 12.9569 19.5113Z" fill="#85926E"/>
<path d="M12.1901 20.7207C11.7074 20.9769 11.2957 21.2472 11.0402 21.8591C10.5433 23.0543 11.0118 24.406 11.5371 25.5728C11.5938 25.7009 11.7074 25.772 11.8352 25.7863C12.2611 26.0424 12.7012 26.1277 13.1554 26.1277C13.7801 26.1277 14.3905 25.957 14.93 25.8005L15.3133 25.7009C16.1225 25.4874 17.1305 25.2313 17.4286 24.1357C17.5989 23.5381 17.3292 22.7412 16.6478 21.7737C15.583 20.2796 13.7801 19.8528 12.1901 20.7207ZM12.5308 21.3468C13.5388 20.7919 14.6461 20.9199 15.4837 21.5887C15.3133 21.6029 15.143 21.6456 14.9868 21.6741C14.8874 21.6883 14.788 21.7168 14.6887 21.731C13.482 21.916 12.4598 22.2148 11.5796 22.6132C11.608 22.4567 11.6222 22.3002 11.679 22.1436C11.8494 21.7594 12.0765 21.5887 12.5308 21.3468ZM11.5796 23.3958C12.474 22.9547 13.5246 22.6274 14.8164 22.4282C14.9158 22.414 15.0294 22.3855 15.1288 22.3713C15.4127 22.3144 15.7108 22.2575 15.938 22.2859C15.9947 22.3001 16.0515 22.2575 16.0941 22.2432C16.3497 22.6132 16.5484 22.9547 16.6478 23.2535C15.1146 23.097 13.4678 23.7088 12.0481 25.0037C11.8352 24.463 11.6506 23.908 11.5796 23.3958ZM15.143 25.0037L14.7455 25.1175C14.064 25.3025 13.3684 25.5017 12.7438 25.3736C12.9425 25.2029 13.1555 25.0463 13.3684 24.9041L16.0373 23.9507C16.2787 23.9365 16.52 23.9365 16.7472 23.9792C16.5484 24.591 15.9805 24.7902 15.143 25.0037Z" fill="#85926E"/>
<path d="M2.33702 26.1279C2.60676 26.1279 2.87649 25.9856 3.13203 25.7153C3.2456 25.5872 3.34497 25.4307 3.43015 25.26L3.51533 25.1034C3.77087 24.5912 4.21096 23.7517 3.68569 23.2252C3.61471 23.1541 3.52953 23.1256 3.44435 23.1256C3.40176 23.0971 3.34497 23.0687 3.27399 23.0687C2.37961 22.9975 1.75497 23.9509 1.6272 24.9327C1.59881 25.2173 1.51363 25.886 2.08149 26.0995C2.16667 26.1137 2.25184 26.1279 2.33702 26.1279ZM2.33702 24.9754C2.39381 24.4631 2.70613 23.7659 3.18881 23.7659H3.20301C3.25979 23.9082 3.14622 24.2497 2.87649 24.7762L2.79131 24.9611C2.73452 25.075 2.67774 25.1746 2.60676 25.2457C2.47899 25.388 2.36542 25.4307 2.33702 25.4307C2.29443 25.3596 2.32283 25.1034 2.33702 24.9754Z" fill="#85926E"/>
<path d="M25.4067 19.9811C25.3783 19.9384 25.3357 19.9099 25.3073 19.8672C25.3357 19.8388 25.3641 19.8103 25.3783 19.7676C25.5629 19.2981 25.5345 18.672 25.2789 18.1455C25.066 17.676 24.7111 17.3487 24.2994 17.2206C23.9445 17.1068 23.5186 17.1353 23.0643 17.306C23.3056 16.7226 23.5754 15.7551 23.7883 14.1329C23.7883 14.1329 24.924 9.03897 18.9473 5.43904C18.8479 4.88411 18.6634 4.31495 18.3511 3.77424C17.2012 1.81064 14.9439 0.999591 13.3397 1.96716C13.0274 2.15214 12.7718 2.40826 12.5447 2.69284C11.0825 0.843073 8.91041 0.0747071 7.37719 0.985362C6.45442 1.52606 5.97174 2.57901 5.90075 3.78847C5.06316 3.53235 4.18298 3.58927 3.44476 4.03037C1.82637 4.98371 1.45726 7.34572 2.62137 9.30932C2.94789 9.86425 3.37378 10.3196 3.84226 10.6753C3.10405 11.216 2.9053 12.212 2.9053 12.212C2.73494 12.9093 3.33119 14.7306 3.84226 16.125C3.87066 16.438 3.88485 17.0357 3.88485 17.6475C3.50155 17.4625 2.96208 17.3345 2.55039 17.491C2.15288 17.6475 1.81217 18.0317 1.61342 18.5297C1.42886 19.0419 1.42886 19.5684 1.62761 19.9668C1.17333 20.3937 0.889398 21.034 0.861005 21.717C0.832612 22.1581 0.974576 22.5138 1.23011 22.6988C1.32949 22.7699 1.47145 22.8411 1.6702 22.8411C1.78378 22.8411 1.92574 22.8126 2.0819 22.7557C2.11029 22.7415 2.12449 22.7273 2.15288 22.713C2.19547 22.6988 2.23806 22.6703 2.26646 22.6419C2.43681 22.4854 2.63556 22.2862 2.82012 22.0585C3.13244 22.3858 3.60092 22.6846 4.15459 22.6846C4.18298 22.6846 4.21137 22.6846 4.23977 22.6846C4.28236 22.7984 4.32495 22.898 4.38173 23.0118C4.29655 23.0688 4.22557 23.1541 4.22557 23.268C4.22557 23.3391 4.21137 23.4245 4.18298 23.5241C4.15459 23.6521 4.14039 23.7802 4.12619 23.9225C4.04102 23.9652 3.97003 24.0363 3.94164 24.1359C3.78548 24.6909 3.65771 25.1604 3.47316 25.6157C3.40217 25.8007 3.33119 25.9857 3.26021 26.1707C3.18923 26.3699 3.11824 26.5691 3.03307 26.7683L2.83432 27.2094C2.29485 28.49 1.55663 30.2402 2.15288 31.4781C2.42262 32.033 2.91949 32.4314 3.65771 32.6449C4.39593 32.8583 5.11995 32.9579 5.74459 33.0148C6.5112 33.1002 7.13585 33.1286 7.7321 33.1286C7.80308 33.1286 7.88826 33.1286 7.95924 33.1286C7.91665 35.2772 7.90246 37.5681 7.93085 40.1293C7.93085 40.6842 7.94505 41.2249 7.97344 41.7799C7.97344 41.8083 7.97344 41.851 7.97344 41.8937C7.97344 42.0929 7.95924 42.3917 8.15799 42.5909C8.66907 43.1316 9.43568 43.1885 10.1029 43.2312C10.2875 43.2455 10.472 43.2597 10.6424 43.2881C12.1046 43.5016 13.3823 43.6154 14.5322 43.6154C15.7389 43.6154 16.8036 43.5016 17.769 43.2597C17.8968 43.2312 18.0813 43.2028 18.3085 43.1743C19.1319 43.0605 20.154 42.9182 20.4805 42.3206C20.7929 41.7514 20.7219 41.0257 20.6651 40.4423L20.6509 40.2574C20.6083 39.8447 20.5657 39.4321 20.5373 39.0194C20.4663 38.3649 20.4096 37.6962 20.367 37.0274C20.3812 37.0558 20.3954 37.0701 20.4237 37.0985C20.8213 37.5681 21.2897 38.0803 21.9712 38.308C22.1557 38.3649 22.3403 38.3934 22.5248 38.3934C22.8372 38.3934 23.1495 38.308 23.4192 38.1515C23.8309 37.9096 24.1148 37.4969 24.2 37.0274C24.2994 36.444 24.0581 35.8464 23.8025 35.3341C23.5754 33.9112 22.9081 29.5856 19.6997 28.675C19.6429 28.6607 19.5862 28.6892 19.5436 28.6892C19.2738 28.3477 18.9615 28.0347 18.564 27.8212C18.4362 27.7501 18.2943 27.7928 18.1949 27.8781C17.7122 27.9208 17.1302 28.0347 16.6049 28.2481C16.6617 27.9208 16.6617 27.5651 16.6617 27.2378C16.6617 27.0386 16.6617 26.8537 16.6759 26.6687C16.6759 26.6402 16.6617 26.626 16.6475 26.5975C17.0024 26.4979 17.3431 26.3841 17.698 26.2418C19.4584 25.5588 20.6793 24.7762 21.3607 23.9225C21.815 23.3533 22.1131 22.7415 22.3403 22.1012C22.6242 22.2008 22.8939 22.2719 23.1495 22.2719C23.5044 22.2719 23.8167 22.1439 24.1006 21.9589C24.3136 22.3004 24.6259 22.5138 24.9666 22.5138C24.9808 22.5138 24.995 22.5138 25.0234 22.5138C25.2222 22.4996 25.7048 22.3858 25.8752 21.5605C25.932 21.0625 25.7758 20.4791 25.4067 19.9811ZM5.14834 21.2332L5.16254 21.1478C5.53165 19.3408 6.28406 18.0744 7.53335 17.1495C7.00808 19.3123 6.80933 21.219 6.96549 23.0688C7.02228 23.7517 7.12165 24.577 7.36299 25.2885C6.66736 24.8474 6.04272 24.2924 5.51745 23.581C5.3187 23.3106 5.14834 23.0118 5.02057 22.713C5.02057 22.6988 5.03477 22.6703 5.03477 22.6561C4.94959 22.2435 5.04897 21.7028 5.14834 21.2332ZM11.5793 27.1952C11.5651 27.6932 11.551 28.1912 11.551 28.7034C11.0683 28.6607 10.5714 28.6181 10.0887 28.5896C9.19434 28.5185 8.28576 28.4615 7.37719 28.3477C7.30621 28.3335 7.20683 28.3335 7.09326 28.3192C6.5396 28.2766 6.18468 28.2196 6.07111 28.1485C6.0995 28.0489 6.15629 27.9066 6.18468 27.8355C6.21308 27.7643 6.22727 27.7074 6.24147 27.6789C6.41183 27.0956 6.62477 26.4695 6.85192 25.8149C7.43397 26.1991 8.04442 26.4979 8.71166 26.6829C9.46407 26.8963 10.2449 26.9533 11.0115 27.0244L11.3238 27.0529C11.409 27.0671 11.4942 27.0529 11.5935 27.0671L11.5793 27.1952ZM1.79797 22.087C1.6844 22.1296 1.64181 22.1154 1.64181 22.1154C1.61342 22.1012 1.55663 21.9731 1.57083 21.7455C1.59922 21.2048 1.81217 20.7067 2.15288 20.4364C2.26646 20.351 2.38003 20.3083 2.46521 20.3083C2.52199 20.3083 2.56458 20.3226 2.59297 20.3368C2.72074 20.4079 2.72074 20.5929 2.72074 20.6925C2.66396 21.219 2.26646 21.6459 1.79797 22.087ZM3.26021 21.5036C3.24601 21.4893 3.21762 21.4893 3.20342 21.4751C3.317 21.2617 3.40217 21.0198 3.43057 20.7637C3.47316 20.2941 3.2886 19.9099 2.93369 19.7107C2.72074 19.5969 2.4794 19.5826 2.23806 19.6253C2.15288 19.3977 2.15288 19.0989 2.28065 18.7858C2.39422 18.4728 2.59297 18.2451 2.80592 18.1597C3.03307 18.0744 3.52994 18.2309 3.79968 18.4159C3.82807 18.4301 3.85646 18.4301 3.88485 18.4301C3.87066 18.7858 3.87066 19.1131 3.84226 19.3123C3.77128 20.0664 3.78548 21.0055 4.01262 21.9589C3.74289 21.9162 3.45896 21.7455 3.26021 21.5036ZM4.93539 24.0079C5.16254 24.3209 5.41807 24.6055 5.68781 24.8758C5.50325 24.762 5.27611 24.5913 5.03477 24.3494C4.96379 24.2782 4.85021 24.1644 4.82182 24.079C4.80763 24.0221 4.80763 23.9367 4.82182 23.8371C4.86441 23.894 4.8928 23.9509 4.93539 24.0079ZM19.8275 39.0764C19.8701 39.489 19.9127 39.9016 19.9411 40.3143L19.9553 40.4993C19.9979 40.983 20.0688 41.5807 19.8559 41.9648C19.6997 42.2494 18.6918 42.3917 18.2091 42.4629C17.9678 42.4913 17.7548 42.534 17.5987 42.5625C15.8099 43.0036 13.6378 43.0036 10.7559 42.5767C10.5714 42.5482 10.3726 42.534 10.1597 42.5198C9.59184 42.4771 8.99559 42.4344 8.69746 42.1356C8.68326 42.0929 8.68326 41.9791 8.69746 41.9222C8.69746 41.8652 8.69746 41.7941 8.69746 41.7514C8.69746 41.6803 8.69746 41.6234 8.69746 41.5522C8.71166 41.5522 8.72585 41.5522 8.74005 41.5664C9.03818 41.6518 9.3363 41.7514 9.69121 41.7514C9.69121 41.7514 9.69121 41.7514 9.70541 41.7514C9.90416 41.7514 10.0603 41.5949 10.0603 41.4099C10.0603 41.2107 9.90416 41.0542 9.71961 41.04C9.46407 41.04 9.22273 40.9546 8.953 40.8834C8.86782 40.855 8.78264 40.8408 8.69746 40.8123C8.69746 40.6416 8.68326 40.4566 8.68326 40.2858C9.50666 40.5419 10.3584 40.6985 11.196 40.6985C11.3948 40.6985 11.551 40.542 11.551 40.3427C11.551 40.1435 11.3948 39.987 11.196 39.987C10.3584 39.987 9.49246 39.8305 8.66907 39.5459C8.66907 39.3467 8.66907 39.1475 8.66907 38.9483C8.86782 39.0052 9.06657 39.0764 9.29371 39.1048C9.30791 39.1048 9.3363 39.1048 9.3505 39.1048C9.52086 39.1048 9.67702 38.9768 9.70541 38.806C9.7338 38.6068 9.60603 38.4361 9.40728 38.3934C9.15175 38.3507 8.89621 38.2795 8.66907 38.1942C8.66907 37.9665 8.66907 37.7388 8.66907 37.5112C9.3363 37.7531 10.0035 37.8954 10.6282 37.8954C10.7134 37.8954 10.7985 37.8954 10.8695 37.8954C11.0683 37.8811 11.2102 37.7246 11.2102 37.5254C11.196 37.3262 11.0399 37.1839 10.8411 37.1839C10.1739 37.2266 9.42148 37.0843 8.66907 36.7855C8.66907 36.6147 8.66907 36.4298 8.66907 36.2733C8.83943 36.3159 9.00978 36.3729 9.18014 36.4155C9.20853 36.4298 9.23693 36.4298 9.26532 36.4298C9.42148 36.4298 9.56345 36.3302 9.60603 36.1594C9.64862 35.9744 9.53505 35.7752 9.3505 35.7326C9.16594 35.6899 8.98139 35.6329 8.79684 35.576L8.66907 35.5333C8.66907 35.3199 8.66907 35.0922 8.66907 34.8788C8.69746 34.893 8.74005 34.9073 8.76844 34.9073C9.08077 35.0211 9.39309 35.1349 9.7338 35.2061C9.96095 35.2488 10.1881 35.263 10.4152 35.2772C10.543 35.2772 10.6708 35.2915 10.7985 35.3057C10.8127 35.3057 10.8269 35.3057 10.8411 35.3057C11.0257 35.3057 11.1676 35.1776 11.196 34.9926C11.2244 34.7934 11.0825 34.6227 10.8837 34.5942C10.7418 34.58 10.5998 34.5658 10.4578 34.5658C10.2733 34.5515 10.0745 34.5515 9.88996 34.5089C9.60604 34.4519 9.32211 34.3381 9.02398 34.2385C8.91041 34.1958 8.79684 34.1531 8.69746 34.1247C8.69746 33.9397 8.69746 33.769 8.71166 33.584L8.78264 33.5982C8.9388 33.6409 9.10916 33.6693 9.26532 33.712C9.29371 33.7263 9.32211 33.7263 9.3505 33.7263C9.50666 33.7263 9.64862 33.6267 9.69121 33.4559C9.748 33.2709 9.63443 33.0717 9.43568 33.0148C9.26532 32.9721 9.10916 32.9294 8.9388 32.8868L8.66907 32.8583V32.8441C8.66907 32.6875 8.5555 32.5737 8.42773 32.531C8.35674 32.4599 8.27157 32.4172 8.17219 32.4172H8.15799C7.44817 32.4457 6.72415 32.403 5.80138 32.3034C5.21932 32.2464 4.5237 32.1468 3.84226 31.9619C3.33119 31.8196 3.00467 31.5635 2.82012 31.2077C2.94789 31.2504 3.06146 31.2931 3.20342 31.3216C3.21762 31.3216 3.24601 31.3216 3.26021 31.3216C3.43057 31.3216 3.58673 31.1935 3.61512 31.0228C3.64351 30.8235 3.51575 30.6528 3.317 30.6101C3.10405 30.5817 2.86271 30.4678 2.64976 30.354C2.64976 30.169 2.67815 29.9698 2.72074 29.7706C3.18923 29.9414 3.7145 30.0694 4.25396 30.1406C4.26816 30.1406 4.28236 30.1406 4.29655 30.1406C4.46691 30.1406 4.62307 30.0125 4.65146 29.8275C4.67986 29.6283 4.53789 29.4576 4.33914 29.4291C3.82807 29.3722 3.33119 29.2441 2.8911 29.0734C2.93369 28.9453 2.97628 28.803 3.01887 28.675C3.08985 28.6892 3.16083 28.7034 3.23182 28.7177C3.34539 28.7461 3.44476 28.7746 3.55834 28.7888C3.58673 28.7888 3.60092 28.7888 3.61512 28.7888C3.78548 28.7888 3.92744 28.675 3.97003 28.49C3.99843 28.2908 3.87066 28.1058 3.6861 28.0774C3.58673 28.0631 3.50155 28.0347 3.40217 28.0204C3.35958 28.0062 3.33119 28.0062 3.2886 27.992C3.35958 27.807 3.43057 27.6363 3.50155 27.4655L3.54414 27.3517C4.01262 27.5509 4.4953 27.622 4.97798 27.6932L5.06316 26.9817C4.59468 26.9248 4.19718 26.8394 3.81387 26.6687C3.84226 26.5691 3.88485 26.4837 3.91325 26.3841C3.92744 26.3414 3.94164 26.2987 3.97003 26.2418C4.05521 26.2703 4.12619 26.2845 4.21137 26.313C4.39593 26.3699 4.58048 26.4268 4.76504 26.4695C4.79343 26.4695 4.80763 26.4837 4.83602 26.4837C5.00638 26.4837 5.14834 26.3699 5.17673 26.1991C5.21932 26.0142 5.09156 25.8149 4.907 25.7723C4.73664 25.7438 4.58048 25.6869 4.41012 25.63C4.33914 25.6157 4.26816 25.5873 4.21137 25.5731C4.31075 25.3169 4.39593 25.0466 4.48111 24.762C4.4953 24.7905 4.5237 24.8189 4.53789 24.8331C4.96379 25.26 5.54584 25.7153 6.08531 25.7153C6.0995 25.7153 6.1279 25.7011 6.14209 25.7011C5.92915 26.313 5.7162 26.9106 5.56004 27.4513L5.51745 27.5509C5.36129 27.9493 5.3045 28.1485 5.37548 28.3192C5.57424 28.9026 6.42602 28.9453 7.06487 28.988C7.16424 28.988 7.24942 29.0022 7.30621 29.0022C8.22898 29.1161 9.15175 29.1872 10.0461 29.2441C10.6424 29.2868 11.2244 29.3295 11.8207 29.3864C11.8491 29.4007 11.8775 29.4291 11.9201 29.4291H11.9343C12.0052 29.4291 12.0478 29.3864 12.1046 29.3437C12.7151 29.6141 13.3539 29.7848 13.9785 29.7848C14.4328 29.7848 14.8871 29.7137 15.313 29.5572L15.3698 29.5429C15.384 29.6995 15.455 29.8275 15.5118 29.9271C15.5828 30.0125 15.6821 30.0694 15.7815 30.0694C15.7815 30.0694 15.7815 30.0694 15.7957 30.0694C15.7815 30.1121 15.7673 30.169 15.7673 30.2117C15.7673 30.3682 15.8383 30.6528 16.25 30.8235C16.2642 30.8235 16.2784 30.8235 16.2926 30.8378C16.2926 31.037 16.3778 31.2077 16.5623 31.3358C16.7327 31.4496 16.9172 31.5065 17.1018 31.5065C17.3431 31.5065 17.5703 31.4212 17.7974 31.3358C17.8258 31.3785 17.8542 31.4354 17.8826 31.4781C17.9678 31.6061 18.0387 31.7342 18.1097 31.8623C18.1239 31.8765 18.1381 31.8907 18.1523 31.905C18.0529 31.9619 17.9678 32.0188 17.8684 32.0615C17.698 32.1468 17.6128 32.3603 17.698 32.531C17.698 32.5453 17.7122 32.5453 17.7122 32.5595C17.7122 32.5879 17.7264 32.6306 17.7406 32.6591C18.0671 33.399 18.4788 34.1104 18.8763 34.7792L19.2312 35.3911C19.3448 35.5903 19.4868 35.8037 19.6287 36.0171C19.6146 36.0598 19.5862 36.0883 19.5862 36.131C19.6287 37.1412 19.7281 38.123 19.8275 39.0764ZM23.0359 37.5254C22.7804 37.6819 22.468 37.7104 22.1841 37.625C21.6872 37.4543 21.3039 37.0416 20.9632 36.629C20.4947 36.074 20.1398 35.5618 19.8559 35.078L19.501 34.4662C19.1319 33.8401 18.777 33.2425 18.4788 32.6022C18.6918 32.4883 18.9047 32.3603 19.1319 32.2464C19.4726 32.0615 19.7991 31.8623 20.154 31.7057C20.1966 31.6773 20.2818 31.6346 20.367 31.5777C20.4379 31.535 20.5515 31.4496 20.6367 31.4212C20.9348 31.535 21.2188 31.8196 21.5027 32.3034C21.8718 32.9437 22.2125 33.6409 22.5248 34.3097C22.6952 34.6654 22.8797 35.0353 23.0785 35.448C23.3056 35.9033 23.5896 36.4582 23.5186 36.8993C23.4334 37.1554 23.2772 37.3831 23.0359 37.5254ZM22.2835 32.3603C22.2125 32.218 22.1415 32.0757 22.0705 31.9476C21.673 31.2504 21.233 30.852 20.7077 30.7097C20.6793 30.6955 20.6367 30.7097 20.6083 30.7097C20.4663 30.354 20.296 29.9698 20.0972 29.5999C21.0342 30.0694 21.7582 30.9943 22.2835 32.3603ZM19.9553 30.9658C19.9553 30.9658 19.9411 30.9658 19.9411 30.9801C19.8843 31.0085 19.8417 31.037 19.8133 31.0512C19.4442 31.222 19.1035 31.4212 18.7486 31.6204C18.7344 31.6204 18.7344 31.6346 18.7202 31.6346C18.706 31.6061 18.7202 31.5919 18.706 31.5635C18.635 31.4212 18.5498 31.2931 18.4646 31.1508C18.4504 31.1224 18.422 31.0939 18.4079 31.0654C18.5214 30.9658 18.5924 30.8235 18.5356 30.667C18.4646 30.4821 18.2517 30.3967 18.0813 30.4678C17.9962 30.4963 17.8968 30.5532 17.7974 30.5959C17.5561 30.7097 17.2012 30.8662 17.0024 30.8235C17.1728 30.5959 17.7974 30.2402 18.0245 30.1548C18.2091 30.0836 18.3085 29.8844 18.2375 29.6995C18.1665 29.5145 17.9678 29.4149 17.7832 29.486C17.769 29.486 16.9456 29.8417 16.5197 30.3113C16.4913 30.2971 16.4771 30.2686 16.4487 30.2544C16.4771 30.0979 16.9882 29.7137 17.3147 29.5572C17.4851 29.4718 17.5703 29.2584 17.4851 29.0876C17.3999 28.9169 17.187 28.8315 17.0166 28.9169C17.0024 28.9169 16.4487 29.2014 16.0654 29.5999C16.0512 29.5856 16.0654 29.5572 16.0512 29.5429C16.0512 29.5429 16.0512 29.4433 16.3068 29.2157C16.832 28.7603 17.7548 28.6181 18.2659 28.5754C18.2801 28.5754 18.2943 28.5611 18.3085 28.5469C19.1461 29.0734 19.6004 30.0979 19.9553 30.9658ZM15.9093 27.2378C15.9093 27.7643 15.9093 28.3192 15.6821 28.6607C15.6253 28.7603 15.3556 28.8457 15.1994 28.8884L15.0575 28.9453C14.2057 29.2441 13.1694 29.1588 12.2608 28.7177C12.2608 28.2196 12.275 27.7216 12.2892 27.2378V27.1098C12.4737 27.1098 12.6583 27.1382 12.8286 27.1382C13.9218 27.1382 14.9297 27.0102 15.9093 26.7825C15.9093 26.9248 15.9093 27.0671 15.9093 27.2378ZM17.3999 25.5873C15.5402 26.313 13.6804 26.5406 11.3806 26.3556L11.0541 26.3272C10.3301 26.2703 9.56345 26.1991 8.88201 26.0142C8.66907 25.9572 8.47032 25.8576 8.25737 25.7723C8.25737 25.7153 8.27157 25.6584 8.24317 25.6015C7.84567 24.8901 7.7321 23.8513 7.66112 23.0261C7.50496 21.0767 7.7179 19.1416 8.34255 16.7795V16.7653C8.42773 16.7369 8.51291 16.7084 8.58389 16.6942C9.09496 16.6372 9.64862 16.8365 10.1313 17.0072C10.3159 17.0783 10.5146 16.9787 10.5856 16.7938C10.6566 16.6088 10.5572 16.4096 10.3726 16.3384C9.83318 16.1392 9.16594 15.8973 8.47032 15.9827C8.1438 16.0254 7.85987 16.1535 7.59013 16.2815C7.3204 16.4096 7.05067 16.5234 6.80933 16.5376C6.65317 16.5519 6.41183 16.438 6.21308 16.3527C6.1137 16.31 6.02852 16.2815 5.95754 16.2531C5.77299 16.1961 5.57424 16.2815 5.50325 16.4665C5.43227 16.6515 5.53165 16.8507 5.7162 16.9218C5.78718 16.9503 5.85816 16.9787 5.94334 17.0072C6.0995 17.0641 6.25567 17.1353 6.42602 17.1779C5.48906 18.1028 4.85021 19.2838 4.5095 20.8063C4.46691 20.2941 4.48111 19.8103 4.5237 19.3834C4.58048 18.7716 4.59468 16.9218 4.53789 16.1392C4.69405 14.4602 5.11995 12.3828 5.3187 11.401C6.1137 11.6002 6.9229 11.529 7.63272 11.1164C8.28576 10.7322 8.72585 10.1061 8.953 9.39469C10.1455 10.1204 11.4658 10.2769 12.5021 9.66504C12.9706 9.39469 13.3113 8.98205 13.5669 8.49827C14.6458 9.40892 16.0228 9.6935 17.1586 9.20972C18.0245 9.57967 19.6713 10.4903 20.7645 12.2974C20.7645 12.2974 21.7866 14.5029 22.2409 17.0641C22.2267 17.3772 22.1841 17.676 22.1841 17.989C22.1557 18.4728 22.1415 18.9566 22.0989 19.4261C21.7156 18.4301 21.1336 17.3772 20.3386 16.6799C20.296 16.6372 20.2392 16.623 20.1824 16.5803C20.4521 16.4665 20.6793 16.2815 20.878 16.1108L21.0626 15.9543C21.2188 15.8262 21.233 15.6128 21.1194 15.4562C20.9916 15.2997 20.7787 15.2855 20.6225 15.3993C20.5515 15.4562 20.4805 15.5132 20.4237 15.5701C20.2392 15.7266 20.0546 15.8973 19.9411 15.9543C19.8985 15.9543 19.7991 15.8973 19.7423 15.8831C19.6855 15.8547 19.6287 15.8404 19.6004 15.8262L19.359 15.7408C19.0325 15.627 18.6776 15.4989 18.2801 15.4705C17.1586 15.3993 16.1506 15.7693 15.4976 16.0823C15.3272 16.1677 15.242 16.3811 15.3272 16.5519C15.384 16.6799 15.5118 16.7511 15.6395 16.7511C15.6963 16.7511 15.7389 16.7369 15.7957 16.7084C16.2074 16.5092 16.7895 16.2815 17.4283 16.1961C18.635 17.8609 19.0041 19.9384 19.3448 21.9304C19.3732 22.0585 19.4016 22.215 19.43 22.3573C19.5578 22.9976 19.7139 23.7944 19.5578 24.3494C19.5436 24.4063 19.572 24.449 19.572 24.4917C19.0041 24.8758 18.2801 25.2458 17.3999 25.5873ZM20.7645 23.4814C20.6509 23.6379 20.4947 23.7802 20.3244 23.9225C20.3386 23.3533 20.225 22.7415 20.1256 22.215L20.0404 21.8024C19.7281 19.9668 19.3874 18.0886 18.4362 16.438C18.9615 16.6372 19.4726 16.8649 19.8559 17.1922C20.878 18.0744 21.5879 19.7534 21.8576 21.0198C21.673 21.9162 21.3465 22.7557 20.7645 23.4814ZM22.4964 21.4324C22.7662 20.3652 22.823 19.2412 22.8797 18.1313C22.9365 18.1313 22.9791 18.1455 23.0217 18.1171C23.3198 17.9605 23.7457 17.804 24.0722 17.9036C24.2994 17.9748 24.4981 18.174 24.6259 18.4586C24.7679 18.7574 24.7821 19.0989 24.7253 19.3692C24.4272 19.1842 24.1148 19.0562 23.8025 19.0419C23.7173 19.0419 23.618 19.0704 23.547 19.1273C23.4902 19.0989 23.4334 19.0989 23.3766 19.1131C23.1921 19.17 23.0927 19.3692 23.1495 19.5542C23.2347 19.8388 23.3482 20.1091 23.4476 20.3795L23.6038 20.8063C23.6605 20.9771 23.7173 21.1336 23.7883 21.3044C23.4618 21.5889 23.0217 21.6316 22.4964 21.4324ZM24.924 21.8166C24.8247 21.8166 24.6685 21.7028 24.5691 21.404C24.4697 21.1194 24.3704 20.849 24.271 20.5644L24.1006 20.1234C24.0581 20.0095 24.0155 19.8815 23.9587 19.7676C24.271 19.853 24.5833 20.0949 24.8247 20.3937C25.0802 20.7352 25.1938 21.1052 25.1228 21.4182C25.0802 21.7028 24.9808 21.8024 24.924 21.8166Z" fill="#85926E"/>
<path d="M11.2386 41.1396C11.0114 41.1396 10.7843 41.1253 10.5571 41.1111C10.3584 41.0827 10.188 41.2249 10.1596 41.4241C10.1312 41.6234 10.2732 41.7941 10.4719 41.8226C10.7275 41.851 10.9688 41.851 11.2244 41.8652C11.4231 41.8652 11.5793 41.7087 11.5793 41.5095C11.5935 41.3103 11.4373 41.1396 11.2386 41.1396Z" fill="#85926E"/>
<path d="M11.1535 38.5072C10.827 38.5072 10.4863 38.493 10.1598 38.4361C9.96103 38.4076 9.79067 38.5357 9.74808 38.7349C9.71969 38.9341 9.84745 39.1191 10.0462 39.1475C10.4153 39.2044 10.7844 39.2187 11.1393 39.2329C11.3381 39.2329 11.4942 39.0764 11.4942 38.8772C11.5084 38.678 11.3523 38.5214 11.1535 38.5072Z" fill="#85926E"/>
<path d="M10.8554 35.8179C10.614 35.7895 10.3585 35.7468 10.1172 35.7041C9.9326 35.6614 9.73385 35.7895 9.70546 35.9887C9.66287 36.1879 9.79064 36.3729 9.98939 36.4013C10.2591 36.4582 10.5147 36.4867 10.7844 36.5151C10.7986 36.5151 10.8128 36.5151 10.827 36.5151C11.0115 36.5151 11.1535 36.3729 11.1819 36.2021C11.1961 36.0171 11.0541 35.8464 10.8554 35.8179Z" fill="#85926E"/>
<path d="M11.3669 33.4703C11.3953 33.2711 11.2533 33.1004 11.0545 33.0719L10.8558 33.0577C10.6287 33.0292 10.4157 33.015 10.2312 32.9581C10.0466 32.9012 9.84785 33.015 9.79106 33.2C9.73428 33.385 9.84785 33.5842 10.0324 33.6411C10.2879 33.7122 10.5435 33.7407 10.7848 33.7691L10.9694 33.7834C10.9836 33.7834 10.9978 33.7834 11.012 33.7834C11.1965 33.7834 11.3527 33.6553 11.3669 33.4703Z" fill="#85926E"/>
<path d="M4.26826 30.7097C4.08371 30.6528 3.88496 30.7666 3.82817 30.9516C3.77138 31.1366 3.88496 31.3358 4.06951 31.3927C4.25406 31.4496 4.43862 31.4638 4.67996 31.4923L4.72255 31.1366L4.70835 30.7808C4.56639 30.7666 4.41023 30.7524 4.26826 30.7097Z" fill="#85926E"/>
<path d="M4.55202 28.305L4.35327 28.2908C4.16871 28.2766 3.98416 28.4046 3.95577 28.6038C3.92737 28.803 4.06934 28.9738 4.26809 29.0022L4.49523 29.0165C4.50943 29.0165 4.50943 29.0165 4.52363 29.0165C4.70818 29.0165 4.86434 28.8742 4.87854 28.6892C4.89273 28.4758 4.75077 28.3192 4.55202 28.305Z" fill="#85926E"/>
</svg>
