<svg width="100" height="100" viewBox="0 0 100 100" fill="none" xmlns="http://www.w3.org/2000/svg">
    <circle cx="50" cy="50" r="50" fill="url(#paint0_linear_1862_31963)"/>
    <g filter="url(#filter0_d_1862_31963)">
        <path fill-rule="evenodd" clip-rule="evenodd" d="M57.5 24.8254C56.1193 24.8254 55 25.9447 55 27.3254C55 28.7062 56.1193 29.8254 57.5 29.8254H66.1952L52.959 43.2935C50.0413 41.1151 46.4212 39.8254 42.5 39.8254C32.835 39.8254 25 47.6605 25 57.3254C25 66.9904 32.835 74.8254 42.5 74.8254C52.165 74.8254 60 66.9904 60 57.3254C60 53.385 58.6977 49.7488 56.5 46.8237L70 33.0872V42.3254C70 43.7062 71.1193 44.8254 72.5 44.8254C73.8807 44.8254 75 43.7062 75 42.3254V27.3254C75 25.9447 73.8807 24.8254 72.5 24.8254H57.5ZM42.5 44.8254C35.5964 44.8254 30 50.4219 30 57.3254C30 64.229 35.5964 69.8254 42.5 69.8254C49.4036 69.8254 55 64.229 55 57.3254C55 50.4219 49.4036 44.8254 42.5 44.8254Z" fill="white"/>
    </g>
    <defs>
        <filter id="filter0_d_1862_31963" x="20" y="22.3254" width="60" height="60" filterUnits="userSpaceOnUse" color-interpolation-filters="sRGB">
            <feFlood flood-opacity="0" result="BackgroundImageFix"/>
            <feColorMatrix in="SourceAlpha" type="matrix" values="0 0 0 0 0 0 0 0 0 0 0 0 0 0 0 0 0 0 127 0" result="hardAlpha"/>
            <feOffset dy="2.5"/>
            <feGaussianBlur stdDeviation="2.5"/>
            <feComposite in2="hardAlpha" operator="out"/>
            <feColorMatrix type="matrix" values="0 0 0 0 0.168627 0 0 0 0 0.227451 0 0 0 0 0.403922 0 0 0 1 0"/>
            <feBlend mode="normal" in2="BackgroundImageFix" result="effect1_dropShadow_1862_31963"/>
            <feBlend mode="normal" in="SourceGraphic" in2="effect1_dropShadow_1862_31963" result="shape"/>
        </filter>
        <linearGradient id="paint0_linear_1862_31963" x1="49.7653" y1="1.57308e-05" x2="49.7653" y2="100" gradientUnits="userSpaceOnUse">
            <stop stop-color="#65AFFF"/>
            <stop offset="1" stop-color="#335C81"/>
        </linearGradient>
    </defs>
</svg>
