<svg width="100" height="100" viewBox="0 0 100 100" fill="none" xmlns="http://www.w3.org/2000/svg">
    <circle cx="50" cy="50" r="50" fill="url(#paint0_linear_1862_32015)"/>
    <g filter="url(#filter0_d_1862_32015)">
        <path fill-rule="evenodd" clip-rule="evenodd" d="M50 27.5C43.0964 27.5 37.5 33.0964 37.5 40C37.5 46.8097 42.9453 52.3475 49.7191 52.4969C49.8163 52.4856 49.9152 52.4798 50.0155 52.4799C50.1129 52.4799 50.2091 52.4855 50.3037 52.4964C57.0669 52.3351 62.5 46.802 62.5 40C62.5 33.0964 56.9036 27.5 50 27.5ZM32.5 40C32.5 48.8133 39.0149 56.1049 47.4916 57.3216L47.486 64.9792H40.0008C38.6089 64.9792 37.4805 66.1077 37.4805 67.4996C37.4805 68.8916 38.6089 70.02 40.0008 70.02H47.4823L47.4768 77.4984C47.4758 78.8904 48.6034 80.0196 49.9953 80.0206C51.3873 80.0216 52.5165 78.8941 52.5175 77.5021L52.523 70.02H60.0008C61.3928 70.02 62.5212 68.8916 62.5212 67.4996C62.5212 66.1077 61.3928 64.9792 60.0008 64.9792H52.5267L52.5323 57.3181C60.9973 56.0912 67.5 48.805 67.5 40C67.5 30.335 59.665 22.5 50 22.5C40.335 22.5 32.5 30.335 32.5 40Z" fill="white"/>
    </g>
    <defs>
        <filter id="filter0_d_1862_32015" x="27.5" y="20" width="45" height="67.5206" filterUnits="userSpaceOnUse" color-interpolation-filters="sRGB">
            <feFlood flood-opacity="0" result="BackgroundImageFix"/>
            <feColorMatrix in="SourceAlpha" type="matrix" values="0 0 0 0 0 0 0 0 0 0 0 0 0 0 0 0 0 0 127 0" result="hardAlpha"/>
            <feOffset dy="2.5"/>
            <feGaussianBlur stdDeviation="2.5"/>
            <feComposite in2="hardAlpha" operator="out"/>
            <feColorMatrix type="matrix" values="0 0 0 0 0.666667 0 0 0 0 0.0972222 0 0 0 0 0.131389 0 0 0 1 0"/>
            <feBlend mode="normal" in2="BackgroundImageFix" result="effect1_dropShadow_1862_32015"/>
            <feBlend mode="normal" in="SourceGraphic" in2="effect1_dropShadow_1862_32015" result="shape"/>
        </filter>
        <linearGradient id="paint0_linear_1862_32015" x1="49.7653" y1="1.57308e-05" x2="49.7653" y2="100" gradientUnits="userSpaceOnUse">
            <stop stop-color="#FF896F"/>
            <stop offset="1" stop-color="#E84855"/>
        </linearGradient>
    </defs>
</svg>
