<svg width="24" height="28" viewBox="0 0 24 28" fill="none" xmlns="http://www.w3.org/2000/svg">
    <g filter="url(#filter0_d_6163_6630)">
        <path fill-rule="evenodd" clip-rule="evenodd" d="M12 3.5C9.23858 3.5 7 5.73858 7 8.5C7 11.2236 9.17772 13.4386 11.8869 13.4987C11.926 13.4942 11.9658 13.4918 12.0062 13.4919C12.0454 13.4919 12.0841 13.4941 12.1222 13.4985C14.8271 13.4337 17 11.2206 17 8.5C17 5.73858 14.7614 3.5 12 3.5ZM5 8.5C5 12.0253 7.60598 14.9419 10.9966 15.4286L10.9944 18.4917H8.00034C7.44355 18.4917 6.99219 18.9431 6.99219 19.4998C6.99219 20.0566 7.44355 20.508 8.00034 20.508H10.9929L10.9907 23.4993C10.9903 24.056 11.4413 24.5077 11.9981 24.5082C12.5549 24.5086 13.0066 24.0575 13.007 23.5007L13.0092 20.508H16.0003C16.5571 20.508 17.0085 20.0566 17.0085 19.4998C17.0085 18.9431 16.5571 18.4917 16.0003 18.4917H13.0107L13.0129 15.4272C16.3989 14.9365 19 12.022 19 8.5C19 4.63401 15.866 1.5 12 1.5C8.13401 1.5 5 4.63401 5 8.5Z" fill="white"/>
    </g>
    <defs>
        <filter id="filter0_d_6163_6630" x="-2" y="-0.5" width="28" height="28.0082" filterUnits="userSpaceOnUse" color-interpolation-filters="sRGB">
            <feFlood flood-opacity="0" result="BackgroundImageFix"/>
            <feColorMatrix in="SourceAlpha" type="matrix" values="0 0 0 0 0 0 0 0 0 0 0 0 0 0 0 0 0 0 127 0" result="hardAlpha"/>
            <feOffset dy="1"/>
            <feGaussianBlur stdDeviation="1"/>
            <feComposite in2="hardAlpha" operator="out"/>
            <feColorMatrix type="matrix" values="0 0 0 0 0.666667 0 0 0 0 0.0972222 0 0 0 0 0.131389 0 0 0 1 0"/>
            <feBlend mode="normal" in2="BackgroundImageFix" result="effect1_dropShadow_6163_6630"/>
            <feBlend mode="normal" in="SourceGraphic" in2="effect1_dropShadow_6163_6630" result="shape"/>
        </filter>
    </defs>
</svg>
