<svg width="30" height="30" viewBox="0 0 30 30" fill="none" xmlns="http://www.w3.org/2000/svg">
    <circle opacity="0.4" cx="15" cy="15" r="14" fill="#387682" stroke="#387682" stroke-width="2"/>
    <g filter="url(#filter0_d_2074_35548)">
        <path fill-rule="evenodd" clip-rule="evenodd" d="M15 7C12.7909 7 11 8.79086 11 11V14.5278C12.0615 13.5777 13.4633 13 15 13C18.3137 13 21 15.6863 21 19C21 22.3137 18.3137 25 15 25C11.6863 25 9 22.3137 9 19V11C9 7.68629 11.6863 5 15 5C18.3137 5 21 7.68629 21 11C21 11.5523 20.5523 12 20 12C19.4477 12 19 11.5523 19 11C19 8.79086 17.2091 7 15 7ZM11 19C11 21.2091 12.7909 23 15 23C17.2091 23 19 21.2091 19 19C19 16.7909 17.2091 15 15 15C12.7909 15 11 16.7909 11 19Z" fill="white"/>
    </g>
    <defs>
        <filter id="filter0_d_2074_35548" x="7" y="4" width="16" height="24" filterUnits="userSpaceOnUse" color-interpolation-filters="sRGB">
            <feFlood flood-opacity="0" result="BackgroundImageFix"/>
            <feColorMatrix in="SourceAlpha" type="matrix" values="0 0 0 0 0 0 0 0 0 0 0 0 0 0 0 0 0 0 127 0" result="hardAlpha"/>
            <feOffset dy="1"/>
            <feGaussianBlur stdDeviation="1"/>
            <feComposite in2="hardAlpha" operator="out"/>
            <feColorMatrix type="matrix" values="0 0 0 0 0.0666667 0 0 0 0 0.239216 0 0 0 0 0.372549 0 0 0 1 0"/>
            <feBlend mode="normal" in2="BackgroundImageFix" result="effect1_dropShadow_2074_35548"/>
            <feBlend mode="normal" in="SourceGraphic" in2="effect1_dropShadow_2074_35548" result="shape"/>
        </filter>
    </defs>
</svg>
