<svg width="30" height="30" viewBox="0 0 30 30" fill="none" xmlns="http://www.w3.org/2000/svg">
    <circle opacity="0.4" cx="15" cy="15" r="14" fill="#387682" stroke="#387682" stroke-width="2"/>
    <g filter="url(#filter0_d_2074_35546)">
        <path fill-rule="evenodd" clip-rule="evenodd" d="M11.7803 5.53977C12.3105 5.69441 12.6149 6.24958 12.4603 6.77977L9.70692 16.2198C9.52026 16.8598 10.0003 17.4998 10.6669 17.4998H17.0003V10.4998C17.0003 9.94749 17.448 9.49977 18.0003 9.49977C18.5525 9.49977 19.0003 9.94749 19.0003 10.4998V17.4998H21.0003C21.5525 17.4998 22.0003 17.9475 22.0003 18.4998C22.0003 19.0521 21.5525 19.4998 21.0003 19.4998H19.0003V23.4998C19.0003 24.0521 18.5525 24.4998 18.0003 24.4998C17.448 24.4998 17.0003 24.0521 17.0003 23.4998V19.4998H10.6669C8.66692 19.4998 7.22692 17.5798 7.78692 15.6598L10.5403 6.21977C10.6949 5.68958 11.2501 5.38513 11.7803 5.53977Z" fill="white"/>
    </g>
    <defs>
        <filter id="filter0_d_2074_35546" x="5.66504" y="4.49951" width="18.335" height="23.0005" filterUnits="userSpaceOnUse" color-interpolation-filters="sRGB">
            <feFlood flood-opacity="0" result="BackgroundImageFix"/>
            <feColorMatrix in="SourceAlpha" type="matrix" values="0 0 0 0 0 0 0 0 0 0 0 0 0 0 0 0 0 0 127 0" result="hardAlpha"/>
            <feOffset dy="1"/>
            <feGaussianBlur stdDeviation="1"/>
            <feComposite in2="hardAlpha" operator="out"/>
            <feColorMatrix type="matrix" values="0 0 0 0 0.0666667 0 0 0 0 0.239216 0 0 0 0 0.372549 0 0 0 1 0"/>
            <feBlend mode="normal" in2="BackgroundImageFix" result="effect1_dropShadow_2074_35546"/>
            <feBlend mode="normal" in="SourceGraphic" in2="effect1_dropShadow_2074_35546" result="shape"/>
        </filter>
    </defs>
</svg>
