<svg width="30" height="30" viewBox="0 0 30 30" fill="none" xmlns="http://www.w3.org/2000/svg">
    <circle opacity="0.4" cx="15" cy="15" r="14" fill="#387682" stroke="#387682" stroke-width="2"/>
    <g filter="url(#filter0_d_2074_35545)">
        <path fill-rule="evenodd" clip-rule="evenodd" d="M14.735 7C12.9821 7 11.5556 8.42174 11.5556 10.1667L11.5556 10.2353C11.5556 10.7876 11.1078 11.2353 10.5556 11.2353C10.0033 11.2353 9.55555 10.7876 9.55555 10.2353L9.55555 10.1667C9.55555 7.30921 11.8855 5 14.735 5C17.5704 5 19.8889 7.29783 19.8889 10.1412C19.8889 11.7421 19.1498 13.2022 17.9614 14.1546C19.7703 15.1273 21 17.0377 21 19.2353C21 22.4191 18.4191 25 15.2353 25H15C11.6863 25 9 22.3137 9 19V18.7059C9 18.1536 9.44772 17.7059 10 17.7059C10.5523 17.7059 11 18.1536 11 18.7059V19C11 21.2091 12.7909 23 15 23H15.2353C17.3145 23 19 21.3145 19 19.2353C19 17.1561 17.3145 15.4706 15.2353 15.4706H14.4444C13.9373 15.4706 13.5104 15.0909 13.4513 14.5873C13.3921 14.0836 13.7193 13.6153 14.2127 13.4978L15.4756 13.1969C16.8905 12.8599 17.8889 11.5956 17.8889 10.1412C17.8889 8.41035 16.4738 7 14.735 7Z" fill="white"/>
    </g>
    <defs>
        <filter id="filter0_d_2074_35545" x="7" y="4" width="16" height="24" filterUnits="userSpaceOnUse" color-interpolation-filters="sRGB">
            <feFlood flood-opacity="0" result="BackgroundImageFix"/>
            <feColorMatrix in="SourceAlpha" type="matrix" values="0 0 0 0 0 0 0 0 0 0 0 0 0 0 0 0 0 0 127 0" result="hardAlpha"/>
            <feOffset dy="1"/>
            <feGaussianBlur stdDeviation="1"/>
            <feComposite in2="hardAlpha" operator="out"/>
            <feColorMatrix type="matrix" values="0 0 0 0 0.0666667 0 0 0 0 0.239216 0 0 0 0 0.372549 0 0 0 1 0"/>
            <feBlend mode="normal" in2="BackgroundImageFix" result="effect1_dropShadow_2074_35545"/>
            <feBlend mode="normal" in="SourceGraphic" in2="effect1_dropShadow_2074_35545" result="shape"/>
        </filter>
    </defs>
</svg>
