<svg width="30" height="30" viewBox="0 0 30 30" fill="none" xmlns="http://www.w3.org/2000/svg">
    <circle opacity="0.4" cx="15" cy="15" r="14" fill="#387682" stroke="#387682" stroke-width="2"/>
    <g filter="url(#filter0_d_2074_35547)">
        <path fill-rule="evenodd" clip-rule="evenodd" d="M11.193 7.60497C11.5023 6.36787 12.6138 5.5 13.889 5.5H19.6111C20.1634 5.5 20.6111 5.94772 20.6111 6.5C20.6111 7.05228 20.1634 7.5 19.6111 7.5H13.889C13.5315 7.5 13.22 7.74327 13.1333 8.09004L12.1098 12.1841C11.9434 12.8497 12.448 13.494 13.1341 13.4919L15.2248 13.4854C18.4115 13.4755 21 16.056 21 19.2427C21 22.4224 18.4224 25 15.2427 25H15C11.6863 25 9 22.3137 9 19V18.7059C9 18.1536 9.44772 17.7059 10 17.7059C10.5523 17.7059 11 18.1536 11 18.7059V19C11 21.2091 12.7909 23 15 23H15.2427C17.3178 23 19 21.3178 19 19.2427C19 17.163 17.3107 15.4789 15.231 15.4854L13.1403 15.4919C11.1505 15.498 9.68688 13.6294 10.1695 11.699L11.193 7.60497Z" fill="white"/>
    </g>
    <defs>
        <filter id="filter0_d_2074_35547" x="7" y="4.5" width="16" height="23.5" filterUnits="userSpaceOnUse" color-interpolation-filters="sRGB">
            <feFlood flood-opacity="0" result="BackgroundImageFix"/>
            <feColorMatrix in="SourceAlpha" type="matrix" values="0 0 0 0 0 0 0 0 0 0 0 0 0 0 0 0 0 0 127 0" result="hardAlpha"/>
            <feOffset dy="1"/>
            <feGaussianBlur stdDeviation="1"/>
            <feComposite in2="hardAlpha" operator="out"/>
            <feColorMatrix type="matrix" values="0 0 0 0 0.0666667 0 0 0 0 0.239216 0 0 0 0 0.372549 0 0 0 1 0"/>
            <feBlend mode="normal" in2="BackgroundImageFix" result="effect1_dropShadow_2074_35547"/>
            <feBlend mode="normal" in="SourceGraphic" in2="effect1_dropShadow_2074_35547" result="shape"/>
        </filter>
    </defs>
</svg>
