<svg width="30" height="30" viewBox="0 0 30 30" fill="none" xmlns="http://www.w3.org/2000/svg">
    <circle opacity="0.4" cx="15" cy="15" r="14" fill="#387682" stroke="#387682" stroke-width="2"/>
    <g filter="url(#filter0_d_2074_35550)">
        <path fill-rule="evenodd" clip-rule="evenodd" d="M12 10C12 8.34315 13.3431 7 15 7C16.6569 7 18 8.34315 18 10C18 11.6569 16.6569 13 15 13C13.3431 13 12 11.6569 12 10ZM18.1435 13.8884C19.276 12.9718 20 11.5704 20 10C20 7.23858 17.7614 5 15 5C12.2386 5 10 7.23858 10 10C10 11.5704 10.724 12.9718 11.8565 13.8884C10.1425 14.9447 9 16.8389 9 19C9 22.3137 11.6863 25 15 25C18.3137 25 21 22.3137 21 19C21 16.8389 19.8575 14.9447 18.1435 13.8884ZM15 15C12.7909 15 11 16.7909 11 19C11 21.2091 12.7909 23 15 23C17.2091 23 19 21.2091 19 19C19 16.7909 17.2091 15 15 15Z" fill="white"/>
    </g>
    <defs>
        <filter id="filter0_d_2074_35550" x="7" y="4" width="16" height="24" filterUnits="userSpaceOnUse" color-interpolation-filters="sRGB">
            <feFlood flood-opacity="0" result="BackgroundImageFix"/>
            <feColorMatrix in="SourceAlpha" type="matrix" values="0 0 0 0 0 0 0 0 0 0 0 0 0 0 0 0 0 0 127 0" result="hardAlpha"/>
            <feOffset dy="1"/>
            <feGaussianBlur stdDeviation="1"/>
            <feComposite in2="hardAlpha" operator="out"/>
            <feColorMatrix type="matrix" values="0 0 0 0 0.0666667 0 0 0 0 0.239216 0 0 0 0 0.372549 0 0 0 1 0"/>
            <feBlend mode="normal" in2="BackgroundImageFix" result="effect1_dropShadow_2074_35550"/>
            <feBlend mode="normal" in="SourceGraphic" in2="effect1_dropShadow_2074_35550" result="shape"/>
        </filter>
    </defs>
</svg>
