<svg width="30" height="30" viewBox="0 0 30 30" fill="none" xmlns="http://www.w3.org/2000/svg">
    <g filter="url(#filter0_d_6163_6646)">
        <path fill-rule="evenodd" clip-rule="evenodd" d="M4 21.8755C4 19.3902 6.01472 17.3755 8.5 17.3755H21.5C23.9853 17.3755 26 19.3902 26 21.8755C26 24.3608 23.9853 26.3755 21.5 26.3755H8.5C6.01472 26.3755 4 24.3608 4 21.8755ZM8.5 19.3755C7.11929 19.3755 6 20.4948 6 21.8755C6 23.2562 7.11929 24.3755 8.5 24.3755H21.5C22.8807 24.3755 24 23.2562 24 21.8755C24 20.4948 22.8807 19.3755 21.5 19.3755H8.5Z" fill="white"/>
        <circle cx="8.50391" cy="10.1299" r="1.5" fill="white"/>
        <circle cx="21.5039" cy="10.1299" r="1.5" fill="white"/>
        <path d="M3 6.625L9 2.625" stroke="white" stroke-width="2" stroke-linecap="round"/>
        <path d="M27 6.625L21 2.625" stroke="white" stroke-width="2" stroke-linecap="round"/>
    </g>
    <defs>
        <filter id="filter0_d_6163_6646" x="0" y="0.624878" width="30" height="28.7506" filterUnits="userSpaceOnUse" color-interpolation-filters="sRGB">
            <feFlood flood-opacity="0" result="BackgroundImageFix"/>
            <feColorMatrix in="SourceAlpha" type="matrix" values="0 0 0 0 0 0 0 0 0 0 0 0 0 0 0 0 0 0 127 0" result="hardAlpha"/>
            <feOffset dy="1"/>
            <feGaussianBlur stdDeviation="1"/>
            <feComposite in2="hardAlpha" operator="out"/>
            <feColorMatrix type="matrix" values="0 0 0 0 0.662745 0 0 0 0 0.239216 0 0 0 0 0.262745 0 0 0 1 0"/>
            <feBlend mode="normal" in2="BackgroundImageFix" result="effect1_dropShadow_6163_6646"/>
            <feBlend mode="normal" in="SourceGraphic" in2="effect1_dropShadow_6163_6646" result="shape"/>
        </filter>
    </defs>
</svg>
