<svg width="340" height="544" viewBox="0 0 340 544" fill="none" xmlns="http://www.w3.org/2000/svg">
<mask id="mask0_119_8394" style="mask-type:alpha" maskUnits="userSpaceOnUse" x="0" y="0" width="340" height="544">
<path fill-rule="evenodd" clip-rule="evenodd" d="M0 10C0 4.47715 4.47715 0 10 0H58C63.5228 0 68 4.47715 68 10C68 4.47715 72.4771 0 78 0H126C131.523 0 136 4.47715 136 10C136 4.47715 140.477 0 146 0H194C199.523 0 204 4.47715 204 10C204 4.47715 208.477 0 214 0H262C267.523 0 272 4.47715 272 10C272 4.47715 276.477 0 282 0H330C335.523 0 340 4.47715 340 10V58C340 63.5228 335.523 68 330 68C335.523 68 340 72.4771 340 78V126C340 131.523 335.523 136 330 136C335.523 136 340 140.477 340 146V194C340 199.523 335.523 204 330 204C335.523 204 340 208.477 340 214V262C340 267.523 335.523 272 330 272C335.523 272 340 276.477 340 282V330C340 335.523 335.523 340 330 340C335.523 340 340 344.477 340 350V398C340 403.523 335.523 408 330 408C335.523 408 340 412.477 340 418V466C340 471.523 335.523 476 330 476C335.523 476 340 480.477 340 486V534C340 539.523 335.523 544 330 544H282C276.477 544 272 539.523 272 534C272 539.523 267.523 544 262 544H214C208.477 544 204 539.523 204 534C204 539.523 199.523 544 194 544H146C140.477 544 136 539.523 136 534C136 539.523 131.523 544 126 544H78C72.4772 544 68 539.523 68 534C68 539.523 63.5228 544 58 544H10C4.47715 544 0 539.523 0 534V486C0 480.477 4.47715 476 10 476C4.47715 476 0 471.523 0 466V418C0 412.477 4.47715 408 10 408C4.47715 408 0 403.523 0 398V350C0 344.477 4.47715 340 10 340C4.47715 340 0 335.523 0 330V282C0 276.477 4.47715 272 10 272C4.47715 272 0 267.523 0 262V214C0 208.477 4.47715 204 10 204C4.47715 204 0 199.523 0 194V146C0 140.477 4.47715 136 10 136C4.47715 136 0 131.523 0 126V78C0 72.4772 4.47715 68 10 68C4.47715 68 0 63.5228 0 58V10Z" fill="#C4C4C4"/>
</mask>
<g mask="url(#mask0_119_8394)">
<g opacity="0.3" filter="url(#filter0_i_119_8394)">
<path fill-rule="evenodd" clip-rule="evenodd" d="M352.483 29.0804C352.483 29.0804 297.304 15.745 264.182 37.2897C264.182 37.2897 244.609 46.5251 237.081 64.9919C237.081 64.9919 229.553 90.64 228.048 96.7956C226.542 102.951 229.553 113.212 231.059 117.316C232.565 120.393 234.07 123.465 232.564 130.647C231.059 137.828 211.486 179.896 211.486 179.896C211.486 179.896 205.464 191.178 212.992 202.464L223.531 218.882C223.531 218.882 228.048 225.038 223.531 232.22C219.014 239.401 203.958 259.916 194.925 273.253C194.925 273.253 185.891 279.407 184.386 284.537C182.88 288.641 179.869 293.773 184.386 299.929C188.902 306.084 202.452 317.368 202.452 317.368C202.452 317.368 209.981 322.5 209.981 326.604C209.981 330.708 205.464 337.888 205.464 337.888C205.464 337.888 199.442 344.043 203.958 350.198C203.958 350.198 208.475 355.33 208.475 358.408L206.97 365.59C206.97 365.59 203.958 368.665 209.981 375.847C209.981 375.847 216.003 383.027 216.003 387.13L206.97 416.887C206.97 416.887 199.442 427.144 209.981 434.326C219.014 441.507 238.587 451.765 238.587 451.765C238.587 451.765 244.609 454.848 252.137 450.744C259.665 446.64 285.26 441.507 289.777 440.481C294.294 439.455 298.81 435.354 301.821 436.38C301.821 436.38 304.833 437.401 307.844 444.583C310.855 451.764 350 540 350 540L352.483 29.0804Z" fill="#004B6A"/>
</g>
<g opacity="0.3" filter="url(#filter1_i_119_8394)">
<path fill-rule="evenodd" clip-rule="evenodd" d="M-14 17C-14 17 73.4902 52.2516 100.533 81.2828C100.533 81.2828 111.668 90.6162 105.305 109.279L97.3512 141.421C97.3512 141.421 108.487 176.672 108.487 186.003C108.487 196.372 108.487 204.666 105.305 211.924C102.124 220.219 114.849 246.141 118.031 252.362C121.212 258.583 130.757 274.135 135.529 278.282C140.301 282.43 151.437 290.724 149.846 304.203C149.846 304.203 148.255 315.604 137.12 319.752C137.12 319.752 124.394 322.866 122.803 330.124C122.803 330.124 124.394 338.419 129.166 343.603C129.166 343.603 127.575 352.929 121.213 357.076L111.668 360.19C111.668 360.19 125.985 366.413 124.394 381.965C124.394 381.965 114.85 385.073 113.259 392.331C113.259 392.331 113.259 400.626 113.259 405.81C113.259 410.994 114.85 420.323 106.896 428.617C106.896 428.617 94.1699 437.95 67.1274 435.876C67.1274 435.876 30.5405 433.802 19.4054 429.655C19.4054 429.655 -1.27414 526.084 -2.86488 549.931L-12.4095 552L-14 17Z" fill="#B60000" fill-opacity="0.5"/>
</g>
</g>
<defs>
<filter id="filter0_i_119_8394" x="182" y="25" width="178.483" height="515" filterUnits="userSpaceOnUse" color-interpolation-filters="sRGB">
<feFlood flood-opacity="0" result="BackgroundImageFix"/>
<feBlend mode="normal" in="SourceGraphic" in2="BackgroundImageFix" result="shape"/>
<feColorMatrix in="SourceAlpha" type="matrix" values="0 0 0 0 0 0 0 0 0 0 0 0 0 0 0 0 0 0 127 0" result="hardAlpha"/>
<feOffset dx="8"/>
<feGaussianBlur stdDeviation="14"/>
<feComposite in2="hardAlpha" operator="arithmetic" k2="-1" k3="1"/>
<feColorMatrix type="matrix" values="0 0 0 0 0 0 0 0 0 0.0533333 0 0 0 0 0.0833333 0 0 0 0.78 0"/>
<feBlend mode="normal" in2="shape" result="effect1_innerShadow_119_8394"/>
</filter>
<filter id="filter1_i_119_8394" x="-22" y="17" width="172" height="535" filterUnits="userSpaceOnUse" color-interpolation-filters="sRGB">
<feFlood flood-opacity="0" result="BackgroundImageFix"/>
<feBlend mode="normal" in="SourceGraphic" in2="BackgroundImageFix" result="shape"/>
<feColorMatrix in="SourceAlpha" type="matrix" values="0 0 0 0 0 0 0 0 0 0 0 0 0 0 0 0 0 0 127 0" result="hardAlpha"/>
<feOffset dx="-8"/>
<feGaussianBlur stdDeviation="15"/>
<feComposite in2="hardAlpha" operator="arithmetic" k2="-1" k3="1"/>
<feColorMatrix type="matrix" values="0 0 0 0 0.379167 0 0 0 0 0.02275 0 0 0 0 0 0 0 0 1 0"/>
<feBlend mode="normal" in2="shape" result="effect1_innerShadow_119_8394"/>
</filter>
</defs>
</svg>
