<svg width="100" height="100" viewBox="0 0 100 100" fill="none" xmlns="http://www.w3.org/2000/svg">
    <circle cx="50" cy="50" r="50" fill="url(#paint0_linear_1864_32680)"/>
    <g filter="url(#filter0_d_1864_32680)">
        <path fill-rule="evenodd" clip-rule="evenodd" d="M41.9506 26.3494C43.2761 26.736 44.0372 28.1239 43.6506 29.4494L36.7673 53.0494C36.3006 54.6494 37.5006 56.2494 39.1673 56.2494H55.0006V38.7494C55.0006 37.3687 56.1199 36.2494 57.5006 36.2494C58.8814 36.2494 60.0006 37.3687 60.0006 38.7494V56.2494H65.0006C66.3814 56.2494 67.5006 57.3687 67.5006 58.7494C67.5006 60.1301 66.3814 61.2494 65.0006 61.2494H60.0006V71.2494C60.0006 72.6301 58.8814 73.7494 57.5006 73.7494C56.1199 73.7494 55.0006 72.6301 55.0006 71.2494V61.2494H39.1673C34.1673 61.2494 30.5673 56.4494 31.9673 51.6494L38.8506 28.0494C39.2372 26.7239 40.6252 25.9628 41.9506 26.3494Z" fill="white"/>
    </g>
    <defs>
        <filter id="filter0_d_1864_32680" x="26.6626" y="23.7488" width="45.8379" height="57.5006" filterUnits="userSpaceOnUse" color-interpolation-filters="sRGB">
            <feFlood flood-opacity="0" result="BackgroundImageFix"/>
            <feColorMatrix in="SourceAlpha" type="matrix" values="0 0 0 0 0 0 0 0 0 0 0 0 0 0 0 0 0 0 127 0" result="hardAlpha"/>
            <feOffset dy="2.5"/>
            <feGaussianBlur stdDeviation="2.5"/>
            <feComposite in2="hardAlpha" operator="out"/>
            <feColorMatrix type="matrix" values="0 0 0 0 0.0666667 0 0 0 0 0.239216 0 0 0 0 0.372549 0 0 0 1 0"/>
            <feBlend mode="normal" in2="BackgroundImageFix" result="effect1_dropShadow_1864_32680"/>
            <feBlend mode="normal" in="SourceGraphic" in2="effect1_dropShadow_1864_32680" result="shape"/>
        </filter>
        <linearGradient id="paint0_linear_1864_32680" x1="52.5822" y1="1.14508e-07" x2="52.5822" y2="100" gradientUnits="userSpaceOnUse">
            <stop stop-color="#5DB2AC"/>
            <stop offset="1" stop-color="#336069"/>
        </linearGradient>
    </defs>
</svg>
