<svg width="26" height="29" viewBox="0 0 26 29" fill="none" xmlns="http://www.w3.org/2000/svg">
    <g filter="url(#filter0_i_6034_12351)">
        <path d="M4.4 0C2.24609 0 0.5 1.71844 0.5 3.83824V25.1618C0.5 27.2816 2.24609 29 4.4 29C6.55391 29 8.3 27.2816 8.3 25.1618V3.83824C8.3 1.71844 6.55391 0 4.4 0Z" fill="#387682"/>
        <path d="M21.6 0C19.4461 0 17.7 1.71844 17.7 3.83824V25.1618C17.7 27.2816 19.4461 29 21.6 29C23.7539 29 25.5 27.2816 25.5 25.1618V3.83824C25.5 1.71844 23.7539 0 21.6 0Z" fill="#387682"/>
    </g>
    <defs>
        <filter id="filter0_i_6034_12351" x="0.5" y="0" width="25" height="31" filterUnits="userSpaceOnUse" color-interpolation-filters="sRGB">
            <feFlood flood-opacity="0" result="BackgroundImageFix"/>
            <feBlend mode="normal" in="SourceGraphic" in2="BackgroundImageFix" result="shape"/>
            <feColorMatrix in="SourceAlpha" type="matrix" values="0 0 0 0 0 0 0 0 0 0 0 0 0 0 0 0 0 0 127 0" result="hardAlpha"/>
            <feOffset dy="2"/>
            <feGaussianBlur stdDeviation="3"/>
            <feComposite in2="hardAlpha" operator="arithmetic" k2="-1" k3="1"/>
            <feColorMatrix type="matrix" values="0 0 0 0 0.109804 0 0 0 0 0.215686 0 0 0 0 0.239216 0 0 0 1 0"/>
            <feBlend mode="normal" in2="shape" result="effect1_innerShadow_6034_12351"/>
        </filter>
    </defs>
</svg>
