<svg width="25" height="31" viewBox="0 0 25 31" fill="none" xmlns="http://www.w3.org/2000/svg">
    <g filter="url(#filter0_i_15_105)">
        <path d="M20.6211 11.524C22.5903 12.8558 23.575 13.5217 23.9192 14.3582C24.2203 15.0896 24.2203 15.9104 23.9192 16.6418C23.575 17.4783 22.5903 18.1442 20.6211 19.476L7.73909 28.1885C5.30894 29.832 4.09386 30.6538 3.08515 30.5983C2.2065 30.55 1.39338 30.1183 0.861088 29.4175C0.249999 28.6131 0.249999 27.1462 0.249999 24.2124L0.249999 6.78756C0.25 3.8538 0.25 2.38692 0.861089 1.58246C1.39339 0.881732 2.2065 0.450043 3.08515 0.401688C4.09386 0.346175 5.30894 1.16796 7.73909 2.81153L20.6211 11.524Z" fill="#387682"/>
    </g>
    <defs>
        <filter id="filter0_i_15_105" x="0.25" y="0.399048" width="23.895" height="32.2019" filterUnits="userSpaceOnUse" color-interpolation-filters="sRGB">
            <feFlood flood-opacity="0" result="BackgroundImageFix"/>
            <feBlend mode="normal" in="SourceGraphic" in2="BackgroundImageFix" result="shape"/>
            <feColorMatrix in="SourceAlpha" type="matrix" values="0 0 0 0 0 0 0 0 0 0 0 0 0 0 0 0 0 0 127 0" result="hardAlpha"/>
            <feOffset dy="2"/>
            <feGaussianBlur stdDeviation="3"/>
            <feComposite in2="hardAlpha" operator="arithmetic" k2="-1" k3="1"/>
            <feColorMatrix type="matrix" values="0 0 0 0 0.109804 0 0 0 0 0.215686 0 0 0 0 0.239216 0 0 0 1 0"/>
            <feBlend mode="normal" in2="shape" result="effect1_innerShadow_15_105"/>
        </filter>
    </defs>
</svg>
