<svg width="22" height="25" viewBox="0 0 22 25" fill="none" xmlns="http://www.w3.org/2000/svg">
    <g filter="url(#filter0_d_6002_10752)">
        <path fill-rule="evenodd" clip-rule="evenodd" d="M12.0044 8.97639C15.1496 8.82234 16.5202 7.93729 17.1781 6.99144C17.8149 6.07604 17.9586 4.9013 17.9903 3.52082C14.8092 3.65793 13.4515 4.45313 12.8078 5.33817C12.4382 5.84637 12.2262 6.48241 12.1143 7.27961C12.0406 7.80532 12.014 8.36784 12.0044 8.97639ZM9.98388 14.4759C9.93853 13.2369 9.76274 11.9592 9.10377 10.9051C8.40078 9.78055 7.01216 8.72241 4.00463 8.53078C4.03157 10.1395 4.16708 11.4508 4.83013 12.4453C5.4882 13.4323 6.84645 14.3202 9.98388 14.4759ZM9.99905 16.4785C6.46932 16.3214 4.33461 15.3074 3.16606 13.5547C1.99628 11.8002 1.99727 9.53349 1.99809 7.64833C1.99811 7.59862 1.99813 7.54917 1.99813 7.5C1.99813 6.94772 2.44585 6.5 2.99813 6.5C6.40893 6.5 8.62669 7.39885 10.0066 8.82811C10.0187 8.2128 10.0506 7.59438 10.1338 7.00164C10.2719 6.01759 10.5599 5.02863 11.1903 4.16183C12.4824 2.38526 14.9106 1.5 18.9991 1.5C19.5513 1.5 19.9991 1.94772 19.9991 2.5C19.9991 2.54216 19.9991 2.58467 19.9991 2.62751C19.9999 4.28462 20.0009 6.4359 18.82 8.13356C17.6508 9.81426 15.5269 10.8219 11.999 10.9785V19.5H18C18.5522 19.5 19 19.9477 19 20.5C19 21.0523 18.5522 21.5 18 21.5H3.99996C3.44768 21.5 2.99996 21.0523 2.99996 20.5C2.99996 19.9477 3.44768 19.5 3.99996 19.5H9.99905V16.4785Z" fill="white"/>
    </g>
    <defs>
        <filter id="filter0_d_6002_10752" x="-0.00195312" y="0.5" width="22.001" height="24" filterUnits="userSpaceOnUse" color-interpolation-filters="sRGB">
            <feFlood flood-opacity="0" result="BackgroundImageFix"/>
            <feColorMatrix in="SourceAlpha" type="matrix" values="0 0 0 0 0 0 0 0 0 0 0 0 0 0 0 0 0 0 127 0" result="hardAlpha"/>
            <feOffset dy="1"/>
            <feGaussianBlur stdDeviation="1"/>
            <feComposite in2="hardAlpha" operator="out"/>
            <feColorMatrix type="matrix" values="0 0 0 0 0.0666667 0 0 0 0 0.239216 0 0 0 0 0.372549 0 0 0 1 0"/>
            <feBlend mode="normal" in2="BackgroundImageFix" result="effect1_dropShadow_6002_10752"/>
            <feBlend mode="normal" in="SourceGraphic" in2="effect1_dropShadow_6002_10752" result="shape"/>
        </filter>
    </defs>
</svg>
