<svg width="100" height="100" viewBox="0 0 100 100" fill="none" xmlns="http://www.w3.org/2000/svg">
    <circle cx="50" cy="50" r="50" fill="url(#paint0_linear_1862_30971)"/>
    <g filter="url(#filter0_d_1862_30971)">
        <path d="M50 74.8912C44.6968 74.8817 39.6117 72.7794 35.85 69.0412C32.1118 65.2795 30.0095 60.1944 30 54.8912C30.0108 51.6163 31.0807 48.4328 33.05 45.8162C33.3761 45.4165 33.8178 45.1275 34.3146 44.9887C34.8114 44.85 35.339 44.8683 35.825 45.0412C36.3129 45.2117 36.7359 45.5293 37.0358 45.9501C37.3358 46.3709 37.4979 46.8744 37.5 47.3912C37.5129 48.3817 37.9122 49.328 38.6127 50.0285C39.3131 50.729 40.2595 51.1282 41.25 51.1412C42.2405 51.1282 43.1869 50.729 43.8873 50.0285C44.5878 49.328 44.9871 48.3817 45 47.3912C44.9916 45.6112 44.4614 43.8728 43.475 42.3912L42.7 41.1412C39.65 34.9912 41.475 29.1162 48.3 23.1412C48.6335 22.8412 49.0416 22.6365 49.4815 22.5485C49.9213 22.4606 50.3768 22.4926 50.8 22.6412C51.2153 22.7816 51.5863 23.0288 51.8759 23.3579C52.1655 23.687 52.3635 24.0864 52.45 24.5162C53.7136 30.3402 56.9232 35.5601 61.55 39.3162C64.0768 41.1013 66.1551 43.4482 67.6213 46.1725C69.0875 48.8967 69.9018 51.924 70 55.0162C69.9798 60.3172 67.8791 65.3984 64.15 69.1662C60.3651 72.854 55.2844 74.9097 50 74.8912ZM35.2 53.6412C35.1759 54.0742 35.1759 54.5082 35.2 54.9412C35.2035 58.9181 36.7862 62.7308 39.6 65.5412C42.4103 68.355 46.2231 69.9377 50.2 69.9412C54.1769 69.9377 57.9897 68.355 60.8 65.5412C63.6139 62.7308 65.1965 58.9181 65.2 54.9412C65.0803 52.6023 64.4252 50.3221 63.2853 48.2763C62.1453 46.2305 60.551 44.4736 58.625 43.1412C54.2739 39.6019 50.9432 34.9683 48.975 29.7162C45.7 33.7162 46.3 36.5412 47.425 38.8162L48.075 40.0662C49.4652 42.2747 50.2019 44.8316 50.2 47.4412C50.2 49.7618 49.2781 51.9874 47.6372 53.6284C45.9962 55.2693 43.7706 56.1912 41.45 56.1912C40.2915 56.1998 39.1427 55.9789 38.07 55.5412C36.9973 55.1035 36.0219 54.4578 35.2 53.6412V53.6412Z" fill="white"/>
    </g>
    <defs>
        <filter id="filter0_d_1862_30971" x="25" y="20" width="50" height="62.3911" filterUnits="userSpaceOnUse" color-interpolation-filters="sRGB">
            <feFlood flood-opacity="0" result="BackgroundImageFix"/>
            <feColorMatrix in="SourceAlpha" type="matrix" values="0 0 0 0 0 0 0 0 0 0 0 0 0 0 0 0 0 0 127 0" result="hardAlpha"/>
            <feOffset dy="2.5"/>
            <feGaussianBlur stdDeviation="2.5"/>
            <feComposite in2="hardAlpha" operator="out"/>
            <feColorMatrix type="matrix" values="0 0 0 0 0.645833 0 0 0 0 0.211134 0 0 0 0 0.115712 0 0 0 1 0"/>
            <feBlend mode="normal" in2="BackgroundImageFix" result="effect1_dropShadow_1862_30971"/>
            <feBlend mode="normal" in="SourceGraphic" in2="effect1_dropShadow_1862_30971" result="shape"/>
        </filter>
        <linearGradient id="paint0_linear_1862_30971" x1="49.7653" y1="1.57308e-05" x2="49.7653" y2="100" gradientUnits="userSpaceOnUse">
            <stop stop-color="#FFD866"/>
            <stop offset="1" stop-color="#CB6B39"/>
        </linearGradient>
    </defs>
</svg>
