<svg width="28" height="26" viewBox="0 0 28 26" fill="none" xmlns="http://www.w3.org/2000/svg">
    <g filter="url(#filter0_d_6002_10780)">
        <path d="M9 3.85937V3.85937C7.18406 2.64827 4.81638 2.64893 3 3.85937V3.85937" stroke="white" stroke-width="2" stroke-linecap="round"/>
        <path d="M7.5 8.35938C7.5 9.1878 6.82843 9.85938 6 9.85938C5.17157 9.85938 4.5 9.1878 4.5 8.35938C4.5 7.53095 5.17157 6.85938 6 6.85938C6.82843 6.85938 7.5 7.53095 7.5 8.35938Z" fill="white"/>
        <path d="M25 3.85937V3.85937C23.1841 2.64827 20.8164 2.64893 19 3.85937V3.85937" stroke="white" stroke-width="2" stroke-linecap="round"/>
        <path d="M23.5 8.35938C23.5 9.1878 22.8284 9.85938 22 9.85938C21.1716 9.85938 20.5 9.1878 20.5 8.35938C20.5 7.53095 21.1716 6.85938 22 6.85938C22.8284 6.85938 23.5 7.53095 23.5 8.35938Z" fill="white"/>
        <path d="M6 16.8594C9.80575 22.568 18.1942 22.568 22 16.8594" stroke="white" stroke-width="2" stroke-linecap="round"/>
    </g>
    <defs>
        <filter id="filter0_d_6002_10780" x="0" y="0.951294" width="28" height="24.1896" filterUnits="userSpaceOnUse" color-interpolation-filters="sRGB">
            <feFlood flood-opacity="0" result="BackgroundImageFix"/>
            <feColorMatrix in="SourceAlpha" type="matrix" values="0 0 0 0 0 0 0 0 0 0 0 0 0 0 0 0 0 0 127 0" result="hardAlpha"/>
            <feOffset dy="1"/>
            <feGaussianBlur stdDeviation="1"/>
            <feComposite in2="hardAlpha" operator="out"/>
            <feColorMatrix type="matrix" values="0 0 0 0 0.662745 0 0 0 0 0.239216 0 0 0 0 0.262745 0 0 0 1 0"/>
            <feBlend mode="normal" in2="BackgroundImageFix" result="effect1_dropShadow_6002_10780"/>
            <feBlend mode="normal" in="SourceGraphic" in2="effect1_dropShadow_6002_10780" result="shape"/>
        </filter>
    </defs>
</svg>
