<svg width="100" height="100" viewBox="0 0 100 100" fill="none" xmlns="http://www.w3.org/2000/svg">
    <circle cx="50" cy="50" r="50" fill="url(#paint0_linear_1862_30976)"/>
    <g filter="url(#filter0_d_1862_30976)">
        <path fill-rule="evenodd" clip-rule="evenodd" d="M23.1418 65.8276C24.0654 64.8013 25.6462 64.7181 26.6724 65.6418L28.3161 67.1211C31.1684 69.6882 35.4983 69.6882 38.3506 67.1211L39.9943 65.6418C40.945 64.7861 42.3883 64.7861 43.3391 65.6418L44.9828 67.1211C47.8351 69.6882 52.165 69.6882 55.0173 67.1211L56.6609 65.6418C57.6117 64.7861 59.055 64.7861 60.0058 65.6418L61.6495 67.1211C64.5017 69.6882 68.8316 69.6882 71.6839 67.1211L73.3276 65.6418C74.3539 64.7181 75.9346 64.8013 76.8583 65.8276C77.7819 66.8539 77.6987 68.4346 76.6724 69.3583L75.0287 70.8376C70.2845 75.1074 63.0875 75.116 58.3334 70.8633C53.5888 75.1074 46.4112 75.1074 41.6667 70.8633C36.9126 75.116 29.7155 75.1074 24.9713 70.8376L23.3276 69.3583C22.3013 68.4346 22.2181 66.8539 23.1418 65.8276Z" fill="white"/>
    </g>
    <g filter="url(#filter1_d_1862_30976)">
        <path fill-rule="evenodd" clip-rule="evenodd" d="M52.5012 27.0885C52.3624 26.2606 51.8099 25.522 50.9749 25.1832C50.6546 25.0531 50.323 24.9943 49.9977 24.9993C49.6725 24.9943 49.3409 25.0531 49.0205 25.1832C48.1856 25.522 47.6331 26.2606 47.4942 27.0885C46.2748 29.8495 44.4334 32.2709 42.4691 34.8539C42.0421 35.4155 41.6092 35.9847 41.1756 36.5668C38.7913 39.7676 36.2798 43.5002 36.2472 47.9912C36.0094 51.6918 37.1256 55.3035 39.5195 58.0242C41.9557 60.7929 45.5756 62.4789 49.9848 62.4997C54.4109 62.5205 58.0396 60.8277 60.4769 58.0462C62.8686 55.3167 63.9833 51.6891 63.7457 47.9913C63.7131 43.5004 61.2025 39.768 58.8187 36.567C58.3851 35.9847 57.9521 35.4152 57.525 34.8534C55.5614 32.2707 53.7206 29.8494 52.5012 27.0885ZM49.9976 32.9242C48.8251 34.774 47.5264 36.4752 46.3374 38.0328C45.938 38.5559 45.5511 39.0628 45.1854 39.5537C42.7483 42.8254 41.2469 45.3781 41.2469 48.0797C41.2469 48.1378 41.2449 48.196 41.2408 48.254C41.0642 50.7804 41.8257 53.0761 43.2733 54.7213C44.6972 56.3396 46.9209 57.4852 50.0084 57.4997C53.0791 57.5142 55.2937 56.3745 56.7163 54.751C58.1659 53.0966 58.9288 50.7817 58.7521 48.254C58.748 48.196 58.746 48.1378 58.746 48.0797C58.746 45.3778 57.245 42.825 54.8086 39.5534C54.4429 39.0624 54.0558 38.5553 53.6564 38.032C52.4678 36.4746 51.1697 34.7737 49.9976 32.9242Z" fill="white"/>
    </g>
    <defs>
        <filter id="filter0_d_1862_30976" x="17.5" y="62.5" width="65" height="19.0464" filterUnits="userSpaceOnUse" color-interpolation-filters="sRGB">
            <feFlood flood-opacity="0" result="BackgroundImageFix"/>
            <feColorMatrix in="SourceAlpha" type="matrix" values="0 0 0 0 0 0 0 0 0 0 0 0 0 0 0 0 0 0 127 0" result="hardAlpha"/>
            <feOffset dy="2.5"/>
            <feGaussianBlur stdDeviation="2.5"/>
            <feComposite in2="hardAlpha" operator="out"/>
            <feColorMatrix type="matrix" values="0 0 0 0 0.168627 0 0 0 0 0.227451 0 0 0 0 0.403922 0 0 0 1 0"/>
            <feBlend mode="normal" in2="BackgroundImageFix" result="effect1_dropShadow_1862_30976"/>
            <feBlend mode="normal" in="SourceGraphic" in2="effect1_dropShadow_1862_30976" result="shape"/>
        </filter>
        <filter id="filter1_d_1862_30976" x="31.2158" y="22.499" width="37.5615" height="47.501" filterUnits="userSpaceOnUse" color-interpolation-filters="sRGB">
            <feFlood flood-opacity="0" result="BackgroundImageFix"/>
            <feColorMatrix in="SourceAlpha" type="matrix" values="0 0 0 0 0 0 0 0 0 0 0 0 0 0 0 0 0 0 127 0" result="hardAlpha"/>
            <feOffset dy="2.5"/>
            <feGaussianBlur stdDeviation="2.5"/>
            <feComposite in2="hardAlpha" operator="out"/>
            <feColorMatrix type="matrix" values="0 0 0 0 0.168627 0 0 0 0 0.227451 0 0 0 0 0.403922 0 0 0 1 0"/>
            <feBlend mode="normal" in2="BackgroundImageFix" result="effect1_dropShadow_1862_30976"/>
            <feBlend mode="normal" in="SourceGraphic" in2="effect1_dropShadow_1862_30976" result="shape"/>
        </filter>
        <linearGradient id="paint0_linear_1862_30976" x1="49.7653" y1="1.57308e-05" x2="49.7653" y2="100" gradientUnits="userSpaceOnUse">
            <stop stop-color="#76D9EF"/>
            <stop offset="1" stop-color="#3A638A"/>
        </linearGradient>
    </defs>
</svg>
