<svg width="30" height="27" viewBox="0 0 30 27" fill="none" xmlns="http://www.w3.org/2000/svg">
    <g filter="url(#filter0_d_6163_181)">
        <path d="M9.09864 2.17628V2.17628C8.13153 4.13309 6.08073 5.31636 3.90248 5.17627V5.17627" stroke="white" stroke-width="2" stroke-linecap="round"/>
        <path d="M8.50098 10.0425C8.50098 10.8709 7.8294 11.5425 7.00098 11.5425C6.17255 11.5425 5.50098 10.8709 5.50098 10.0425C5.50098 9.21405 6.17255 8.54248 7.00098 8.54248C7.8294 8.54248 8.50098 9.21405 8.50098 10.0425Z" fill="white"/>
        <path d="M26.0986 5.17628V5.17628C23.9204 5.31715 21.8703 4.13274 20.9025 2.17627V2.17627" stroke="white" stroke-width="2" stroke-linecap="round"/>
        <path d="M24.501 10.0425C24.501 10.8709 23.8294 11.5425 23.001 11.5425C22.1725 11.5425 21.501 10.8709 21.501 10.0425C21.501 9.21405 22.1725 8.54248 23.001 8.54248C23.8294 8.54248 24.501 9.21405 24.501 10.0425Z" fill="white"/>
        <path d="M7.00098 22.8237C10.8067 17.1151 19.1952 17.1151 23.001 22.8237" stroke="white" stroke-width="2" stroke-linecap="round"/>
    </g>
    <defs>
        <filter id="filter0_d_6163_181" x="0.902344" y="0.176025" width="28.1963" height="26.6477" filterUnits="userSpaceOnUse" color-interpolation-filters="sRGB">
            <feFlood flood-opacity="0" result="BackgroundImageFix"/>
            <feColorMatrix in="SourceAlpha" type="matrix" values="0 0 0 0 0 0 0 0 0 0 0 0 0 0 0 0 0 0 127 0" result="hardAlpha"/>
            <feOffset dy="1"/>
            <feGaussianBlur stdDeviation="1"/>
            <feComposite in2="hardAlpha" operator="out"/>
            <feColorMatrix type="matrix" values="0 0 0 0 0.662745 0 0 0 0 0.239216 0 0 0 0 0.262745 0 0 0 1 0"/>
            <feBlend mode="normal" in2="BackgroundImageFix" result="effect1_dropShadow_6163_181"/>
            <feBlend mode="normal" in="SourceGraphic" in2="effect1_dropShadow_6163_181" result="shape"/>
        </filter>
    </defs>
</svg>
