<svg width="269" height="98" viewBox="0 0 269 98" fill="none" xmlns="http://www.w3.org/2000/svg">
<path d="M207.983 0H195.654V66.0449H207.983V0Z" fill="#35646E"/>
<path d="M73.0654 0H60.7363V66.0449H73.0654V0Z" fill="#35646E"/>
<path d="M241.942 54.075C245.188 54.0792 248.336 52.9572 250.848 50.9003C253.36 48.8434 255.081 45.9789 255.718 42.7952C256.354 39.6114 255.867 36.3055 254.339 33.4408C252.811 30.5761 250.336 28.3301 247.338 27.0855C244.339 25.841 241.001 25.675 237.894 26.6158C234.786 27.5566 232.101 29.546 230.296 32.2449C228.492 34.9437 227.679 38.185 227.996 41.4162C228.313 44.6474 229.742 47.6685 232.037 49.9646C234.664 52.5931 238.226 54.0715 241.942 54.075ZM227.927 14.0919V17.7315L228.748 17.256C232.752 14.9401 237.295 13.7194 241.92 13.7166C246.545 13.7137 251.09 14.929 255.096 17.24C259.103 19.551 262.43 22.8764 264.744 26.8815C267.057 30.8867 268.275 35.4305 268.275 40.0558C268.275 44.6811 267.057 49.2249 264.744 53.23C262.43 57.2352 259.103 60.5606 255.096 62.8716C251.09 65.1826 246.545 66.3978 241.92 66.395C237.295 66.3922 232.752 65.1715 228.748 62.8555L227.927 62.3687V66.0356H215.593V14.0919H227.927Z" fill="#35646E"/>
<path d="M26.3358 54.075C23.089 54.0786 19.9415 52.9561 17.4297 50.8988C14.9179 48.8414 13.1974 45.9766 12.5614 42.7927C11.9254 39.6088 12.4133 36.3029 13.942 33.4385C15.4707 30.5741 17.9455 28.3284 20.9445 27.0845C23.9436 25.8405 27.2812 25.6751 30.3885 26.6166C33.4959 27.558 36.1805 29.548 37.9848 32.2473C39.7891 34.9466 40.6014 38.1881 40.2833 41.4193C39.9651 44.6505 38.5362 47.6713 36.2401 49.9668C33.6134 52.5945 30.0512 54.0721 26.3358 54.075ZM40.3505 14.0919V17.7315L39.5293 17.256C35.5256 14.9401 30.9825 13.7194 26.3572 13.7166C21.7319 13.7137 17.1874 14.929 13.1808 17.24C9.17425 19.551 5.84688 22.8764 3.53341 26.8815C1.21994 30.8867 0.00195312 35.4305 0.00195312 40.0558C0.00195312 44.6811 1.21994 49.2249 3.53341 53.23C5.84688 57.2352 9.17425 60.5606 13.1808 62.8716C17.1874 65.1826 21.7319 66.3978 26.3572 66.395C30.9825 66.3922 35.5256 65.1715 39.5293 62.8555L40.3505 62.3687V66.0356H52.6819V14.0919H40.3505Z" fill="#35646E"/>
<path d="M150 38.3953C150.421 35.9693 151.475 33.6974 153.055 31.8091C154.635 29.9207 156.685 28.4828 158.999 27.6405C161.313 26.7982 163.808 26.5814 166.232 27.0119C168.656 27.4424 170.924 28.505 172.806 30.0925L173.532 30.7066L170.532 31.7894L149.832 39.3302L150 38.3953ZM91.6004 38.3634C92.0289 35.9465 93.0853 33.6847 94.6637 31.8049C96.242 29.925 98.2868 28.4932 100.593 27.6528C102.899 26.8125 105.386 26.5932 107.804 27.017C110.222 27.4408 112.485 28.4928 114.368 30.0675L115.099 30.6862L91.4412 39.2938L91.6004 38.3634ZM168.594 53.9886C166.279 54.817 163.788 55.0259 161.367 54.5946C158.947 54.1632 156.681 53.1067 154.795 51.5296L154.069 50.9109L189.976 37.8562C189.834 36.612 189.606 35.3792 189.294 34.1665C189.087 33.3645 188.839 32.5734 188.552 31.7963C186.36 25.7689 182.044 20.7483 176.414 17.6761C170.784 14.6039 164.226 13.6912 157.971 15.1092C151.716 16.5271 146.193 20.1782 142.438 25.3779C138.683 30.5775 136.954 36.9684 137.575 43.352L137.621 43.7614L110.19 53.9591C107.869 54.7994 105.368 55.0126 102.938 54.5773C100.509 54.142 98.2369 53.0735 96.3524 51.4796L95.6244 50.8813L131.565 37.8016C131.204 34.3615 130.168 31.0263 128.518 27.9863C126.868 24.9464 124.635 22.2613 121.946 20.0844C119.258 17.9075 116.168 16.2813 112.851 15.2988C109.535 14.3163 106.057 13.9966 102.617 14.3581C99.1769 14.7195 95.8417 15.755 92.8018 17.4054C89.7619 19.0558 87.0768 21.2889 84.8998 23.977C82.7229 26.6651 81.0968 29.7556 80.1142 33.0722C79.1317 36.3887 78.812 39.8663 79.1735 43.3064C79.3902 45.5276 79.8831 47.713 80.6407 49.8122C81.3889 51.8881 82.4011 53.859 83.6525 55.6765C86.9471 60.5086 91.7589 64.1042 97.3266 65.8943C102.894 67.6844 108.9 67.5669 114.393 65.5603L141.82 55.358L142.061 55.7106C145.366 60.5303 150.18 64.1143 155.745 65.8986C161.31 67.683 167.31 67.5663 172.802 65.5671C179.031 63.3622 184.19 58.8731 187.235 53.0082L176.471 46.7254C175.7 48.3939 174.608 49.8941 173.257 51.1404C171.906 52.3866 170.323 53.3545 168.598 53.9886H168.594Z" fill="#35646E"/>
<path d="M29.076 97.3474H26.3008V84.7681H28.2753L33.0249 91.6105L37.7405 84.7681H39.749V97.3474H36.9397V90.6824L33.5276 95.5663H32.5063L29.0942 90.6824L29.076 97.3474Z" fill="#35646E"/>
<path d="M54.2415 97.3474H45.4746V84.7681H54.2597V87.3886H48.3021V89.7202H53.8161V92.3248H48.3021V94.7246H54.2415V97.3474Z" fill="#35646E"/>
<path d="M67.8525 92.12V84.7681H70.6117V97.3474H68.5849L62.4431 90.0682V97.3474H59.668V84.7681H61.5742L67.8525 92.12Z" fill="#35646E"/>
<path d="M78.669 97.3474V87.4727H75.1113V84.7681H85.036V87.4727H81.4965V97.3474H78.669Z" fill="#35646E"/>
<path d="M98.82 97.3474H95.8924L95.0575 94.8111H90.8356L89.9689 97.3474H87.0391L91.7546 84.7681H94.2068L98.82 97.3474ZM94.3092 92.343L92.9648 88.3599L91.5999 92.343H94.3092Z" fill="#35646E"/>
<path d="M112.357 97.3474H103.258V84.7681H106.083V94.6564H112.348L112.357 97.3474Z" fill="#35646E"/>
<path d="M130.332 97.3474H127.795L123.676 84.7681H126.774L129.124 92.9571L131.831 84.7681H133.721L136.451 92.9571L138.766 84.7681H141.865L137.77 97.3474H135.234L132.782 89.5155L130.332 97.3474Z" fill="#35646E"/>
<path d="M155.081 97.3474H146.314V84.7681H155.1V87.3886H149.142V89.7202H154.656V92.3248H149.142V94.7246H155.081V97.3474Z" fill="#35646E"/>
<path d="M169.597 97.3474H160.498V84.7681H163.339V94.6564H169.604L169.597 97.3474Z" fill="#35646E"/>
<path d="M183.199 97.3474H174.1V84.7681H176.925V94.6564H183.189L183.199 97.3474Z" fill="#35646E"/>
<path d="M195.898 92.12V84.7681H198.655V97.3474H196.628L190.486 90.0682V97.3474H187.711V84.7681H189.617L195.898 92.12Z" fill="#35646E"/>
<path d="M213.156 97.3474H204.389V84.7681H213.156V87.3886H207.198V89.7202H212.712V92.3248H207.198V94.7246H213.156V97.3474Z" fill="#35646E"/>
<path d="M222.423 97.5677C221.464 97.5762 220.514 97.3759 219.641 96.9808C218.795 96.5992 218.056 96.0176 217.486 95.2862L219.02 93.2776C219.961 94.3892 221.099 94.9457 222.432 94.9472C222.852 94.966 223.268 94.8556 223.624 94.631C223.764 94.544 223.879 94.4223 223.959 94.2777C224.039 94.1331 224.08 93.9704 224.079 93.8053C224.079 93.3413 223.715 92.95 222.989 92.6315L221.865 92.2221C221.312 92.0234 220.772 91.7902 220.248 91.5237C218.897 90.7867 218.221 89.7252 218.221 88.3391C218.21 87.8232 218.317 87.3115 218.532 86.8427C218.748 86.3738 219.067 85.9599 219.465 85.6322C220.293 84.9179 221.371 84.5608 222.698 84.5608C224.287 84.5292 225.824 85.1288 226.972 86.2282L225.575 88.3232C225.187 87.9668 224.734 87.6888 224.24 87.5043C223.76 87.311 223.249 87.2076 222.732 87.1995C222.346 87.1783 221.964 87.276 221.635 87.4793C221.51 87.5611 221.407 87.6736 221.337 87.8061C221.267 87.9387 221.232 88.0869 221.235 88.2367C221.235 88.6689 221.576 89.0382 222.256 89.3445L223.483 89.8382C224.242 90.1316 224.725 90.3318 224.929 90.4319C226.438 91.1143 227.196 92.1811 227.204 93.6324C227.218 94.1746 227.105 94.7125 226.874 95.2034C226.644 95.6943 226.302 96.1245 225.876 96.4599C225.004 97.1985 223.853 97.5677 222.423 97.5677Z" fill="#35646E"/>
<path d="M236.202 97.5677C235.243 97.5762 234.294 97.3759 233.42 96.9808C232.574 96.6 231.835 96.0182 231.266 95.2862L232.797 93.2776C233.738 94.3892 234.879 94.9457 236.22 94.9472C236.64 94.9664 237.055 94.856 237.41 94.631C237.55 94.5443 237.666 94.4227 237.746 94.278C237.826 94.1333 237.866 93.9705 237.865 93.8053C237.865 93.3413 237.502 92.95 236.777 92.6315L235.654 92.2221C235.1 92.0234 234.56 91.7902 234.036 91.5237C232.685 90.7867 232.009 89.7252 232.009 88.3391C231.999 87.8232 232.105 87.3115 232.321 86.8427C232.536 86.3738 232.855 85.9599 233.254 85.6322C234.082 84.9179 235.159 84.5608 236.486 84.5608C238.075 84.5292 239.612 85.1288 240.76 86.2282L239.364 88.3232C238.975 87.9668 238.522 87.6888 238.028 87.5043C237.549 87.311 237.037 87.2076 236.52 87.1995C236.135 87.1783 235.752 87.276 235.424 87.4793C235.298 87.5608 235.195 87.6732 235.125 87.8058C235.055 87.9384 235.02 88.0868 235.024 88.2367C235.024 88.6689 235.362 89.0375 236.045 89.3445L237.271 89.8382C238.031 90.1316 238.513 90.3318 238.718 90.4319C240.225 91.1143 240.98 92.1811 240.981 93.6324C240.994 94.1745 240.881 94.7123 240.651 95.203C240.42 95.6938 240.078 96.1242 239.653 96.4599C238.782 97.1985 237.632 97.5677 236.202 97.5677Z" fill="#35646E"/>
<path d="M16.4098 92.234H0.664062V89.75H16.4098V92.234Z" fill="#EFCD64"/>
<path d="M266.177 92.234H250.432V89.75H266.177V92.234Z" fill="#EFCD64"/>
</svg>
